<?xml version="1.0" standalone="no"?>
<!DOCTYPE svg PUBLIC "-//W3C//DTD SVG 1.1//EN" "http://www.w3.org/Graphics/SVG/1.1/DTD/svg11.dtd" >
<svg xmlns="http://www.w3.org/2000/svg">
<metadata>
This is a custom SVG webfont generated by Font Squirrel.
Copyright   : Design 200107 by Hans Jurg Hunziker
Foundry URL : wwwurwppde
</metadata>
<defs>
<font id="SiemensSerifSemiboldItalic" horiz-adv-x="1179" >
<font-face units-per-em="2048" ascent="1638" descent="-410" />
<missing-glyph horiz-adv-x="512" />
<glyph unicode="&#xfb01;" horiz-adv-x="1314" d="M117 0q10 47 33 180q16 104 32 176q16 80 21 115l76 502h-162l10 67h164l14 93q31 199 96 278q90 109 258 109q125 0 261 -58l-41 -231h-150l19 186q-33 33 -70 33q-68 0 -107 -74q-27 -57 -53 -221l-18 -115h215l-13 -67h-215l-77 -508q-43 -272 -68 -465h-225zM817 0 q29 137 80 453l23 141q37 262 49 373l-140 6l11 67l370 11q-43 -213 -80 -439l-22 -153q-47 -291 -66 -459h-225zM1016 1343q0 53 35.5 89t89 36t89.5 -35.5t36 -89.5q0 -55 -35 -89.5t-90.5 -34.5t-90 34.5t-34.5 89.5z" />
<glyph unicode="&#xfb02;" horiz-adv-x="1286" d="M117 0q82 442 86 471l76 502h-162l10 67h164l12 78q35 213 133 295q121 106 361 107q199 0 444 -72l-78 -432l-86 -557q-45 -293 -63 -459h-230q20 90 86 471l86 549q39 256 45 354q-84 76 -196 76q-156 0 -225 -109q-43 -68 -64 -202l-16 -99h225l-10 -67h-228l-77 -508 q-43 -272 -68 -465h-225z" />
<glyph unicode=" "  horiz-adv-x="512" />
<glyph unicode="&#x09;" horiz-adv-x="512" />
<glyph unicode="&#xa0;" horiz-adv-x="512" />
<glyph unicode="!" horiz-adv-x="647" d="M152 111q0 53 36.5 90t92 37t92.5 -37t37 -92.5t-37 -92t-92 -36.5q-57 0 -93 37t-36 94zM291 426l37 739l4 92q2 94 35 132q39 49 108 49q59 0 95 -30t36 -77q0 -27 -24 -104l-13 -47l-8 -23l-190 -731h-80z" />
<glyph unicode="&#x22;" horiz-adv-x="645" d="M164 905v320q0 98 8 127q23 86 111 86q47 0 74.5 -22.5t27.5 -63.5q0 -35 -29 -127l-102 -320h-90zM492 905v320v6q-2 20 2 68.5t10 66.5q29 72 106 72q47 0 75 -22.5t28 -63.5q0 -33 -29 -127l-102 -320h-90z" />
<glyph unicode="#" d="M82 418l20 131h201l94 317h-180l23 131h196l125 420h146l-125 -420h243l125 420h146l-123 -420h182l-20 -131h-203l-92 -317h180l-21 -131h-200l-123 -418h-148l125 418h-243l-125 -418h-146l123 418h-180zM449 549h243l94 317h-243z" />
<glyph unicode="$" d="M92 66l43 290h168l-14 -239q78 -57 188 -64l92 592q-176 96 -223 135q-119 98 -119 256q0 100 47.5 186.5t131.5 139.5q104 66 290 78l27 157h90l-27 -159q190 -6 330 -97l-41 -276h-166l17 235q-59 57 -150 66l-88 -549q178 -88 242 -147q106 -98 106 -240 q0 -102 -46 -195.5t-128 -154.5q-117 -88 -307 -100l-25 -162h-92l27 162q-207 10 -373 86zM428 1085q0 -76 38 -125t138 -102l80 508q-115 -20 -185.5 -97.5t-70.5 -183.5zM567 55q121 25 194 113t73 211q0 76 -39 125t-142 98z" />
<glyph unicode="%" horiz-adv-x="1691" d="M150 924q0 102 28.5 208.5t75.5 174.5q86 125 262 125q139 0 204.5 -71t65.5 -222q0 -217 -94 -369q-88 -141 -274 -141q-139 0 -203.5 71.5t-64.5 223.5zM315 870q0 -172 99 -172q96 0 151 158q55 166 56 338q0 168 -101 168q-86 0 -139 -135q-66 -177 -66 -357z M467 -41l694 1499h123l-694 -1499h-123zM963 279q0 104 28.5 210.5t75.5 174.5q86 125 260 124q139 0 204.5 -70.5t65.5 -221.5q0 -217 -94 -369q-88 -141 -272 -141q-137 0 -202.5 70.5t-65.5 222.5zM1128 225q0 -170 98.5 -170t151.5 158q55 162 56 338q0 168 -101 168 q-88 0 -139 -135q-66 -173 -66 -359z" />
<glyph unicode="&#x26;" horiz-adv-x="1499" d="M82 317q0 209 186 342q74 51 221 101q-115 193 -114 325q0 160 113.5 256.5t304.5 96.5q170 0 266 -69t96 -189q0 -170 -164 -277q-98 -63 -268 -123l295 -442q131 156 168 391h-113l10 68h398l-11 -68h-112q-25 -133 -88.5 -245.5t-188.5 -237.5l29 -43 q57 -84 96 -109.5t107 -25.5h65l-12 -68h-248q-78 0 -108.5 14.5t-69.5 71.5l-18 27q-102 -76 -187.5 -104.5t-210.5 -28.5q-213 0 -327.5 87.5t-114.5 249.5zM307 326q0 -125 71 -197t195 -72q160 0 306 121l-351 520q-221 -120 -221 -372zM565 1128q0 -115 115 -288l14 4 q131 51 207 143t76 203q0 82 -47 131t-127 49q-100 0 -169 -70t-69 -172z" />
<glyph unicode="'" horiz-adv-x="317" d="M164 905v320q0 98 8 127q23 86 111 86q47 0 74.5 -22.5t27.5 -63.5q0 -35 -29 -127l-102 -320h-90z" />
<glyph unicode="(" horiz-adv-x="778" d="M168 416q0 362 178 660t496 468l22 -41q-190 -164 -301 -370q-84 -162 -136 -387.5t-52 -434.5q0 -184 48 -325.5t157 -272.5l-33 -41q-379 267 -379 744z" />
<glyph unicode=")" horiz-adv-x="778" d="M-57 -287q188 162 301 371q84 162 136 387t52 432q0 360 -205 600l35 41q182 -127 279.5 -318.5t97.5 -422.5q0 -229 -75 -441t-212 -376q-160 -190 -385 -314z" />
<glyph unicode="*" d="M313 1264q0 37 26 64.5t58 27.5q37 0 78 -33l178 -137l-6 205q-2 72 18.5 103.5t69.5 31.5q39 0 63.5 -21.5t24.5 -56.5q0 -18 -18 -72l-70 -202l199 69q51 18 74 19q33 0 55 -25t22 -61q0 -43 -32.5 -67t-83.5 -17l-11 2l-215 2l136 -181q37 -49 36 -73 q0 -35 -26.5 -60.5t-61.5 -25.5q-66 0 -88 82l-65 219l-129 -189q-39 -55 -84 -55q-37 0 -62.5 25.5t-25.5 62.5q0 27 11 41t52 43l182 131l-190 58q-70 20 -92.5 37.5t-22.5 52.5z" />
<glyph unicode="+" d="M74 449l24 143h424l72 448h156l-70 -448h424l-23 -143h-426l-69 -449h-158l72 449h-426z" />
<glyph unicode="," horiz-adv-x="589" d="M8 -330q150 164 193 322q-94 27 -95 117q0 57 38 95t96 38q63 0 101 -39t38 -103q0 -176 -313 -483z" />
<glyph unicode="-" horiz-adv-x="698" d="M84 496l25 151h522l-25 -151h-522z" />
<glyph unicode="." horiz-adv-x="589" d="M94 115q0 55 38 93t95.5 38t95 -38t37.5 -95.5t-37.5 -95t-95.5 -37.5q-59 0 -96 38t-37 97z" />
<glyph unicode="/" horiz-adv-x="413" d="M-88 -41l516 1499h133l-518 -1499h-131z" />
<glyph unicode="0" d="M121 475q0 178 48 379t122 328q152 256 434 256q395 0 395 -482q0 -193 -48 -393.5t-126 -329.5q-152 -254 -430 -253q-201 0 -298 121.5t-97 373.5zM334 367q0 -164 44 -241t138 -77q180 0 279 316q45 150 78.5 357.5t33.5 338.5q0 307 -182 307q-168 0 -266 -276 q-47 -137 -86 -361.5t-39 -363.5z" />
<glyph unicode="1" d="M219 0l10 68l197 6q35 162 68 368l75 484l58 336q-43 -35 -146.5 -87.5t-177.5 -74.5l-18 74q258 92 432 243h151q-4 -16 -37 -192q-4 -20 -10 -56l-15 -91q-9 -56 -18 -101l-83 -533q-39 -250 -50 -370l189 -6l-10 -68h-615z" />
<glyph unicode="2" d="M72 0l30 156q420 340 598.5 566t178.5 421q0 104 -50.5 160.5t-140.5 56.5q-104 0 -227 -68l-51 -213h-170l41 256q248 102 446 103q180 0 277.5 -75t97.5 -212q0 -180 -151.5 -359.5t-626.5 -560.5q-49 -41 -74 -59h690l-37 -172h-831z" />
<glyph unicode="3" d="M61 61l48 256h167l-18 -217q84 -51 182 -51q145 0 242.5 120t97.5 298q0 121 -77.5 178t-241.5 57q-45 0 -84 -2l12 78q29 -4 72 -4q197 0 303 100q117 111 117 291q0 94 -54.5 148.5t-150.5 54.5q-94 0 -189 -51l-49 -221h-170l37 260q223 82 402 82q188 0 289.5 -79 t101.5 -224q0 -162 -114 -264.5t-318 -125.5q166 -18 233 -67q104 -80 105 -229q0 -209 -148.5 -339t-388.5 -130q-216 -1 -406 81z" />
<glyph unicode="4" d="M45 426l23 133l749 858h170l-72 -403l-69 -451h229l-26 -137h-226l-14 -92q-27 -197 -33 -262l164 -4l-10 -68h-565l12 68l172 6q27 113 51 280l12 72h-567zM188 563h449l104 641z" />
<glyph unicode="5" d="M88 61l49 258h168l-20 -221q84 -49 180 -49q170 0 268 193q72 139 72 299q0 123 -58.5 192.5t-160.5 69.5q-147 0 -295 -137h-68l150 751h731l-35 -172h-639l-92 -467q158 125 330 125q170 0 266 -95t96 -265q0 -115 -40 -224.5t-111 -187.5q-139 -152 -390 -151 q-200 -1 -401 81z" />
<glyph unicode="6" d="M125 387q0 233 103.5 478t265.5 397q215 201 585 233v-63q-258 -29 -418.5 -183.5t-246.5 -457.5q123 123 280 122q168 0 266.5 -100t98.5 -270q0 -258 -150 -414q-141 -150 -370 -149q-199 0 -306.5 106t-107.5 301zM334 319q0 -131 48 -200.5t138 -69.5q152 0 242 180 q78 156 78 344q0 131 -44 200t-128 69q-139 0 -236.5 -153t-97.5 -370z" />
<glyph unicode="7" d="M166 0q78 244 259 510t587 731h-723l45 176h868l-14 -86q-307 -377 -525.5 -746.5t-263.5 -584.5h-233z" />
<glyph unicode="8" d="M96 315q0 133 85 221.5t300 176.5q-106 76 -153 150.5t-47 168.5q0 172 132 289t328 117q160 0 258.5 -76t98.5 -199q0 -145 -144 -258q-68 -53 -202 -123q154 -100 215 -184t61 -195q0 -182 -145.5 -302.5t-362.5 -120.5q-188 0 -306 92.5t-118 242.5zM264 295 q0 -111 67.5 -178.5t180.5 -67.5q131 0 222 80t91 193q0 94 -63.5 171.5t-222.5 176.5l-17 -8q-123 -57 -190.5 -154.5t-67.5 -212.5zM467 1108q0 -74 46 -133.5t175 -153.5l14 8q229 131 230 347q0 88 -53.5 140t-143.5 52q-113 0 -190.5 -75.5t-77.5 -184.5z" />
<glyph unicode="9" d="M162 -14q258 29 418.5 184.5t246.5 456.5q-121 -123 -280 -123q-168 0 -266.5 100.5t-98.5 269.5q0 258 150 414q141 150 370 150q199 0 306.5 -106.5t107.5 -303.5q0 -231 -103.5 -476t-264.5 -396q-215 -201 -586 -234v64zM401 842q0 -266 172 -267q139 0 236.5 152 t97.5 369q0 131 -48 201.5t-138 70.5q-133 0 -226.5 -153.5t-93.5 -372.5z" />
<glyph unicode=":" horiz-adv-x="589" d="M127 115q0 55 38 93t95 38t95 -38t38 -95.5t-38 -95t-95 -37.5q-59 0 -96 38t-37 97zM238 811q0 55 37.5 93t95 38t95.5 -38t38 -95t-38 -95t-95 -38q-59 0 -96 38t-37 97z" />
<glyph unicode=";" horiz-adv-x="589" d="M23 -330q150 164 192 322q-94 27 -94 117q0 57 38 95t95 38q63 0 101 -39t38 -103q0 -176 -313 -483zM238 811q0 55 37.5 93t95 38t95.5 -38t38 -95t-38 -95t-95 -38q-59 0 -96 38t-37 97z" />
<glyph unicode="&#x3c;" d="M72 459l20 125l1084 481l-29 -170l-856 -383l737 -383l-24 -152z" />
<glyph unicode="=" d="M49 289l25 143h1007l-24 -143h-1008zM100 606l25 144h1005l-22 -144h-1008z" />
<glyph unicode="&#x3e;" d="M4 -23l29 166l856 385l-737 383l24 154l932 -481l-21 -125z" />
<glyph unicode="?" horiz-adv-x="866" d="M188 111q0 53 37 90t92 37q57 0 93 -37t36 -92.5t-36.5 -92t-90.5 -36.5q-57 0 -94 37t-37 94zM197 1112l26 234q121 53 197 72.5t164 19.5q166 0 264 -73t98 -198q0 -143 -119 -266q-63 -68 -225 -176q-113 -76 -140.5 -110.5t-39.5 -120.5l-12 -78h-82l12 80 q18 123 39.5 160.5t122.5 127.5q125 113 179 208t54 198q0 82 -47 131t-125 49q-80 0 -149 -47l-54 -211h-163z" />
<glyph unicode="@" horiz-adv-x="1685" d="M125 719q0 309 203 508q217 211 587 211q338 0 534 -165t196 -448q0 -217 -116 -365.5t-286 -148.5q-154 0 -172 148q-96 -150 -260 -150q-129 0 -201.5 78t-72.5 217q0 205 120.5 348.5t292.5 143.5q106 0 189 -66l8 47h160l-80 -475q-14 -90 -15 -121q0 -37 22.5 -59.5 t57.5 -22.5q104 0 186.5 128t82.5 290q0 248 -168 396.5t-449 148.5q-291 0 -465 -175t-174 -468q0 -307 193 -486q199 -186 495 -186q156 0 312 68l26 -62q-162 -74 -360 -73q-379 0 -612.5 203.5t-233.5 535.5zM709 602q0 -201 155 -201q113 0 187 140l71 420 q-63 57 -135 57q-123 0 -209 -146q-69 -120 -69 -270z" />
<glyph unicode="A" horiz-adv-x="1327" d="M-90 0l10 68l115 6q72 113 166 293l350 684q119 217 186 366h123q10 -70 51 -256q8 -25 29 -123l150 -723q20 -100 57 -241l115 -6l-11 -68h-516l10 68l156 6q-8 66 -35 198l-43 217h-456l-72 -141q-100 -201 -133 -276l149 -4l-10 -68h-391zM406 567h403l-111 566z" />
<glyph unicode="B" horiz-adv-x="1251" d="M-20 0l10 70l164 6q14 55 71 383l72 456q51 315 57 428l-159 7l10 67h459q281 0 387 -57q139 -74 139 -256q0 -160 -90 -249t-283 -120q311 -45 311 -317q0 -209 -159 -326q-131 -92 -398 -92h-591zM391 78h98q205 0 308 96q102 102 102 277q0 127 -74.5 184t-236.5 57 h-109l-39 -252l-30 -213q-2 -10 -9 -61zM492 770h92q199 0 290 92q92 96 93 242q0 125 -74 181t-240 56h-61q-29 -127 -68 -366z" />
<glyph unicode="C" horiz-adv-x="1296" d="M127 543q0 168 52 332.5t145 287.5q207 276 563 277q219 0 432 -99l-47 -294h-166l18 239q-100 74 -221 74q-268 0 -426 -320q-53 -106 -86 -255.5t-33 -284.5q0 -205 93.5 -323t257.5 -118q115 0 245 62l60 252h170l-49 -305q-233 -88 -433 -88q-272 0 -423.5 148.5 t-151.5 414.5z" />
<glyph unicode="D" horiz-adv-x="1400" d="M-20 0l10 68l164 6q31 135 71 379l78 505q35 219 51 385l-159 7l10 67h389q195 0 304.5 -19.5t195.5 -66.5q238 -139 237 -483q0 -186 -64.5 -356t-176.5 -285q-113 -113 -252.5 -160t-364.5 -47h-493zM393 78h78q311 0 467 219q72 102 117 273t45 337 q0 223 -104.5 327.5t-327.5 104.5h-76q-23 -106 -68 -368l-80 -514q-39 -248 -51 -379z" />
<glyph unicode="E" horiz-adv-x="1163" d="M-20 0l10 68l164 6q23 96 30 151l41 228l78 505q33 213 51 385l-161 7l12 67h993l-59 -368h-166l24 290h-405q-23 -100 -68 -368l-32 -211h458l-14 -82h-457l-35 -221q-45 -301 -51 -379h441l69 291h168l-59 -369h-1032z" />
<glyph unicode="F" horiz-adv-x="1124" d="M-20 0l10 68l166 6l10 49l18 102l23 131l18 97l78 505q35 225 51 385l-161 7l12 67h995l-57 -368h-166l24 290h-409q-35 -174 -68 -368l-32 -207h462l-12 -82h-463l-35 -227q-39 -256 -53 -381l170 -6l-10 -68h-571z" />
<glyph unicode="G" horiz-adv-x="1439" d="M127 541q0 170 52 334.5t145 285.5q211 276 571 277q229 0 448 -99l-45 -290h-168l17 235q-109 74 -236 74q-252 0 -407 -268q-145 -252 -146 -596q0 -205 93.5 -320t261.5 -115q117 0 233 56l70 460l-160 7l12 67h531l-10 -67l-152 -7l-47 -292q-16 -102 -27 -213 q-248 -90 -456 -90q-272 0 -426 148.5t-154 412.5z" />
<glyph unicode="H" horiz-adv-x="1533" d="M-20 0l10 68l166 6q14 63 69 393l72 444q55 360 59 432l-163 7l12 67h559l-10 -67l-164 -7l-74 -423l-24 -158h626l23 149q53 338 61 432l-160 7l11 67h561l-12 -67l-166 -7q-20 -104 -70 -401l-72 -455q-49 -313 -59 -413l164 -6l-10 -68h-562l11 68l163 6q18 82 70 393 l35 215h-627l-30 -195q-53 -369 -58 -413l160 -6l-10 -68h-561z" />
<glyph unicode="I" horiz-adv-x="694" d="M-16 0l10 68l166 6q23 100 69 393l72 444q55 356 59 432l-163 7l12 67h563l-10 -67l-168 -7l-70 -401l-71 -455q-49 -322 -58 -413l162 -6l-10 -68h-563z" />
<glyph unicode="J" horiz-adv-x="700" d="M-231 -190l16 75q29 -2 51 -2q80 0 156 35t117 88q70 92 114 373l90 579q41 254 54 385l-166 7l12 67h565l-10 -67l-166 -7q-45 -238 -65 -370l-93 -580q-41 -254 -92 -340q-68 -117 -196.5 -182.5t-292.5 -65.5q-4 1 -94 5z" />
<glyph unicode="K" horiz-adv-x="1302" d="M-20 0l10 68l166 6q33 152 69 393l72 444q53 350 59 432l-163 7l12 67h559l-10 -67l-164 -7q-23 -127 -27 -151q-25 -131 -43 -250l-28 -188l454 409q131 115 199 180l-162 7l10 67h426l-10 -67l-104 -7q-2 0 -95 -79l-84 -70l-51 -45l-24 -21l-369 -327l344 -543 q100 -154 125 -184l102 -6l-12 -68h-496l11 68h125l-398 641l-34 -222q-53 -371 -58 -413l154 -6l-10 -68h-555z" />
<glyph unicode="L" horiz-adv-x="1140" d="M-20 0l10 68l166 6q20 90 69 393l72 444q55 354 59 432l-163 7l12 67h575l-10 -67l-180 -7q-4 -25 -12 -69l-15 -82q-35 -180 -43 -250l-71 -453q-47 -315 -58 -411h426l70 295h168l-60 -373h-1015z" />
<glyph unicode="M" horiz-adv-x="1789" d="M-18 0l10 66l155 6q37 184 80 436l80 485q37 231 45 350l-155 7l10 67h418q14 -102 73 -342l172 -708l402 714q137 240 182 336h416l-10 -67l-166 -7q-37 -195 -72 -405l-76 -483q-45 -295 -51 -383l162 -6l-12 -66h-562l11 66l166 6q4 27 30.5 170t36.5 211l72 452 q18 113 33 191q6 35 24 127l-647 -1145h-88l-285 1124l-114 -731q-41 -264 -56 -399l158 -6l-12 -66h-430z" />
<glyph unicode="N" horiz-adv-x="1482" d="M-14 0l10 68l160 6q23 104 69 389l82 518q45 279 51 362l-157 7l10 67h405q31 -92 125 -280l379 -818l101 648q4 20 20 135l31 241l-156 7l10 67h433l-11 -67l-157 -7q-20 -82 -76 -413l-148 -930h-151q-14 47 -76 182l-43 88l-451 967l-116 -748q-35 -211 -58 -415 l156 -6l-12 -68h-430z" />
<glyph unicode="O" horiz-adv-x="1490" d="M129 578q0 158 52 317.5t145 278.5q203 264 544 264q256 0 396 -146q156 -160 155 -440q0 -350 -196 -604q-205 -268 -545 -268q-262 0 -406.5 156.5t-144.5 441.5zM358 502q0 -223 81 -338t239 -115q248 0 387 287q57 117 92 278.5t35 309.5q0 217 -81 330.5t-237 113.5 q-236 0 -380 -274q-59 -111 -97.5 -278t-38.5 -314z" />
<glyph unicode="P" d="M-20 0l10 68l166 6q14 68 69 393l72 444q55 356 59 432l-163 7l12 67h471q158 0 234.5 -13t136.5 -52q135 -90 135 -281q0 -236 -162 -352q-131 -94 -410 -94h-141l-20 -136l-43 -292q-10 -74 -15 -123l187 -6l-11 -68h-587zM481 702h64q113 0 178 21.5t117 73.5 q113 113 112 301q0 244 -301 243h-63q-23 -102 -68 -401z" />
<glyph unicode="Q" horiz-adv-x="1490" d="M129 567q0 354 197 607q205 264 544 264q254 0 398 -146q154 -160 153 -442q0 -344 -187 -594t-466 -272q39 -145 104 -202q61 -53 171 -53q8 0 16 1l-2 -74q-49 -8 -96 -8q-340 0 -416 342q-203 41 -309.5 189t-106.5 388zM356 500q0 -221 82 -337t238 -116 q248 0 389 287q57 119 92 279.5t35 308.5q0 219 -81 332.5t-237 113.5q-238 0 -382 -276q-57 -111 -96.5 -280t-39.5 -312z" />
<glyph unicode="R" horiz-adv-x="1243" d="M-20 0l10 68l164 6q33 154 73 397l76 487q29 193 51 385l-161 7l12 67h506q246 0 358.5 -74.5t112.5 -236.5q0 -170 -100.5 -271.5t-288.5 -119.5q133 -20 180 -97t59 -301l21 -243l121 -6l-11 -68h-325l-17 227q-14 246 -59 346q-43 98 -221 99h-64l-28 -191 q-43 -274 -56 -407l160 -6l-10 -68h-563zM489 748h62q203 0 295 90q106 100 106 272q0 121 -72.5 176t-234.5 55h-55l-29 -149l-37 -221z" />
<glyph unicode="S" horiz-adv-x="1099" d="M47 66l45 307h168l-16 -256q96 -68 211 -68q141 0 233 84t92 215q0 102 -59 162q-29 29 -64.5 52.5t-162.5 92.5q-176 96 -242 179.5t-66 207.5q0 178 135.5 288t356.5 110q217 0 389 -99l-45 -292h-166l18 251q-76 70 -190 70q-123 0 -207 -80t-84 -194 q0 -88 51.5 -143.5t206.5 -137.5q199 -104 268.5 -186t69.5 -213q0 -190 -141 -316q-135 -121 -373 -120q-225 0 -428 86z" />
<glyph unicode="T" horiz-adv-x="1185" d="M106 1049l60 368h1141l-60 -368h-164l23 290h-264q-37 -188 -72 -401l-72 -451q-47 -315 -57 -413l184 -6l-10 -68h-608l10 68l189 6l73 411l68 439q47 297 57 415h-264l-68 -290h-166z" />
<glyph unicode="U" horiz-adv-x="1466" d="M193 1350l10 67h563l-10 -67l-166 -7l-66 -370l-65 -410q-25 -176 -25 -254q0 -119 70.5 -183.5t202.5 -64.5q221 0 340 168q61 88 102 342l61 396q31 193 52 376l-156 7l10 67h432l-10 -67l-160 -7l-6 -26l-31 -168l-22 -130q-8 -46 -12 -63l-64 -417 q-23 -152 -53.5 -235t-83.5 -148q-150 -176 -426 -176q-225 0 -345 89t-120 259q0 61 33 280l55 350q45 279 53 385z" />
<glyph unicode="V" horiz-adv-x="1329" d="M129 1350l10 67h512l-10 -67l-152 -7q8 -88 74 -428l123 -632l338 678q113 223 180 382l-141 7l10 67h406l-13 -67l-116 -7l-230 -413l-268 -524q-131 -250 -205 -406h-131q-20 123 -80 408l-80 397q-86 424 -118 538z" />
<glyph unicode="W" horiz-adv-x="1828" d="M133 1350l10 67h506l-10 -67l-154 -7q2 -94 25 -399l57 -582l324 709l49 107q82 170 107 239h127q10 -131 43 -334l106 -731l252 613q129 319 145 378l-147 7l10 67h402l-13 -67l-119 -7q-18 -43 -20 -47q-14 -35 -47 -100l-103 -229l-239 -559q-135 -311 -164 -408h-137 q-6 139 -47 422l-99 657l-340 -741q-111 -238 -149 -338h-127q0 84 -35 422l-47 489q-6 63 -49 432z" />
<glyph unicode="X" horiz-adv-x="1296" d="M-90 0l10 68l115 6q49 49 67 71l123 140l346 401l-161 367l-48 96l-45 92q-31 66 -53 102l-117 7l11 67h512l-11 -67l-131 -7q23 -82 129 -309l84 -182l226 262q139 164 182 229l-125 7l10 67h385l-10 -67l-115 -7l-215 -231l-293 -340l185 -412l90 -190q43 -86 49 -96 l121 -6l-10 -68h-514l12 68l123 6q-31 92 -101 241l-125 283l-280 -336q-92 -111 -150 -188l136 -6l-11 -68h-401z" />
<glyph unicode="Y" horiz-adv-x="1181" d="M78 1350l10 67h510l-12 -67l-144 -7q35 -104 111 -276l141 -322l217 328l50 72q96 143 126 198l-141 7l10 67h385l-10 -67l-112 -7q-90 -113 -205 -282l-277 -412q-57 -266 -86 -577l164 -6l-10 -66h-569l10 66l168 6q23 84 57.5 307t34.5 274l-211 463q-80 174 -113 227 z" />
<glyph unicode="Z" horiz-adv-x="1239" d="M10 0l15 84l79 98q23 27 115 152l66 88l34 45l345 448q225 297 307 424h-537l-67 -290h-168l57 368h1001l-14 -88l-344 -444l-272 -357l-236 -317l-100 -133h598l67 295h172l-59 -373h-1059z" />
<glyph unicode="[" horiz-adv-x="778" d="M100 -319l293 1855h387l-12 -68h-178l-273 -1720h179l-11 -67h-385z" />
<glyph unicode="\" horiz-adv-x="454" d="M68 1458h139l239 -1499h-139z" />
<glyph unicode="]" horiz-adv-x="778" d="M27 -319l10 67h180l272 1720h-180l10 68h388l-295 -1855h-385z" />
<glyph unicode="^" d="M70 559l594 858h135l325 -858h-180l-237 676l-449 -676h-188z" />
<glyph unicode="_" horiz-adv-x="1024" d="M-203 -440l21 123h1124l-20 -123h-1125z" />
<glyph unicode="`" horiz-adv-x="1024" d="M393 1501q0 16 33 17h174q33 -66 101.5 -142t140.5 -123l-29 -51q-180 74 -291 154q-53 39 -91 82t-38 63z" />
<glyph unicode="a" horiz-adv-x="1212" d="M96 397q0 248 121 447q61 102 155.5 159.5t205.5 57.5q182 0 288 -170l29 149h203q-53 -274 -70 -387l-63 -399q-12 -92 -13 -107q0 -31 15.5 -50t40.5 -19q37 0 116 41l29 -53q-143 -86 -260 -86q-139 0 -139 124q0 18 2 37q-74 -88 -145.5 -124.5t-170.5 -36.5 q-164 0 -254 109t-90 308zM317 375q0 -127 53.5 -206t137.5 -79q127 0 250 156l84 542q-74 162 -207 162q-145 0 -242 -211q-76 -157 -76 -364z" />
<glyph unicode="b" horiz-adv-x="1224" d="M106 0q14 66 35 180q16 102 31 176l21 115l90 584q45 291 49 368l-137 7l10 67l364 10q-61 -338 -77 -440l-23 -147q84 78 151.5 109.5t153.5 31.5q164 0 258 -110.5t94 -307.5q0 -276 -135 -471q-133 -193 -348 -192q-106 0 -177 38.5t-126 126.5l-31 -145h-203z M362 252q80 -166 216 -166q158 0 258 225q70 162 69 355q0 141 -49 215.5t-141 74.5q-133 0 -266 -163z" />
<glyph unicode="c" horiz-adv-x="970" d="M98 406q0 274 142 458q154 197 426 197q166 0 311 -57l-47 -265h-164l18 222q-55 31 -106 30q-180 0 -283 -229q-76 -168 -76 -377q0 -152 66 -235.5t182 -83.5q111 0 246 71l29 -71q-137 -86 -310 -86q-205 0 -319.5 112.5t-114.5 313.5z" />
<glyph unicode="d" horiz-adv-x="1228" d="M96 389q0 289 144 483q135 188 346 189q98 0 165.5 -36t131.5 -122l20 129q47 324 55 391l-143 7l10 67l367 10q-10 -59 -14 -73l-23 -127q-29 -158 -49 -281l-82 -526q-49 -319 -57 -426l139 -6l-10 -68h-344l16 137q-139 -158 -328 -157q-162 0 -253 108t-91 301z M317 375q0 -131 52.5 -210t140.5 -79q139 0 270 164l84 538q-80 168 -217 168q-156 0 -254 -215q-76 -171 -76 -366z" />
<glyph unicode="e" horiz-adv-x="1081" d="M98 397q0 274 129 459q141 205 394 205q203 0 299 -109q80 -88 79 -268q0 -72 -14 -158h-655q-12 -78 -13 -145q0 -154 64.5 -234.5t187.5 -80.5q135 0 275 86l39 -68q-96 -59 -176 -81.5t-187 -22.5q-201 0 -311.5 109t-110.5 308zM340 596h432l2 20q12 94 12 140 q0 238 -153 237q-104 0 -180 -102t-113 -295z" />
<glyph unicode="f" horiz-adv-x="702" d="M111 0q4 20 32 180q10 47 33 176q4 25 12.5 68t8.5 47l75 502h-161l10 67h164l14 90q31 203 96 279q92 111 262 111q133 0 269 -58l-43 -231h-156l18 186q-33 33 -71 33q-74 0 -111 -82q-29 -63 -51 -213l-18 -115h225l-10 -67h-228l-65 -420q-59 -389 -78 -553h-227z " />
<glyph unicode="g" horiz-adv-x="1228" d="M23 -375l47 236h166l-21 -201q74 -43 172 -43q94 0 167 42t108 114q47 96 81 329l13 68q-129 -143 -303 -143q-162 0 -257.5 105.5t-95.5 281.5q0 276 137.5 461.5t342.5 185.5q195 0 299 -166l28 156l355 -11l-11 -67l-143 -6q-27 -129 -78 -422l-69 -441 q-33 -211 -60 -287.5t-86 -135.5q-141 -141 -416 -142q-192 0 -376 86zM319 395q0 -125 49.5 -191.5t139.5 -66.5q131 0 268 156l76 485q-84 178 -219 178q-147 0 -240 -204q-74 -162 -74 -357z" />
<glyph unicode="h" horiz-adv-x="1257" d="M111 0q72 397 84 471l92 584q37 254 47 368l-144 7l11 67l372 10l-30 -170l-27 -155l-18 -115l-31 -188q104 100 188 141t185 41q119 0 186.5 -67.5t67.5 -184.5q0 -55 -31 -264l-16 -103q-39 -270 -50 -368l142 -6l-13 -68h-368l80 438l22 152q25 145 25 192 q0 156 -133 156q-70 0 -151 -48t-152 -132l-43 -277q-55 -348 -68 -481h-227z" />
<glyph unicode="i" horiz-adv-x="610" d="M111 0q27 117 79 453l23 141q45 326 51 373l-139 6l10 67l369 11q-39 -203 -80 -439l-23 -153q-55 -371 -63 -459h-227zM315 1389q0 53 36 88.5t89.5 35.5t89 -34.5t35.5 -87.5q0 -55 -34.5 -91t-90.5 -36q-53 0 -89 35t-36 90z" />
<glyph unicode="j" horiz-adv-x="610" d="M-244 -440l15 65h7q151 0 230 88q45 51 70.5 136t60.5 298l72 451q27 170 51 369l-153 6l10 67l383 11q-53 -270 -90 -506l-66 -406q-33 -201 -57.5 -282.5t-69.5 -143.5q-123 -160 -377 -159q-37 0 -86 6zM315 1391q0 53 36 87.5t89 34.5q55 0 90 -35.5t35 -88.5 q0 -55 -34.5 -90t-88.5 -35q-57 0 -92 35t-35 92z" />
<glyph unicode="k" horiz-adv-x="1140" d="M111 0l84 471l88 563q45 287 55 389l-141 7l10 67l368 10q-25 -123 -81 -456l-72 -461l330 254q119 90 147 123l-131 6l10 67h385l-12 -67l-86 -6l-25 -16l-28 -18q-14 -9 -33 -24l-80 -57l-80 -59l-207 -168l195 -334q109 -186 133 -213l113 -10l-11 -68h-321 q-18 47 -92 184l-213 377l-21 -137q-49 -324 -57 -424h-227z" />
<glyph unicode="l" horiz-adv-x="602" d="M104 0q14 70 19 86q55 307 67 385l89 571q35 217 53 381l-139 7l10 67l366 10l-92 -532l-78 -498q-47 -299 -65 -477h-230z" />
<glyph unicode="m" horiz-adv-x="1863" d="M109 0q29 133 84 463l20 135q37 264 45 369l-135 6l12 67l346 11l-18 -166q106 98 186 137t174 39q213 0 244 -203q115 115 197 159t180 44q119 0 185.5 -66.5t66.5 -185.5q0 -88 -29 -272l-14 -91q-41 -266 -47 -372l137 -6l-10 -68h-359q0 10 4 36l11 63q6 38 8 61 l28 162q8 61 23 141l12 84q27 174 27 235q0 156 -131 156q-127 0 -281 -170l-43 -283q-55 -369 -69 -485h-226q61 315 82 463l12 74q27 162 27 237q0 164 -123 164q-137 0 -284 -170l-50 -303q-47 -297 -65 -465h-227z" />
<glyph unicode="n" horiz-adv-x="1257" d="M109 0q29 139 86 471l20 139q35 213 43 357l-135 6l12 67l346 11l-20 -179q117 109 197.5 149t181.5 40q117 0 184.5 -67.5t67.5 -182.5q0 -74 -31 -274l-17 -95q-37 -256 -45 -368l138 -6l-11 -68h-358l68 438l16 105q29 176 29 241q0 154 -131 154q-135 0 -301 -178 l-43 -279q-53 -332 -70 -481h-227z" />
<glyph unicode="o" horiz-adv-x="1181" d="M98 410q0 127 41 252.5t111 211.5q150 186 409 187q205 0 315.5 -109.5t110.5 -310.5q0 -276 -145 -469q-150 -193 -418 -192q-207 0 -315.5 110.5t-108.5 319.5zM317 354q0 -307 203 -307q172 0 264 223q80 190 80 420q0 303 -202 303q-164 0 -256 -205 q-89 -192 -89 -434z" />
<glyph unicode="p" horiz-adv-x="1220" d="M39 -440l18 102q68 367 70 387l86 549q37 289 43 369l-133 6l10 67l346 11l-14 -140q82 82 153.5 116t165.5 34q162 0 251 -109.5t89 -306.5q0 -276 -133 -473q-129 -193 -344 -192q-104 0 -172.5 36.5t-126.5 120.5l-18 -127q-53 -330 -64 -450h-227zM367 252 q84 -166 217 -166q154 0 250 225q72 160 71 353q0 293 -186 292q-129 0 -268 -163z" />
<glyph unicode="q" horiz-adv-x="1230" d="M98 395q0 264 131 461q137 205 357 205q100 0 168.5 -36t134.5 -122l29 137h204q-31 -158 -78 -442l-90 -573q-45 -287 -65 -465h-225q45 246 77 450l19 117q-74 -80 -146.5 -113.5t-169.5 -33.5q-164 0 -255 109t-91 306zM319 371q0 -129 52.5 -207t140.5 -78 q137 0 268 162l84 540q-78 168 -217 168q-152 0 -252 -215q-76 -171 -76 -370z" />
<glyph unicode="r" horiz-adv-x="862" d="M111 0l82 455l22 143q37 291 43 369l-133 6l10 67l344 11l-24 -191q104 195 303 195q78 0 157 -23l-53 -287h-166l15 207q-8 2 -23 2q-92 0 -167 -113.5t-105 -303.5l-13 -74q-57 -371 -65 -463h-227z" />
<glyph unicode="s" horiz-adv-x="948" d="M31 47l45 252h164l-15 -203q72 -47 168 -47q104 0 171 60.5t67 156.5q0 72 -47 107q-25 18 -168 71q-158 57 -221.5 121t-63.5 166q0 150 113.5 241t298.5 91q178 0 325 -68l-45 -250h-159l14 209q-61 39 -148 39q-96 0 -160.5 -58t-64.5 -147q0 -63 42 -97t190 -87 q160 -57 208 -100q76 -66 76 -189q0 -156 -115.5 -245.5t-314.5 -89.5q-180 -1 -360 67z" />
<glyph unicode="t" horiz-adv-x="702" d="M106 973l11 67h39q131 0 195.5 58.5t111.5 220.5h74l-45 -279h245l-10 -67h-248l-104 -666q-14 -90 -15 -131q0 -104 107 -104q53 0 129 32l20 -61q-119 -63 -229 -63q-115 0 -174 52t-59 152q0 39 16 150l100 639h-164z" />
<glyph unicode="u" horiz-adv-x="1257" d="M121 973l10 67l369 11q-66 -354 -78 -435l-27 -170q-20 -127 -20 -198q0 -158 129 -158q141 0 305 193l109 682l-148 8l10 67l369 11q-6 -41 -15 -89l-18 -94q-25 -129 -45 -250l-31 -190l-12 -94q-2 -23 -7 -64l-7 -57l-15 -139l142 -6l-11 -68h-354l21 168 q-106 -106 -189.5 -147t-185.5 -41q-121 0 -189.5 67.5t-68.5 185.5q0 66 31 263l16 102q33 221 51 369z" />
<glyph unicode="v" horiz-adv-x="1077" d="M80 973l10 67h440l-10 -67l-108 -6q10 -88 41 -244l98 -477l242 461q109 205 129 260l-154 6l10 67h375l-10 -67l-101 -6q-63 -100 -196 -344l-193 -359l-137 -264h-131q-12 96 -51 276l-82 394q-35 160 -72 297z" />
<glyph unicode="w" horiz-adv-x="1581" d="M86 973l10 67h447l-11 -67l-110 -8q8 -150 29 -289l53 -389l381 753h110l123 -753l168 360q104 223 135 318l-149 8l10 67h373l-13 -67l-102 -8q-80 -152 -170 -344l-176 -363q-90 -193 -115 -258h-135q-6 74 -33 244l-88 510l-262 -525q-90 -184 -108 -229h-129 q-2 74 -25 223l-61 443q-23 166 -54 299z" />
<glyph unicode="x" horiz-adv-x="1060" d="M-76 0l10 68l105 4q49 45 215 233l182 203l-100 215q-78 166 -119 244l-111 6l11 67h461l-11 -67l-108 -6q10 -37 78 -191l59 -131l145 170q94 106 125 152l-123 6l11 67h358l-10 -67l-107 -6q-106 -104 -170 -176l-194 -222l135 -295q78 -156 102 -200l105 -6l-10 -68 h-467l10 68l119 6q-16 49 -72 176l-82 180l-164 -190l-133 -166l111 -6l-11 -68h-350z" />
<glyph unicode="y" horiz-adv-x="1075" d="M-90 -438l51 147q55 -20 111 -20q121 0 204 96q63 72 107 162l23 45l-150 663q-8 37 -20 85l-20 78l-9 38q-23 84 -31 111l-98 6l10 67h442l-10 -67l-108 -6q8 -82 49 -275l96 -430l231 436q115 211 136 271l-154 4l10 67h375l-10 -67l-101 -6q-92 -150 -182 -318 l-407 -749q-82 -154 -174 -250q-104 -100 -252 -101q-66 1 -119 13z" />
<glyph unicode="z" horiz-adv-x="1032" d="M-6 0l10 68l731 905h-393l-55 -223h-164l47 290h834l-11 -67l-733 -905h447l55 221h166l-47 -289h-887z" />
<glyph unicode="{" horiz-adv-x="778" d="M119 575l10 66q98 4 148.5 64.5t64.5 193.5l49 307q31 199 95.5 264.5t226.5 65.5h133l-10 -68h-70q-82 0 -110.5 -38.5t-49.5 -172.5l-55 -346q-20 -145 -68.5 -212.5t-148.5 -90.5q135 -37 135 -172q0 -43 -16 -139l-54 -342q-12 -74 -12 -117q0 -47 24.5 -68.5 t80.5 -21.5h71l-10 -67h-109q-123 0 -174 28q-80 45 -80 162q0 59 19 174l41 268q16 98 16 131q0 66 -33.5 95.5t-113.5 35.5z" />
<glyph unicode="|" horiz-adv-x="589" d="M190 -440v1921h207v-1921h-207z" />
<glyph unicode="}" horiz-adv-x="778" d="M-41 -319l10 67h72q80 0 109.5 38t50.5 173l55 346q20 147 67.5 214t147.5 89q-133 33 -133 170q0 55 14 142l54 342q14 82 14 114q0 49 -24.5 70.5t-82.5 21.5h-71l10 68h108q129 0 181 -29q74 -41 73 -153q0 -68 -16 -183l-39 -251q-18 -104 -18 -144q0 -68 32.5 -98.5 t112.5 -36.5l-10 -66q-100 -4 -148.5 -62t-64.5 -196l-47 -307q-31 -190 -98.5 -259.5t-223.5 -69.5h-135z" />
<glyph unicode="~" d="M68 457q94 123 166.5 174t152.5 51q90 0 240 -96q113 -74 170 -74q51 0 95 30.5t126 123.5l96 -82q-170 -225 -315 -226q-96 0 -236 91q-76 51 -109.5 65t-72.5 14q-49 0 -90 -29.5t-125 -123.5z" />
<glyph unicode="&#xa1;" horiz-adv-x="645" d="M88 -291q0 23 25 105q12 49 20 69l191 731h79l-36 -739l-5 -90q-2 -92 -34 -133q-41 -49 -109 -49q-59 0 -95 29.5t-36 76.5zM281 936q0 55 36.5 92t92.5 37q57 0 93 -37t36 -94q0 -53 -37 -90t-92 -37q-57 0 -93 36t-36 93z" />
<glyph unicode="&#xa2;" d="M199 791q0 158 60 301t161 225q125 104 325 123l25 151h90l-24 -149q170 -6 301 -60l-50 -262h-163l18 217q-59 25 -119 25l-145 -911q18 -2 37 -2q115 0 254 69l37 -74q-154 -90 -340 -86l-25 -145h-90l24 154q-182 27 -279 136.5t-97 287.5zM420 768q0 -233 172 -299 l139 885q-109 -33 -174 -125q-63 -86 -100 -211t-37 -250z" />
<glyph unicode="&#xa3;" d="M23 0l12 78q119 45 177 156.5t93 357.5l17 100h-179l13 78h178l28 184q27 158 59 235t97 134q131 119 359 119q190 0 335 -78l-47 -299h-168l27 256q-51 51 -139 51q-74 0 -137.5 -42t-102.5 -113q-37 -70 -70 -259l-28 -188h315l-14 -78h-313l-13 -82q-35 -225 -79 -317 t-162 -182h735l-19 -111h-974z" />
<glyph unicode="&#xa4;" d="M78 272l131 129q-96 129 -96 316q0 184 96 313l-131 129l96 92l127 -127q135 102 322 103q180 0 319 -103l127 127l94 -92l-129 -129q96 -143 96 -313q0 -172 -96 -316l129 -129l-94 -90l-127 125q-141 -104 -319 -104q-186 0 -322 104l-127 -125zM260 721 q0 -180 98.5 -286.5t264.5 -106.5q162 0 261 106.5t99 280.5t-99.5 280.5t-261 106.5t-262 -105.5t-100.5 -275.5z" />
<glyph unicode="&#xa5;" d="M141 1350l11 67h503l-10 -67l-147 -7q16 -59 80 -245l124 -353l213 351q20 37 41 69q4 8 28 42l36 53q12 18 45 83l-139 7l10 67h377l-10 -67l-107 -7l-131 -186l-31 -45l-16 -22l-236 -377h215l-12 -78h-246q-18 -90 -28 -158h250l-13 -78h-250l-4 -30 q-35 -236 -39 -297l166 -6l-12 -66h-563l10 66l168 6l55 295l4 32h-270l12 78h271q16 100 20 158h-266l12 78h236l-146 370q-61 166 -106 260z" />
<glyph unicode="&#xa6;" horiz-adv-x="589" d="M109 0l90 563h207l-91 -563h-206zM244 854l90 563h207l-90 -563h-207z" />
<glyph unicode="&#xa7;" d="M100 -238l43 250h174l-18 -213q78 -39 156 -39q113 0 186.5 71t73.5 179q0 76 -44 121t-179 111q-143 70 -199 110q-78 59 -78 160q0 178 227 326q-123 84 -123 225q0 88 39 167t109 128q106 80 287 80q150 0 336 -66l-43 -256h-168l18 207q-70 39 -137 39 q-106 0 -174 -65.5t-68 -168.5q0 -88 57 -135q27 -23 156 -88q160 -80 218.5 -139t58.5 -141t-47.5 -154t-161.5 -168q115 -86 114 -235q0 -172 -128 -277.5t-334 -105.5q-92 0 -162 15t-189 62zM389 604q0 -59 58.5 -104t291.5 -164q96 109 97 203q0 66 -72 118 q-23 16 -209 115q-25 12 -55 31q-111 -105 -111 -199z" />
<glyph unicode="&#xa8;" horiz-adv-x="1024" d="M326 1386q0 51 34.5 86t88.5 35q51 0 85.5 -34.5t34.5 -86.5q0 -53 -33.5 -87.5t-87 -34.5t-88 34.5t-34.5 87.5zM725 1386q0 51 35 86t88 35t87 -34.5t34 -86.5q0 -53 -34 -87.5t-87 -34.5t-88 34.5t-35 87.5z" />
<glyph unicode="&#xa9;" horiz-adv-x="1599" d="M102 719q0 307 209 513t520 206q315 0 522.5 -207t207.5 -522.5t-206 -522t-521 -206.5q-322 0 -527 206.5t-205 532.5zM188 717q0 -293 180.5 -480.5t465.5 -187.5q279 0 460 186.5t181 473.5q0 285 -182.5 472t-461.5 187q-276 0 -459.5 -185t-183.5 -466zM475 700 q0 180 99.5 281.5t277.5 101.5q135 0 272 -59v-164h-123l-12 131q-68 39 -123 39q-98 0 -158.5 -92t-60.5 -244q0 -145 61.5 -233t161.5 -88q61 0 125 41l13 127h127v-156q-141 -66 -275 -66q-178 0 -281.5 102.5t-103.5 278.5z" />
<glyph unicode="&#xaa;" horiz-adv-x="778" d="M147 1071q0 156 83 257.5t210 101.5q111 0 174 -87l13 74h151l-8 -39l-10 -49l-23 -125l-32 -217q-6 -41 -7 -51q0 -31 25 -31q27 0 70 29l28 -47q-96 -57 -170 -58q-84 0 -96 76q-84 -76 -182 -76q-106 0 -166 63.5t-60 178.5zM305 1061q0 -74 28.5 -116t78.5 -42 q72 0 141 82l43 281q-47 90 -116.5 90t-122 -88t-52.5 -207z" />
<glyph unicode="&#xab;" horiz-adv-x="1007" d="M78 520l426 395h84l-269 -403l142 -385h-78zM477 520l428 395h82l-266 -403l139 -385h-78z" />
<glyph unicode="&#xac;" d="M102 635v143h969v-588h-168v445h-801z" />
<glyph unicode="&#xad;" horiz-adv-x="698" d="M84 496l25 151h522l-25 -151h-522z" />
<glyph unicode="&#xae;" horiz-adv-x="1189" d="M143 1022q0 223 151.5 372.5t379.5 149.5q231 0 380.5 -149.5t149.5 -380.5q0 -229 -149.5 -380t-378.5 -151q-233 0 -383 151.5t-150 387.5zM227 1020q0 -205 126 -337t323 -132q193 0 318.5 131t125.5 331.5t-126 332t-320 131.5q-193 0 -320 -130t-127 -327zM426 735 v43l70 4q4 70 4 127v207q0 41 -4 127l-70 4v45h250q119 0 174 -34.5t55 -112.5q0 -106 -125 -131q45 -12 68.5 -46t40.5 -114l20 -72l47 -4v-43h-151l-27 109q-23 90 -50.5 118.5t-90.5 28.5h-21v-82q0 -57 5 -127l61 -4v-43h-256zM616 1032h23q145 0 145 109 q0 102 -133 102h-35v-211z" />
<glyph unicode="&#xaf;" horiz-adv-x="1024" d="M328 1323l16 100h625l-17 -100h-624z" />
<glyph unicode="&#xb0;" horiz-adv-x="667" d="M121 1141q0 131 87 214t222 83q137 0 224 -84t87 -217q0 -135 -86 -219t-223 -84q-139 0 -225 85t-86 222zM225 1139q0 -100 56.5 -158.5t150.5 -58.5t149.5 58t55.5 155q0 98 -56.5 156.5t-150.5 58.5q-92 0 -148.5 -58.5t-56.5 -152.5z" />
<glyph unicode="&#xb1;" d="M4 0l25 143h1007l-24 -143h-1008zM100 612l25 144h424l47 288h156l-45 -288h423l-22 -144h-426l-45 -288h-156l45 288h-426z" />
<glyph unicode="&#xb2;" horiz-adv-x="778" d="M131 639l19 98q219 168 296 250q152 158 152 264q0 51 -26.5 82t-73.5 31q-49 0 -115 -29l-33 -133h-131l27 168q147 59 280 60q119 0 181.5 -44.5t62.5 -128.5q0 -102 -98.5 -206.5t-380.5 -300.5h395l-22 -111h-533z" />
<glyph unicode="&#xb3;" horiz-adv-x="778" d="M127 674l31 170h133l-12 -131q45 -20 92 -21q76 0 129 58.5t53 142.5q0 117 -172 117q-43 0 -74 -2l10 71q25 -4 60 -4q102 0 162.5 50.5t60.5 134.5q0 47 -29.5 75.5t-81.5 28.5q-39 0 -88 -16l-30 -131h-131l22 165q135 47 250 48q121 0 186.5 -46.5t65.5 -132.5 q0 -156 -191 -202q78 -20 113 -59.5t35 -108.5q0 -115 -89 -184.5t-239 -69.5q-123 0 -266 47z" />
<glyph unicode="&#xb4;" horiz-adv-x="1024" d="M467 1253q80 53 152.5 126t111.5 139h180q31 0 31 -15q0 -25 -52 -75t-124 -93q-119 -70 -270 -133z" />
<glyph unicode="&#xb5;" d="M0 -440q35 182 82 463l90 569q25 137 49 366l-135 7l10 67l367 10l-10 -43l-15 -77q-16 -74 -39 -209l-28 -170q-27 -180 -27 -234q0 -96 42 -155.5t112 -59.5q139 0 270 166l53 336q37 227 49 362l-135 7l10 67l365 10q-4 -35 -16 -88l-19 -102q-39 -207 -45 -258 l-24 -148q-27 -188 -35 -235q0 -8 -15 -137l136 -6l-11 -68h-346l23 158q-139 -178 -297 -178q-104 0 -164 83l-12 -71q-8 -53 -21 -148q-27 -188 -39 -284h-225z" />
<glyph unicode="&#xb6;" horiz-adv-x="1241" d="M168 944q0 227 151 367q70 63 143 84.5t216 21.5h633l-11 -71l-186 -7l-252 -1587h-166l250 1583h-176l-250 -1583h-168l137 871q-152 0 -236.5 84.5t-84.5 236.5z" />
<glyph unicode="&#xb7;" horiz-adv-x="589" d="M168 575q0 55 38 93.5t95 38.5t95 -38t38 -95.5t-38 -95.5t-95 -38q-59 0 -96 38t-37 97z" />
<glyph unicode="&#xb8;" horiz-adv-x="1024" d="M172 -397q231 166 250 321h141q37 0 37 -20q0 -92 -158 -217q-61 -47 -235 -144z" />
<glyph unicode="&#xb9;" horiz-adv-x="778" d="M219 639l8 53l119 4q6 23 14 78l13 68q4 25 12 69l59 383q-84 -47 -184 -75l-14 63q168 59 264 135h123q-25 -113 -49 -262l-33 -215q-20 -125 -37 -244l115 -4l-8 -53h-402z" />
<glyph unicode="&#xba;" horiz-adv-x="778" d="M172 1081q0 147 86 246q90 104 260 105q137 0 209 -64.5t72 -185.5q0 -162 -93.5 -257.5t-252.5 -95.5q-281 0 -281 252zM336 1063q0 -164 113 -164q78 0 131 88t53 215q0 76 -30 118t-83 42q-76 0 -130 -87t-54 -212z" />
<glyph unicode="&#xbb;" horiz-adv-x="1007" d="M20 127l269 403l-142 385h80l303 -393l-426 -395h-84zM420 127l268 403l-139 385h78l303 -393l-426 -395h-84z" />
<glyph unicode="&#xbc;" horiz-adv-x="1699" d="M199 639l8 53l119 4q6 23 14 78l12 68q4 25 13 69l59 383q-84 -47 -184 -75l-15 63q168 59 264 135h123q-25 -113 -49 -262l-33 -215q-20 -125 -36 -244l114 -4l-8 -53h-401zM449 -39l694 1499h125l-697 -1499h-122zM901 225l14 84l416 469h164q-4 -18 -8 -44.5 t-14.5 -87l-22.5 -126.5l-31 -207h135l-16 -88h-135l-19 -168l97 -2l-8 -55h-369l8 55l105 2l30 168h-346zM1030 313h236l59 344z" />
<glyph unicode="&#xbd;" horiz-adv-x="1699" d="M225 639l8 53l119 4q6 23 15 78l12 68q4 25 12 69l60 383q-84 -47 -185 -75l-14 63q168 59 264 135h123q-25 -113 -49 -262l-33 -215q-20 -125 -37 -244l115 -4l-8 -53h-402zM428 -39l694 1499h123l-694 -1499h-123zM915 0l21 98q213 162 295 248q152 160 151 264 q0 51 -26.5 82t-73.5 31t-113 -27l-32 -133h-133l26 170q150 57 281 58q119 0 181 -44.5t62 -128.5q0 -102 -98 -206.5t-379 -300.5h396l-25 -111h-533z" />
<glyph unicode="&#xbe;" horiz-adv-x="1699" d="M158 674l30 170h134l-13 -131q45 -20 92 -21q76 0 129.5 58.5t53.5 142.5q0 117 -172 117q-43 0 -74 -2l10 71q25 -4 60 -4q102 0 162.5 50.5t60.5 134.5q0 47 -30 75.5t-81 28.5q-39 0 -88 -16l-31 -131h-131l23 165q135 47 250 48q121 0 186.5 -46.5t65.5 -132.5 q0 -156 -191 -202q78 -20 113 -59.5t35 -108.5q0 -115 -89.5 -184.5t-238.5 -69.5q-123 0 -266 47zM506 -39l694 1499h125l-696 -1499h-123zM918 225l14 84l416 469h163q-23 -113 -45 -258l-30 -207h133l-17 -88h-133l-18 -168l96 -2l-8 -55h-369l8 55l103 2l31 168h-344z M1047 313h235l59 344z" />
<glyph unicode="&#xbf;" horiz-adv-x="866" d="M-10 -127q0 147 119 266q66 68 225 176q115 76 140.5 110t39.5 122l12 78h82l-12 -80q-18 -123 -39.5 -161t-122.5 -128q-125 -113 -179 -208t-54 -200q0 -80 47 -129t125 -49q76 0 149 47l51 211h166l-26 -233q-121 -53 -197 -72.5t-164 -19.5q-166 0 -264 73.5 t-98 196.5zM485 936q0 55 37 92t92 37q57 0 93 -37t36 -94q0 -53 -36.5 -90t-92 -37t-92.5 37t-37 92z" />
<glyph unicode="&#xc0;" horiz-adv-x="1327" d="M-90 0l10 68l115 6q72 113 166 293l350 684q119 217 186 366h123q10 -70 51 -256q8 -25 29 -123l150 -723q20 -100 57 -241l115 -6l-11 -68h-516l10 68l156 6q-8 66 -35 198l-43 217h-456l-72 -141q-100 -201 -133 -276l149 -4l-10 -68h-391zM406 567h403l-111 566z M592 1804q0 16 33 17h174q33 -66 101.5 -141.5t139.5 -123.5l-28 -51q-180 74 -291 154q-53 39 -91 82t-38 63z" />
<glyph unicode="&#xc1;" horiz-adv-x="1327" d="M-90 0l10 68l115 6q72 113 166 293l350 684q119 217 186 366h123q10 -70 51 -256q8 -25 29 -123l150 -723q20 -100 57 -241l115 -6l-11 -68h-516l10 68l156 6q-8 66 -35 198l-43 217h-456l-72 -141q-100 -201 -133 -276l149 -4l-10 -68h-391zM406 567h403l-111 566z M674 1556q80 53 152.5 126t111.5 139h180q31 0 31 -15q0 -25 -52.5 -75t-123.5 -93q-119 -70 -271 -133z" />
<glyph unicode="&#xc2;" horiz-adv-x="1327" d="M-90 0l10 68l115 6q72 113 166 293l350 684q119 217 186 366h123q10 -70 51 -256q8 -25 29 -123l150 -723q20 -100 57 -241l115 -6l-11 -68h-516l10 68l156 6q-8 66 -35 198l-43 217h-456l-72 -141q-100 -201 -133 -276l149 -4l-10 -68h-391zM406 567h403l-111 566z M498 1561q113 72 247 260h211q80 -188 166 -260l-39 -52q-178 90 -245 189q-96 -96 -314 -189z" />
<glyph unicode="&#xc3;" horiz-adv-x="1327" d="M-90 0l10 68l115 6q72 113 166 293l350 684q119 217 186 366h123q10 -70 51 -256q8 -25 29 -123l150 -723q20 -100 57 -241l115 -6l-11 -68h-516l10 68l156 6q-8 66 -35 198l-43 217h-456l-72 -141q-100 -201 -133 -276l149 -4l-10 -68h-391zM406 567h403l-111 566z M465 1544q80 225 217 225q55 0 174 -38q104 -33 150 -33q88 0 112 82h68q-31 -119 -84 -174.5t-137 -55.5q-53 0 -170 35q-117 37 -164 37q-33 0 -54.5 -16.5t-44.5 -61.5h-67z" />
<glyph unicode="&#xc4;" horiz-adv-x="1327" d="M-90 0l10 68l115 6q72 113 166 293l350 684q119 217 186 366h123q10 -70 51 -256q8 -25 29 -123l150 -723q20 -100 57 -241l115 -6l-11 -68h-516l10 68l156 6q-8 66 -35 198l-43 217h-456l-72 -141q-100 -201 -133 -276l149 -4l-10 -68h-391zM406 567h403l-111 566z M498 1663q0 51 34.5 86t88.5 35q51 0 85.5 -34t34.5 -87t-33.5 -88t-87 -35t-88 35t-34.5 88zM897 1663q0 51 35 86t88 35t87 -34t34 -87t-34 -88t-87 -35t-88 35t-35 88z" />
<glyph unicode="&#xc5;" horiz-adv-x="1327" d="M-90 0l10 68l115 6q72 113 166 293l350 684q127 231 186 368q-117 51 -116 189q0 88 59 146t147 58q90 0 149.5 -58t59.5 -148q0 -170 -174 -199q6 -57 51 -250q23 -104 27 -119l150 -723q20 -100 57 -241l115 -6l-11 -68h-516l10 68l156 6q-8 66 -35 198l-43 217h-456 l-72 -141q-88 -174 -133 -276l149 -4l-10 -68h-391zM406 567h403l-111 568zM713 1608q0 -59 31.5 -94t84.5 -35q51 0 83 35.5t32 93t-31.5 92.5t-85.5 35q-51 0 -82.5 -35t-31.5 -92z" />
<glyph unicode="&#xc6;" horiz-adv-x="1798" d="M-221 0l10 68l141 6l12 12l12 15l11 14l66 84q41 45 71 88q4 4 31 36l41 48l797 1046h864l-59 -368h-164l24 290h-393q-35 -158 -67 -368l-33 -211h444l-12 -82h-445l-34 -221q-41 -274 -52 -379h426l70 291h168l-59 -369h-1018l10 68l164 6q33 135 57 295l12 80h-534 l-98 -136q-4 -4 -23 -29l-29 -40l-127 -170l146 -6l-10 -68h-420zM401 528h486l127 805z" />
<glyph unicode="&#xc7;" horiz-adv-x="1296" d="M127 543q0 168 52 332.5t145 287.5q207 276 563 277q219 0 432 -99l-47 -294h-166l18 239q-100 74 -221 74q-268 0 -426 -320q-53 -106 -86 -255.5t-33 -284.5q0 -205 93.5 -323t257.5 -118q115 0 245 62l60 252h170l-49 -305q-233 -88 -433 -88q-272 0 -423.5 148.5 t-151.5 414.5zM307 -397q231 166 250 321h141q37 0 37 -20q0 -92 -157 -217q-61 -47 -236 -144z" />
<glyph unicode="&#xc8;" horiz-adv-x="1163" d="M-20 0l10 68l164 6q23 96 30 151l41 228l78 505q33 213 51 385l-161 7l12 67h993l-59 -368h-166l24 290h-405q-23 -100 -68 -368l-32 -211h458l-14 -82h-457l-35 -221q-45 -301 -51 -379h441l69 291h168l-59 -369h-1032zM522 1804q0 16 33 17h174q33 -66 101.5 -141.5 t140.5 -123.5l-29 -51q-180 74 -291 154q-53 39 -91 82t-38 63z" />
<glyph unicode="&#xc9;" horiz-adv-x="1163" d="M-20 0l10 68l164 6q23 96 30 151l41 228l78 505q33 213 51 385l-161 7l12 67h993l-59 -368h-166l24 290h-405q-23 -100 -68 -368l-32 -211h458l-14 -82h-457l-35 -221q-45 -301 -51 -379h441l69 291h168l-59 -369h-1032zM616 1556q80 53 153 126t112 139h180q31 0 31 -15 q0 -25 -52.5 -75t-124.5 -93q-119 -70 -270 -133z" />
<glyph unicode="&#xca;" horiz-adv-x="1163" d="M-20 0l10 68l164 6q23 96 30 151l41 228l78 505q33 213 51 385l-161 7l12 67h993l-59 -368h-166l24 290h-405q-23 -100 -68 -368l-32 -211h458l-14 -82h-457l-35 -221q-45 -301 -51 -379h441l69 291h168l-59 -369h-1032zM446 1561q113 72 248 260h211q80 -188 166 -260 l-39 -52q-178 90 -246 189q-96 -96 -313 -189z" />
<glyph unicode="&#xcb;" horiz-adv-x="1163" d="M-20 0l10 68l164 6q23 96 30 151l41 228l78 505q33 213 51 385l-161 7l12 67h993l-59 -368h-166l24 290h-405q-23 -100 -68 -368l-32 -211h458l-14 -82h-457l-35 -221q-45 -301 -51 -379h441l69 291h168l-59 -369h-1032zM430 1663q0 51 35 86t88 35t87 -34t34 -87 t-34 -88t-87 -35t-88 35t-35 88zM829 1663q0 51 35 86t88 35q51 0 86 -34t35 -87t-33.5 -88t-87 -35t-88.5 35t-35 88z" />
<glyph unicode="&#xcc;" horiz-adv-x="694" d="M-16 0l10 68l166 6q23 100 69 393l72 444q55 356 59 432l-163 7l12 67h563l-10 -67l-168 -7l-70 -401l-71 -455q-49 -322 -58 -413l162 -6l-10 -68h-563zM291 1804q0 16 33 17h174q33 -66 101.5 -141.5t139.5 -123.5l-28 -51q-180 74 -291 154q-53 39 -91 82t-38 63z" />
<glyph unicode="&#xcd;" horiz-adv-x="694" d="M-16 0l10 68l166 6q23 100 69 393l72 444q55 356 59 432l-163 7l12 67h563l-10 -67l-168 -7l-70 -401l-71 -455q-49 -322 -58 -413l162 -6l-10 -68h-563zM336 1556q80 53 152.5 126t111.5 139h180q31 0 31 -15q0 -25 -52 -75t-124 -93q-119 -70 -270 -133z" />
<glyph unicode="&#xce;" horiz-adv-x="694" d="M-16 0l10 68l166 6q23 100 69 393l72 444q55 356 59 432l-163 7l12 67h563l-10 -67l-168 -7l-70 -401l-71 -455q-49 -322 -58 -413l162 -6l-10 -68h-563zM186 1561q113 72 248 260h211q80 -188 166 -260l-39 -52q-178 90 -246 189q-96 -96 -313 -189z" />
<glyph unicode="&#xcf;" horiz-adv-x="694" d="M-16 0l10 68l166 6q23 100 69 393l72 444q55 356 59 432l-163 7l12 67h563l-10 -67l-168 -7l-70 -401l-71 -455q-49 -322 -58 -413l162 -6l-10 -68h-563zM190 1663q0 51 35 86t88 35q51 0 86 -34t35 -87t-33.5 -88t-87 -35t-88.5 35t-35 88zM590 1663q0 51 34.5 86t88 35 t87.5 -34t34 -87t-34 -88t-87.5 -35t-88 35t-34.5 88z" />
<glyph unicode="&#xd0;" horiz-adv-x="1400" d="M-18 0l10 68l164 6l71 379l35 225h-219l12 78h219l31 202q29 172 53 385l-163 7l12 67h389q193 0 303.5 -19.5t196.5 -68.5q238 -137 237 -485q0 -176 -62.5 -345t-168.5 -282q-113 -119 -254 -168t-373 -49h-493zM395 78h78q307 0 465 217q72 102 118 272t46 338 q0 225 -103.5 329.5t-328.5 104.5h-76l-29 -145l-39 -223l-32 -215h258l-13 -78h-258l-35 -221q-35 -223 -51 -379z" />
<glyph unicode="&#xd1;" horiz-adv-x="1482" d="M-14 0l10 68l160 6q23 104 69 389l82 518q45 279 51 362l-157 7l10 67h405q31 -92 125 -280l379 -818l101 648q4 20 20 135l31 241l-156 7l10 67h433l-11 -67l-157 -7q-20 -82 -76 -413l-148 -930h-151q-14 47 -76 182l-43 88l-451 967l-116 -748q-35 -211 -58 -415 l156 -6l-12 -68h-430zM594 1544q80 225 217 225q55 0 174 -38q104 -33 150 -33q88 0 112 82h68q-31 -119 -84 -174.5t-137 -55.5q-53 0 -170 35q-117 37 -164 37q-33 0 -54.5 -16.5t-43.5 -61.5h-68z" />
<glyph unicode="&#xd2;" horiz-adv-x="1490" d="M129 578q0 158 52 317.5t145 278.5q203 264 544 264q256 0 396 -146q156 -160 155 -440q0 -350 -196 -604q-205 -268 -545 -268q-262 0 -406.5 156.5t-144.5 441.5zM358 502q0 -223 81 -338t239 -115q248 0 387 287q57 117 92 278.5t35 309.5q0 217 -81 330.5t-237 113.5 q-236 0 -380 -274q-59 -111 -97.5 -278t-38.5 -314zM700 1804q0 16 33 17h174q33 -66 101.5 -141.5t140.5 -123.5l-29 -51q-180 74 -291 154q-53 39 -91 82t-38 63z" />
<glyph unicode="&#xd3;" horiz-adv-x="1490" d="M129 578q0 158 52 317.5t145 278.5q203 264 544 264q256 0 396 -146q156 -160 155 -440q0 -350 -196 -604q-205 -268 -545 -268q-262 0 -406.5 156.5t-144.5 441.5zM358 502q0 -223 81 -338t239 -115q248 0 387 287q57 117 92 278.5t35 309.5q0 217 -81 330.5t-237 113.5 q-236 0 -380 -274q-59 -111 -97.5 -278t-38.5 -314zM752 1556q80 53 152.5 126t111.5 139h180q31 0 31 -15q0 -25 -52.5 -75t-123.5 -93q-119 -70 -271 -133z" />
<glyph unicode="&#xd4;" horiz-adv-x="1490" d="M129 578q0 158 52 317.5t145 278.5q203 264 544 264q256 0 396 -146q156 -160 155 -440q0 -350 -196 -604q-205 -268 -545 -268q-262 0 -406.5 156.5t-144.5 441.5zM358 502q0 -223 81 -338t239 -115q248 0 387 287q57 117 92 278.5t35 309.5q0 217 -81 330.5t-237 113.5 q-236 0 -380 -274q-59 -111 -97.5 -278t-38.5 -314zM578 1561q113 72 247 260h211q80 -188 166 -260l-39 -52q-178 90 -245 189q-96 -96 -314 -189z" />
<glyph unicode="&#xd5;" horiz-adv-x="1490" d="M129 578q0 158 52 317.5t145 278.5q203 264 544 264q256 0 396 -146q156 -160 155 -440q0 -350 -196 -604q-205 -268 -545 -268q-262 0 -406.5 156.5t-144.5 441.5zM358 502q0 -223 81 -338t239 -115q248 0 387 287q57 117 92 278.5t35 309.5q0 217 -81 330.5t-237 113.5 q-236 0 -380 -274q-59 -111 -97.5 -278t-38.5 -314zM571 1544q80 225 217 225q55 0 175 -38q104 -33 149 -33q88 0 113 82h67q-31 -119 -84 -174.5t-137 -55.5q-53 0 -170 35q-117 37 -164 37q-33 0 -54 -16.5t-44 -61.5h-68z" />
<glyph unicode="&#xd6;" horiz-adv-x="1490" d="M129 578q0 158 52 317.5t145 278.5q203 264 544 264q256 0 396 -146q156 -160 155 -440q0 -350 -196 -604q-205 -268 -545 -268q-262 0 -406.5 156.5t-144.5 441.5zM358 502q0 -223 81 -338t239 -115q248 0 387 287q57 117 92 278.5t35 309.5q0 217 -81 330.5t-237 113.5 q-236 0 -380 -274q-59 -111 -97.5 -278t-38.5 -314zM586 1663q0 51 34.5 86t88 35t87 -34t33.5 -87t-33.5 -88t-87 -35t-88 35t-34.5 88zM985 1663q0 51 35 86t88 35q51 0 86 -34t35 -87t-34 -88t-87 -35t-88 35t-35 88z" />
<glyph unicode="&#xd7;" d="M143 176l340 344l-340 342l109 103l340 -342l340 342l106 -103l-342 -342l340 -344l-106 -102l-338 344l-342 -344z" />
<glyph unicode="&#xd8;" horiz-adv-x="1490" d="M72 27l157 168q-98 164 -98 374q0 164 52.5 324t144.5 281q203 264 536 264q258 0 402 -146l151 158l62 -61l-158 -164q102 -168 102 -379q0 -160 -52 -319.5t-144 -278.5q-203 -268 -545 -268q-258 0 -397 145l-150 -158zM360 492q0 -68 9 -156l786 844 q-78 188 -272 188q-244 0 -387 -276q-59 -113 -97.5 -280.5t-38.5 -319.5zM397 240q80 -190 273 -191q252 0 397 287q127 260 127 600q0 82 -12 145z" />
<glyph unicode="&#xd9;" horiz-adv-x="1466" d="M193 1350l10 67h563l-10 -67l-166 -7l-66 -370l-65 -410q-25 -176 -25 -254q0 -119 70.5 -183.5t202.5 -64.5q221 0 340 168q61 88 102 342l61 396q31 193 52 376l-156 7l10 67h432l-10 -67l-160 -7l-6 -26l-31 -168l-22 -130q-8 -46 -12 -63l-64 -417 q-23 -152 -53.5 -235t-83.5 -148q-150 -176 -426 -176q-225 0 -345 89t-120 259q0 61 33 280l55 350q45 279 53 385zM655 1804q0 16 33 17h174q33 -66 101.5 -141.5t140.5 -123.5l-29 -51q-180 74 -291 154q-53 39 -91 82t-38 63z" />
<glyph unicode="&#xda;" horiz-adv-x="1466" d="M193 1350l10 67h563l-10 -67l-166 -7l-66 -370l-65 -410q-25 -176 -25 -254q0 -119 70.5 -183.5t202.5 -64.5q221 0 340 168q61 88 102 342l61 396q31 193 52 376l-156 7l10 67h432l-10 -67l-160 -7l-6 -26l-31 -168l-22 -130q-8 -46 -12 -63l-64 -417 q-23 -152 -53.5 -235t-83.5 -148q-150 -176 -426 -176q-225 0 -345 89t-120 259q0 61 33 280l55 350q45 279 53 385zM836 1556q80 53 152.5 126t111.5 139h180q31 0 31 -15q0 -25 -52.5 -75t-123.5 -93q-119 -70 -271 -133z" />
<glyph unicode="&#xdb;" horiz-adv-x="1466" d="M193 1350l10 67h563l-10 -67l-166 -7l-66 -370l-65 -410q-25 -176 -25 -254q0 -119 70.5 -183.5t202.5 -64.5q221 0 340 168q61 88 102 342l61 396q31 193 52 376l-156 7l10 67h432l-10 -67l-160 -7l-6 -26l-31 -168l-22 -130q-8 -46 -12 -63l-64 -417 q-23 -152 -53.5 -235t-83.5 -148q-150 -176 -426 -176q-225 0 -345 89t-120 259q0 61 33 280l55 350q45 279 53 385zM653 1561q113 72 248 260h211q80 -188 166 -260l-39 -52q-178 90 -246 189q-96 -96 -313 -189z" />
<glyph unicode="&#xdc;" horiz-adv-x="1466" d="M193 1350l10 67h563l-10 -67l-166 -7l-66 -370l-65 -410q-25 -176 -25 -254q0 -119 70.5 -183.5t202.5 -64.5q221 0 340 168q61 88 102 342l61 396q31 193 52 376l-156 7l10 67h432l-10 -67l-160 -7l-6 -26l-31 -168l-22 -130q-8 -46 -12 -63l-64 -417 q-23 -152 -53.5 -235t-83.5 -148q-150 -176 -426 -176q-225 0 -345 89t-120 259q0 61 33 280l55 350q45 279 53 385zM616 1663q0 51 35 86t88 35q51 0 86 -34t35 -87t-33.5 -88t-87 -35t-88.5 35t-35 88zM1016 1663q0 51 34.5 86t88 35t87.5 -34t34 -87t-34 -88t-87.5 -35 t-88 35t-34.5 88z" />
<glyph unicode="&#xdd;" horiz-adv-x="1181" d="M78 1350l10 67h510l-12 -67l-144 -7q35 -104 111 -276l141 -322l217 328l50 72q96 143 126 198l-141 7l10 67h385l-10 -67l-112 -7q-90 -113 -205 -282l-277 -412q-57 -266 -86 -577l164 -6l-10 -66h-569l10 66l168 6q23 84 57.5 307t34.5 274l-211 463q-80 174 -113 227 zM676 1556q80 53 152.5 126t111.5 139h180q31 0 31 -15q0 -25 -52 -75t-124 -93q-119 -70 -270 -133z" />
<glyph unicode="&#xde;" d="M-20 0l10 68l164 6q25 94 71 381l78 501q41 281 51 387l-161 7l12 67h563l-10 -67l-168 -7l-8 -49l-15 -69q-2 -6 -16 -90h86q160 0 237.5 -15.5t137.5 -56.5q131 -94 131 -270q0 -225 -162 -349q-74 -55 -165 -77.5t-245 -22.5h-145q-25 -174 -35 -270l162 -6l-10 -68 h-563zM438 422h68q115 0 181.5 21.5t117.5 74.5q109 113 108 293q0 125 -73.5 185.5t-227.5 60.5h-73z" />
<glyph unicode="&#xdf;" horiz-adv-x="1226" d="M-35 0l10 68l144 6q33 137 63 342l99 624q25 158 51 232t80 127q115 121 333 121q184 0 290 -88.5t106 -239.5q0 -156 -91.5 -255t-263.5 -134q147 -16 220 -74q104 -88 104 -256q0 -217 -134 -354t-347 -137q-98 0 -193 38l31 72q68 -33 123 -33q127 0 213 130t86 327 q0 129 -63.5 186.5t-204.5 57.5h-27l12 71h23q141 0 211 103q86 123 86 303q0 100 -46 157.5t-126 57.5q-135 0 -203 -149q-35 -78 -62 -267l-106 -674q-49 -340 -51 -362h-367z" />
<glyph unicode="&#xe0;" horiz-adv-x="1212" d="M96 397q0 248 121 447q61 102 155.5 159.5t205.5 57.5q182 0 288 -170l29 149h203q-53 -274 -70 -387l-63 -399q-12 -92 -13 -107q0 -31 15.5 -50t40.5 -19q37 0 116 41l29 -53q-143 -86 -260 -86q-139 0 -139 124q0 18 2 37q-74 -88 -145.5 -124.5t-170.5 -36.5 q-164 0 -254 109t-90 308zM317 375q0 -127 53.5 -206t137.5 -79q127 0 250 156l84 542q-74 162 -207 162q-145 0 -242 -211q-76 -157 -76 -364zM487 1501q0 16 33 17h174q33 -66 101.5 -142t140.5 -123l-29 -51q-180 74 -291 154q-53 39 -91 82t-38 63z" />
<glyph unicode="&#xe1;" horiz-adv-x="1212" d="M96 397q0 248 121 447q61 102 155.5 159.5t205.5 57.5q182 0 288 -170l29 149h203q-53 -274 -70 -387l-63 -399q-12 -92 -13 -107q0 -31 15.5 -50t40.5 -19q37 0 116 41l29 -53q-143 -86 -260 -86q-139 0 -139 124q0 18 2 37q-74 -88 -145.5 -124.5t-170.5 -36.5 q-164 0 -254 109t-90 308zM317 375q0 -127 53.5 -206t137.5 -79q127 0 250 156l84 542q-74 162 -207 162q-145 0 -242 -211q-76 -157 -76 -364zM575 1253q80 53 153 126t112 139h180q31 0 31 -15q0 -25 -52.5 -75t-124.5 -93q-119 -70 -270 -133z" />
<glyph unicode="&#xe2;" horiz-adv-x="1212" d="M96 397q0 248 121 447q61 102 155.5 159.5t205.5 57.5q182 0 288 -170l29 149h203q-53 -274 -70 -387l-63 -399q-12 -92 -13 -107q0 -31 15.5 -50t40.5 -19q37 0 116 41l29 -53q-143 -86 -260 -86q-139 0 -139 124q0 18 2 37q-74 -88 -145.5 -124.5t-170.5 -36.5 q-164 0 -254 109t-90 308zM317 375q0 -127 53.5 -206t137.5 -79q127 0 250 156l84 542q-74 162 -207 162q-145 0 -242 -211q-76 -157 -76 -364zM412 1257q113 72 247 261h211q80 -188 166 -261l-39 -51q-176 88 -245 189q-92 -92 -314 -189z" />
<glyph unicode="&#xe3;" horiz-adv-x="1212" d="M96 397q0 248 121 447q61 102 155.5 159.5t205.5 57.5q182 0 288 -170l29 149h203q-53 -274 -70 -387l-63 -399q-12 -92 -13 -107q0 -31 15.5 -50t40.5 -19q37 0 116 41l29 -53q-143 -86 -260 -86q-139 0 -139 124q0 18 2 37q-74 -88 -145.5 -124.5t-170.5 -36.5 q-164 0 -254 109t-90 308zM317 375q0 -127 53.5 -206t137.5 -79q127 0 250 156l84 542q-74 162 -207 162q-145 0 -242 -211q-76 -157 -76 -364zM383 1266q80 225 217 225q55 0 174 -39q104 -33 150 -33q88 0 112 82h68q-31 -119 -84 -174t-137 -55q-53 0 -170 35 q-117 37 -164 36q-33 0 -54.5 -16t-43.5 -61h-68z" />
<glyph unicode="&#xe4;" horiz-adv-x="1212" d="M96 397q0 248 121 447q61 102 155.5 159.5t205.5 57.5q182 0 288 -170l29 149h203q-53 -274 -70 -387l-63 -399q-12 -92 -13 -107q0 -31 15.5 -50t40.5 -19q37 0 116 41l29 -53q-143 -86 -260 -86q-139 0 -139 124q0 18 2 37q-74 -88 -145.5 -124.5t-170.5 -36.5 q-164 0 -254 109t-90 308zM317 375q0 -127 53.5 -206t137.5 -79q127 0 250 156l84 542q-74 162 -207 162q-145 0 -242 -211q-76 -157 -76 -364zM420 1386q0 51 34.5 86t88.5 35q51 0 86 -34.5t35 -86.5q0 -53 -34 -87.5t-87.5 -34.5t-88 34.5t-34.5 87.5zM819 1386 q0 51 35 86t88 35t87 -34.5t34 -86.5q0 -53 -34 -87.5t-87 -34.5t-88 34.5t-35 87.5z" />
<glyph unicode="&#xe5;" horiz-adv-x="1212" d="M96 397q0 248 121 447q61 102 155.5 159.5t205.5 57.5q182 0 288 -170l29 149h203q-53 -274 -70 -387l-63 -399q-12 -92 -13 -107q0 -31 15.5 -50t40.5 -19q37 0 116 41l29 -53q-143 -86 -260 -86q-139 0 -139 124q0 18 2 37q-74 -88 -145.5 -124.5t-170.5 -36.5 q-164 0 -254 109t-90 308zM317 375q0 -127 53.5 -206t137.5 -79q127 0 250 156l84 542q-74 162 -207 162q-145 0 -242 -211q-76 -157 -76 -364zM532 1368q0 86 60.5 144.5t148.5 58.5q90 0 148.5 -58.5t58.5 -146.5t-58.5 -146.5t-148.5 -58.5q-92 0 -150.5 58.5 t-58.5 148.5zM625 1368q0 -59 31.5 -94t84.5 -35q51 0 83 35t32 92t-31.5 92t-85.5 35q-51 0 -82.5 -35t-31.5 -90z" />
<glyph unicode="&#xe6;" horiz-adv-x="1763" d="M96 387q0 133 38 264t104 223q133 186 340 187q100 0 166.5 -38t121.5 -126l27 152h149l-28 -158q70 92 142.5 132t172.5 40q168 0 259 -97.5t91 -279.5q0 -72 -14 -160h-655q-10 -90 -11 -145q0 -154 64.5 -234.5t187.5 -80.5q131 0 273 86l39 -68q-170 -104 -361 -104 q-285 0 -381 223q-133 -225 -372 -226q-170 0 -261.5 105.5t-91.5 304.5zM317 375q0 -133 53.5 -212t145.5 -79q117 0 197 106q47 68 67 207l62 391q-74 170 -205 170q-154 0 -246 -217q-74 -163 -74 -366zM1022 596h430q14 98 14 158q0 238 -155 237q-102 0 -179 -104.5 t-110 -290.5z" />
<glyph unicode="&#xe7;" horiz-adv-x="970" d="M98 406q0 274 142 458q154 197 426 197q166 0 311 -57l-47 -265h-164l18 222q-55 31 -106 30q-180 0 -283 -229q-76 -168 -76 -377q0 -152 66 -235.5t182 -83.5q111 0 246 71l29 -71q-137 -86 -310 -86q-205 0 -319.5 112.5t-114.5 313.5zM145 -397q231 166 250 321h142 q37 0 36 -20q0 -92 -157 -217q-61 -47 -236 -144z" />
<glyph unicode="&#xe8;" horiz-adv-x="1081" d="M98 397q0 274 129 459q141 205 394 205q203 0 299 -109q80 -88 79 -268q0 -72 -14 -158h-655q-12 -78 -13 -145q0 -154 64.5 -234.5t187.5 -80.5q135 0 275 86l39 -68q-96 -59 -176 -81.5t-187 -22.5q-201 0 -311.5 109t-110.5 308zM340 596h432l2 20q12 94 12 140 q0 238 -153 237q-104 0 -180 -102t-113 -295zM430 1501q0 16 33 17h174q33 -66 101.5 -142t140.5 -123l-29 -51q-180 74 -291 154q-53 39 -91 82t-38 63z" />
<glyph unicode="&#xe9;" horiz-adv-x="1081" d="M98 397q0 274 129 459q141 205 394 205q203 0 299 -109q80 -88 79 -268q0 -72 -14 -158h-655q-12 -78 -13 -145q0 -154 64.5 -234.5t187.5 -80.5q135 0 275 86l39 -68q-96 -59 -176 -81.5t-187 -22.5q-201 0 -311.5 109t-110.5 308zM340 596h432l2 20q12 94 12 140 q0 238 -153 237q-104 0 -180 -102t-113 -295zM516 1253q80 53 152.5 126t111.5 139h181q31 0 30 -15q0 -25 -52 -75t-124 -93q-119 -70 -270 -133z" />
<glyph unicode="&#xea;" horiz-adv-x="1081" d="M98 397q0 274 129 459q141 205 394 205q203 0 299 -109q80 -88 79 -268q0 -72 -14 -158h-655q-12 -78 -13 -145q0 -154 64.5 -234.5t187.5 -80.5q135 0 275 86l39 -68q-96 -59 -176 -81.5t-187 -22.5q-201 0 -311.5 109t-110.5 308zM338 1257q113 72 248 261h211 q80 -188 166 -261l-39 -51q-176 88 -246 189q-92 -92 -313 -189zM340 596h432l2 20q12 94 12 140q0 238 -153 237q-104 0 -180 -102t-113 -295z" />
<glyph unicode="&#xeb;" horiz-adv-x="1081" d="M98 397q0 274 129 459q141 205 394 205q203 0 299 -109q80 -88 79 -268q0 -72 -14 -158h-655q-12 -78 -13 -145q0 -154 64.5 -234.5t187.5 -80.5q135 0 275 86l39 -68q-96 -59 -176 -81.5t-187 -22.5q-201 0 -311.5 109t-110.5 308zM340 596h432l2 20q12 94 12 140 q0 238 -153 237q-104 0 -180 -102t-113 -295zM348 1386q0 51 35 86t88 35t87 -34.5t34 -86.5q0 -53 -34 -87.5t-87 -34.5t-88 34.5t-35 87.5zM748 1386q0 51 34.5 86t87.5 35q51 0 86 -34.5t35 -86.5q0 -53 -33.5 -87.5t-87 -34.5t-88 34.5t-34.5 87.5z" />
<glyph unicode="&#xec;" horiz-adv-x="610" d="M111 0q27 117 79 453l23 141q45 326 51 373l-139 6l10 67l369 11q-39 -203 -80 -439l-23 -153q-55 -371 -63 -459h-227zM186 1501q0 16 33 17h174q33 -66 101.5 -142t140.5 -123l-29 -51q-180 74 -291 154q-53 39 -91 82t-38 63z" />
<glyph unicode="&#xed;" horiz-adv-x="610" d="M111 0q27 117 79 453l23 141q45 326 51 373l-139 6l10 67l369 11q-39 -203 -80 -439l-23 -153q-55 -371 -63 -459h-227zM264 1253q80 53 152.5 126t111.5 139h181q31 0 30 -15q0 -25 -52 -75t-124 -93q-119 -70 -270 -133z" />
<glyph unicode="&#xee;" horiz-adv-x="610" d="M80 1257q113 72 248 261h211q80 -188 166 -261l-39 -51q-176 88 -246 189q-92 -92 -314 -189zM109 0q23 102 81 453l21 141q35 233 51 373l-139 6l10 67l371 11q-39 -184 -80 -439l-23 -153q-45 -285 -65 -459h-227z" />
<glyph unicode="&#xef;" horiz-adv-x="610" d="M96 1386q0 51 35 86t88 35q51 0 86 -34.5t35 -86.5q0 -53 -34 -87.5t-87 -34.5t-88 34.5t-35 87.5zM111 0q29 131 79 453l23 141q45 319 49 373l-137 6l10 67l369 11q-41 -201 -80 -439l-23 -153q-53 -340 -63 -459h-227zM496 1386q0 51 34.5 86t88 35t87 -34.5 t33.5 -86.5q0 -53 -33.5 -87.5t-87 -34.5t-88 34.5t-34.5 87.5z" />
<glyph unicode="&#xf0;" horiz-adv-x="1142" d="M92 389q0 256 150 438q137 162 346 162q133 0 231 -65q-27 164 -125 305l-301 -135l-35 77l281 123q-86 98 -252 148l33 71q184 -39 334 -170l290 130l33 -76l-262 -117q106 -121 169 -294t63 -341q0 -305 -148.5 -485t-398.5 -180q-188 0 -298 109.5t-110 299.5z M311 365q0 -152 50.5 -235t140.5 -83q70 0 136.5 51.5t106.5 134.5q35 74 58.5 183.5t23.5 204.5q0 139 -51 216.5t-145 77.5q-147 0 -236 -174q-84 -163 -84 -376z" />
<glyph unicode="&#xf1;" horiz-adv-x="1257" d="M109 0q29 139 86 471l20 139q35 213 43 357l-135 6l12 67l346 11l-20 -179q117 109 197.5 149t181.5 40q117 0 184.5 -67.5t67.5 -182.5q0 -74 -31 -274l-17 -95q-37 -256 -45 -368l138 -6l-11 -68h-358l68 438l16 105q29 176 29 241q0 154 -131 154q-135 0 -301 -178 l-43 -279q-53 -332 -70 -481h-227zM399 1266q80 225 217 225q55 0 175 -39q104 -33 149 -33q88 0 113 82h67q-31 -119 -84 -174t-137 -55q-53 0 -170 35q-117 37 -164 36q-33 0 -54.5 -16t-43.5 -61h-68z" />
<glyph unicode="&#xf2;" horiz-adv-x="1181" d="M98 410q0 127 41 252.5t111 211.5q150 186 409 187q205 0 315.5 -109.5t110.5 -310.5q0 -276 -145 -469q-150 -193 -418 -192q-207 0 -315.5 110.5t-108.5 319.5zM317 354q0 -307 203 -307q172 0 264 223q80 190 80 420q0 303 -202 303q-164 0 -256 -205 q-89 -192 -89 -434zM483 1501q0 16 33 17h174q33 -66 101.5 -142t140.5 -123l-29 -51q-180 74 -291 154q-53 39 -91 82t-38 63z" />
<glyph unicode="&#xf3;" horiz-adv-x="1181" d="M98 410q0 127 41 252.5t111 211.5q150 186 409 187q205 0 315.5 -109.5t110.5 -310.5q0 -276 -145 -469q-150 -193 -418 -192q-207 0 -315.5 110.5t-108.5 319.5zM317 354q0 -307 203 -307q172 0 264 223q80 190 80 420q0 303 -202 303q-164 0 -256 -205 q-89 -192 -89 -434zM565 1253q80 53 153 126t111 139h181q31 0 30 -15q0 -25 -52 -75t-124 -93q-119 -70 -270 -133z" />
<glyph unicode="&#xf4;" horiz-adv-x="1181" d="M98 410q0 127 41 252.5t111 211.5q150 186 409 187q205 0 315.5 -109.5t110.5 -310.5q0 -276 -145 -469q-150 -193 -418 -192q-207 0 -315.5 110.5t-108.5 319.5zM317 354q0 -307 203 -307q172 0 264 223q80 190 80 420q0 303 -202 303q-164 0 -256 -205 q-89 -192 -89 -434zM387 1257q113 72 248 261h211q80 -188 166 -261l-39 -51q-176 88 -246 189q-92 -92 -313 -189z" />
<glyph unicode="&#xf5;" horiz-adv-x="1181" d="M98 410q0 127 41 252.5t111 211.5q150 186 409 187q205 0 315.5 -109.5t110.5 -310.5q0 -276 -145 -469q-150 -193 -418 -192q-207 0 -315.5 110.5t-108.5 319.5zM317 354q0 -307 203 -307q172 0 264 223q80 190 80 420q0 303 -202 303q-164 0 -256 -205 q-89 -192 -89 -434zM373 1266q80 225 217 225q55 0 174 -39q104 -33 149 -33q88 0 113 82h68q-31 -119 -84.5 -174t-137.5 -55q-53 0 -170 35q-117 37 -163 36q-33 0 -54.5 -16t-44.5 -61h-67z" />
<glyph unicode="&#xf6;" horiz-adv-x="1181" d="M98 410q0 127 41 252.5t111 211.5q150 186 409 187q205 0 315.5 -109.5t110.5 -310.5q0 -276 -145 -469q-150 -193 -418 -192q-207 0 -315.5 110.5t-108.5 319.5zM317 354q0 -307 203 -307q172 0 264 223q80 190 80 420q0 303 -202 303q-164 0 -256 -205 q-89 -192 -89 -434zM401 1386q0 51 35 86t88.5 35t87 -34.5t33.5 -86.5q0 -53 -33.5 -87.5t-87 -34.5t-88.5 34.5t-35 87.5zM801 1386q0 51 34.5 86t88.5 35q51 0 85.5 -34.5t34.5 -86.5q0 -53 -33.5 -87.5t-87 -34.5t-88 34.5t-34.5 87.5z" />
<glyph unicode="&#xf7;" d="M76 449l24 143h1006l-23 -143h-1007zM403 182q0 53 36 89t91 36q53 0 89 -35.5t36 -89.5q0 -55 -35.5 -91t-89.5 -36q-55 0 -91 36t-36 91zM524 862q0 53 36 89t89 36q55 0 91 -36t36 -89q0 -55 -35.5 -91t-89.5 -36q-57 0 -92 36t-35 91z" />
<glyph unicode="&#xf8;" horiz-adv-x="1181" d="M10 23l146 141q-57 109 -58 244q0 131 44 262t116 215q147 176 395 176q201 0 316 -113l133 129l59 -59l-139 -135q63 -102 63 -248q0 -117 -34.5 -235.5t-94.5 -202.5q-152 -217 -438 -217q-199 0 -313 114l-137 -131zM317 358q0 -23 2 -41l529 517q-45 160 -184 159 q-176 0 -273 -237q-74 -195 -74 -398zM332 213q43 -166 186 -166q178 0 266 223q80 201 80 418q0 25 -2 43z" />
<glyph unicode="&#xf9;" horiz-adv-x="1257" d="M121 973l10 67l369 11q-66 -354 -78 -435l-27 -170q-20 -127 -20 -198q0 -158 129 -158q141 0 305 193l109 682l-148 8l10 67l369 11q-6 -41 -15 -89l-18 -94q-25 -129 -45 -250l-31 -190l-12 -94q-2 -23 -7 -64l-7 -57l-15 -139l142 -6l-11 -68h-354l21 168 q-106 -106 -189.5 -147t-185.5 -41q-121 0 -189.5 67.5t-68.5 185.5q0 66 31 263l16 102q33 221 51 369zM483 1501q0 16 33 17h174q33 -66 101.5 -142t140.5 -123l-29 -51q-180 74 -291 154q-53 39 -91 82t-38 63z" />
<glyph unicode="&#xfa;" horiz-adv-x="1257" d="M121 973l10 67l369 11q-66 -354 -78 -435l-27 -170q-20 -127 -20 -198q0 -158 129 -158q141 0 305 193l109 682l-148 8l10 67l369 11q-6 -41 -15 -89l-18 -94q-25 -129 -45 -250l-31 -190l-12 -94q-2 -23 -7 -64l-7 -57l-15 -139l142 -6l-11 -68h-354l21 168 q-106 -106 -189.5 -147t-185.5 -41q-121 0 -189.5 67.5t-68.5 185.5q0 66 31 263l16 102q33 221 51 369zM590 1253q80 53 152.5 126t111.5 139h180q31 0 31 -15q0 -25 -52 -75t-124 -93q-119 -70 -271 -133z" />
<glyph unicode="&#xfb;" horiz-adv-x="1257" d="M121 973l10 67l369 11q-66 -354 -78 -435l-27 -170q-20 -127 -20 -198q0 -158 129 -158q141 0 305 193l109 682l-148 8l10 67l369 11q-6 -41 -15 -89l-18 -94q-25 -129 -45 -250l-31 -190l-12 -94q-2 -23 -7 -64l-7 -57l-15 -139l142 -6l-11 -68h-354l21 168 q-106 -106 -189.5 -147t-185.5 -41q-121 0 -189.5 67.5t-68.5 185.5q0 66 31 263l16 102q33 221 51 369zM406 1257q113 72 247 261h211q80 -188 166 -261l-39 -51q-176 88 -246 189q-92 -92 -313 -189z" />
<glyph unicode="&#xfc;" horiz-adv-x="1257" d="M121 973l10 67l369 11q-66 -354 -78 -435l-27 -170q-20 -127 -20 -198q0 -158 129 -158q141 0 305 193l109 682l-148 8l10 67l369 11q-6 -41 -15 -89l-18 -94q-25 -129 -45 -250l-31 -190l-12 -94q-2 -23 -7 -64l-7 -57l-15 -139l142 -6l-11 -68h-354l21 168 q-106 -106 -189.5 -147t-185.5 -41q-121 0 -189.5 67.5t-68.5 185.5q0 66 31 263l16 102q33 221 51 369zM418 1386q0 51 34.5 86t88 35t87.5 -34.5t34 -86.5q0 -53 -34 -87.5t-87.5 -34.5t-88 34.5t-34.5 87.5zM817 1386q0 51 35 86t88 35q51 0 86 -34.5t35 -86.5 q0 -53 -34 -87.5t-87 -34.5t-88 34.5t-35 87.5z" />
<glyph unicode="&#xfd;" horiz-adv-x="1075" d="M-90 -438l51 147q55 -20 111 -20q121 0 204 96q63 72 107 162l23 45l-150 663q-8 37 -20 85l-20 78l-9 38q-23 84 -31 111l-98 6l10 67h442l-10 -67l-108 -6q8 -82 49 -275l96 -430l231 436q115 211 136 271l-154 4l10 67h375l-10 -67l-101 -6q-92 -150 -182 -318 l-407 -749q-82 -154 -174 -250q-104 -100 -252 -101q-66 1 -119 13zM573 1253q80 53 153 126t112 139h180q31 0 31 -15q0 -25 -52.5 -75t-124.5 -93q-119 -70 -270 -133z" />
<glyph unicode="&#xfe;" horiz-adv-x="1218" d="M37 -440l90 501l154 988q41 238 51 368l-139 4l10 68l366 10q-47 -260 -75 -438l-23 -143q78 78 148.5 110.5t164.5 32.5q160 0 249 -109.5t89 -308.5q0 -270 -131 -467q-129 -197 -346 -196q-104 0 -173 36.5t-126 124.5l-18 -131q-51 -340 -64 -450h-227zM365 250 q86 -164 217 -164q154 0 249 225q72 164 72 353q0 293 -186 292q-131 0 -266 -163z" />
<glyph unicode="&#xff;" horiz-adv-x="1075" d="M-90 -438l51 147q55 -20 111 -20q121 0 204 96q63 72 107 162l23 45l-150 663q-8 37 -20 85l-20 78l-9 38q-23 84 -31 111l-98 6l10 67h442l-10 -67l-108 -6q8 -82 49 -275l96 -430l231 436q115 211 136 271l-154 4l10 67h375l-10 -67l-101 -6q-92 -150 -182 -318 l-407 -749q-82 -154 -174 -250q-104 -100 -252 -101q-66 1 -119 13zM334 1386q0 51 34.5 86t88.5 35q51 0 86 -34.5t35 -86.5q0 -53 -34 -87.5t-87.5 -34.5t-88 34.5t-34.5 87.5zM733 1386q0 51 35 86t88 35t87 -34.5t34 -86.5q0 -53 -34 -87.5t-87 -34.5t-88 34.5t-35 87.5 z" />
<glyph unicode="&#x100;" horiz-adv-x="1327" d="M-90 0l10 68l115 6q72 113 166 293l350 684q119 217 186 366h123q10 -70 51 -256q8 -25 29 -123l150 -723q20 -100 57 -241l115 -6l-11 -68h-516l10 68l156 6q-8 66 -35 198l-43 217h-456l-72 -141q-100 -201 -133 -276l149 -4l-10 -68h-391zM406 567h403l-111 566z M494 1602l16 100h625l-17 -100h-624z" />
<glyph unicode="&#x101;" horiz-adv-x="1212" d="M96 397q0 248 121 447q61 102 155.5 159.5t205.5 57.5q182 0 288 -170l29 149h203q-53 -274 -70 -387l-63 -399q-12 -92 -13 -107q0 -31 15.5 -50t40.5 -19q37 0 116 41l29 -53q-143 -86 -260 -86q-139 0 -139 124q0 18 2 37q-74 -88 -145.5 -124.5t-170.5 -36.5 q-164 0 -254 109t-90 308zM317 375q0 -127 53.5 -206t137.5 -79q127 0 250 156l84 542q-74 162 -207 162q-145 0 -242 -211q-76 -157 -76 -364zM403 1323l17 100h624l-16 -100h-625z" />
<glyph unicode="&#x102;" horiz-adv-x="1327" d="M-90 0l10 68l115 6q72 113 166 293l350 684q119 217 186 366h123q10 -70 51 -256q8 -25 29 -123l150 -723q20 -100 57 -241l115 -6l-11 -68h-516l10 68l156 6q-8 66 -35 198l-43 217h-456l-72 -141q-100 -201 -133 -276l149 -4l-10 -68h-391zM406 567h403l-111 566z M539 1776q0 27 6 65h73q0 -98 35 -133q49 -49 168 -49q111 0 168.5 42t85.5 140h74q-45 -307 -334 -307q-131 0 -203.5 63.5t-72.5 178.5z" />
<glyph unicode="&#x103;" horiz-adv-x="1212" d="M96 397q0 248 121 447q61 102 155.5 159.5t205.5 57.5q182 0 288 -170l29 149h203q-53 -274 -70 -387l-63 -399q-12 -92 -13 -107q0 -31 15.5 -50t40.5 -19q37 0 116 41l29 -53q-143 -86 -260 -86q-139 0 -139 124q0 18 2 37q-74 -88 -145.5 -124.5t-170.5 -36.5 q-164 0 -254 109t-90 308zM317 375q0 -127 53.5 -206t137.5 -79q127 0 250 156l84 542q-74 162 -207 162q-145 0 -242 -211q-76 -157 -76 -364zM455 1460q0 23 6 66h71q2 -98 37 -133q49 -49 166 -50q113 0 171.5 42t82.5 141h76q-41 -307 -336 -307q-129 0 -201.5 64 t-72.5 177z" />
<glyph unicode="&#x104;" horiz-adv-x="1327" d="M-90 0l10 68l115 6q72 113 166 293l350 684q109 197 186 366h123q10 -84 78 -379l149 -723l60 -241l115 -6l-11 -68q-131 -76 -182 -135.5t-51 -132.5q0 -100 117 -101q39 0 77 9v-60q-74 -27 -145 -26q-104 0 -162.5 45t-58.5 122q0 82 70.5 147.5t230.5 131.5h-412 l10 68l156 6q-25 147 -35 198l-43 217h-456l-72 -141q-104 -207 -133 -276l149 -4l-10 -68h-391zM406 567h403l-113 566z" />
<glyph unicode="&#x105;" horiz-adv-x="1212" d="M96 397q0 248 121 447q61 102 155.5 159.5t205.5 57.5q182 0 288 -170l29 149h203l-70 -387l-63 -399q-12 -82 -13 -107q0 -33 15.5 -52t40.5 -19q39 0 116 43l29 -53q-55 -33 -127 -66q-72 -31 -152 -100q-86 -78 -86 -168q0 -100 117 -101q39 0 78 9v-60 q-74 -27 -145 -26q-104 0 -163 45t-59 122q0 141 254 259q-117 14 -116 124q0 18 2 37q-74 -88 -145.5 -124.5t-170.5 -36.5q-164 0 -254 109t-90 308zM317 375q0 -127 53.5 -206t137.5 -79q129 0 248 156l86 542q-74 162 -207 162q-145 0 -242 -211q-76 -157 -76 -364z" />
<glyph unicode="&#x106;" horiz-adv-x="1296" d="M127 543q0 168 52 332.5t145 287.5q207 276 563 277q219 0 432 -99l-47 -294h-166l18 239q-100 74 -221 74q-268 0 -426 -320q-53 -106 -86 -255.5t-33 -284.5q0 -205 93.5 -323t257.5 -118q115 0 245 62l60 252h170l-49 -305q-233 -88 -433 -88q-272 0 -423.5 148.5 t-151.5 414.5zM743 1556q80 53 153 126t112 139h180q31 0 31 -15q0 -25 -52.5 -75t-124.5 -93q-119 -70 -270 -133z" />
<glyph unicode="&#x107;" horiz-adv-x="970" d="M98 406q0 274 142 458q154 197 426 197q166 0 311 -57l-47 -265h-164l18 222q-55 31 -106 30q-180 0 -283 -229q-76 -168 -76 -377q0 -152 66 -235.5t182 -83.5q111 0 246 71l29 -71q-137 -86 -310 -86q-205 0 -319.5 112.5t-114.5 313.5zM530 1253q80 53 153 126 t112 139h180q31 0 31 -15q0 -25 -52.5 -75t-124.5 -93q-119 -70 -270 -133z" />
<glyph unicode="&#x108;" horiz-adv-x="1296" d="M127 543q0 168 52 332.5t145 287.5q207 276 563 277q219 0 432 -99l-47 -294h-166l18 239q-100 74 -221 74q-268 0 -426 -320q-53 -106 -86 -255.5t-33 -284.5q0 -205 93.5 -323t257.5 -118q115 0 245 62l60 252h170l-49 -305q-233 -88 -433 -88q-272 0 -423.5 148.5 t-151.5 414.5zM578 1561q113 72 247 260h211q80 -188 166 -260l-39 -52q-178 90 -245 189q-96 -96 -314 -189z" />
<glyph unicode="&#x109;" horiz-adv-x="970" d="M98 406q0 274 142 458q154 197 426 197q166 0 311 -57l-47 -265h-164l18 222q-55 31 -106 30q-180 0 -283 -229q-76 -168 -76 -377q0 -152 66 -235.5t182 -83.5q111 0 246 71l29 -71q-137 -86 -310 -86q-205 0 -319.5 112.5t-114.5 313.5zM371 1257q113 72 247 261h211 q80 -188 166 -261l-39 -51q-176 88 -245 189q-92 -92 -314 -189z" />
<glyph unicode="&#x10a;" horiz-adv-x="1296" d="M127 543q0 168 52 332.5t145 287.5q207 276 563 277q219 0 432 -99l-47 -294h-166l18 239q-100 74 -221 74q-268 0 -426 -320q-53 -106 -86 -255.5t-33 -284.5q0 -205 93.5 -323t257.5 -118q115 0 245 62l60 252h170l-49 -305q-233 -88 -433 -88q-272 0 -423.5 148.5 t-151.5 414.5zM786 1665q0 51 36 86t87 35q53 0 88 -35t35 -88t-34.5 -88t-88 -35t-88.5 35t-35 90z" />
<glyph unicode="&#x10b;" horiz-adv-x="970" d="M98 406q0 274 142 458q154 197 426 197q166 0 311 -57l-47 -265h-164l18 222q-55 31 -106 30q-180 0 -283 -229q-76 -168 -76 -377q0 -152 66 -235.5t182 -83.5q111 0 246 71l29 -71q-137 -86 -310 -86q-205 0 -319.5 112.5t-114.5 313.5zM584 1386q0 51 35.5 86t87 35 t87 -34.5t35.5 -88t-35.5 -88t-86.5 -34.5q-53 0 -88 34.5t-35 89.5z" />
<glyph unicode="&#x10c;" horiz-adv-x="1296" d="M127 543q0 168 52 332.5t145 287.5q207 276 563 277q219 0 432 -99l-47 -294h-166l18 239q-100 74 -221 74q-268 0 -426 -320q-53 -106 -86 -255.5t-33 -284.5q0 -205 93.5 -323t257.5 -118q115 0 245 62l60 252h170l-49 -305q-233 -88 -433 -88q-272 0 -423.5 148.5 t-151.5 414.5zM627 1792l39 51q178 -90 245 -188q96 96 316 188l24 -51q-113 -72 -247 -260h-211q-82 190 -166 260z" />
<glyph unicode="&#x10d;" horiz-adv-x="970" d="M98 406q0 274 142 458q154 197 426 197q166 0 311 -57l-47 -265h-164l18 222q-55 31 -106 30q-180 0 -283 -229q-76 -168 -76 -377q0 -152 66 -235.5t182 -83.5q111 0 246 71l29 -71q-137 -86 -310 -86q-205 0 -319.5 112.5t-114.5 313.5zM403 1487l39 51 q182 -90 246 -188q41 43 131 96t185 92l24 -51q-113 -72 -248 -260h-211q-80 186 -166 260z" />
<glyph unicode="&#x10e;" horiz-adv-x="1400" d="M-20 0l10 68l164 6q31 135 71 379l78 505q35 219 51 385l-159 7l10 67h389q195 0 304.5 -19.5t195.5 -66.5q238 -139 237 -483q0 -186 -64.5 -356t-176.5 -285q-113 -113 -252.5 -160t-364.5 -47h-493zM393 78h78q311 0 467 219q72 102 117 273t45 337 q0 223 -104.5 327.5t-327.5 104.5h-76q-23 -106 -68 -368l-80 -514q-39 -248 -51 -379zM453 1792l39 51q178 -90 245 -188q96 96 316 188l24 -51q-113 -72 -248 -260h-211q-81 190 -165 260z" />
<glyph unicode="&#x10f;" horiz-adv-x="1419" d="M96 389q0 289 144 483q135 188 346 189q98 0 165.5 -36t131.5 -122l20 129q47 324 55 391l-143 7l10 67l367 10q-10 -59 -14 -73l-23 -127q-29 -158 -49 -281l-82 -526q-49 -319 -57 -426l139 -6l-10 -68h-344l16 137q-139 -158 -328 -157q-162 0 -253 108t-91 301z M317 375q0 -131 52.5 -210t140.5 -79q139 0 270 164l84 538q-80 168 -217 168q-156 0 -254 -215q-76 -171 -76 -366zM1247 991q143 141 176 271q-113 25 -112 120q0 59 39 97.5t96 38.5q61 0 100 -40t39 -104q0 -164 -285 -430z" />
<glyph unicode="&#x110;" horiz-adv-x="1400" d="M-18 0l10 68l164 6l71 379l35 225h-219l12 78h219l31 202q29 172 53 385l-163 7l12 67h389q193 0 303.5 -19.5t196.5 -68.5q238 -137 237 -485q0 -176 -62.5 -345t-168.5 -282q-113 -119 -254 -168t-373 -49h-493zM395 78h78q307 0 465 217q72 102 118 272t46 338 q0 225 -103.5 329.5t-328.5 104.5h-76l-29 -145l-39 -223l-32 -215h258l-13 -78h-258l-35 -221q-35 -223 -51 -379z" />
<glyph unicode="&#x111;" horiz-adv-x="1228" d="M96 389q0 289 144 483q135 188 346 189q98 0 165.5 -36t131.5 -122l47 295h-262l14 90h258q18 127 18 135l-143 7l10 67l367 10q-4 -16 -41 -219h158l-15 -90h-159l-111 -698q-43 -285 -57 -426l139 -6l-10 -68h-344l16 137q-139 -158 -328 -157q-162 0 -253 108t-91 301 zM317 375q0 -131 52.5 -210t140.5 -79q139 0 270 164l84 538q-80 168 -217 168q-156 0 -254 -215q-76 -171 -76 -366z" />
<glyph unicode="&#x112;" horiz-adv-x="1163" d="M-20 0l10 68l164 6q23 96 30 151l41 228l78 505q33 213 51 385l-161 7l12 67h993l-59 -368h-166l24 290h-405q-23 -100 -68 -368l-32 -211h458l-14 -82h-457l-35 -221q-45 -301 -51 -379h441l69 291h168l-59 -369h-1032zM446 1602l17 100h624l-16 -100h-625z" />
<glyph unicode="&#x113;" horiz-adv-x="1081" d="M98 397q0 274 129 459q141 205 394 205q203 0 299 -109q80 -88 79 -268q0 -72 -14 -158h-655q-12 -78 -13 -145q0 -154 64.5 -234.5t187.5 -80.5q135 0 275 86l39 -68q-96 -59 -176 -81.5t-187 -22.5q-201 0 -311.5 109t-110.5 308zM336 1323l16 100h625l-16 -100h-625z M340 596h432l2 20q12 94 12 140q0 238 -153 237q-104 0 -180 -102t-113 -295z" />
<glyph unicode="&#x114;" horiz-adv-x="1163" d="M-20 0l10 68l164 6q23 96 30 151l41 228l78 505q33 213 51 385l-161 7l12 67h993l-59 -368h-166l24 290h-405q-23 -100 -68 -368l-32 -211h458l-14 -82h-457l-35 -221q-45 -301 -51 -379h441l69 291h168l-59 -369h-1032zM483 1776q0 27 6 65h74q0 -98 35 -133 q49 -49 168 -49q111 0 168 42t86 140h74q-45 -307 -334 -307q-131 0 -204 63.5t-73 178.5z" />
<glyph unicode="&#x116;" horiz-adv-x="1163" d="M-20 0l10 68l164 6q23 96 30 151l41 228l78 505q33 213 51 385l-161 7l12 67h993l-59 -368h-166l24 290h-405q-23 -100 -68 -368l-32 -211h458l-14 -82h-457l-35 -221q-45 -301 -51 -379h441l69 291h168l-59 -369h-1032zM659 1665q0 51 36 86t87 35q53 0 88 -35t35 -88 t-34.5 -88t-88 -35t-88.5 35t-35 90z" />
<glyph unicode="&#x117;" horiz-adv-x="1081" d="M98 397q0 274 129 459q141 205 394 205q203 0 299 -109q80 -88 79 -268q0 -72 -14 -158h-655q-12 -78 -13 -145q0 -154 64.5 -234.5t187.5 -80.5q135 0 275 86l39 -68q-96 -59 -176 -81.5t-187 -22.5q-201 0 -311.5 109t-110.5 308zM340 596h432l2 20q12 94 12 140 q0 238 -153 237q-104 0 -180 -102t-113 -295zM555 1386q0 51 36 86t87 35t87 -34.5t36 -88t-36 -88t-87 -34.5q-53 0 -88 34.5t-35 89.5z" />
<glyph unicode="&#x118;" horiz-adv-x="1163" d="M-20 0l12 68l164 6q16 72 69 379l78 505q41 264 53 385l-161 7l10 67h993l-57 -368h-166l24 290h-407q-29 -143 -66 -368l-34 -211h458l-12 -82h-459l-35 -221q-37 -238 -51 -379h441l69 291h170l-59 -369q-127 -72 -180.5 -133.5t-53.5 -134.5q0 -100 117 -101 q39 0 78 9v-60q-74 -27 -146 -26q-104 0 -162.5 45t-58.5 122q0 80 73 148t228 131h-929z" />
<glyph unicode="&#x119;" horiz-adv-x="1081" d="M98 397q0 274 129 459q141 205 394 205q203 0 299 -109q80 -88 79 -268q0 -72 -14 -158h-655q-12 -84 -13 -145q0 -156 64.5 -237t189.5 -81q137 0 273 89l39 -68q-111 -70 -213 -92q-123 -72 -172 -130.5t-49 -129.5q0 -100 116 -101q29 0 78 7v-58q-74 -27 -145 -26 q-104 0 -163 45t-59 122q0 141 250 256q-211 2 -319.5 109.5t-108.5 310.5zM342 596h430q14 96 14 160q0 238 -151 237q-106 0 -182 -102t-111 -295z" />
<glyph unicode="&#x11a;" horiz-adv-x="1163" d="M-20 0l10 68l164 6q23 96 30 151l41 228l78 505q33 213 51 385l-161 7l12 67h993l-59 -368h-166l24 290h-405q-23 -100 -68 -368l-32 -211h458l-14 -82h-457l-35 -221q-45 -301 -51 -379h441l69 291h168l-59 -369h-1032zM485 1792l39 51q178 -90 246 -188q96 96 315 188 l25 -51q-113 -72 -248 -260h-211q-82 190 -166 260z" />
<glyph unicode="&#x11b;" horiz-adv-x="1081" d="M98 397q0 274 129 459q141 205 394 205q203 0 299 -109q80 -88 79 -268q0 -72 -14 -158h-655q-12 -78 -13 -145q0 -154 64.5 -234.5t187.5 -80.5q135 0 275 86l39 -68q-96 -59 -176 -81.5t-187 -22.5q-201 0 -311.5 109t-110.5 308zM340 596h432l2 20q12 94 12 140 q0 238 -153 237q-104 0 -180 -102t-113 -295zM381 1487l39 51q182 -90 246 -188q41 43 131 96t184 92l25 -51q-113 -72 -248 -260h-211q-80 186 -166 260z" />
<glyph unicode="&#x11c;" horiz-adv-x="1439" d="M127 541q0 170 52 334.5t145 285.5q211 276 571 277q229 0 448 -99l-45 -290h-168l17 235q-109 74 -236 74q-252 0 -407 -268q-145 -252 -146 -596q0 -205 93.5 -320t261.5 -115q117 0 233 56l70 460l-160 7l12 67h531l-10 -67l-152 -7l-47 -292q-16 -102 -27 -213 q-248 -90 -456 -90q-272 0 -426 148.5t-154 412.5zM588 1561q113 72 248 260h211q80 -188 165 -260l-38 -52q-178 90 -246 189q-96 -96 -314 -189z" />
<glyph unicode="&#x11d;" horiz-adv-x="1228" d="M23 -375l47 236h166l-21 -201q74 -43 172 -43q94 0 167 42t108 114q47 96 81 329l13 68q-129 -143 -303 -143q-162 0 -257.5 105.5t-95.5 281.5q0 276 137.5 461.5t342.5 185.5q195 0 299 -166l28 156l355 -11l-11 -67l-143 -6q-27 -129 -78 -422l-69 -441 q-33 -211 -60 -287.5t-86 -135.5q-141 -141 -416 -142q-192 0 -376 86zM319 395q0 -125 49.5 -191.5t139.5 -66.5q131 0 268 156l76 485q-84 178 -219 178q-147 0 -240 -204q-74 -162 -74 -357zM416 1257q113 72 248 261h210q80 -188 166 -261l-39 -51q-176 88 -245 189 q-92 -92 -314 -189z" />
<glyph unicode="&#x11e;" horiz-adv-x="1439" d="M127 541q0 170 52 334.5t145 285.5q211 276 571 277q229 0 448 -99l-45 -290h-168l17 235q-109 74 -236 74q-252 0 -407 -268q-145 -252 -146 -596q0 -205 93.5 -320t261.5 -115q117 0 233 56l70 460l-160 7l12 67h531l-10 -67l-152 -7l-47 -292q-16 -102 -27 -213 q-248 -90 -456 -90q-272 0 -426 148.5t-154 412.5zM635 1776q0 27 6 65h74q0 -98 35 -133q49 -49 168 -49q111 0 168 42t85 140h74q-45 -307 -334 -307q-131 0 -203.5 63.5t-72.5 178.5z" />
<glyph unicode="&#x11f;" horiz-adv-x="1228" d="M23 -375l47 236h166l-21 -201q74 -43 172 -43q94 0 167 42t108 114q47 96 81 329l13 68q-129 -143 -303 -143q-162 0 -257.5 105.5t-95.5 281.5q0 276 137.5 461.5t342.5 185.5q195 0 299 -166l28 156l355 -11l-11 -67l-143 -6q-27 -129 -78 -422l-69 -441 q-33 -211 -60 -287.5t-86 -135.5q-141 -141 -416 -142q-192 0 -376 86zM319 395q0 -125 49.5 -191.5t139.5 -66.5q131 0 268 156l76 485q-84 178 -219 178q-147 0 -240 -204q-74 -162 -74 -357zM463 1460q0 23 6 66h72q2 -98 37 -133q49 -49 165 -50q113 0 171.5 42 t82.5 141h76q-41 -307 -336 -307q-129 0 -201.5 64t-72.5 177z" />
<glyph unicode="&#x120;" horiz-adv-x="1439" d="M127 541q0 170 52 334.5t145 285.5q211 276 571 277q229 0 448 -99l-45 -290h-168l17 235q-109 74 -236 74q-252 0 -407 -268q-145 -252 -146 -596q0 -205 93.5 -320t261.5 -115q117 0 233 56l70 460l-160 7l12 67h531l-10 -67l-152 -7l-47 -292q-16 -102 -27 -213 q-248 -90 -456 -90q-272 0 -426 148.5t-154 412.5zM801 1665q0 51 35.5 86t87 35t87.5 -35t36 -88t-36 -88t-87 -35q-53 0 -88 35t-35 90z" />
<glyph unicode="&#x121;" horiz-adv-x="1228" d="M23 -375l47 236h166l-21 -201q74 -43 172 -43q94 0 167 42t108 114q47 96 81 329l13 68q-129 -143 -303 -143q-162 0 -257.5 105.5t-95.5 281.5q0 276 137.5 461.5t342.5 185.5q195 0 299 -166l28 156l355 -11l-11 -67l-143 -6q-27 -129 -78 -422l-69 -441 q-33 -211 -60 -287.5t-86 -135.5q-141 -141 -416 -142q-192 0 -376 86zM319 395q0 -125 49.5 -191.5t139.5 -66.5q131 0 268 156l76 485q-84 178 -219 178q-147 0 -240 -204q-74 -162 -74 -357zM627 1386q0 51 35.5 86t87.5 35q53 0 87.5 -34.5t34.5 -88t-34.5 -88 t-88 -34.5t-88 34.5t-34.5 89.5z" />
<glyph unicode="&#x122;" horiz-adv-x="1439" d="M127 541q0 170 52 334.5t145 285.5q211 276 571 277q229 0 448 -99l-45 -290h-168l17 235q-109 74 -236 74q-252 0 -407 -268q-145 -252 -146 -596q0 -205 93.5 -320t261.5 -115q117 0 233 56l70 460l-160 7l12 67h531l-10 -67l-152 -7l-47 -292q-16 -102 -27 -213 q-248 -90 -456 -90q-272 0 -426 148.5t-154 412.5zM350 -397q231 166 250 321h141q37 0 37 -20q0 -92 -157 -217q-61 -47 -236 -144z" />
<glyph unicode="&#x123;" horiz-adv-x="1228" d="M23 -375l47 236h166l-21 -201q74 -43 172 -43q94 0 167 42t108 114q47 96 81 329l13 68q-129 -143 -303 -143q-162 0 -257.5 105.5t-95.5 281.5q0 276 137.5 461.5t342.5 185.5q195 0 299 -166l28 156l355 -11l-11 -67l-143 -6q-27 -129 -78 -422l-69 -441 q-33 -211 -60 -287.5t-86 -135.5q-141 -141 -416 -142q-192 0 -376 86zM319 395q0 -125 49.5 -191.5t139.5 -66.5q131 0 268 156l76 485q-84 178 -219 178q-147 0 -240 -204q-74 -162 -74 -357zM596 1227q0 25 50 74t120 92q123 74 262 133l31 -51q-172 -117 -250 -265h-180 q-33 1 -33 17z" />
<glyph unicode="&#x124;" horiz-adv-x="1533" d="M-20 0l10 68l166 6q14 63 69 393l72 444q55 360 59 432l-163 7l12 67h559l-10 -67l-164 -7l-74 -423l-24 -158h626l23 149q53 338 61 432l-160 7l11 67h561l-12 -67l-166 -7q-20 -104 -70 -401l-72 -455q-49 -313 -59 -413l164 -6l-10 -68h-562l11 68l163 6q18 82 70 393 l35 215h-627l-30 -195q-53 -369 -58 -413l160 -6l-10 -68h-561zM631 1561q113 72 248 260h211q80 -188 165 -260l-38 -52q-178 90 -246 189q-96 -96 -314 -189z" />
<glyph unicode="&#x125;" horiz-adv-x="1257" d="M111 0q72 397 84 471l92 584q37 254 47 368l-144 7l11 67l372 10l-30 -170l-27 -155l-18 -115l-31 -188q104 100 188 141t185 41q119 0 186.5 -67.5t67.5 -184.5q0 -55 -31 -264l-16 -103q-39 -270 -50 -368l142 -6l-13 -68h-368l80 438l22 152q25 145 25 192 q0 156 -133 156q-70 0 -151 -48t-152 -132l-43 -277q-55 -348 -68 -481h-227zM129 1628q113 72 248 260h211q80 -188 166 -260l-39 -51q-178 90 -246 188q-96 -96 -313 -188z" />
<glyph unicode="&#x126;" horiz-adv-x="1533" d="M-20 0l10 68l166 6q14 63 69 393l86 541h-176l12 77h177l18 142q8 53 14 116l-163 7l12 67h559l-10 -67l-164 -7l-47 -258h624q0 6 8 54l13 86q12 90 14 118l-160 7l11 67h561l-12 -67l-166 -7q-12 -49 -47 -258h176l-15 -77h-176l-80 -521q-53 -358 -59 -413l164 -6 l-10 -68h-562l11 68l163 6q18 82 70 393l35 215h-627l-30 -195q-53 -369 -58 -413l160 -6l-10 -68h-561zM492 762h626l37 246h-625z" />
<glyph unicode="&#x127;" horiz-adv-x="1257" d="M111 0l84 471l114 727h-157l12 78h153q8 55 17 149l-144 7l11 65l372 12q-4 -29 -11 -66.5t-11 -62.5q-10 -49 -19 -104h261l-13 -78h-262l-51 -319q104 100 188 141t185 41q117 0 185.5 -67.5t68.5 -184.5q0 -63 -31 -264l-16 -103q-27 -176 -33 -229q-8 -51 -17 -139 l142 -6l-13 -68h-368q29 127 80 438l22 152q25 150 25 192q0 156 -133 156q-70 0 -151 -48t-152 -132l-43 -277q-49 -324 -68 -481h-227z" />
<glyph unicode="&#x12a;" horiz-adv-x="694" d="M-16 0l10 68l166 6q23 100 69 393l72 444q55 356 59 432l-163 7l12 67h563l-10 -67l-168 -7l-70 -401l-71 -455q-49 -322 -58 -413l162 -6l-10 -68h-563zM205 1602l16 100h625l-17 -100h-624z" />
<glyph unicode="&#x12b;" horiz-adv-x="610" d="M74 1323l16 100h625l-17 -100h-624zM111 0q29 131 79 453l23 141q45 328 49 373l-139 6l12 67l369 11q-41 -201 -80 -439l-23 -153q-53 -340 -63 -459h-227z" />
<glyph unicode="&#x12d;" horiz-adv-x="610" d="M111 0q27 117 79 453l23 141q45 326 51 373l-139 6l10 67l369 11q-39 -203 -80 -439l-23 -153q-55 -371 -63 -459h-227zM133 1460q0 23 6 66h72q2 -98 37 -133q49 -49 166 -50q113 0 171 42t83 141h75q-41 -307 -335 -307q-129 0 -202 64t-73 177z" />
<glyph unicode="&#x12e;" horiz-adv-x="694" d="M-16 0l10 68l164 6q20 82 71 393l70 444q53 344 61 432l-163 7l10 67h563l-10 -67l-166 -7l-12 -67l-13 -64q-37 -219 -47 -270l-69 -455q-31 -184 -60 -413l164 -6l-10 -68q-127 -72 -180.5 -133.5t-53.5 -134.5q0 -100 117 -101q37 0 78 9v-60q-74 -27 -146 -26 q-104 0 -162.5 45t-58.5 122q0 80 73 146.5t228 132.5h-458z" />
<glyph unicode="&#x12f;" horiz-adv-x="610" d="M-68 -279q0 80 73 146.5t228 132.5h-122q16 86 79 453l23 141q39 272 49 373l-139 6l12 67l369 11q-20 -100 -35 -183q-18 -98 -23 -131q-16 -74 -22 -125l-23 -153q-41 -258 -63 -459q-127 -72 -180.5 -133.5t-53.5 -134.5q0 -100 117 -101q39 0 78 9v-60 q-74 -27 -145 -26q-104 0 -163 44.5t-59 122.5zM317 1389q0 53 36 88.5t89.5 35.5t89 -34.5t35.5 -87.5q0 -55 -34.5 -91t-90 -36t-90.5 35t-35 90z" />
<glyph unicode="&#x130;" horiz-adv-x="694" d="M-16 0l10 68l166 6q23 100 69 393l72 444q55 356 59 432l-163 7l12 67h563l-10 -67l-168 -7l-70 -401l-71 -455q-49 -322 -58 -413l162 -6l-10 -68h-563zM406 1665q0 51 35.5 86t86.5 35q53 0 88 -35t35 -88t-34.5 -88t-88 -35t-88 35t-34.5 90z" />
<glyph unicode="&#x131;" horiz-adv-x="610" d="M111 0q27 117 79 453l23 141q45 326 51 373l-139 6l10 67l369 11q-39 -203 -80 -439l-23 -153q-55 -371 -63 -459h-227z" />
<glyph unicode="&#x134;" horiz-adv-x="700" d="M-231 -190l16 75q29 -2 51 -2q80 0 156 35t117 88q70 92 114 373l90 579q41 254 54 385l-166 7l12 67h565l-10 -67l-166 -7q-45 -238 -65 -370l-93 -580q-41 -254 -92 -340q-68 -117 -196.5 -182.5t-292.5 -65.5q-4 1 -94 5zM193 1561q113 72 247 260h211 q80 -188 166 -260l-39 -52q-178 90 -246 189q-96 -96 -313 -189z" />
<glyph unicode="&#x135;" horiz-adv-x="610" d="M-244 -440l15 65q156 -2 237 88q45 51 70.5 136t60.5 298l72 451q27 170 51 369l-153 6l10 67l383 11q-53 -270 -90 -506l-66 -406q-33 -201 -57.5 -282.5t-69.5 -143.5q-123 -160 -377 -159q-37 0 -86 6zM59 1257q113 72 248 261h211q80 -188 166 -261l-39 -51 q-176 88 -246 189q-92 -92 -313 -189z" />
<glyph unicode="&#x136;" horiz-adv-x="1302" d="M-20 0l10 68l166 6q33 152 69 393l72 444q53 350 59 432l-163 7l12 67h559l-10 -67l-164 -7q-23 -127 -27 -151q-25 -131 -43 -250l-28 -188l454 409q131 115 199 180l-162 7l10 67h426l-10 -67l-104 -7q-2 0 -95 -79l-84 -70l-51 -45l-24 -21l-369 -327l344 -543 q100 -154 125 -184l102 -6l-12 -68h-496l11 68h125l-398 641l-34 -222q-53 -371 -58 -413l154 -6l-10 -68h-555zM303 -397q231 166 250 321h141q37 0 37 -20q0 -92 -158 -217q-61 -47 -235 -144z" />
<glyph unicode="&#x137;" horiz-adv-x="1140" d="M111 0l84 471l88 563q45 287 55 389l-141 7l10 67l368 10q-25 -123 -81 -456l-72 -461l330 254q119 90 147 123l-131 6l10 67h385l-12 -67l-86 -6l-25 -16l-28 -18q-14 -9 -33 -24l-80 -57l-80 -59l-207 -168l195 -334q109 -186 133 -213l113 -10l-11 -68h-321 q-18 47 -92 184l-213 377l-21 -137q-49 -324 -57 -424h-227zM184 -397q231 166 250 321h141q37 0 37 -20q0 -92 -157 -217q-61 -47 -236 -144z" />
<glyph unicode="&#x139;" horiz-adv-x="1140" d="M-20 0l10 68l166 6q20 90 69 393l72 444q55 354 59 432l-163 7l12 67h575l-10 -67l-180 -7q-4 -25 -12 -69l-15 -82q-35 -180 -43 -250l-71 -453q-47 -315 -58 -411h426l70 295h168l-60 -373h-1015zM391 1556q80 53 152.5 126t111.5 139h181q31 0 30 -15q0 -25 -52 -75 t-124 -93q-119 -70 -270 -133z" />
<glyph unicode="&#x13a;" horiz-adv-x="602" d="M104 0q14 70 19 86q55 307 67 385l89 571q35 217 53 381l-139 7l10 67l366 10l-92 -532l-78 -498q-47 -299 -65 -477h-230zM319 1645q80 51 153 124.5t112 139.5h180q31 0 31 -15q0 -25 -52.5 -75t-124.5 -93q-119 -70 -270 -133z" />
<glyph unicode="&#x13b;" horiz-adv-x="1140" d="M-20 0l10 68l166 6q20 90 69 393l72 444q55 354 59 432l-163 7l12 67h575l-10 -67l-180 -7q-4 -25 -12 -69l-15 -82q-35 -180 -43 -250l-71 -453q-47 -315 -58 -411h426l70 295h168l-60 -373h-1015zM201 -397q231 166 250 321h141q37 0 37 -20q0 -92 -158 -217 q-61 -47 -235 -144z" />
<glyph unicode="&#x13c;" horiz-adv-x="602" d="M-117 -397q231 166 250 321h141q37 0 37 -20q0 -92 -157 -217q-61 -47 -236 -144zM104 0q14 70 19 86q57 305 67 385l91 571q25 158 53 381l-141 7l10 67l366 10l-92 -532l-76 -498q-53 -336 -67 -477h-230z" />
<glyph unicode="&#x13d;" horiz-adv-x="1140" d="M-20 0l10 68l166 6q20 90 69 393l72 444q55 354 59 432l-163 7l12 67h575l-10 -67l-180 -7q-4 -25 -12 -69l-15 -82q-35 -180 -43 -250l-71 -453q-47 -315 -58 -411h426l70 295h168l-60 -373h-1015zM825 991q143 141 176 271q-113 25 -112 120q0 59 39 97.5t96 38.5 q61 0 100 -40t39 -104q0 -164 -284 -430z" />
<glyph unicode="&#x13e;" horiz-adv-x="798" d="M104 0q14 70 19 86q55 307 67 385l89 571q35 217 53 381l-139 7l10 67l366 10l-92 -532l-78 -498q-47 -299 -65 -477h-230zM625 991q143 141 176 271q-113 25 -113 120q0 59 39 97.5t96 38.5q61 0 100.5 -40t39.5 -104q0 -164 -285 -430z" />
<glyph unicode="&#x141;" horiz-adv-x="1140" d="M-20 0l10 68l166 6l69 379l25 176l-209 -148l16 107l211 147l35 223q27 166 53 385l-163 7l12 67h567l-10 -67l-168 -7q-16 -68 -70 -370l-10 -76l260 182l-16 -104l-262 -184l-52 -334q-37 -227 -51 -379h426l68 295h168l-60 -373h-1015z" />
<glyph unicode="&#x142;" horiz-adv-x="610" d="M23 498l16 108l197 142l49 301q43 289 47 368l-137 4l10 68l368 10l-63 -354q-4 -16 -9 -45t-7 -43l-23 -150l199 144l-19 -109l-196 -143l-54 -340q-6 -49 -17 -116t-19 -130l-17 -123q-8 -47 -12 -90h-227q51 236 84 467l26 172z" />
<glyph unicode="&#x143;" horiz-adv-x="1482" d="M-14 0l10 68l160 6q23 104 69 389l82 518q45 279 51 362l-157 7l10 67h405q31 -92 125 -280l379 -818l101 648q4 20 20 135l31 241l-156 7l10 67h433l-11 -67l-157 -7q-20 -82 -76 -413l-148 -930h-151q-14 47 -76 182l-43 88l-451 967l-116 -748q-35 -211 -58 -415 l156 -6l-12 -68h-430zM791 1556q80 53 152.5 126t111.5 139h180q31 0 31 -15q0 -25 -52.5 -75t-123.5 -93q-119 -70 -271 -133z" />
<glyph unicode="&#x144;" horiz-adv-x="1257" d="M109 0q29 139 86 471l20 139q35 213 43 357l-135 6l12 67l346 11l-20 -179q117 109 197.5 149t181.5 40q117 0 184.5 -67.5t67.5 -182.5q0 -74 -31 -274l-17 -95q-37 -256 -45 -368l138 -6l-11 -68h-358l68 438l16 105q29 176 29 241q0 154 -131 154q-135 0 -301 -178 l-43 -279q-53 -332 -70 -481h-227zM616 1253q80 53 153 126t112 139h180q31 0 31 -15q0 -25 -52.5 -75t-124.5 -93q-119 -70 -270 -133z" />
<glyph unicode="&#x145;" horiz-adv-x="1482" d="M-14 0l10 68l160 6q23 104 69 389l82 518q45 279 51 362l-157 7l10 67h405q31 -92 125 -280l379 -818l101 648q4 20 20 135l31 241l-156 7l10 67h433l-11 -67l-157 -7q-20 -82 -76 -413l-148 -930h-151q-14 47 -76 182l-43 88l-451 967l-116 -748q-35 -211 -58 -415 l156 -6l-12 -68h-430zM360 -397q231 166 250 321h142q37 0 36 -20q0 -92 -157 -217q-61 -47 -236 -144z" />
<glyph unicode="&#x146;" horiz-adv-x="1257" d="M109 0q29 139 86 471l20 139q35 213 43 357l-135 6l12 67l346 11l-20 -179q117 109 197.5 149t181.5 40q117 0 184.5 -67.5t67.5 -182.5q0 -74 -31 -274l-17 -95q-37 -256 -45 -368l138 -6l-11 -68h-358l68 438l16 105q29 176 29 241q0 154 -131 154q-135 0 -301 -178 l-43 -279q-53 -332 -70 -481h-227zM236 -397q231 166 249 321h142q37 0 37 -20q0 -92 -158 -217q-61 -47 -236 -144z" />
<glyph unicode="&#x147;" horiz-adv-x="1482" d="M-14 0l10 68l160 6q23 104 69 389l82 518q45 279 51 362l-157 7l10 67h405q31 -92 125 -280l379 -818l101 648q4 20 20 135l31 241l-156 7l10 67h433l-11 -67l-157 -7q-20 -82 -76 -413l-148 -930h-151q-14 47 -76 182l-43 88l-451 967l-116 -748q-35 -211 -58 -415 l156 -6l-12 -68h-430zM643 1792l39 51q178 -90 246 -188q96 96 315 188l25 -51q-113 -72 -248 -260h-211q-82 190 -166 260z" />
<glyph unicode="&#x148;" horiz-adv-x="1257" d="M109 0q29 139 86 471l20 139q35 213 43 357l-135 6l12 67l346 11l-20 -179q117 109 197.5 149t181.5 40q117 0 184.5 -67.5t67.5 -182.5q0 -74 -31 -274l-17 -95q-37 -256 -45 -368l138 -6l-11 -68h-358l68 438l16 105q29 176 29 241q0 154 -131 154q-135 0 -301 -178 l-43 -279q-53 -332 -70 -481h-227zM461 1487l39 51q182 -90 245 -188q41 43 131.5 96t184.5 92l24 -51q-113 -72 -247 -260h-211q-80 186 -166 260z" />
<glyph unicode="&#x14c;" horiz-adv-x="1490" d="M129 578q0 158 52 317.5t145 278.5q203 264 544 264q256 0 396 -146q156 -160 155 -440q0 -350 -196 -604q-205 -268 -545 -268q-262 0 -406.5 156.5t-144.5 441.5zM358 502q0 -223 81 -338t239 -115q248 0 387 287q57 117 92 278.5t35 309.5q0 217 -81 330.5t-237 113.5 q-236 0 -380 -274q-59 -111 -97.5 -278t-38.5 -314zM606 1602l17 100h624l-16 -100h-625z" />
<glyph unicode="&#x14d;" horiz-adv-x="1181" d="M98 410q0 127 41 252.5t111 211.5q150 186 409 187q205 0 315.5 -109.5t110.5 -310.5q0 -276 -145 -469q-150 -193 -418 -192q-207 0 -315.5 110.5t-108.5 319.5zM317 354q0 -307 203 -307q172 0 264 223q80 190 80 420q0 303 -202 303q-164 0 -256 -205 q-89 -192 -89 -434zM393 1323l17 100h624l-16 -100h-625z" />
<glyph unicode="&#x150;" horiz-adv-x="1490" d="M129 578q0 158 52 317.5t145 278.5q203 264 544 264q256 0 396 -146q156 -160 155 -440q0 -350 -196 -604q-205 -268 -545 -268q-262 0 -406.5 156.5t-144.5 441.5zM358 502q0 -223 81 -338t239 -115q248 0 387 287q57 117 92 278.5t35 309.5q0 217 -81 330.5t-237 113.5 q-236 0 -380 -274q-59 -111 -97.5 -278t-38.5 -314zM639 1556q184 147 223 265h168q37 0 37 -21q0 -25 -42 -71t-97 -82q-123 -82 -256 -142zM969 1556q180 143 223 265h168q37 0 37 -21q0 -25 -42 -71t-98 -82q-123 -82 -256 -142z" />
<glyph unicode="&#x151;" horiz-adv-x="1181" d="M98 410q0 127 41 252.5t111 211.5q150 186 409 187q205 0 315.5 -109.5t110.5 -310.5q0 -276 -145 -469q-150 -193 -418 -192q-207 0 -315.5 110.5t-108.5 319.5zM317 354q0 -307 203 -307q172 0 264 223q80 190 80 420q0 303 -202 303q-164 0 -256 -205 q-89 -192 -89 -434zM451 1253q184 147 223 265h168q37 0 37 -21q0 -25 -42 -71t-98 -83q-123 -82 -256 -141zM780 1253q180 143 224 265h167q37 0 37 -21q0 -25 -42 -71t-97 -83q-123 -82 -256 -141z" />
<glyph unicode="&#x152;" horiz-adv-x="1859" d="M129 569q0 219 84 405.5t236 301.5q106 80 228 110.5t339 30.5h880l-59 -368h-164l23 290h-406q-27 -121 -67 -368l-33 -211h459l-13 -82h-460l-33 -221q-37 -236 -51 -379h440l70 291h167l-59 -369h-788q-264 0 -380 21.5t-206 87.5q-207 153 -207 460zM358 514 q0 -289 166 -383q92 -53 277 -53h51q16 74 31 151l18 101q8 45 11 64.5t7 34.5l5 26l77 501q37 238 52 383h-43q-178 0 -283.5 -41t-183.5 -141q-82 -102 -133.5 -281.5t-51.5 -361.5z" />
<glyph unicode="&#x153;" horiz-adv-x="1822" d="M98 403q0 133 40 259t110 215q152 184 407 184q236 0 353 -164q143 164 358 164q197 0 293 -109q80 -88 80 -268q0 -72 -15 -158h-655q-10 -106 -10 -145q0 -154 64.5 -234.5t187.5 -80.5q137 0 272 86l39 -68q-164 -104 -358 -104q-236 0 -353 167q-82 -90 -173 -128.5 t-216 -38.5q-205 0 -314.5 109t-109.5 314zM317 354q0 -307 203 -307q172 0 264 221q80 195 80 422q0 303 -202 303q-164 0 -256 -205q-89 -201 -89 -434zM1081 596h432q12 113 13 160q0 238 -152 237q-106 0 -182 -103.5t-111 -293.5z" />
<glyph unicode="&#x154;" horiz-adv-x="1243" d="M-20 0l10 68l164 6q33 154 73 397l76 487q29 193 51 385l-161 7l12 67h506q246 0 358.5 -74.5t112.5 -236.5q0 -170 -100.5 -271.5t-288.5 -119.5q133 -20 180 -97t59 -301l21 -243l121 -6l-11 -68h-325l-17 227q-14 246 -59 346q-43 98 -221 99h-64l-28 -191 q-43 -274 -56 -407l160 -6l-10 -68h-563zM489 748h62q203 0 295 90q106 100 106 272q0 121 -72.5 176t-234.5 55h-55l-29 -149l-37 -221zM621 1556q80 53 152.5 126t111.5 139h180q31 0 31 -15q0 -25 -52.5 -75t-123.5 -93q-119 -70 -271 -133z" />
<glyph unicode="&#x155;" horiz-adv-x="862" d="M111 0l82 455l22 143q37 291 43 369l-133 6l10 67l344 11l-24 -191q104 195 303 195q78 0 157 -23l-53 -287h-166l15 207q-8 2 -23 2q-92 0 -167 -113.5t-105 -303.5l-13 -74q-57 -371 -65 -463h-227zM469 1253q80 53 152.5 126t111.5 139h180q31 0 31 -15q0 -25 -52 -75 t-124 -93q-119 -70 -270 -133z" />
<glyph unicode="&#x156;" horiz-adv-x="1243" d="M-20 0l10 68l164 6q33 154 73 397l76 487q29 193 51 385l-161 7l12 67h506q246 0 358.5 -74.5t112.5 -236.5q0 -170 -100.5 -271.5t-288.5 -119.5q133 -20 180 -97t59 -301l21 -243l121 -6l-11 -68h-325l-17 227q-14 246 -59 346q-43 98 -221 99h-64l-28 -191 q-43 -274 -56 -407l160 -6l-10 -68h-563zM319 -397q231 166 250 321h142q37 0 37 -20q0 -92 -158 -217q-61 -47 -236 -144zM489 748h62q203 0 295 90q106 100 106 272q0 121 -72.5 176t-234.5 55h-55l-29 -149l-37 -221z" />
<glyph unicode="&#x157;" horiz-adv-x="862" d="M-98 -397q231 166 250 321h141q37 0 37 -20q0 -92 -158 -217q-61 -47 -235 -144zM109 0q37 182 81 455l23 143q37 289 43 369l-133 6l10 67l344 11l-24 -191q104 195 305 195q76 0 155 -23l-53 -287h-166l15 207q-8 2 -23 2q-92 0 -167 -113.5t-105 -303.5l-13 -74 q-55 -362 -65 -463h-227z" />
<glyph unicode="&#x158;" horiz-adv-x="1243" d="M-20 0l10 68l164 6q33 154 73 397l76 487q29 193 51 385l-161 7l12 67h506q246 0 358.5 -74.5t112.5 -236.5q0 -170 -100.5 -271.5t-288.5 -119.5q133 -20 180 -97t59 -301l21 -243l121 -6l-11 -68h-325l-17 227q-14 246 -59 346q-43 98 -221 99h-64l-28 -191 q-43 -274 -56 -407l160 -6l-10 -68h-563zM438 1792l39 51q178 -90 246 -188q96 96 315 188l25 -51q-113 -72 -248 -260h-211q-82 190 -166 260zM489 748h62q203 0 295 90q106 100 106 272q0 121 -72.5 176t-234.5 55h-55l-29 -149l-37 -221z" />
<glyph unicode="&#x159;" horiz-adv-x="862" d="M111 0l82 455l22 143q37 291 43 369l-133 6l10 67l344 11l-24 -191q104 195 303 195q78 0 157 -23l-53 -287h-166l15 207q-8 2 -23 2q-92 0 -167 -113.5t-105 -303.5l-13 -74q-57 -371 -65 -463h-227zM299 1487l39 51q182 -90 246 -188q41 43 131 96t184 92l25 -51 q-113 -72 -248 -260h-211q-80 186 -166 260z" />
<glyph unicode="&#x15a;" horiz-adv-x="1099" d="M47 66l45 307h168l-16 -256q96 -68 211 -68q141 0 233 84t92 215q0 102 -59 162q-29 29 -64.5 52.5t-162.5 92.5q-176 96 -242 179.5t-66 207.5q0 178 135.5 288t356.5 110q217 0 389 -99l-45 -292h-166l18 251q-76 70 -190 70q-123 0 -207 -80t-84 -194 q0 -88 51.5 -143.5t206.5 -137.5q199 -104 268.5 -186t69.5 -213q0 -190 -141 -316q-135 -121 -373 -120q-225 0 -428 86zM584 1556q80 53 152.5 126t111.5 139h180q31 0 31 -15q0 -25 -52.5 -75t-123.5 -93q-119 -70 -271 -133z" />
<glyph unicode="&#x15b;" horiz-adv-x="948" d="M31 47l45 252h164l-15 -203q72 -47 168 -47q104 0 171 60.5t67 156.5q0 72 -47 107q-25 18 -168 71q-158 57 -221.5 121t-63.5 166q0 150 113.5 241t298.5 91q178 0 325 -68l-45 -250h-159l14 209q-61 39 -148 39q-96 0 -160.5 -58t-64.5 -147q0 -63 42 -97t190 -87 q160 -57 208 -100q76 -66 76 -189q0 -156 -115.5 -245.5t-314.5 -89.5q-180 -1 -360 67zM475 1253q80 53 152.5 126t111.5 139h181q31 0 30 -15q0 -25 -52 -75t-124 -93q-119 -70 -270 -133z" />
<glyph unicode="&#x15c;" horiz-adv-x="1099" d="M47 66l45 307h168l-16 -256q96 -68 211 -68q141 0 233 84t92 215q0 102 -59 162q-29 29 -64.5 52.5t-162.5 92.5q-176 96 -242 179.5t-66 207.5q0 178 135.5 288t356.5 110q217 0 389 -99l-45 -292h-166l18 251q-76 70 -190 70q-123 0 -207 -80t-84 -194 q0 -88 51.5 -143.5t206.5 -137.5q199 -104 268.5 -186t69.5 -213q0 -190 -141 -316q-135 -121 -373 -120q-225 0 -428 86zM397 1561q113 72 248 260h211q80 -188 166 -260l-39 -52q-178 90 -246 189q-96 -96 -313 -189z" />
<glyph unicode="&#x15d;" horiz-adv-x="948" d="M31 47l45 252h164l-15 -203q72 -47 168 -47q104 0 171 60.5t67 156.5q0 72 -47 107q-25 18 -168 71q-158 57 -221.5 121t-63.5 166q0 150 113.5 241t298.5 91q178 0 325 -68l-45 -250h-159l14 209q-61 39 -148 39q-96 0 -160.5 -58t-64.5 -147q0 -63 42 -97t190 -87 q160 -57 208 -100q76 -66 76 -189q0 -156 -115.5 -245.5t-314.5 -89.5q-180 -1 -360 67zM279 1257q113 72 247 261h211q80 -188 166 -261l-39 -51q-176 88 -246 189q-92 -92 -313 -189z" />
<glyph unicode="&#x15e;" horiz-adv-x="1099" d="M47 66l45 307h168l-16 -256q96 -68 211 -68q141 0 233 84t92 215q0 102 -59 162q-29 29 -64.5 52.5t-162.5 92.5q-176 96 -242 179.5t-66 207.5q0 178 135.5 288t356.5 110q217 0 389 -99l-45 -292h-166l18 251q-76 70 -190 70q-123 0 -207 -80t-84 -194 q0 -88 51.5 -143.5t206.5 -137.5q199 -104 268.5 -186t69.5 -213q0 -190 -141 -316q-135 -121 -373 -120q-225 0 -428 86zM160 -397q231 166 250 321h141q37 0 37 -20q0 -92 -158 -217q-61 -47 -235 -144z" />
<glyph unicode="&#x15f;" horiz-adv-x="948" d="M31 47l45 252h164l-15 -203q72 -47 168 -47q104 0 171 60.5t67 156.5q0 72 -47 107q-25 18 -168 71q-158 57 -221.5 121t-63.5 166q0 150 113.5 241t298.5 91q178 0 325 -68l-45 -250h-159l14 209q-61 39 -148 39q-96 0 -160.5 -58t-64.5 -147q0 -63 42 -97t190 -87 q160 -57 208 -100q76 -66 76 -189q0 -156 -115.5 -245.5t-314.5 -89.5q-180 -1 -360 67zM80 -397q231 166 250 321h141q37 0 37 -20q0 -92 -158 -217q-61 -47 -235 -144z" />
<glyph unicode="&#x160;" horiz-adv-x="1099" d="M47 66l45 307h168l-16 -256q96 -68 211 -68q141 0 233 84t92 215q0 102 -59 162q-29 29 -64.5 52.5t-162.5 92.5q-176 96 -242 179.5t-66 207.5q0 178 135.5 288t356.5 110q217 0 389 -99l-45 -292h-166l18 251q-76 70 -190 70q-123 0 -207 -80t-84 -194 q0 -88 51.5 -143.5t206.5 -137.5q199 -104 268.5 -186t69.5 -213q0 -190 -141 -316q-135 -121 -373 -120q-225 0 -428 86zM455 1792l39 51q178 -90 245 -188q96 96 316 188l24 -51q-113 -72 -248 -260h-210q-82 190 -166 260z" />
<glyph unicode="&#x161;" horiz-adv-x="948" d="M31 47l45 252h164l-15 -203q72 -47 168 -47q104 0 171 60.5t67 156.5q0 72 -47 107q-25 18 -168 71q-158 57 -221.5 121t-63.5 166q0 150 113.5 241t298.5 91q178 0 325 -68l-45 -250h-159l14 209q-61 39 -148 39q-96 0 -160.5 -58t-64.5 -147q0 -63 42 -97t190 -87 q160 -57 208 -100q76 -66 76 -189q0 -156 -115.5 -245.5t-314.5 -89.5q-180 -1 -360 67zM315 1487l39 51q182 -90 246 -188q41 43 131 96t184 92l25 -51q-113 -72 -248 -260h-211q-80 186 -166 260z" />
<glyph unicode="&#x163;" horiz-adv-x="702" d="M-4 -397q231 166 250 321h141q37 0 37 -20q0 -92 -158 -217q-61 -47 -235 -144zM106 973l11 67h39q131 0 195.5 58.5t111.5 220.5h74l-45 -279h245l-12 -67h-246l-104 -666q-14 -94 -15 -131q0 -104 107 -104q49 0 129 32l20 -61q-115 -63 -229.5 -63t-173.5 52t-59 152 q0 47 16 150l100 639h-164z" />
<glyph unicode="&#x164;" horiz-adv-x="1185" d="M106 1049l60 368h1141l-60 -368h-164l23 290h-264q-37 -188 -72 -401l-72 -451q-47 -315 -57 -413l184 -6l-10 -68h-608l10 68l189 6l73 411l68 439q47 297 57 415h-264l-68 -290h-166zM469 1792l39 51q178 -90 246 -188q96 96 315 188l25 -51q-113 -72 -248 -260h-211 q-82 190 -166 260z" />
<glyph unicode="&#x165;" horiz-adv-x="835" d="M106 973l11 67h39q131 0 195.5 58.5t111.5 220.5h74l-45 -279h245l-10 -67h-248l-104 -666q-14 -90 -15 -131q0 -104 107 -104q53 0 129 32l20 -61q-119 -63 -229 -63q-115 0 -174 52t-59 152q0 39 16 150l100 639h-164zM662 1137q143 141 176 270q-113 25 -113 121 q0 57 39 96t96 39q61 0 100 -40t39 -103q0 -164 -284 -430z" />
<glyph unicode="&#x16a;" horiz-adv-x="1466" d="M193 1350l10 67h563l-10 -67l-166 -7l-66 -370l-65 -410q-25 -176 -25 -254q0 -119 70.5 -183.5t202.5 -64.5q221 0 340 168q61 88 102 342l61 396q31 193 52 376l-156 7l10 67h432l-10 -67l-160 -7l-6 -26l-31 -168l-22 -130q-8 -46 -12 -63l-64 -417 q-23 -152 -53.5 -235t-83.5 -148q-150 -176 -426 -176q-225 0 -345 89t-120 259q0 61 33 280l55 350q45 279 53 385zM625 1602l16 100h625l-17 -100h-624z" />
<glyph unicode="&#x16b;" horiz-adv-x="1257" d="M121 973l10 67l369 11q-66 -354 -78 -435l-27 -170q-20 -127 -20 -198q0 -158 129 -158q141 0 305 193l109 682l-148 8l10 67l369 11q-6 -41 -15 -89l-18 -94q-25 -129 -45 -250l-31 -190l-12 -94q-2 -23 -7 -64l-7 -57l-15 -139l142 -6l-11 -68h-354l21 168 q-106 -106 -189.5 -147t-185.5 -41q-121 0 -189.5 67.5t-68.5 185.5q0 66 31 263l16 102q33 221 51 369zM414 1323l16 100h625l-17 -100h-624z" />
<glyph unicode="&#x16d;" horiz-adv-x="1257" d="M121 973l10 67l369 11q-66 -354 -78 -435l-27 -170q-20 -127 -20 -198q0 -158 129 -158q141 0 305 193l109 682l-148 8l10 67l369 11q-6 -41 -15 -89l-18 -94q-25 -129 -45 -250l-31 -190l-12 -94q-2 -23 -7 -64l-7 -57l-15 -139l142 -6l-11 -68h-354l21 168 q-106 -106 -189.5 -147t-185.5 -41q-121 0 -189.5 67.5t-68.5 185.5q0 66 31 263l16 102q33 221 51 369zM453 1460q0 23 6 66h71q2 -98 37 -133q49 -49 166 -50q113 0 171.5 42t82.5 141h76q-41 -307 -336 -307q-129 0 -201.5 64t-72.5 177z" />
<glyph unicode="&#x16e;" horiz-adv-x="1466" d="M193 1350l10 67h563l-10 -67l-166 -7l-66 -370l-65 -410q-25 -176 -25 -254q0 -119 70.5 -183.5t202.5 -64.5q221 0 340 168q61 88 102 342l61 396q31 193 52 376l-156 7l10 67h432l-10 -67l-160 -7l-6 -26l-31 -168l-22 -130q-8 -46 -12 -63l-64 -417 q-23 -152 -53.5 -235t-83.5 -148q-150 -176 -426 -176q-225 0 -345 89t-120 259q0 61 33 280l55 350q45 279 53 385zM743 1673q0 86 60.5 144.5t148.5 58.5q90 0 148.5 -58.5t58.5 -146.5t-58.5 -146.5t-148.5 -58.5q-92 0 -150.5 58.5t-58.5 148.5zM836 1673 q0 -59 31.5 -94t84.5 -35q51 0 83 35t32 92.5t-31.5 92t-85.5 34.5q-51 0 -82.5 -35t-31.5 -90z" />
<glyph unicode="&#x16f;" horiz-adv-x="1257" d="M121 973l10 67l369 11q-66 -354 -78 -435l-27 -170q-20 -127 -20 -198q0 -158 129 -158q141 0 305 193l109 682l-148 8l10 67l369 11q-6 -41 -15 -89l-18 -94q-25 -129 -45 -250l-31 -190l-12 -94q-2 -23 -7 -64l-7 -57l-15 -139l142 -6l-11 -68h-354l21 168 q-106 -106 -189.5 -147t-185.5 -41q-121 0 -189.5 67.5t-68.5 185.5q0 66 31 263l16 102q33 221 51 369zM502 1368q0 86 60.5 144.5t148.5 58.5q90 0 148.5 -58.5t58.5 -146.5t-58.5 -146.5t-148.5 -58.5q-92 0 -150.5 58.5t-58.5 148.5zM594 1368q0 -59 31.5 -94t85.5 -35 q51 0 82.5 35t31.5 92t-31.5 92t-84.5 35q-51 0 -83 -35t-32 -90z" />
<glyph unicode="&#x170;" horiz-adv-x="1466" d="M193 1350l10 67h563l-10 -67l-166 -7l-66 -370l-65 -410q-25 -176 -25 -254q0 -119 70.5 -183.5t202.5 -64.5q221 0 340 168q61 88 102 342l61 396q31 193 52 376l-156 7l10 67h432l-10 -67l-160 -7l-6 -26l-31 -168l-22 -130q-8 -46 -12 -63l-64 -417 q-23 -152 -53.5 -235t-83.5 -148q-150 -176 -426 -176q-225 0 -345 89t-120 259q0 61 33 280l55 350q45 279 53 385zM672 1556q184 147 223 265h168q37 0 37 -21q0 -25 -42 -71t-97 -82q-123 -82 -256 -142zM1001 1556q180 143 224 265h168q37 0 37 -21q0 -25 -42 -71 t-98 -82q-123 -82 -256 -142z" />
<glyph unicode="&#x171;" horiz-adv-x="1257" d="M121 973l10 67l369 11q-66 -354 -78 -435l-27 -170q-20 -127 -20 -198q0 -158 129 -158q141 0 305 193l109 682l-148 8l10 67l369 11q-6 -41 -15 -89l-18 -94q-25 -129 -45 -250l-31 -190l-12 -94q-2 -23 -7 -64l-7 -57l-15 -139l142 -6l-11 -68h-354l21 168 q-106 -106 -189.5 -147t-185.5 -41q-121 0 -189.5 67.5t-68.5 185.5q0 66 31 263l16 102q33 221 51 369zM442 1253q184 147 224 265h168q37 0 36 -21q0 -25 -42 -71t-97 -83q-123 -82 -256 -141zM772 1253q180 143 223 265h168q37 0 37 -21q0 -25 -42 -71t-97 -83 q-123 -82 -256 -141z" />
<glyph unicode="&#x172;" horiz-adv-x="1466" d="M193 1350l12 67h563l-10 -67l-166 -7q-4 -20 -14 -79l-15 -70q-33 -182 -39 -221l-63 -410q-25 -154 -25 -254q0 -119 71 -183.5t202 -64.5q223 0 338 168q66 88 102 342l63 396q39 260 50 376l-156 7l10 67h432l-10 -67l-160 -7l-24 -135l-33 -170l-8 -55l-4 -27 l-66 -417q-31 -242 -124 -369t-275 -174q-129 -78 -176 -134.5t-47 -129.5q0 -100 116 -101q39 0 78 9v-60q-74 -27 -145 -26q-104 0 -162.5 45t-58.5 122q0 147 249 259q-184 2 -288 47q-193 84 -193 301q0 66 31 280l55 350q49 319 53 385z" />
<glyph unicode="&#x173;" horiz-adv-x="1257" d="M121 973l12 67l369 11l-17 -88l-18 -95q-12 -53 -27 -147q-12 -70 -16 -105l-29 -167q-20 -125 -20 -201q0 -158 131 -158q139 0 305 193l107 682l-148 8l10 67l371 11q-68 -365 -78 -430l-31 -191q-8 -45 -16 -125q-27 -229 -27 -231l144 -6l-10 -66 q-131 -76 -182.5 -134t-51.5 -134q0 -100 117 -101q43 0 78 9v-60q-74 -27 -146 -26q-104 0 -162.5 44t-58.5 124q0 158 299 276h-248l21 168q-109 -106 -192 -147t-185 -41q-121 0 -189.5 67.5t-68.5 185.5q0 61 31 263l16 102q25 156 51 369z" />
<glyph unicode="&#x174;" horiz-adv-x="1828" d="M133 1350l10 67h506l-10 -67l-154 -7q2 -94 25 -399l57 -582l324 709l49 107q82 170 107 239h127q10 -131 43 -334l106 -731l252 613q129 319 145 378l-147 7l10 67h402l-13 -67l-119 -7q-18 -43 -20 -47q-14 -35 -47 -100l-103 -229l-239 -559q-135 -311 -164 -408h-137 q-6 139 -47 422l-99 657l-340 -741q-111 -238 -149 -338h-127q0 84 -35 422l-47 489q-6 63 -49 432zM805 1561q113 72 248 260h211q80 -188 166 -260l-39 -52q-178 90 -246 189q-96 -96 -314 -189z" />
<glyph unicode="&#x176;" horiz-adv-x="1181" d="M78 1350l10 67h510l-12 -67l-144 -7q35 -104 111 -276l141 -322l217 328l50 72q96 143 126 198l-141 7l10 67h385l-10 -67l-112 -7q-90 -113 -205 -282l-277 -412q-57 -266 -86 -577l164 -6l-10 -66h-569l10 66l168 6q23 84 57.5 307t34.5 274l-211 463q-80 174 -113 227 zM477 1561q113 72 248 260h211q80 -188 166 -260l-39 -52q-178 90 -246 189q-96 -96 -313 -189z" />
<glyph unicode="&#x177;" horiz-adv-x="1075" d="M-90 -438l51 147q55 -20 111 -20q121 0 204 96q63 72 107 162l23 45l-150 663q-8 37 -20 85l-20 78l-9 38q-23 84 -31 111l-98 6l10 67h442l-10 -67l-108 -6q8 -82 49 -275l96 -430l231 436q115 211 136 271l-154 4l10 67h375l-10 -67l-101 -6q-92 -150 -182 -318 l-407 -749q-82 -154 -174 -250q-104 -100 -252 -101q-66 1 -119 13zM344 1257q113 72 248 261h211q80 -188 166 -261l-39 -51q-176 88 -246 189q-92 -92 -313 -189z" />
<glyph unicode="&#x178;" horiz-adv-x="1181" d="M78 1350l10 67h510l-12 -67l-144 -7q35 -104 111 -276l141 -322l217 328l50 72q96 143 126 198l-141 7l10 67h385l-10 -67l-112 -7q-90 -113 -205 -282l-277 -412q-57 -266 -86 -577l164 -6l-10 -66h-569l10 66l168 6q23 84 57.5 307t34.5 274l-211 463q-80 174 -113 227 zM459 1663q0 51 34.5 86t88 35t87 -34t33.5 -87t-33.5 -88t-87 -35t-88 35t-34.5 88zM858 1663q0 51 35 86t88 35q51 0 86 -34t35 -87t-34 -88t-87 -35t-88 35t-35 88z" />
<glyph unicode="&#x179;" horiz-adv-x="1239" d="M10 0l15 84l79 98q23 27 115 152l66 88l34 45l345 448q225 297 307 424h-537l-67 -290h-168l57 368h1001l-14 -88l-344 -444l-272 -357l-236 -317l-100 -133h598l67 295h172l-59 -373h-1059zM637 1556q80 53 152.5 126t111.5 139h180q31 0 31 -15q0 -25 -52 -75t-124 -93 q-119 -70 -270 -133z" />
<glyph unicode="&#x17a;" horiz-adv-x="1032" d="M-6 0l10 68l731 905h-393l-55 -223h-164l47 290h834l-11 -67l-733 -905h447l55 221h166l-47 -289h-887zM483 1253q80 53 153 126t112 139h180q31 0 30 -15q0 -25 -52 -75t-124 -93q-119 -70 -270 -133z" />
<glyph unicode="&#x17b;" horiz-adv-x="1239" d="M10 0l15 84l79 98q23 27 115 152l66 88l34 45l345 448q225 297 307 424h-537l-67 -290h-168l57 368h1001l-14 -88l-344 -444l-272 -357l-236 -317l-100 -133h598l67 295h172l-59 -373h-1059zM659 1665q0 51 36 86t87 35q53 0 88 -35t35 -88t-34.5 -88t-88 -35t-88.5 35 t-35 90z" />
<glyph unicode="&#x17c;" horiz-adv-x="1032" d="M-6 0l10 68l731 905h-393l-55 -223h-164l47 290h834l-11 -67l-733 -905h447l55 221h166l-47 -289h-887zM502 1386q0 51 35.5 86t87 35t87.5 -34.5t36 -88t-36 -88t-87 -34.5q-53 0 -88 34.5t-35 89.5z" />
<glyph unicode="&#x17d;" horiz-adv-x="1239" d="M10 0l15 84l79 98q23 27 115 152l66 88l34 45l345 448q225 297 307 424h-537l-67 -290h-168l57 368h1001l-14 -88l-344 -444l-272 -357l-236 -317l-100 -133h598l67 295h172l-59 -373h-1059zM510 1792l39 51q178 -90 246 -188q96 96 315 188l25 -51q-113 -72 -248 -260 h-211q-82 190 -166 260z" />
<glyph unicode="&#x17e;" horiz-adv-x="1032" d="M-6 0l10 68l731 905h-393l-55 -223h-164l47 290h834l-11 -67l-733 -905h447l55 221h166l-47 -289h-887zM336 1487l39 51q182 -90 246 -188q41 43 131 96t184 92l25 -51q-113 -72 -248 -260h-211q-80 186 -166 260z" />
<glyph unicode="&#x192;" d="M-6 -227l43 268h149l-16 -231q23 -14 57 -15q104 0 158 127q25 59 55 252l88 557h-217l13 78h219l28 186q23 143 55.5 222t92.5 133q94 88 264 88q109 0 244 -43l-43 -265h-148l21 224q-35 16 -70 16q-78 0 -127 -81t-76 -259l-32 -221h264l-12 -78h-265l-80 -502 q-27 -176 -50 -245.5t-70 -128.5q-102 -127 -299 -127q-123 0 -246 45z" />
<glyph unicode="&#x1cd;" horiz-adv-x="1327" d="M-90 0l10 68l115 6q72 113 166 293l350 684q119 217 186 366h123q10 -70 51 -256q8 -25 29 -123l150 -723q20 -100 57 -241l115 -6l-11 -68h-516l10 68l156 6q-8 66 -35 198l-43 217h-456l-72 -141q-100 -201 -133 -276l149 -4l-10 -68h-391zM406 567h403l-111 566z M537 1792l38 51q178 -90 246 -188q96 96 316 188l24 -51q-113 -72 -248 -260h-211q-81 190 -165 260z" />
<glyph unicode="&#x1ce;" horiz-adv-x="1212" d="M96 397q0 248 121 447q61 102 155.5 159.5t205.5 57.5q182 0 288 -170l29 149h203q-53 -274 -70 -387l-63 -399q-12 -92 -13 -107q0 -31 15.5 -50t40.5 -19q37 0 116 41l29 -53q-143 -86 -260 -86q-139 0 -139 124q0 18 2 37q-74 -88 -145.5 -124.5t-170.5 -36.5 q-164 0 -254 109t-90 308zM317 375q0 -127 53.5 -206t137.5 -79q127 0 250 156l84 542q-74 162 -207 162q-145 0 -242 -211q-76 -157 -76 -364zM446 1487l39 51q182 -90 246 -188q41 43 131 96t185 92l24 -51q-113 -72 -248 -260h-211q-80 186 -166 260z" />
<glyph unicode="&#x1d3;" horiz-adv-x="1466" d="M193 1350l10 67h563l-10 -67l-166 -7l-66 -370l-65 -410q-25 -176 -25 -254q0 -119 70.5 -183.5t202.5 -64.5q221 0 340 168q61 88 102 342l61 396q31 193 52 376l-156 7l10 67h432l-10 -67l-160 -7l-6 -26l-31 -168l-22 -130q-8 -46 -12 -63l-64 -417 q-23 -152 -53.5 -235t-83.5 -148q-150 -176 -426 -176q-225 0 -345 89t-120 259q0 61 33 280l55 350q45 279 53 385zM672 1792l39 51q178 -90 245 -188q96 96 316 188l24 -51q-113 -72 -247 -260h-211q-82 190 -166 260z" />
<glyph unicode="&#x1e6;" horiz-adv-x="1439" d="M127 541q0 170 52 334.5t145 285.5q211 276 571 277q229 0 448 -99l-45 -290h-168l17 235q-109 74 -236 74q-252 0 -407 -268q-145 -252 -146 -596q0 -205 93.5 -320t261.5 -115q117 0 233 56l70 460l-160 7l12 67h531l-10 -67l-152 -7l-47 -292q-16 -102 -27 -213 q-248 -90 -456 -90q-272 0 -426 148.5t-154 412.5zM639 1792l39 51q178 -90 246 -188q96 96 315 188l25 -51q-113 -72 -248 -260h-211q-82 190 -166 260z" />
<glyph unicode="&#x1e7;" horiz-adv-x="1228" d="M23 -375l47 236h166l-21 -201q74 -43 172 -43q94 0 167 42t108 114q47 96 81 329l13 68q-129 -143 -303 -143q-162 0 -257.5 105.5t-95.5 281.5q0 276 137.5 461.5t342.5 185.5q195 0 299 -166l28 156l355 -11l-11 -67l-143 -6q-27 -129 -78 -422l-69 -441 q-33 -211 -60 -287.5t-86 -135.5q-141 -141 -416 -142q-192 0 -376 86zM319 395q0 -125 49.5 -191.5t139.5 -66.5q131 0 268 156l76 485q-84 178 -219 178q-147 0 -240 -204q-74 -162 -74 -357zM455 1487l39 51q182 -90 245 -188q41 43 131.5 96t184.5 92l24 -51 q-113 -72 -248 -260h-210q-80 186 -166 260z" />
<glyph unicode="&#x219;" horiz-adv-x="948" d="M31 47l45 252h164l-15 -203q72 -47 168 -47q104 0 171 60.5t67 156.5q0 72 -47 107q-25 18 -168 71q-158 57 -221.5 121t-63.5 166q0 150 113.5 241t298.5 91q178 0 325 -68l-45 -250h-159l14 209q-61 39 -148 39q-96 0 -160.5 -58t-64.5 -147q0 -63 42 -97t190 -87 q160 -57 208 -100q76 -66 76 -189q0 -156 -115.5 -245.5t-314.5 -89.5q-180 -1 -360 67zM76 -397q231 166 250 321h141q37 0 37 -20q0 -92 -158 -217q-61 -47 -235 -144z" />
<glyph unicode="&#x21a;" horiz-adv-x="1185" d="M106 1049l60 368h1141l-60 -368h-164l23 290h-264q-37 -188 -72 -401l-72 -451q-47 -315 -57 -413l184 -6l-10 -68h-608l10 68l189 6l73 411l68 439q47 297 57 415h-264l-68 -290h-166zM180 -397q231 166 250 321h141q37 0 37 -20q0 -92 -157 -217q-61 -47 -236 -144z " />
<glyph unicode="&#x2bc;" horiz-adv-x="534" d="M182 991q156 150 189 273q-106 20 -107 120q0 57 39 95.5t96 38.5q61 0 100.5 -39t39.5 -103q0 -152 -306 -432z" />
<glyph unicode="&#x2c6;" horiz-adv-x="1024" d="M317 1257q113 72 248 261h211q80 -188 166 -261l-39 -51q-176 88 -246 189q-92 -92 -313 -189z" />
<glyph unicode="&#x2c7;" horiz-adv-x="1024" d="M352 1487l39 51q182 -90 246 -188q41 43 131 96t184 92l25 -51q-113 -72 -248 -260h-211q-80 186 -166 260z" />
<glyph unicode="&#x2c9;" horiz-adv-x="1024" d="M328 1323l16 100h625l-17 -100h-624z" />
<glyph unicode="&#x2d8;" horiz-adv-x="1024" d="M362 1460q0 23 7 66h71q2 -98 37 -133q49 -49 166 -50q113 0 171 42t83 141h76q-41 -307 -336 -307q-129 0 -202 64t-73 177z" />
<glyph unicode="&#x2d9;" horiz-adv-x="1024" d="M524 1386q0 51 36 86t87 35q53 0 88 -34.5t35 -88t-35 -88t-88 -34.5t-88 34.5t-35 89.5z" />
<glyph unicode="&#x2da;" horiz-adv-x="1024" d="M438 1368q0 86 60.5 144.5t148.5 58.5q90 0 148.5 -58.5t58.5 -146.5t-58.5 -146.5t-148.5 -58.5q-92 0 -150.5 58.5t-58.5 148.5zM530 1368q0 -59 32 -94t85 -35q51 0 83 35t32 92t-32 92t-85 35q-51 0 -83 -35t-32 -90z" />
<glyph unicode="&#x2db;" horiz-adv-x="1024" d="M190 -279q0 80 73 146.5t229 132.5h104q-133 -78 -183.5 -135.5t-50.5 -132.5q0 -100 117 -101q39 0 78 9v-60q-74 -27 -145 -26q-104 0 -163 44.5t-59 122.5z" />
<glyph unicode="&#x2dc;" horiz-adv-x="1024" d="M289 1266q80 225 217 225q55 0 174 -39q104 -33 149 -33q88 0 113 82h68q-31 -119 -84.5 -174t-137.5 -55q-53 0 -170 35q-117 37 -163 36q-33 0 -54.5 -16t-44.5 -61h-67z" />
<glyph unicode="&#x2dd;" horiz-adv-x="1024" d="M362 1253q184 147 224 265h168q37 0 37 -21q0 -25 -42 -71t-98 -83q-123 -82 -256 -141zM692 1253q180 143 223 265h168q37 0 37 -21q0 -25 -42 -71t-97 -83q-123 -82 -256 -141z" />
<glyph unicode="&#x384;" horiz-adv-x="1024" d="M500 1214q129 129 192 304h162q37 0 37 -21q0 -57 -105.5 -152.5t-257.5 -177.5z" />
<glyph unicode="&#x385;" horiz-adv-x="1024" d="M270 1368q0 45 31 75t76 30t74.5 -30t29.5 -75t-29.5 -75.5t-74.5 -30.5q-47 0 -77 29.5t-30 76.5zM483 1214q92 125 119 308h129q47 0 47 -35q0 -29 -25.5 -78t-60.5 -88q-70 -76 -176 -150zM809 1368q0 45 30.5 75t76 30t75 -30t29.5 -75t-29.5 -75.5t-75.5 -30.5 q-47 0 -76.5 29.5t-29.5 76.5z" />
<glyph unicode="&#x386;" horiz-adv-x="1333" d="M-86 0l10 68l115 6q72 113 166 293l350 684q119 217 186 366h123q10 -70 51 -256q8 -25 29 -123l150 -723q20 -100 57 -241l115 -6l-11 -68h-516l11 68l155 6q-8 66 -35 198l-43 217h-456l-72 -141q-100 -201 -133 -276l149 -4l-10 -68h-391zM106 995q70 82 127.5 198 t81.5 224h154q39 0 39 -33q0 -35 -37 -102.5t-88 -130.5q-88 -111 -238 -211zM410 567h403l-111 566z" />
<glyph unicode="&#x387;" horiz-adv-x="589" d="M168 575q0 55 38 93.5t95 38.5t95 -38t38 -95.5t-38 -95.5t-95 -38q-59 0 -96 38t-37 97z" />
<glyph unicode="&#x388;" horiz-adv-x="1495" d="M37 995q70 82 127 198t82 224h153q39 0 39 -33q0 -35 -36.5 -102.5t-88.5 -130.5q-88 -111 -237 -211zM307 0l12 68l164 6l31 151l39 228l78 505q31 182 53 385l-162 7l10 67h994l-58 -368h-165l24 290h-407q-35 -172 -66 -368l-35 -211h459l-12 -82h-459l-35 -221 q-45 -301 -51 -379h440l72 291h168l-60 -369h-1034z" />
<glyph unicode="&#x389;" horiz-adv-x="1865" d="M37 995q70 82 127 198t82 224h153q39 0 39 -33q0 -35 -36.5 -102.5t-88.5 -130.5q-88 -111 -237 -211zM307 0l12 68l164 6q20 90 72 393l70 444q53 348 61 432l-164 7l10 67h562l-11 -67l-163 -7l-8 -36q-3 -16 -8 -46t-13 -69l-27 -158l-18 -114l-25 -158h625l24 149 q55 365 60 432l-160 7l10 67h562l-11 -67l-166 -7q-16 -78 -71 -401l-72 -455q-51 -354 -57 -413l164 -6l-13 -68h-559l10 68l162 6q23 106 72 393l33 215h-627l-29 -195q-47 -303 -59 -413l160 -6l-11 -68h-561z" />
<glyph unicode="&#x38a;" horiz-adv-x="1026" d="M37 995q70 82 127 198t82 224h153q39 0 39 -33q0 -35 -36.5 -102.5t-88.5 -130.5q-88 -111 -237 -211zM311 0l11 68l165 6q23 100 70 393l72 444q53 338 59 432l-164 7l13 67h563l-10 -67l-168 -7l-70 -401l-72 -455q-8 -49 -21 -143l-20 -137q-12 -78 -16 -133l162 -6 l-11 -68h-563z" />
<glyph unicode="&#x38c;" horiz-adv-x="1699" d="M37 995q70 82 127 198t82 224h153q39 0 39 -33q0 -35 -36.5 -102.5t-88.5 -130.5q-88 -111 -237 -211zM334 578q0 158 52 315.5t144 280.5q201 264 545 264q260 0 405.5 -155t145.5 -431q0 -350 -196 -604q-205 -268 -545 -268q-262 0 -406.5 156.5t-144.5 441.5z M563 502q0 -223 81 -338t239 -115q248 0 387 287q57 117 92 278.5t35 309.5q0 217 -81 330.5t-237 113.5q-236 0 -381 -274q-59 -111 -97 -278t-38 -314z" />
<glyph unicode="&#x38e;" horiz-adv-x="1617" d="M37 999q152 182 209 422h153q39 0 39 -30q0 -35 -36.5 -103.5t-88.5 -132.5q-90 -113 -237 -211zM510 1350l10 67h508l-10 -67l-144 -7q37 -106 111 -276l139 -322l219 328q33 49 50 72q102 152 127 198l-142 7l11 67h385l-11 -67l-112 -7q-47 -57 -207 -282l-275 -412 q-57 -264 -88 -577l164 -6l-10 -66h-569l12 66l166 6q20 78 58 310t36 271l-211 463q-84 176 -115 227z" />
<glyph unicode="&#x38f;" horiz-adv-x="1794" d="M37 995q70 82 127 198t82 224h153q39 0 39 -33q0 -35 -36.5 -102.5t-88.5 -130.5q-88 -111 -237 -211zM225 0l25 150q121 -29 352 -29h119l12 72q-160 68 -223 129q-145 133 -145 364q0 315 190 524q207 227 555 228q295 0 451 -154q156 -152 155 -391q0 -307 -174 -492 q-70 -74 -139.5 -112.5t-243.5 -95.5l-12 -72h119q225 0 362 29l-24 -150h-596l41 244q193 47 301 202q61 90 99 229.5t38 276.5q0 199 -94.5 307.5t-266.5 108.5q-252 0 -397 -217q-135 -207 -135 -508q0 -156 68.5 -259t197.5 -140l-39 -244h-596z" />
<glyph unicode="&#x390;" horiz-adv-x="620" d="M68 1368q0 45 30.5 75t75.5 30t75 -30t30 -75t-30 -75.5t-75 -30.5q-47 0 -76.5 29.5t-29.5 76.5zM113 0q37 180 80 453l22 141q45 319 49 373l-137 6l10 67l369 11q-35 -174 -80 -439l-23 -153q-57 -373 -63 -459h-227zM281 1214q92 125 118 308h129q47 0 47 -35 q0 -29 -25.5 -78t-60.5 -88q-70 -76 -176 -150zM606 1368q0 45 31 75t76 30t74.5 -30t29.5 -75t-29.5 -75.5t-74.5 -30.5q-47 0 -77 29.5t-30 76.5z" />
<glyph unicode="&#x391;" horiz-adv-x="1333" d="M-86 0l10 68l115 6q72 113 166 293l350 684q119 217 186 366h123q10 -70 51 -256q8 -25 29 -123l150 -723q20 -100 57 -241l115 -6l-11 -68h-516l11 68l155 6q-8 66 -35 198l-43 217h-456l-72 -141q-100 -201 -133 -276l149 -4l-10 -68h-391zM410 567h403l-111 566z" />
<glyph unicode="&#x392;" horiz-adv-x="1257" d="M-16 0l10 70l164 6q14 55 71 383l72 456q51 315 57 428l-159 7l10 67h459q281 0 387 -57q139 -74 139 -256q0 -160 -90 -249t-283 -120q311 -45 312 -317q0 -209 -160 -326q-131 -92 -398 -92h-591zM395 78h99q205 0 307 96q102 102 102 277q0 127 -74.5 184t-236.5 57 h-109l-39 -252l-30 -213q-2 -10 -8 -61zM496 770h92q199 0 291 92q92 96 92 242q0 125 -74 181t-240 56h-61q-29 -127 -68 -366z" />
<glyph unicode="&#x393;" horiz-adv-x="1136" d="M-16 0l10 68l164 6q25 109 67 368l86 533q39 264 47 368l-161 7l12 67h1028l-59 -368h-166l24 290h-440q-27 -125 -66 -364l-86 -533q-39 -262 -47 -368l170 -6l-12 -68h-571z" />
<glyph unicode="&#x394;" horiz-adv-x="1306" d="M-43 0l12 74l176 291l390 686q174 309 200 366h148q16 -98 51 -239l20 -91l189 -788l57 -225l-10 -74h-1233zM127 123h819q-18 94 -35 160l-206 876l-459 -811q-70 -127 -119 -225z" />
<glyph unicode="&#x395;" horiz-adv-x="1169" d="M-16 0l10 68l164 6q23 96 30 151l41 228l78 505q33 213 51 385l-161 7l12 67h993l-59 -368h-166l24 290h-405q-23 -100 -68 -368l-32 -211h458l-14 -82h-457l-34 -221q-45 -301 -52 -379h441l69 291h168l-59 -369h-1032z" />
<glyph unicode="&#x396;" horiz-adv-x="1245" d="M12 0l15 84l79 98q23 27 115 152l66 88l35 45l344 448q225 297 307 424h-537l-67 -290h-168l57 368h1002l-15 -88l-344 -444l-272 -357l-236 -317l-100 -133h598l67 295h172l-59 -373h-1059z" />
<glyph unicode="&#x397;" horiz-adv-x="1540" d="M-16 0l10 68l166 6q14 63 69 393l72 444q55 360 59 432l-163 7l12 67h559l-10 -67l-164 -7l-74 -423l-24 -158h626l23 149q53 338 61 432l-159 7l10 67h561l-12 -67l-166 -7q-20 -104 -70 -401l-72 -455q-49 -313 -59 -413l164 -6l-10 -68h-562l11 68l164 6q18 82 69 393 l35 215h-627l-30 -195q-53 -369 -58 -413l160 -6l-10 -68h-561z" />
<glyph unicode="&#x398;" horiz-adv-x="1505" d="M133 580q0 158 52.5 316.5t144.5 277.5q203 264 549 264q256 0 399 -146q156 -162 156 -440q0 -350 -197 -604q-205 -268 -549 -268q-264 0 -409.5 157.5t-145.5 442.5zM362 504q0 -223 82 -339t240 -116q252 0 393 287q57 117 92 277.5t35 308.5q0 217 -82 331.5 t-239 114.5q-240 0 -385 -274q-59 -111 -97.5 -277t-38.5 -313zM510 641l25 160h43q84 -29 221 -29q127 0 221 29h41l-25 -160h-43q-92 29 -229 29q-121 0 -213 -29h-41z" />
<glyph unicode="&#x399;" horiz-adv-x="700" d="M-14 0l10 68l166 6q23 100 69 393l72 444q55 356 59 432l-163 7l12 67h563l-10 -67l-168 -7l-70 -401l-71 -455q-49 -322 -58 -413l162 -6l-10 -68h-563z" />
<glyph unicode="&#x39a;" horiz-adv-x="1308" d="M-16 0l10 68l166 6q33 152 69 393l72 444q53 350 59 432l-163 7l12 67h559l-10 -67l-164 -7q-23 -127 -27 -151q-25 -131 -43 -250l-28 -188l454 409q131 115 199 180l-162 7l10 67h426l-10 -67l-104 -7q-2 0 -95 -79l-84 -70l-51 -45l-24 -21l-369 -327l344 -543 q100 -154 125 -184l102 -6l-12 -68h-495l10 68h125l-398 641l-34 -222q-53 -371 -58 -413l154 -6l-10 -68h-555z" />
<glyph unicode="&#x39b;" horiz-adv-x="1327" d="M-92 0l10 68l111 6q45 72 168 291l354 686q145 270 188 366h129q10 -72 45 -239l19 -91l164 -790q37 -180 53 -223l113 -6l-11 -68h-516l13 68l151 6q-2 43 -31 198l-166 865l-407 -789q-80 -150 -131 -276l145 -4l-10 -68h-391z" />
<glyph unicode="&#x39c;" horiz-adv-x="1796" d="M-14 0l10 66l156 6q37 184 79 436l80 485q37 231 45 350l-155 7l10 67h418q14 -102 73 -342l172 -708l402 714q137 240 182 336h416l-10 -67l-166 -7q-37 -195 -72 -405l-76 -483q-45 -295 -51 -383l162 -6l-12 -66h-562l11 66l166 6q4 27 30.5 170t36.5 211l72 452 q18 113 33 191q6 35 24 127l-647 -1145h-88l-285 1124l-114 -731q-41 -264 -56 -399l158 -6l-12 -66h-430z" />
<glyph unicode="&#x39d;" horiz-adv-x="1488" d="M-12 0l10 68l160 6q23 104 69 389l82 518q45 279 51 362l-157 7l10 67h405q31 -92 125 -280l379 -818l101 648q4 20 20 135q23 164 31 241l-156 7l10 67h433l-11 -67l-157 -7q-20 -82 -76 -413l-148 -930h-151q-14 47 -76 182l-43 88l-450 967l-117 -748 q-35 -211 -58 -415l156 -6l-12 -68h-430z" />
<glyph unicode="&#x39e;" horiz-adv-x="1185" d="M-14 0l59 369h168l-20 -246h653l59 246h168l-57 -369h-1030zM176 1049l57 368h984l-60 -368h-166l21 245h-613l-57 -245h-166zM309 637l27 168h41q98 -27 254 -27q145 0 250 27h41l-27 -168h-43q-104 27 -254 27q-156 0 -248 -27h-41z" />
<glyph unicode="&#x39f;" horiz-adv-x="1497" d="M133 578q0 158 52.5 315.5t144.5 280.5q201 264 544 264q260 0 405.5 -155t145.5 -431q0 -350 -196 -604q-205 -268 -545 -268q-262 0 -406.5 156.5t-144.5 441.5zM362 502q0 -223 81 -338t239 -115q248 0 387 287q57 117 92 278.5t35 309.5q0 217 -81 330.5t-236 113.5 q-236 0 -381 -274q-59 -111 -97.5 -278t-38.5 -314z" />
<glyph unicode="&#x3a0;" horiz-adv-x="1488" d="M-16 0l10 68l164 6q25 109 67 368l86 533q41 266 47 368l-161 7l12 67h1358l-13 -67l-161 -7q-25 -92 -70 -368l-84 -533q-41 -279 -49 -368l162 -6l-11 -68h-561l13 68l159 6q29 133 68 368l84 527q43 295 47 368h-555q-23 -100 -68 -368l-84 -527q-41 -274 -47 -368 l158 -6l-10 -68h-561z" />
<glyph unicode="&#x3a1;" horiz-adv-x="1185" d="M-16 0l10 68l166 6q14 68 69 393l72 444q55 356 59 432l-163 7l12 67h471q158 0 234.5 -13t136.5 -52q135 -90 135 -281q0 -236 -162 -352q-131 -94 -410 -94h-141l-20 -136l-43 -292q-10 -74 -15 -123l187 -6l-11 -68h-587zM485 702h64q113 0 178.5 21.5t116.5 73.5 q113 113 112 301q0 244 -301 243h-63q-23 -102 -68 -401z" />
<glyph unicode="&#x3a3;" horiz-adv-x="1153" d="M-41 0l12 76l557 592l-333 692l8 57h968l-57 -368h-166l25 290h-518l284 -591l-592 -625h668l57 246h170l-59 -369h-1024z" />
<glyph unicode="&#x3a4;" horiz-adv-x="1191" d="M111 1049l59 368h1141l-60 -368h-164l23 290h-264q-37 -188 -72 -401l-72 -451q-47 -315 -57 -413l184 -6l-10 -68h-608l10 68l189 6l73 411l68 439q47 297 57 415h-264l-68 -290h-165z" />
<glyph unicode="&#x3a5;" horiz-adv-x="1187" d="M80 1350l10 67h510l-12 -67l-144 -7q35 -104 111 -276l141 -322l217 328l50 72q96 143 127 198l-142 7l10 67h385l-10 -67l-112 -7q-90 -113 -205 -282l-277 -412q-57 -266 -86 -577l164 -6l-10 -66h-569l10 66l168 6q23 84 57.5 307t34.5 274l-211 463q-80 174 -113 227 z" />
<glyph unicode="&#x3a6;" horiz-adv-x="1771" d="M139 653q0 295 206 470t560 186q16 98 23 182l-162 6l10 68h551l-10 -68l-164 -6q-18 -76 -37 -191q272 -25 425 -168t153 -374q0 -291 -207 -467t-559 -187q-16 -100 -23 -178l162 -6l-10 -67h-551l10 67l164 6q20 92 37 185q-272 23 -425 166t-153 376zM369 618 q0 -381 362 -436l166 1055q-240 -10 -384 -180.5t-144 -438.5zM936 176q244 10 386 178t142 443q0 379 -362 432z" />
<glyph unicode="&#x3a7;" horiz-adv-x="1302" d="M-86 0l10 68l115 6q49 49 67 71l123 140l346 401l-161 367l-47 96l-45 92q-31 66 -54 102l-116 7l10 67h512l-10 -67l-132 -7q23 -82 130 -309l83 -182l226 262q139 164 182 229l-125 7l10 67h385l-10 -67l-115 -7l-215 -231l-292 -340l184 -412l90 -190q43 -86 49 -96 l121 -6l-10 -68h-514l12 68l123 6q-31 92 -101 241l-124 283l-281 -336q-92 -111 -150 -188l136 -6l-11 -68h-401z" />
<glyph unicode="&#x3a8;" horiz-adv-x="1882" d="M182 1350l11 67l358 10q-6 -72 -39 -297l-20 -124q-27 -158 -27 -230q0 -188 121 -262q74 -45 239 -53l80 514q41 279 49 368l-161 7l10 67h561l-12 -67l-162 -7q-23 -92 -70 -368l-80 -514q240 0 349.5 104.5t142.5 364.5l33 200q29 174 55 297l354 -10l-10 -67l-137 -7 q-33 -143 -80 -436q-35 -301 -187.5 -411.5t-531.5 -108.5q-29 -195 -41 -313l162 -6l-10 -68h-559l10 68l164 6l18 88q0 12 25 135q6 27 16 90q-209 2 -324 49q-113 43 -173 139.5t-60 229.5q0 78 27 250q33 223 34 288z" />
<glyph unicode="&#x3a9;" horiz-adv-x="1591" d="M25 0l24 150q117 -29 352 -29h119l10 72q-162 70 -221 129q-145 133 -145 364q0 315 190 524q207 227 555 228q293 0 449 -154q156 -152 155 -391q0 -307 -174 -492q-70 -74 -139.5 -112.5t-241.5 -95.5l-12 -72h119q225 0 362 29l-24 -150h-596l39 244q195 47 301 202 q61 90 99 229.5t38 276.5q0 199 -94 307.5t-266 108.5q-250 0 -396 -217q-135 -207 -135 -506q0 -158 68.5 -261t197.5 -140l-38 -244h-596z" />
<glyph unicode="&#x3aa;" horiz-adv-x="700" d="M-14 0l10 68l166 6q23 100 69 393l72 444q55 356 59 432l-163 7l12 67h563l-10 -67l-168 -7l-70 -401l-71 -455q-49 -322 -58 -413l162 -6l-10 -68h-563zM209 1663q0 51 35 86t88 35t87 -34t34 -87t-34 -88t-87 -35t-88 35t-35 88zM608 1663q0 51 35 86t88 35 q51 0 86 -34t35 -87t-34 -88t-87 -35t-88 35t-35 88z" />
<glyph unicode="&#x3ab;" horiz-adv-x="1187" d="M80 1350l10 67h510l-12 -67l-144 -7q35 -104 111 -276l141 -322l217 328l50 72q96 143 127 198l-142 7l10 67h385l-10 -67l-112 -7q-90 -113 -205 -282l-277 -412q-57 -266 -86 -577l164 -6l-10 -66h-569l10 66l168 6q23 84 57.5 307t34.5 274l-211 463q-80 174 -113 227 zM467 1663q0 51 35 86t88 35t87 -34t34 -87t-34 -88t-87 -35t-88 35t-35 88zM866 1663q0 51 35 86t88 35q51 0 86 -34t35 -87t-34 -88t-87 -35t-88 35t-35 88z" />
<glyph unicode="&#x3ac;" horiz-adv-x="1275" d="M98 418q0 131 37 254t103 207q143 182 389 182q174 0 262 -81t106 -257q55 125 123 332l158 -47q-72 -190 -126 -305t-169 -326q16 -123 51 -184.5t103 -88.5l-78 -127q-78 12 -120 62.5t-69 157.5q-29 -45 -98 -113q-106 -104 -254 -104q-193 0 -305.5 118.5 t-112.5 319.5zM319 352q0 -139 51.5 -220t139.5 -81q121 0 221 148q61 86 125 262q6 88 6 135q0 205 -49 301t-154 96q-164 0 -253 -215q-87 -195 -87 -426zM612 1214q129 129 193 304h162q37 0 37 -21q0 -57 -105.5 -152.5t-257.5 -177.5z" />
<glyph unicode="&#x3ad;" horiz-adv-x="983" d="M57 260q0 94 54.5 164t152.5 102q-115 74 -114 213q0 154 112.5 238t317.5 84q209 0 381 -62l-48 -254h-163l16 213q-59 33 -148 33q-133 0 -196 -78q-59 -76 -60 -188q0 -90 48.5 -125t169.5 -35h88l-13 -67h-104q-147 0 -207 -66q-66 -70 -65 -190q0 -90 54 -139.5 t156 -49.5q166 0 293 125l60 -90q-137 -109 -375 -108q-199 0 -304.5 71.5t-105.5 208.5zM516 1214q129 129 193 304h161q37 0 37 -21q0 -57 -105.5 -152.5t-256.5 -177.5z" />
<glyph unicode="&#x3ae;" horiz-adv-x="1263" d="M113 0q29 139 86 471l20 139q35 213 43 357l-135 6l12 67l346 11l-20 -179q119 106 201 147.5t184 41.5q117 0 184.5 -67.5t67.5 -186.5q0 -82 -31 -270l-153 -977h-226q92 446 142 780l30 203q29 190 29 241q0 154 -133 154q-139 0 -307 -178l-43 -279 q-53 -332 -70 -481h-227zM651 1214q129 129 193 304h162q37 0 36 -21q0 -57 -105.5 -152.5t-256.5 -177.5z" />
<glyph unicode="&#x3af;" horiz-adv-x="620" d="M113 0q27 117 80 453l22 141q45 326 51 373l-139 6l10 67l369 11q-39 -203 -80 -439l-23 -153q-55 -371 -63 -459h-227zM297 1214q129 129 192 304h162q37 0 37 -21q0 -57 -105.5 -152.5t-256.5 -177.5z" />
<glyph unicode="&#x3b0;" horiz-adv-x="1124" d="M106 973l11 67l370 11q-4 -16 -20 -103q-106 -555 -107 -684q0 -188 175 -188q207 0 288 291q49 180 49 342q0 150 -26 249l-119 3l8 67l297 23q16 -109 17 -236q0 -338 -125 -565q-150 -272 -447 -273q-154 0 -236.5 80t-82.5 228q0 78 30 272q43 266 60 410zM319 1368 q0 45 31 75t76 30t74.5 -30t29.5 -75t-29.5 -75.5t-74.5 -30.5q-47 0 -77 29.5t-30 76.5zM532 1214q92 125 119 308h129q47 0 47 -35q0 -29 -25.5 -78t-60.5 -88q-70 -76 -176 -150zM858 1368q0 45 31 75t76 30t74.5 -30t29.5 -75t-29.5 -75.5t-74.5 -30.5q-47 0 -77 29.5 t-30 76.5z" />
<glyph unicode="&#x3b1;" horiz-adv-x="1275" d="M98 418q0 131 37 254t103 207q143 182 389 182q174 0 262 -81t106 -257q55 125 123 332l158 -47q-72 -190 -126 -305t-169 -326q16 -123 51 -184.5t103 -88.5l-78 -127q-78 12 -120 62.5t-69 157.5q-29 -45 -98 -113q-106 -104 -254 -104q-193 0 -305.5 118.5 t-112.5 319.5zM319 352q0 -139 51.5 -220t139.5 -81q121 0 221 148q61 86 125 262q6 88 6 135q0 205 -49 301t-154 96q-164 0 -253 -215q-87 -195 -87 -426z" />
<glyph unicode="&#x3b2;" horiz-adv-x="1253" d="M35 -440q39 178 71 391l175 1098q25 156 51 230.5t78 125.5q115 117 329 117q197 0 312.5 -94.5t115.5 -253.5q0 -193 -157 -297q-78 -49 -201 -70q129 -14 199 -64q125 -90 125 -280q0 -223 -144 -361q-123 -117 -315 -116q-109 0 -185.5 30.5t-146.5 102.5l-27 -168 q-45 -287 -51 -391h-229zM356 217l15 -14q57 -63 72.5 -75.5t48.5 -29.5q66 -33 133 -32q125 0 205.5 123.5t80.5 314.5q0 135 -63.5 195.5t-204.5 60.5h-27l11 71h24q141 0 215 99q88 123 88 291q0 106 -52 169.5t-140 63.5q-139 0 -211 -151q-33 -72 -64 -265z" />
<glyph unicode="&#x3b3;" horiz-adv-x="1007" d="M43 961l6 67l279 25q174 -508 168 -822q90 131 194.5 358.5t138.5 368.5l-143 3l10 67l338 25q-53 -287 -467 -869l-24 -37l-92 -587h-220q20 72 58 297l10 59q18 135 18 236q0 209 -73 483q-61 238 -101 323z" />
<glyph unicode="&#x3b4;" horiz-adv-x="1185" d="M94 414q0 410 422 522q-100 51 -145 112.5t-45 147.5q0 145 108.5 234.5t286.5 89.5q211 0 426 -99l-103 -164q-197 166 -366 166q-90 0 -144.5 -48t-54.5 -126q0 -57 42 -93t186 -105q213 -100 294.5 -204t81.5 -272q0 -244 -131 -409q-139 -186 -401 -186 q-219 0 -338 113.5t-119 320.5zM313 356q0 -309 219 -309q170 0 259 209q72 174 71 334q0 145 -106 223q-47 37 -166 90q-4 -2 -10 -4q-127 -53 -197 -194.5t-70 -348.5z" />
<glyph unicode="&#x3b5;" horiz-adv-x="983" d="M57 260q0 94 54.5 164t152.5 102q-115 74 -114 213q0 154 112.5 238t317.5 84q209 0 381 -62l-48 -254h-163l16 213q-59 33 -148 33q-133 0 -196 -78q-59 -76 -60 -188q0 -90 48.5 -125t169.5 -35h88l-13 -67h-104q-147 0 -207 -66q-66 -70 -65 -190q0 -90 54 -139.5 t156 -49.5q166 0 293 125l60 -90q-137 -109 -375 -108q-199 0 -304.5 71.5t-105.5 208.5z" />
<glyph unicode="&#x3b6;" horiz-adv-x="847" d="M41 -432l59 170q125 -80 271 -80q127 0 195.5 49t68.5 137q0 72 -57 109q-29 16 -164 63q-180 63 -251 147.5t-71 233.5q0 305 330 629q66 61 193.5 165.5t191.5 145.5q-121 -8 -199 -8q-147 0 -284 21l38 147q145 -27 295 -27q152 0 330 27l-37 -133 q-199 -143 -375 -356q-262 -313 -262 -598q0 -106 66 -160q33 -25 168 -84q115 -51 160 -106.5t45 -143.5q0 -152 -125 -264q-121 -113 -351 -113q-114 0 -235 29z" />
<glyph unicode="&#x3b7;" horiz-adv-x="1263" d="M113 0q29 139 86 471l20 139q35 213 43 357l-135 6l12 67l346 11l-20 -179q119 106 201 147.5t184 41.5q117 0 184.5 -67.5t67.5 -186.5q0 -82 -31 -270l-153 -977h-226q92 446 142 780l30 203q29 190 29 241q0 154 -133 154q-139 0 -307 -178l-43 -279 q-53 -332 -70 -481h-227z" />
<glyph unicode="&#x3b8;" horiz-adv-x="1155" d="M125 532q0 199 52 404t138 342q152 242 392 242q188 0 291.5 -142.5t103.5 -402.5q0 -195 -49 -395.5t-131 -337.5q-156 -262 -402 -262q-193 0 -294 142t-101 410zM330 358q0 -311 180 -311q84 0 146.5 68.5t109.5 216.5q47 141 94 422h-491q-39 -246 -39 -396zM381 831 h491q25 205 25 310q0 311 -180 311q-121 0 -199 -143.5t-137 -477.5z" />
<glyph unicode="&#x3b9;" horiz-adv-x="620" d="M113 0q27 117 80 453l22 141q45 326 51 373l-139 6l10 67l369 11q-39 -203 -80 -439l-23 -153q-55 -371 -63 -459h-227z" />
<glyph unicode="&#x3ba;" horiz-adv-x="1196" d="M113 0q27 117 80 453l22 141q45 326 51 373l-139 6l10 67l369 11q-20 -98 -78 -426l-10 -74l534 416l-139 6l10 67h381l-10 -67l-82 -4l-96 -66l-88 -61q-43 -29 -78 -60l-176 -145l192 -354q84 -154 121 -205l117 -10l-10 -68h-314q-16 49 -86 184l-180 342l-115 -92 l-6 -33q-23 -158 -53 -401h-227z" />
<glyph unicode="&#x3bb;" horiz-adv-x="1087" d="M-59 0l4 29q84 186 587 1005q-43 266 -137 389l-108 7l10 67l285 10q96 -152 166 -544l96 -557q43 -242 125 -332l84 -6l-13 -68h-268q-90 125 -147 465l-74 444q-104 -195 -218 -443.5t-165 -391.5l96 -6l-10 -68h-313z" />
<glyph unicode="&#x3bc;" horiz-adv-x="1261" d="M33 -440q53 256 123.5 685t109.5 722l-141 6l12 67l367 11q-12 -76 -33 -172q-78 -424 -78 -553q0 -231 160 -232q123 0 260 189l107 682l-148 8l12 67l369 11q-115 -621 -149 -977l141 -6l-10 -68h-355l21 160q-76 -100 -134.5 -140t-129.5 -40q-125 0 -195 114 l-84 -534h-225z" />
<glyph unicode="&#x3bd;" horiz-adv-x="1114" d="M25 961l6 67l311 23q53 -205 94 -424l86 -486q334 428 348 817l-141 3l12 67l324 23q0 -231 -134 -479t-417 -537q-23 -23 -33 -35h-149q-10 96 -45 274l-47 265q-59 328 -99 419z" />
<glyph unicode="&#x3be;" horiz-adv-x="937" d="M78 -424l59 162q152 -82 289 -82q117 0 184.5 53t67.5 146q0 80 -64 106q-31 14 -165 43q-190 39 -275.5 124t-85.5 232q0 115 48 209.5t136 147.5q98 61 267 84q-270 68 -271 262q0 127 127 209q61 41 209 82q-61 -4 -117 -4q-106 0 -170 8l37 139q117 -18 355 -18 q156 0 319 18l-39 -143h-63q-180 0 -279 -39q-88 -35 -139 -106.5t-51 -157.5q0 -193 311 -193q14 0 100 4l-20 -127q-66 14 -156 15q-197 0 -286 -93q-96 -100 -97 -260q0 -100 43 -147t160 -76q150 -39 209 -82q72 -55 72 -168q0 -174 -125 -278.5t-336 -104.5 q-139 0 -254 35z" />
<glyph unicode="&#x3bf;" horiz-adv-x="1187" d="M100 410q0 127 41 252.5t111 211.5q150 186 410 187q205 0 315 -109.5t110 -310.5q0 -276 -145 -469q-150 -193 -418 -192q-207 0 -315.5 110.5t-108.5 319.5zM319 354q0 -307 205 -307q172 0 264 223q80 195 80 420q0 303 -202 303q-166 0 -256 -205q-91 -190 -91 -434z " />
<glyph unicode="&#x3c0;" horiz-adv-x="1400" d="M-12 821l127 219h1034q139 0 352 19l-96 -137h-248l-98 -625q-10 -66 -10 -133q0 -92 90 -92q63 0 141 53l35 -57q-119 -88 -248 -88q-115 0 -168 48t-53 150q0 74 26 242l78 502h-397l-86 -553q-45 -303 -49 -369h-225l67 369l88 553h-192l-115 -131z" />
<glyph unicode="&#x3c1;" horiz-adv-x="1177" d="M-12 -440q23 217 70.5 548.5t78.5 483.5q45 242 167 352.5t339 110.5q238 0 346 -142q90 -115 90 -307q0 -141 -40 -271t-109 -212q-127 -152 -326 -152q-111 0 -185.5 40t-139.5 134q-49 -350 -72 -585h-219zM299 270q96 -197 248 -196q137 0 225 169t88 429 q0 315 -203 315q-127 0 -202.5 -110.5t-114.5 -352.5z" />
<glyph unicode="&#x3c2;" horiz-adv-x="958" d="M96 408q0 276 135 462q141 190 420 191q170 0 322 -57l-47 -265h-164l18 224q-49 29 -116 28q-94 0 -159 -53t-116 -170q-72 -166 -72 -348q0 -106 58 -152q39 -31 174 -73q143 -47 198.5 -105.5t55.5 -165.5q0 -158 -103 -266q-119 -121 -321 -121q-141 0 -266 31 l59 170q143 -82 274 -82q229 0 230 194q0 86 -76 123q-37 18 -186 68q-184 61 -251 138t-67 229z" />
<glyph unicode="&#x3c3;" horiz-adv-x="1171" d="M100 406q0 131 40 258t106 210q150 186 391 187q41 0 174 -12q96 -8 168 -9h180l-16 -110l-215 16q139 -129 139 -352q0 -117 -37 -233.5t-100 -198.5q-143 -182 -402 -182q-205 0 -316.5 110.5t-111.5 315.5zM317 340q0 -143 52.5 -218t150.5 -75q162 0 250 209 q80 190 80 401q0 336 -199 336q-154 0 -245 -205q-89 -196 -89 -448z" />
<glyph unicode="&#x3c4;" horiz-adv-x="897" d="M-12 821l127 219h528q139 0 354 19l-96 -137h-307l-98 -625q-12 -76 -13 -133q0 -92 90 -92q68 0 144 53l33 -59q-115 -86 -248 -86q-115 0 -168 48t-53 150q0 68 28 242l78 502h-231l-115 -131z" />
<glyph unicode="&#x3c5;" horiz-adv-x="1124" d="M106 973l11 67l370 11q-4 -16 -20 -103q-106 -555 -107 -684q0 -188 175 -188q207 0 288 291q49 180 49 342q0 150 -26 249l-119 3l8 67l297 23q16 -109 17 -236q0 -338 -125 -565q-150 -272 -447 -273q-154 0 -236.5 80t-82.5 228q0 78 30 272q43 266 60 410z" />
<glyph unicode="&#x3c6;" horiz-adv-x="1538" d="M100 444q0 160 68 290t192 206q129 84 334 111v-84q-104 -29 -160.5 -63t-105.5 -97q-119 -156 -119 -391q0 -317 289 -361l84 529q25 158 44 228.5t54 119.5q86 127 285 127q186 0 283.5 -102.5t97.5 -297.5q0 -311 -175 -489t-493 -188l-6 -33q-39 -244 -51 -389h-211 q35 162 72 391l6 31q-176 16 -281 79q-207 125 -207 383zM784 55q217 20 335 191.5t118 466.5q0 274 -156 274q-115 0 -159 -139q-23 -68 -52 -258z" />
<glyph unicode="&#x3c7;" horiz-adv-x="1024" d="M-164 -440l6 43q231 319 549 694l-53 188q-127 420 -172 482l-92 6l10 67l260 11q72 -150 152 -414l55 -184q205 303 274 514l-110 6l10 67l346 11l-8 -41q-152 -236 -479 -650l118 -393q88 -291 191 -334l59 -6l-10 -67h-250q-51 31 -91 112.5t-93 255.5l-80 277 q-84 -125 -188.5 -306.5t-139.5 -265.5l105 -6l-10 -67h-359z" />
<glyph unicode="&#x3c8;" horiz-adv-x="1607" d="M123 973l10 67l344 11q-80 -428 -99.5 -550t-19.5 -198q0 -164 111 -211q76 -31 180 -31h15l92 588q49 338 53 391h219q-41 -213 -80 -444l-84 -535h74q117 0 185.5 39t119.5 133q43 80 71.5 227.5t28.5 287.5q0 125 -16 210l-117 3l9 67l292 23q16 -125 17 -244 q0 -221 -50.5 -398.5t-140.5 -277.5q-133 -150 -401 -149h-86l-16 -105q-35 -238 -41 -317h-220q35 131 62 311l16 111h-12q-248 0 -358.5 86t-110.5 278q0 100 37 342q31 184 39 279z" />
<glyph unicode="&#x3c9;" horiz-adv-x="1574" d="M117 346q0 262 151 621l-116 6l10 67l342 11l-17 -39l-51 -129q-51 -129 -85 -297t-34 -289q0 -221 166 -221q164 0 209 286l66 416h184l-61 -383q-16 -104 -17 -147q0 -176 158 -176q82 0 135 49t88 158q57 180 58 409q0 170 -27 273l-115 2l8 67l301 21 q16 -121 17 -273q0 -395 -127 -614q-104 -184 -326 -184q-168 0 -233 110q-18 29 -37 115l-8 -17q-35 -72 -53.5 -96t-55.5 -53q-78 -59 -190 -59q-164 0 -252 95t-88 271z" />
<glyph unicode="&#x3ca;" horiz-adv-x="620" d="M96 1386q0 51 35 86t88 35q51 0 86 -34.5t35 -86.5q0 -53 -34 -87.5t-87 -34.5t-88 34.5t-35 87.5zM113 0q20 88 80 453l22 141q45 328 49 373l-137 6l10 67l369 11q-41 -201 -80 -439l-23 -153q-51 -328 -63 -459h-227zM496 1386q0 51 34.5 86t88 35t87 -34.5 t33.5 -86.5q0 -53 -33.5 -87.5t-87 -34.5t-88 34.5t-34.5 87.5z" />
<glyph unicode="&#x3cb;" horiz-adv-x="1124" d="M106 973l11 67l370 11q-4 -16 -20 -103q-106 -555 -107 -684q0 -188 175 -188q207 0 288 291q49 180 49 342q0 150 -26 249l-119 3l8 67l297 23q16 -109 17 -236q0 -338 -125 -565q-150 -272 -447 -273q-154 0 -236.5 80t-82.5 228q0 78 30 272q43 266 60 410zM371 1386 q0 51 34.5 86t88.5 35q51 0 85.5 -34.5t34.5 -86.5q0 -53 -33.5 -87.5t-87 -34.5t-88 34.5t-34.5 87.5zM770 1386q0 51 35 86t88 35t87 -34.5t34 -86.5q0 -53 -34 -87.5t-87 -34.5t-88 34.5t-35 87.5z" />
<glyph unicode="&#x3cc;" horiz-adv-x="1187" d="M100 410q0 127 41 252.5t111 211.5q150 186 410 187q205 0 315 -109.5t110 -310.5q0 -276 -145 -469q-150 -193 -418 -192q-207 0 -315.5 110.5t-108.5 319.5zM319 354q0 -307 205 -307q172 0 264 223q80 195 80 420q0 303 -202 303q-166 0 -256 -205q-91 -190 -91 -434z M598 1214q129 129 193 304h161q37 0 37 -21q0 -57 -105.5 -152.5t-256.5 -177.5z" />
<glyph unicode="&#x3cd;" horiz-adv-x="1124" d="M106 973l11 67l370 11q-4 -16 -20 -103q-106 -555 -107 -684q0 -188 175 -188q207 0 288 291q49 180 49 342q0 150 -26 249l-119 3l8 67l297 23q16 -109 17 -236q0 -338 -125 -565q-150 -272 -447 -273q-154 0 -236.5 80t-82.5 228q0 78 30 272q43 266 60 410zM571 1214 q129 129 193 304h162q37 0 37 -21q0 -57 -105.5 -152.5t-257.5 -177.5z" />
<glyph unicode="&#x3ce;" horiz-adv-x="1574" d="M117 346q0 262 151 621l-116 6l10 67l342 11l-17 -39l-51 -129q-51 -129 -85 -297t-34 -289q0 -221 166 -221q164 0 209 286l66 416h184l-61 -383q-16 -104 -17 -147q0 -176 158 -176q82 0 135 49t88 158q57 180 58 409q0 170 -27 273l-115 2l8 67l301 21 q16 -121 17 -273q0 -395 -127 -614q-104 -184 -326 -184q-168 0 -233 110q-18 29 -37 115l-8 -17q-35 -72 -53.5 -96t-55.5 -53q-78 -59 -190 -59q-164 0 -252 95t-88 271zM786 1214q129 129 193 304h162q37 0 37 -21q0 -57 -105.5 -152.5t-257.5 -177.5z" />
<glyph unicode="&#x401;" horiz-adv-x="1169" d="M-16 0l10 68l164 6q23 96 30 151l41 228l78 505q33 213 51 385l-161 7l12 67h993l-59 -368h-166l24 290h-405q-23 -100 -68 -368l-32 -211h458l-14 -82h-457l-34 -221q-45 -301 -52 -379h441l69 291h168l-59 -369h-1032zM455 1663q0 51 34.5 86t88 35t87 -34t33.5 -87 t-33.5 -88t-87 -35t-88 35t-34.5 88zM854 1663q0 51 35 86t88 35q51 0 86 -34t35 -87t-34 -88t-87 -35t-88 35t-35 88z" />
<glyph unicode="&#x402;" horiz-adv-x="1636" d="M123 1049l59 368h1180l-59 -368h-164l22 290h-303q-35 -158 -72 -397l-26 -166q203 57 368 58q360 0 361 -299q0 -82 -24.5 -253t-53.5 -290q-45 -174 -114.5 -265.5t-188.5 -132.5q-74 -25 -274 -34l8 71q129 14 196.5 65.5t114.5 170.5q39 102 79 328.5t40 341.5 q0 205 -217 204q-143 0 -310 -51l-34 -215q-43 -305 -54 -401l166 -6l-10 -68h-590l10 68l187 6q27 123 74 401l73 467q33 221 54 397h-265l-67 -290h-166z" />
<glyph unicode="&#x403;" horiz-adv-x="1136" d="M-16 0l10 68l164 6q25 109 67 368l86 533q39 264 47 368l-161 7l12 67h1028l-59 -368h-166l24 290h-440q-27 -125 -66 -364l-86 -533q-39 -262 -47 -368l170 -6l-12 -68h-571zM625 1556q80 53 152.5 126t111.5 139h180q31 0 31 -15q0 -25 -52.5 -75t-123.5 -93 q-119 -70 -271 -133z" />
<glyph unicode="&#x404;" horiz-adv-x="1277" d="M143 543q0 178 53.5 354t145.5 293q188 248 500 248q221 0 436 -101l-49 -288h-164l16 231q-94 78 -221 78q-164 0 -284.5 -159t-172.5 -439h545l-12 -82h-545q-14 -109 -14 -189q0 -211 81 -319.5t236 -108.5q190 0 361 146l63 -107q-168 -121 -424 -120 q-283 0 -415 147q-136 152 -136 416z" />
<glyph unicode="&#x405;" horiz-adv-x="1105" d="M49 66l45 307h168l-16 -256q94 -68 211 -68q141 0 233 84t92 215q0 102 -59 162q-29 29 -64.5 52.5t-162.5 92.5q-176 96 -242 179.5t-66 207.5q0 178 135.5 288t356.5 110q217 0 389 -99l-45 -292h-166l19 251q-76 70 -191 70q-123 0 -207 -80t-84 -194 q0 -88 51.5 -143.5t206.5 -137.5q199 -104 268.5 -186t69.5 -213q0 -190 -141 -316q-135 -121 -373 -120q-225 0 -428 86z" />
<glyph unicode="&#x406;" horiz-adv-x="700" d="M-14 0l10 68l166 6q23 100 69 393l72 444q55 356 59 432l-163 7l12 67h563l-10 -67l-168 -7l-70 -401l-71 -455q-49 -322 -58 -413l162 -6l-10 -68h-563z" />
<glyph unicode="&#x407;" horiz-adv-x="694" d="M-16 0l10 68l166 6q23 100 69 393l72 444q55 356 59 432l-163 7l12 67h563l-10 -67l-168 -7l-70 -401l-71 -455q-49 -322 -58 -413l162 -6l-10 -68h-563zM207 1663q0 51 34.5 86t88.5 35q51 0 86 -34t35 -87t-34 -88t-87.5 -35t-88 35t-34.5 88zM606 1663q0 51 35 86 t88 35t87 -34t34 -87t-34 -88t-87 -35t-88 35t-35 88z" />
<glyph unicode="&#x408;" horiz-adv-x="706" d="M-227 -190l16 75q29 -2 51 -2q80 0 156 35t117 88q70 92 114 373l90 579q41 254 54 385l-166 7l12 67h565l-10 -67l-166 -7q-45 -238 -65 -370l-92 -580q-41 -254 -93 -340q-68 -117 -196.5 -182.5t-292.5 -65.5q-4 1 -94 5z" />
<glyph unicode="&#x409;" horiz-adv-x="1853" d="M-70 0l7 39q96 33 197.5 173t160.5 320q47 127 95 370t65 437l-146 11l10 67h1117l-11 -67l-163 -7q-23 -98 -68 -368l-23 -141h86q283 0 402 -84t119 -283q0 -270 -183 -389q-115 -78 -358 -78h-590l12 70l164 6q20 94 68 366l84 533q41 272 47 362h-442l-37 -231 q-82 -500 -157 -718t-228 -396zM1057 78h108q197 0 285 96q100 113 100 301q0 150 -71.5 215.5t-237.5 65.5h-84l-49 -316q-35 -235 -51 -362z" />
<glyph unicode="&#x40a;" horiz-adv-x="1992" d="M-16 0l10 68l164 6q27 117 71 379l78 505q45 295 51 385l-161 7l12 67h559l-10 -67l-162 -7q-25 -119 -68 -370l-28 -178h583l29 182q39 262 49 366l-162 7l11 67h563l-10 -67l-164 -7q-23 -92 -68 -366l-24 -148h90q281 0 400.5 -83.5t119.5 -282.5q0 -270 -182 -385 q-115 -78 -359 -78h-592l13 70l164 6q29 131 67 364l43 275h-584l-38 -260q-43 -281 -52 -381l158 -6l-10 -68h-561zM1194 78h111q195 0 284 96q98 109 99 297q0 150 -72 215.5t-236 65.5h-86l-49 -312q-28 -176 -51 -362z" />
<glyph unicode="&#x40b;" horiz-adv-x="1718" d="M123 1049l59 368h1180l-59 -368h-164l22 290h-303q-35 -158 -72 -397l-26 -166q205 57 362 58q393 0 394 -289q0 -33 -23 -203l-23 -176q-2 -10 -10 -92l156 -6l-10 -68h-557l10 68l164 6q70 326 69 452q0 111 -56 163t-177 52q-147 0 -314 -51l-34 -215 q-43 -305 -54 -401l166 -6l-10 -68h-590l10 68l187 6q27 123 74 401l73 467q33 221 54 397h-265l-67 -290h-166z" />
<glyph unicode="&#x40c;" horiz-adv-x="1294" d="M-16 0l10 68l166 6q23 94 69 379l80 505q47 309 51 385l-163 7l12 67h551l-10 -67l-150 -7q-20 -84 -70 -370l-32 -207h112q100 0 169 47t161 178l244 352l-150 7l10 67h412l-12 -67l-107 -7l-186 -243l-137 -185q-92 -129 -197 -172q131 -33 192.5 -123t96.5 -305 l49 -241l107 -6l-11 -68h-307l-41 254q-41 238 -94 328q-68 109 -283 108h-41l-34 -235q-45 -285 -52 -381l160 -6l-10 -68h-565zM788 1556q80 53 153 126t112 139h180q31 0 31 -15q0 -25 -52.5 -75t-124.5 -93q-119 -70 -270 -133z" />
<glyph unicode="&#x40e;" horiz-adv-x="1267" d="M139 1350l11 67h514l-11 -67l-143 -7q14 -74 86 -301l147 -460l289 499q98 164 148 262l-138 7l13 67h377l-11 -67l-112 -7q-82 -115 -176 -270l-498 -840q-86 -145 -152.5 -192t-183.5 -47q-35 0 -127 6l35 172q59 -8 112 -8q113 0 173 57q37 33 88 107l22 37l-270 757 q-51 143 -88 221zM582 1720q0 39 8 103h78q-2 -10 -2 -27q0 -72 48 -105.5t152 -33.5q115 0 171.5 37t80.5 129h78q-25 -143 -78 -209q-78 -98 -270 -98q-137 0 -201.5 49t-64.5 155z" />
<glyph unicode="&#x40f;" horiz-adv-x="1486" d="M-16 0l10 68l164 6q25 109 67 368l86 533q41 270 47 368l-161 7l12 67h557l-10 -67l-158 -7q-23 -94 -68 -368l-84 -526q-41 -281 -49 -369h553q31 133 68 369l84 526q37 252 47 368l-156 7l11 67h559l-11 -67l-163 -7q-20 -86 -68 -368l-86 -533q-43 -295 -47 -368 l162 -6l-11 -68h-581l-78 -346h-150l35 346h-581z" />
<glyph unicode="&#x410;" horiz-adv-x="1333" d="M-86 0l10 68l115 6q72 113 166 293l350 684q119 217 186 366h123q10 -70 51 -256q8 -25 29 -123l150 -723q20 -100 57 -241l115 -6l-11 -68h-516l11 68l155 6q-8 66 -35 198l-43 217h-456l-72 -141q-100 -201 -133 -276l149 -4l-10 -68h-391zM410 567h403l-111 566z" />
<glyph unicode="&#x411;" horiz-adv-x="1247" d="M-16 0l10 70l164 6q31 137 67 366l86 533q41 293 47 368l-161 7l12 67h973l-60 -368h-166l25 290h-385q-18 -82 -66 -362l-22 -143h86q283 0 401.5 -83t118.5 -282q0 -272 -182 -391q-115 -78 -359 -78h-589zM393 78h109q197 0 284 96q100 113 101 301q0 150 -72 215.5 t-237 65.5h-84l-50 -316q-45 -299 -51 -362z" />
<glyph unicode="&#x412;" horiz-adv-x="1257" d="M-16 0l10 70l164 6q14 55 71 383l72 456q51 315 57 428l-159 7l10 67h459q281 0 387 -57q139 -74 139 -256q0 -160 -90 -249t-283 -120q311 -45 312 -317q0 -209 -160 -326q-131 -92 -398 -92h-591zM395 78h99q205 0 307 96q102 102 102 277q0 127 -74.5 184t-236.5 57 h-109l-39 -252l-30 -213q-2 -10 -8 -61zM496 770h92q199 0 291 92q92 96 92 242q0 125 -74 181t-240 56h-61q-29 -127 -68 -366z" />
<glyph unicode="&#x413;" horiz-adv-x="1136" d="M-16 0l10 68l164 6q25 109 67 368l86 533q39 264 47 368l-161 7l12 67h1028l-59 -368h-166l24 290h-440q-27 -125 -66 -364l-86 -533q-39 -262 -47 -368l170 -6l-12 -68h-571z" />
<glyph unicode="&#x414;" horiz-adv-x="1363" d="M-145 -346l65 414l80 8q82 33 152.5 157.5t150.5 382.5l135 435q59 203 80 286l-153 13l10 67h1067l-10 -67l-164 -7q-20 -80 -68 -368l-84 -533q-41 -268 -49 -368l162 -6l-66 -414h-159l28 346h-936l-82 -346h-159zM164 80h665q27 119 68 366l84 527q39 264 47 364 h-383l-45 -131l-31 -96q-18 -53 -28 -92l-127 -400q-82 -270 -129 -370t-121 -168z" />
<glyph unicode="&#x415;" horiz-adv-x="1169" d="M-16 0l10 68l164 6q23 96 30 151l41 228l78 505q33 213 51 385l-161 7l12 67h993l-59 -368h-166l24 290h-405q-23 -100 -68 -368l-32 -211h458l-14 -82h-457l-34 -221q-45 -301 -52 -379h441l69 291h168l-59 -369h-1032z" />
<glyph unicode="&#x416;" horiz-adv-x="1935" d="M-63 0l10 68l106 6l121 241l43 95q78 172 167 248.5t232 95.5q-53 20 -85.5 59t-69.5 125l-66 164l-33 74q-4 10 -32 73q-6 14 -43 94l-117 7l10 67h402l-13 -67l-137 -7l125 -335q47 -133 108.5 -187.5t161.5 -54.5h74l33 209q43 297 47 368l-145 7l10 67h528l-10 -67 l-150 -7q-29 -125 -67 -368l-35 -209h121q100 0 172 54t151 190l197 333l-135 7l12 67h410l-10 -67l-119 -7q-12 -16 -19 -22l-70 -104l-58 -84l-29 -43l-101 -164q-59 -88 -103 -129t-108 -64q115 -33 172.5 -113.5t90.5 -259.5l55 -286l104 -6l-10 -68h-309l-41 254 q-37 229 -99 328q-72 109 -272 108h-12l-41 -248q-37 -252 -47 -368l145 -6l-10 -68h-528l12 68l147 6q27 117 70 368l39 248h-62q-193 0 -284 -108q-68 -82 -181 -328l-118 -254h-307z" />
<glyph unicode="&#x417;" horiz-adv-x="1142" d="M39 92l84 117q131 -156 338 -156q180 0 262 137q66 104 65 246q0 264 -374 264h-86l12 78h72q207 0 319 74q156 100 156 293q0 104 -62.5 163.5t-171.5 59.5q-102 0 -215 -55l-55 -264h-170l43 305q240 84 424 84q203 0 313.5 -84t110.5 -238q0 -319 -469 -371 q166 -20 242 -69q133 -90 133 -262q0 -223 -160 -340q-129 -94 -367 -94q-282 -1 -444 112z" />
<glyph unicode="&#x418;" horiz-adv-x="1519" d="M-16 0l10 68l164 6q25 109 67 368l86 533q41 270 47 368l-161 7l12 67h555l-10 -67l-162 -7q-23 -109 -68 -368l-98 -633l750 879l5 38.5t3 28.5l4 55l-158 7l12 67h555l-10 -67l-164 -7q-27 -117 -69 -368l-84 -533q-43 -291 -49 -368l161 -6l-10 -68h-555l10 68l160 6 q18 76 70 368l98 623l-752 -877q0 -14 -6 -57q0 -4 -1 -10t-2 -19.5t-3 -27.5l158 -6l-10 -68h-555z" />
<glyph unicode="&#x419;" horiz-adv-x="1519" d="M-16 0l10 68l164 6q25 109 67 368l86 533q41 270 47 368l-161 7l12 67h555l-10 -67l-162 -7q-23 -109 -68 -368l-98 -633l750 879l5 38.5t3 28.5l4 55l-158 7l12 67h555l-10 -67l-164 -7q-27 -117 -69 -368l-84 -533q-43 -291 -49 -368l161 -6l-10 -68h-555l10 68l160 6 q18 76 70 368l98 623l-752 -877q0 -14 -6 -57q0 -4 -1 -10t-2 -19.5t-3 -27.5l158 -6l-10 -68h-555zM643 1720q0 37 8 103h76v-27q0 -72 48 -105.5t153 -33.5q115 0 171 37t81 129h75q-25 -143 -75 -209q-80 -98 -271 -98q-137 0 -201.5 49t-64.5 155z" />
<glyph unicode="&#x41a;" horiz-adv-x="1294" d="M-16 0l10 68l166 6q23 94 69 379l80 505q47 309 51 385l-163 7l12 67h551l-10 -67l-150 -7q-20 -84 -70 -370l-32 -207h112q100 0 169 47t161 178l244 352l-150 7l10 67h412l-12 -67l-107 -7l-186 -243l-137 -185q-92 -129 -197 -172q131 -33 192.5 -123t96.5 -305 l49 -241l107 -6l-11 -68h-307l-41 254q-41 238 -94 328q-68 109 -283 108h-41l-34 -235q-45 -285 -52 -381l160 -6l-10 -68h-565z" />
<glyph unicode="&#x41b;" horiz-adv-x="1359" d="M-70 0l7 39q96 35 198.5 173t159.5 318q47 129 95 371t65 438l-146 11l10 67h1117l-11 -67l-163 -7q-29 -127 -70 -368l-84 -533q-43 -293 -49 -368l162 -6l-11 -68h-563l10 68l164 6q25 100 68 368l84 531q41 264 49 364h-442l-37 -233q-82 -498 -157 -715t-228 -397z " />
<glyph unicode="&#x41c;" horiz-adv-x="1796" d="M-14 0l10 66l156 6q37 184 79 436l80 485q37 231 45 350l-155 7l10 67h418q14 -102 73 -342l172 -708l402 714q137 240 182 336h416l-10 -67l-166 -7q-37 -195 -72 -405l-76 -483q-45 -295 -51 -383l162 -6l-12 -66h-562l11 66l166 6q4 27 30.5 170t36.5 211l72 452 q18 113 33 191q6 35 24 127l-647 -1145h-88l-285 1124l-114 -731q-41 -264 -56 -399l158 -6l-12 -66h-430z" />
<glyph unicode="&#x41d;" horiz-adv-x="1540" d="M-16 0l10 68l166 6q14 63 69 393l72 444q55 360 59 432l-163 7l12 67h559l-10 -67l-164 -7l-74 -423l-24 -158h626l23 149q53 338 61 432l-159 7l10 67h561l-12 -67l-166 -7q-20 -104 -70 -401l-72 -455q-49 -313 -59 -413l164 -6l-10 -68h-562l11 68l164 6q18 82 69 393 l35 215h-627l-30 -195q-53 -369 -58 -413l160 -6l-10 -68h-561z" />
<glyph unicode="&#x41e;" horiz-adv-x="1497" d="M133 578q0 158 52.5 317.5t144.5 278.5q203 264 544 264q256 0 396 -146q156 -160 155 -440q0 -350 -196 -604q-205 -268 -545 -268q-262 0 -406.5 156.5t-144.5 441.5zM362 502q0 -223 81 -338t239 -115q248 0 387 287q57 117 92 278.5t35 309.5q0 217 -81 330.5 t-236 113.5q-236 0 -381 -274q-59 -111 -97.5 -278t-38.5 -314z" />
<glyph unicode="&#x41f;" horiz-adv-x="1488" d="M-16 0l10 68l164 6q25 109 67 368l86 533q41 266 47 368l-161 7l12 67h1358l-13 -67l-161 -7q-25 -92 -70 -368l-84 -533q-41 -279 -49 -368l162 -6l-11 -68h-561l13 68l159 6q29 133 68 368l84 527q43 295 47 368h-555q-23 -100 -68 -368l-84 -527q-41 -274 -47 -368 l158 -6l-10 -68h-561z" />
<glyph unicode="&#x420;" horiz-adv-x="1185" d="M-16 0l10 68l166 6q14 68 69 393l72 444q55 356 59 432l-163 7l12 67h471q158 0 234.5 -13t136.5 -52q135 -90 135 -281q0 -236 -162 -352q-131 -94 -410 -94h-141l-20 -136l-43 -292q-10 -74 -15 -123l187 -6l-11 -68h-587zM485 702h64q113 0 178.5 21.5t116.5 73.5 q113 113 112 301q0 244 -301 243h-63q-23 -102 -68 -401z" />
<glyph unicode="&#x421;" horiz-adv-x="1302" d="M129 543q0 168 52 332.5t145 287.5q207 276 563 277q219 0 432 -99l-47 -294h-166l18 239q-102 74 -221 74q-268 0 -426 -320q-53 -106 -86 -255.5t-33 -284.5q0 -205 93.5 -323t257.5 -118q115 0 245 62l60 252h170l-49 -305q-233 -88 -432 -88q-272 0 -424 148.5 t-152 414.5z" />
<glyph unicode="&#x422;" horiz-adv-x="1191" d="M111 1049l59 368h1141l-60 -368h-164l23 290h-264q-37 -188 -72 -401l-72 -451q-47 -315 -57 -413l184 -6l-10 -68h-608l10 68l189 6l73 411l68 439q47 297 57 415h-264l-68 -290h-165z" />
<glyph unicode="&#x423;" horiz-adv-x="1267" d="M139 1350l11 67h514l-11 -67l-143 -7q14 -74 86 -301l147 -460l289 499q98 164 148 262l-138 7l13 67h377l-11 -67l-112 -7q-82 -115 -176 -270l-498 -840q-86 -145 -152.5 -192t-183.5 -47q-35 0 -127 6l35 172q59 -8 112 -8q113 0 173 57q37 33 88 107l22 37l-270 757 q-51 143 -88 221z" />
<glyph unicode="&#x424;" horiz-adv-x="1771" d="M139 653q0 295 206 470t560 186q16 98 23 182l-162 6l10 68h551l-10 -68l-164 -6q-18 -76 -37 -191q272 -25 425 -168t153 -374q0 -291 -207 -467t-559 -187q-16 -100 -23 -178l162 -6l-10 -67h-551l10 67l164 6q20 92 37 185q-272 23 -425 166t-153 376zM369 618 q0 -381 362 -436l166 1055q-240 -10 -384 -180.5t-144 -438.5zM936 176q244 10 386 178t142 443q0 379 -362 432z" />
<glyph unicode="&#x425;" horiz-adv-x="1302" d="M-86 0l10 68l115 6q49 49 67 71l123 140l346 401l-161 367l-47 96l-45 92q-31 66 -54 102l-116 7l10 67h512l-10 -67l-132 -7q23 -82 130 -309l83 -182l226 262q139 164 182 229l-125 7l10 67h385l-10 -67l-115 -7l-215 -231l-292 -340l184 -412l90 -190q43 -86 49 -96 l121 -6l-10 -68h-514l12 68l123 6q-31 92 -101 241l-124 283l-281 -336q-92 -111 -150 -188l136 -6l-11 -68h-401z" />
<glyph unicode="&#x426;" horiz-adv-x="1486" d="M-16 0l10 68l164 6q25 109 67 368l86 533q41 270 47 368l-161 7l12 67h559l-12 -67l-158 -7q-23 -94 -68 -368l-84 -526q-41 -281 -49 -369h553q31 133 68 369l84 526q37 252 47 368l-156 7l11 67h559l-11 -67l-163 -7q-20 -86 -68 -368l-86 -533q-43 -295 -47 -368 l162 -6l-66 -414h-160l29 346h-1169z" />
<glyph unicode="&#x427;" horiz-adv-x="1431" d="M152 1350l10 67h561l-12 -67l-162 -7q-88 -385 -88 -573q0 -139 72.5 -203.5t228.5 -64.5q98 0 219 47l68 426q31 211 49 368l-160 7l12 67h559l-10 -67l-164 -7q-29 -127 -67 -368l-84 -533q-39 -248 -49 -368l161 -6l-10 -68h-571l10 68l170 6q25 98 68 362l4 27 q-127 -49 -271 -49q-217 0 -333.5 96t-116.5 274q0 88 28 281q29 199 35 278z" />
<glyph unicode="&#x428;" horiz-adv-x="2150" d="M-16 0l10 68l164 6q25 109 67 368l86 533q41 270 47 368l-161 7l12 67h557l-10 -67l-158 -7q-23 -94 -68 -368l-84 -526q-41 -281 -49 -369h490q31 133 67 369l84 526q39 260 49 368l-157 7l10 67h555l-12 -67l-158 -7q-20 -86 -68 -368l-83 -531q-45 -303 -50 -364h490 q27 115 69 369l82 526q45 289 50 368l-156 7l10 67h559l-10 -67l-164 -7q-18 -70 -69 -368l-84 -533q-39 -254 -50 -368l162 -6l-10 -68h-2019z" />
<glyph unicode="&#x429;" horiz-adv-x="2150" d="M-16 0l10 68l164 6q25 109 67 368l86 533q41 270 47 368l-161 7l12 67h557l-10 -67l-158 -7q-23 -94 -68 -368l-84 -526q-41 -281 -49 -369h490q31 133 67 369l84 526q39 260 49 368l-157 7l10 67h555l-12 -67l-158 -7q-20 -86 -68 -368l-83 -531q-45 -303 -50 -364h490 q27 115 69 369l82 526q45 289 50 368l-156 7l10 67h559l-10 -67l-164 -7q-18 -70 -69 -368l-84 -533q-39 -254 -50 -368l162 -6l-65 -414h-158l27 346h-1833z" />
<glyph unicode="&#x42a;" horiz-adv-x="1449" d="M86 1049l59 368h873l-10 -67l-164 -7q-20 -90 -68 -368l-22 -141h86q283 0 401.5 -83t118.5 -282q0 -272 -182 -391q-115 -78 -357 -78h-592l13 70l164 6q33 152 67 366l84 533q41 264 47 364h-285l-67 -290h-166zM639 78h109q197 0 284 96q100 113 101 301 q0 150 -72 215.5t-238 65.5h-84l-49 -316q-43 -292 -51 -362z" />
<glyph unicode="&#x42b;" horiz-adv-x="1845" d="M-16 0l10 70l164 6q27 106 67 366l86 535q39 260 47 366l-161 7l12 67h563l-10 -67l-164 -7q-27 -123 -68 -366l-22 -143h86q283 0 401.5 -84t118.5 -283q0 -270 -182 -389q-115 -78 -359 -78h-589zM393 78h109q197 0 284 96q100 113 101 301q0 150 -72 215.5t-237 65.5 h-84l-50 -316q-45 -299 -51 -362zM1133 0l12 68l164 6q23 102 69 379l78 505q37 236 53 385l-161 7l10 67h563l-10 -67l-164 -7q-29 -131 -68 -370l-82 -518q-45 -297 -51 -381l162 -6l-10 -68h-565z" />
<glyph unicode="&#x42c;" horiz-adv-x="1187" d="M-16 0l10 70l164 6q27 106 67 366l86 535q39 260 47 366l-161 7l12 67h563l-10 -67l-164 -7q-27 -123 -68 -366l-22 -143h86q283 0 401.5 -84t118.5 -283q0 -270 -182 -389q-115 -78 -359 -78h-589zM393 78h109q197 0 284 96q100 113 101 301q0 150 -72 215.5t-237 65.5 h-84l-50 -316q-45 -299 -51 -362z" />
<glyph unicode="&#x42d;" horiz-adv-x="1239" d="M39 92l84 115q127 -143 332 -144q354 0 448 615h-512l12 82h510q10 84 11 160q0 213 -70 325.5t-201 112.5q-109 0 -219 -78l-55 -231h-166l45 288q209 100 397 101q244 0 371 -148.5t127 -435.5q0 -389 -182 -633q-182 -242 -504 -241q-272 -1 -428 112z" />
<glyph unicode="&#x42e;" horiz-adv-x="2172" d="M-16 0l10 68l164 6q29 127 71 379l78 505q45 295 51 385l-161 7l12 67h559l-10 -67l-162 -7q-29 -147 -68 -370l-32 -211h376q49 242 175 412q201 264 526 264q248 0 381 -146q147 -160 147 -436q0 -350 -192 -610q-201 -266 -525 -266q-250 0 -390 154.5t-140 430.5 q0 57 8 117h-379l-34 -227q-43 -266 -52 -381l158 -6l-10 -68h-561zM1083 494q0 -217 75 -331t220 -114q236 0 369 287q55 119 90 283.5t35 312.5q0 213 -76 324.5t-221 111.5q-219 0 -361 -274q-57 -113 -94 -284t-37 -316z" />
<glyph unicode="&#x42f;" horiz-adv-x="1310" d="M-63 0l10 68l121 6l100 237q84 217 154.5 294t205.5 100q-283 35 -282 311q0 106 45 193t127 139q111 70 338 69h633l-11 -67l-164 -7q-23 -104 -69 -368l-84 -535q-39 -246 -49 -366l162 -6l-11 -68h-563l10 68l164 6q23 90 70 366l33 217h-99q-178 0 -253.5 -96 t-157.5 -309l-97 -252h-333zM473 983q0 -129 74 -189.5t231 -60.5h111l96 608h-104q-123 0 -186.5 -15t-110.5 -58q-111 -95 -111 -285z" />
<glyph unicode="&#x430;" horiz-adv-x="1212" d="M96 397q0 248 121 447q61 102 155.5 159.5t205.5 57.5q182 0 288 -170l29 149h203q-53 -274 -70 -387l-63 -399q-12 -92 -13 -107q0 -31 15.5 -50t40.5 -19q37 0 116 41l29 -53q-143 -86 -260 -86q-139 0 -139 124q0 18 2 37q-74 -88 -145.5 -124.5t-170.5 -36.5 q-164 0 -254 109t-90 308zM317 375q0 -127 53.5 -206t137.5 -79q127 0 250 156l84 542q-74 162 -207 162q-145 0 -242 -211q-76 -157 -76 -364z" />
<glyph unicode="&#x431;" horiz-adv-x="1167" d="M117 395q0 115 39 328t84 342q84 246 269 342t609 113l-14 -144q-86 4 -180 4q-184 0 -277.5 -36.5t-146.5 -131.5q-66 -115 -103 -317q86 92 158 129t166 37q168 0 259 -109.5t91 -314.5q0 -279 -133 -461q-143 -197 -403 -196q-197 0 -307.5 109t-110.5 306zM324 342 q0 -295 198 -295q164 0 252 219q78 199 78 389q0 139 -50 219t-138 80q-141 0 -285 -182l-37 -229q-18 -111 -18 -201z" />
<glyph unicode="&#x432;" horiz-adv-x="1148" d="M98 385q0 137 44 271.5t120 222.5q158 182 418 182q170 0 263 -58.5t93 -164.5q0 -82 -49 -132.5t-166 -87.5q-4 0 -16 -6q219 -49 219 -254q0 -172 -136 -275t-362 -103q-233 0 -340 131q-88 106 -88 274zM317 344q0 -297 218 -297q156 0 229 152q49 104 49 215 q0 147 -205 147q-53 0 -272 -20q-19 -119 -19 -197zM350 618q217 0 342 44q72 27 103.5 68.5t31.5 111.5q0 152 -149 151q-162 0 -254 -178q-51 -101 -74 -197z" />
<glyph unicode="&#x433;" horiz-adv-x="983" d="M47 221q0 137 111 217q55 43 258 109q180 55 229 110q53 57 53 148q0 82 -44 130t-119 48q-115 0 -277 -102l-37 102q184 80 367 80q158 0 244 -61.5t86 -176.5q0 -119 -89 -200q-70 -63 -278 -129q-121 -37 -162 -55.5t-65 -43.5q-55 -55 -56 -149q0 -88 48.5 -138.5 t129.5 -50.5q129 0 334 109l43 -109q-223 -80 -424 -79q-352 -1 -352 241z" />
<glyph unicode="&#x434;" horiz-adv-x="1161" d="M98 412q0 143 42 275t116 218q127 158 344 158q203 0 277 -137q4 43 4 90q0 205 -78 289t-266 84q-61 0 -160 -13l10 144q283 -16 432 -93q262 -131 262 -516q0 -422 -108 -663q-59 -129 -176 -198.5t-273 -69.5q-201 0 -313.5 113.5t-112.5 318.5zM317 365 q0 -150 51.5 -234t143.5 -84q170 0 258 229q25 63 36 123t44 289q-14 287 -201 287q-162 0 -256 -213q-76 -168 -76 -397z" />
<glyph unicode="&#x435;" horiz-adv-x="1087" d="M100 397q0 274 129 459q141 205 394 205q203 0 299 -109q80 -88 79 -268q0 -72 -14 -158h-655q-12 -78 -13 -145q0 -154 65 -234.5t187 -80.5q137 0 275 86l39 -68q-96 -59 -176 -81.5t-187 -22.5q-201 0 -311.5 109t-110.5 308zM342 596h432l2 20q12 94 12 140 q0 238 -153 237q-104 0 -180 -102t-113 -295z" />
<glyph unicode="&#x436;" horiz-adv-x="1978" d="M-20 37l47 264h159l-18 -221q39 -31 74 -31q117 0 186 223q59 182 59 392q0 311 -151 311q-78 0 -184 -84l-41 92q119 78 256 78q160 0 243.5 -111.5t83.5 -324.5q0 -31 -2 -56h201l16 103l15 108l18 121q8 70 14 139h213q-27 -104 -69 -368l-15 -103h195 q39 238 149.5 365t280.5 127q143 0 270 -57l-47 -265h-159l18 222q-37 31 -72 30q-115 0 -188 -223q-59 -184 -59 -391q0 -311 153 -311q84 0 189 75l38 -86q-119 -76 -260 -75q-158 0 -242.5 111.5t-84.5 316.5q0 18 4 92h-197l-20 -131q-41 -279 -49 -369h-211 q23 86 67 369l23 131h-197q-29 -244 -144.5 -382t-289.5 -138q-141 0 -272 57z" />
<glyph unicode="&#x437;" horiz-adv-x="985" d="M14 82l80 96q59 -70 119.5 -97.5t151.5 -27.5q123 0 193.5 75t70.5 204q0 92 -45 129t-156 37h-106l10 67h88q133 0 190 41q90 63 90 213q0 172 -192 172q-90 0 -150 -33l-53 -213h-164l35 254q166 61 336 62q195 0 297 -71.5t102 -209.5q0 -178 -188 -254 q127 -68 127 -221q0 -86 -41 -158.5t-113 -111.5q-104 -57 -284 -58q-267 1 -398 105z" />
<glyph unicode="&#x438;" horiz-adv-x="1263" d="M125 973l10 67l369 11q-66 -354 -78 -435l-27 -170q-20 -127 -20 -198q0 -158 129 -158q141 0 305 193l109 682l-148 8l10 67l369 11q-6 -41 -15 -89l-18 -94q-25 -129 -45 -250l-31 -190l-12 -94q-2 -23 -7 -64l-7 -57l-14 -139l141 -6l-10 -68h-355l21 168 q-106 -106 -189.5 -147t-185.5 -41q-121 0 -189.5 67.5t-68.5 185.5q0 66 31 263l16 102q33 221 51 369z" />
<glyph unicode="&#x439;" horiz-adv-x="1263" d="M125 973l10 67l369 11q-66 -354 -78 -435l-27 -170q-20 -127 -20 -198q0 -158 129 -158q141 0 305 193l109 682l-148 8l10 67l369 11q-6 -41 -15 -89l-18 -94q-25 -129 -45 -250l-31 -190l-12 -94q-2 -23 -7 -64l-7 -57l-14 -139l141 -6l-10 -68h-355l21 168 q-106 -106 -189.5 -147t-185.5 -41q-121 0 -189.5 67.5t-68.5 185.5q0 66 31 263l16 102q33 221 51 369zM451 1399q0 39 8 102h76q0 -90 34 -123q49 -43 166 -43q115 0 170.5 37t81.5 129h76q-29 -170 -105.5 -238.5t-240.5 -68.5q-137 0 -201.5 49.5t-64.5 155.5z" />
<glyph unicode="&#x43a;" horiz-adv-x="1126" d="M113 0q39 186 89 506.5t64 460.5l-141 6l10 67l371 11q-39 -203 -76 -420l-10 -64h80q82 0 129 30t116 126l181 246l-115 6l10 65h338l-10 -65l-84 -6q-33 -37 -55 -66q-12 -18 -43 -53q-2 -4 -18 -24l-23 -29l-107 -138q-63 -80 -137 -108q106 -29 148 -88.5t75 -229.5 l33 -163l92 -4l-10 -66h-281l-32 186q-33 184 -84.5 250t-161.5 66h-51l-15 -88q-37 -242 -55 -414h-227z" />
<glyph unicode="&#x43b;" horiz-adv-x="1134" d="M-39 35v22q180 139 265 342t118 566l-121 8l10 67h928l-10 -67l-145 -6q-41 -211 -87.5 -509t-50.5 -384l140 -6l-13 -68h-354q6 41 11 88t7 57l23 143l23 144l16 100q55 360 59 439h-305q-35 -377 -108.5 -593t-231.5 -392z" />
<glyph unicode="&#x43c;" horiz-adv-x="1558" d="M-27 33v14q246 250 310 920l-140 6l11 67h376q27 -106 72 -258l146 -483l301 487q115 184 149 254h367l-13 -67l-133 -6q-41 -207 -84 -494t-51 -399l137 -6l-10 -68h-344q20 162 53 365l74 469l-481 -777h-103l-231 781q-76 -639 -225 -856z" />
<glyph unicode="&#x43d;" horiz-adv-x="1306" d="M125 0q31 125 88 489.5t66 477.5l-142 6l13 67l370 11q-37 -180 -67 -361l-19 -121h453l18 111q41 283 47 360h230q-41 -186 -94.5 -524t-57.5 -442l137 -6l-10 -68h-354q12 92 61 426l13 74h-453l-23 -131q-41 -285 -47 -369h-229z" />
<glyph unicode="&#x43e;" horiz-adv-x="1187" d="M100 410q0 127 41 252.5t111 211.5q150 186 410 187q205 0 315 -109.5t110 -310.5q0 -276 -145 -469q-150 -193 -418 -192q-207 0 -315.5 110.5t-108.5 319.5zM319 354q0 -307 205 -307q172 0 264 223q80 195 80 420q0 303 -202 303q-166 0 -256 -205q-91 -190 -91 -434z " />
<glyph unicode="&#x43f;" horiz-adv-x="1263" d="M113 0q29 139 86 471l20 139q35 213 43 357l-135 6l12 67l346 11l-20 -179q117 109 197.5 149t181.5 40q117 0 184.5 -67.5t67.5 -182.5q0 -74 -31 -274l-16 -95q-37 -256 -45 -368l137 -6l-11 -68h-352q14 133 62 438l16 105q29 176 29 241q0 154 -131 154 q-135 0 -301 -178l-43 -279q-53 -332 -70 -481h-227z" />
<glyph unicode="&#x440;" horiz-adv-x="1226" d="M43 -440l18 102q68 367 70 387l86 549q37 289 43 369l-133 6l10 67l346 11l-14 -140q82 82 153.5 116t165.5 34q162 0 251 -109.5t89 -306.5q0 -276 -133 -473q-129 -193 -344 -192q-104 0 -172.5 36.5t-126.5 120.5l-18 -127q-53 -330 -64 -450h-227zM371 252 q84 -166 217 -166q154 0 250 225q72 160 71 353q0 293 -186 292q-129 0 -268 -163z" />
<glyph unicode="&#x441;" horiz-adv-x="976" d="M100 406q0 274 142 458q154 197 426 197q166 0 311 -57l-47 -265h-164l18 222q-55 31 -106 30q-180 0 -283 -229q-76 -168 -75 -377q0 -152 65.5 -235.5t181.5 -83.5q111 0 246 71l29 -71q-137 -86 -309 -86q-205 0 -320 112.5t-115 313.5z" />
<glyph unicode="&#x442;" horiz-adv-x="1077" d="M55 739l49 301h1035l-49 -301h-160l12 224h-219q-41 -201 -85 -476.5t-56 -412.5l172 -6l-11 -68h-573l10 68l174 6q39 178 82 456.5t58 432.5h-220l-57 -224h-162z" />
<glyph unicode="&#x443;" horiz-adv-x="1081" d="M-86 -438l51 147q55 -20 111 -20q121 0 205 96q63 72 106 162l23 45l-150 663q-8 37 -20 85l-20 78l-9 38q-23 84 -31 111l-98 6l10 67h443l-11 -67l-108 -6q8 -82 49 -275l96 -430l232 436q115 211 135 271l-154 4l10 67h375l-10 -67l-100 -6q-92 -150 -183 -318 l-407 -749q-82 -154 -174 -250q-104 -100 -252 -101q-66 1 -119 13z" />
<glyph unicode="&#x444;" horiz-adv-x="1683" d="M98 412q0 242 109 426q129 223 358 223q82 0 138.5 -27.5t113.5 -95.5l19 117q43 293 47 368l-138 7l11 67l344 10l-10 -59l-25 -123q-6 -31 -24.5 -137.5t-20.5 -120.5l-21 -129q72 72 126.5 97.5t129.5 25.5q156 0 244 -115t88 -315q0 -264 -117 -457 q-119 -195 -331 -194q-172 0 -271 126l-24 -159q-41 -258 -51 -387h-205q33 166 67 364l29 182q-57 -70 -113.5 -98t-134.5 -28q-158 0 -248 115.5t-90 316.5zM305 393q0 -143 51.5 -225t139.5 -82q104 0 209 137l94 600q-72 133 -178 133q-156 0 -246 -213 q-70 -160 -70 -350zM887 223q76 -137 196 -137q145 0 234 221q63 170 63 346q0 143 -48 223t-134 80q-109 0 -217 -139z" />
<glyph unicode="&#x445;" horiz-adv-x="1067" d="M-74 0l11 68l104 4q49 45 215 233l182 203l-100 215q-78 166 -119 244l-110 6l10 67h461l-11 -67l-108 -6q10 -37 78 -191l59 -131l145 170q94 106 125 152l-123 6l11 67h358l-10 -67l-107 -6q-106 -104 -170 -176l-194 -222l135 -295q78 -156 102 -200l105 -6l-10 -68 h-467l10 68l119 6q-16 49 -72 176l-82 180l-164 -190l-133 -166l111 -6l-11 -68h-350z" />
<glyph unicode="&#x446;" horiz-adv-x="1263" d="M125 973l10 67l369 11q-66 -354 -78 -435l-27 -170q-20 -127 -20 -198q0 -158 129 -158q141 0 305 193l109 682l-148 8l10 67l369 11q-6 -41 -15 -89l-18 -94q-25 -129 -45 -250l-31 -190l-12 -94q-2 -23 -7 -64l-7 -57l-14 -139l157 -6l-65 -414h-156l33 346h-193 l21 168q-106 -106 -189.5 -147t-185.5 -41q-121 0 -189.5 67.5t-68.5 185.5q0 66 31 263l16 102q33 221 51 369z" />
<glyph unicode="&#x447;" horiz-adv-x="1193" d="M94 973l10 67l351 11q-12 -53 -27 -140q-4 -18 -11 -59t-11 -61q-27 -160 -27 -218q0 -197 217 -196q82 0 154 31l30 190q33 211 49 369l-127 6l11 67l358 11q-39 -184 -93 -522.5t-63 -454.5l142 -6l-13 -68h-516l13 68l147 6q27 127 43 227l4 27l-16 -4 q-88 -23 -170 -23q-182 0 -278.5 71.5t-96.5 209.5q0 33 35 301q6 41 8 84z" />
<glyph unicode="&#x448;" horiz-adv-x="1869" d="M125 973l10 67l361 11q-39 -262 -58 -373q-57 -354 -57 -422q0 -154 131 -154q125 0 281 170l43 283l47 311q14 92 22 174h225q-121 -625 -120 -780q0 -158 123 -158q135 0 286 170l49 322q41 266 50 373l-140 6l11 67l362 11l-94 -600q-43 -309 -47 -377l135 -6l-12 -68 l-347 -10l19 166q-102 -96 -183 -136t-175 -40q-215 0 -244 202q-117 -115 -199 -158.5t-180 -43.5q-119 0 -185.5 67.5t-66.5 185.5q0 76 31 271l12 90q43 281 47 373z" />
<glyph unicode="&#x449;" horiz-adv-x="1869" d="M125 973l10 67l361 11q-39 -262 -58 -373q-57 -354 -57 -422q0 -154 131 -154q125 0 281 170l43 283l47 311q14 92 22 174h225q-121 -625 -120 -780q0 -158 123 -158q135 0 286 170l49 322q41 266 50 373l-140 6l11 67l362 11l-94 -600q-43 -309 -47 -377l149 -6 l-65 -414h-156l33 346h-182l16 156q-102 -96 -183 -136t-175 -40q-215 0 -244 202q-117 -115 -199 -158.5t-180 -43.5q-119 0 -185.5 67.5t-66.5 185.5q0 76 31 271l12 90q43 281 47 373z" />
<glyph unicode="&#x44a;" horiz-adv-x="1298" d="M16 739l43 301h648q-49 -145 -97 -403q139 92 287 92q322 0 322 -303q0 -109 -38 -202t-104 -150q-113 -94 -334 -94q-199 0 -291 81.5t-92 257.5q0 203 113 654h-246l-53 -234h-158zM565 293q0 -246 174 -246q139 0 213 152q55 111 56 247q0 199 -166 199 q-125 0 -250 -117q-27 -169 -27 -235z" />
<glyph unicode="&#x44b;" horiz-adv-x="1660" d="M127 973l10 67l371 11q-55 -186 -96 -414q135 92 286 92q322 0 322 -303q0 -109 -38 -202t-103 -150q-113 -94 -334 -94q-201 0 -292 80.5t-91 258.5q0 197 110 648zM367 293q0 -246 174 -246q141 0 213 152q55 111 55 245q0 201 -166 201q-121 0 -250 -117 q-26 -161 -26 -235zM1157 0q10 39 29 154q23 121 45 272l29 172q39 276 49 369l-142 6l13 67l370 9q-45 -229 -75 -420l-35 -203q-39 -270 -56 -426h-227z" />
<glyph unicode="&#x44c;" horiz-adv-x="1099" d="M127 973l10 67l371 11q-55 -186 -96 -414q135 92 286 92q322 0 322 -303q0 -109 -38 -202t-103 -150q-113 -94 -334 -94q-201 0 -292 80.5t-91 258.5q0 197 110 648zM367 293q0 -246 174 -246q141 0 213 152q55 111 55 245q0 201 -166 201q-121 0 -250 -117 q-26 -161 -26 -235z" />
<glyph unicode="&#x44d;" horiz-adv-x="1032" d="M14 82l80 96q106 -119 273 -119q100 0 166.5 55.5t115.5 182.5q31 84 51 203h-413l10 69h414q6 78 6 117q0 305 -211 305q-74 0 -148 -33l-53 -215h-164l35 258q166 59 340 60q197 0 295 -92q125 -115 125 -338q0 -276 -123 -463q-125 -188 -403 -188q-259 0 -396 102z " />
<glyph unicode="&#x44e;" horiz-adv-x="1736" d="M125 0q31 129 87 487.5t67 479.5l-142 6l13 67l370 11q-37 -180 -67 -361l-19 -121h275q47 240 180 366t338 126q195 0 301 -109.5t106 -310.5q0 -279 -141 -469q-145 -193 -403 -192q-193 0 -294.5 109.5t-101.5 316.5q0 16 4 94h-274l-23 -131q-41 -285 -47 -369h-229z M913 352q0 -305 179 -305q158 0 247 221q76 197 76 422q0 303 -186 303q-150 0 -234 -205q-82 -198 -82 -436z" />
<glyph unicode="&#x44f;" horiz-adv-x="1198" d="M-53 0l10 68l98 4l74 166q63 150 109.5 199.5t138.5 68.5q-197 39 -197 229q0 172 137 254q94 51 279 51h590l-10 -65l-129 -6q-41 -217 -86.5 -509t-51.5 -386l140 -6l-13 -68h-352q14 119 18 150q29 184 41 276l9 41h-136q-121 0 -180 -68q-53 -59 -119 -219l-71 -180 h-299zM395 721q0 -186 223 -186h144l10 69q41 291 49 369h-157q-113 0 -170 -37q-99 -61 -99 -215z" />
<glyph unicode="&#x451;" horiz-adv-x="1087" d="M100 397q0 274 129 459q141 205 394 205q203 0 299 -109q80 -88 79 -268q0 -72 -14 -158h-655q-12 -78 -13 -145q0 -154 65 -234.5t187 -80.5q137 0 275 86l39 -68q-96 -59 -176 -81.5t-187 -22.5q-201 0 -311.5 109t-110.5 308zM342 596h432l2 20q12 94 12 140 q0 238 -153 237q-104 0 -180 -102t-113 -295zM365 1386q0 51 34.5 86t88 35t87 -34.5t33.5 -86.5q0 -53 -33.5 -87.5t-87 -34.5t-88 34.5t-34.5 87.5zM764 1386q0 51 35 86t88 35q51 0 86 -34.5t35 -86.5q0 -53 -34 -87.5t-87 -34.5t-88 34.5t-35 87.5z" />
<glyph unicode="&#x452;" horiz-adv-x="1261" d="M113 0l84 471l114 727h-157l12 78h153q8 55 17 149l-143 7l10 65l372 12q-4 -29 -11 -66.5t-11 -62.5q-8 -49 -18 -104h260l-13 -78h-262l-51 -319q104 100 188 141t185 41q117 0 185.5 -67.5t68.5 -184.5q0 -61 -31 -264l-39 -244q-51 -328 -99 -448.5t-161 -202.5 q-133 -88 -356 -90l14 69q74 8 125 31t92 66t71.5 121.5t55.5 184t49 267.5l47 291q23 135 23 198q0 72 -35 111t-98 39q-70 0 -151 -48t-152 -132l-43 -277q-49 -324 -68 -481h-227z" />
<glyph unicode="&#x453;" horiz-adv-x="983" d="M47 221q0 137 111 217q55 43 258 109q180 55 229 110q53 57 53 148q0 82 -44 130t-119 48q-115 0 -277 -102l-37 102q184 80 367 80q158 0 244 -61.5t86 -176.5q0 -119 -89 -200q-70 -63 -278 -129q-121 -37 -162 -55.5t-65 -43.5q-55 -55 -56 -149q0 -88 48.5 -138.5 t129.5 -50.5q129 0 334 109l43 -109q-223 -80 -424 -79q-352 -1 -352 241zM512 1253q80 53 152.5 126t111.5 139h180q31 0 31 -15q0 -25 -52 -75t-124 -93q-119 -70 -270 -133z" />
<glyph unicode="&#x454;" horiz-adv-x="1032" d="M94 385q0 293 135 477q141 199 420 199q205 0 359 -60l-45 -258h-166l18 215q-66 33 -145 33q-250 0 -332 -422h414l-11 -69h-415q-12 -94 -13 -150q0 -291 226 -291q86 0 150.5 27t139.5 92l52 -96q-143 -102 -371 -102q-416 -1 -416 405z" />
<glyph unicode="&#x455;" horiz-adv-x="954" d="M35 47l45 252h164l-15 -203q72 -47 168 -47q104 0 171 60.5t67 156.5q0 72 -47 107q-25 18 -168 71q-158 57 -221.5 121t-63.5 166q0 150 113.5 241t298.5 91q178 0 325 -68l-45 -250h-159l14 209q-61 39 -147 39q-96 0 -161 -58t-65 -147q0 -63 42 -97t190 -87 q160 -57 209 -100q76 -66 75 -189q0 -156 -115.5 -245.5t-314.5 -89.5q-180 -1 -360 67z" />
<glyph unicode="&#x456;" horiz-adv-x="616" d="M113 0q100 500 153 967l-139 6l10 67l369 11q-102 -514 -166 -1051h-227zM317 1389q0 53 36 88.5t89.5 35.5t89 -34.5t35.5 -87.5q0 -55 -34.5 -91t-90.5 -36q-53 0 -89 35t-36 90z" />
<glyph unicode="&#x457;" horiz-adv-x="610" d="M98 1386q0 51 35 86t88 35t87 -34.5t34 -86.5q0 -53 -34 -87.5t-87 -34.5t-88 34.5t-35 87.5zM111 0q23 102 82 453l20 141q35 233 51 373l-139 6l10 67l371 11q-35 -172 -82 -439l-23 -153q-57 -381 -63 -459h-227zM498 1386q0 51 34.5 86t88.5 35q51 0 85.5 -34.5 t34.5 -86.5q0 -53 -33.5 -87.5t-87 -34.5t-88 34.5t-34.5 87.5z" />
<glyph unicode="&#x458;" horiz-adv-x="616" d="M-240 -440l15 65q156 -2 237 88q45 51 71 136t60 298l72 451q27 170 51 369l-153 6l10 67l383 11q-53 -270 -90 -506l-66 -406q-33 -201 -57.5 -282.5t-69.5 -143.5q-123 -160 -377 -159q-37 0 -86 6zM319 1391q0 53 36 87.5t89 34.5q55 0 90 -35.5t35 -88.5 q0 -55 -34.5 -90t-88.5 -35q-57 0 -92 35t-35 92z" />
<glyph unicode="&#x459;" horiz-adv-x="1634" d="M-39 35v22q180 139 265 342t118 566l-121 8l10 67h809q-51 -166 -94 -405q133 92 285 92q322 0 321 -303q0 -109 -37.5 -202t-103.5 -148q-113 -94 -334 -94q-201 0 -292 80.5t-91 258.5q0 193 113 652h-334q-35 -377 -108.5 -593t-231.5 -392zM901 293q0 -246 174 -246 q137 0 213 150q55 111 55 247q0 199 -165 199q-123 0 -250 -115q-27 -159 -27 -235z" />
<glyph unicode="&#x45a;" horiz-adv-x="1781" d="M125 0q31 125 88 489.5t66 477.5l-142 6l13 67l370 11q-37 -180 -67 -361l-19 -121h434q29 180 86 398l-147 6l10 67l371 11q-53 -186 -94 -414q131 92 284 92q322 0 322 -303q0 -231 -141 -352q-113 -94 -334 -94q-201 0 -292 80.5t-91 258.5q0 78 14 181h-432l-23 -131 q-41 -285 -47 -369h-229zM1047 293q0 -246 174 -246q141 0 213 152q55 111 55 245q0 201 -166 201q-123 0 -248 -117q-28 -163 -28 -235z" />
<glyph unicode="&#x45b;" horiz-adv-x="1263" d="M113 0q31 145 86 471l112 727h-157l12 78h156q0 2 6 53t10 96l-145 7l12 65l373 12l-25 -129q-8 -49 -18 -104h262l-13 -78h-264l-49 -319l16 14q111 96 186 132t169 36q119 0 186.5 -67.5t67.5 -182.5q0 -78 -31 -274l-16 -95q-35 -256 -45 -368l137 -6l-11 -68h-354 q6 37 11.5 82t7.5 57l43 285l14 88q33 225 33 272q0 154 -131 154q-135 0 -301 -178l-43 -279q-43 -264 -70 -481h-227z" />
<glyph unicode="&#x45c;" horiz-adv-x="1126" d="M113 0q39 186 89 506.5t64 460.5l-141 6l10 67l371 11q-39 -203 -76 -420l-10 -64h80q82 0 129 30t116 126l181 246l-115 6l10 65h338l-10 -65l-84 -6q-33 -37 -55 -66q-12 -18 -43 -53q-2 -4 -18 -24l-23 -29l-107 -138q-63 -80 -137 -108q106 -29 148 -88.5t75 -229.5 l33 -163l92 -4l-10 -66h-281l-32 186q-33 184 -84.5 250t-161.5 66h-51l-15 -88q-37 -242 -55 -414h-227zM582 1253q80 53 152.5 126t111.5 139h180q31 0 31 -15q0 -25 -52.5 -75t-123.5 -93q-119 -70 -271 -133z" />
<glyph unicode="&#x45e;" horiz-adv-x="1081" d="M-86 -438l51 147q55 -20 111 -20q121 0 205 96q63 72 106 162l23 45l-150 663q-8 37 -20 85l-20 78l-9 38q-23 84 -31 111l-98 6l10 67h443l-11 -67l-108 -6q8 -82 49 -275l96 -430l232 436q115 211 135 271l-154 4l10 67h375l-10 -67l-100 -6q-92 -150 -183 -318 l-407 -749q-82 -154 -174 -250q-104 -100 -252 -101q-66 1 -119 13zM403 1399q0 37 9 102h75v-26q0 -72 48.5 -106t152.5 -34q115 0 171 37t81 129h76q-25 -143 -76 -209q-80 -98 -270 -98q-137 0 -202 49.5t-65 155.5z" />
<glyph unicode="&#x45f;" horiz-adv-x="1275" d="M-14 0l10 68l143 6q31 137 82 459.5t60 433.5l-142 6l13 67h493l-12 -67l-125 -6q-37 -168 -82 -452t-59 -445h401q27 111 80 443.5t61 453.5l-123 6l13 67h493l-10 -67l-143 -6q-33 -154 -79 -445t-63 -448l140 -6l-11 -68h-479l-72 -346h-149l39 346h-479z" />
<glyph unicode="&#x490;" horiz-adv-x="1136" d="M-16 0l10 68l164 6q25 109 67 368l86 533q39 264 47 368l-161 7l12 67h840l96 330h166l-88 -408h-627q-27 -123 -66 -362l-86 -535q-41 -287 -47 -368l170 -6l-12 -68h-571z" />
<glyph unicode="&#x491;" horiz-adv-x="983" d="M47 221q0 139 109 217q59 43 260 109q182 57 229 110q53 57 53 148q0 82 -44 130t-119 48q-111 0 -277 -102l-37 102q166 76 324 80l174 262h219l-231 -272q102 -18 156.5 -78t54.5 -150q0 -119 -89 -200q-70 -63 -278 -129q-121 -37 -162 -55.5t-65 -43.5 q-55 -55 -56 -149q0 -88 48.5 -138.5t129.5 -50.5q135 0 334 109l43 -109q-223 -80 -424 -79q-352 -1 -352 241z" />
<glyph unicode="&#x4c0;" horiz-adv-x="700" d="M-14 0l10 68l166 6q23 100 69 393l72 444q55 356 59 432l-163 7l12 67h563l-10 -67l-168 -7l-70 -401l-71 -455q-49 -322 -58 -413l162 -6l-10 -68h-563z" />
<glyph unicode="&#x1e84;" horiz-adv-x="1828" d="M133 1350l10 67h506l-10 -67l-154 -7q2 -94 25 -399l57 -582l324 709l49 107q82 170 107 239h127q10 -131 43 -334l106 -731l252 613q129 319 145 378l-147 7l10 67h402l-13 -67l-119 -7q-18 -43 -20 -47q-14 -35 -47 -100l-103 -229l-239 -559q-135 -311 -164 -408h-137 q-6 139 -47 422l-99 657l-340 -741q-111 -238 -149 -338h-127q0 84 -35 422l-47 489q-6 63 -49 432zM788 1663q0 51 35 86t88 35q51 0 86 -34t35 -87t-33.5 -88t-87 -35t-88.5 35t-35 88zM1188 1663q0 51 34.5 86t88 35t87.5 -34t34 -87t-34 -88t-87.5 -35t-88 35t-34.5 88z " />
<glyph unicode="&#x2007;" horiz-adv-x="589" />
<glyph unicode="&#x2011;" horiz-adv-x="698" d="M84 496l25 151h522l-25 -151h-522z" />
<glyph unicode="&#x2012;" d="M115 504l24 143h942l-22 -143h-944z" />
<glyph unicode="&#x2013;" d="M115 504l24 143h942l-22 -143h-944z" />
<glyph unicode="&#x2014;" horiz-adv-x="2048" d="M-55 506l24 143h2155l-25 -143h-2154z" />
<glyph unicode="&#x2015;" horiz-adv-x="2048" d="M-55 506l24 143h2155l-25 -143h-2154z" />
<glyph unicode="&#x2017;" horiz-adv-x="1024" d="M-188 -459l16 99h1090l-17 -99h-1089zM-156 -252l17 98h1089l-16 -98h-1090z" />
<glyph unicode="&#x2018;" horiz-adv-x="534" d="M223 1108q0 154 305 432l52 -47q-154 -143 -189 -272q106 -20 107 -121q0 -57 -39 -95t-97 -38q-61 0 -100 39t-39 102z" />
<glyph unicode="&#x2019;" horiz-adv-x="534" d="M182 991q156 150 189 273q-106 20 -107 120q0 57 39 95.5t96 38.5q61 0 100.5 -39t39.5 -103q0 -152 -306 -432z" />
<glyph unicode="&#x201a;" horiz-adv-x="534" d="M-20 -293q154 147 188 273q-106 25 -107 120q0 57 39 95t97 38q61 0 100 -38.5t39 -102.5q0 -154 -305 -432z" />
<glyph unicode="&#x201c;" horiz-adv-x="913" d="M227 1108q0 154 305 432l52 -47q-154 -143 -189 -272q106 -20 107 -121q0 -57 -39 -95t-96 -38q-61 0 -100.5 39t-39.5 102zM598 1108q0 154 305 432l51 -47q-156 -150 -188 -272q106 -20 106 -121q0 -57 -38.5 -95t-96.5 -38q-61 0 -100 40t-39 101z" />
<glyph unicode="&#x201d;" horiz-adv-x="913" d="M186 991q156 150 189 273q-106 20 -107 120q0 57 39 95.5t96 38.5q61 0 100.5 -39t39.5 -103q0 -152 -305 -432zM557 991q158 150 188 273q-106 20 -106 120q0 57 38 95.5t95 38.5q63 0 102 -39t39 -103q0 -152 -305 -432z" />
<glyph unicode="&#x201e;" horiz-adv-x="913" d="M-16 -293q154 147 188 273q-106 25 -106 120q0 57 38.5 95t96.5 38q61 0 100 -38.5t39 -102.5q0 -154 -305 -432zM354 -293q158 147 189 273q-106 25 -107 120q0 57 38 95t95 38q63 0 102.5 -38.5t39.5 -102.5q0 -150 -305 -432z" />
<glyph unicode="&#x2020;" d="M176 889l25 147l397 -24l33 405h198l-94 -405l408 24l-25 -147l-399 24l-154 -1165h-198l215 1165z" />
<glyph unicode="&#x2021;" d="M90 340l25 147l399 -24l12 225l58 225l-408 -24l25 147l399 -24l35 405h194l-94 -405l408 24l-23 -147l-399 24l-14 -225l-58 -225l408 24l-25 -147l-399 25l-68 -617h-194l127 617z" />
<glyph unicode="&#x2022;" horiz-adv-x="1024" d="M233 725q0 127 91.5 217t220.5 90t219 -90t90 -219q0 -131 -90 -221t-219 -90q-131 0 -221.5 91t-90.5 222z" />
<glyph unicode="&#x2026;" horiz-adv-x="1769" d="M113 115q0 55 37.5 93t95 38t95.5 -38t38 -95.5t-38 -95t-95 -37.5q-59 0 -96 38t-37 97zM684 115q0 55 38 93t95 38t95 -38t38 -95.5t-38 -95t-95 -37.5q-59 0 -96 38t-37 97zM1257 115q0 55 38 93t95.5 38t95.5 -38t38 -95.5t-38 -95t-95 -37.5q-59 0 -96.5 38 t-37.5 97z" />
<glyph unicode="&#x2030;" horiz-adv-x="2387" d="M141 924q0 102 29 208.5t76 174.5q86 125 262 125q139 0 204.5 -71t65.5 -222q0 -217 -94 -369q-88 -141 -274 -141q-139 0 -204 71.5t-65 223.5zM307 870q0 -172 99 -172q96 0 151 158q55 166 55 338q0 168 -100 168q-86 0 -139 -135q-66 -177 -66 -357zM459 -41 l694 1499h123l-694 -1499h-123zM954 279q0 104 29 210.5t76 174.5q86 125 260 124q139 0 204.5 -70.5t65.5 -221.5q0 -217 -94 -369q-88 -141 -272 -141q-137 0 -203 70.5t-66 222.5zM1120 225q0 -170 98.5 -170t151.5 158q55 162 55 338q0 168 -100 168q-88 0 -139 -135 q-66 -173 -66 -359zM1671 279q0 104 29 210.5t76 174.5q86 125 262 124q139 0 204.5 -70.5t65.5 -221.5q0 -217 -94 -369q-88 -141 -275 -141q-137 0 -202.5 71.5t-65.5 221.5zM1837 225q0 -170 98 -170q102 0 152 158q57 162 57 336q0 170 -100 170q-90 0 -141 -135 q-66 -177 -66 -359z" />
<glyph unicode="&#x2039;" horiz-adv-x="608" d="M74 520l426 395h84l-269 -403l142 -385h-78z" />
<glyph unicode="&#x203a;" horiz-adv-x="608" d="M25 127l268 403l-141 385h79l304 -393l-426 -395h-84z" />
<glyph unicode="&#x203e;" horiz-adv-x="1024" d="M135 1604l19 114h1097l-18 -114h-1098z" />
<glyph unicode="&#x2044;" horiz-adv-x="122" d="M-313 -39l694 1499h123l-694 -1499h-123z" />
<glyph unicode="&#x2070;" horiz-adv-x="778" d="M156 915q0 104 28.5 212t75.5 178q88 125 262 125q135 0 198.5 -70t63.5 -219q0 -215 -94 -373q-88 -141 -272 -141q-135 0 -198.5 70.5t-63.5 217.5zM319 866q0 -170 97 -170q94 0 147 158q57 168 58 342q0 76 -26 120t-71 44q-86 0 -137 -135q-68 -173 -68 -359z" />
<glyph unicode="&#x2074;" horiz-adv-x="778" d="M113 864l14 84l414 469h166q-12 -59 -45 -258l-33 -207h135l-16 -88h-134l-20 -168l96 -2l-8 -55h-367l9 55l102 2l31 168h-344zM242 952h233l62 344z" />
<glyph unicode="&#x2075;" horiz-adv-x="778" d="M143 678l31 166h133l-12 -133q49 -18 86 -19q74 0 129 71t55 167q0 59 -32.5 95t-83.5 36q-80 0 -164 -66h-68l86 422h467l-25 -110h-376l-41 -215q84 45 174 45q106 0 169.5 -55.5t63.5 -151.5q0 -141 -94 -225q-84 -78 -238 -78q-127 0 -260 51z" />
<glyph unicode="&#x2076;" horiz-adv-x="778" d="M160 866q0 141 62.5 269.5t170.5 207.5q143 106 359 119v-59q-283 -25 -379 -301q66 47 147 47q104 0 167 -60.5t63 -160.5q0 -137 -87.5 -219t-230.5 -82q-131 0 -201.5 62t-70.5 177zM319 840q0 -147 103 -148q66 0 114 74t48 174q0 66 -27 103.5t-74 37.5 q-66 0 -115 -72.5t-49 -168.5z" />
<glyph unicode="&#x2077;" horiz-adv-x="778" d="M188 639q47 143 147.5 283.5t328.5 380.5h-414l31 114h544l-10 -59q-397 -449 -457 -719h-170z" />
<glyph unicode="&#x2078;" horiz-adv-x="778" d="M145 819q0 70 46.5 114t166.5 91q-111 78 -110 184q0 98 77.5 160t202.5 62q109 0 173.5 -44.5t64.5 -119.5q0 -63 -42 -110.5t-146 -98.5q82 -47 117.5 -93t35.5 -106q0 -100 -88 -165.5t-225 -65.5q-123 0 -198 53t-75 139zM276 819q0 -55 38 -89t100 -34q70 0 118 37 t48 90q0 45 -38 84t-126 80l-10 -6q-130 -64 -130 -162zM393 1239q0 -43 26.5 -77t94.5 -72l10 6q113 74 113 161q0 47 -29.5 75t-83.5 28q-55 0 -93 -35t-38 -86z" />
<glyph unicode="&#x2079;" horiz-adv-x="778" d="M186 594v57q285 29 379 303q-66 -47 -147 -47q-104 0 -167 60.5t-63 162.5q0 135 87 217.5t231 82.5q131 0 201.5 -62.5t70.5 -177.5q0 -141 -63.5 -269t-171.5 -208q-140 -107 -357 -119zM354 1116q0 -66 27 -103.5t74 -37.5q66 0 114.5 72.5t48.5 169.5q0 147 -102 147 q-66 0 -114 -74t-48 -174z" />
<glyph unicode="&#x2080;" horiz-adv-x="778" d="M55 276q0 104 29 212t76 178q88 125 260 125q137 0 200.5 -70t63.5 -219q0 -219 -96 -373q-86 -141 -271 -141q-135 0 -198.5 70.5t-63.5 217.5zM219 227q0 -170 96 -170q94 0 148 158q57 168 57 342q0 76 -25.5 120t-70.5 44q-84 0 -137 -135q-68 -173 -68 -359z" />
<glyph unicode="&#x2081;" horiz-adv-x="778" d="M119 0l8 53l119 4q10 43 14 78l12 68l13 69l59 383q-84 -47 -184 -75l-15 63q168 59 265 135h122q-23 -104 -49 -262l-32 -215q-31 -199 -35 -244l112 -4l-8 -53h-401z" />
<glyph unicode="&#x2082;" horiz-adv-x="778" d="M31 0l18 98q215 164 297 248q152 158 152 264q0 51 -27 82t-74 31t-114 -27l-33 -133h-131l26 170q150 57 281 58q119 0 181.5 -44.5t62.5 -128.5q0 -102 -98.5 -206.5t-381.5 -300.5h396l-23 -111h-532z" />
<glyph unicode="&#x2083;" horiz-adv-x="778" d="M27 37l30 168h133l-12 -131q45 -20 92 -21q76 0 129.5 58.5t53.5 142.5q0 117 -172 117q-37 0 -74 -4l10 73q25 -4 59 -4q102 0 164 50.5t62 134.5q0 47 -30 75.5t-81 28.5q-41 0 -90 -16l-31 -131h-131l23 163q127 49 250 50q121 0 186.5 -46.5t65.5 -132.5 q0 -156 -191 -204q78 -18 113 -57.5t35 -108.5q0 -115 -89.5 -184.5t-238.5 -69.5q-121 0 -266 49z" />
<glyph unicode="&#x2084;" horiz-adv-x="778" d="M12 225l15 84l413 469h166q-18 -96 -45 -258l-33 -207h136l-17 -88h-133l-20 -168l96 -2l-8 -55h-367l8 55l103 2l30 168h-344zM141 313h234l61 344z" />
<glyph unicode="&#x2085;" horiz-adv-x="778" d="M41 39l31 166h133l-12 -133q45 -18 86 -19q74 0 129 71t55 167q0 59 -33 95t-84 36q-80 0 -164 -66h-67l86 422h467l-25 -110h-377l-41 -217q82 47 174 47q106 0 170 -55.5t64 -151.5q0 -139 -89 -221t-243 -82q-129 0 -260 51z" />
<glyph unicode="&#x2086;" horiz-adv-x="778" d="M59 227q0 141 62.5 269.5t171.5 208.5q143 106 358 118v-59q-283 -25 -379 -301q66 47 148 47q104 0 166.5 -60.5t62.5 -162.5q0 -135 -87 -217t-230 -82q-131 0 -202 62t-71 177zM219 201q0 -147 103 -148q66 0 113.5 74t47.5 174q0 66 -26.5 103.5t-73.5 37.5 q-66 0 -115 -72.5t-49 -168.5z" />
<glyph unicode="&#x2087;" horiz-adv-x="778" d="M86 0q47 141 148.5 283.5t326.5 380.5h-414l31 114h545l-10 -59q-397 -449 -457 -719h-170z" />
<glyph unicode="&#x2088;" horiz-adv-x="778" d="M45 180q0 70 46 114t167 91q-111 78 -111 184q0 98 78 160t203 62q109 0 173.5 -44.5t64.5 -119.5q0 -63 -42 -110.5t-147 -98.5q82 -47 118 -93t36 -106q0 -100 -88 -165.5t-226 -65.5q-123 0 -197.5 53t-74.5 139zM176 180q0 -55 38 -89t99 -34q70 0 118 37t48 90 q0 45 -38 84t-126 80l-10 -6q-129 -64 -129 -162zM293 600q0 -43 26.5 -77t94.5 -72l10 6q113 74 113 161q0 47 -30 75t-83 28q-55 0 -93 -35t-38 -86z" />
<glyph unicode="&#x2089;" horiz-adv-x="778" d="M84 12q285 29 379 303q-66 -47 -148 -47q-104 0 -166.5 60.5t-62.5 163.5q0 135 87 217t230 82q131 0 202 -62.5t71 -177.5q0 -141 -62.5 -269t-171.5 -208q-143 -106 -358 -119v57zM252 479q0 -68 26.5 -105.5t73.5 -37.5q66 0 115 72.5t49 169.5q0 147 -102 147 q-66 0 -114 -73t-48 -173z" />
<glyph unicode="&#x20ac;" d="M0 557l47 88h168q10 76 23 137h-203l47 88h178q86 274 262 421t420 147q190 0 365 -90l-66 -127q-70 76 -134.5 107.5t-148.5 31.5q-154 0 -275.5 -128t-190.5 -362h571l-47 -88h-547q-12 -55 -25 -137h504l-45 -88h-467v-68q0 -203 83 -312t238.5 -109t305.5 90l35 -74 q-170 -104 -353 -104q-315 0 -454 229q-78 127 -80 348h-211z" />
<glyph unicode="&#x2116;" horiz-adv-x="2297" d="M-14 0l10 68l160 6l69 389l140 880l-166 7l12 67h403q20 -61 136 -291l380 -802l103 651q33 215 49 368l-158 7l13 67h432l-10 -67l-158 -7q-31 -139 -74 -405l-149 -938h-150q-18 59 -80 182l-43 88l-459 959l-118 -752q-33 -225 -56 -403l156 -6l-10 -68h-432z M1452 129l18 107h670l-16 -107h-672zM1513 676q0 178 113 295q106 106 287 106q160 0 248 -81t88 -226q0 -186 -107.5 -295.5t-290.5 -109.5q-164 0 -251 79.5t-87 231.5zM1706 621q0 -184 131 -185q104 0 164 125q55 115 55 262q0 182 -133 183q-113 0 -172 -148 q-45 -106 -45 -237z" />
<glyph unicode="&#x2122;" horiz-adv-x="1824" d="M129 1200l35 217h706l-34 -217h-123l12 154h-133q-14 -53 -43 -242l-35 -209q-12 -94 -20 -141q0 -6 -7 -66l111 -4l-10 -53h-389l8 53l110 4q12 43 37 207l35 207q29 205 33 244h-131l-39 -154h-123zM780 639l8 55l95 2q14 59 43 242l67 422l-98 4l8 53h275l151 -530 l328 530h266l-10 -53l-103 -4l-71 -459q-27 -156 -27 -205l96 -2l-10 -55h-358l8 55l100 2q16 88 33 203l51 320l-334 -537h-69l-164 553l-55 -350q-16 -115 -25 -189l92 -2l-10 -55h-287z" />
<glyph unicode="&#x2126;" horiz-adv-x="1466" d="M12 0l19 119h372q-295 209 -294 540q0 170 68.5 327t189.5 267q209 184 493 185q262 0 419 -151.5t157 -405.5q0 -487 -502 -762h375l-19 -119h-526l12 88q154 109 248 246q182 262 182 592q0 201 -93 321.5t-247 120.5q-219 0 -374.5 -223t-155.5 -539q0 -317 215 -518 l-12 -88h-527z" />
<glyph unicode="&#x2153;" horiz-adv-x="1699" d="M225 639l8 53l119 4q6 23 15 78l12 68q4 25 12 69l60 383q-84 -47 -185 -75l-14 63q168 59 264 135h123q-25 -113 -49 -262l-33 -215q-20 -125 -37 -244l115 -4l-8 -53h-402zM432 -39l694 1499h125l-696 -1499h-123zM918 37l30 168h131l-10 -131q45 -20 92 -21 q76 0 129 58.5t53 142.5q0 117 -172 117q-37 0 -73 -4l10 73q25 -4 59 -4q102 0 164 50.5t62 134.5q0 47 -30 75.5t-81 28.5q-41 0 -90 -16l-31 -131h-131l23 163q131 49 250 50q121 0 186 -46.5t65 -132.5q0 -156 -190 -204q147 -35 147 -166q0 -115 -89 -184.5t-238 -69.5 q-121 0 -266 49z" />
<glyph unicode="&#x2154;" horiz-adv-x="1699" d="M137 639l19 98q219 168 297 250q152 158 151 264q0 51 -26.5 82t-73.5 31q-49 0 -115 -29l-33 -133h-131l27 168q150 59 280 60q119 0 181.5 -44.5t62.5 -128.5q0 -102 -98 -206.5t-381 -300.5h395l-22 -111h-533zM467 -39l694 1499h123l-694 -1499h-123zM944 37l31 168 h131l-10 -131q45 -20 90 -21q76 0 129 58.5t53 142.5q0 117 -172 117q-35 0 -74 -4l13 73q25 -4 59 -4q102 0 162.5 50.5t60.5 134.5q0 47 -29.5 75.5t-80.5 28.5q-41 0 -90 -16l-29 -131h-133l22 163q133 49 252 50q121 0 186.5 -46.5t65.5 -132.5q0 -156 -190 -204 q76 -18 110.5 -57.5t34.5 -108.5q0 -115 -88 -184.5t-238 -69.5q-129 0 -266 49z" />
<glyph unicode="&#x215b;" horiz-adv-x="1699" d="M225 639l8 53l119 4q6 23 15 78l12 68q4 25 12 69l60 383q-84 -47 -185 -75l-14 63q168 59 264 135h123q-25 -113 -49 -262l-33 -215q-20 -125 -37 -244l115 -4l-8 -53h-402zM430 -39l696 1499h123l-694 -1499h-125zM932 180q0 70 46 114t167 91q-111 80 -111 184 q0 98 78 160t203 62q109 0 172 -44.5t63 -119.5q0 -63 -42 -110.5t-146 -98.5q156 -86 156 -199q0 -100 -88.5 -165.5t-225.5 -65.5q-123 0 -197.5 53t-74.5 139zM1063 180q0 -55 38 -89t99 -34q70 0 118 37t48 90q0 45 -38 84t-126 80l-10 -6q-129 -64 -129 -162zM1180 600 q0 -45 26.5 -76.5t93.5 -72.5l11 6q111 76 110 161q0 47 -29.5 75t-80.5 28q-55 0 -93 -35t-38 -86z" />
<glyph unicode="&#x215c;" horiz-adv-x="1699" d="M133 674l31 170h133l-12 -131q45 -20 92 -21q76 0 129 58.5t53 142.5q0 117 -172 117q-43 0 -74 -2l11 71q25 -4 59 -4q102 0 162.5 50.5t60.5 134.5q0 47 -29.5 75.5t-80.5 28.5q-39 0 -88 -16l-31 -131h-131l22 165q135 47 250 48q121 0 186.5 -46.5t65.5 -132.5 q0 -156 -190 -202q78 -20 112.5 -59.5t34.5 -108.5q0 -115 -89 -184.5t-239 -69.5q-123 0 -266 47zM481 -39l695 1499h122l-694 -1499h-123zM963 180q0 72 46 116t169 89q-113 80 -113 184q0 98 78 160t203 62q109 0 173 -45.5t64 -120.5q0 -61 -42 -108.5t-146 -98.5 q156 -86 155 -199q0 -102 -89 -166.5t-226 -64.5q-123 0 -197.5 53t-74.5 139zM1094 180q0 -55 38.5 -89t100.5 -34q70 0 118 37t48 90q0 88 -164 164l-12 -6q-129 -64 -129 -162zM1210 600q0 -43 27 -77t94 -72l10 6q113 74 113 164q0 45 -30.5 72.5t-82.5 27.5 q-55 0 -93 -35t-38 -86z" />
<glyph unicode="&#x215d;" horiz-adv-x="1699" d="M147 678l31 166h133l-12 -133q49 -18 86 -19q74 0 129 71t55 167q0 59 -32.5 95t-83.5 36q-80 0 -164 -66h-68l86 422h467l-24 -110h-377l-41 -215q84 45 174 45q106 0 169.5 -55.5t63.5 -151.5q0 -141 -94 -225q-84 -78 -237 -78q-128 0 -261 51zM479 -39l695 1499h124 l-696 -1499h-123zM952 180q0 96 105 158q39 18 110 47q-113 80 -112 184q0 98 77.5 160t202.5 62q109 0 173.5 -45.5t64.5 -120.5q0 -61 -42 -108.5t-147 -98.5q156 -86 156 -199q0 -102 -89 -166.5t-226 -64.5q-123 0 -198 52t-75 140zM1083 178q0 -53 39 -87t101 -34 q70 0 118 37t48 90q0 45 -38 84t-126 80l-13 -6q-129 -64 -129 -164zM1200 600q0 -43 26.5 -77t94.5 -72l10 6q113 74 113 161q0 47 -30 75t-83 28q-55 0 -93 -35t-38 -86z" />
<glyph unicode="&#x215e;" horiz-adv-x="1699" d="M213 639q47 143 147.5 283.5t327.5 380.5h-414l31 114h545l-10 -59q-397 -449 -457 -719h-170zM389 -39l694 1499h125l-696 -1499h-123zM905 180q0 70 46 114t167 91q-111 80 -110 184q0 98 77.5 160t202.5 62q109 0 173.5 -45.5t64.5 -120.5q0 -61 -42 -108.5 t-147 -98.5q154 -86 154 -199q0 -100 -88 -165.5t-225 -65.5q-123 0 -198 52t-75 140zM1036 180q0 -55 38 -89t100 -34q70 0 117.5 37t47.5 90q0 45 -37.5 84t-125.5 80l-11 -6q-129 -62 -129 -162zM1153 600q0 -43 25.5 -75.5t95.5 -73.5l10 6q113 76 113 164 q0 45 -31 72.5t-82 27.5q-55 0 -93 -35t-38 -86z" />
<glyph unicode="&#x2202;" d="M115 387q0 260 147 436q135 166 350 166q125 0 219 -65q-33 203 -143 336t-285 186l31 67q266 -59 445.5 -309t179.5 -559q0 -305 -146.5 -485t-394.5 -180q-186 0 -294.5 109.5t-108.5 297.5zM336 365q0 -152 48 -235t136 -83q70 0 136.5 52.5t105.5 138.5 q78 174 78 383q0 139 -50.5 216.5t-140.5 77.5q-143 0 -229 -174q-84 -161 -84 -376z" />
<glyph unicode="&#x2206;" d="M-74 0q33 55 166 299l445 842q90 166 139 276h110q10 -78 76 -375l174 -806q14 -70 29 -127l16 -62l11 -47h-1166zM92 84h746l-209 1040z" />
<glyph unicode="&#x220f;" horiz-adv-x="1337" d="M-121 -317l10 67l166 6q18 78 70 369l166 1055l33 215q12 121 16 153l-164 6l10 66h1317l-10 -66l-168 -6q-47 -246 -68 -368l-165 -1055q-27 -158 -50 -369l164 -6l-10 -67h-565l10 67l164 6q29 129 67 369l166 1051q29 205 31 217q0 4 18 149h-509q-41 -188 -68 -366 l-166 -1051q-35 -221 -49 -369l162 -6l-13 -67h-565z" />
<glyph unicode="&#x2211;" d="M-68 -326l17 97l676 882l-379 873l16 100h995l-59 -375h-174l25 293h-582l354 -815l-706 -909h669l68 272h174l-68 -418h-1026z" />
<glyph unicode="&#x2212;" d="M74 449l24 143h1006l-23 -143h-1007z" />
<glyph unicode="&#x221a;" d="M119 641l10 68h336l53 -490l459 973l235 502h533l-14 -78h-449l-764 -1616h-166l-80 635z" />
<glyph unicode="&#x221e;" horiz-adv-x="1556" d="M92 473q0 166 104.5 272.5t266.5 106.5q209 0 336 -221q98 121 184 172t193 51q137 0 213.5 -72.5t76.5 -203.5q0 -168 -104.5 -276.5t-265.5 -108.5q-209 0 -334 221q-102 -123 -185 -172t-190 -49q-137 0 -216 74.5t-79 205.5zM250 485q0 -72 43 -116.5t110 -44.5 q66 0 124.5 36.5t152.5 139.5l22 22l-14 21q-59 98 -109.5 138t-115.5 40q-86 0 -149.5 -71t-63.5 -165zM858 522l12 -22q61 -100 109.5 -138t114.5 -38q88 0 151.5 69.5t63.5 165.5q0 72 -42 118t-110 46q-66 0 -125 -38t-155 -142z" />
<glyph unicode="&#x222b;" horiz-adv-x="778" d="M-51 -299l35 63q53 -27 92 -26q57 0 81.5 42t45.5 169l198 1245q25 158 38.5 205t43.5 86q68 90 209 90q90 0 174 -43l-32 -62q-53 27 -95 27q-57 0 -81.5 -42t-45.5 -169l-211 -1327q-25 -158 -73 -217q-70 -82 -203 -82q-94 0 -176 41z" />
<glyph unicode="&#x2248;" d="M41 301q92 121 166 172t153 51q90 0 240 -96q113 -74 170 -74q51 0 94 31t127 125l96 -84q-170 -225 -315 -225q-96 0 -235 90q-76 51 -110 65.5t-73 14.5q-49 0 -90 -30t-125 -122zM92 612q92 121 166 173.5t154 52.5q92 0 237 -97q115 -74 172 -73q51 0 95.5 30.5 t125.5 122.5l97 -82q-170 -225 -316 -225q-96 0 -235 90q-76 51 -110 65.5t-72 14.5q-49 0 -91.5 -29.5t-126.5 -122.5z" />
<glyph unicode="&#x2260;" d="M49 289l25 143h375l112 174h-461l25 144h534l183 282l125 -63l-138 -219h301l-22 -144h-377l-113 -174h463l-24 -143h-537l-182 -281l-125 64l137 217h-301z" />
<glyph unicode="&#x2261;" d="M23 129l24 143h1008l-25 -143h-1007zM74 446l24 144h1008l-25 -144h-1007zM125 764l25 143h1005l-22 -143h-1008z" />
<glyph unicode="&#x2264;" d="M4 0l25 143h1007l-24 -143h-1008zM98 594l21 127l1063 350l-27 -162l-823 -258l743 -260l-24 -147z" />
<glyph unicode="&#x2265;" d="M4 0l25 143h1005l-22 -143h-1008zM43 244l27 159l823 259l-743 258l24 151l952 -350l-20 -127z" />
<glyph unicode="&#x22c5;" horiz-adv-x="589" d="M168 575q0 55 38 93.5t95 38.5t95 -38t38 -95.5t-38 -95.5t-95 -38q-59 0 -96 38t-37 97z" />
<glyph unicode="&#x25ca;" d="M41 709l580 766l579 -766l-579 -768zM244 709l377 -512l378 512l-378 510z" />
<glyph unicode="&#xe000;" horiz-adv-x="1040" d="M0 1040h1040v-1040h-1040v1040z" />
<glyph unicode="&#xea3f;" horiz-adv-x="1024" d="M442 991q143 141 176 271q-113 25 -112 120q0 59 38 97.5t97 38.5q61 0 100 -40t39 -104q0 -164 -284 -430z" />
<glyph unicode="&#xea4e;" horiz-adv-x="0" d="M299 1616l12 78h1059l-12 -78h-1059z" />
<glyph unicode="&#xea4f;" horiz-adv-x="1036" d="M485 1227q0 25 50.5 74t119.5 92q123 74 263 133l30 -51q-172 -117 -250 -265h-180q-33 1 -33 17z" />
<glyph unicode="&#xea67;" horiz-adv-x="1024" d="M442 991q143 141 176 271q-113 25 -112 120q0 59 38 97.5t97 38.5q61 0 100 -40t39 -104q0 -164 -284 -430z" />
<glyph unicode="&#xf6be;" horiz-adv-x="610" d="M-244 -440l15 65q156 -2 237 88q45 51 70.5 136t60.5 298l72 451q27 170 51 369l-153 6l10 67l383 11q-53 -270 -90 -506l-66 -406q-33 -201 -57.5 -282.5t-69.5 -143.5q-123 -160 -377 -159q-37 0 -86 6z" />
<glyph unicode="&#xf6c3;" horiz-adv-x="1024" d="M172 -397q231 166 250 321h141q37 0 37 -20q0 -92 -158 -217q-61 -47 -235 -144z" />
<glyph unicode="&#xf6c9;" horiz-adv-x="1024" d="M502 1556q80 53 152.5 126t111.5 139h180q31 0 31 -15q0 -25 -52.5 -75t-123.5 -93q-119 -70 -271 -133z" />
<glyph unicode="&#xf6ca;" horiz-adv-x="1024" d="M401 1792l39 51q178 -90 246 -188q96 96 315 188l25 -51q-113 -72 -248 -260h-211q-82 190 -166 260z" />
<glyph unicode="&#xf6cb;" horiz-adv-x="1024" d="M371 1663q0 51 34.5 86t88.5 35q51 0 85.5 -34t34.5 -87t-33.5 -88t-87 -35t-88 35t-34.5 88zM770 1663q0 51 35 86t88 35t87 -34t34 -87t-34 -88t-87 -35t-88 35t-35 88z" />
<glyph unicode="&#xf6ce;" horiz-adv-x="1024" d="M455 1804q0 16 32 17h175q33 -66 101 -141.5t140 -123.5l-29 -51q-180 74 -290 154q-53 39 -91 82t-38 63z" />
<glyph unicode="&#xf6cf;" horiz-adv-x="1024" d="M387 1556q184 147 223 265h168q37 0 37 -21q0 -25 -42 -71t-97 -82q-123 -82 -256 -142zM717 1556q180 143 223 265h168q37 0 37 -21q0 -25 -42 -71t-97 -82q-123 -82 -256 -142z" />
<glyph unicode="&#xf6d0;" horiz-adv-x="1024" d="M373 1602l16 100h625l-17 -100h-624z" />
<glyph unicode="&#xf6f4;" horiz-adv-x="993" d="M352 1501q0 23 6 66h72q4 -102 37 -135q49 -49 168 -50q111 0 169 43t83 142h76q-41 -309 -336 -310q-129 0 -202 64.5t-73 179.5z" />
<glyph unicode="&#xf6f5;" horiz-adv-x="993" d="M344 1528l39 51q182 -90 246 -188q41 43 131 96t184 92l25 -51q-113 -72 -248 -260h-211q-80 186 -166 260z" />
<glyph unicode="&#xf6f6;" horiz-adv-x="993" d="M309 1298q113 72 248 261h211q80 -188 166 -261l-39 -51q-176 88 -246 189q-92 -92 -313 -189z" />
<glyph unicode="&#xf6f7;" horiz-adv-x="993" d="M512 1407q0 51 36 86t87 35q53 0 88 -35t35 -88t-35 -88t-88 -35t-88 35t-35 90z" />
<glyph unicode="&#xf6f8;" horiz-adv-x="993" d="M354 1294q184 147 224 265h167q37 0 37 -21q0 -23 -42 -70t-97 -84q-131 -86 -256 -141zM684 1294q180 143 223 265h168q37 0 37 -21q0 -23 -42 -70t-97 -84q-123 -82 -256 -141z" />
<glyph unicode="&#xf6f9;" horiz-adv-x="978" d="M-10 0l10 68l145 6q20 78 52 276l6 33l-170 -102l16 94l168 102l35 228q41 276 45 321l-143 6l10 68h514l-10 -68l-150 -6q-6 -43 -16 -86l-15 -82q-8 -45 -20 -131l-18 -117l272 164l-16 -94l-273 -164l-20 -133q-37 -252 -43 -307h305l53 225h168l-47 -301h-858z" />
<glyph unicode="&#xf6fa;" horiz-adv-x="1617" d="M115 449q0 164 57 301t158 219q88 72 197.5 101.5t285.5 29.5h770l-47 -297h-166l19 221h-291l-49 -272l-25 -156h365l-13 -78h-364l-21 -129q-39 -264 -41 -313h318l53 221h166l-47 -297h-748q-279 0 -393 66q-184 100 -184 383zM330 412q0 -174 82 -256t252 -82h61 q14 59 51 274l62 393q29 182 39 285h-68q-233 0 -354 -164q-55 -74 -90 -199.5t-35 -250.5z" />
<glyph unicode="&#xf6fb;" horiz-adv-x="993" d="M174 -279q0 80 72.5 146.5t228.5 132.5h105q-133 -78 -183.5 -135.5t-50.5 -132.5q0 -100 117 -101q39 0 78 9v-60q-74 -27 -146 -26q-104 0 -162.5 44.5t-58.5 122.5z" />
<glyph unicode="&#xf6fc;" horiz-adv-x="993" d="M428 1401q0 86 60.5 144.5t148.5 58.5q90 0 148.5 -58.5t58.5 -146.5t-58.5 -146.5t-148.5 -58.5q-92 0 -150.5 58.5t-58.5 148.5zM520 1401q0 -59 32 -94t85 -35q51 0 83 34.5t32 92t-32 92.5t-85 35q-51 0 -83 -35t-32 -90z" />
<glyph unicode="&#xf6fd;" horiz-adv-x="950" d="M49 53l37 248h168l-14 -199q68 -49 145 -49q94 0 160.5 64.5t66.5 156.5q0 74 -41 119q-20 23 -42.5 37t-131.5 74q-139 78 -190 140.5t-51 158.5q0 145 107.5 231t289.5 86q193 0 317 -84l-34 -233h-166l14 196q-47 47 -127 48q-84 0 -143.5 -58.5t-59.5 -140.5 q0 -66 39 -109t156 -104q156 -82 210 -145.5t54 -165.5q0 -156 -113.5 -250t-302 -94.5t-348.5 73.5zM338 1528l37 51q182 -90 246 -188q43 43 134 97t181 91l27 -51q-117 -78 -248 -260h-211q-80 186 -166 260z" />
<glyph unicode="&#xf6fe;" horiz-adv-x="993" d="M276 1286q80 225 218 225q55 0 174 -38q104 -33 149 -33q88 0 113 82h67q-31 -119 -84 -174.5t-137 -55.5q-53 0 -170 35q-117 37 -164 37q-33 0 -54 -16.5t-44 -61.5h-68z" />
<glyph unicode="&#xf6ff;" horiz-adv-x="1060" d="M4 0l12 80q90 106 234 291l272 344q176 227 234 309h-389l-54 -221h-168l48 297h831l-12 -80l-47 -57l-103 -125l-59 -78q-23 -27 -64 -80l-215 -274l-184 -242l-70 -88h439l53 225h172l-47 -301h-883zM383 1528l39 51q182 -90 246 -188q102 102 315 188l25 -51 q-113 -74 -248 -260h-209q-86 192 -168 260z" />
<glyph unicode="&#xf730;" horiz-adv-x="1228" d="M106 412q0 135 43.5 277t112.5 235q147 197 428 196q444 0 445 -426q0 -141 -41 -281.5t-111 -232.5q-150 -201 -432 -200q-219 0 -332 109.5t-113 322.5zM328 344q0 -295 219 -295q195 0 282 240q35 94 59.5 231t24.5 240q0 291 -219 291q-182 0 -272 -215 q-41 -94 -67.5 -234.5t-26.5 -257.5z" />
<glyph unicode="&#xf731;" horiz-adv-x="888" d="M100 0l11 68l196 6q25 106 70 385l18 119l19 110q12 78 20 123q16 86 23 129q-43 -35 -141.5 -85t-172.5 -75l-22 76q268 100 444 256h137q-33 -160 -79 -440l-35 -228q-39 -240 -51 -370l188 -6l-10 -68h-615z" />
<glyph unicode="&#xf732;" horiz-adv-x="1079" d="M25 0l26 162q266 170 475 340q156 125 212.5 203.5t56.5 168.5q0 78 -52.5 122t-144.5 44q-109 0 -231 -67l-58 -209h-164l41 262q264 94 449 94q178 0 281.5 -68.5t103.5 -187.5q0 -104 -70.5 -192t-261.5 -217q-190 -127 -479 -283h690l-35 -172h-839z" />
</font>
</defs>
</svg>
