<?xml version="1.0" standalone="no"?>
<!DOCTYPE svg PUBLIC "-//W3C//DTD SVG 1.1//EN" "http://www.w3.org/Graphics/SVG/1.1/DTD/svg11.dtd" >
<svg xmlns="http://www.w3.org/2000/svg">
<metadata>
This is a custom SVG webfont generated by Font Squirrel.
Copyright   : Design 200107 by Hans Jurg Hunziker
Foundry URL : wwwurwppde
</metadata>
<defs>
<font id="SiemensSlabBlackItalic" horiz-adv-x="1294" >
<font-face units-per-em="2048" ascent="1638" descent="-410" />
<missing-glyph horiz-adv-x="512" />
<glyph unicode="&#xfb01;" horiz-adv-x="1484" d="M33 0l35 225l114 6l94 592h-161l35 226h163l4 36q31 199 105 299q104 139 313 140q113 0 244 -39l-76 -232q-68 29 -112 29q-70 0 -108 -50t-58 -167l-2 -16h323q197 0 424 10l-131 -828l119 -6l-35 -225h-545l35 225l115 6l94 592h-436l-92 -592l116 -6l-35 -225h-542z M1079 1346q0 76 51.5 126t129 50t128 -50.5t50.5 -128t-50.5 -129t-127.5 -51.5q-80 0 -130.5 50.5t-50.5 132.5z" />
<glyph unicode="&#xfb02;" horiz-adv-x="1474" d="M33 0l35 225l114 6l94 592h-161l35 226h163l11 67q35 219 155.5 313.5t368.5 94.5q207 0 577 -45l-196 -1248l119 -6l-35 -225h-543l35 225l113 6l161 1022q-92 29 -229 29q-106 0 -155.5 -47t-69.5 -170l-2 -16h188l-35 -226h-190l-92 -592l118 -6l-34 -225h-545z" />
<glyph unicode=" "  horiz-adv-x="512" />
<glyph unicode="&#x09;" horiz-adv-x="512" />
<glyph unicode="&#xa0;" horiz-adv-x="512" />
<glyph unicode="!" horiz-adv-x="743" d="M156 168q0 80 54 133t134 53q82 0 136.5 -54t54.5 -136t-53.5 -135.5t-135.5 -53.5q-84 0 -137 54.5t-53 138.5zM250 469l131 948h311l-170 -948h-272z" />
<glyph unicode="&#x22;" horiz-adv-x="923" d="M170 918l82 579h309l-102 -579h-289zM588 918l82 579h309l-102 -579h-289z" />
<glyph unicode="#" d="M88 373v225h213l33 209h-172v225h209l61 385h252l-63 -385h202l62 385h252l-64 -385h187v-225h-222l-34 -209h182v-225h-217l-60 -373h-252l60 373h-203l-59 -373h-250l59 373h-176zM551 598h203l32 209h-200z" />
<glyph unicode="$" d="M33 66l61 387h236l-15 -197q94 -45 201 -41l62 377q-184 66 -244 104q-156 90 -156 277q0 119 54.5 218t150.5 161q129 82 344 88l29 176h143l-29 -176q195 -10 396 -84l-58 -365h-235l8 178q-72 23 -147 33l-58 -352q207 -61 281 -107q139 -90 139 -272 q0 -133 -59.5 -241.5t-165.5 -166.5q-72 -41 -138.5 -56t-209.5 -27l-29 -183h-143l28 178q-256 3 -446 91zM508 1016q0 -51 28.5 -80t102.5 -49l49 311q-84 -10 -132 -58t-48 -124zM662 219q98 10 151 62.5t53 140.5q0 51 -31.5 78.5t-119.5 52.5z" />
<glyph unicode="%" horiz-adv-x="1859" d="M156 950q0 180 90 324q98 156 309 156q309 0 309 -320q0 -182 -90 -328q-100 -156 -307 -155q-311 -1 -311 323zM383 940q0 -147 90 -147q70 0 117 96t47 235.5t-90 139.5q-70 0 -113 -90q-51 -103 -51 -234zM465 -33l788 1483h199l-786 -1483h-201zM1053 311 q0 184 90 324q98 156 309 156q309 0 309 -318q0 -188 -90 -330q-98 -156 -309 -155q-309 -1 -309 323zM1280 301q0 -147 92 -147q68 0 115 96t47 233q0 141 -90 142q-68 0 -116 -95.5t-48 -228.5z" />
<glyph unicode="&#x26;" horiz-adv-x="1579" d="M78 358q0 156 82 259.5t258 168.5q-59 82 -82 141.5t-23 131.5q0 174 131 278.5t349 104.5q201 0 313.5 -82t112.5 -230q0 -295 -369 -407l215 -272q78 72 121 165l-68 5l31 200h457l-33 -200l-111 -7q-88 -205 -258 -340l35 -45l223 -4l-37 -225h-393l-84 104 q-94 -70 -187 -99.5t-220 -29.5q-219 0 -341 100.5t-122 282.5zM397 383q0 -82 49.5 -126t141.5 -44q115 0 229 61l-258 334q-162 -75 -162 -225zM616 1049q0 -45 21.5 -83t77.5 -92l16 7q182 76 182 204q0 57 -34.5 90t-94.5 33q-74 0 -121 -44.5t-47 -114.5z" />
<glyph unicode="'" horiz-adv-x="497" d="M166 918l82 579h309l-102 -579h-289z" />
<glyph unicode="(" horiz-adv-x="917" d="M168 457q0 438 287 788q139 168 379 332l149 -217q-510 -365 -510 -914q0 -338 268 -608l-202 -168q-96 88 -143.5 142.5t-90.5 128.5q-137 237 -137 516z" />
<glyph unicode=")" horiz-adv-x="917" d="M-33 -115q223 162 344 348q164 250 164 566q0 342 -266 608l203 170q94 -88 141 -143.5t90 -126.5q137 -242 137 -516q0 -440 -286 -789q-80 -96 -159 -165.5t-218 -166.5z" />
<glyph unicode="*" d="M283 1124l104 217l248 -167l6 296l238 -36l-86 -285l288 82l33 -238h-293l164 -245l-221 -107l-88 283l-170 -242l-176 168l231 184z" />
<glyph unicode="+" d="M111 406l36 241h388l63 402h264l-65 -402h385l-37 -241h-385l-64 -406h-264l64 406h-385z" />
<glyph unicode="," horiz-adv-x="647" d="M-80 -250l268 594h340l-317 -594h-291z" />
<glyph unicode="-" horiz-adv-x="813" d="M88 457l37 241h620l-38 -241h-619z" />
<glyph unicode="." horiz-adv-x="647" d="M78 168q0 80 54 133t134 53q82 0 136.5 -54t54.5 -136t-53.5 -135.5t-135.5 -53.5q-84 0 -137 54.5t-53 138.5z" />
<glyph unicode="/" horiz-adv-x="839" d="M-37 -55l664 1491h291l-664 -1491h-291z" />
<glyph unicode="0" d="M109 500q0 164 37.5 337t101.5 293q158 311 514 312q231 0 357 -128t126 -364q0 -176 -38 -357t-101 -306q-158 -311 -516 -312q-481 1 -481 525zM428 500q0 -141 43 -208t135 -67q147 0 225 193q41 102 68 250.5t27 269.5q0 254 -176 254q-162 0 -240 -219 q-82 -235 -82 -473z" />
<glyph unicode="1" d="M236 1147l493 270h275l-187 -1186l191 -6l-37 -225h-678l35 225l178 6l133 850l-283 -161z" />
<glyph unicode="2" d="M31 0l39 240q350 260 565 446q143 125 200.5 204t57.5 154q0 66 -58.5 107t-148.5 41q-156 0 -391 -100l-55 254q256 96 501 96q227 0 349 -93.5t122 -265.5q0 -127 -60 -239.5t-194 -235.5q-154 -141 -444 -358h580l-39 -250h-1024z" />
<glyph unicode="3" d="M47 43l74 260q162 -80 356 -80q168 0 242 72q70 66 69 158q0 166 -294 165q-51 0 -170 -6l36 234q41 -2 95 -2q199 0 297 39q57 23 91 67.5t34 98.5q0 143 -220 143q-152 0 -362 -82l-51 252q225 80 456 80q242 0 369 -87t127 -255q0 -156 -89 -251t-257 -120 q131 -20 194.5 -90t63.5 -193q0 -102 -44 -195t-120 -157q-145 -121 -440 -121q-269 0 -457 70z" />
<glyph unicode="4" d="M20 377l37 227l703 813h411l-129 -811h187l-35 -229h-186l-27 -158l139 -6l-35 -213h-614l33 213l168 6l24 158h-676zM373 606h368l84 531z" />
<glyph unicode="5" d="M47 49l82 264q174 -88 350 -88q186 0 273 105q68 78 67 174q0 184 -309 184q-147 0 -311 -37l147 766h887l-39 -250h-586l-47 -245q74 6 107 6q471 0 471 -389q0 -258 -158 -412q-154 -152 -465 -152q-268 0 -469 74z" />
<glyph unicode="6" d="M115 424q0 193 64.5 394.5t172.5 342.5q217 281 600 281q121 0 281 -31l-72 -256q-119 37 -217 37q-164 0 -275.5 -95.5t-158.5 -273.5q133 119 305 119q176 0 276.5 -104.5t100.5 -288.5q0 -260 -164 -417t-434 -157q-233 0 -356 115t-123 334zM420 408q0 -90 49 -140.5 t139 -50.5q115 0 189.5 89t74.5 224q0 78 -47 124t-129 46q-119 0 -197.5 -82.5t-78.5 -209.5z" />
<glyph unicode="7" d="M102 0l797 1167h-418l-45 -176h-235l67 426h1020l-37 -235l-796 -1182h-353z" />
<glyph unicode="8" d="M78 360q0 139 75.5 232.5t239.5 150.5q-174 113 -174 293q0 184 145.5 295t389.5 111q225 0 357 -97.5t132 -265.5q0 -119 -63.5 -196.5t-210.5 -139.5q113 -57 161 -129.5t48 -185.5q0 -211 -160 -338q-150 -115 -420 -115q-250 0 -385 100.5t-135 284.5zM395 379 q0 -76 56.5 -120t156.5 -44q111 0 181.5 58.5t70.5 148.5q0 145 -209 203q-256 -66 -256 -246zM537 1034q0 -129 161 -182q227 53 228 209q0 68 -48.5 104.5t-136.5 36.5q-92 0 -148 -46t-56 -122z" />
<glyph unicode="9" d="M119 6l69 256q119 -37 218 -37q164 0 277.5 96.5t158.5 272.5q-135 -119 -305 -119q-176 0 -276.5 104.5t-100.5 288.5q0 260 163.5 417t434.5 157q233 0 356 -115t123 -334q0 -193 -64.5 -394.5t-173.5 -342.5q-217 -281 -600 -281q-120 0 -280 31zM479 887 q0 -80 47 -125t129 -45q119 0 198 84t79 209q0 90 -50.5 140t-140.5 50q-113 0 -187.5 -89t-74.5 -224z" />
<glyph unicode=":" horiz-adv-x="647" d="M96 168q0 80 54.5 133t134.5 53q84 0 137 -54t53 -136t-53 -135.5t-135 -53.5q-84 0 -137.5 54.5t-53.5 138.5zM211 887q0 80 54 133t134 53q84 0 137.5 -53t53.5 -137q0 -82 -53.5 -135.5t-135.5 -53.5q-84 0 -137 54.5t-53 138.5z" />
<glyph unicode=";" horiz-adv-x="647" d="M-113 -250l269 594h340l-318 -594h-291zM211 887q0 80 54 133t136 53t135.5 -54t53.5 -136t-53.5 -135.5t-135.5 -53.5q-84 0 -137 54.5t-53 138.5z" />
<glyph unicode="&#x3c;" d="M109 424l32 201l1106 450l-47 -291l-676 -274l590 -274l-43 -263z" />
<glyph unicode="=" d="M78 197l37 241h1034l-37 -241h-1034zM143 610l39 242h1035l-39 -242h-1035z" />
<glyph unicode="&#x3e;" d="M49 -27l45 291l678 275l-590 274l41 262l963 -450l-31 -201z" />
<glyph unicode="?" horiz-adv-x="997" d="M195 1335q244 106 462 107q199 0 304.5 -82t105.5 -240q0 -119 -59.5 -197.5t-229.5 -185.5q-111 -68 -138.5 -102.5t-41.5 -122.5l-6 -41h-295l12 88q20 129 56 177t163 126q129 80 169 123t40 100q0 53 -37.5 84t-103.5 31q-127 0 -322 -94zM207 168q0 80 54 133 t136 53t135.5 -54t53.5 -136t-53.5 -135.5t-135.5 -53.5q-84 0 -137 54.5t-53 138.5z" />
<glyph unicode="@" horiz-adv-x="1699" d="M80 573q0 184 68.5 349t195.5 282q256 238 662 238q317 0 500.5 -144.5t183.5 -396.5q0 -242 -148.5 -413t-355.5 -171q-84 0 -125 31t-49 101q-111 -131 -283 -132q-131 0 -202.5 67t-71.5 187q0 188 131 336q160 184 432 185q152 0 317 -54l-116 -370q-31 -98 -31 -125 q0 -45 43 -45q90 0 164.5 127t74.5 276q0 170 -116 256q-139 100 -357 100q-299 0 -498.5 -188t-199.5 -471q0 -207 142.5 -322.5t396.5 -115.5q188 0 368 53l-14 -197q-178 -41 -379 -41q-354 0 -543.5 154.5t-189.5 443.5zM700 592q0 -45 25 -69.5t68 -24.5q76 0 129 65 q31 39 73 168l58 180q-27 8 -54 9q-106 0 -202.5 -105.5t-96.5 -222.5z" />
<glyph unicode="A" horiz-adv-x="1503" d="M-70 0l35 225l119 6l631 1186h334l270 -1186l123 -6l-35 -225h-569l36 225l130 6l-31 164h-479l-82 -164l133 -6l-35 -225h-580zM608 625h322l-45 227q-27 141 -43 244q-8 -31 -101 -209z" />
<glyph unicode="B" horiz-adv-x="1353" d="M4 0l35 225l131 6l149 955l-135 6l37 225h539q168 0 252 -15.5t147 -55.5q133 -88 133 -275q0 -129 -66.5 -218t-191.5 -128q188 -70 189 -295q0 -104 -39 -195.5t-107 -146.5q-111 -88 -354 -88h-719zM481 229h125q158 0 209 33q39 23 62.5 75t23.5 112q0 86 -50 124.5 t-161 38.5h-149zM575 823h142q139 0 194 49q66 61 66 166q0 82 -49 116t-170 34h-125z" />
<glyph unicode="C" horiz-adv-x="1349" d="M129 627q0 379 231 610q207 205 558 205q219 0 428 -84l-64 -395h-244l19 208q-68 20 -131 21q-199 0 -330 -153.5t-131 -387.5q0 -195 100.5 -308.5t274.5 -113.5q139 0 290 84l84 -262q-197 -76 -399 -76q-328 0 -507 170.5t-179 481.5z" />
<glyph unicode="D" horiz-adv-x="1513" d="M4 0l35 225l131 6l152 955l-138 6l37 225h524q199 0 317 -29.5t200 -99.5q176 -147 176 -465q0 -233 -79 -413.5t-224 -280.5q-100 -72 -229.5 -100.5t-348.5 -28.5h-553zM492 244h71q264 0 385 121q72 72 116 195.5t44 250.5q0 252 -156 326q-72 37 -258 37h-55z" />
<glyph unicode="E" horiz-adv-x="1282" d="M4 0l35 225l131 6l152 955l-138 6l37 225h1051l-68 -426h-233l18 187h-350l-53 -338h389l-39 -244h-389l-58 -356h381l41 196h236l-68 -436h-1075z" />
<glyph unicode="F" horiz-adv-x="1241" d="M4 0l35 225l131 6l152 955l-138 6l37 225h1051l-68 -426h-233l18 187h-350l-53 -338h393l-39 -244h-393l-58 -365l148 -6l-35 -225h-598z" />
<glyph unicode="G" horiz-adv-x="1531" d="M127 580q0 391 233 634q219 227 594 228q276 0 512 -96l-61 -390h-244l19 199q-115 37 -226 37q-244 0 -368 -168q-129 -176 -129 -410q0 -182 91 -285.5t253 -103.5q96 0 184 33l41 266l-139 6l33 209h567l-33 -209l-119 -6l-71 -465q-260 -84 -480 -84q-346 0 -508 175 q-149 158 -149 430z" />
<glyph unicode="H" horiz-adv-x="1572" d="M4 0l35 225l131 6l152 955l-136 6l37 225h582l-35 -225l-129 -6l-55 -344h501l54 344l-133 6l34 225h584l-35 -225l-131 -6l-151 -955l135 -6l-37 -225h-584l37 225l129 6l60 371h-502l-58 -371l134 -6l-35 -225h-584z" />
<glyph unicode="I" horiz-adv-x="753" d="M4 0l35 225l131 6l152 955l-136 6l37 225h584l-35 -225l-131 -6l-152 -955l136 -6l-35 -225h-586z" />
<glyph unicode="J" horiz-adv-x="923" d="M-61 18l59 279q109 -55 190 -55q102 0 150 69q35 51 57 201l107 674l-146 6l37 225h596l-35 -225l-133 -6l-96 -604q-29 -197 -37 -238t-26 -92q-51 -143 -155 -210t-271.5 -67t-296.5 43z" />
<glyph unicode="K" horiz-adv-x="1462" d="M4 0l35 225l135 6l150 955l-131 8l36 223h547l-35 -223l-98 -6l-70 -434l406 438h-90l35 225h565l-35 -223l-104 -6l-437 -459l301 -498l117 -6l-37 -225h-577l35 225l104 4l-287 490l-77 -488l108 -6l-35 -225h-561z" />
<glyph unicode="L" horiz-adv-x="1210" d="M4 0l35 225l131 6l152 955l-138 6l37 225h596l-35 -225l-141 -6l-149 -942h366l43 192h234l-68 -436h-1063z" />
<glyph unicode="M" horiz-adv-x="2045" d="M4 0l35 225l131 6l152 955l-129 6l36 225h619l104 -776l11 -76l12 -73l8 -74l4 -51l121 274l352 776h637l-35 -225l-129 -6l-151 -955l127 -6l-35 -225h-563l35 225l131 6l151 953l-110 -248l-428 -936h-314l-127 913q-8 55 -19.5 144.5t-15.5 124.5l-149 -951l127 -6 l-35 -225h-553z" />
<glyph unicode="N" horiz-adv-x="1611" d="M4 0l35 225l131 6l152 955l-129 6l36 225h480l266 -637q78 -186 123 -346l8 55l4 56q18 111 27 172l75 469l-133 6l37 225h555l-35 -225l-129 -6l-188 -1186h-344l-252 594q-94 223 -143 391l-19 -154l-18 -108l-13 -88l-65 -404l131 -6l-35 -225h-557z" />
<glyph unicode="O" horiz-adv-x="1568" d="M127 584q0 350 205 602q205 256 559 256q289 0 448.5 -157t159.5 -439q0 -375 -213 -625q-109 -127 -242 -186.5t-315 -59.5q-287 0 -444.5 159t-157.5 450zM457 582q0 -170 74.5 -263.5t211.5 -93.5q193 0 314 191q115 186 114 430q0 160 -76.5 253t-209.5 93 q-197 0 -314 -191q-114 -181 -114 -419z" />
<glyph unicode="P" horiz-adv-x="1271" d="M4 0l35 225l131 6l149 955l-133 6l37 225h498q168 0 257 -15.5t148 -55.5q150 -102 150 -318q0 -248 -170 -385q-127 -102 -401 -102h-166l-50 -310l160 -6l-37 -225h-608zM567 780h88q96 0 142.5 10.5t81.5 38.5q78 66 77 185q0 109 -88 145q-49 18 -159 19h-78z" />
<glyph unicode="Q" horiz-adv-x="1568" d="M127 575q0 358 205 611q205 256 559 256q287 0 447.5 -157t160.5 -435q0 -285 -125 -503t-344 -316q29 -33 102.5 -89.5t137.5 -93.5l-164 -245q-258 135 -459 374q-186 18 -295 99q-225 161 -225 499zM457 580q0 -168 73.5 -261.5t206.5 -93.5q182 0 307 178.5 t125 440.5q0 162 -76.5 255t-209.5 93q-195 0 -314 -191q-112 -188 -112 -421z" />
<glyph unicode="R" horiz-adv-x="1335" d="M4 0l35 225l131 6l152 955l-136 6l37 225h565q258 0 363 -69q141 -92 141 -291q0 -143 -83 -243.5t-234 -135.5q59 -35 84.5 -83t77.5 -228l37 -136l114 -6l-35 -225h-340l-71 270q-49 184 -86 236q-25 37 -59.5 51t-102.5 14h-51l-54 -340l134 -6l-35 -225h-584z M573 811h105q150 0 213 55q76 63 76 164q0 84 -50.5 116t-179.5 32h-106z" />
<glyph unicode="S" horiz-adv-x="1214" d="M33 49l61 387h236l-11 -174q102 -37 211 -37q106 0 175 54.5t69 138.5q0 51 -41 82q-31 25 -190 98q-203 94 -276.5 173t-73.5 204q0 211 159 348q143 119 381 119q201 0 473 -60l-63 -391h-236l13 174q-104 27 -179 27q-94 0 -151.5 -46t-57.5 -122q0 -57 54 -90 q31 -23 162 -82q197 -92 274 -160q92 -82 92 -237q0 -225 -168 -361q-145 -119 -411 -119q-275 0 -502 74z" />
<glyph unicode="T" horiz-adv-x="1286" d="M96 991l68 426h1239l-68 -426h-235l18 187h-217l-149 -947l190 -6l-37 -225h-690l35 225l182 6l150 947h-209l-41 -187h-236z" />
<glyph unicode="U" horiz-adv-x="1564" d="M184 1192l35 225h576l-35 -225l-127 -6l-94 -592q-18 -113 -19 -174q0 -106 60 -150q63 -45 155 -45q80 0 149.5 33t102.5 86q41 66 72 250l92 592l-129 6l35 225h569l-37 -225l-127 -6l-102 -635q-35 -219 -53 -270q-109 -305 -592 -306q-516 0 -516 390q0 68 20 206 q4 35 19 144l75 471z" />
<glyph unicode="V" horiz-adv-x="1388" d="M96 1192l35 225h557l-35 -225l-141 -6l82 -406q39 -186 68 -389q63 137 186 377l219 418l-154 6l37 225h584l-35 -225l-102 -6l-627 -1186h-319l-258 1186z" />
<glyph unicode="W" horiz-adv-x="2029" d="M127 1192l35 225h538l-34 -225l-142 -6l17 -283q4 -57 7 -115.5t5 -90t2 -44.5l6 -143l4 -96q31 94 154 387l276 616h316l69 -661q10 -98 23 -254l8 -88q43 133 152 409l143 365l-141 4l34 225h547l-35 -225l-102 -6l-504 -1186h-317l-68 664q-23 231 -33 360l-23 -57 q-15 -37 -22 -49q-8 -16 -20 -50l-25 -55l-61 -143l-297 -670h-315l-95 1186z" />
<glyph unicode="X" horiz-adv-x="1538" d="M-4 0l35 225l104 6l467 517l-285 438l-102 6l37 225h588l-35 -225l-135 -6l176 -271l235 271l-135 6l35 225h596l-35 -225l-100 -6l-443 -492l308 -463l106 -6l-35 -225h-608l35 225l143 6l-192 295l-258 -295l141 -6l-35 -225h-608z" />
<glyph unicode="Y" horiz-adv-x="1288" d="M84 1192l35 225h569l-35 -225l-129 -4l111 -242l33 -69l16 -41l84 110l188 240l-129 6l37 225h580l-37 -225l-98 -6l-502 -631l-51 -324l168 -6l-37 -225h-656l35 225l170 6l51 324l-305 631z" />
<glyph unicode="Z" horiz-adv-x="1314" d="M12 0l37 240l869 938h-459l-41 -187h-236l68 426h1091l-36 -239l-865 -938h482l43 196h235l-72 -436h-1116z" />
<glyph unicode="[" horiz-adv-x="917" d="M115 -289l288 1819h504l-39 -240h-213l-211 -1337h213l-39 -242h-503z" />
<glyph unicode="\" horiz-adv-x="839" d="M219 1436h275l190 -1491h-274z" />
<glyph unicode="]" horiz-adv-x="917" d="M41 -289l39 242h211l211 1337h-211l39 240h501l-288 -1819h-502z" />
<glyph unicode="^" d="M74 721l583 696h232l362 -696h-323l-189 373l-307 -373h-358z" />
<glyph unicode="_" horiz-adv-x="1024" d="M-246 -440l35 225h1212l-36 -225h-1211z" />
<glyph unicode="`" horiz-adv-x="1024" d="M279 1497h354l192 -299h-264z" />
<glyph unicode="a" horiz-adv-x="1288" d="M86 403q0 274 125 463q133 207 360 207q100 0 167 -36t116 -115l25 127h311q-29 -119 -72 -381l-69 -437l116 -6l-37 -225h-405l10 123q-98 -147 -284 -148q-174 0 -259 97q-104 120 -104 331zM406 430q0 -229 131 -229q123 0 225 172l51 313q-59 162 -174 162 q-96 0 -164.5 -123t-68.5 -295z" />
<glyph unicode="b" horiz-adv-x="1310" d="M90 0q33 135 68 360l143 906l-121 6l35 225l434 10l-90 -561q125 127 293 127q178 0 275.5 -114.5t97.5 -321.5q0 -279 -133 -467q-135 -195 -359 -195q-233 0 -309 185l-35 -160h-299zM469 373q63 -172 190 -172q98 0 172 127t74 297q0 106 -41 164.5t-116 58.5 q-57 0 -118 -38t-108 -103z" />
<glyph unicode="c" horiz-adv-x="1085" d="M86 444q0 285 172 467q156 162 416 162q193 0 370 -69l-55 -351h-241l14 185q-25 10 -66 10q-123 0 -206.5 -111.5t-83.5 -275.5q0 -121 62 -186.5t177 -65.5q106 0 232 70l43 -232q-133 -72 -330 -72q-238 0 -371 124t-133 345z" />
<glyph unicode="d" horiz-adv-x="1323" d="M84 406q0 270 131 462q137 205 377 205q201 0 295 -139l51 334l-127 4l37 225l438 8l-203 -1274l117 -6l-35 -225h-407l12 135q-115 -160 -315 -160q-178 0 -274.5 112t-96.5 319zM403 432q0 -109 38 -170t106 -61q141 0 250 172l51 321q-63 154 -188 154t-197 -152 q-60 -123 -60 -264z" />
<glyph unicode="e" horiz-adv-x="1239" d="M86 420q0 274 154 461q160 193 436 192q231 0 354 -110.5t123 -319.5q0 -92 -18 -221h-729v-21q0 -96 67.5 -150t188.5 -54q164 0 327 84l51 -236q-174 -70 -411 -70q-543 1 -543 445zM432 625h416q4 25 4 53q0 84 -44 131t-124 47q-94 0 -161.5 -62.5t-90.5 -168.5z" />
<glyph unicode="f" horiz-adv-x="841" d="M4 0l35 225l145 6l92 592h-161l35 226h163l6 36q33 203 103 299q104 139 313 140q113 0 244 -39l-76 -232q-68 29 -112 29q-70 0 -108 -50t-58 -167l-2 -16h229l-37 -226h-229l-92 -592l170 -6l-37 -225h-623z" />
<glyph unicode="g" horiz-adv-x="1320" d="M43 -403l70 249q150 -86 295 -86q199 0 278 127q41 63 66 219l10 60q-111 -137 -299 -137q-170 0 -271.5 112.5t-101.5 300.5q0 225 113 406q145 225 393 225q223 0 303 -149l29 135l399 -10l-35 -226l-118 -6l-115 -723q-29 -184 -58.5 -262t-93.5 -143 q-158 -154 -489 -154q-209 1 -375 62zM410 455q0 -94 41 -147.5t112 -53.5q68 0 133.5 49t106.5 129l39 236q-45 180 -189 180q-121 0 -194 -156q-49 -112 -49 -237z" />
<glyph unicode="h" horiz-adv-x="1372" d="M0 0l35 225l119 6l163 1035l-122 6l36 225l435 10l-93 -575q156 141 336 141q147 0 226 -72.5t79 -209.5q0 -51 -16 -166l-63 -394l114 -6l-37 -225h-538l37 225l114 6l52 316q20 133 20 178q0 57 -30.5 90t-84.5 33q-115 0 -247 -168l-70 -449l117 -6l-35 -225h-547z " />
<glyph unicode="i" horiz-adv-x="710" d="M0 0l35 225l119 6l92 586l-121 6l35 226l434 10l-131 -828l121 -6l-35 -225h-549zM305 1366q0 76 51.5 126t129 50t128 -50t50.5 -128t-50.5 -129t-128.5 -51q-80 0 -130 50t-50 132z" />
<glyph unicode="j" horiz-adv-x="688" d="M-217 -434l51 239q68 -20 117 -20q74 0 112.5 54.5t59.5 189.5l125 788l-137 6l34 226l451 10l-164 -1036q-29 -180 -53 -244q-47 -127 -136 -185.5t-235 -58.5q-110 0 -225 31zM307 1366q0 76 51.5 126t129 50t128 -50t50.5 -128t-50.5 -129t-128.5 -51q-80 0 -130 50 t-50 132z" />
<glyph unicode="k" horiz-adv-x="1343" d="M0 0l35 225l119 6l163 1035l-116 6l37 225l428 10l-144 -903l318 242h-101l31 203h576l-33 -203l-88 -4l-371 -277l266 -338l111 -2l-35 -225h-563l35 225h98l-252 332l-51 -326l102 -6l-35 -225h-530z" />
<glyph unicode="l" horiz-adv-x="694" d="M-8 0l35 225l118 6l164 1035l-116 6l36 225l428 10l-202 -1276l120 -6l-34 -225h-549z" />
<glyph unicode="m" horiz-adv-x="1957" d="M0 0l35 225l119 6l92 586l-121 6l35 226l409 10l-24 -150q158 164 344 164q223 0 274 -174q94 96 171 135t177 39q135 0 211 -71.5t76 -198.5q0 -57 -16 -178l-64 -394l123 -6l-37 -225h-530l37 225l98 6l61 381q16 106 17 127q0 109 -96 109q-109 0 -230 -168l-71 -449 l100 -6l-35 -225h-510l37 225l98 6l62 381q16 104 16 127q0 109 -96 109q-104 0 -230 -168l-69 -449l98 -6l-35 -225h-526z" />
<glyph unicode="n" horiz-adv-x="1372" d="M0 0l35 225l119 6l92 586l-121 6l35 226l409 10l-24 -150q94 90 176 127t186 37q145 0 225 -72.5t80 -205.5q0 -59 -18 -170l-61 -394l122 -6l-36 -225h-547l37 225l114 6l54 330q18 129 18 170q0 55 -30.5 86t-84.5 31q-119 0 -248 -168l-69 -449l117 -6l-35 -225h-545z " />
<glyph unicode="o" horiz-adv-x="1257" d="M86 432q0 123 41 243t113 206q154 193 448 192q236 0 359.5 -115.5t123.5 -332.5q0 -279 -159 -467q-160 -182 -441 -183q-238 0 -361.5 117t-123.5 340zM406 428q0 -227 176 -227q139 0 215 159q55 117 55 269q0 106 -46 162.5t-130 56.5q-143 0 -215 -160 q-55 -125 -55 -260z" />
<glyph unicode="p" horiz-adv-x="1327" d="M-70 -440l35 225l119 6l162 1026l-121 6l35 226l420 10l-17 -127q127 141 305 141q176 0 273.5 -115.5t97.5 -322.5q0 -276 -133 -465q-135 -195 -358 -195q-219 0 -299 164l-56 -348l150 -6l-35 -225h-578zM483 373q63 -172 191 -172q98 0 172 127t74 297 q0 106 -41 164.5t-117 58.5q-121 0 -225 -141z" />
<glyph unicode="q" horiz-adv-x="1341" d="M86 406q0 270 131 462q137 205 375 205q199 0 301 -147l27 133l411 -10l-37 -226l-118 -6l-164 -1026l125 -6l-35 -225h-582l35 225l147 6l52 318q-113 -133 -297 -134q-178 0 -274.5 112t-96.5 319zM406 432q0 -109 37.5 -170t105.5 -61q141 0 250 172l51 321 q-63 154 -188 154t-197 -152q-59 -123 -59 -264z" />
<glyph unicode="r" horiz-adv-x="876" d="M0 0l35 225l119 6l92 586l-121 6l35 226l418 10l-31 -195q100 199 289 199q45 0 102 -16l-57 -269q-57 12 -95 13q-188 0 -272 -224l-53 -336l139 -6l-35 -225h-565z" />
<glyph unicode="s" horiz-adv-x="1083" d="M16 49l50 313h223l-10 -135q86 -35 180 -34q203 0 203 114q0 59 -103 90q-240 80 -307 121q-121 76 -121 209q0 141 113 236q129 111 385 110q174 0 393 -53l-49 -318h-219l12 129q-80 29 -158 29q-82 0 -131 -27.5t-49 -74.5q0 -31 26.5 -49.5t108.5 -44.5 q158 -51 214.5 -76t96.5 -62q84 -74 84 -188q0 -156 -118 -254q-123 -109 -402 -109q-246 0 -422 74z" />
<glyph unicode="t" horiz-adv-x="839" d="M86 823l35 226h166l35 225l319 59l-45 -284h227l-37 -226h-225l-57 -352q-14 -86 -15 -152q0 -100 113 -100q53 0 111 27l-8 -234q-115 -37 -248 -37q-287 0 -287 250q0 74 20 217l60 381h-164z" />
<glyph unicode="u" horiz-adv-x="1353" d="M123 823l35 226l428 10l-92 -576q-16 -104 -17 -164q0 -55 29 -86.5t80 -31.5q113 0 241 168l72 452l-117 2l37 226l428 10l-133 -828l117 -6l-35 -225h-403l22 139q-100 -94 -177 -129t-181 -35q-143 0 -221 73t-78 204q0 51 16 172l64 397z" />
<glyph unicode="v" horiz-adv-x="1187" d="M76 823l35 226h491l-35 -226l-108 -6l51 -252q31 -143 45 -239q33 76 123 247l127 244l-115 6l35 226h518l-37 -226l-90 -6l-440 -817h-328l-186 817z" />
<glyph unicode="w" horiz-adv-x="1751" d="M80 823l35 226h487l-37 -226l-110 -6l6 -45q25 -209 37 -420q70 182 143 342l162 355h303l59 -387q29 -188 35 -312q55 141 129 307l70 160l-125 6l37 226h489l-35 -226l-77 -6l-377 -817h-303l-60 379q-35 227 -43 350q-57 -150 -147 -348l-176 -381h-308l-108 817z" />
<glyph unicode="x" horiz-adv-x="1222" d="M-47 0l33 209l88 4l346 348l-232 275l-71 4l33 209h501l-33 -209h-102l148 -176l170 176h-103l35 209h471l-33 -209l-71 -4l-328 -328l248 -295l88 -4l-33 -209h-520l33 209h104l-164 197l-188 -197h110l-34 -209h-496z" />
<glyph unicode="y" horiz-adv-x="1181" d="M-117 -428l68 246q78 -35 139 -35q72 0 127 52t143 204l-200 778l-88 6l37 226h493l-37 -226l-104 -6l45 -194q41 -170 57 -261q61 129 123 242l115 213l-113 6l35 226h516l-35 -226l-84 -6l-446 -790q-98 -176 -147.5 -249t-104.5 -128q-119 -117 -307 -117 q-128 0 -232 39z" />
<glyph unicode="z" horiz-adv-x="1134" d="M20 0l33 213l619 623h-283l-37 -168h-223l59 381h895l-32 -213l-617 -623h311l39 168h224l-62 -381h-926z" />
<glyph unicode="{" horiz-adv-x="917" d="M125 524l31 193q117 4 152.5 37.5t49.5 154.5l43 273q20 125 44 185t69 95q47 39 107.5 53.5t177.5 14.5h170l-33 -215h-111q-66 0 -91 -32t-42 -130l-45 -287q-18 -131 -66.5 -178t-187.5 -67q86 -18 121 -33q66 -31 66 -115q0 -43 -11 -98l-39 -250q-12 -76 -12 -121 t21.5 -61.5t83.5 -16.5h92l-33 -215h-137q-162 0 -234 35q-96 45 -96 180q0 80 18 191l33 215q8 45 8 100q0 51 -29.5 69.5t-119.5 22.5z" />
<glyph unicode="|" horiz-adv-x="647" d="M170 -440v1857h295v-1857h-295z" />
<glyph unicode="}" horiz-adv-x="917" d="M-20 -289l34 215h109q66 0 91.5 32t41.5 130l45 287q18 131 66.5 178t187.5 68q-86 18 -121 32q-66 31 -65 115q0 43 10 98l39 250q12 76 12 121t-21.5 61.5t-82.5 16.5h-93l33 215h137q162 0 234 -35q96 -45 96 -180q0 -80 -18 -191l-33 -215q-8 -45 -8 -100 q0 -51 29.5 -69.5t119.5 -22.5l-30 -193q-117 -4 -153 -37.5t-50 -154.5l-43 -273q-20 -125 -44 -185t-69 -95q-47 -39 -107.5 -53.5t-176.5 -14.5h-170z" />
<glyph unicode="~" d="M86 436q203 291 373 291q57 0 101 -16.5t171 -85.5q115 -61 164 -62q45 0 85 33t97 115l148 -99q-61 -98 -127 -170q-104 -121 -236 -120q-63 0 -125.5 23.5t-191.5 94.5q-78 45 -123 45q-41 0 -80 -32.5t-104 -118.5z" />
<glyph unicode="&#xa1;" horiz-adv-x="743" d="M96 -369l168 949h275l-131 -949h-312zM254 885q0 82 53 135t135 53q84 0 137.5 -54t53.5 -138q0 -80 -54.5 -133.5t-136.5 -53.5t-135 54.5t-53 136.5z" />
<glyph unicode="&#xa2;" d="M154 805q0 162 68.5 298t187.5 214q141 94 360 100l31 189h147l-33 -199q193 -27 340 -86l-55 -346h-217l16 178q-59 27 -118 33l-97 -611q152 10 293 76l53 -231q-164 -72 -382 -80l-31 -186h-146l29 190q-141 16 -246 80q-200 117 -200 381zM473 815q0 -176 166 -225 l94 592q-117 -27 -188.5 -128.5t-71.5 -238.5z" />
<glyph unicode="&#xa3;" d="M-20 0l38 250h175q45 72 75 282l15 89h-185l35 221h184l13 71q27 174 56.5 251t88.5 139q133 135 404 135q203 0 428 -70l-60 -377h-235l10 176q-70 20 -131 21q-111 0 -167 -65.5t-83 -227.5l-10 -53h264l-33 -221h-264l-14 -89q-33 -195 -72 -282h379l41 186h235 l-69 -436h-1118z" />
<glyph unicode="&#xa4;" d="M49 262l141 144q-80 135 -79.5 309t79.5 309l-141 143l156 156l137 -137q145 100 334 100q193 0 336 -100l135 137l158 -156l-144 -143q82 -135 82 -309t-82 -309l144 -144l-158 -156l-135 138q-145 -100 -336 -101q-195 0 -334 101l-137 -138zM356 719q0 -158 86 -250 t236 -92q145 0 232 91t87 246.5t-87 247t-234 91.5q-145 0 -232.5 -91t-87.5 -243z" />
<glyph unicode="&#xa5;" d="M104 367l25 151h358l7 37l-43 92h-306l23 152h213l-176 387l-90 6l35 225h544l-35 -225l-108 -4l139 -371l254 369l-115 6l37 225h559l-36 -225l-93 -6l-297 -387h228l-25 -152h-319l-70 -92l-6 -37h373l-25 -151h-373l-20 -136l174 -6l-37 -225h-661l34 225l170 6 l21 136h-359z" />
<glyph unicode="&#xa6;" horiz-adv-x="647" d="M92 0l92 586h297l-94 -586h-295zM225 831l92 586h295l-92 -586h-295z" />
<glyph unicode="&#xa7;" d="M90 -227l53 340h219l-12 -142q98 -25 164 -24q76 0 121 31.5t45 84.5q0 43 -36 69t-183 87q-156 63 -212 123.5t-56 159.5q0 199 227 327q-113 84 -113 220q0 170 127 280q121 113 352 113q215 0 400 -70l-58 -352h-217l13 154q-82 27 -148 26q-63 0 -101 -31.5 t-38 -85.5q0 -39 37 -65.5t180 -87.5q100 -45 138 -66.5t69 -52.5q63 -59 63 -164q0 -190 -221 -321q106 -86 107 -220q0 -186 -148 -305q-127 -96 -352 -96q-230 0 -420 68zM487 586q0 -39 36 -65.5t173 -90.5l37 -18q96 78 96 149q0 37 -32.5 63.5t-134.5 73.5l-78 37 q-97 -77 -97 -149z" />
<glyph unicode="&#xa8;" horiz-adv-x="1024" d="M244 1378q0 76 50 125t126 49t126 -49t50 -127t-50 -127t-126 -49q-78 0 -127 50t-49 128zM698 1378q0 76 50.5 125t126 49t126 -49t50.5 -127t-50.5 -127t-126.5 -49q-78 0 -127 50t-49 128z" />
<glyph unicode="&#xa9;" horiz-adv-x="1638" d="M119 719q0 307 209 513t520 206q315 0 522 -207t207 -522.5t-206 -522t-521 -206.5q-322 0 -526.5 206.5t-204.5 532.5zM225 717q0 -285 175 -466t450 -181q268 0 444 181t176 458q0 279 -176 459t-446 180q-268 0 -445.5 -179.5t-177.5 -451.5zM483 700.5 q0 184.5 117 294.5q100 94 293 95q145 0 266 -37v-254h-166l-12 116q-27 6 -61 7q-94 0 -148.5 -59.5t-54.5 -160.5q0 -104 59.5 -161.5t165.5 -57.5q78 0 178 45l41 -163q-117 -55 -266 -56q-195 0 -303.5 103.5t-108.5 288z" />
<glyph unicode="&#xaa;" horiz-adv-x="843" d="M190 1061q0 160 79 263t200 103q57 0 91 -17t71 -67l12 70h197q-16 -70 -41 -211l-27 -172q-23 -152 -27 -201h-180l8 89q-66 -102 -180 -103q-96 0 -149.5 64.5t-53.5 181.5zM393 1069q0 -119 64 -119q68 0 121 84l30 183q-35 76 -90 75q-53 0 -89 -64.5t-36 -158.5z " />
<glyph unicode="&#xab;" horiz-adv-x="1267" d="M70 530l477 498l174 -180l-320 -342l211 -338l-223 -137zM578 530l477 498l172 -180l-318 -342l211 -338l-223 -137z" />
<glyph unicode="&#xac;" d="M125 545v237h1018v-665h-262v428h-756z" />
<glyph unicode="&#xad;" horiz-adv-x="813" d="M88 457l37 241h620l-38 -241h-619z" />
<glyph unicode="&#xae;" horiz-adv-x="1228" d="M162 1020q0 225 151.5 374.5t378.5 149.5q229 0 380 -149.5t151 -380.5q0 -229 -149.5 -380t-379.5 -151q-233 0 -382.5 150.5t-149.5 386.5zM260 1020q0 -201 121 -328t313 -127q186 0 308 127t122 321.5t-121.5 321.5t-310.5 127q-186 0 -309 -126t-123 -316zM426 735 v88l63 4v365l-63 4v90h242q147 0 196 -31q68 -39 68 -133q0 -115 -129 -143q39 -12 56.5 -30.5t37.5 -69.5l21 -52l51 -4v-88h-166l-31 88q-23 68 -45 89.5t-72 21.5h-22v-107l53 -4v-88h-260zM633 1032h22q78 0 101 17q27 20 26 65q0 41 -23.5 58.5t-80.5 17.5h-45v-158z " />
<glyph unicode="&#xaf;" horiz-adv-x="1024" d="M252 1206l29 183h737l-29 -183h-737z" />
<glyph unicode="&#xb0;" horiz-adv-x="872" d="M178 1108q0 145 94.5 237.5t243.5 92.5q156 0 251 -91.5t95 -242.5q0 -150 -95 -242t-247 -92q-156 0 -249 92t-93 246zM332 1106q0 -90 50 -142.5t138 -52.5t138.5 51.5t50.5 141.5t-50.5 141t-138.5 51q-86 0 -137 -51t-51 -139z" />
<glyph unicode="&#xb1;" d="M47 0l39 233h1034l-39 -233h-1034zM137 584l39 233h385l41 256h264l-41 -256h385l-39 -233h-385l-38 -256h-265l41 256h-387z" />
<glyph unicode="&#xb2;" horiz-adv-x="843" d="M145 639l27 168q88 47 248 166q96 72 137 122t41 99q0 70 -102 70q-74 0 -228 -64l-30 162q152 68 307 68q137 0 211.5 -54.5t74.5 -156.5q0 -137 -141 -252q-96 -82 -223 -160h305l-27 -168h-600z" />
<glyph unicode="&#xb3;" horiz-adv-x="843" d="M154 668l51 163q109 -39 217 -38q141 0 141 98q0 76 -143 76q-39 0 -86 -4l22 141q37 -2 78 -2q172 0 172 96q0 66 -125 66q-74 0 -190 -33l-29 155q143 43 281 44q297 0 297 -195q0 -154 -181 -195q76 -20 107 -58t31 -103q0 -133 -113 -199q-88 -53 -244 -53 q-165 0 -286 41z" />
<glyph unicode="&#xb4;" horiz-adv-x="1024" d="M424 1198l289 299h377l-371 -299h-295z" />
<glyph unicode="&#xb5;" d="M6 -440l199 1257l-115 6l35 226l428 10l-100 -629q-12 -90 -13 -119q0 -115 109 -114q125 0 246 204l65 416l-117 6l37 226l428 10l-131 -828l121 -6l-37 -225h-397l16 162q-63 -102 -118.5 -144.5t-131.5 -42.5q-49 0 -80.5 16.5t-64.5 61.5l-78 -493h-301z" />
<glyph unicode="&#xb6;" horiz-adv-x="1486" d="M131 918q0 115 44 216t122 166q78 68 174 92.5t281 24.5h780l-37 -225l-129 -6l-227 -1428h-289l223 1409h-211l-223 -1409h-289l129 817q-348 34 -348 343z" />
<glyph unicode="&#xb7;" horiz-adv-x="647" d="M145 594q0 80 54.5 133t134.5 53q84 0 137 -54t53 -136t-53 -135.5t-135 -53.5q-84 0 -137.5 54.5t-53.5 138.5z" />
<glyph unicode="&#xb8;" horiz-adv-x="1024" d="M84 -379l285 313h338l-340 -313h-283z" />
<glyph unicode="&#xb9;" horiz-adv-x="843" d="M233 1266l295 151h189l-96 -610l94 -6l-25 -162h-409l24 162l98 6l64 405l-180 -98z" />
<glyph unicode="&#xba;" horiz-adv-x="843" d="M203 1073q0 152 92 254q94 102 252 103q137 0 209.5 -68t72.5 -195q0 -147 -94 -252q-90 -98 -250 -98q-135 0 -208.5 66.5t-73.5 189.5zM406 1077q0 -109 86 -108q59 0 97 56t38 144q0 109 -88 109q-72 0 -105 -76q-28 -53 -28 -125z" />
<glyph unicode="&#xbb;" horiz-adv-x="1267" d="M43 211l319 340l-210 340l221 137l321 -500l-479 -497zM551 211l319 340l-211 340l222 137l319 -500l-477 -497z" />
<glyph unicode="&#xbc;" horiz-adv-x="1859" d="M207 1266l295 151h188l-96 -610l94 -6l-24 -162h-410l25 162l98 6l63 405l-180 -98zM424 -33l786 1483h199l-786 -1483h-199zM938 160l25 155l385 463h294l-73 -469h106l-24 -149h-107l-24 -160h-213l24 160h-393zM1153 309h215l51 324z" />
<glyph unicode="&#xbd;" horiz-adv-x="1859" d="M213 1266l295 151h188l-96 -610l94 -6l-24 -162h-410l25 162l98 6l63 405l-180 -98zM395 -33l787 1483h198l-786 -1483h-199zM997 0l27 168q100 55 250 166q96 72 137 122t41 99q0 70 -102 70q-68 0 -228 -62l-32 160q152 68 309 68q137 0 212 -54.5t75 -156.5 q0 -137 -142 -252q-96 -82 -223 -160h305l-27 -168h-602z" />
<glyph unicode="&#xbe;" horiz-adv-x="1859" d="M133 668l51 163q109 -39 217 -38q141 0 142 98q0 76 -144 76q-39 0 -86 -4l23 141q37 -2 78 -2q172 0 172 96q0 66 -125 66q-74 0 -191 -33l-28 155q143 43 280 44q297 0 297 -195q0 -154 -180 -195q76 -20 106.5 -58t30.5 -103q0 -133 -112 -199q-88 -53 -244 -53 q-166 0 -287 41zM473 -33l787 1483h198l-786 -1483h-199zM965 160l24 155l387 463h293l-74 -469h107l-25 -149h-106l-25 -160h-213l25 160h-393zM1180 309h215l51 324z" />
<glyph unicode="&#xbf;" horiz-adv-x="997" d="M-70 -72q0 119 59.5 198t229.5 185q111 68 138.5 103t41.5 123l7 41h294l-14 -89q-20 -129 -54 -177t-163 -126q-129 -80 -169 -123t-40 -100q0 -53 38 -84t103 -31q127 0 322 95l80 -230q-248 -106 -463 -106q-199 0 -304.5 81.5t-105.5 239.5zM412 885q0 82 53 135 t135 53q84 0 137.5 -54t53.5 -138q0 -80 -54.5 -133.5t-136.5 -53.5t-135 54.5t-53 136.5z" />
<glyph unicode="&#xc0;" horiz-adv-x="1503" d="M-70 0l35 225l119 6l631 1186h334l270 -1186l123 -6l-35 -225h-569l36 225l130 6l-31 164h-479l-82 -164l133 -6l-35 -225h-580zM520 1853h354l193 -299h-264zM608 625h322l-45 227q-27 141 -43 244q-8 -31 -101 -209z" />
<glyph unicode="&#xc1;" horiz-adv-x="1503" d="M-70 0l35 225l119 6l631 1186h334l270 -1186l123 -6l-35 -225h-569l36 225l130 6l-31 164h-479l-82 -164l133 -6l-35 -225h-580zM608 625h322l-45 227q-27 141 -43 244q-8 -31 -101 -209zM721 1554l289 299h376l-370 -299h-295z" />
<glyph unicode="&#xc2;" horiz-adv-x="1503" d="M-70 0l35 225l119 6l631 1186h334l270 -1186l123 -6l-35 -225h-569l36 225l130 6l-31 164h-479l-82 -164l133 -6l-35 -225h-580zM453 1554l286 299h363l192 -299h-280l-109 172l-160 -172h-292zM608 625h322l-45 227q-27 141 -43 244q-8 -31 -101 -209z" />
<glyph unicode="&#xc3;" horiz-adv-x="1503" d="M-70 0l35 225l119 6l631 1186h334l270 -1186l123 -6l-35 -225h-569l36 225l130 6l-31 164h-479l-82 -164l133 -6l-35 -225h-580zM471 1563q27 129 94.5 205.5t155.5 76.5q63 0 201 -45q106 -39 149 -39q59 0 84 80h170q-55 -283 -252 -282q-74 0 -272 67q-49 16 -78 16 q-53 0 -78 -79h-174zM608 625h322l-45 227q-27 141 -43 244q-8 -31 -101 -209z" />
<glyph unicode="&#xc4;" horiz-adv-x="1503" d="M-70 0l35 225l119 6l631 1186h334l270 -1186l123 -6l-35 -225h-569l36 225l130 6l-31 164h-479l-82 -164l133 -6l-35 -225h-580zM492 1710q0 76 50 125t126 49q78 0 127 -49t49 -127t-49.5 -127t-127 -49t-126.5 50t-49 128zM608 625h322l-45 227q-27 141 -43 244 q-8 -31 -101 -209zM946 1710q0 76 50.5 125t125.5 49q78 0 127 -49t49 -127t-49 -127t-127 -49t-127 50t-49 128z" />
<glyph unicode="&#xc5;" horiz-adv-x="1503" d="M-70 0l35 225l119 6l637 1196q-84 76 -84 195q0 113 75.5 187.5t190.5 74.5q117 0 191.5 -73.5t74.5 -188.5q0 -139 -116 -219l266 -1172l123 -6l-35 -225h-569l36 225l130 6l-31 164h-479l-82 -164l133 -6l-35 -225h-580zM608 625h322l-45 227q-27 141 -43 244 q-8 -31 -101 -209zM795 1622q0 -119 108.5 -119t108.5 123q0 53 -29 85t-78 32q-51 0 -80.5 -32t-29.5 -89z" />
<glyph unicode="&#xc6;" horiz-adv-x="1941" d="M-188 0l34 225l121 6l783 1186h1181l-67 -426h-234l19 187h-351l-53 -338h391l-39 -244h-391l-57 -356h381l41 196h235l-67 -436h-946l61 393h-424l-102 -162l116 -6l-34 -225h-598zM573 621h318l88 557h-53z" />
<glyph unicode="&#xc7;" horiz-adv-x="1349" d="M129 627q0 379 231 610q207 205 558 205q219 0 428 -84l-64 -395h-244l19 208q-68 20 -131 21q-199 0 -330 -153.5t-131 -387.5q0 -195 100.5 -308.5t274.5 -113.5q139 0 290 84l84 -262q-197 -76 -399 -76q-328 0 -507 170.5t-179 481.5zM317 -379l285 313h338 l-340 -313h-283z" />
<glyph unicode="&#xc8;" horiz-adv-x="1282" d="M4 0l35 225l131 6l152 955l-138 6l37 225h1051l-68 -426h-233l18 187h-350l-53 -338h389l-39 -244h-389l-58 -356h381l41 196h236l-68 -436h-1075zM436 1853h355l192 -299h-264z" />
<glyph unicode="&#xc9;" horiz-adv-x="1282" d="M4 0l35 225l131 6l152 955l-138 6l37 225h1051l-68 -426h-233l18 187h-350l-53 -338h389l-39 -244h-389l-58 -356h381l41 196h236l-68 -436h-1075zM567 1554l289 299h377l-371 -299h-295z" />
<glyph unicode="&#xca;" horiz-adv-x="1282" d="M4 0l35 225l131 6l152 955l-138 6l37 225h1051l-68 -426h-233l18 187h-350l-53 -338h389l-39 -244h-389l-58 -356h381l41 196h236l-68 -436h-1075zM348 1554l287 299h362l193 -299h-281l-108 172l-160 -172h-293z" />
<glyph unicode="&#xcb;" horiz-adv-x="1282" d="M4 0l35 225l131 6l152 955l-138 6l37 225h1051l-68 -426h-233l18 187h-350l-53 -338h389l-39 -244h-389l-58 -356h381l41 196h236l-68 -436h-1075zM362 1710q0 76 50.5 125t126 49t126 -49t50.5 -127t-50.5 -127t-125.5 -49q-78 0 -127.5 50t-49.5 128zM817 1710 q0 76 50.5 125t126 49t125.5 -49t50 -127t-50 -127t-126 -49q-78 0 -127 50t-49 128z" />
<glyph unicode="&#xcc;" horiz-adv-x="753" d="M4 0l35 225l131 6l152 955l-136 6l37 225h584l-35 -225l-131 -6l-152 -955l136 -6l-35 -225h-586zM172 1853h354l193 -299h-264z" />
<glyph unicode="&#xcd;" horiz-adv-x="753" d="M4 0l35 225l131 6l152 955l-136 6l37 225h584l-35 -225l-131 -6l-152 -955l136 -6l-35 -225h-586zM373 1554l289 299h376l-370 -299h-295z" />
<glyph unicode="&#xce;" horiz-adv-x="753" d="M4 0l35 225l131 6l152 955l-136 6l37 225h584l-35 -225l-131 -6l-152 -955l136 -6l-35 -225h-586zM98 1554l287 299h363l192 -299h-281l-108 172l-160 -172h-293z" />
<glyph unicode="&#xcf;" horiz-adv-x="753" d="M4 0l35 225l131 6l152 955l-136 6l37 225h584l-35 -225l-131 -6l-152 -955l136 -6l-35 -225h-586zM139 1710q0 76 50.5 125t125.5 49q78 0 127.5 -49t49.5 -127t-49.5 -127t-127 -49t-127 50t-49.5 128zM594 1710q0 76 50 125t126 49q78 0 127 -49t49 -127t-49 -127 t-127 -49t-127 50t-49 128z" />
<glyph unicode="&#xd0;" horiz-adv-x="1511" d="M4 0l35 225l129 6l65 402h-170l29 180h170l57 373l-126 6l36 225h516q199 0 317 -29.5t200 -99.5q176 -150 176 -459q0 -236 -79 -417t-224 -283q-100 -72 -228.5 -100.5t-349.5 -28.5h-553zM492 244h71q262 0 383 121q70 70 116 194.5t46 245.5q0 256 -156 332 q-72 37 -260 37h-55l-55 -361h262l-29 -180h-262z" />
<glyph unicode="&#xd1;" horiz-adv-x="1611" d="M4 0l35 225l131 6l152 955l-129 6l36 225h480l266 -637q78 -186 123 -346l8 55l4 56q18 111 27 172l75 469l-133 6l37 225h555l-35 -225l-129 -6l-188 -1186h-344l-252 594q-94 223 -143 391l-19 -154l-18 -108l-13 -88l-65 -404l131 -6l-35 -225h-557zM600 1563 q27 129 94.5 205.5t155.5 76.5q63 0 201 -45q106 -39 149 -39q59 0 84 80h170q-55 -283 -252 -282q-72 0 -272 67q-49 16 -78 16q-53 0 -78 -79h-174z" />
<glyph unicode="&#xd2;" horiz-adv-x="1568" d="M127 584q0 350 205 602q205 256 559 256q289 0 448.5 -157t159.5 -439q0 -375 -213 -625q-109 -127 -242 -186.5t-315 -59.5q-287 0 -444.5 159t-157.5 450zM457 582q0 -170 74.5 -263.5t211.5 -93.5q193 0 314 191q115 186 114 430q0 160 -76.5 253t-209.5 93 q-197 0 -314 -191q-114 -181 -114 -419zM606 1853h355l192 -299h-264z" />
<glyph unicode="&#xd3;" horiz-adv-x="1568" d="M127 584q0 350 205 602q205 256 559 256q289 0 448.5 -157t159.5 -439q0 -375 -213 -625q-109 -127 -242 -186.5t-315 -59.5q-287 0 -444.5 159t-157.5 450zM457 582q0 -170 74.5 -263.5t211.5 -93.5q193 0 314 191q115 186 114 430q0 160 -76.5 253t-209.5 93 q-197 0 -314 -191q-114 -181 -114 -419zM752 1554l288 299h377l-370 -299h-295z" />
<glyph unicode="&#xd4;" horiz-adv-x="1568" d="M127 584q0 350 205 602q205 256 559 256q289 0 448.5 -157t159.5 -439q0 -375 -213 -625q-109 -127 -242 -186.5t-315 -59.5q-287 0 -444.5 159t-157.5 450zM457 582q0 -170 74.5 -263.5t211.5 -93.5q193 0 314 191q115 186 114 430q0 160 -76.5 253t-209.5 93 q-197 0 -314 -191q-114 -181 -114 -419zM500 1554l286 299h363l192 -299h-280l-109 172l-159 -172h-293z" />
<glyph unicode="&#xd5;" horiz-adv-x="1568" d="M127 584q0 350 205 602q205 256 559 256q289 0 448.5 -157t159.5 -439q0 -375 -213 -625q-109 -127 -242 -186.5t-315 -59.5q-287 0 -444.5 159t-157.5 450zM457 582q0 -170 74.5 -263.5t211.5 -93.5q193 0 314 191q115 186 114 430q0 160 -76.5 253t-209.5 93 q-197 0 -314 -191q-114 -181 -114 -419zM510 1563q27 129 94.5 205.5t155.5 76.5q63 0 201 -45q106 -39 149 -39q59 0 84 80h170q-55 -283 -252 -282q-72 0 -272 67q-49 16 -78 16q-53 0 -78 -79h-174z" />
<glyph unicode="&#xd6;" horiz-adv-x="1568" d="M127 584q0 350 205 602q205 256 559 256q289 0 448.5 -157t159.5 -439q0 -375 -213 -625q-109 -127 -242 -186.5t-315 -59.5q-287 0 -444.5 159t-157.5 450zM457 582q0 -170 74.5 -263.5t211.5 -93.5q193 0 314 191q115 186 114 430q0 160 -76.5 253t-209.5 93 q-197 0 -314 -191q-114 -181 -114 -419zM541 1710q0 76 50 125t126 49q78 0 127 -49t49 -127t-49 -127t-127 -49t-127 50t-49 128zM995 1710q0 76 50.5 125t125.5 49q78 0 127.5 -49t49.5 -127t-49.5 -127t-127 -49t-127 50t-49.5 128z" />
<glyph unicode="&#xd7;" d="M160 825l186 187l309 -312l301 301l168 -167l-301 -302l310 -309l-185 -186l-311 311l-301 -301l-168 168l301 301z" />
<glyph unicode="&#xd8;" horiz-adv-x="1560" d="M31 63l176 170q-84 147 -84 342q0 358 207 611q211 256 561 256q264 0 422 -133l166 159l108 -114l-172 -168q47 -100 63.5 -168t16.5 -164q0 -381 -215 -633q-211 -246 -557 -246q-266 0 -418 134l-166 -160zM453 578q0 -49 10 -95l631 613q-74 96 -207 96 q-199 0 -320 -191q-114 -183 -114 -423zM524 324q78 -98 209 -99q188 0 310 180.5t122 460.5q0 20 -6 54l-2 16z" />
<glyph unicode="&#xd9;" horiz-adv-x="1564" d="M184 1192l35 225h576l-35 -225l-127 -6l-94 -592q-18 -113 -19 -174q0 -106 60 -150q63 -45 155 -45q80 0 149.5 33t102.5 86q41 66 72 250l92 592l-129 6l35 225h569l-37 -225l-127 -6l-102 -635q-35 -219 -53 -270q-109 -305 -592 -306q-516 0 -516 390q0 68 20 206 q4 35 19 144l75 471zM571 1853h355l192 -299h-264z" />
<glyph unicode="&#xda;" horiz-adv-x="1564" d="M184 1192l35 225h576l-35 -225l-127 -6l-94 -592q-18 -113 -19 -174q0 -106 60 -150q63 -45 155 -45q80 0 149.5 33t102.5 86q41 66 72 250l92 592l-129 6l35 225h569l-37 -225l-127 -6l-102 -635q-35 -219 -53 -270q-109 -305 -592 -306q-516 0 -516 390q0 68 20 206 q4 35 19 144l75 471zM750 1554l288 299h377l-371 -299h-294z" />
<glyph unicode="&#xdb;" horiz-adv-x="1564" d="M184 1192l35 225h576l-35 -225l-127 -6l-94 -592q-18 -113 -19 -174q0 -106 60 -150q63 -45 155 -45q80 0 149.5 33t102.5 86q41 66 72 250l92 592l-129 6l35 225h569l-37 -225l-127 -6l-102 -635q-35 -219 -53 -270q-109 -305 -592 -306q-516 0 -516 390q0 68 20 206 q4 35 19 144l75 471zM504 1554l287 299h362l193 -299h-281l-109 172l-159 -172h-293z" />
<glyph unicode="&#xdc;" horiz-adv-x="1564" d="M184 1192l35 225h576l-35 -225l-127 -6l-94 -592q-18 -113 -19 -174q0 -106 60 -150q63 -45 155 -45q80 0 149.5 33t102.5 86q41 66 72 250l92 592l-129 6l35 225h569l-37 -225l-127 -6l-102 -635q-35 -219 -53 -270q-109 -305 -592 -306q-516 0 -516 390q0 68 20 206 q4 35 19 144l75 471zM553 1710q0 76 50 125t126 49q78 0 127 -49t49 -127t-49 -127t-127 -49t-127 50t-49 128zM1008 1710q0 76 50 125t126 49q78 0 127 -49t49 -127t-49 -127t-127 -49t-127 50t-49 128z" />
<glyph unicode="&#xdd;" horiz-adv-x="1288" d="M84 1192l35 225h569l-35 -225l-129 -4l111 -242l33 -69l16 -41l84 110l188 240l-129 6l37 225h580l-37 -225l-98 -6l-502 -631l-51 -324l168 -6l-37 -225h-656l35 225l170 6l51 324l-305 631zM612 1554l289 299h377l-371 -299h-295z" />
<glyph unicode="&#xde;" horiz-adv-x="1253" d="M4 0l31 184l127 6l166 1037l-129 6l30 184h609l-29 -184l-162 -6l-18 -113h114q158 0 243 -16.5t140 -57.5q115 -86 115 -262q0 -113 -42 -212t-118 -158q-115 -96 -362 -97h-217l-19 -121l160 -6l-31 -184h-608zM537 535h79q94 0 140.5 11t81.5 40q68 57 67 162 q0 84 -48 113.5t-183 29.5h-80z" />
<glyph unicode="&#xdf;" horiz-adv-x="1323" d="M-8 0l35 225l118 4l121 762q27 170 53.5 249t79.5 140q125 143 394 144q221 0 339.5 -94.5t118.5 -270.5q0 -238 -223 -346q100 -51 145.5 -128t45.5 -196q0 -227 -146 -376q-139 -137 -379 -138q-84 0 -168 19l66 233q39 -10 70 -10q104 0 170.5 75t66.5 191 q0 92 -50 143.5t-140 51.5h-41l34 225q94 0 148 41q82 66 82 207q0 147 -137 147q-115 0 -166 -104q-31 -68 -56 -217l-155 -977h-426z" />
<glyph unicode="&#xe0;" horiz-adv-x="1288" d="M86 403q0 274 125 463q133 207 360 207q100 0 167 -36t116 -115l25 127h311q-29 -119 -72 -381l-69 -437l116 -6l-37 -225h-405l10 123q-98 -147 -284 -148q-174 0 -259 97q-104 120 -104 331zM406 430q0 -229 131 -229q123 0 225 172l51 313q-59 162 -174 162 q-96 0 -164.5 -123t-68.5 -295zM406 1497h354l192 -299h-264z" />
<glyph unicode="&#xe1;" horiz-adv-x="1288" d="M86 403q0 274 125 463q133 207 360 207q100 0 167 -36t116 -115l25 127h311q-29 -119 -72 -381l-69 -437l116 -6l-37 -225h-405l10 123q-98 -147 -284 -148q-174 0 -259 97q-104 120 -104 331zM406 430q0 -229 131 -229q123 0 225 172l51 313q-59 162 -174 162 q-96 0 -164.5 -123t-68.5 -295zM524 1198l289 299h377l-371 -299h-295z" />
<glyph unicode="&#xe2;" horiz-adv-x="1288" d="M86 403q0 274 125 463q133 207 360 207q100 0 167 -36t116 -115l25 127h311q-29 -119 -72 -381l-69 -437l116 -6l-37 -225h-405l10 123q-98 -147 -284 -148q-174 0 -259 97q-104 120 -104 331zM293 1198l287 299h362l193 -299h-281l-109 172l-159 -172h-293zM406 430 q0 -229 131 -229q123 0 225 172l51 313q-59 162 -174 162q-96 0 -164.5 -123t-68.5 -295z" />
<glyph unicode="&#xe3;" horiz-adv-x="1288" d="M86 403q0 274 125 463q133 207 360 207q100 0 167 -36t116 -115l25 127h311q-29 -119 -72 -381l-69 -437l116 -6l-37 -225h-405l10 123q-98 -147 -284 -148q-174 0 -259 97q-104 120 -104 331zM315 1206q27 129 94.5 206t155.5 77q63 0 201 -45q106 -39 149 -39 q59 0 84 80h170q-55 -283 -251 -283q-74 0 -273 68q-49 16 -78 16q-53 0 -78 -80h-174zM406 430q0 -229 131 -229q123 0 225 172l51 313q-59 162 -174 162q-96 0 -164.5 -123t-68.5 -295z" />
<glyph unicode="&#xe4;" horiz-adv-x="1288" d="M86 403q0 274 125 463q133 207 360 207q100 0 167 -36t116 -115l25 127h311q-29 -119 -72 -381l-69 -437l116 -6l-37 -225h-405l10 123q-98 -147 -284 -148q-174 0 -259 97q-104 120 -104 331zM373 1378q0 76 50 125t126 49q78 0 127 -49t49 -127t-49 -127t-127 -49 t-127 50t-49 128zM406 430q0 -229 131 -229q123 0 225 172l51 313q-59 162 -174 162q-96 0 -164.5 -123t-68.5 -295zM827 1378q0 76 50.5 125t126.5 49q78 0 127 -49t49 -127t-49.5 -127t-127 -49t-127 50t-49.5 128z" />
<glyph unicode="&#xe5;" horiz-adv-x="1288" d="M86 403q0 274 125 463q133 207 360 207q100 0 167 -36t116 -115l25 127h311q-29 -119 -72 -381l-69 -437l116 -6l-37 -225h-405l10 123q-98 -147 -284 -148q-174 0 -259 97q-104 120 -104 331zM406 430q0 -229 131 -229q123 0 225 172l51 313q-59 162 -174 162 q-96 0 -164.5 -123t-68.5 -295zM512 1393q0 96 67.5 161.5t168.5 65.5q102 0 168.5 -65.5t66.5 -166t-66.5 -166t-169 -65.5t-169 66t-66.5 170zM657 1389q0 -98 90.5 -98.5t90.5 98t-90 98.5q-41 0 -66 -26.5t-25 -71.5z" />
<glyph unicode="&#xe6;" horiz-adv-x="1935" d="M86 401q0 270 129 467q135 205 367 205q190 0 292 -151l23 125l231 2l-28 -134q143 158 338 158q193 0 304 -114.5t111 -315.5q0 -92 -18 -221h-729v-21q0 -96 67.5 -150t188.5 -54q164 0 328 84l51 -236q-182 -70 -408 -70q-186 0 -291.5 43t-169.5 148 q-170 -190 -411 -191q-180 0 -266 99q-109 114 -109 327zM406 432q0 -111 35.5 -171t101.5 -60q86 0 176 86q57 55 76 157l39 242q-70 162 -183 162q-117 0 -188 -152q-57 -121 -57 -264zM1133 625h415q4 23 4 55q0 84 -44 130t-124 46q-94 0 -161 -62.5t-90 -168.5z" />
<glyph unicode="&#xe7;" horiz-adv-x="1085" d="M86 444q0 285 172 467q156 162 416 162q193 0 370 -69l-55 -351h-241l14 185q-25 10 -66 10q-123 0 -206.5 -111.5t-83.5 -275.5q0 -121 62 -186.5t177 -65.5q106 0 232 70l43 -232q-133 -72 -330 -72q-238 0 -371 124t-133 345zM129 -379l285 313h338l-340 -313h-283z " />
<glyph unicode="&#xe8;" horiz-adv-x="1239" d="M86 420q0 274 154 461q160 193 436 192q231 0 354 -110.5t123 -319.5q0 -92 -18 -221h-729v-21q0 -96 67.5 -150t188.5 -54q164 0 327 84l51 -236q-174 -70 -411 -70q-543 1 -543 445zM385 1497h354l193 -299h-264zM432 625h416q4 25 4 53q0 84 -44 131t-124 47 q-94 0 -161.5 -62.5t-90.5 -168.5z" />
<glyph unicode="&#xe9;" horiz-adv-x="1239" d="M86 420q0 274 154 461q160 193 436 192q231 0 354 -110.5t123 -319.5q0 -92 -18 -221h-729v-21q0 -96 67.5 -150t188.5 -54q164 0 327 84l51 -236q-174 -70 -411 -70q-543 1 -543 445zM432 625h416q4 25 4 53q0 84 -44 131t-124 47q-94 0 -161.5 -62.5t-90.5 -168.5z M532 1198l289 299h377l-371 -299h-295z" />
<glyph unicode="&#xea;" horiz-adv-x="1239" d="M86 420q0 274 154 461q160 193 436 192q231 0 354 -110.5t123 -319.5q0 -92 -18 -221h-729v-21q0 -96 67.5 -150t188.5 -54q164 0 327 84l51 -236q-174 -70 -411 -70q-543 1 -543 445zM272 1198l287 299h363l192 -299h-280l-109 172l-160 -172h-293zM432 625h416 q4 25 4 53q0 84 -44 131t-124 47q-94 0 -161.5 -62.5t-90.5 -168.5z" />
<glyph unicode="&#xeb;" horiz-adv-x="1239" d="M86 420q0 274 154 461q160 193 436 192q231 0 354 -110.5t123 -319.5q0 -92 -18 -221h-729v-21q0 -96 67.5 -150t188.5 -54q164 0 327 84l51 -236q-174 -70 -411 -70q-543 1 -543 445zM332 1378q0 76 50 125t126 49q78 0 127 -49t49 -127t-49 -127t-127 -49t-127 50 t-49 128zM432 625h416q4 25 4 53q0 84 -44 131t-124 47q-94 0 -161.5 -62.5t-90.5 -168.5zM786 1378q0 76 50.5 125t126.5 49q78 0 127 -49t49 -127t-49.5 -127t-127 -49t-127 50t-49.5 128z" />
<glyph unicode="&#xec;" horiz-adv-x="710" d="M0 0l35 225l119 6l92 586l-115 6l35 226l428 10l-131 -828l115 -6l-35 -225h-543zM100 1497h355l192 -299h-264z" />
<glyph unicode="&#xed;" horiz-adv-x="710" d="M0 0l35 225l119 6l92 586l-115 6l35 226l428 10l-131 -828l115 -6l-35 -225h-543zM266 1198l289 299h377l-371 -299h-295z" />
<glyph unicode="&#xee;" horiz-adv-x="710" d="M-6 1198l287 299h362l193 -299h-281l-109 172l-159 -172h-293zM0 0l35 225l119 6l92 586l-115 6l35 226l428 10l-131 -828l115 -6l-35 -225h-543z" />
<glyph unicode="&#xef;" horiz-adv-x="710" d="M0 0l35 225l119 6l92 586l-115 6l35 226l428 10l-131 -828l115 -6l-35 -225h-543zM33 1378q0 76 50 125t126 49q78 0 127 -49t49 -127t-49 -127t-127 -49t-127 50t-49 128zM487 1378q0 76 50.5 125t126.5 49q78 0 127 -49t49 -127t-49.5 -127t-127 -49t-127 50t-49.5 128 z" />
<glyph unicode="&#xf0;" horiz-adv-x="1241" d="M90 401q0 236 137 396q135 160 361 159q96 0 182 -30q-55 137 -135 200l-297 -127l-45 117l215 92q-92 43 -205 58l55 252q297 -27 486 -166l258 112l49 -114l-209 -90q201 -266 201 -613q0 -295 -135 -471q-154 -201 -455 -201q-221 0 -342 110.5t-121 315.5zM410 393 q0 -90 41 -141t112 -51q123 0 197 129q53 100 53 200q0 96 -44 148.5t-124 52.5q-104 0 -169.5 -94t-65.5 -244z" />
<glyph unicode="&#xf1;" horiz-adv-x="1372" d="M0 0l35 225l119 6l92 586l-121 6l35 226l409 10l-24 -150q94 90 176 127t186 37q145 0 225 -72.5t80 -205.5q0 -59 -18 -170l-61 -394l122 -6l-36 -225h-547l37 225l114 6l54 330q18 129 18 170q0 55 -30.5 86t-84.5 31q-119 0 -248 -168l-69 -449l117 -6l-35 -225h-545z M389 1206q27 129 94.5 206t155.5 77q63 0 201 -45q106 -39 149 -39q59 0 84 80h170q-55 -283 -252 -283q-74 0 -272 68q-49 16 -78 16q-53 0 -78 -80h-174z" />
<glyph unicode="&#xf2;" horiz-adv-x="1257" d="M86 432q0 123 41 243t113 206q154 193 448 192q236 0 359.5 -115.5t123.5 -332.5q0 -279 -159 -467q-160 -182 -441 -183q-238 0 -361.5 117t-123.5 340zM395 1497h355l192 -299h-264zM406 428q0 -227 176 -227q139 0 215 159q55 117 55 269q0 106 -46 162.5t-130 56.5 q-143 0 -215 -160q-55 -125 -55 -260z" />
<glyph unicode="&#xf3;" horiz-adv-x="1257" d="M86 432q0 123 41 243t113 206q154 193 448 192q236 0 359.5 -115.5t123.5 -332.5q0 -279 -159 -467q-160 -182 -441 -183q-238 0 -361.5 117t-123.5 340zM406 428q0 -227 176 -227q139 0 215 159q55 117 55 269q0 106 -46 162.5t-130 56.5q-143 0 -215 -160 q-55 -125 -55 -260zM541 1198l288 299h377l-370 -299h-295z" />
<glyph unicode="&#xf4;" horiz-adv-x="1257" d="M86 432q0 123 41 243t113 206q154 193 448 192q236 0 359.5 -115.5t123.5 -332.5q0 -279 -159 -467q-160 -182 -441 -183q-238 0 -361.5 117t-123.5 340zM303 1198l287 299h362l193 -299h-281l-108 172l-160 -172h-293zM406 428q0 -227 176 -227q139 0 215 159 q55 117 55 269q0 106 -46 162.5t-130 56.5q-143 0 -215 -160q-55 -125 -55 -260z" />
<glyph unicode="&#xf5;" horiz-adv-x="1257" d="M86 432q0 123 41 243t113 206q154 193 448 192q236 0 359.5 -115.5t123.5 -332.5q0 -279 -159 -467q-160 -182 -441 -183q-238 0 -361.5 117t-123.5 340zM311 1206q27 129 94.5 206t155.5 77q63 0 201 -45q106 -39 149 -39q59 0 84 80h170q-55 -283 -252 -283 q-74 0 -272 68q-49 16 -78 16q-53 0 -78 -80h-174zM406 428q0 -227 176 -227q139 0 215 159q55 117 55 269q0 106 -46 162.5t-130 56.5q-143 0 -215 -160q-55 -125 -55 -260z" />
<glyph unicode="&#xf6;" horiz-adv-x="1257" d="M86 432q0 123 41 243t113 206q154 193 448 192q236 0 359.5 -115.5t123.5 -332.5q0 -279 -159 -467q-160 -182 -441 -183q-238 0 -361.5 117t-123.5 340zM360 1378q0 76 50.5 125t126.5 49q78 0 127 -49t49 -127t-49.5 -127t-127 -49t-127 50t-49.5 128zM406 428 q0 -227 176 -227q139 0 215 159q55 117 55 269q0 106 -46 162.5t-130 56.5q-143 0 -215 -160q-55 -125 -55 -260zM815 1378q0 76 50 125t126 49q78 0 127 -49t49 -127t-49 -127t-127 -49t-127 50t-49 128z" />
<glyph unicode="&#xf7;" d="M111 406l36 241h1035l-37 -241h-1034zM416 147q0 72 48 119t122 47q72 0 120 -48t48 -122q0 -72 -48.5 -120t-119.5 -48q-76 0 -123 48t-47 124zM539 905q0 72 48 120t121.5 48t122 -48t48.5 -122t-48.5 -122t-121.5 -48q-76 0 -123 48t-47 124z" />
<glyph unicode="&#xf8;" horiz-adv-x="1257" d="M-33 59l160 140q-47 102 -47 227q0 272 156 455q160 193 448 192q217 0 342 -90l141 123l95 -117l-138 -121q57 -109 58 -243q0 -131 -45 -255t-123 -212q-162 -182 -453 -183q-221 0 -344 103l-156 -137zM399 471q0 -18 2 -33l412 359q-43 59 -139 59q-139 0 -219 -164 q-56 -110 -56 -221zM434 266q45 -74 141 -73q143 0 226 155q61 115 61 250q0 27 -2 41z" />
<glyph unicode="&#xf9;" horiz-adv-x="1353" d="M123 823l35 226l428 10l-92 -576q-16 -104 -17 -164q0 -55 29 -86.5t80 -31.5q113 0 241 168l72 452l-117 2l37 226l428 10l-133 -828l117 -6l-35 -225h-403l22 139q-100 -94 -177 -129t-181 -35q-143 0 -221 73t-78 204q0 51 16 172l64 397zM436 1497h355l192 -299h-264 z" />
<glyph unicode="&#xfa;" horiz-adv-x="1353" d="M123 823l35 226l428 10l-92 -576q-16 -104 -17 -164q0 -55 29 -86.5t80 -31.5q113 0 241 168l72 452l-117 2l37 226l428 10l-133 -828l117 -6l-35 -225h-403l22 139q-100 -94 -177 -129t-181 -35q-143 0 -221 73t-78 204q0 51 16 172l64 397zM590 1198l289 299h376 l-370 -299h-295z" />
<glyph unicode="&#xfb;" horiz-adv-x="1353" d="M123 823l35 226l428 10l-92 -576q-16 -104 -17 -164q0 -55 29 -86.5t80 -31.5q113 0 241 168l72 452l-117 2l37 226l428 10l-133 -828l117 -6l-35 -225h-403l22 139q-100 -94 -177 -129t-181 -35q-143 0 -221 73t-78 204q0 51 16 172l64 397zM324 1198l286 299h363 l192 -299h-280l-109 172l-160 -172h-292z" />
<glyph unicode="&#xfc;" horiz-adv-x="1353" d="M123 823l35 226l428 10l-92 -576q-16 -104 -17 -164q0 -55 29 -86.5t80 -31.5q113 0 241 168l72 452l-117 2l37 226l428 10l-133 -828l117 -6l-35 -225h-403l22 139q-100 -94 -177 -129t-181 -35q-143 0 -221 73t-78 204q0 51 16 172l64 397zM375 1378q0 76 50 125 t126 49t126 -49t50 -127t-50 -127t-126 -49q-78 0 -127 50t-49 128zM829 1378q0 76 50.5 125t126 49t126 -49t50.5 -127t-50.5 -127t-125.5 -49q-78 0 -127.5 50t-49.5 128z" />
<glyph unicode="&#xfd;" horiz-adv-x="1181" d="M-117 -428l68 246q78 -35 139 -35q72 0 127 52t143 204l-200 778l-88 6l37 226h493l-37 -226l-104 -6l45 -194q41 -170 57 -261q61 129 123 242l115 213l-113 6l35 226h516l-35 -226l-84 -6l-446 -790q-98 -176 -147.5 -249t-104.5 -128q-119 -117 -307 -117 q-128 0 -232 39zM524 1198l289 299h377l-371 -299h-295z" />
<glyph unicode="&#xfe;" horiz-adv-x="1320" d="M-78 -440l35 225l119 6l233 1475l-123 6l37 225l434 10l-90 -561q133 127 295 127q176 0 273.5 -114.5t97.5 -323.5q0 -276 -133 -465q-135 -195 -359 -195q-213 0 -301 168l-55 -352l145 -6l-34 -225h-574zM477 373q66 -172 191 -172q96 0 170.5 128t74.5 296 q0 104 -41 163.5t-114 59.5q-109 0 -230 -150z" />
<glyph unicode="&#xff;" horiz-adv-x="1181" d="M-117 -428l68 246q78 -35 139 -35q72 0 127 52t143 204l-200 778l-88 6l37 226h493l-37 -226l-104 -6l45 -194q41 -170 57 -261q61 129 123 242l115 213l-113 6l35 226h516l-35 -226l-84 -6l-446 -790q-98 -176 -147.5 -249t-104.5 -128q-119 -117 -307 -117 q-128 0 -232 39zM289 1378q0 76 50 125t126 49t126 -49t50 -127t-50 -127t-126 -49q-78 0 -127 50t-49 128zM743 1378q0 76 50.5 125t126 49t126 -49t50.5 -127t-50.5 -127t-125.5 -49q-78 0 -127.5 50t-49.5 128z" />
<glyph unicode="&#x100;" horiz-adv-x="1503" d="M-70 0l35 225l119 6l631 1186h334l270 -1186l123 -6l-35 -225h-569l36 225l130 6l-31 164h-479l-82 -164l133 -6l-35 -225h-580zM512 1563l29 182h737l-29 -182h-737zM608 625h322l-45 227q-27 141 -43 244q-8 -31 -101 -209z" />
<glyph unicode="&#x101;" horiz-adv-x="1288" d="M86 403q0 274 125 463q133 207 360 207q100 0 167 -36t116 -115l25 127h311q-29 -119 -72 -381l-69 -437l116 -6l-37 -225h-405l10 123q-98 -147 -284 -148q-174 0 -259 97q-104 120 -104 331zM352 1206l29 183h737l-28 -183h-738zM406 430q0 -229 131 -229 q123 0 225 172l51 313q-59 162 -174 162q-96 0 -164.5 -123t-68.5 -295z" />
<glyph unicode="&#x102;" horiz-adv-x="1503" d="M-70 0l35 225l119 6l631 1186h334l270 -1186l123 -6l-35 -225h-569l36 225l130 6l-31 164h-479l-82 -164l133 -6l-35 -225h-580zM551 1774q0 45 10 96h170v-27q0 -59 39 -82.5t135 -23.5q102 0 148.5 28.5t62.5 104.5h172q-16 -147 -76 -215q-100 -115 -315 -115 q-346 1 -346 234zM608 625h322l-45 227q-27 141 -43 244q-8 -31 -101 -209z" />
<glyph unicode="&#x103;" horiz-adv-x="1288" d="M86 403q0 274 125 463q133 207 360 207q100 0 167 -36t116 -115l25 127h311q-29 -119 -72 -381l-69 -437l116 -6l-37 -225h-405l10 123q-98 -147 -284 -148q-174 0 -259 97q-104 120 -104 331zM406 430q0 -229 131 -229q123 0 225 172l51 313q-59 162 -174 162 q-96 0 -164.5 -123t-68.5 -295zM424 1417q0 45 10 96h170v-26q0 -59 39 -83t135 -24q102 0 148.5 29t62.5 104h172q-16 -147 -76 -215q-100 -115 -315 -114q-346 0 -346 233z" />
<glyph unicode="&#x104;" horiz-adv-x="1503" d="M-70 0l35 225l119 6l631 1186h334l270 -1186l123 -6l-35 -225q-133 -68 -188.5 -119t-55.5 -108q0 -84 119 -84q33 0 78 10l-12 -137q-86 -14 -170 -15q-127 0 -196 46.5t-69 132.5q0 158 297 274h-372l36 225l130 6l-31 164h-479l-82 -164l133 -6l-35 -225h-580z M608 625h322l-45 227q-27 141 -43 244q-16 -47 -101 -209z" />
<glyph unicode="&#x105;" horiz-adv-x="1288" d="M86 403q0 274 125 463q133 207 360 207q100 0 167 -36t116 -115l25 127h311q-29 -119 -72 -381l-69 -437l116 -6l-37 -225q-137 -72 -189 -121t-52 -106q0 -84 119 -84q31 0 77 10l-12 -137q-92 -14 -168 -15q-129 0 -197.5 46.5t-68.5 132.5q0 82 71.5 148.5 t225.5 125.5h-211l10 123q-98 -147 -284 -148q-174 0 -259 97q-104 120 -104 331zM406 430q0 -229 131 -229q123 0 225 172l51 313q-59 162 -174 162q-96 0 -164.5 -123t-68.5 -295z" />
<glyph unicode="&#x106;" horiz-adv-x="1349" d="M129 627q0 379 231 610q207 205 558 205q219 0 428 -84l-64 -395h-244l19 208q-68 20 -131 21q-199 0 -330 -153.5t-131 -387.5q0 -195 100.5 -308.5t274.5 -113.5q139 0 290 84l84 -262q-197 -76 -399 -76q-328 0 -507 170.5t-179 481.5zM713 1554l288 299h377 l-370 -299h-295z" />
<glyph unicode="&#x107;" horiz-adv-x="1085" d="M86 444q0 285 172 467q156 162 416 162q193 0 370 -69l-55 -351h-241l14 185q-25 10 -66 10q-123 0 -206.5 -111.5t-83.5 -275.5q0 -121 62 -186.5t177 -65.5q106 0 232 70l43 -232q-133 -72 -330 -72q-238 0 -371 124t-133 345zM516 1198l289 299h377l-371 -299h-295z " />
<glyph unicode="&#x108;" horiz-adv-x="1349" d="M129 627q0 379 231 610q207 205 558 205q219 0 428 -84l-64 -395h-244l19 208q-68 20 -131 21q-199 0 -330 -153.5t-131 -387.5q0 -195 100.5 -308.5t274.5 -113.5q139 0 290 84l84 -262q-197 -76 -399 -76q-328 0 -507 170.5t-179 481.5zM473 1554l287 299h362l193 -299 h-281l-108 172l-160 -172h-293z" />
<glyph unicode="&#x109;" horiz-adv-x="1085" d="M86 444q0 285 172 467q156 162 416 162q193 0 370 -69l-55 -351h-241l14 185q-25 10 -66 10q-123 0 -206.5 -111.5t-83.5 -275.5q0 -121 62 -186.5t177 -65.5q106 0 232 70l43 -232q-133 -72 -330 -72q-238 0 -371 124t-133 345zM264 1198l287 299h362l193 -299h-281 l-108 172l-160 -172h-293z" />
<glyph unicode="&#x10a;" horiz-adv-x="1349" d="M129 627q0 379 231 610q207 205 558 205q219 0 428 -84l-64 -395h-244l19 208q-68 20 -131 21q-199 0 -330 -153.5t-131 -387.5q0 -195 100.5 -308.5t274.5 -113.5q139 0 290 84l84 -262q-197 -76 -399 -76q-328 0 -507 170.5t-179 481.5zM758 1710q0 76 50 125t126 49 q78 0 127 -49t49 -127t-49 -127t-127 -49t-127 50t-49 128z" />
<glyph unicode="&#x10b;" horiz-adv-x="1085" d="M86 444q0 285 172 467q156 162 416 162q193 0 370 -69l-55 -351h-241l14 185q-25 10 -66 10q-123 0 -206.5 -111.5t-83.5 -275.5q0 -121 62 -186.5t177 -65.5q106 0 232 70l43 -232q-133 -72 -330 -72q-238 0 -371 124t-133 345zM537 1378q0 76 50 125t126 49 q78 0 127 -49t49 -127t-49 -127t-127 -49t-127 50t-49 128z" />
<glyph unicode="&#x10c;" horiz-adv-x="1349" d="M129 627q0 379 231 610q207 205 558 205q219 0 428 -84l-64 -395h-244l19 208q-68 20 -131 21q-199 0 -330 -153.5t-131 -387.5q0 -195 100.5 -308.5t274.5 -113.5q139 0 290 84l84 -262q-197 -76 -399 -76q-328 0 -507 170.5t-179 481.5zM530 1870h281l107 -172l159 172 h295l-287 -299h-364z" />
<glyph unicode="&#x10d;" horiz-adv-x="1085" d="M86 444q0 285 172 467q156 162 416 162q193 0 370 -69l-55 -351h-241l14 185q-25 10 -66 10q-123 0 -206.5 -111.5t-83.5 -275.5q0 -121 62 -186.5t177 -65.5q106 0 232 70l43 -232q-133 -72 -330 -72q-238 0 -371 124t-133 345zM334 1513h280l107 -172l160 172h295 l-287 -299h-365z" />
<glyph unicode="&#x10e;" horiz-adv-x="1513" d="M4 0l35 225l131 6l152 955l-138 6l37 225h524q199 0 317 -29.5t200 -99.5q176 -147 176 -465q0 -233 -79 -413.5t-224 -280.5q-100 -72 -229.5 -100.5t-348.5 -28.5h-553zM418 1870h280l107 -172l160 172h295l-287 -299h-365zM492 244h71q264 0 385 121q72 72 116 195.5 t44 250.5q0 252 -156 326q-72 37 -258 37h-55z" />
<glyph unicode="&#x10f;" horiz-adv-x="1632" d="M84 406q0 270 131 462q137 205 377 205q201 0 295 -139l51 334l-127 4l37 225l438 8l-203 -1274l117 -6l-35 -225h-407l12 135q-115 -160 -315 -160q-178 0 -274.5 112t-96.5 319zM403 432q0 -109 38 -170t106 -61q141 0 250 172l51 321q-63 154 -188 154t-197 -152 q-60 -123 -60 -264zM1346 918l266 579h299l-316 -579h-249z" />
<glyph unicode="&#x110;" horiz-adv-x="1511" d="M4 0l35 225l129 6l65 402h-170l29 180h170l57 373l-126 6l36 225h516q199 0 317 -29.5t200 -99.5q176 -150 176 -459q0 -236 -79 -417t-224 -283q-100 -72 -228.5 -100.5t-349.5 -28.5h-553zM492 244h71q262 0 383 121q70 70 116 194.5t46 245.5q0 256 -156 332 q-72 37 -260 37h-55l-55 -361h262l-29 -180h-262z" />
<glyph unicode="&#x111;" horiz-adv-x="1323" d="M84 406q0 270 131 462q137 205 377 205q201 0 295 -139l28 184h-309l21 131h309l8 56l-127 6l31 186l438 8l-39 -256h127l-20 -131h-129l-142 -887l117 -6l-35 -225h-407l12 135q-115 -160 -315 -160q-178 0 -274.5 112t-96.5 319zM403 432q0 -109 38 -170t106 -61 q141 0 250 172l51 321q-63 154 -188 154t-197 -152q-60 -123 -60 -264z" />
<glyph unicode="&#x112;" horiz-adv-x="1282" d="M4 0l35 225l131 6l152 955l-138 6l37 225h1051l-68 -426h-233l18 187h-350l-53 -338h389l-39 -244h-389l-58 -356h381l41 196h236l-68 -436h-1075zM401 1563l29 182h737l-28 -182h-738z" />
<glyph unicode="&#x113;" horiz-adv-x="1239" d="M86 420q0 274 154 461q160 193 436 192q231 0 354 -110.5t123 -319.5q0 -92 -18 -221h-729v-21q0 -96 67.5 -150t188.5 -54q164 0 327 84l51 -236q-174 -70 -411 -70q-543 1 -543 445zM317 1206l29 183h737l-28 -183h-738zM432 625h416q4 25 4 53q0 84 -44 131t-124 47 q-94 0 -161.5 -62.5t-90.5 -168.5z" />
<glyph unicode="&#x114;" horiz-adv-x="1282" d="M4 0l35 225l131 6l152 955l-138 6l37 225h1051l-68 -426h-233l18 187h-350l-53 -338h389l-39 -244h-389l-58 -356h381l41 196h236l-68 -436h-1075zM446 1774q0 45 11 96h170v-27q0 -59 39 -82.5t135 -23.5q102 0 148 28.5t63 104.5h172q-16 -147 -76 -215 q-100 -115 -315 -115q-347 1 -347 234z" />
<glyph unicode="&#x116;" horiz-adv-x="1282" d="M4 0l35 225l131 6l152 955l-138 6l37 225h1051l-68 -426h-233l18 187h-350l-53 -338h389l-39 -244h-389l-58 -356h381l41 196h236l-68 -436h-1075zM610 1710q0 76 50.5 125t125.5 49q78 0 127.5 -49t49.5 -127t-49.5 -127t-127 -49t-127 50t-49.5 128z" />
<glyph unicode="&#x117;" horiz-adv-x="1239" d="M86 420q0 274 154 461q160 193 436 192q231 0 354 -110.5t123 -319.5q0 -92 -18 -221h-729v-21q0 -96 67.5 -150t188.5 -54q164 0 327 84l51 -236q-174 -70 -411 -70q-543 1 -543 445zM432 625h416q4 25 4 53q0 84 -44 131t-124 47q-94 0 -161.5 -62.5t-90.5 -168.5z M559 1378q0 76 50 125t126 49t126 -49t50 -127t-50 -127t-126 -49q-78 0 -127 50t-49 128z" />
<glyph unicode="&#x118;" horiz-adv-x="1282" d="M4 0l35 225l131 6l152 955l-138 6l37 225h1051l-68 -426h-233l18 187h-350l-53 -338h389l-39 -244h-389l-58 -356h381l41 196h236l-68 -436q-141 -76 -192 -123t-51 -104q0 -84 118 -84q33 0 78 10l-12 -137q-94 -14 -168 -15q-129 0 -197.5 46.5t-68.5 132.5 q0 82 71.5 148.5t225.5 125.5h-879z" />
<glyph unicode="&#x119;" horiz-adv-x="1239" d="M86 420q0 274 154 461q160 193 436 192q231 0 354 -110.5t123 -319.5q0 -92 -18 -221h-729v-21q0 -96 67.5 -150t188.5 -54q164 0 327 84l51 -236q-104 -45 -280 -63q-119 -63 -164 -109.5t-45 -99.5q0 -84 119 -84q31 0 78 10l-13 -137q-92 -14 -168 -15 q-129 0 -197.5 46.5t-68.5 132.5q0 147 244 251q-459 37 -459 443zM432 625h416q4 25 4 53q0 84 -44 131t-124 47q-94 0 -161.5 -62.5t-90.5 -168.5z" />
<glyph unicode="&#x11a;" horiz-adv-x="1282" d="M4 0l35 225l131 6l152 955l-138 6l37 225h1051l-68 -426h-233l18 187h-350l-53 -338h389l-39 -244h-389l-58 -356h381l41 196h236l-68 -436h-1075zM418 1870h280l107 -172l160 172h295l-287 -299h-365z" />
<glyph unicode="&#x11b;" horiz-adv-x="1239" d="M86 420q0 274 154 461q160 193 436 192q231 0 354 -110.5t123 -319.5q0 -92 -18 -221h-729v-21q0 -96 67.5 -150t188.5 -54q164 0 327 84l51 -236q-174 -70 -411 -70q-543 1 -543 445zM342 1513h281l106 -172l160 172h295l-287 -299h-365zM432 625h416q4 25 4 53 q0 84 -44 131t-124 47q-94 0 -161.5 -62.5t-90.5 -168.5z" />
<glyph unicode="&#x11c;" horiz-adv-x="1531" d="M127 580q0 391 233 634q219 227 594 228q276 0 512 -96l-61 -390h-244l19 199q-115 37 -226 37q-244 0 -368 -168q-129 -176 -129 -410q0 -182 91 -285.5t253 -103.5q96 0 184 33l41 266l-139 6l33 209h567l-33 -209l-119 -6l-71 -465q-260 -84 -480 -84q-346 0 -508 175 q-149 158 -149 430zM551 1554l287 299h362l193 -299h-281l-108 172l-160 -172h-293z" />
<glyph unicode="&#x11d;" horiz-adv-x="1320" d="M43 -403l70 249q150 -86 295 -86q199 0 278 127q41 63 66 219l10 60q-111 -137 -299 -137q-170 0 -271.5 112.5t-101.5 300.5q0 225 113 406q145 225 393 225q223 0 303 -149l29 135l399 -10l-35 -226l-118 -6l-115 -723q-29 -184 -58.5 -262t-93.5 -143 q-158 -154 -489 -154q-209 1 -375 62zM336 1198l287 299h362l193 -299h-281l-109 172l-159 -172h-293zM410 455q0 -94 41 -147.5t112 -53.5q68 0 133.5 49t106.5 129l39 236q-45 180 -189 180q-121 0 -194 -156q-49 -112 -49 -237z" />
<glyph unicode="&#x11e;" horiz-adv-x="1531" d="M127 580q0 391 233 634q219 227 594 228q276 0 512 -96l-61 -390h-244l19 199q-115 37 -226 37q-244 0 -368 -168q-129 -176 -129 -410q0 -182 91 -285.5t253 -103.5q96 0 184 33l41 266l-139 6l33 209h567l-33 -209l-119 -6l-71 -465q-260 -84 -480 -84q-346 0 -508 175 q-149 158 -149 430zM621 1774q0 45 10 96h170v-27q0 -59 39 -82.5t135 -23.5q102 0 148 28.5t63 104.5h172q-16 -147 -76 -215q-100 -115 -315 -115q-346 1 -346 234z" />
<glyph unicode="&#x11f;" horiz-adv-x="1320" d="M43 -403l70 249q150 -86 295 -86q199 0 278 127q41 63 66 219l10 60q-111 -137 -299 -137q-170 0 -271.5 112.5t-101.5 300.5q0 225 113 406q145 225 393 225q223 0 303 -149l29 135l399 -10l-35 -226l-118 -6l-115 -723q-29 -184 -58.5 -262t-93.5 -143 q-158 -154 -489 -154q-209 1 -375 62zM410 455q0 -94 41 -147.5t112 -53.5q68 0 133.5 49t106.5 129l39 236q-45 180 -189 180q-121 0 -194 -156q-49 -112 -49 -237zM438 1417q0 45 11 96h169v-26q0 -59 39 -83t136 -24q102 0 148 29t63 104h172q-16 -147 -76 -215 q-100 -115 -316 -114q-346 0 -346 233z" />
<glyph unicode="&#x120;" horiz-adv-x="1531" d="M127 580q0 391 233 634q219 227 594 228q276 0 512 -96l-61 -390h-244l19 199q-115 37 -226 37q-244 0 -368 -168q-129 -176 -129 -410q0 -182 91 -285.5t253 -103.5q96 0 184 33l41 266l-139 6l33 209h567l-33 -209l-119 -6l-71 -465q-260 -84 -480 -84q-346 0 -508 175 q-149 158 -149 430zM778 1710q0 76 50.5 125t125.5 49q78 0 127 -49t49 -127t-49 -127t-126.5 -49t-127 50t-49.5 128z" />
<glyph unicode="&#x121;" horiz-adv-x="1320" d="M43 -403l70 249q150 -86 295 -86q199 0 278 127q41 63 66 219l10 60q-111 -137 -299 -137q-170 0 -271.5 112.5t-101.5 300.5q0 225 113 406q145 225 393 225q223 0 303 -149l29 135l399 -10l-35 -226l-118 -6l-115 -723q-29 -184 -58.5 -262t-93.5 -143 q-158 -154 -489 -154q-209 1 -375 62zM410 455q0 -94 41 -147.5t112 -53.5q68 0 133.5 49t106.5 129l39 236q-45 180 -189 180q-121 0 -194 -156q-49 -112 -49 -237zM614 1378q0 76 50.5 125t126.5 49q78 0 127 -49t49 -127t-49.5 -127t-127 -49t-127 50t-49.5 128z" />
<glyph unicode="&#x122;" horiz-adv-x="1531" d="M127 580q0 391 233 634q219 227 594 228q276 0 512 -96l-61 -390h-244l19 199q-115 37 -226 37q-244 0 -368 -168q-129 -176 -129 -410q0 -182 91 -285.5t253 -103.5q96 0 184 33l41 266l-139 6l33 209h567l-33 -209l-119 -6l-71 -465q-260 -84 -480 -84q-346 0 -508 175 q-149 158 -149 430zM338 -379l285 313h338l-340 -313h-283z" />
<glyph unicode="&#x123;" horiz-adv-x="1320" d="M43 -403l70 249q150 -86 295 -86q199 0 278 127q41 63 66 219l10 60q-111 -137 -299 -137q-170 0 -271.5 112.5t-101.5 300.5q0 225 113 406q145 225 393 225q223 0 303 -149l29 135l399 -10l-35 -226l-118 -6l-115 -723q-29 -184 -58.5 -262t-93.5 -143 q-158 -154 -489 -154q-209 1 -375 62zM410 455q0 -94 41 -147.5t112 -53.5q68 0 133.5 49t106.5 129l39 236q-45 180 -189 180q-121 0 -194 -156q-49 -112 -49 -237zM504 1184l340 313h282l-284 -313h-338z" />
<glyph unicode="&#x124;" horiz-adv-x="1572" d="M4 0l35 225l131 6l152 955l-136 6l37 225h582l-35 -225l-129 -6l-55 -344h501l54 344l-133 6l34 225h584l-35 -225l-131 -6l-151 -955l135 -6l-37 -225h-584l37 225l129 6l60 371h-502l-58 -371l134 -6l-35 -225h-584zM522 1554l287 299h362l193 -299h-281l-108 172 l-160 -172h-293z" />
<glyph unicode="&#x125;" horiz-adv-x="1372" d="M0 0l35 225l119 6l163 1035l-122 6l36 225l435 10l-93 -575q156 141 336 141q147 0 226 -72.5t79 -209.5q0 -51 -16 -166l-63 -394l114 -6l-37 -225h-538l37 225l114 6l52 316q20 133 20 178q0 57 -30.5 90t-84.5 33q-115 0 -247 -168l-70 -449l117 -6l-35 -225h-547z M104 1616l287 299h363l192 -299h-280l-109 172l-160 -172h-293z" />
<glyph unicode="&#x126;" horiz-adv-x="1572" d="M4 0l35 225l131 6l113 711h-144l23 139h141l19 105l-136 6l37 225h582l-35 -225l-129 -6l-18 -105h501l17 105l-133 6l34 225h584l-35 -225l-131 -6l-16 -105h137l-22 -139h-136l-114 -711l135 -6l-37 -225h-584l37 225l129 6l60 371h-502l-58 -371l134 -6l-35 -225h-584 zM586 842h501l15 100h-500z" />
<glyph unicode="&#x127;" horiz-adv-x="1363" d="M0 0l35 225l119 6l139 887h-176l20 131h178l9 56l-123 6l30 186l435 10l-41 -258h258l-21 -131h-258l-31 -186q154 141 336 141q147 0 226 -72.5t79 -209.5q0 -51 -16 -166l-63 -394l114 -6l-37 -225h-538l37 225l114 6l52 316q20 133 20 178q0 57 -30.5 90t-84.5 33 q-115 0 -247 -168l-70 -449l117 -6l-35 -225h-547z" />
<glyph unicode="&#x12a;" horiz-adv-x="753" d="M4 0l35 225l131 6l152 955l-136 6l37 225h584l-35 -225l-131 -6l-152 -955l136 -6l-35 -225h-586zM158 1563l28 182h738l-29 -182h-737z" />
<glyph unicode="&#x12b;" horiz-adv-x="710" d="M0 0l35 225l119 6l92 586l-115 6l35 226l428 10l-131 -828l115 -6l-35 -225h-543zM39 1206l29 183h737l-29 -183h-737z" />
<glyph unicode="&#x12d;" horiz-adv-x="710" d="M0 0l35 225l119 6l92 586l-115 6l35 226l428 10l-131 -828l115 -6l-35 -225h-543zM96 1417q0 45 10 96h170v-26q0 -59 39 -83t136 -24q102 0 148 29t63 104h172q-16 -147 -76 -215q-100 -115 -316 -114q-346 0 -346 233z" />
<glyph unicode="&#x12e;" horiz-adv-x="753" d="M4 0l35 225l131 6l152 955l-136 6l37 225h584l-35 -225l-131 -6l-152 -955l136 -6l-35 -225q-137 -70 -190.5 -120t-53.5 -107q0 -84 117 -84q35 0 78 10l-11 -137q-94 -14 -168 -15q-129 0 -197.5 46.5t-68.5 132.5q0 84 71 149.5t226 124.5h-389z" />
<glyph unicode="&#x12f;" horiz-adv-x="710" d="M0 0l35 225l119 6l92 586l-121 6l35 226l434 10l-131 -828l121 -6l-35 -225q-141 -74 -192.5 -122t-51.5 -105q0 -84 119 -84q35 0 78 10l-10 -137q-94 -14 -170 -15q-129 0 -198 46.5t-69 132.5q0 82 72 148.5t225 125.5h-352zM305 1366q0 76 51.5 126t129 50t128 -50 t50.5 -128t-50.5 -129t-128.5 -51q-80 0 -130 50t-50 132z" />
<glyph unicode="&#x130;" horiz-adv-x="753" d="M4 0l35 225l131 6l152 955l-136 6l37 225h584l-35 -225l-131 -6l-152 -955l136 -6l-35 -225h-586zM367 1710q0 76 50 125t125.5 49t126 -49t50.5 -127t-50.5 -127t-125.5 -49q-78 0 -127 50t-49 128z" />
<glyph unicode="&#x131;" horiz-adv-x="710" d="M0 0l35 225l119 6l92 586l-115 6l35 226l428 10l-131 -828l115 -6l-35 -225h-543z" />
<glyph unicode="&#x134;" horiz-adv-x="923" d="M-61 18l59 279q109 -55 190 -55q102 0 150 69q35 51 57 201l107 674l-146 6l37 225h596l-35 -225l-133 -6l-96 -604q-29 -197 -37 -238t-26 -92q-51 -143 -155 -210t-271.5 -67t-296.5 43zM250 1554l287 299h362l193 -299h-281l-109 172l-159 -172h-293z" />
<glyph unicode="&#x135;" horiz-adv-x="688" d="M-217 -434l51 239q68 -20 117 -20q74 0 112.5 54.5t59.5 189.5l125 788l-137 6l34 226l451 10l-164 -1036q-29 -180 -53 -244q-47 -127 -136 -185.5t-235 -58.5q-110 0 -225 31zM-10 1198l286 299h363l192 -299h-280l-109 172l-159 -172h-293z" />
<glyph unicode="&#x136;" horiz-adv-x="1462" d="M4 0l35 225l135 6l150 955l-131 8l36 223h547l-35 -223l-98 -6l-70 -434l406 438h-90l35 225h565l-35 -223l-104 -6l-437 -459l301 -498l117 -6l-37 -225h-577l35 225l104 4l-287 490l-77 -488l108 -6l-35 -225h-561zM254 -379l285 313h338l-340 -313h-283z" />
<glyph unicode="&#x137;" horiz-adv-x="1343" d="M0 0l35 225l119 6l163 1035l-116 6l37 225l428 10l-144 -903l318 242h-101l31 203h576l-33 -203l-88 -4l-371 -277l266 -338l111 -2l-35 -225h-563l35 225h98l-252 332l-51 -326l102 -6l-35 -225h-530zM199 -379l284 313h338l-340 -313h-282z" />
<glyph unicode="&#x139;" horiz-adv-x="1210" d="M4 0l35 225l131 6l152 955l-138 6l37 225h596l-35 -225l-141 -6l-149 -942h366l43 192h234l-68 -436h-1063zM401 1554l289 299h377l-371 -299h-295z" />
<glyph unicode="&#x13a;" horiz-adv-x="710" d="M0 0l35 225l119 6l163 1035l-116 6l37 225l428 10l-203 -1276l121 -6l-35 -225h-549zM344 1616l289 299h377l-371 -299h-295z" />
<glyph unicode="&#x13b;" horiz-adv-x="1210" d="M4 0l35 225l131 6l152 955l-138 6l37 225h596l-35 -225l-141 -6l-149 -942h366l43 192h234l-68 -436h-1063zM141 -379l285 313h338l-340 -313h-283z" />
<glyph unicode="&#x13c;" horiz-adv-x="710" d="M-150 -379l285 313h338l-340 -313h-283zM0 0l35 225l119 6l163 1035l-116 6l37 225l426 10l-201 -1276l121 -6l-35 -225h-549z" />
<glyph unicode="&#x13d;" horiz-adv-x="1210" d="M4 0l35 225l131 6l152 955l-138 6l37 225h596l-35 -225l-141 -6l-149 -942h366l43 192h234l-68 -436h-1063zM858 918l266 579h312l-316 -579h-262z" />
<glyph unicode="&#x13e;" horiz-adv-x="1009" d="M0 0l35 225l119 6l163 1035l-116 6l37 225l428 10l-203 -1276l121 -6l-35 -225h-549zM723 918l266 579h299l-315 -579h-250z" />
<glyph unicode="&#x141;" horiz-adv-x="1210" d="M4 0l35 225l131 6l41 263l-154 -82l33 217l156 82l73 475l-126 6l36 225h576l-35 -225l-129 -6l-47 -291l297 160l-35 -217l-297 -158l-67 -436h366l43 192h234l-68 -436h-1063z" />
<glyph unicode="&#x142;" horiz-adv-x="694" d="M-8 0l35 225l118 6l54 336l-185 -108l35 223l184 106l76 478l-123 6l37 225l434 10l-82 -518l203 121l-35 -223l-204 -121l-84 -535l120 -6l-34 -225h-549z" />
<glyph unicode="&#x143;" horiz-adv-x="1611" d="M4 0l35 225l131 6l152 955l-129 6l36 225h480l266 -637q78 -186 123 -346l8 55l4 56q18 111 27 172l75 469l-133 6l37 225h555l-35 -225l-129 -6l-188 -1186h-344l-252 594q-94 223 -143 391l-19 -154l-18 -108l-13 -88l-65 -404l131 -6l-35 -225h-557zM801 1554l289 299 h376l-370 -299h-295z" />
<glyph unicode="&#x144;" horiz-adv-x="1372" d="M0 0l35 225l119 6l92 586l-121 6l35 226l409 10l-24 -150q94 90 176 127t186 37q145 0 225 -72.5t80 -205.5q0 -59 -18 -170l-61 -394l122 -6l-36 -225h-547l37 225l114 6l54 330q18 129 18 170q0 55 -30.5 86t-84.5 31q-119 0 -248 -168l-69 -449l117 -6l-35 -225h-545z M639 1198l289 299h377l-371 -299h-295z" />
<glyph unicode="&#x145;" horiz-adv-x="1611" d="M4 0l35 225l131 6l152 955l-129 6l36 225h480l266 -637q78 -186 123 -346l8 55l4 56q18 111 27 172l75 469l-133 6l37 225h555l-35 -225l-129 -6l-188 -1186h-344l-252 594q-94 223 -143 391l-19 -154l-18 -108l-13 -88l-65 -404l131 -6l-35 -225h-557zM350 -379l285 313 h338l-340 -313h-283z" />
<glyph unicode="&#x146;" horiz-adv-x="1372" d="M0 0l35 225l119 6l92 586l-121 6l35 226l409 10l-24 -150q94 90 176 127t186 37q145 0 225 -72.5t80 -205.5q0 -59 -18 -170l-61 -394l122 -6l-36 -225h-547l37 225l114 6l54 330q18 129 18 170q0 55 -30.5 86t-84.5 31q-119 0 -248 -168l-69 -449l117 -6l-35 -225h-545z M197 -379l284 313h338l-340 -313h-282z" />
<glyph unicode="&#x147;" horiz-adv-x="1611" d="M4 0l35 225l131 6l152 955l-129 6l36 225h480l266 -637q78 -186 123 -346l8 55l4 56q18 111 27 172l75 469l-133 6l37 225h555l-35 -225l-129 -6l-188 -1186h-344l-252 594q-94 223 -143 391l-19 -154l-18 -108l-13 -88l-65 -404l131 -6l-35 -225h-557zM639 1870h281 l106 -172l160 172h295l-287 -299h-365z" />
<glyph unicode="&#x148;" horiz-adv-x="1372" d="M0 0l35 225l119 6l92 586l-121 6l35 226l409 10l-24 -150q94 90 176 127t186 37q145 0 225 -72.5t80 -205.5q0 -59 -18 -170l-61 -394l122 -6l-36 -225h-547l37 225l114 6l54 330q18 129 18 170q0 55 -30.5 86t-84.5 31q-119 0 -248 -168l-69 -449l117 -6l-35 -225h-545z M422 1513h280l107 -172l160 172h295l-287 -299h-365z" />
<glyph unicode="&#x14c;" horiz-adv-x="1568" d="M127 584q0 350 205 602q205 256 559 256q289 0 448.5 -157t159.5 -439q0 -375 -213 -625q-109 -127 -242 -186.5t-315 -59.5q-287 0 -444.5 159t-157.5 450zM457 582q0 -170 74.5 -263.5t211.5 -93.5q193 0 314 191q115 186 114 430q0 160 -76.5 253t-209.5 93 q-197 0 -314 -191q-114 -181 -114 -419zM551 1563l29 182h737l-29 -182h-737z" />
<glyph unicode="&#x14d;" horiz-adv-x="1257" d="M86 432q0 123 41 243t113 206q154 193 448 192q236 0 359.5 -115.5t123.5 -332.5q0 -279 -159 -467q-160 -182 -441 -183q-238 0 -361.5 117t-123.5 340zM340 1206l29 183h737l-29 -183h-737zM406 428q0 -227 176 -227q139 0 215 159q55 117 55 269q0 106 -46 162.5 t-130 56.5q-143 0 -215 -160q-55 -125 -55 -260z" />
<glyph unicode="&#x150;" horiz-adv-x="1568" d="M127 584q0 350 205 602q205 256 559 256q289 0 448.5 -157t159.5 -439q0 -375 -213 -625q-109 -127 -242 -186.5t-315 -59.5q-287 0 -444.5 159t-157.5 450zM457 582q0 -170 74.5 -263.5t211.5 -93.5q193 0 314 191q115 186 114 430q0 160 -76.5 253t-209.5 93 q-197 0 -314 -191q-114 -181 -114 -419zM530 1554l289 299h357l-371 -299h-275zM1001 1554l287 299h357l-375 -299h-269z" />
<glyph unicode="&#x151;" horiz-adv-x="1257" d="M86 432q0 123 41 243t113 206q154 193 448 192q236 0 359.5 -115.5t123.5 -332.5q0 -279 -159 -467q-160 -182 -441 -183q-238 0 -361.5 117t-123.5 340zM311 1198l289 299h356l-370 -299h-275zM406 428q0 -227 176 -227q139 0 215 159q55 117 55 269q0 106 -46 162.5 t-130 56.5q-143 0 -215 -160q-55 -125 -55 -260zM782 1198l287 299h356l-374 -299h-269z" />
<glyph unicode="&#x152;" horiz-adv-x="2056" d="M129 573q0 197 63.5 369t176.5 283q158 154 401 184q72 8 252 8h1028l-68 -426h-235l18 187h-350l-53 -338h389l-39 -244h-389l-57 -356h381l43 196h233l-68 -436h-966q-252 0 -367 31q-393 104 -393 542zM459 606q0 -213 129 -303q94 -63 305 -63h53l150 938h-54 q-184 0 -274 -25t-154 -94q-72 -78 -113.5 -200t-41.5 -253z" />
<glyph unicode="&#x153;" horiz-adv-x="1951" d="M86 424q0 270 152 459q158 190 428 190q229 0 356 -147q92 82 178 114.5t203 32.5q225 0 346 -112.5t121 -323.5q0 -80 -19 -215h-729q-2 -10 -2 -21q0 -96 67.5 -150t188.5 -54q164 0 328 84l51 -236q-178 -70 -407 -70q-281 0 -412 138q-80 -74 -169 -106t-216 -32 q-225 0 -345 116t-120 333zM406 426q0 -225 161 -225q156 0 224 211q35 115 34 213q0 223 -161 223q-135 0 -203 -160q-55 -121 -55 -262zM1149 625h416q4 49 4 55q0 84 -44 130t-124 46q-94 0 -161.5 -62.5t-90.5 -168.5z" />
<glyph unicode="&#x154;" horiz-adv-x="1335" d="M4 0l35 225l131 6l152 955l-136 6l37 225h565q258 0 363 -69q141 -92 141 -291q0 -143 -83 -243.5t-234 -135.5q59 -35 84.5 -83t77.5 -228l37 -136l114 -6l-35 -225h-340l-71 270q-49 184 -86 236q-25 37 -59.5 51t-102.5 14h-51l-54 -340l134 -6l-35 -225h-584z M573 811h105q150 0 213 55q76 63 76 164q0 84 -50.5 116t-179.5 32h-106zM588 1554l289 299h376l-370 -299h-295z" />
<glyph unicode="&#x155;" horiz-adv-x="876" d="M0 0l35 225l119 6l92 586l-121 6l35 226l418 10l-31 -195q100 199 289 199q45 0 102 -16l-57 -269q-57 12 -95 13q-188 0 -272 -224l-53 -336l139 -6l-35 -225h-565zM381 1198l289 299h377l-371 -299h-295z" />
<glyph unicode="&#x156;" horiz-adv-x="1335" d="M4 0l35 225l131 6l152 955l-136 6l37 225h565q258 0 363 -69q141 -92 141 -291q0 -143 -83 -243.5t-234 -135.5q59 -35 84.5 -83t77.5 -228l37 -136l114 -6l-35 -225h-340l-71 270q-49 184 -86 236q-25 37 -59.5 51t-102.5 14h-51l-54 -340l134 -6l-35 -225h-584z M307 -379l285 313h338l-340 -313h-283zM573 811h105q150 0 213 55q76 63 76 164q0 84 -50.5 116t-179.5 32h-106z" />
<glyph unicode="&#x157;" horiz-adv-x="876" d="M-111 -379l285 313h338l-340 -313h-283zM0 0l35 225l119 6l92 586l-123 6l37 226l418 10l-31 -195q100 199 289 199q45 0 100 -16l-57 -269q-55 12 -95 13q-186 0 -270 -224l-53 -336l139 -6l-37 -225h-563z" />
<glyph unicode="&#x158;" horiz-adv-x="1335" d="M4 0l35 225l131 6l152 955l-136 6l37 225h565q258 0 363 -69q141 -92 141 -291q0 -143 -83 -243.5t-234 -135.5q59 -35 84.5 -83t77.5 -228l37 -136l114 -6l-35 -225h-340l-71 270q-49 184 -86 236q-25 37 -59.5 51t-102.5 14h-51l-54 -340l134 -6l-35 -225h-584z M383 1870h281l106 -172l160 172h295l-287 -299h-365zM573 811h105q150 0 213 55q76 63 76 164q0 84 -50.5 116t-179.5 32h-106z" />
<glyph unicode="&#x159;" horiz-adv-x="876" d="M0 0l35 225l119 6l92 586l-121 6l35 226l418 10l-31 -195q100 199 289 199q45 0 102 -16l-57 -269q-57 12 -95 13q-188 0 -272 -224l-53 -336l139 -6l-35 -225h-565zM184 1513h281l106 -172l160 172h295l-287 -299h-364z" />
<glyph unicode="&#x15a;" horiz-adv-x="1212" d="M33 49l61 387h236l-11 -174q102 -37 211 -37q106 0 175 54.5t69 138.5q0 51 -41 82q-31 25 -190 98q-203 94 -276.5 173t-73.5 204q0 211 159 348q143 119 381 119q201 0 473 -60l-63 -391h-236l13 174q-104 27 -179 27q-94 0 -151.5 -46t-57.5 -122q0 -57 54 -90 q31 -23 162 -82q197 -92 274 -160q92 -82 92 -237q0 -225 -168 -361q-145 -119 -411 -119q-275 0 -502 74zM625 1554l288 299h377l-370 -299h-295z" />
<glyph unicode="&#x15b;" horiz-adv-x="1083" d="M16 49l50 313h223l-10 -135q86 -35 180 -34q203 0 203 114q0 59 -103 90q-240 80 -307 121q-121 76 -121 209q0 141 113 236q129 111 385 110q174 0 393 -53l-49 -318h-219l12 129q-80 29 -158 29q-82 0 -131 -27.5t-49 -74.5q0 -31 26.5 -49.5t108.5 -44.5 q158 -51 214.5 -76t96.5 -62q84 -74 84 -188q0 -156 -118 -254q-123 -109 -402 -109q-246 0 -422 74zM455 1198l288 299h377l-370 -299h-295z" />
<glyph unicode="&#x15c;" horiz-adv-x="1214" d="M33 49l61 387h236l-11 -174q102 -37 211 -37q106 0 175 54.5t69 138.5q0 51 -41 82q-31 25 -190 98q-203 94 -276.5 173t-73.5 204q0 211 159 348q143 119 381 119q201 0 473 -60l-63 -391h-236l13 174q-104 27 -179 27q-94 0 -151.5 -46t-57.5 -122q0 -57 54 -90 q31 -23 162 -82q197 -92 274 -160q92 -82 92 -237q0 -225 -168 -361q-145 -119 -411 -119q-275 0 -502 74zM371 1554l286 299h363l192 -299h-280l-109 172l-159 -172h-293z" />
<glyph unicode="&#x15d;" horiz-adv-x="1083" d="M16 49l50 313h223l-10 -135q86 -35 180 -34q203 0 203 114q0 59 -103 90q-240 80 -307 121q-121 76 -121 209q0 141 113 236q129 111 385 110q174 0 393 -53l-49 -318h-219l12 129q-80 29 -158 29q-82 0 -131 -27.5t-49 -74.5q0 -31 26.5 -49.5t108.5 -44.5 q158 -51 214.5 -76t96.5 -62q84 -74 84 -188q0 -156 -118 -254q-123 -109 -402 -109q-246 0 -422 74zM244 1198l286 299h363l192 -299h-280l-109 172l-159 -172h-293z" />
<glyph unicode="&#x15e;" horiz-adv-x="1214" d="M33 49l61 387h236l-11 -174q102 -37 211 -37q106 0 175 54.5t69 138.5q0 51 -41 82q-31 25 -190 98q-203 94 -276.5 173t-73.5 204q0 211 159 348q143 119 381 119q201 0 473 -60l-63 -391h-236l13 174q-104 27 -179 27q-94 0 -151.5 -46t-57.5 -122q0 -57 54 -90 q31 -23 162 -82q197 -92 274 -160q92 -82 92 -237q0 -225 -168 -361q-145 -119 -411 -119q-275 0 -502 74zM88 -379l285 313h338l-340 -313h-283z" />
<glyph unicode="&#x15f;" horiz-adv-x="1083" d="M16 49l50 313h223l-10 -135q86 -35 180 -34q203 0 203 114q0 59 -103 90q-240 80 -307 121q-121 76 -121 209q0 141 113 236q129 111 385 110q174 0 393 -53l-49 -318h-219l12 129q-80 29 -158 29q-82 0 -131 -27.5t-49 -74.5q0 -31 26.5 -49.5t108.5 -44.5 q158 -51 214.5 -76t96.5 -62q84 -74 84 -188q0 -156 -118 -254q-123 -109 -402 -109q-246 0 -422 74zM72 -379l284 313h338l-340 -313h-282z" />
<glyph unicode="&#x160;" horiz-adv-x="1212" d="M33 49l61 387h236l-11 -174q102 -37 211 -37q106 0 175 54.5t69 138.5q0 51 -41 82q-31 25 -190 98q-203 94 -276.5 173t-73.5 204q0 211 159 348q143 119 381 119q201 0 473 -60l-63 -391h-236l13 174q-104 27 -179 27q-94 0 -151.5 -46t-57.5 -122q0 -57 54 -90 q31 -23 162 -82q197 -92 274 -160q92 -82 92 -237q0 -225 -168 -361q-145 -119 -411 -119q-275 0 -502 74zM432 1870h281l106 -172l160 172h295l-287 -299h-364z" />
<glyph unicode="&#x161;" horiz-adv-x="1083" d="M16 49l50 313h223l-10 -135q86 -35 180 -34q203 0 203 114q0 59 -103 90q-240 80 -307 121q-121 76 -121 209q0 141 113 236q129 111 385 110q174 0 393 -53l-49 -318h-219l12 129q-80 29 -158 29q-82 0 -131 -27.5t-49 -74.5q0 -31 26.5 -49.5t108.5 -44.5 q158 -51 214.5 -76t96.5 -62q84 -74 84 -188q0 -156 -118 -254q-123 -109 -402 -109q-246 0 -422 74zM285 1513h280l107 -172l159 172h295l-286 -299h-365z" />
<glyph unicode="&#x163;" horiz-adv-x="839" d="M10 -379l285 313h338l-340 -313h-283zM88 823l35 226h164l37 225l319 59l-45 -284h225l-35 -226h-227l-55 -352q-14 -96 -14 -152q0 -100 112 -100q59 0 111 27l-8 -234q-117 -37 -248 -37q-287 0 -287 250q0 84 21 217l59 381h-164z" />
<glyph unicode="&#x164;" horiz-adv-x="1286" d="M96 991l68 426h1239l-68 -426h-235l18 187h-217l-149 -947l190 -6l-37 -225h-690l35 225l182 6l150 947h-209l-41 -187h-236zM420 1870h280l107 -172l160 172h295l-287 -299h-365z" />
<glyph unicode="&#x165;" horiz-adv-x="1021" d="M86 823l35 226h166l35 225l319 59l-45 -284h227l-37 -226h-225l-57 -352q-14 -86 -15 -152q0 -100 113 -100q53 0 111 27l-8 -234q-115 -37 -248 -37q-287 0 -287 250q0 74 20 217l60 381h-164zM813 1161l264 580h314l-318 -580h-260z" />
<glyph unicode="&#x16a;" horiz-adv-x="1564" d="M184 1192l35 225h576l-35 -225l-127 -6l-94 -592q-18 -113 -19 -174q0 -106 60 -150q63 -45 155 -45q80 0 149.5 33t102.5 86q41 66 72 250l92 592l-129 6l35 225h569l-37 -225l-127 -6l-102 -635q-35 -219 -53 -270q-109 -305 -592 -306q-516 0 -516 390q0 68 20 206 q4 35 19 144l75 471zM563 1563l29 182h737l-29 -182h-737z" />
<glyph unicode="&#x16b;" horiz-adv-x="1353" d="M123 823l35 226l428 10l-92 -576q-16 -104 -17 -164q0 -55 29 -86.5t80 -31.5q113 0 241 168l72 452l-117 2l37 226l428 10l-133 -828l117 -6l-35 -225h-403l22 139q-100 -94 -177 -129t-181 -35q-143 0 -221 73t-78 204q0 51 16 172l64 397zM389 1206l29 183h737 l-29 -183h-737z" />
<glyph unicode="&#x16d;" horiz-adv-x="1353" d="M123 823l35 226l428 10l-92 -576q-16 -104 -17 -164q0 -55 29 -86.5t80 -31.5q113 0 241 168l72 452l-117 2l37 226l428 10l-133 -828l117 -6l-35 -225h-403l22 139q-100 -94 -177 -129t-181 -35q-143 0 -221 73t-78 204q0 51 16 172l64 397zM446 1417q0 45 11 96h170 v-26q0 -59 39 -83t135 -24q102 0 148 29t63 104h172q-16 -147 -76 -215q-100 -115 -315 -114q-347 0 -347 233z" />
<glyph unicode="&#x16e;" horiz-adv-x="1564" d="M184 1192l35 225h576l-35 -225l-127 -6l-94 -592q-18 -113 -19 -174q0 -106 60 -150q63 -45 155 -45q80 0 149.5 33t102.5 86q41 66 72 250l92 592l-129 6l35 225h569l-37 -225l-127 -6l-102 -635q-35 -219 -53 -270q-109 -305 -592 -306q-516 0 -516 390q0 68 20 206 q4 35 19 144l75 471zM676 1708q0 111 75.5 184.5t190.5 73.5q117 0 191.5 -72.5t74.5 -187.5t-74.5 -188.5t-191.5 -73.5t-191.5 73.5t-74.5 190.5zM834 1704q0 -119 108 -119q51 0 80 32t29 87q0 57 -29 89t-80 32t-79.5 -32t-28.5 -89z" />
<glyph unicode="&#x16f;" horiz-adv-x="1353" d="M123 823l35 226l428 10l-92 -576q-16 -104 -17 -164q0 -55 29 -86.5t80 -31.5q113 0 241 168l72 452l-117 2l37 226l428 10l-133 -828l117 -6l-35 -225h-403l22 139q-100 -94 -177 -129t-181 -35q-143 0 -221 73t-78 204q0 51 16 172l64 397zM541 1393q0 96 67.5 161.5 t167.5 65.5q102 0 169 -65.5t67 -166t-66.5 -166t-169 -65.5t-169 66t-66.5 170zM686 1389q0 -98 90 -98.5t90 98t-90 98.5q-41 0 -65.5 -26.5t-24.5 -71.5z" />
<glyph unicode="&#x170;" horiz-adv-x="1564" d="M184 1192l35 225h576l-35 -225l-127 -6l-94 -592q-18 -113 -19 -174q0 -106 60 -150q63 -45 155 -45q80 0 149.5 33t102.5 86q41 66 72 250l92 592l-129 6l35 225h569l-37 -225l-127 -6l-102 -635q-35 -219 -53 -270q-109 -305 -592 -306q-516 0 -516 390q0 68 20 206 q4 35 19 144l75 471zM516 1554l289 299h356l-370 -299h-275zM987 1554l287 299h356l-375 -299h-268z" />
<glyph unicode="&#x171;" horiz-adv-x="1353" d="M123 823l35 226l428 10l-92 -576q-16 -104 -17 -164q0 -55 29 -86.5t80 -31.5q113 0 241 168l72 452l-117 2l37 226l428 10l-133 -828l117 -6l-35 -225h-403l22 139q-100 -94 -177 -129t-181 -35q-143 0 -221 73t-78 204q0 51 16 172l64 397zM354 1198l289 299h356 l-370 -299h-275zM825 1198l287 299h356l-374 -299h-269z" />
<glyph unicode="&#x172;" horiz-adv-x="1564" d="M184 1192l35 225h576l-35 -225l-127 -6l-94 -592q-18 -113 -19 -174q0 -106 60 -150q63 -45 155 -45q80 0 149.5 33t102.5 86q41 66 72 250l92 592l-129 6l35 225h569l-37 -225l-127 -6l-102 -635q-33 -211 -57.5 -280.5t-94.5 -147.5q-104 -102 -299 -133 q-121 -63 -172 -112.5t-51 -104.5q0 -84 117 -84q39 0 80 10l-13 -137q-92 -14 -168 -15q-129 0 -197.5 46.5t-68.5 132.5q0 147 238 249q-188 10 -289 66q-186 94 -186 324q0 68 20 206q4 35 19 144l75 471z" />
<glyph unicode="&#x173;" horiz-adv-x="1353" d="M123 823l35 226l428 10l-92 -576q-16 -104 -17 -164q0 -55 29 -86.5t80 -31.5q113 0 241 168l72 452l-117 2l37 226l428 10l-133 -828l117 -6l-35 -225q-141 -76 -192.5 -123t-51.5 -104q0 -84 119 -84q31 0 78 10l-12 -137q-92 -14 -168 -15q-129 0 -198 46.5t-69 132.5 q0 82 72 148.5t225 125.5h-206l22 139q-100 -94 -177 -129t-181 -35q-143 0 -221 73t-78 204q0 51 16 172l64 397z" />
<glyph unicode="&#x174;" horiz-adv-x="2029" d="M127 1192l35 225h538l-34 -225l-142 -6l17 -283q4 -57 7 -115.5t5 -90t2 -44.5l6 -143l4 -96q31 94 154 387l276 616h316l69 -661q10 -98 23 -254l8 -88q43 133 152 409l143 365l-141 4l34 225h547l-35 -225l-102 -6l-504 -1186h-317l-68 664q-23 231 -33 360l-23 -57 q-15 -37 -22 -49q-8 -16 -20 -50l-25 -55l-61 -143l-297 -670h-315l-95 1186zM729 1554l287 299h362l193 -299h-281l-108 172l-160 -172h-293z" />
<glyph unicode="&#x176;" horiz-adv-x="1288" d="M84 1192l35 225h569l-35 -225l-129 -4l111 -242l33 -69l16 -41l84 110l188 240l-129 6l37 225h580l-37 -225l-98 -6l-502 -631l-51 -324l168 -6l-37 -225h-656l35 225l170 6l51 324l-305 631zM365 1554l286 299h363l192 -299h-280l-109 172l-160 -172h-292z" />
<glyph unicode="&#x177;" horiz-adv-x="1181" d="M-117 -428l68 246q78 -35 139 -35q72 0 127 52t143 204l-200 778l-88 6l37 226h493l-37 -226l-104 -6l45 -194q41 -170 57 -261q61 129 123 242l115 213l-113 6l35 226h516l-35 -226l-84 -6l-446 -790q-98 -176 -147.5 -249t-104.5 -128q-119 -117 -307 -117 q-128 0 -232 39zM250 1198l287 299h362l193 -299h-281l-109 172l-159 -172h-293z" />
<glyph unicode="&#x178;" horiz-adv-x="1288" d="M84 1192l35 225h569l-35 -225l-129 -4l111 -242l33 -69l16 -41l84 110l188 240l-129 6l37 225h580l-37 -225l-98 -6l-502 -631l-51 -324l168 -6l-37 -225h-656l35 225l170 6l51 324l-305 631zM401 1710q0 76 50.5 125t126.5 49q78 0 127 -49t49 -127t-49.5 -127t-127 -49 t-127 50t-49.5 128zM856 1710q0 76 50 125t126 49q78 0 127 -49t49 -127t-49 -127t-127 -49t-127 50t-49 128z" />
<glyph unicode="&#x179;" horiz-adv-x="1314" d="M12 0l37 240l869 938h-459l-41 -187h-236l68 426h1091l-36 -239l-865 -938h482l43 196h235l-72 -436h-1116zM625 1554l288 299h377l-370 -299h-295z" />
<glyph unicode="&#x17a;" horiz-adv-x="1134" d="M20 0l33 213l619 623h-283l-37 -168h-223l59 381h895l-32 -213l-617 -623h311l39 168h224l-62 -381h-926zM479 1198l289 299h377l-371 -299h-295z" />
<glyph unicode="&#x17b;" horiz-adv-x="1314" d="M12 0l37 240l869 938h-459l-41 -187h-236l68 426h1091l-36 -239l-865 -938h482l43 196h235l-72 -436h-1116zM688 1710q0 76 50 125t126 49q78 0 127 -49t49 -127t-49 -127t-127 -49t-127 50t-49 128z" />
<glyph unicode="&#x17c;" horiz-adv-x="1134" d="M20 0l33 213l619 623h-283l-37 -168h-223l59 381h895l-32 -213l-617 -623h311l39 168h224l-62 -381h-926zM512 1378q0 76 50 125t126 49q78 0 127 -49t49 -127t-49 -127t-127 -49t-127 50t-49 128z" />
<glyph unicode="&#x17d;" horiz-adv-x="1314" d="M12 0l37 240l869 938h-459l-41 -187h-236l68 426h1091l-36 -239l-865 -938h482l43 196h235l-72 -436h-1116zM455 1870h280l107 -172l159 172h295l-286 -299h-365z" />
<glyph unicode="&#x17e;" horiz-adv-x="1134" d="M20 0l33 213l619 623h-283l-37 -168h-223l59 381h895l-32 -213l-617 -623h311l39 168h224l-62 -381h-926zM295 1513h280l107 -172l160 172h295l-287 -299h-365z" />
<glyph unicode="&#x192;" d="M-88 -186l61 395h211l-22 -195q29 -14 59 -14q90 0 131 102q18 47 43 193l51 319h-198l33 209h200l17 113q27 158 51 230.5t72 127.5q115 143 344 144q150 0 327 -60l-63 -393h-201l23 193q-47 16 -80 16q-68 0 -106 -67.5t-64 -231.5l-13 -72h265l-33 -209h-264 l-62 -383q-35 -240 -114 -340q-59 -74 -140.5 -105.5t-208.5 -31.5q-174 1 -319 60z" />
<glyph unicode="&#x1cd;" horiz-adv-x="1503" d="M-70 0l35 225l119 6l631 1186h334l270 -1186l123 -6l-35 -225h-569l36 225l130 6l-31 164h-479l-82 -164l133 -6l-35 -225h-580zM522 1870h281l106 -172l160 172h295l-287 -299h-364zM608 625h322l-45 227q-27 141 -43 244q-8 -31 -101 -209z" />
<glyph unicode="&#x1ce;" horiz-adv-x="1288" d="M86 403q0 274 125 463q133 207 360 207q100 0 167 -36t116 -115l25 127h311q-29 -119 -72 -381l-69 -437l116 -6l-37 -225h-405l10 123q-98 -147 -284 -148q-174 0 -259 97q-104 120 -104 331zM362 1513h281l107 -172l159 172h295l-286 -299h-365zM406 430 q0 -229 131 -229q123 0 225 172l51 313q-59 162 -174 162q-96 0 -164.5 -123t-68.5 -295z" />
<glyph unicode="&#x1d3;" horiz-adv-x="1564" d="M184 1192l35 225h576l-35 -225l-127 -6l-94 -592q-18 -113 -19 -174q0 -106 60 -150q63 -45 155 -45q80 0 149.5 33t102.5 86q41 66 72 250l92 592l-129 6l35 225h569l-37 -225l-127 -6l-102 -635q-35 -219 -53 -270q-109 -305 -592 -306q-516 0 -516 390q0 68 20 206 q4 35 19 144l75 471zM559 1870h281l106 -172l160 172h295l-287 -299h-364z" />
<glyph unicode="&#x1e6;" horiz-adv-x="1531" d="M127 580q0 391 233 634q219 227 594 228q276 0 512 -96l-61 -390h-244l19 199q-115 37 -226 37q-244 0 -368 -168q-129 -176 -129 -410q0 -182 91 -285.5t253 -103.5q96 0 184 33l41 266l-139 6l33 209h567l-33 -209l-119 -6l-71 -465q-260 -84 -480 -84q-346 0 -508 175 q-149 158 -149 430zM592 1870h280l107 -172l160 172h295l-287 -299h-365z" />
<glyph unicode="&#x1e7;" horiz-adv-x="1320" d="M43 -403l70 249q150 -86 295 -86q199 0 278 127q41 63 66 219l10 60q-111 -137 -299 -137q-170 0 -271.5 112.5t-101.5 300.5q0 225 113 406q145 225 393 225q223 0 303 -149l29 135l399 -10l-35 -226l-118 -6l-115 -723q-29 -184 -58.5 -262t-93.5 -143 q-158 -154 -489 -154q-209 1 -375 62zM397 1513h281l106 -172l160 172h295l-287 -299h-364zM410 455q0 -94 41 -147.5t112 -53.5q68 0 133.5 49t106.5 129l39 236q-45 180 -189 180q-121 0 -194 -156q-49 -112 -49 -237z" />
<glyph unicode="&#x219;" horiz-adv-x="1083" d="M16 49l50 313h223l-10 -135q86 -35 180 -34q203 0 203 114q0 59 -103 90q-240 80 -307 121q-121 76 -121 209q0 141 113 236q129 111 385 110q174 0 393 -53l-49 -318h-219l12 129q-80 29 -158 29q-82 0 -131 -27.5t-49 -74.5q0 -31 26.5 -49.5t108.5 -44.5 q158 -51 214.5 -76t96.5 -62q84 -74 84 -188q0 -156 -118 -254q-123 -109 -402 -109q-246 0 -422 74zM86 -379l285 313h338l-340 -313h-283z" />
<glyph unicode="&#x21a;" horiz-adv-x="1286" d="M96 991l68 426h1239l-68 -426h-235l18 187h-217l-149 -947l190 -6l-37 -225h-690l35 225l182 6l150 947h-209l-41 -187h-236zM160 -379l284 313h338l-340 -313h-282z" />
<glyph unicode="&#x2bc;" horiz-adv-x="557" d="M100 918l267 579h340l-316 -579h-291z" />
<glyph unicode="&#x2c6;" horiz-adv-x="1024" d="M193 1198l286 299h363l192 -299h-280l-109 172l-160 -172h-292z" />
<glyph unicode="&#x2c7;" horiz-adv-x="1024" d="M254 1513h281l106 -172l160 172h295l-287 -299h-365z" />
<glyph unicode="&#x2c9;" horiz-adv-x="1024" d="M252 1206l29 183h737l-29 -183h-737z" />
<glyph unicode="&#x2d8;" horiz-adv-x="1024" d="M295 1417q0 45 10 96h170v-26q0 -59 39 -83t135 -24q102 0 148.5 29t62.5 104h172q-16 -147 -76 -215q-100 -115 -315 -114q-346 0 -346 233z" />
<glyph unicode="&#x2d9;" horiz-adv-x="1024" d="M471 1378q0 76 50 125t126 49q78 0 127 -49t49 -127t-49 -127t-127 -49t-127 50t-49 128z" />
<glyph unicode="&#x2da;" horiz-adv-x="1024" d="M410 1393q0 96 67.5 161.5t167.5 65.5q102 0 169 -65.5t67 -166t-66.5 -166t-169 -65.5t-169 66t-66.5 170zM555 1389q0 -98 90 -98.5t90 98t-90 98.5q-41 0 -65.5 -26.5t-24.5 -71.5z" />
<glyph unicode="&#x2db;" horiz-adv-x="1024" d="M90 -274q0 82 71.5 148.5t225.5 125.5h197q-141 -76 -192.5 -123t-51.5 -104q0 -84 119 -84q33 0 78 10l-13 -137q-92 -14 -168 -15q-129 0 -197.5 46.5t-68.5 132.5z" />
<glyph unicode="&#x2dc;" horiz-adv-x="1024" d="M215 1206q27 129 94.5 206t155.5 77q63 0 201 -45q106 -39 149 -39q59 0 84 80h170q-55 -283 -252 -283q-72 0 -272 68q-49 16 -78 16q-53 0 -78 -80h-174z" />
<glyph unicode="&#x2dd;" horiz-adv-x="1024" d="M223 1198l289 299h356l-370 -299h-275zM694 1198l287 299h356l-374 -299h-269z" />
<glyph unicode="&#x384;" horiz-adv-x="1024" d="M477 1182l158 336h366l-258 -336h-266z" />
<glyph unicode="&#x385;" horiz-adv-x="1024" d="M195 1370q0 59 38.5 98t100 39t100.5 -38.5t39 -100t-39 -100.5t-100 -39q-63 0 -101 39t-38 102zM512 1180l20 356h279l-92 -356h-207zM819 1370q0 59 39 98t100.5 39t100.5 -38.5t39 -100t-39 -100.5t-101 -39q-63 0 -101 39t-38 102z" />
<glyph unicode="&#x386;" horiz-adv-x="1619" d="M57 0l35 225l119 6l631 1186h334l270 -1186l123 -6l-35 -225h-569l36 225l129 6l-30 164h-479l-82 -164l133 -6l-35 -225h-580zM100 979l174 438h367l-274 -438h-267zM735 625h322l-45 227q-27 141 -43 244q-8 -31 -101 -209z" />
<glyph unicode="&#x387;" horiz-adv-x="647" d="M145 594q0 80 54.5 133t134.5 53q84 0 137 -54t53 -136t-53 -135.5t-135 -53.5q-84 0 -137.5 54.5t-53.5 138.5z" />
<glyph unicode="&#x388;" horiz-adv-x="1738" d="M57 979l174 438h367l-274 -438h-267zM469 0l35 225l129 6l151 955l-135 6l35 225h1053l-68 -426h-235l18 187h-348l-55 -338h391l-39 -244h-389l-58 -356h379l43 196h236l-70 -436h-1073z" />
<glyph unicode="&#x389;" horiz-adv-x="2035" d="M57 979l174 438h367l-274 -438h-267zM467 0l35 225l129 6l151 955l-133 6l35 225h584l-37 -225l-129 -6l-53 -344h499l56 344l-134 6l35 225h584l-37 -225l-129 -6l-151 -955l133 -6l-35 -225h-584l35 225l131 6l59 371h-501l-60 -371l135 -6l-36 -225h-582z" />
<glyph unicode="&#x38a;" horiz-adv-x="1216" d="M57 979l174 438h367l-274 -438h-267zM467 0l35 225l129 6l151 955l-133 6l35 225h586l-37 -225l-131 -6l-152 -955l137 -6l-36 -225h-584z" />
<glyph unicode="&#x38c;" horiz-adv-x="1896" d="M57 979l174 438h367l-274 -438h-267zM461 584q0 350 205 602q205 256 559 256q289 0 448.5 -157t159.5 -439q0 -375 -213 -625q-109 -127 -242 -186.5t-315 -59.5q-287 0 -444.5 159t-157.5 450zM791 582q0 -170 74.5 -263.5t211.5 -93.5q193 0 314 191q115 186 114 430 q0 160 -76.5 253t-209.5 93q-197 0 -314 -191q-114 -181 -114 -419z" />
<glyph unicode="&#x38e;" horiz-adv-x="1820" d="M57 979l174 438h367l-274 -438h-267zM625 1192l34 225h570l-35 -225l-129 -4l111 -242l32 -69l17 -41l84 110l188 240l-129 6l37 225h580l-37 -225l-99 -6l-501 -631l-52 -324l168 -6l-37 -225h-655l35 225l170 6l51 324l-305 631z" />
<glyph unicode="&#x38f;" horiz-adv-x="1986" d="M57 979l174 438h367l-274 -438h-267zM375 0l43 264q127 -31 346 -31h35l8 46q-168 80 -245 194.5t-77 290.5q0 303 213 490.5t555 187.5q315 0 498.5 -152.5t183.5 -415.5q0 -268 -200 -440q-133 -115 -295 -155l-6 -46h34q219 0 357 31l-43 -264h-608l69 436 q150 43 227 113q135 125 136 319q0 156 -92.5 240t-262.5 84q-201 0 -318.5 -119t-117.5 -319q0 -256 238 -338l-68 -416h-610z" />
<glyph unicode="&#x390;" horiz-adv-x="724" d="M20 1370q0 59 39 98t100.5 39t100.5 -38.5t39 -100t-39 -100.5t-100 -39q-63 0 -101.5 39t-38.5 102zM117 823l35 226l438 12q-49 -246 -68 -363l-45 -295q-12 -63 -12 -110q0 -92 94 -92q37 0 103 16l-9 -211q-113 -31 -213 -31q-289 0 -288 252q0 84 36 318l43 272z M338 1180l20 356h279l-92 -356h-207zM645 1370q0 59 39 98t100.5 39t100.5 -38.5t39 -100t-39 -100.5t-101 -39q-63 0 -101 39t-38 102z" />
<glyph unicode="&#x391;" horiz-adv-x="1478" d="M-84 0l35 225l119 6l630 1186h334l271 -1186l122 -6l-34 -225h-570l37 225l129 6l-31 164h-479l-82 -164l133 -6l-34 -225h-580zM594 625h321l-45 227q-27 141 -43 244q-8 -31 -100 -209z" />
<glyph unicode="&#x392;" horiz-adv-x="1349" d="M6 0l35 225l131 6l150 955l-136 6l37 225h539q168 0 252 -15.5t147 -55.5q133 -88 133 -275q0 -129 -66.5 -218t-191.5 -128q188 -70 189 -295q0 -104 -39 -195.5t-107 -146.5q-111 -88 -354 -88h-719zM483 229h125q158 0 209 33q39 23 62.5 75t23.5 112q0 86 -50 124.5 t-161 38.5h-149zM578 823h141q139 0 194 49q66 61 66 166q0 82 -49 116t-170 34h-125z" />
<glyph unicode="&#x393;" horiz-adv-x="1118" d="M-2 0l35 225l131 6l149 955l-127 6l37 225h1020l-67 -426h-236l18 187h-325l-150 -947l127 -6l-35 -225h-577z" />
<glyph unicode="&#x394;" horiz-adv-x="1419" d="M-43 0l35 225l655 1192h367l315 -1192l-35 -225h-1337zM326 242h675l-145 643q-43 182 -57 274q-63 -135 -137 -274z" />
<glyph unicode="&#x395;" horiz-adv-x="1277" d="M6 0l35 225l131 6l152 955l-138 6l37 225h1051l-68 -426h-233l18 187h-350l-53 -338h389l-39 -244h-389l-57 -356h380l41 196h236l-68 -436h-1075z" />
<glyph unicode="&#x396;" horiz-adv-x="1302" d="M6 0l37 240l868 938h-458l-41 -187h-236l68 426h1091l-37 -239l-864 -938h481l43 196h236l-72 -436h-1116z" />
<glyph unicode="&#x397;" horiz-adv-x="1572" d="M4 0l35 225l131 6l152 955l-136 6l37 225h582l-35 -225l-129 -6l-55 -344h501l54 344l-133 6l34 225h584l-35 -225l-131 -6l-151 -955l135 -6l-37 -225h-584l37 225l129 6l60 371h-502l-58 -371l134 -6l-35 -225h-584z" />
<glyph unicode="&#x398;" horiz-adv-x="1558" d="M123 584q0 350 205 602q205 256 559 256q289 0 448.5 -157t159.5 -439q0 -375 -213 -625q-109 -127 -242 -186.5t-315 -59.5q-287 0 -444.5 159t-157.5 450zM453 582q0 -170 74.5 -263.5t211.5 -93.5q193 0 314 191q115 186 114 430q0 160 -76.5 253t-209.5 93 q-197 0 -314 -191q-114 -181 -114 -419zM545 598l39 242h493l-39 -242h-493z" />
<glyph unicode="&#x399;" horiz-adv-x="755" d="M4 0l35 225l131 6l152 955l-136 6l37 225h584l-35 -225l-131 -6l-152 -955l136 -6l-35 -225h-586z" />
<glyph unicode="&#x39a;" horiz-adv-x="1454" d="M-2 0l35 225l135 6l149 955l-131 8l37 223h547l-35 -223l-98 -6l-70 -434l426 438h-90l35 225h565l-35 -223l-104 -6l-457 -459l322 -498l117 -6l-37 -225h-578l35 225l104 4l-307 490l-78 -488l109 -6l-35 -225h-561z" />
<glyph unicode="&#x39b;" horiz-adv-x="1402" d="M-109 0l35 225l125 6l617 1186h333l256 -1186l121 -6l-35 -225h-569l37 225l125 6l-115 654q-18 92 -33 209q-25 -55 -36 -86q-16 -37 -31 -60l-31 -63l-319 -654l123 -6l-35 -225h-568z" />
<glyph unicode="&#x39c;" horiz-adv-x="2033" d="M-2 0l35 225l131 6l151 955l-129 6l37 225h619l104 -776l10 -76l13 -73l8 -74l4 -51l121 274l352 776h637l-35 -225l-129 -6l-151 -955l127 -6l-35 -225h-563l34 225l131 6l152 953l-111 -248l-428 -936h-313l-127 913q-8 55 -19.5 144.5t-15.5 124.5l-149 -951l127 -6 l-35 -225h-553z" />
<glyph unicode="&#x39d;" horiz-adv-x="1599" d="M-2 0l35 225l131 6l151 955l-129 6l37 225h479l267 -637q78 -186 123 -346l8 55l4 56q18 111 26 172l76 469l-133 6l37 225h555l-35 -225l-129 -6l-188 -1186h-344l-252 594q-94 223 -144 391l-18 -154l-18 -108l-13 -88l-65 -404l131 -6l-35 -225h-557z" />
<glyph unicode="&#x39e;" horiz-adv-x="1359" d="M29 0l69 436h236l-21 -196h641l43 196h236l-70 -436h-1134zM215 991l68 426h1075l-68 -426h-235l18 187h-581l-41 -187h-236zM360 596l39 244h660l-39 -244h-660z" />
<glyph unicode="&#x39f;" horiz-adv-x="1558" d="M123 584q0 350 205 602q205 256 559 256q289 0 448.5 -157t159.5 -439q0 -375 -213 -625q-109 -127 -242 -186.5t-315 -59.5q-287 0 -444.5 159t-157.5 450zM453 582q0 -170 74.5 -263.5t211.5 -93.5q193 0 314 191q115 186 114 430q0 160 -76.5 253t-209.5 93 q-197 0 -314 -191q-114 -181 -114 -419z" />
<glyph unicode="&#x3a0;" horiz-adv-x="1488" d="M-2 0l35 225l131 6l149 955l-127 6l37 225h1325l-37 -225l-129 -6l-151 -955l127 -6l-35 -225h-575l34 225l129 6l150 947h-428l-150 -947l127 -6l-35 -225h-577z" />
<glyph unicode="&#x3a1;" horiz-adv-x="1259" d="M4 0l35 225l131 6l149 955l-133 6l37 225h498q168 0 257 -15.5t148 -55.5q150 -102 150 -318q0 -248 -170 -385q-127 -102 -401 -102h-166l-50 -310l160 -6l-37 -225h-608zM567 780h88q96 0 142.5 10.5t81.5 38.5q78 66 77 185q0 109 -88 145q-49 18 -159 19h-78z" />
<glyph unicode="&#x3a3;" horiz-adv-x="1169" d="M-31 0l37 233l494 502l-316 469l33 213h1020l-68 -426h-233l18 187h-397l266 -381l-22 -150l-418 -407h453l41 196h235l-68 -436h-1075z" />
<glyph unicode="&#x3a4;" horiz-adv-x="1271" d="M90 991l68 426h1239l-68 -426h-235l18 187h-217l-150 -947l191 -6l-37 -225h-690l35 225l182 6l149 947h-208l-41 -187h-236z" />
<glyph unicode="&#x3a5;" horiz-adv-x="1275" d="M78 1192l35 225h569l-35 -225l-129 -4l111 -242l30 -69l19 -41l84 110l188 240l-129 6l37 225h580l-37 -225l-98 -6l-502 -631l-51 -324l168 -6l-37 -225h-656l35 225l170 6l51 324l-305 631z" />
<glyph unicode="&#x3a6;" horiz-adv-x="1832" d="M129 680q0 166 79 294t224 204q176 90 457 104l16 96l-127 6l33 209h549l-33 -209l-131 -6l-16 -112q188 -16 323 -88q121 -63 189.5 -180t68.5 -263q0 -338 -313 -497q-172 -86 -449 -103l-14 -96l127 -6l-33 -209h-549l33 209l129 6l17 104q-279 27 -429.5 166.5 t-150.5 370.5zM453 668q0 -254 290 -306l111 693q-158 -8 -256 -76q-145 -102 -145 -311zM1036 362q193 10 297.5 111.5t104.5 274.5q0 248 -293 299z" />
<glyph unicode="&#x3a7;" horiz-adv-x="1529" d="M-10 0l35 225l104 6l467 517l-285 438l-102 6l37 225h588l-35 -225l-135 -6l176 -271l235 271l-135 6l35 225h596l-35 -225l-100 -6l-443 -492l307 -463l107 -6l-35 -225h-608l35 225l143 6l-192 295l-258 -295l141 -6l-35 -225h-608z" />
<glyph unicode="&#x3a8;" horiz-adv-x="1990" d="M164 1192l35 225h442l-70 -440q-20 -133 -20 -182q0 -104 57.5 -145.5t206.5 -41.5h41l90 578l-117 6l35 225h545l-35 -225l-121 -6l-90 -578h72q156 0 223 68q39 37 60.5 99.5t44.5 201.5l69 440h443l-35 -225l-125 -6l-39 -252q-37 -236 -72 -316q-59 -137 -194 -198.5 t-379 -61.5h-109l-20 -139l178 -6l-33 -213h-669l34 213l183 6l20 139h-45q-227 0 -354 64q-184 96 -185 317q0 111 39 359l15 88z" />
<glyph unicode="&#x3a9;" horiz-adv-x="1646" d="M37 0l41 264q129 -31 346 -31h37l6 46q-168 80 -244 195.5t-76 289.5q0 303 213 490.5t555 187.5q315 0 498.5 -152.5t183.5 -415.5q0 -268 -200 -440q-133 -115 -295 -155l-8 -46h36q219 0 355 31l-41 -264h-608l69 436q150 43 228 113q135 125 135 319q0 156 -92.5 240 t-262.5 84q-201 0 -318.5 -119t-117.5 -319q0 -256 236 -338l-68 -416h-608z" />
<glyph unicode="&#x3aa;" horiz-adv-x="755" d="M4 0l35 225l131 6l152 955l-136 6l37 225h584l-35 -225l-131 -6l-152 -955l136 -6l-35 -225h-586zM162 1710q0 76 50 125t126 49t126 -49t50 -127t-50 -127t-126 -49q-78 0 -127 50t-49 128zM616 1710q0 76 50.5 125t126 49t126 -49t50.5 -127t-50.5 -127t-125.5 -49 q-78 0 -127.5 50t-49.5 128z" />
<glyph unicode="&#x3ab;" horiz-adv-x="1275" d="M78 1192l35 225h569l-35 -225l-129 -4l111 -242l30 -69l19 -41l84 110l188 240l-129 6l37 225h580l-37 -225l-98 -6l-502 -631l-51 -324l168 -6l-37 -225h-656l35 225l170 6l51 324l-305 631zM410 1710q0 76 50 125t126 49q78 0 127 -49t49 -127t-49 -127t-127 -49 t-127 50t-49 128zM864 1710q0 76 50.5 125t125.5 49q78 0 127.5 -49t49.5 -127t-49.5 -127t-127 -49t-127 50t-49.5 128z" />
<glyph unicode="&#x3ac;" horiz-adv-x="1288" d="M84 395q0 274 131 469q137 209 367 209q240 0 301 -201q20 88 53 193l303 -33q-141 -438 -141 -762q0 -119 18 -237l-307 -64q-16 92 -18 236q-78 -127 -158 -178.5t-195 -51.5q-168 0 -261 110.5t-93 309.5zM403 403q0 -199 134 -198q139 0 251 188l29 185 q-23 145 -61.5 205.5t-110.5 60.5q-102 0 -172 -126.5t-70 -314.5zM586 1182l157 336h367l-258 -336h-266z" />
<glyph unicode="&#x3ad;" horiz-adv-x="1112" d="M90 451q0 285 162 458q152 164 450 164q213 0 390 -69l-48 -297h-233l4 133q-43 8 -94 8q-117 0 -181.5 -50t-103.5 -169h355l-31 -203h-350q8 -221 252 -221q127 0 264 61l43 -231q-160 -59 -353 -60q-258 0 -392 121.5t-134 354.5zM573 1182l158 336h367l-258 -336 h-267z" />
<glyph unicode="&#x3ae;" horiz-adv-x="1345" d="M121 0l129 817l-121 6l35 226l409 10l-22 -150q92 90 174 127t188 37q143 0 223.5 -72.5t80.5 -205.5q0 -70 -17 -170l-108 -680q-29 -182 -52 -385h-319l160 1001q18 123 18 170q0 55 -30.5 86t-84.5 31q-119 0 -245 -168l-109 -680h-309zM621 1182l157 336h367 l-258 -336h-266z" />
<glyph unicode="&#x3af;" horiz-adv-x="724" d="M117 823l35 226l438 12q-49 -246 -68 -363l-45 -295q-12 -63 -12 -110q0 -92 94 -92q37 0 103 16l-9 -211q-113 -31 -213 -31q-289 0 -288 252q0 84 36 318l43 272zM307 1182l158 336h366l-258 -336h-266z" />
<glyph unicode="&#x3b0;" horiz-adv-x="1323" d="M125 823l35 226l434 12q-27 -115 -70 -379l-32 -215q-14 -80 -15 -129q0 -137 144 -137q104 0 155 80q29 41 45 149l62 387l-115 6l35 226l428 12l-109 -682q-29 -182 -86 -256q-111 -147 -411 -148q-238 0 -346.5 80t-108.5 254q0 80 23 238l43 270zM334 1370 q0 59 39 98t100.5 39t100 -38.5t38.5 -100t-38.5 -100.5t-100.5 -39q-63 0 -101 39t-38 102zM651 1180l21 356h278l-92 -356h-207zM958 1370q0 59 39 98t100.5 39t100.5 -38.5t39 -100t-39 -100.5t-100 -39q-63 0 -101.5 39t-38.5 102z" />
<glyph unicode="&#x3b1;" horiz-adv-x="1288" d="M84 395q0 274 131 469q137 209 367 209q240 0 301 -201q20 88 53 193l303 -33q-141 -438 -141 -762q0 -119 18 -237l-307 -64q-16 92 -18 236q-78 -127 -158 -178.5t-195 -51.5q-168 0 -261 110.5t-93 309.5zM403 403q0 -199 134 -198q139 0 251 188l29 185 q-23 145 -61.5 205.5t-110.5 60.5q-102 0 -172 -126.5t-70 -314.5z" />
<glyph unicode="&#x3b2;" horiz-adv-x="1308" d="M-10 -440q68 346 106 612l131 819q27 170 51.5 247t73.5 134q125 152 387 152q236 0 365 -98.5t129 -278.5q0 -119 -58.5 -200t-183.5 -134q113 -57 163 -138t50 -206q0 -217 -141 -355.5t-361 -138.5q-193 0 -309 105l-84 -520h-319zM428 309q102 -109 227 -108 q115 0 179 82q61 78 61 190q0 96 -54.5 151.5t-148.5 55.5q-12 0 -43 -2l35 225q94 0 150 35q94 61 94 209q0 72 -45 111.5t-123 39.5q-129 0 -180 -127q-27 -68 -45 -194z" />
<glyph unicode="&#x3b3;" horiz-adv-x="1134" d="M35 825l35 224l303 12q156 -408 196 -666q88 180 254 428l-114 8l34 218l443 12l-27 -160q-285 -424 -390 -640t-146 -454l-39 -247h-316q12 55 35 184l8 55q20 121 21 224q0 221 -84 495q-33 104 -101 299z" />
<glyph unicode="&#x3b4;" horiz-adv-x="1257" d="M86 434q0 365 358 522q-115 109 -114 234q0 158 114.5 246t323.5 88q201 0 422 -56l-88 -231q-182 68 -328 68q-139 0 -139 -101q0 -41 35 -69q25 -20 159 -88q195 -96 270 -196.5t75 -264.5q0 -141 -50.5 -268.5t-140.5 -208.5q-139 -133 -383 -134q-274 0 -405 146 q-109 120 -109 313zM406 436q0 -236 188 -235q139 0 203 131q57 115 57 243q0 119 -98 189q-41 33 -156 96l-8 -4q-76 -39 -131 -164t-55 -256z" />
<glyph unicode="&#x3b5;" horiz-adv-x="1112" d="M90 451q0 285 162 458q152 164 450 164q213 0 390 -69l-48 -297h-233l4 133q-43 8 -94 8q-117 0 -181.5 -50t-103.5 -169h355l-31 -203h-350q8 -221 252 -221q127 0 264 61l43 -231q-160 -59 -353 -60q-258 0 -392 121.5t-134 354.5z" />
<glyph unicode="&#x3b6;" horiz-adv-x="903" d="M70 338q0 182 79.5 337.5t256.5 311.5q127 115 380 285h-215q-193 0 -321 14l55 232q174 -20 404 -21h362l-37 -233q-188 -160 -258.5 -224.5t-134.5 -136.5q-252 -281 -252 -532q0 -88 53 -131q27 -18 144 -66q137 -53 192.5 -120.5t55.5 -180.5q0 -156 -134 -354 l-219 94q70 145 70 219q0 53 -39 82q-25 16 -123 47q-135 39 -203 88q-116 82 -116 289z" />
<glyph unicode="&#x3b7;" horiz-adv-x="1345" d="M121 0l129 817l-121 6l35 226l409 10l-22 -150q92 90 174 127t188 37q143 0 223.5 -72.5t80.5 -205.5q0 -70 -17 -170l-108 -680q-29 -182 -52 -385h-319l160 1001q18 123 18 170q0 55 -30.5 86t-84.5 31q-119 0 -245 -168l-109 -680h-309z" />
<glyph unicode="&#x3b8;" horiz-adv-x="1257" d="M121 565q0 381 168 672q162 287 459 287q252 0 358 -172q100 -164 100 -416q0 -178 -43 -360.5t-119 -313.5q-158 -287 -464 -287q-459 0 -459 590zM430 498q0 -303 162 -303q98 0 162.5 115.5t109.5 369.5h-424q-10 -104 -10 -182zM475 881h418q4 82 4 118 q0 305 -160 306q-88 0 -151.5 -102.5t-110.5 -321.5z" />
<glyph unicode="&#x3b9;" horiz-adv-x="724" d="M117 823l35 226l438 12q-49 -246 -68 -363l-45 -295q-12 -63 -12 -110q0 -92 94 -92q37 0 103 16l-9 -211q-113 -31 -213 -31q-289 0 -288 252q0 84 36 318l43 272z" />
<glyph unicode="&#x3ba;" horiz-adv-x="1359" d="M-2 0l35 225l119 6l92 586l-115 6l35 226l428 12l-72 -457l389 252h-149l28 193h609l-33 -203l-94 -4l-414 -264l295 -349l119 -4l-35 -225h-576l33 215h113l-291 356l-55 -346l100 -10l-35 -215h-526z" />
<glyph unicode="&#x3bb;" horiz-adv-x="1146" d="M-35 0l27 168l508 850q-39 152 -103 248l-118 6l40 225l324 10q92 -166 176 -516l103 -418q61 -250 112 -344l96 -4l-34 -225h-297q-80 109 -146 426l-59 291q-51 -102 -141 -268l-134 -242l119 -6l-30 -201h-443z" />
<glyph unicode="&#x3bc;" horiz-adv-x="1349" d="M27 -440q33 139 69 383l140 874l-115 6l35 226l428 12l-80 -506q-23 -143 -23 -199q0 -152 133 -151q111 0 205 131l78 481l-117 6l37 226l428 12l-133 -830l117 -6l-37 -225h-401l18 117q-119 -141 -246 -142q-86 0 -141 58l-76 -473h-319z" />
<glyph unicode="&#x3bd;" horiz-adv-x="1214" d="M68 823l34 226l332 12l82 -496q27 -147 43 -289q53 125 152 297l135 244l-113 6l37 226l447 12l-27 -162l-502 -899h-358l-158 817z" />
<glyph unicode="&#x3be;" horiz-adv-x="995" d="M92 328q0 182 86 292.5t271 163.5q-180 92 -181 234q0 172 293 254h-88q-106 0 -244 12l54 234q164 -20 403 -21h406l-37 -225h-99q-178 0 -258 -43q-51 -27 -80.5 -83t-29.5 -122q0 -156 209 -156h131l-33 -204h-156q-94 0 -145 -14.5t-92 -51.5q-90 -80 -90 -225 q0 -90 47 -127q29 -27 112 -53q145 -51 191 -111q57 -74 57 -199q0 -158 -110 -358l-240 94q68 150 68 229q0 55 -33 82q-18 14 -109 39q-162 47 -232.5 131.5t-70.5 227.5z" />
<glyph unicode="&#x3bf;" horiz-adv-x="1255" d="M86 432q0 123 41 243t113 206q154 193 448 192q236 0 359.5 -115.5t123.5 -332.5q0 -279 -159 -467q-160 -182 -441 -183q-238 0 -361.5 117t-123.5 340zM406 428q0 -227 176 -227q139 0 215 159q55 117 55 269q0 106 -46 162.5t-130 56.5q-143 0 -215 -160 q-55 -125 -55 -260z" />
<glyph unicode="&#x3c0;" horiz-adv-x="1390" d="M68 823l34 226h1364l-34 -226h-213l-70 -440q-8 -41 -8 -86q0 -96 88 -96q41 0 108 18l-8 -211q-131 -33 -242 -33q-125 0 -192.5 62.5t-67.5 179.5q0 102 23 234l59 372h-331l-129 -823h-312l131 823h-200z" />
<glyph unicode="&#x3c1;" d="M8 -440l152 952q27 166 55.5 249t83.5 152q129 160 397 160q248 0 378 -118.5t130 -344.5q0 -264 -114 -440q-125 -195 -357 -195q-227 0 -323 164l-93 -579h-309zM449 381q61 -180 202 -180q123 0 183 161q51 129 51 281q0 98 -46 151.5t-130 53.5q-121 0 -187 -131 q-33 -70 -57 -232z" />
<glyph unicode="&#x3c2;" horiz-adv-x="1005" d="M88 444q0 127 42 248t116 207q150 174 418 174q186 0 356 -76l-113 -213q-104 63 -211 64q-150 0 -227 -154q-61 -119 -61 -258q0 -115 81 -192q35 -33 164 -123q117 -78 117 -217q0 -135 -158 -385l-217 94q96 156 97 250q0 31 -19.5 52.5t-75.5 51.5 q-162 88 -235.5 200.5t-73.5 276.5z" />
<glyph unicode="&#x3c3;" horiz-adv-x="1251" d="M86 430q0 287 160 469q150 174 411 174q80 0 215 -14q113 -10 158 -10h262l-37 -234l-182 10q66 -94 66 -250q0 -229 -111 -389q-147 -211 -450 -211q-238 0 -365 118t-127 337zM406 416q0 -102 46 -158.5t132 -56.5q131 0 184 141q51 127 51 291q0 102 -43 158.5 t-121 56.5q-121 0 -184 -131q-65 -127 -65 -301z" />
<glyph unicode="&#x3c4;" horiz-adv-x="1034" d="M68 823l34 226h977l-37 -226h-358l-66 -420q-12 -63 -12 -112q0 -90 94 -90q43 0 127 22l-6 -211q-133 -37 -239 -37q-289 0 -289 252q0 82 37 318l45 278h-307z" />
<glyph unicode="&#x3c5;" horiz-adv-x="1323" d="M125 823l35 226l434 12q-27 -115 -70 -379l-32 -215q-14 -80 -15 -129q0 -137 144 -137q104 0 155 80q29 41 45 149l62 387l-115 6l35 226l428 12l-109 -682q-29 -182 -86 -256q-111 -147 -411 -148q-238 0 -346.5 80t-108.5 254q0 80 23 238l43 270z" />
<glyph unicode="&#x3c6;" horiz-adv-x="1681" d="M90 483q0 442 531 568l43 -213q-254 -88 -254 -349q0 -231 239 -286l135 856q80 12 152 12q307 0 482 -135t175 -373q0 -152 -66.5 -273.5t-185.5 -189.5q-164 -96 -442 -112l-68 -428h-284l67 428q-256 39 -390 164.5t-134 330.5zM932 203q164 16 253 111.5t89 252.5 q0 250 -240 279z" />
<glyph unicode="&#x3c7;" horiz-adv-x="1081" d="M-193 -440l27 164l514 620l-39 119q-55 164 -84.5 228.5t-77.5 125.5l-92 6l35 226l293 12q102 -158 192 -453l17 -53l219 281l-115 6l33 207l426 12l-31 -193l-444 -563l57 -172q80 -248 142 -344l114 -4l-37 -225h-303q-92 98 -176 399l-43 141l-264 -333l117 -7 l-31 -200h-449z" />
<glyph unicode="&#x3c8;" horiz-adv-x="1751" d="M106 823l35 226l430 12q-121 -485 -120 -635q0 -111 53 -159t182 -54l96 610l-82 8l35 218l395 12l-135 -848q82 4 136.5 21.5t95.5 53.5t64.5 108.5t39 170t27.5 250.5l-117 6l35 226l391 12v-105q0 -248 -30.5 -447.5t-84.5 -291.5q-72 -125 -198.5 -171t-390.5 -46 l-70 -440h-320q25 100 64 342l16 98q-240 0 -342 45q-178 78 -178 334q0 193 72 438z" />
<glyph unicode="&#x3c9;" horiz-adv-x="1636" d="M88 352q0 272 174 465l-117 6l35 226l453 12l-31 -193q-195 -238 -194 -520q0 -147 108 -147q72 0 106.5 60.5t63.5 227.5l37 240h270l-37 -240q-18 -109 -18 -167q0 -121 100 -121q104 0 152 153q37 141 37 287q0 100 -19 176l-114 6l36 226l347 12q76 -209 75 -440 q0 -295 -118 -474q-61 -92 -141.5 -132t-202.5 -40q-133 0 -208 42t-114 139q-104 -180 -293 -181q-182 0 -284.5 100.5t-102.5 276.5z" />
<glyph unicode="&#x3ca;" horiz-adv-x="724" d="M94 1378q0 76 50.5 125t125.5 49q78 0 127 -49t49 -127t-49 -127t-126.5 -49t-127 50t-49.5 128zM117 823l35 226l438 12q-49 -246 -68 -363l-45 -295q-12 -70 -12 -110q0 -92 94 -92q37 0 103 16l-7 -211q-115 -31 -215 -31q-289 0 -288 252q0 82 36 318l43 272z M549 1378q0 76 50 125t126 49q78 0 127 -49t49 -127t-49 -127t-127 -49t-127 50t-49 128z" />
<glyph unicode="&#x3cb;" horiz-adv-x="1323" d="M125 823l35 226l434 12q-27 -115 -70 -379l-32 -215q-14 -80 -15 -129q0 -137 144 -137q104 0 155 80q29 41 45 149l62 387l-115 6l35 226l428 12l-109 -682q-29 -182 -86 -256q-111 -147 -411 -148q-238 0 -346.5 80t-108.5 254q0 80 23 238l43 270zM393 1378 q0 76 50.5 125t125.5 49q78 0 127 -49t49 -127t-49 -127t-126.5 -49t-127 50t-49.5 128zM848 1378q0 76 50 125t126 49q78 0 127 -49t49 -127t-49 -127t-127 -49t-127 50t-49 128z" />
<glyph unicode="&#x3cc;" horiz-adv-x="1255" d="M86 432q0 123 41 243t113 206q154 193 448 192q236 0 359.5 -115.5t123.5 -332.5q0 -279 -159 -467q-160 -182 -441 -183q-238 0 -361.5 117t-123.5 340zM406 428q0 -227 176 -227q139 0 215 159q55 117 55 269q0 106 -46 162.5t-130 56.5q-143 0 -215 -160 q-55 -125 -55 -260zM588 1182l157 336h367l-258 -336h-266z" />
<glyph unicode="&#x3cd;" horiz-adv-x="1323" d="M125 823l35 226l434 12q-27 -115 -70 -379l-32 -215q-14 -80 -15 -129q0 -137 144 -137q104 0 155 80q29 41 45 149l62 387l-115 6l35 226l428 12l-109 -682q-29 -182 -86 -256q-111 -147 -411 -148q-238 0 -346.5 80t-108.5 254q0 80 23 238l43 270zM610 1182l158 336 h367l-258 -336h-267z" />
<glyph unicode="&#x3ce;" horiz-adv-x="1636" d="M88 352q0 272 174 465l-117 6l35 226l453 12l-31 -193q-195 -238 -194 -520q0 -147 108 -147q72 0 106.5 60.5t63.5 227.5l37 240h270l-37 -240q-18 -109 -18 -167q0 -121 100 -121q104 0 152 153q37 141 37 287q0 100 -19 176l-114 6l36 226l347 12q76 -209 75 -440 q0 -295 -118 -474q-61 -92 -141.5 -132t-202.5 -40q-133 0 -208 42t-114 139q-104 -180 -293 -181q-182 0 -284.5 100.5t-102.5 276.5zM762 1182l158 336h366l-258 -336h-266z" />
<glyph unicode="&#x401;" horiz-adv-x="1277" d="M6 0l35 225l131 6l152 955l-138 6l37 225h1051l-68 -426h-233l18 187h-350l-53 -338h389l-39 -244h-389l-57 -356h380l41 196h236l-68 -436h-1075zM399 1710q0 76 50.5 125t126 49t126 -49t50.5 -127t-50.5 -127t-126.5 -49q-78 0 -127 50t-49 128zM854 1710q0 76 50 125 t126 49t126 -49t50 -127t-50 -127t-126 -49q-78 0 -127 50t-49 128z" />
<glyph unicode="&#x402;" horiz-adv-x="1695" d="M90 991l68 426h1241l-62 -389h-235l12 150h-240l-59 -369q166 121 363 121q174 0 268 -86t94 -244q0 -80 -22 -213l-31 -201q-41 -264 -89 -370.5t-157 -177.5q-76 -45 -168 -61.5t-262 -16.5l35 223q61 2 99 6t72 22.5t52 43t37.5 80t33 118t31.5 170.5l25 156 q14 88 14 153q0 147 -135 148q-145 0 -303 -141l-47 -308l178 -6l-37 -225h-680l35 225l182 6l150 947h-186l-41 -187h-236z" />
<glyph unicode="&#x403;" horiz-adv-x="1118" d="M-2 0l35 225l131 6l149 955l-127 6l37 225h1020l-67 -426h-236l18 187h-325l-150 -947l127 -6l-35 -225h-577zM543 1554l288 299h377l-370 -299h-295z" />
<glyph unicode="&#x404;" horiz-adv-x="1325" d="M117 516q0 207 55 390.5t156 307.5q96 119 218 173.5t298 54.5q240 0 467 -76l-62 -387h-243l12 190q-94 23 -170 23q-262 0 -354 -344h591l-38 -250h-598q-2 -31 -3 -72q0 -301 312 -301q152 0 336 111l96 -240q-225 -121 -483 -121q-297 0 -437 131q-153 144 -153 410z " />
<glyph unicode="&#x405;" horiz-adv-x="1200" d="M27 49l61 387h236l-11 -174q100 -37 211 -37q106 0 175 54.5t69 138.5q0 51 -41 82q-31 25 -190 98q-203 94 -277 173t-74 204q0 211 160 348q143 119 381 119q201 0 473 -60l-63 -391h-236l12 174q-104 27 -178 27q-94 0 -151.5 -46t-57.5 -122q0 -57 54 -90 q31 -23 161 -82q197 -92 275 -160q92 -82 92 -237q0 -225 -168 -361q-145 -119 -412 -119q-274 0 -501 74z" />
<glyph unicode="&#x406;" horiz-adv-x="755" d="M4 0l35 225l131 6l152 955l-136 6l37 225h584l-35 -225l-131 -6l-152 -955l136 -6l-35 -225h-586z" />
<glyph unicode="&#x407;" horiz-adv-x="753" d="M4 0l35 225l131 6l152 955l-136 6l37 225h584l-35 -225l-131 -6l-152 -955l136 -6l-35 -225h-586zM156 1710q0 76 50 125t126 49q78 0 127 -49t49 -127t-49 -127t-127 -49t-127 50t-49 128zM610 1710q0 76 50.5 125t125.5 49q78 0 127.5 -49t49.5 -127t-49.5 -127 t-127 -49t-127 50t-49.5 128z" />
<glyph unicode="&#x408;" horiz-adv-x="911" d="M-68 18l60 279q109 -55 190 -55q102 0 150 69q35 51 57 201l107 674l-146 6l37 225h596l-35 -225l-133 -6l-96 -604q-29 -197 -37 -238t-27 -92q-51 -143 -154.5 -210t-271.5 -67t-297 43z" />
<glyph unicode="&#x409;" horiz-adv-x="2013" d="M-104 0l34 225q57 4 89 9.5t64 20.5t45 32.5t29.5 61.5t24.5 90l23 132l98 615l-129 6l37 225h1309l-37 -225l-150 -6l-45 -281h172q223 0 332 -76q141 -100 141 -315q0 -129 -44 -240.5t-120 -173.5q-123 -100 -385 -100h-686l35 225l129 4l150 938h-404l-110 -706 q-27 -197 -84.5 -292t-174 -133t-343.5 -36zM1182 229h190q106 0 160 54q72 78 72 217q0 94 -43 135t-142 41h-166z" />
<glyph unicode="&#x40a;" horiz-adv-x="2138" d="M-2 0l35 225l131 6l149 953l-127 6l37 227h576l-35 -227l-131 -6l-49 -312h493l49 314l-127 6l35 225h598l-37 -225l-149 -6l-49 -314h184q223 0 332 -73q143 -96 143 -307q0 -125 -43 -231.5t-119 -164.5q-121 -96 -385 -96h-698l35 225l129 4l63 404h-491l-64 -402 l127 -6l-35 -225h-577zM1294 229h203q109 0 160 50q70 66 69 196q0 90 -43 129t-145 39h-178z" />
<glyph unicode="&#x40b;" horiz-adv-x="1714" d="M90 991l68 426h1241l-62 -389h-235l12 150h-240l-59 -369q166 121 367 121q172 0 265 -84t93 -240q0 -78 -22 -219l-25 -156l129 -6l-37 -225h-575l34 225l127 6l25 148q14 88 14 151q0 150 -135 150q-145 0 -303 -141l-47 -308l125 -6l-35 -225h-604l35 225l157 6 l150 947h-186l-41 -187h-236z" />
<glyph unicode="&#x40c;" horiz-adv-x="1433" d="M-2 0l35 225l131 6l149 955l-127 6l37 225h576l-35 -225l-129 -6l-60 -369h78q98 0 158 45q23 16 56.5 59.5t52.5 75.5l120 207l-106 4l33 209h530l-37 -225l-117 -6l-155 -258q-47 -76 -89 -115t-104 -61q94 -37 124 -84t81 -234l53 -203l119 -6l-35 -225h-383l-69 309 q-47 195 -80 244q-45 68 -150 68h-110l-62 -390l127 -6l-35 -225h-577zM705 1554l288 299h377l-371 -299h-294z" />
<glyph unicode="&#x40e;" horiz-adv-x="1288" d="M111 0l71 242q72 -14 129 -15q74 0 121 24.5t86 84.5l-278 850l-129 6l34 225h584l-35 -225l-123 -4l52 -201q49 -176 86 -360q61 129 196 372l105 187l-123 6l35 225h546l-34 -225l-119 -6l-471 -815q-129 -223 -247 -309.5t-296 -86.5q-92 0 -190 25zM494 1755 q0 47 10 115h166q0 -70 18 -90q35 -43 152 -43q106 0 150 27.5t63 105.5h178q-23 -158 -80 -234q-94 -125 -313 -125q-344 0 -344 244z" />
<glyph unicode="&#x40f;" horiz-adv-x="1488" d="M-2 0l35 225l131 6l149 955l-127 6l37 225h576l-35 -225l-129 -6l-152 -946h430l150 946l-127 6l35 225h577l-37 -225l-129 -6l-151 -955l129 -6l-37 -225h-518l-84 -344h-229l24 344h-518z" />
<glyph unicode="&#x410;" horiz-adv-x="1478" d="M-84 0l35 225l119 6l630 1186h334l271 -1186l122 -6l-34 -225h-570l37 225l129 6l-31 164h-479l-82 -164l133 -6l-34 -225h-580zM594 625h321l-45 227q-27 141 -43 244q-8 -31 -100 -209z" />
<glyph unicode="&#x411;" horiz-adv-x="1312" d="M-2 0l35 225l129 4l151 957l-127 6l37 225h1037l-68 -413h-234l17 174h-342l-47 -293h172q225 0 332 -74q143 -98 143 -311q0 -127 -43 -234.5t-119 -167.5q-121 -98 -387 -98h-686zM483 229h189q109 0 159 52q72 72 72 202q0 92 -44 132t-144 40h-166z" />
<glyph unicode="&#x412;" horiz-adv-x="1349" d="M6 0l35 225l131 6l150 955l-136 6l37 225h539q168 0 252 -15.5t147 -55.5q133 -88 133 -275q0 -129 -66.5 -218t-191.5 -128q188 -70 189 -295q0 -104 -39 -195.5t-107 -146.5q-111 -88 -354 -88h-719zM483 229h125q158 0 209 33q39 23 62.5 75t23.5 112q0 86 -50 124.5 t-161 38.5h-149zM578 823h141q139 0 194 49q66 61 66 166q0 82 -49 116t-170 34h-125z" />
<glyph unicode="&#x413;" horiz-adv-x="1118" d="M-2 0l35 225l131 6l149 955l-127 6l37 225h1020l-67 -426h-236l18 187h-325l-150 -947l127 -6l-35 -225h-577z" />
<glyph unicode="&#x414;" horiz-adv-x="1484" d="M-166 -344l90 569l129 6q176 240 289 897l10 58l-127 6l37 225h1266l-35 -225l-129 -6l-152 -955l168 -6l-90 -569h-229l22 344h-936l-84 -344h-229zM391 240h502l149 938h-391l-16 -109q-94 -548 -244 -829z" />
<glyph unicode="&#x415;" horiz-adv-x="1277" d="M6 0l35 225l131 6l152 955l-138 6l37 225h1051l-68 -426h-233l18 187h-350l-53 -338h389l-39 -244h-389l-57 -356h380l41 196h236l-68 -436h-1075z" />
<glyph unicode="&#x416;" horiz-adv-x="1943" d="M-72 0l35 225l121 6l111 203q109 195 160 246t165 78q-53 20 -82.5 57t-52.5 111l-84 260l-115 6l35 225h512l-33 -209l-108 -6l51 -166q37 -117 86 -169t121 -52h10l62 387l-99 6l33 209h514l-33 -209l-102 -6l-61 -387h43q84 0 140 43t99 137l96 207l-106 6l33 209h524 l-35 -225l-117 -6l-135 -260q-47 -86 -90 -126t-119 -61q78 -33 109 -80t82 -225l59 -203l119 -6l-37 -225h-350l-76 309q-45 186 -84 244q-51 68 -164 68h-22l-64 -406l127 -6l-32 -209h-572l33 209l131 6l63 406h-59q-98 0 -153.5 -55.5t-157.5 -256.5l-160 -309h-371z " />
<glyph unicode="&#x417;" horiz-adv-x="1247" d="M-2 49l88 258q180 -82 395 -82q164 0 244 66q74 59 74 149q0 94 -80 136t-256 42q-70 0 -178 -6l37 236q45 -4 114 -4q252 0 352 53q104 53 105 147q0 147 -248 148q-92 0 -186 -21l-49 -192h-244l65 410q219 53 451 53q535 0 535 -357q0 -150 -89.5 -240.5 t-257.5 -115.5q256 -45 256 -297q0 -215 -176 -346q-156 -111 -438 -111q-287 0 -514 74z" />
<glyph unicode="&#x418;" horiz-adv-x="1552" d="M-2 0l35 225l131 6l149 955l-127 6l37 225h563l-34 -225l-138 -6l-94 -592l625 571l2 21l-135 6l35 225h565l-35 -225l-131 -6l-150 -955l127 -6l-37 -225h-563l35 225l137 6l97 603l-625 -572l-4 -31l135 -6l-35 -225h-565z" />
<glyph unicode="&#x419;" horiz-adv-x="1552" d="M-2 0l35 225l131 6l149 955l-127 6l37 225h563l-34 -225l-138 -6l-94 -592l625 571l2 21l-135 6l35 225h565l-35 -225l-131 -6l-150 -955l127 -6l-37 -225h-563l35 225l137 6l97 603l-625 -572l-4 -31l135 -6l-35 -225h-565zM594 1755q0 47 10 115h166v-29 q0 -57 39 -80.5t131 -23.5q106 0 151.5 27.5t63.5 105.5h176q-23 -162 -80 -234q-92 -125 -313 -125q-344 0 -344 244z" />
<glyph unicode="&#x41a;" horiz-adv-x="1433" d="M-2 0l35 225l131 6l149 955l-127 6l37 225h576l-35 -225l-129 -6l-60 -369h78q98 0 158 45q23 16 56.5 59.5t52.5 75.5l120 207l-106 4l33 209h530l-37 -225l-117 -6l-155 -258q-47 -76 -89 -115t-104 -61q94 -37 124 -84t81 -234l53 -203l119 -6l-35 -225h-383l-69 309 q-47 195 -80 244q-45 68 -150 68h-110l-62 -390l127 -6l-35 -225h-577z" />
<glyph unicode="&#x41b;" horiz-adv-x="1447" d="M-104 0l34 225q57 4 89 9.5t64 20.5t45 32.5t29.5 61.5t24.5 90l23 132l98 615l-129 6l37 225h1296l-37 -225l-129 -6l-151 -955l129 -6l-37 -225h-575l34 225l129 6l150 936h-412l-110 -706q-27 -197 -84.5 -292t-174 -133t-343.5 -36z" />
<glyph unicode="&#x41c;" horiz-adv-x="2033" d="M-2 0l35 225l131 6l151 955l-129 6l37 225h619l104 -776l10 -76l13 -73l8 -74l4 -51l121 274l352 776h637l-35 -225l-129 -6l-151 -955l127 -6l-35 -225h-563l34 225l131 6l152 953l-111 -248l-428 -936h-313l-127 913q-8 55 -19.5 144.5t-15.5 124.5l-149 -951l127 -6 l-35 -225h-553z" />
<glyph unicode="&#x41d;" horiz-adv-x="1572" d="M4 0l35 225l131 6l152 955l-136 6l37 225h582l-35 -225l-129 -6l-55 -344h501l54 344l-133 6l34 225h584l-35 -225l-131 -6l-151 -955l135 -6l-37 -225h-584l37 225l129 6l60 371h-502l-58 -371l134 -6l-35 -225h-584z" />
<glyph unicode="&#x41e;" horiz-adv-x="1558" d="M123 584q0 350 205 602q205 256 559 256q289 0 448.5 -157t159.5 -439q0 -375 -213 -625q-109 -127 -242 -186.5t-315 -59.5q-287 0 -444.5 159t-157.5 450zM453 582q0 -170 74.5 -263.5t211.5 -93.5q193 0 314 191q115 186 114 430q0 160 -76.5 253t-209.5 93 q-197 0 -314 -191q-114 -181 -114 -419z" />
<glyph unicode="&#x41f;" horiz-adv-x="1488" d="M-2 0l35 225l131 6l149 955l-127 6l37 225h1325l-37 -225l-129 -6l-151 -955l127 -6l-35 -225h-575l34 225l129 6l150 947h-428l-150 -947l127 -6l-35 -225h-577z" />
<glyph unicode="&#x420;" horiz-adv-x="1259" d="M4 0l35 225l131 6l149 955l-133 6l37 225h498q168 0 257 -15.5t148 -55.5q150 -102 150 -318q0 -248 -170 -385q-127 -102 -401 -102h-166l-50 -310l160 -6l-37 -225h-608zM567 780h88q96 0 142.5 10.5t81.5 38.5q78 66 77 185q0 109 -88 145q-49 18 -159 19h-78z" />
<glyph unicode="&#x421;" horiz-adv-x="1372" d="M129 627q0 379 231 610q207 205 558 205q219 0 428 -84l-64 -395h-244l19 208q-68 20 -131 21q-199 0 -330 -153.5t-131 -387.5q0 -195 100.5 -308.5t274.5 -113.5q139 0 290 84l84 -262q-197 -76 -399 -76q-328 0 -507 170.5t-179 481.5z" />
<glyph unicode="&#x422;" horiz-adv-x="1271" d="M90 991l68 426h1239l-68 -426h-235l18 187h-217l-150 -947l191 -6l-37 -225h-690l35 225l182 6l149 947h-208l-41 -187h-236z" />
<glyph unicode="&#x423;" horiz-adv-x="1288" d="M111 0l71 242q72 -14 129 -15q74 0 121 24.5t86 84.5l-278 850l-129 6l34 225h584l-35 -225l-123 -4l52 -201q49 -176 86 -360q61 129 196 372l105 187l-123 6l35 225h546l-34 -225l-119 -6l-471 -815q-129 -223 -247 -309.5t-296 -86.5q-92 0 -190 25z" />
<glyph unicode="&#x424;" horiz-adv-x="1832" d="M129 680q0 166 79 294t224 204q176 90 457 104l16 96l-127 6l33 209h549l-33 -209l-131 -6l-16 -112q188 -16 323 -88q121 -63 189.5 -180t68.5 -263q0 -338 -313 -497q-172 -86 -449 -103l-14 -96l127 -6l-33 -209h-549l33 209l129 6l17 104q-279 27 -429.5 166.5 t-150.5 370.5zM453 668q0 -254 290 -306l111 693q-158 -8 -256 -76q-145 -102 -145 -311zM1036 362q193 10 297.5 111.5t104.5 274.5q0 248 -293 299z" />
<glyph unicode="&#x425;" horiz-adv-x="1529" d="M-10 0l35 225l104 6l467 517l-285 438l-102 6l37 225h588l-35 -225l-135 -6l176 -271l235 271l-135 6l35 225h596l-35 -225l-100 -6l-443 -492l307 -463l107 -6l-35 -225h-608l35 225l143 6l-192 295l-258 -295l141 -6l-35 -225h-608z" />
<glyph unicode="&#x426;" horiz-adv-x="1505" d="M-2 0l35 225l131 6l149 955l-127 6l37 225h576l-35 -225l-129 -6l-152 -946h430l150 946l-125 6l35 225h577l-37 -225l-131 -6l-151 -955l168 -6l-90 -569h-230l25 344h-1106z" />
<glyph unicode="&#x427;" horiz-adv-x="1445" d="M156 1192l34 225h562l-35 -225l-131 -6l-58 -373q-10 -55 -10 -92q0 -127 154 -127q139 0 282 164l68 428l-127 6l35 225h577l-37 -225l-129 -6l-151 -955l127 -6l-35 -225h-616l34 225l170 6l41 254q-88 -76 -170 -108.5t-188 -32.5q-168 0 -263 81t-95 224q0 78 18 201 l53 336z" />
<glyph unicode="&#x428;" horiz-adv-x="2193" d="M-2 0l35 225l131 6l149 955l-127 6l37 225h576l-35 -225l-129 -6l-152 -946h408l149 946l-127 6l35 225h578l-37 -225l-129 -6l-150 -946h408l149 946l-127 6l35 225h578l-37 -225l-129 -6l-152 -955l127 -6l-34 -225h-2030z" />
<glyph unicode="&#x429;" horiz-adv-x="2209" d="M-2 0l35 225l131 6l149 955l-127 6l37 225h576l-35 -225l-129 -6l-152 -946h408l149 946l-127 6l35 225h578l-37 -225l-129 -6l-150 -946h408l149 946l-127 6l35 225h578l-37 -225l-129 -6l-152 -955l168 -6l-90 -569h-229l24 344h-1810z" />
<glyph unicode="&#x42a;" horiz-adv-x="1632" d="M86 991l68 426h985l-35 -223l-150 -8l-45 -281h172q227 0 332 -76q141 -100 141 -315q0 -129 -44 -240.5t-119 -173.5q-123 -100 -385 -100h-687l35 225l129 4l152 959h-273l-40 -197h-236zM803 229h190q106 0 160 54q72 78 72 217q0 94 -43 135t-142 41h-166z" />
<glyph unicode="&#x42b;" horiz-adv-x="1953" d="M-2 0l35 225l129 4l151 957l-127 6l37 225h596l-35 -225l-149 -6l-45 -281h172q223 0 332 -76q141 -100 141 -315q0 -129 -44 -240.5t-120 -173.5q-123 -100 -387 -100h-686zM483 229h189q109 0 159 54q74 78 74 217q0 94 -43 135t-143 41h-166zM1212 0l35 225l129 6 l152 955l-127 6l35 225h577l-35 -225l-131 -6l-149 -955l127 -6l-37 -225h-576z" />
<glyph unicode="&#x42c;" horiz-adv-x="1312" d="M-2 0l35 225l129 4l151 957l-127 6l37 225h596l-35 -225l-149 -6l-45 -281h172q223 0 332 -76q141 -100 141 -315q0 -129 -44 -240.5t-120 -173.5q-123 -100 -387 -100h-686zM483 229h189q109 0 159 54q74 78 74 217q0 94 -43 135t-143 41h-166z" />
<glyph unicode="&#x42d;" horiz-adv-x="1282" d="M0 96l125 242q186 -113 346 -113q156 0 245 87t136 286h-485l41 250h477v22q0 322 -295 322q-59 0 -121 -10l-53 -203h-244l66 418q195 45 389 45q305 0 446 -160t141 -448q0 -190 -50 -362.5t-138 -278.5q-178 -217 -524 -218q-154 0 -267.5 27.5t-234.5 93.5z" />
<glyph unicode="&#x42e;" horiz-adv-x="2234" d="M-2 0l35 225l131 6l149 955l-127 6l37 225h576l-35 -225l-129 -6l-55 -338h299q78 289 260 441.5t446 152.5q279 0 432.5 -157t153.5 -441q0 -371 -207 -623q-201 -246 -539 -246q-332 0 -483 228q-96 150 -98 395h-303l-58 -367l127 -6l-35 -225h-577zM1174 582 q0 -170 69.5 -263.5t194.5 -93.5q170 0 286.5 178.5t116.5 440.5q0 162 -70.5 255t-193.5 93q-184 0 -295 -191q-108 -179 -108 -419z" />
<glyph unicode="&#x42f;" horiz-adv-x="1390" d="M-80 0l35 225l121 6l94 156q100 162 138 204t104 66q-209 74 -209 320q0 223 184 346q139 94 442 94h621l-37 -225l-129 -6l-151 -955l129 -6l-37 -225h-576l35 225l129 6l51 324h-82q-111 0 -168 -50t-170 -243l-153 -262h-371zM528 971q0 -180 220 -180h161l64 391 h-162q-143 0 -199 -39q-84 -57 -84 -172z" />
<glyph unicode="&#x430;" horiz-adv-x="1265" d="M66 403q0 274 124 463q133 207 361 207q100 0 166.5 -36t116.5 -115l24 127h311q-29 -119 -71 -381l-70 -437l117 -6l-37 -225h-406l11 123q-98 -147 -285 -148q-174 0 -258 97q-104 120 -104 331zM385 430q0 -229 131 -229q123 0 225 172l52 313q-59 162 -175 162 q-96 0 -164.5 -123t-68.5 -295z" />
<glyph unicode="&#x431;" horiz-adv-x="1247" d="M102 432q0 160 37 345.5t97 324.5q68 160 154.5 241.5t223.5 114.5q102 25 394 39q160 10 196 16l-22 -223q-70 -12 -293 -26q-217 -14 -301 -81t-154 -282q72 94 146.5 133t177.5 39q186 0 293.5 -123t107.5 -336q0 -262 -135 -442q-152 -197 -432 -197q-242 0 -366 116 t-124 341zM418 406q0 -205 172 -205q127 0 196 151q53 117 54 266q0 109 -42 169.5t-120 60.5q-137 0 -225 -166l-23 -137q-12 -82 -12 -139z" />
<glyph unicode="&#x432;" horiz-adv-x="1245" d="M-2 0l35 225l119 6l92 586l-115 6l35 226h551q137 0 204.5 -10.5t124.5 -39.5q121 -61 121 -213q0 -90 -46 -149t-148 -100q152 -70 151 -220q0 -78 -35.5 -148.5t-95.5 -109.5q-88 -59 -268 -59h-725zM451 211h200q156 0 156 129q0 51 -31 73.5t-102 22.5h-187zM516 625 h201q139 0 139 123q0 47 -27.5 68.5t-91.5 21.5h-186z" />
<glyph unicode="&#x433;" horiz-adv-x="1011" d="M-2 0l35 225l119 6l92 586l-115 6l35 226h891l-64 -396h-243l14 170h-207l-94 -592l114 -6l-34 -225h-543z" />
<glyph unicode="&#x434;" horiz-adv-x="1288" d="M-139 -303l84 528h127q127 162 204 592l-114 6l35 226h1089l-37 -226l-116 -6l-95 -592h138l-84 -528h-238l25 303h-709l-80 -303h-229zM397 221h332l94 602h-254l-8 -49q-66 -367 -164 -553z" />
<glyph unicode="&#x435;" horiz-adv-x="1239" d="M84 420q0 274 154 461q160 193 436 192q231 0 354 -110.5t123 -319.5q0 -92 -18 -221h-730v-21q0 -96 68 -150t188 -54q164 0 328 84l51 -236q-174 -70 -411 -70q-543 1 -543 445zM430 625h416q4 25 4 53q0 84 -44 131t-124 47q-94 0 -161.5 -62.5t-90.5 -168.5z" />
<glyph unicode="&#x436;" horiz-adv-x="1787" d="M-47 0l35 225l135 6l65 111q80 131 115 165t111 52q-61 43 -103 150l-45 108l-151 6l37 226h510l-33 -213l-66 -7l12 -32q31 -92 66 -128t92 -36h33l31 196l-47 7l34 213h383l-32 -213l-50 -7l-32 -196h71q53 0 75 10t44 43q27 41 51 113l13 30l-64 7l33 213h524 l-35 -226l-153 -6l-60 -108q-66 -127 -149 -177q37 -25 57.5 -58.5t59.5 -131.5l41 -111l133 -6l-35 -225h-344l-72 238q-37 121 -72.5 161.5t-105.5 40.5h-41l-35 -209l88 -6l-35 -225h-464l34 225l90 6l33 209h-69q-74 0 -119 -47q-45 -49 -103 -155l-129 -238h-362z" />
<glyph unicode="&#x437;" horiz-adv-x="1052" d="M-8 57l69 222q186 -78 369 -78q184 0 184 129q0 63 -49 86.5t-180 23.5h-80l31 193q47 -4 90 -4q133 0 193.5 27.5t60.5 91.5q0 104 -162 104q-78 0 -141 -14l-39 -131h-242l49 317q190 49 390 49q457 0 456 -278q0 -102 -52 -162t-167 -90q158 -78 158 -244 q0 -158 -123 -246q-109 -78 -330 -78q-266 0 -485 82z" />
<glyph unicode="&#x438;" horiz-adv-x="1386" d="M-2 0l35 225l119 6l92 586l-115 6l35 226h543l-35 -226l-127 -6l-47 -305l430 279l4 26l-123 6l35 226h542l-34 -226l-119 -6l-92 -586l114 -6l-34 -225h-543l37 225l125 6l47 301l-430 -278l-4 -23l122 -6l-34 -225h-543z" />
<glyph unicode="&#x439;" horiz-adv-x="1386" d="M-2 0l35 225l119 6l92 586l-115 6l35 226h543l-35 -226l-127 -6l-47 -305l430 279l4 26l-123 6l35 226h542l-34 -226l-119 -6l-92 -586l114 -6l-34 -225h-543l37 225l125 6l47 301l-430 -278l-4 -23l122 -6l-34 -225h-543zM465 1391q0 47 10 110h166q-2 -76 34 -100.5 t142 -24.5q102 0 146.5 27t60.5 98h178q-23 -160 -80 -229q-94 -121 -311 -121q-346 0 -346 240z" />
<glyph unicode="&#x43a;" horiz-adv-x="1253" d="M-2 0l35 225l119 6l92 586l-115 6l35 226h493l-32 -213l-74 -7l-31 -196h107q78 0 166 151l26 45l-69 7l34 213h480l-35 -226l-105 -6l-82 -121q-76 -117 -149 -159q53 -20 74.5 -52t64.5 -155l33 -99l119 -6l-35 -225h-334l-65 238q-35 121 -66 161.5t-92 40.5h-103 l-32 -209l114 -6l-34 -225h-539z" />
<glyph unicode="&#x43b;" horiz-adv-x="1267" d="M-61 0l34 225q123 10 157 56.5t67 240.5l45 295l-115 6l35 226h1106l-37 -226l-117 -6l-92 -586l115 -6l-35 -225h-543l35 225l119 6l92 592h-262l-58 -362q-33 -211 -71.5 -288t-141.5 -130q-93 -41 -333 -43z" />
<glyph unicode="&#x43c;" horiz-adv-x="1703" d="M-2 0l35 225l119 6l92 586l-115 6l35 226h536l88 -590q8 -61 19 -162q45 106 70 158l276 594h551l-37 -226l-117 -6l-92 -586l115 -6l-35 -225h-494l37 225l76 6l82 512q-39 -102 -76 -182l-268 -561h-264l-92 557q-10 66 -19 186l-82 -512l76 -6l-37 -225h-479z" />
<glyph unicode="&#x43d;" horiz-adv-x="1386" d="M-2 0l35 225l119 6l92 586l-115 6l35 226h543l-35 -226l-119 -6l-29 -178h371l29 178l-115 6l35 226h542l-34 -226l-119 -6l-92 -586l114 -6l-34 -225h-543l37 225l116 6l31 191h-370l-31 -191l114 -6l-34 -225h-543z" />
<glyph unicode="&#x43e;" horiz-adv-x="1255" d="M86 432q0 123 41 243t113 206q154 193 448 192q236 0 359.5 -115.5t123.5 -332.5q0 -279 -159 -467q-160 -182 -441 -183q-238 0 -361.5 117t-123.5 340zM406 428q0 -227 176 -227q139 0 215 159q55 117 55 269q0 106 -46 162.5t-130 56.5q-143 0 -215 -160 q-55 -125 -55 -260z" />
<glyph unicode="&#x43f;" horiz-adv-x="1345" d="M-2 0l35 225l119 6l92 586l-115 6l35 226h1184l-37 -226l-117 -6l-92 -586l115 -6l-37 -225h-523l37 225l97 6l94 592h-330l-94 -592l94 -6l-35 -225h-522z" />
<glyph unicode="&#x440;" horiz-adv-x="1329" d="M-66 -440l35 225l119 6l162 1026l-121 6l35 226l420 10l-17 -127q127 141 305 141q176 0 273.5 -115.5t97.5 -322.5q0 -276 -133 -465q-135 -195 -358 -195q-219 0 -299 164l-56 -348l150 -6l-35 -225h-578zM487 373q63 -172 191 -172q98 0 172 127t74 297 q0 106 -41 164.5t-117 58.5q-121 0 -225 -141z" />
<glyph unicode="&#x441;" horiz-adv-x="1071" d="M88 444q0 285 172 467q156 162 416 162q193 0 371 -69l-56 -351h-241l14 185q-27 10 -66 10q-123 0 -206.5 -111.5t-83.5 -275.5q0 -121 62 -186.5t177 -65.5q106 0 232 70l43 -232q-133 -72 -330 -72q-238 0 -371 124t-133 345z" />
<glyph unicode="&#x442;" horiz-adv-x="1222" d="M66 653l63 396h1133l-64 -396h-223l14 170h-176l-92 -592l170 -6l-35 -225h-643l35 225l162 6l94 592h-176l-39 -170h-223z" />
<glyph unicode="&#x443;" horiz-adv-x="1169" d="M-127 -428l68 246q78 -35 139 -35q72 0 127 52t143 204l-200 778l-89 6l37 226h494l-37 -226l-104 -6l45 -194q41 -170 57 -261q61 129 123 242l115 213l-113 6l35 226h516l-35 -226l-84 -6l-446 -790q-98 -176 -147.5 -249t-104.5 -128q-121 -117 -308 -117 q-127 0 -231 39z" />
<glyph unicode="&#x444;" horiz-adv-x="1781" d="M82 383q0 281 123 483q125 207 344 207q178 0 266 -133l53 338l-143 6l33 213l428 10l-90 -567q68 74 127 103.5t139 29.5q160 0 247 -112.5t87 -319.5q0 -256 -111 -451q-125 -215 -342 -215q-188 0 -276 142l-52 -326l148 -6l-37 -225h-577l34 225l150 6l51 326 q-111 -141 -272 -142q-158 0 -244 106.5t-86 301.5zM401 412q0 -98 30 -152.5t83 -54.5q106 0 211 168l49 313q-59 158 -158 158q-90 0 -152.5 -126t-62.5 -306zM1008 373q25 -78 69.5 -123t98.5 -45q78 0 139 132t61 298q0 98 -32.5 153.5t-92.5 55.5q-90 0 -194 -158z" />
<glyph unicode="&#x445;" horiz-adv-x="1222" d="M-49 0l33 209l88 4l346 348l-232 275l-71 4l32 209h502l-33 -209h-102l148 -176l169 176h-102l35 209h471l-33 -209l-72 -4l-327 -328l248 -295l88 -4l-33 -209h-520l32 209h105l-164 197l-188 -197h110l-35 -209h-495z" />
<glyph unicode="&#x446;" horiz-adv-x="1341" d="M-2 0l35 225l119 6l92 586l-115 6l35 226h522l-35 -226l-98 -6l-94 -592h323l95 592l-97 6l37 226h522l-36 -226l-117 -6l-94 -592h137l-84 -528h-238l25 303h-934z" />
<glyph unicode="&#x447;" horiz-adv-x="1325" d="M104 823l35 226h523l-35 -226l-117 -6l-21 -125q-10 -66 -10 -100q0 -119 109 -119q117 0 248 164l28 180l-114 6l34 226h543l-37 -226l-116 -6l-93 -586l115 -6l-35 -225h-579l34 213l154 6l25 166q-154 -141 -330 -141q-143 0 -222 72.5t-79 205.5q0 59 18 187l19 108z " />
<glyph unicode="&#x448;" horiz-adv-x="1943" d="M-2 0l35 225l119 6l92 586l-115 6l35 226h522l-35 -226l-98 -6l-94 -592h309l94 592l-96 6l37 226h502l-35 -226l-99 -6l-94 -592h309l95 592l-97 6l37 226h523l-37 -226l-117 -6l-92 -586l114 -6l-34 -225h-1780z" />
<glyph unicode="&#x449;" horiz-adv-x="1945" d="M-2 0l35 225l119 6l92 586l-115 6l35 226h522l-35 -226l-98 -6l-94 -592h309l94 592l-96 6l37 226h502l-35 -226l-99 -6l-94 -592h309l95 592l-97 6l37 226h523l-37 -226l-117 -6l-94 -592h137l-84 -528h-238l25 303h-1538z" />
<glyph unicode="&#x44a;" horiz-adv-x="1345" d="M37 653l63 396h828l-35 -215l-129 -9l-19 -112h111q197 0 285 -60q119 -76 119 -254q0 -106 -43 -196t-119 -140q-98 -63 -285 -63h-606l37 225l116 6l97 605h-168l-41 -183h-211zM668 211h112q84 0 117 41q43 49 43 129q0 68 -29.5 96.5t-99.5 28.5h-98z" />
<glyph unicode="&#x44b;" horiz-adv-x="1757" d="M-2 0l35 225l119 6l92 586l-115 8l35 224h555l-35 -218l-129 -6l-18 -112h110q197 0 285 -60q119 -78 119 -254q0 -106 -43 -196t-119 -140q-98 -63 -285 -63h-606zM457 211h114q84 0 117 41q43 49 43 129q0 68 -29.5 96.5t-99.5 28.5h-98zM1049 0l36 225l117 6l92 586 l-114 6l34 226h543l-35 -226l-118 -6l-93 -586l115 -6l-35 -225h-542z" />
<glyph unicode="&#x44c;" horiz-adv-x="1138" d="M-2 0l35 225l119 6l92 586l-115 8l35 224h555l-35 -218l-129 -6l-18 -112h110q197 0 285 -60q119 -78 119 -254q0 -106 -43 -196t-119 -140q-98 -63 -285 -63h-606zM457 211h114q84 0 117 41q43 49 43 129q0 68 -29.5 96.5t-99.5 28.5h-98z" />
<glyph unicode="&#x44d;" horiz-adv-x="1110" d="M-8 59l90 228q150 -82 297 -82q231 0 297 221h-350l32 211h340q-10 113 -63 162t-164 49q-39 0 -78 -8l-39 -133h-241l51 325q182 41 344 41q236 0 360 -104q152 -127 152 -389q0 -291 -174 -455q-156 -150 -438 -150q-252 0 -416 84z" />
<glyph unicode="&#x44e;" horiz-adv-x="1855" d="M-2 0l35 225l119 6l92 586l-115 6l35 226h543l-35 -226l-119 -6l-29 -178h234q127 434 551 434q223 0 341.5 -114.5t118.5 -331.5q0 -281 -155 -469q-150 -182 -424 -183q-449 0 -461 447h-237l-31 -191l114 -6l-34 -225h-543zM1049 426q0 -225 161 -225q123 0 189 159 q51 119 51 273q0 104 -41 159.5t-117 55.5q-125 0 -192 -160q-51 -117 -51 -262z" />
<glyph unicode="&#x44f;" horiz-adv-x="1255" d="M-49 0l35 225l118 6l54 66q76 94 96 116.5t55 45.5q-88 45 -125 102t-37 144q0 180 134 274q98 70 307 70h667l-34 -226l-119 -6l-92 -586l114 -6l-34 -225h-543l35 225l118 6l21 136h-111q-55 0 -97 -37t-118 -148l-121 -182h-323zM461 696q0 -63 39 -88.5t133 -25.5 h129l39 252h-144q-96 0 -135 -23q-61 -39 -61 -115z" />
<glyph unicode="&#x451;" horiz-adv-x="1239" d="M84 420q0 274 154 461q160 193 436 192q231 0 354 -110.5t123 -319.5q0 -92 -18 -221h-730v-21q0 -96 68 -150t188 -54q164 0 328 84l51 -236q-174 -70 -411 -70q-543 1 -543 445zM338 1378q0 76 50 125t126 49t126 -49t50 -127t-50 -127t-126 -49q-78 0 -127 50t-49 128 zM430 625h416q4 25 4 53q0 84 -44 131t-124 47q-94 0 -161.5 -62.5t-90.5 -168.5zM793 1378q0 76 50 125t125.5 49t126 -49t50.5 -127t-50.5 -127t-125.5 -49q-78 0 -127 50t-49 128z" />
<glyph unicode="&#x452;" horiz-adv-x="1331" d="M-2 0l35 225l119 6l143 906h-117l23 143h116l17 100l-117 6l29 173l426 10l-45 -289h252l-23 -143h-252l-33 -203q154 139 334 139q147 0 226 -72.5t79 -209.5q0 -49 -16 -166l-47 -287q-49 -311 -90 -438t-117 -207q-78 -76 -183.5 -105.5t-295.5 -27.5l35 223 q61 2 99 6t71.5 22.5t52 44t38 80t32 117t30.5 170.5l51 324q23 135 23 178q0 57 -31 90t-84 33q-117 0 -246 -168l-71 -449l114 -6l-34 -225h-543z" />
<glyph unicode="&#x453;" horiz-adv-x="1011" d="M-2 0l35 225l119 6l92 586l-115 6l35 226h891l-64 -396h-243l14 170h-207l-94 -592l114 -6l-34 -225h-543zM434 1198l289 299h377l-371 -299h-295z" />
<glyph unicode="&#x454;" horiz-adv-x="1112" d="M90 451q0 285 162 458q152 164 450 164q213 0 390 -69l-48 -297h-233l4 133q-43 8 -94 8q-117 0 -181.5 -50t-103.5 -169h355l-31 -203h-350q8 -221 252 -221q127 0 264 61l43 -231q-160 -59 -353 -60q-258 0 -392 121.5t-134 354.5z" />
<glyph unicode="&#x455;" horiz-adv-x="1079" d="M14 49l49 313h224l-11 -135q88 -35 181 -34q203 0 202 114q0 59 -102 90q-240 80 -307 121q-121 76 -121 209q0 141 113 236q129 111 385 110q174 0 393 -53l-49 -318h-219l12 129q-80 29 -158 29q-82 0 -131 -27.5t-49 -74.5q0 -31 26.5 -49.5t108.5 -44.5 q158 -51 214 -76t97 -62q84 -74 84 -188q0 -156 -118 -254q-123 -109 -402 -109q-248 0 -422 74z" />
<glyph unicode="&#x456;" horiz-adv-x="718" d="M4 0l35 225l119 6l92 586l-121 6l35 226l434 10l-131 -828l121 -6l-35 -225h-549zM309 1366q0 76 51.5 126t129 50t128 -50t50.5 -128t-50.5 -129t-128.5 -51q-80 0 -130 50t-50 132z" />
<glyph unicode="&#x457;" horiz-adv-x="710" d="M0 0l35 225l119 6l92 586l-115 6l35 226l428 10l-131 -828l115 -6l-35 -225h-543zM72 1378q0 76 50 125t126 49t126 -49t50 -127t-50 -127t-126 -49q-78 0 -127 50t-49 128zM526 1378q0 76 50.5 125t126 49t126 -49t50.5 -127t-50.5 -127t-126.5 -49q-78 0 -127 50 t-49 128z" />
<glyph unicode="&#x458;" horiz-adv-x="684" d="M-219 -434l51 239q68 -20 117 -20q74 0 112.5 54.5t59.5 189.5l125 788l-137 6l34 226l451 10l-164 -1036q-29 -180 -53 -244q-47 -127 -136 -185.5t-235 -58.5q-112 0 -225 31zM305 1366q0 76 51.5 126t129 50t128 -50t50.5 -128t-50.5 -129t-128.5 -51q-80 0 -130 50 t-50 132z" />
<glyph unicode="&#x459;" horiz-adv-x="1691" d="M-61 0l34 225q123 10 157 56.5t67 240.5l45 295l-115 8l35 224h1112l-35 -215l-129 -9l-18 -112h110q195 0 285 -60q119 -78 119 -254q0 -106 -43 -196t-119 -140q-98 -63 -285 -63h-606l35 225l119 6l92 594h-256l-58 -364q-33 -211 -71.5 -288t-141.5 -130 q-93 -41 -333 -43zM1012 211h114q84 0 117 41q43 49 43 129q0 68 -29.5 96.5t-101.5 28.5h-96z" />
<glyph unicode="&#x45a;" horiz-adv-x="1783" d="M-2 0l35 225l119 6l92 586l-115 8l35 224h530l-35 -224l-106 -8l-21 -133h336l23 133l-105 8l37 224h541l-33 -218l-131 -6l-16 -112h108q195 0 285 -60q119 -78 119 -254q0 -106 -43 -196t-119 -140q-98 -63 -285 -63h-594l37 225l105 6l39 236h-338l-37 -236l102 -6 l-35 -225h-530zM1104 211h113q84 0 116 41q43 49 43 129q0 68 -29.5 96.5t-99.5 28.5h-96z" />
<glyph unicode="&#x45b;" horiz-adv-x="1359" d="M-2 0l35 225l119 6l143 906h-117l23 143h116l17 100l-117 6l29 173l426 10l-45 -289h252l-23 -143h-252l-33 -203q154 139 334 139q147 0 226 -72.5t79 -209.5q0 -49 -16 -166l-64 -394l117 -6l-37 -225h-542l37 225l116 6l49 316q23 135 23 178q0 57 -31 90t-84 33 q-117 0 -246 -168l-71 -449l114 -6l-34 -225h-543z" />
<glyph unicode="&#x45c;" horiz-adv-x="1253" d="M-2 0l35 225l119 6l92 586l-115 6l35 226h493l-32 -213l-74 -7l-31 -196h107q78 0 166 151l26 45l-69 7l34 213h480l-35 -226l-105 -6l-82 -121q-76 -117 -149 -159q53 -20 74.5 -52t64.5 -155l33 -99l119 -6l-35 -225h-334l-65 238q-35 121 -66 161.5t-92 40.5h-103 l-32 -209l114 -6l-34 -225h-539zM545 1198l289 299h376l-370 -299h-295z" />
<glyph unicode="&#x45e;" horiz-adv-x="1169" d="M-127 -428l68 246q78 -35 139 -35q72 0 127 52t143 204l-200 778l-89 6l37 226h494l-37 -226l-104 -6l45 -194q41 -170 57 -261q61 129 123 242l115 213l-113 6l35 226h516l-35 -226l-84 -6l-446 -790q-98 -176 -147.5 -249t-104.5 -128q-121 -117 -308 -117 q-127 0 -231 39zM346 1391q0 43 8 110h168q2 -78 35 -101.5t141 -23.5q102 0 146.5 27t60.5 98h176q-20 -154 -77 -229q-94 -121 -312 -121q-346 0 -346 240z" />
<glyph unicode="&#x45f;" horiz-adv-x="1339" d="M-2 0l35 225l119 6l92 586l-115 6l35 226h522l-35 -226l-98 -6l-94 -592h323l95 592l-97 6l37 226h522l-36 -226l-117 -6l-92 -586l114 -6l-34 -225h-447l-72 -303h-235l22 303h-444z" />
<glyph unicode="&#x490;" horiz-adv-x="1118" d="M-2 0l35 225l131 6l149 955l-127 6l37 225h772l82 256h236l-109 -495h-571l-150 -947l127 -6l-35 -225h-577z" />
<glyph unicode="&#x491;" horiz-adv-x="1011" d="M-2 0l35 225l119 6l92 586l-115 6l35 226h635l78 256h241l-100 -482h-463l-94 -592l114 -6l-34 -225h-543z" />
<glyph unicode="&#x4c0;" horiz-adv-x="755" d="M4 0l35 225l131 6l152 955l-136 6l37 225h584l-35 -225l-131 -6l-152 -955l136 -6l-35 -225h-586z" />
<glyph unicode="&#x1e84;" horiz-adv-x="2029" d="M127 1192l35 225h538l-34 -225l-142 -6l17 -283q4 -57 7 -115.5t5 -90t2 -44.5l6 -143l4 -96q31 94 154 387l276 616h316l69 -661q10 -98 23 -254l8 -88q43 133 152 409l143 365l-141 4l34 225h547l-35 -225l-102 -6l-504 -1186h-317l-68 664q-23 231 -33 360l-23 -57 q-15 -37 -22 -49q-8 -16 -20 -50l-25 -55l-61 -143l-297 -670h-315l-95 1186zM770 1710q0 76 50 125t126 49q78 0 127 -49t49 -127t-49 -127t-127 -49t-127 50t-49 128zM1225 1710q0 76 50 125t126 49q78 0 127 -49t49 -127t-49 -127t-127 -49t-127 50t-49 128z" />
<glyph unicode="&#x2007;" horiz-adv-x="647" />
<glyph unicode="&#x2011;" horiz-adv-x="813" d="M88 457l37 241h620l-38 -241h-619z" />
<glyph unicode="&#x2012;" d="M86 457l37 241h1096l-39 -241h-1094z" />
<glyph unicode="&#x2013;" d="M86 457l37 241h1096l-39 -241h-1094z" />
<glyph unicode="&#x2014;" horiz-adv-x="2048" d="M-94 457l37 241h2216l-39 -241h-2214z" />
<glyph unicode="&#x2015;" horiz-adv-x="2048" d="M-94 457l37 241h2216l-39 -241h-2214z" />
<glyph unicode="&#x2017;" horiz-adv-x="1024" d="M-250 -459l19 119h1210l-18 -119h-1211zM-217 -252l18 119h1211l-19 -119h-1210z" />
<glyph unicode="&#x2018;" horiz-adv-x="557" d="M68 918l315 579h291l-266 -579h-340z" />
<glyph unicode="&#x2019;" horiz-adv-x="557" d="M100 918l267 579h340l-316 -579h-291z" />
<glyph unicode="&#x201a;" horiz-adv-x="557" d="M-94 -236l266 580h340l-315 -580h-291z" />
<glyph unicode="&#x201c;" horiz-adv-x="1036" d="M82 918l315 579h291l-266 -579h-340zM553 918l317 579h289l-266 -579h-340z" />
<glyph unicode="&#x201d;" horiz-adv-x="1036" d="M94 918l266 579h340l-315 -579h-291zM567 918l264 579h340l-315 -579h-289z" />
<glyph unicode="&#x201e;" horiz-adv-x="1036" d="M-106 -236l266 580h340l-316 -580h-290zM367 -236l264 580h340l-316 -580h-288z" />
<glyph unicode="&#x2020;" d="M168 799l39 250h373l57 368h299l-57 -368h374l-39 -250h-374l-164 -1026h-299l162 1026h-371z" />
<glyph unicode="&#x2021;" d="M80 242l39 250h373l47 307h-371l39 250h373l59 368h299l-59 -368h374l-39 -250h-374l-49 -307h374l-39 -250h-374l-76 -469h-299l74 469h-371z" />
<glyph unicode="&#x2022;" horiz-adv-x="1024" d="M170 717q0 156 107.5 262t265 106t265 -107.5t107.5 -265t-107.5 -265t-264.5 -107.5q-160 0 -266.5 107.5t-106.5 269.5z" />
<glyph unicode="&#x2026;" horiz-adv-x="1941" d="M78 168q0 80 54 133t134 53q82 0 136.5 -54t54.5 -136t-53.5 -135.5t-135.5 -53.5q-84 0 -137 54.5t-53 138.5zM725 168q0 80 54.5 133t133.5 53q82 0 136.5 -54t54.5 -136t-53.5 -135.5t-135.5 -53.5q-84 0 -137 54.5t-53 138.5zM1372 168q0 80 54.5 133t134.5 53 q82 0 136 -54t54 -136t-53 -135.5t-135 -53.5q-84 0 -137.5 54.5t-53.5 138.5z" />
<glyph unicode="&#x2030;" horiz-adv-x="2672" d="M156 950q0 180 90 324q98 156 309 156q309 0 309 -320q0 -182 -90 -328q-100 -156 -307 -155q-311 -1 -311 323zM383 940q0 -147 90 -147q70 0 117 96t47 235.5t-90 139.5q-70 0 -113 -90q-51 -103 -51 -234zM465 -33l788 1483h199l-786 -1483h-201zM1053 311 q0 184 90 324q98 156 309 156q309 0 309 -318q0 -188 -90 -330q-98 -156 -309 -155q-309 -1 -309 323zM1280 301q0 -147 92 -147q68 0 115 96t47 233q0 141 -90 142q-68 0 -116 -95.5t-48 -228.5zM1860 311q0 184 90 324q98 156 309 156q309 0 309 -318q0 -188 -90 -330 q-98 -156 -309 -155q-309 -1 -309 323zM2087 301q0 -147 92 -147q68 0 115 96t47 233q0 141 -90 142q-68 0 -116 -95.5t-48 -228.5z" />
<glyph unicode="&#x2039;" horiz-adv-x="749" d="M70 530l477 498l174 -180l-320 -342l211 -338l-223 -137z" />
<glyph unicode="&#x203a;" horiz-adv-x="749" d="M43 211l319 340l-210 340l221 137l321 -500l-479 -497z" />
<glyph unicode="&#x203e;" horiz-adv-x="1024" d="M86 1651l35 225h1212l-37 -225h-1210z" />
<glyph unicode="&#x2044;" horiz-adv-x="172" d="M-379 -33l787 1483h200l-786 -1483h-201z" />
<glyph unicode="&#x2070;" horiz-adv-x="843" d="M147 950q0 180 91 324q98 156 309 156q309 0 309 -320q0 -182 -90 -328q-100 -156 -307 -155q-312 -1 -312 323zM375 940q0 -147 90 -147q70 0 117 96t47 235.5t-90 139.5q-70 0 -113 -90q-51 -103 -51 -234z" />
<glyph unicode="&#x2074;" horiz-adv-x="843" d="M98 799l25 155l385 463h295l-74 -469h107l-25 -149h-106l-25 -160h-213l25 160h-394zM313 948h213l54 324z" />
<glyph unicode="&#x2075;" horiz-adv-x="843" d="M135 678l58 172q125 -55 223 -55q78 0 125 30.5t47 83.5q0 88 -178 88q-70 0 -205 -20l88 440h567l-26 -170h-361l-20 -114q49 10 98 10q127 0 195.5 -55.5t68.5 -159.5q0 -150 -117 -234q-92 -66 -268 -65q-148 0 -295 49z" />
<glyph unicode="&#x2076;" horiz-adv-x="843" d="M147 911q0 111 46.5 223.5t119.5 178.5q125 117 346 117q94 0 193 -23l-45 -166q-92 23 -156 23q-90 0 -142 -35t-91 -123q76 53 170 53q115 0 180.5 -57.5t65.5 -159.5q0 -143 -101.5 -229t-269.5 -86q-154 0 -235 72.5t-81 211.5zM367 874q0 -86 102 -86q63 0 100 37 t37 97q0 82 -102 82q-61 0 -99 -36.5t-38 -93.5z" />
<glyph unicode="&#x2077;" horiz-adv-x="843" d="M152 639l473 606h-254l-35 -139h-158l49 311h676l-24 -155l-469 -623h-258z" />
<glyph unicode="&#x2078;" horiz-adv-x="843" d="M127 844q0 74 46 120t149 74q-68 39 -94.5 75t-26.5 89q0 104 93 166t253 62q150 0 231.5 -53.5t81.5 -151.5q0 -66 -34.5 -108t-118.5 -79q117 -53 116 -161q0 -115 -98 -182.5t-268 -67.5q-158 0 -244 56.5t-86 160.5zM346 862q0 -33 34 -53.5t89 -20.5q61 0 98 24 t37 62q0 68 -125 95q-61 -10 -97 -39t-36 -68zM420 1192q0 -63 115 -100l8 4q98 35 98 100q0 72 -104 72q-53 0 -85 -20.5t-32 -55.5z" />
<glyph unicode="&#x2079;" horiz-adv-x="843" d="M152 649l47 166q90 -23 153 -22q90 0 142.5 34.5t91.5 122.5q-76 -53 -170 -53q-115 0 -180.5 58.5t-65.5 158.5q0 143 101.5 229.5t269.5 86.5q154 0 234.5 -73t80.5 -212q0 -111 -46 -223.5t-120 -178.5q-125 -117 -346 -116q-94 -1 -192 22zM397 1135q0 -82 103 -82 q61 0 99 35.5t38 93.5q0 86 -102 86q-63 0 -100.5 -37t-37.5 -96z" />
<glyph unicode="&#x2080;" horiz-adv-x="843" d="M45 311q0 180 90 324q98 156 309 156q309 0 310 -320q0 -182 -90 -328q-100 -156 -310 -155q-309 -1 -309 323zM272 301q0 -147 90 -147q70 0 117 96t47 235.5t-90 139.5q-70 0 -112 -90q-52 -103 -52 -234z" />
<glyph unicode="&#x2081;" horiz-adv-x="843" d="M133 627l295 151h188l-96 -610l94 -6l-24 -162h-410l25 162l98 6l64 405l-181 -98z" />
<glyph unicode="&#x2082;" horiz-adv-x="843" d="M45 0l27 168q88 47 247 166q96 72 137.5 122t41.5 99q0 70 -103 70q-68 0 -227 -62l-31 160q150 68 307 68q137 0 212 -54.5t75 -156.5q0 -137 -141 -252q-90 -78 -223 -160h305l-27 -168h-600z" />
<glyph unicode="&#x2083;" horiz-adv-x="843" d="M53 29l51 164q109 -39 218 -39q141 0 141 98q0 76 -144 76q-39 0 -86 -4l23 141q37 -2 78 -2q172 0 172 96q0 66 -125 66q-74 0 -191 -33l-28 156q143 43 280 43q297 0 297 -195q0 -154 -180 -195q76 -20 106.5 -58t30.5 -103q0 -133 -112 -199q-88 -53 -244 -53 q-164 0 -287 41z" />
<glyph unicode="&#x2084;" horiz-adv-x="843" d="M-2 160l25 155l385 463h294l-73 -469h106l-24 -149h-107l-24 -160h-213l24 160h-393zM213 309h213l53 324z" />
<glyph unicode="&#x2085;" horiz-adv-x="843" d="M33 39l57 172q125 -55 223 -55q78 0 125 30.5t47 83.5q0 88 -178 88q-70 0 -205 -20l88 440h568l-27 -170h-360l-21 -114q49 10 99 10q127 0 195.5 -55.5t68.5 -159.5q0 -150 -117 -234q-92 -66 -268 -65q-148 0 -295 49z" />
<glyph unicode="&#x2086;" horiz-adv-x="843" d="M45 272q0 111 46 223.5t120 178.5q125 117 346 117q94 0 193 -23l-45 -166q-92 23 -154 23q-90 0 -143.5 -35t-92.5 -123q76 53 170 53q115 0 180.5 -57t65.5 -160q0 -143 -101.5 -229t-269.5 -86q-154 0 -234.5 72.5t-80.5 211.5zM264 236q0 -86 103 -86q63 0 100 36.5 t37 96.5q0 82 -103 82q-61 0 -99 -36t-38 -93z" />
<glyph unicode="&#x2087;" horiz-adv-x="843" d="M51 0l473 606h-254l-34 -139h-158l49 311h676l-25 -155l-469 -623h-258z" />
<glyph unicode="&#x2088;" horiz-adv-x="843" d="M27 205q0 74 46 120t148 74q-68 39 -94.5 75t-26.5 89q0 104 93.5 166t252.5 62q150 0 232 -53.5t82 -151.5q0 -66 -35 -108t-119 -79q117 -53 117 -161q0 -115 -98.5 -182.5t-268.5 -67.5q-158 0 -243.5 56.5t-85.5 160.5zM246 223q0 -33 33.5 -53t89.5 -20 q61 0 98 23.5t37 62.5q0 68 -125 94q-59 -10 -96 -39t-37 -68zM319 553q0 -61 115 -100l8 4q98 35 99 100q0 72 -105 72q-53 0 -85 -20.5t-32 -55.5z" />
<glyph unicode="&#x2089;" horiz-adv-x="843" d="M49 10l47 166q90 -23 154 -22q90 0 142 34.5t91 122.5q-76 -53 -170 -53q-115 0 -180 57.5t-65 159.5q0 143 101 229.5t269 86.5q154 0 235 -73t81 -212q0 -111 -46 -223.5t-120 -178.5q-125 -117 -346 -116q-95 -1 -193 22zM295 496q0 -82 102 -82q61 0 99.5 35.5 t38.5 93.5q0 86 -103 86q-63 0 -100 -37t-37 -96z" />
<glyph unicode="&#x20ac;" d="M12 481l76 150h133q6 76 17 121h-183l76 149h148q94 266 272 403.5t430 137.5q246 0 422 -101l-115 -225q-143 84 -291 84q-289 0 -399 -299h582l-74 -149h-545q-10 -61 -12 -121h495l-75 -150h-416q31 -260 315 -260q145 0 312 80l45 -252q-176 -74 -406 -74 q-279 0 -431 129t-169 377h-207z" />
<glyph unicode="&#x2116;" horiz-adv-x="2414" d="M-2 0l35 225l131 6l151 955l-129 6l37 225h479l267 -637q78 -186 123 -346l8 55l4 56q18 111 26 172l76 469l-133 6l37 225h555l-35 -225l-129 -6l-188 -1186h-344l-252 594q-94 223 -144 391l-18 -154l-18 -108l-13 -88l-65 -404l131 -6l-35 -225h-557zM1507 72l25 164 h719l-27 -164h-717zM1559 690q0 178 119.5 291t310.5 113q176 0 278.5 -90.5t102.5 -245.5q0 -182 -119 -296t-312 -114q-180 0 -280 90t-100 252zM1829 647q0 -131 108 -131q100 0 138 119q25 90 24 166q0 125 -108 125q-94 0 -133 -109q-29 -86 -29 -170z" />
<glyph unicode="&#x2122;" horiz-adv-x="2144" d="M135 1116l47 301h803l-47 -301h-158l8 146h-126l-72 -455l112 -6l-24 -162h-436l24 162l117 6l72 455h-125l-37 -146h-158zM920 639l24 162l96 6l70 442l-94 6l26 162h392l88 -540l262 540h393l-25 -162l-96 -6l-69 -442l94 -6l-27 -162h-366l26 162l80 6l35 225 q16 109 29 170l6 37l-113 -240l-186 -360h-156l-72 360q-8 39 -20 121l-17 117q-8 -66 -14 -98q-4 -18 -9 -54t-7 -53l-37 -225l78 -6l-25 -162h-366z" />
<glyph unicode="&#x2126;" horiz-adv-x="1513" d="M4 0l35 225h268q-100 113 -142 217.5t-42 247.5q0 319 196 533q199 219 539 219q289 0 452 -152.5t163 -423.5q0 -246 -127 -426q-74 -109 -228 -215h266l-34 -225h-590l35 215q174 119 266 284t92 353q0 158 -81 249t-220 91q-178 0 -294 -151.5t-116 -383.5 q0 -272 185 -442l-35 -215h-588z" />
<glyph unicode="&#x2153;" horiz-adv-x="1859" d="M186 1266l295 151h189l-97 -610l95 -6l-25 -162h-410l25 162l98 6l64 405l-180 -98zM389 -33l787 1483h200l-786 -1483h-201zM1008 29l49 164q111 -39 219 -39q141 0 141 98q0 76 -143 76q-41 0 -86 -4l20 141q39 -2 80 -2q172 0 172 96q0 66 -125 66q-74 0 -190 -33 l-29 156q143 43 281 43q297 0 297 -195q0 -154 -181 -195q76 -23 107 -59.5t31 -101.5q0 -133 -113 -199q-88 -53 -244 -53q-163 0 -286 41z" />
<glyph unicode="&#x2154;" horiz-adv-x="1859" d="M145 639l27 168q88 47 248 166q96 72 137 122t41 99q0 70 -102 70q-74 0 -228 -64l-30 162q152 68 307 68q137 0 211.5 -54.5t74.5 -156.5q0 -137 -141 -252q-96 -82 -223 -160h305l-27 -168h-600zM465 -33l786 1483h201l-786 -1483h-201zM1069 29l49 164 q111 -39 219 -39q141 0 142 98q0 76 -144 76q-41 0 -88 -4l23 141q39 -2 78 -2q174 0 174 96q0 66 -125 66q-74 0 -191 -33l-30 156q145 43 280 43q299 0 299 -195q0 -154 -180 -195q76 -20 106.5 -58t30.5 -103q0 -133 -113 -199q-88 -53 -243 -53q-166 0 -287 41z" />
<glyph unicode="&#x215b;" horiz-adv-x="1859" d="M197 1266l295 151h188l-96 -610l94 -6l-25 -162h-409l24 162l99 6l63 405l-180 -98zM381 -33l786 1483h201l-786 -1483h-201zM967 205q0 74 46 120t148 74q-68 39 -94.5 75t-26.5 89q0 104 93.5 166t252.5 62q150 0 232 -53.5t82 -151.5q0 -66 -35 -108t-119 -79 q117 -53 117 -161q0 -115 -98.5 -182.5t-268.5 -67.5q-158 0 -243.5 56.5t-85.5 160.5zM1186 223q0 -33 33.5 -53t89.5 -20q61 0 98 23.5t37 62.5q0 68 -125 94q-59 -10 -96 -39t-37 -68zM1260 553q0 -61 114 -100l8 4q98 35 99 100q0 72 -105 72q-53 0 -84.5 -20.5 t-31.5 -55.5z" />
<glyph unicode="&#x215c;" horiz-adv-x="1859" d="M154 668l51 163q109 -39 217 -38q141 0 141 98q0 76 -143 76q-39 0 -86 -4l22 141q37 -2 78 -2q172 0 172 96q0 66 -125 66q-74 0 -190 -33l-29 155q143 43 281 44q297 0 297 -195q0 -154 -181 -195q76 -20 107 -58t31 -103q0 -133 -113 -199q-88 -53 -244 -53 q-165 0 -286 41zM465 -33l786 1483h201l-786 -1483h-201zM1042 205q0 74 46.5 120t148.5 74q-68 39 -94.5 75t-26.5 89q0 104 93.5 166t252.5 62q150 0 232 -53.5t82 -151.5q0 -66 -35 -108t-119 -79q63 -31 90 -67.5t27 -93.5q0 -115 -98.5 -182.5t-268.5 -67.5 q-158 0 -244 56.5t-86 160.5zM1262 223q0 -33 33.5 -53t88.5 -20q61 0 98.5 23.5t37.5 62.5q0 68 -125 94q-61 -10 -97 -39t-36 -68zM1335 553q0 -66 113 -100l10 4q98 35 98 100q0 72 -104 72q-53 0 -85 -20.5t-32 -55.5z" />
<glyph unicode="&#x215d;" horiz-adv-x="1859" d="M135 678l58 172q125 -55 223 -55q78 0 125 30.5t47 83.5q0 88 -178 88q-70 0 -205 -20l88 440h567l-26 -170h-361l-20 -114q49 10 98 10q127 0 195.5 -55.5t68.5 -159.5q0 -150 -117 -234q-92 -66 -268 -65q-148 0 -295 49zM465 -33l786 1483h201l-786 -1483h-201z M1042 205q0 74 46.5 120t148.5 74q-68 39 -94.5 75t-26.5 89q0 104 93.5 166t252.5 62q150 0 232 -53.5t82 -151.5q0 -66 -35 -108t-119 -79q117 -53 117 -161q0 -115 -98.5 -182.5t-268.5 -67.5q-158 0 -244 56.5t-86 160.5zM1262 223q0 -33 33.5 -53t88.5 -20 q61 0 98.5 23.5t37.5 62.5q0 68 -125 94q-59 -10 -96 -39t-37 -68zM1335 553q0 -61 115 -100l8 4q98 35 98 100q0 72 -104 72q-53 0 -85 -20.5t-32 -55.5z" />
<glyph unicode="&#x215e;" horiz-adv-x="1859" d="M129 639l473 606h-254l-35 -139h-157l49 311h676l-25 -155l-469 -623h-258zM362 -33l787 1483h201l-787 -1483h-201zM987 205q0 74 46 120t149 74q-68 39 -94.5 75t-26.5 89q0 104 93 166t253 62q150 0 231.5 -53.5t81.5 -151.5q0 -66 -34.5 -108t-118.5 -79 q117 -53 116 -161q0 -115 -98 -182.5t-268 -67.5q-158 0 -244 56.5t-86 160.5zM1206 223q0 -33 34 -53t89 -20q61 0 98 23.5t37 62.5q0 68 -125 94q-59 -10 -96 -39t-37 -68zM1280 553q0 -61 115 -100l8 4q98 35 98 100q0 72 -104 72q-53 0 -85 -20.5t-32 -55.5z" />
<glyph unicode="&#x2202;" d="M119 391q0 272 168 451q129 131 321 131q104 0 191 -47q-57 158 -165 235.5t-302 104.5l45 254q172 -12 279.5 -48t205.5 -112q147 -115 229.5 -296t82.5 -396q0 -328 -160 -510.5t-447 -182.5q-215 0 -331.5 108.5t-116.5 307.5zM438 389q0 -88 42 -138t114 -50 q102 0 176 98t74 233q0 199 -168 199q-106 0 -172 -94t-66 -248z" />
<glyph unicode="&#x2206;" d="M-57 0l28 182l654 1235h319l262 -1235l-28 -182h-1235zM326 242h563l-154 805z" />
<glyph unicode="&#x220f;" horiz-adv-x="1441" d="M-94 -317l35 225l127 6l233 1475l-129 6l37 225h1370l-35 -225l-129 -6l-233 -1475l131 -6l-35 -225h-580l37 225l127 6l230 1456h-476l-229 -1456l131 -6l-35 -225h-577z" />
<glyph unicode="&#x2211;" d="M-4 -317l39 249l530 775l-303 661l41 252h1086l-72 -451h-236l21 199h-469l291 -672l-523 -764h486l47 220h235l-75 -469h-1098z" />
<glyph unicode="&#x2212;" d="M111 406l36 241h1035l-37 -241h-1034z" />
<glyph unicode="&#x221a;" d="M102 575l35 226h381l94 -463l666 1538h651l-37 -225h-436l-733 -1651h-297l-135 575h-189z" />
<glyph unicode="&#x221e;" horiz-adv-x="1685" d="M96 481q0 168 94 283q109 129 316 129q231 0 364 -178q172 178 383 178q162 0 249 -79t87 -224q0 -176 -102 -289q-106 -121 -307 -121q-231 0 -365 178q-172 -178 -383 -178q-162 0 -249 78t-87 223zM350 514q0 -51 28 -79.5t77 -28.5q96 0 233 108l29 23l-19 20 q-100 111 -198 111q-63 0 -106.5 -44t-43.5 -110zM969 537l22 -23q102 -109 199 -108q59 0 102 46t43 109q0 49 -28.5 78t-77.5 29q-92 0 -236 -111z" />
<glyph unicode="&#x222b;" horiz-adv-x="917" d="M-68 -293l82 242q55 -27 103 -27q57 0 82.5 40t46.5 163l174 1098q25 158 44 213t68 106q106 102 279 103q106 0 215 -39l-76 -250q-63 25 -106 24q-49 0 -75 -36.5t-40 -124.5l-174 -1094q-23 -147 -45.5 -218t-58.5 -120q-98 -129 -289 -129q-130 0 -230 49z" />
<glyph unicode="&#x2248;" d="M45 227q203 291 373 291q57 0 101 -16.5t171 -85.5q115 -61 164 -62q45 0 85 33t97 115l148 -99q-61 -98 -127 -170q-104 -121 -236 -120q-63 0 -125.5 23.5t-191.5 94.5q-78 45 -123 45q-41 0 -80 -32.5t-104 -118.5zM111 645q203 291 372 291q57 0 101.5 -16.5 t171.5 -85.5q115 -61 164 -62q45 0 84.5 33t99.5 115l145 -99q-59 -94 -127 -172q-104 -119 -233 -119q-63 0 -128 24t-192 95q-78 45 -120 45q-41 0 -81 -32.5t-104 -118.5z" />
<glyph unicode="&#x2260;" d="M78 197l37 241h325l131 172h-428l39 242h563l218 297l184 -137l-119 -160h189l-39 -242h-324l-131 -172h426l-37 -241h-563l-217 -297l-182 137l116 160h-188z" />
<glyph unicode="&#x2261;" d="M47 0l37 242h1034l-37 -242h-1034zM111 406l39 241h1034l-39 -241h-1034zM176 807l37 242h1034l-37 -242h-1034z" />
<glyph unicode="&#x2264;" d="M47 0l39 233h1034l-39 -233h-1034zM143 608l35 215l1079 285l-40 -258l-648 -148l600 -145l-36 -235z" />
<glyph unicode="&#x2265;" d="M47 0l39 233h1034l-39 -233h-1034zM98 322l39 253l647 146l-600 147l39 240l989 -285l-34 -215z" />
<glyph unicode="&#x22c5;" horiz-adv-x="647" d="M145 594q0 80 54.5 133t134.5 53q84 0 137 -54t53 -136t-53 -135.5t-135 -53.5q-84 0 -137.5 54.5t-53.5 138.5z" />
<glyph unicode="&#x25ca;" d="M41 709l635 737l635 -737l-635 -738zM367 709l309 -359l309 359l-309 358z" />
<glyph unicode="&#xe000;" horiz-adv-x="1050" d="M0 1050h1050v-1050h-1050v1050z" />
<glyph unicode="&#xea3f;" horiz-adv-x="1024" d="M373 918l266 579h299l-315 -579h-250z" />
<glyph unicode="&#xea4e;" horiz-adv-x="0" d="M98 1651l35 225h1331l-34 -225h-1332z" />
<glyph unicode="&#xea4f;" horiz-adv-x="1024" d="M305 1184l340 313h283l-285 -313h-338z" />
<glyph unicode="&#xea67;" horiz-adv-x="1024" d="M332 918l266 579h311l-315 -579h-262z" />
<glyph unicode="&#xf6be;" horiz-adv-x="688" d="M-217 -434l51 239q68 -20 117 -20q74 0 112.5 54.5t59.5 189.5l125 788l-137 6l34 226l451 10l-164 -1036q-29 -180 -53 -244q-47 -127 -136 -185.5t-235 -58.5q-110 0 -225 31z" />
<glyph unicode="&#xf6c3;" horiz-adv-x="1024" d="M84 -379l285 313h338l-340 -313h-283z" />
<glyph unicode="&#xf6c9;" horiz-adv-x="1024" d="M481 1554l289 299h377l-371 -299h-295z" />
<glyph unicode="&#xf6ca;" horiz-adv-x="1024" d="M311 1870h281l106 -172l160 172h295l-287 -299h-364z" />
<glyph unicode="&#xf6cb;" horiz-adv-x="1024" d="M297 1710q0 76 50 125t126 49t126 -49t50 -127t-50 -127t-126 -49q-78 0 -127 50t-49 128zM752 1710q0 76 50 125t126 49t126 -49t50 -127t-50 -127t-126 -49q-78 0 -127 50t-49 128z" />
<glyph unicode="&#xf6ce;" horiz-adv-x="1024" d="M336 1853h354l193 -299h-265z" />
<glyph unicode="&#xf6cf;" horiz-adv-x="1024" d="M281 1554l288 299h357l-371 -299h-274zM752 1554l286 299h357l-375 -299h-268z" />
<glyph unicode="&#xf6d0;" horiz-adv-x="1024" d="M307 1563l29 182h737l-29 -182h-737z" />
<glyph unicode="&#xf6f4;" horiz-adv-x="1024" d="M301 1466q0 41 10 88h172q-2 -12 -2 -30q0 -57 38 -80t134 -23q104 0 148.5 28t66.5 105h170q-14 -96 -28.5 -138t-46.5 -79q-104 -113 -314 -112q-180 0 -264 58t-84 183z" />
<glyph unicode="&#xf6f5;" horiz-adv-x="1024" d="M260 1554h281l106 -172l160 172h295l-287 -299h-364z" />
<glyph unicode="&#xf6f6;" horiz-adv-x="1024" d="M199 1239l286 299h363l192 -299h-280l-109 172l-159 -172h-293z" />
<glyph unicode="&#xf6f7;" horiz-adv-x="1024" d="M483 1391q0 72 48.5 118.5t119.5 46.5q74 0 121 -47t47 -120.5t-47 -120.5t-120.5 -47t-121 47t-47.5 123z" />
<glyph unicode="&#xf6f8;" horiz-adv-x="1024" d="M229 1239l289 299h356l-370 -299h-275zM700 1239l287 299h356l-374 -299h-269z" />
<glyph unicode="&#xf6f9;" horiz-adv-x="1075" d="M27 0l34 225l121 6l21 136l-127 -56l30 189l127 57l52 320l-125 6l37 225h559l-37 -225l-129 -6l-29 -175l279 123l-31 -188l-277 -123l-45 -287h250l33 152h240l-62 -379h-921z" />
<glyph unicode="&#xf6fa;" horiz-adv-x="1705" d="M96 461q0 188 64.5 331.5t183.5 221.5q82 51 186.5 72.5t280.5 21.5h862l-55 -354h-242l15 133h-236l-33 -213h295l-37 -225h-295l-34 -228h258l32 141h240l-57 -362h-842q-276 0 -408 80q-178 107 -178 381zM412 483q0 -141 62.5 -199.5t211.5 -58.5h59l105 658h-47 q-170 0 -250 -62q-141 -107 -141 -338z" />
<glyph unicode="&#xf6fb;" horiz-adv-x="1024" d="M90 -274q0 82 70.5 147.5t226.5 126.5h197q-141 -76 -192.5 -122t-51.5 -101q0 -88 119 -88q27 0 78 10l-13 -137q-102 -14 -168 -15q-266 1 -266 179z" />
<glyph unicode="&#xf6fc;" horiz-adv-x="1024" d="M416 1425q0 96 67.5 162t167.5 66q102 0 169 -65.5t67 -166t-66.5 -166t-169 -65.5t-169 65.5t-66.5 169.5zM561 1421q0 -98 90 -98t90 98.5t-90 98.5q-41 0 -65.5 -27t-24.5 -72z" />
<glyph unicode="&#xf6fd;" horiz-adv-x="1052" d="M14 41l52 321h239l-8 -131q94 -31 160 -30q76 0 120 28.5t44 77.5q0 37 -39 64q-27 16 -146 69q-170 76 -232.5 142.5t-62.5 173.5q0 170 124 273.5t329 103.5q213 0 414 -60l-52 -319h-239l6 127q-61 27 -121 26q-63 0 -102 -27.5t-39 -68.5q0 -45 67 -84 q47 -25 226 -109q96 -47 140 -108t44 -156q0 -184 -141 -291q-121 -88 -348 -88q-245 0 -435 66zM274 1554h281l107 -172l159 172h293l-285 -299h-364z" />
<glyph unicode="&#xf6fe;" horiz-adv-x="1024" d="M217 1227q27 129 94.5 205.5t155.5 76.5q63 0 201 -45q106 -39 149 -39q59 0 84 80h170q-55 -283 -252 -282q-74 0 -272 67q-49 16 -78 17q-53 0 -78 -80h-174z" />
<glyph unicode="&#xf6ff;" horiz-adv-x="1126" d="M2 0l37 227l663 660h-299l-32 -150h-240l59 371h930l-37 -227l-659 -660h315l35 158h240l-62 -379h-950zM311 1554h281l106 -172l160 172h295l-287 -299h-362z" />
<glyph unicode="&#xf730;" d="M94 446q0 256 133 447q170 240 496 240q229 0 356 -122t127 -341q0 -266 -133 -455q-172 -240 -493 -240q-231 0 -358.5 123t-127.5 348zM418 463q0 -238 180 -238q133 0 207 123q78 135 78 299q0 236 -181 236q-133 0 -206 -123q-78 -135 -78 -297z" />
<glyph unicode="&#xf731;" horiz-adv-x="995" d="M106 868l439 240h276l-139 -877l190 -6l-36 -225h-703l35 225l203 6l86 541l-230 -131z" />
<glyph unicode="&#xf732;" horiz-adv-x="1134" d="M-6 0l37 229q244 123 436 263q244 174 244 280q0 111 -174 111q-141 0 -336 -76l-45 240q219 86 446 86q211 0 322.5 -81t111.5 -235q0 -147 -112.5 -267t-395.5 -278l-41 -22h474l-39 -250h-928z" />
<glyph unicode="&#xf733;" horiz-adv-x="1134" d="M-55 -262l82 242q137 -66 305 -66q162 0 241 68q74 63 74 155q0 88 -72.5 129t-232.5 41q-72 0 -137 -4l37 234q29 -2 69 -2q229 0 328 57q90 53 90 145q0 147 -211 148q-135 0 -319 -66l-43 250q199 63 413 64q240 0 364 -88.5t124 -258.5q0 -156 -89 -249t-259 -117 q127 -23 188 -84q72 -76 72 -201q0 -190 -146 -325q-158 -145 -469 -146q-233 0 -409 74z" />
<glyph unicode="&#xf734;" d="M-20 12l38 246l725 850h385l-137 -870h187l-35 -226h-187l-51 -321h-311l51 321h-665zM315 238h375l88 559z" />
<glyph unicode="&#xf735;" horiz-adv-x="1142" d="M-76 -246l107 238q150 -78 329 -78q178 0 261 102q61 78 61 172q0 195 -281 195q-117 0 -305 -39l148 764h854l-39 -250h-553l-47 -246q74 6 114 6q432 0 433 -385q0 -248 -154 -405q-158 -164 -475 -164q-254 0 -453 90z" />
<glyph unicode="&#xf736;" d="M115 424q0 195 64.5 394.5t172.5 342.5q213 281 598 281q123 0 283 -31l-72 -256q-119 37 -217 37q-334 0 -434 -369q133 119 305 119q176 0 276.5 -104.5t100.5 -288.5q0 -260 -164 -417t-434 -157q-233 0 -356 115t-123 334zM420 408q0 -90 50 -140.5t140 -50.5 q113 0 188.5 90t75.5 225q0 76 -48 122t-130 46q-119 0 -197.5 -83.5t-78.5 -208.5z" />
<glyph unicode="&#xf737;" horiz-adv-x="1105" d="M-37 -309l797 1167h-418l-45 -176h-236l68 426h1020l-37 -236l-797 -1181h-352z" />
<glyph unicode="&#xf738;" d="M76 360q0 139 75.5 232.5t239.5 150.5q-174 113 -174 293q0 184 145.5 295t389.5 111q225 0 357 -97.5t132 -265.5q0 -119 -63.5 -196.5t-210.5 -139.5q113 -57 161 -129.5t48 -185.5q0 -211 -160 -338q-145 -115 -420 -115q-250 0 -385 100.5t-135 284.5zM393 379 q0 -76 56.5 -120t156.5 -44q113 0 182.5 58.5t69.5 148.5q0 143 -207 203q-258 -66 -258 -246zM535 1034q0 -133 163 -182q225 57 226 209q0 66 -48.5 103.5t-136.5 37.5q-92 0 -148 -46t-56 -122z" />
<glyph unicode="&#xf739;" d="M70 -303l69 256q123 -37 217 -37q334 0 437 369q-143 -119 -308 -119q-176 0 -276 104.5t-100 286.5q0 133 50 249t138 191q160 135 412 136q233 0 356 -116t123 -335q0 -193 -64.5 -392.5t-173.5 -342.5q-213 -281 -600 -281q-120 0 -280 31zM428 575q0 -76 48 -121.5 t130 -45.5q119 0 198 83.5t79 210.5q0 88 -50.5 138.5t-138.5 50.5q-115 0 -190.5 -90.5t-75.5 -225.5z" />
<glyph unicode="&#xf760;" horiz-adv-x="1024" d="M285 1538h354l192 -299h-264z" />
<glyph unicode="&#xf761;" horiz-adv-x="1271" d="M-53 0l35 219l86 4l475 885h346l215 -885l86 -4l-33 -219h-491l30 188h111l-25 142h-358l-68 -142h111l-29 -188h-491zM514 518h234l-17 90q-33 170 -45 289q-45 -113 -106 -242z" />
<glyph unicode="&#xf762;" horiz-adv-x="1185" d="M8 0l35 225l121 6l102 646l-125 6l37 225h457q150 0 224.5 -11.5t131.5 -43.5q121 -70 121 -226q0 -203 -199 -262q147 -45 148 -207q0 -199 -125 -288q-92 -70 -305 -70h-623zM442 205h115q111 0 150 26q55 39 55 119q0 59 -35 85t-111 26h-133zM514 655h115 q98 0 143 34t45 108q0 57 -38 81.5t-128 24.5h-98z" />
<glyph unicode="&#xf763;" horiz-adv-x="1177" d="M94 487q0 301 189 486q166 160 442 160q197 0 383 -74l-55 -344h-246l14 176q-39 16 -96 16q-135 0 -222 -110.5t-87 -282.5q0 -143 72.5 -228t197.5 -85q115 0 248 86l90 -236q-154 -76 -365 -76q-272 0 -418.5 132t-146.5 380z" />
<glyph unicode="&#xf764;" horiz-adv-x="1306" d="M8 0l35 225l121 6l102 646l-125 6l37 225h453q281 0 413 -80q178 -106 179 -387q0 -186 -65.5 -328.5t-186.5 -218.5q-82 -51 -186.5 -72.5t-282.5 -21.5h-494zM463 225h49q180 0 270 82q53 51 87 136t34 173q0 145 -62.5 206t-213.5 61h-60z" />
<glyph unicode="&#xf765;" horiz-adv-x="1124" d="M8 0l35 225l121 6l102 646l-125 6l37 225h914l-58 -354h-239l12 133h-234l-34 -213h295l-35 -225h-295l-37 -228h258l33 141h241l-59 -362h-932z" />
<glyph unicode="&#xf766;" horiz-adv-x="1093" d="M8 0l35 225l121 6l102 646l-125 6l37 225h914l-58 -354h-239l12 133h-234l-36 -228h319l-35 -225h-319l-33 -203l133 -6l-35 -225h-559z" />
<glyph unicode="&#xf767;" horiz-adv-x="1310" d="M88 451q0 317 193 505q178 176 485 177q221 0 455 -84l-52 -322h-245l14 150q-80 31 -164 30q-158 0 -261 -117.5t-103 -297.5q0 -131 69.5 -211t182.5 -80q78 0 139 24l26 166l-125 4l31 199h510l-31 -199l-96 -4l-53 -342q-209 -74 -414 -74q-276 0 -418.5 120 t-142.5 356z" />
<glyph unicode="&#xf768;" horiz-adv-x="1388" d="M6 0l35 225l121 6l104 646l-125 6l37 225h533l-35 -225l-105 -6l-32 -195h356l33 195l-107 6l35 225h535l-37 -225l-121 -6l-105 -646l125 -6l-34 -225h-537l35 225l106 6l35 218h-356l-35 -218l111 -6l-35 -225h-537z" />
<glyph unicode="&#xf769;" horiz-adv-x="727" d="M4 0l35 225l125 6l102 646l-123 6l35 225h553l-35 -225l-125 -6l-102 -646l123 -6l-35 -225h-553z" />
<glyph unicode="&#xf76a;" horiz-adv-x="823" d="M-88 12l57 258q102 -57 166 -57q72 0 106.5 50t57.5 179l68 435l-131 6l34 225h564l-35 -225l-127 -6l-66 -422q-35 -207 -53 -258q-41 -117 -129 -169.5t-240 -52.5q-147 0 -272 37z" />
<glyph unicode="&#xf76b;" horiz-adv-x="1241" d="M6 0l35 225l123 6l102 646l-123 6l35 225h430l-35 -225l-2 -6l-41 -254l269 286h-90l32 199h508l-37 -225h-98l-287 -293l203 -361l103 -4l-35 -225h-506l31 199h100l-201 372l-53 -340v-6l-37 -225h-426z" />
<glyph unicode="&#xf76c;" horiz-adv-x="1056" d="M8 0l35 225l121 6l102 646l-125 6l37 225h559l-37 -225l-129 -6l-102 -650h250l33 152h239l-61 -379h-922z" />
<glyph unicode="&#xf76d;" horiz-adv-x="1787" d="M8 0l35 225l121 6l102 646l-125 6l37 225h567l78 -627q20 -164 23 -200l80 188l282 639h580l-37 -225l-119 -6l-102 -646l123 -6l-35 -225h-496l31 199h96l66 405q0 10 28 172l19 101l10 61q-61 -156 -80 -197l-18 -43l-80 -174l-242 -524h-297l-73 506l-25 168 q-2 14 -33 264l-10 -84q-6 -70 -22 -176l-78 -479h106l-31 -199h-481z" />
<glyph unicode="&#xf76e;" horiz-adv-x="1435" d="M8 0l35 225l121 6l102 646l-125 6l37 225h459l221 -522q55 -133 84 -230q10 90 25 183l53 335l-123 9l37 225h516l-37 -225l-123 -6l-139 -877h-336l-201 487q-70 162 -102 271q-14 -119 -25 -195l-53 -332l121 -6l-35 -225h-512z" />
<glyph unicode="&#xf76f;" horiz-adv-x="1308" d="M90 457q0 283 164 479q166 197 467 197q246 0 377 -124t131 -358q0 -291 -172 -485q-88 -100 -197.5 -145.5t-265.5 -45.5q-260 0 -389 142q-115 131 -115 340zM410 469q0 -129 53 -198.5t151 -69.5q123 0 209 130t86 316q0 123 -53 191.5t-147 68.5q-135 0 -217 -141 q-82 -131 -82 -297z" />
<glyph unicode="&#xf770;" horiz-adv-x="1150" d="M2 0l35 225l127 6l102 643l-125 9l37 225h469q248 0 340 -57q127 -80 127 -263q0 -104 -41 -192t-110 -135q-106 -70 -330 -70h-152l-26 -160l151 -6l-35 -225h-569zM508 606h88q100 0 141 21q76 39 76 139q0 72 -41 99.5t-151 27.5h-68z" />
<glyph unicode="&#xf771;" horiz-adv-x="1310" d="M90 453q0 287 164 483q166 197 467 197q244 0 376 -124t132 -356q0 -209 -92.5 -375.5t-253.5 -246.5q78 -68 186 -119l-156 -219q-242 113 -397 287q-203 16 -314.5 140t-111.5 333zM410 469q0 -129 53 -198.5t151 -69.5q123 0 209 130t86 316q0 123 -53 191.5 t-147 68.5q-135 0 -217 -141q-82 -131 -82 -297z" />
<glyph unicode="&#xf772;" horiz-adv-x="1187" d="M2 0l35 225l127 6l102 646l-125 6l37 225h500q229 0 328 -53q129 -74 129 -238q0 -231 -232 -295q51 -35 76 -141l16 -64l25 -94l100 -2l-35 -221h-313l-43 176q-37 152 -64.5 187.5t-107.5 35.5h-76l-26 -168l123 -6l-35 -225h-541zM510 614h104q100 0 144 21 q78 37 78 149q0 61 -42 85t-153 24h-88z" />
<glyph unicode="&#xf773;" horiz-adv-x="1052" d="M14 41l52 321h239l-8 -131q94 -31 160 -30q76 0 120 28.5t44 77.5q0 37 -39 64q-27 16 -146 69q-170 76 -232.5 142.5t-62.5 173.5q0 170 124 273.5t329 103.5q213 0 414 -60l-52 -319h-239l6 127q-61 27 -121 26q-63 0 -102 -27.5t-39 -68.5q0 -45 67 -84 q47 -25 226 -109q96 -47 140 -108t44 -156q0 -184 -141 -291q-121 -88 -348 -88q-245 0 -435 66z" />
<glyph unicode="&#xf774;" horiz-adv-x="1103" d="M49 737l60 371h1069l-58 -371h-235l14 146h-139l-103 -652l154 -6l-35 -225h-606l35 225l147 6l103 652h-140l-32 -146h-234z" />
<glyph unicode="&#xf775;" horiz-adv-x="1374" d="M137 883l35 225h526l-34 -225l-105 -6l-65 -414q-14 -102 -15 -125q0 -137 160 -137q123 0 176 82q33 53 51 180l66 414l-107 6l35 225h522l-34 -225l-121 -6l-70 -447q-27 -162 -50.5 -227.5t-74.5 -112.5q-123 -115 -411 -115q-449 0 -449 301q0 86 33 275l51 326z" />
<glyph unicode="&#xf776;" horiz-adv-x="1103" d="M27 883l34 225h492l-35 -225l-108 -6l61 -312q27 -145 41 -243l115 233l166 324l-117 4l35 225h512l-35 -225l-84 -6l-477 -877h-314l-202 877z" />
<glyph unicode="&#xf777;" horiz-adv-x="1730" d="M72 883l34 225h484l-35 -225l-106 -4l14 -205q8 -154 8 -277q0 -37 -2 -67q115 317 168 438l149 340h332l39 -434q16 -186 19 -344q51 145 135 344l84 205l-113 4l35 225h487l-35 -225l-96 -6l-393 -877h-317l-43 526q-10 119 -19 287q-51 -154 -108 -287l-228 -526h-319 l-84 877z" />
<glyph unicode="&#xf778;" horiz-adv-x="1312" d="M-4 0l33 205h69l369 383l-258 315h-88l33 205h524l-33 -205h-102l168 -223l211 223h-107l31 205h497l-30 -205h-84l-367 -379l240 -319h74l-33 -205h-502l33 205h106l-174 223l-215 -223h98l-32 -205h-461z" />
<glyph unicode="&#xf779;" horiz-adv-x="1079" d="M33 883l35 225h479l-31 -199h-96l98 -194q20 -45 27 -66q23 35 47 62l162 198h-103l31 199h504l-35 -225l-90 -6l-389 -455l-29 -191l135 -6l-35 -225h-577l35 225l137 6l29 191l-242 455z" />
<glyph unicode="&#xf77a;" horiz-adv-x="1126" d="M2 0l37 227l663 660h-299l-32 -150h-240l59 371h930l-37 -227l-659 -660h315l35 158h240l-62 -379h-950z" />
<glyph unicode="&#xf7a8;" horiz-adv-x="1024" d="M256 1391q0 72 48 118.5t120 46.5q74 0 121 -47t47 -120.5t-47 -120.5t-121 -47t-121 47t-47 123zM711 1391q0 72 48 118.5t120 46.5q74 0 121 -47t47 -120.5t-47.5 -120.5t-121 -47t-120.5 47t-47 123z" />
<glyph unicode="&#xf7af;" horiz-adv-x="1021" d="M254 1227l29 182h737l-29 -182h-737z" />
<glyph unicode="&#xf7b4;" horiz-adv-x="1024" d="M430 1239l289 299h377l-371 -299h-295z" />
<glyph unicode="&#xf7b8;" horiz-adv-x="1024" d="M84 -379l285 313h338l-340 -313h-283z" />
<glyph unicode="&#xf7e0;" horiz-adv-x="1271" d="M-53 0l35 219l86 4l475 885h346l215 -885l86 -4l-33 -219h-491l30 188h111l-25 142h-358l-68 -142h111l-29 -188h-491zM360 1538h353l194 -299h-266zM514 518h234l-17 90q-33 170 -45 289q-45 -113 -106 -242z" />
<glyph unicode="&#xf7e1;" horiz-adv-x="1271" d="M-53 0l35 219l86 4l475 885h346l215 -885l86 -4l-33 -219h-491l30 188h111l-25 142h-358l-68 -142h111l-29 -188h-491zM514 518h234l-17 90q-33 170 -45 289q-45 -113 -106 -242zM553 1239l289 299h377l-369 -299h-297z" />
<glyph unicode="&#xf7e2;" horiz-adv-x="1271" d="M-53 0l35 219l86 4l475 885h346l215 -885l86 -4l-33 -219h-491l30 188h111l-25 142h-358l-68 -142h111l-29 -188h-491zM301 1239l287 299h364l191 -299h-281l-106 172l-160 -172h-295zM514 518h234l-17 90q-33 170 -45 289q-45 -113 -106 -242z" />
<glyph unicode="&#xf7e3;" horiz-adv-x="1271" d="M-53 0l35 219l86 4l475 885h346l215 -885l86 -4l-33 -219h-491l30 188h111l-25 142h-358l-68 -142h111l-29 -188h-491zM328 1227q27 129 94 205.5t156 76.5q63 0 200 -45q106 -39 150 -39q33 0 51 17.5t31 62.5h172q-55 -283 -252 -282q-74 0 -273 67q-49 16 -77 17 q-53 0 -78 -80h-174zM514 518h234l-17 90q-33 170 -45 289q-45 -113 -106 -242z" />
<glyph unicode="&#xf7e4;" horiz-adv-x="1271" d="M-53 0l35 219l86 4l475 885h346l215 -885l86 -4l-33 -219h-491l30 188h111l-25 142h-358l-68 -142h111l-29 -188h-491zM362 1391q0 72 48.5 118.5t119.5 46.5q74 0 121 -47t47 -120.5t-47 -120.5t-120.5 -47t-121 47t-47.5 123zM514 518h234l-17 90q-33 170 -45 289 q-45 -113 -106 -242zM817 1391q0 72 48 118.5t120 46.5q74 0 121 -47t47 -120.5t-47 -120.5t-121 -47t-121 47t-47 123z" />
<glyph unicode="&#xf7e5;" horiz-adv-x="1271" d="M-53 0l35 219l86 4l475 885h346l215 -885l86 -4l-33 -219h-491l30 188h111l-25 142h-358l-68 -142h111l-29 -188h-491zM504 1425q0 96 67.5 162t167.5 66q102 0 169 -65.5t67 -166t-66.5 -166t-169 -65.5t-169 65.5t-66.5 169.5zM514 518h234l-17 90q-33 170 -45 289 q-45 -113 -106 -242zM649 1421q0 -98 90 -98t90 98.5t-90 98.5q-41 0 -65.5 -27t-24.5 -72z" />
<glyph unicode="&#xf7e6;" horiz-adv-x="1597" d="M-190 0l34 225l107 6l594 877h1020l-58 -354h-239l12 133h-233l-35 -213h295l-35 -225h-295l-37 -228h258l33 141h242l-60 -362h-813l49 313h-301l-80 -125h103l-31 -188h-530zM471 506h209l63 397h-22z" />
<glyph unicode="&#xf7e7;" horiz-adv-x="1177" d="M94 487q0 301 189 486q166 160 442 160q197 0 383 -74l-55 -344h-246l14 176q-39 16 -96 16q-135 0 -222 -110.5t-87 -282.5q0 -143 72.5 -228t197.5 -85q115 0 248 86l90 -236q-154 -76 -365 -76q-272 0 -418.5 132t-146.5 380zM162 -379l284 313h338l-342 -313h-280z " />
<glyph unicode="&#xf7e8;" horiz-adv-x="1124" d="M8 0l35 225l121 6l102 646l-125 6l37 225h914l-58 -354h-239l12 133h-234l-34 -213h295l-35 -225h-295l-37 -228h258l33 141h241l-59 -362h-932zM334 1538h354l193 -299h-265z" />
<glyph unicode="&#xf7e9;" horiz-adv-x="1124" d="M8 0l35 225l121 6l102 646l-125 6l37 225h914l-58 -354h-239l12 133h-234l-34 -213h295l-35 -225h-295l-37 -228h258l33 141h241l-59 -362h-932zM479 1239l289 299h377l-369 -299h-297z" />
<glyph unicode="&#xf7ea;" horiz-adv-x="1124" d="M8 0l35 225l121 6l102 646l-125 6l37 225h914l-58 -354h-239l12 133h-234l-34 -213h295l-35 -225h-295l-37 -228h258l33 141h241l-59 -362h-932zM227 1239l287 299h363l192 -299h-281l-106 172l-160 -172h-295z" />
<glyph unicode="&#xf7eb;" horiz-adv-x="1124" d="M8 0l35 225l121 6l102 646l-125 6l37 225h914l-58 -354h-239l12 133h-234l-34 -213h295l-35 -225h-295l-37 -228h258l33 141h241l-59 -362h-932zM276 1391q0 72 48.5 118.5t119.5 46.5q74 0 121 -47t47 -120.5t-47 -120.5t-120.5 -47t-121 47t-47.5 123zM731 1391 q0 72 48 118.5t120 46.5q74 0 121 -47t47 -120.5t-47 -120.5t-121 -47t-121 47t-47 123z" />
<glyph unicode="&#xf7ec;" horiz-adv-x="727" d="M4 0l35 225l125 6l102 646l-123 6l35 225h553l-35 -225l-125 -6l-102 -646l123 -6l-35 -225h-553zM94 1538h355l194 -299h-266z" />
<glyph unicode="&#xf7ed;" horiz-adv-x="727" d="M4 0l35 225l125 6l102 646l-123 6l35 225h553l-35 -225l-125 -6l-102 -646l123 -6l-35 -225h-553zM303 1239l289 299h375l-369 -299h-295z" />
<glyph unicode="&#xf7ee;" horiz-adv-x="727" d="M4 0l35 225l125 6l102 646l-123 6l35 225h553l-35 -225l-125 -6l-102 -646l123 -6l-35 -225h-553zM37 1239l287 299h362l193 -299h-281l-109 172l-159 -172h-293z" />
<glyph unicode="&#xf7ef;" horiz-adv-x="727" d="M4 0l35 225l125 6l102 646l-123 6l35 225h553l-35 -225l-125 -6l-102 -646l123 -6l-35 -225h-553zM86 1391q0 72 48 118.5t120 46.5q74 0 121 -47t47 -120.5t-47 -120.5t-121 -47t-121 47t-47 123zM541 1391q0 72 48 118.5t120 46.5q74 0 121 -47t47 -120.5t-47.5 -120.5 t-121 -47t-120.5 47t-47 123z" />
<glyph unicode="&#xf7f0;" horiz-adv-x="1325" d="M27 0l34 225l121 6l37 238h-176l29 180h176l37 228l-125 6l37 225h452q281 0 414 -80q178 -109 178 -387q0 -186 -65.5 -328.5t-186.5 -218.5q-82 -51 -186.5 -72.5t-282.5 -21.5h-493zM481 225h49q180 0 271 82q55 51 88 135t33 174q0 145 -62.5 206t-214.5 61h-59 l-37 -234h215l-29 -180h-215z" />
<glyph unicode="&#xf7f1;" horiz-adv-x="1435" d="M8 0l35 225l121 6l102 646l-125 6l37 225h459l221 -522q55 -133 84 -230q10 90 25 183l53 335l-123 9l37 225h516l-37 -225l-123 -6l-139 -877h-336l-201 487q-70 162 -102 271q-14 -119 -25 -195l-53 -332l121 -6l-35 -225h-512zM444 1227q27 129 94.5 205.5t155.5 76.5 q63 0 201 -45q109 -39 149 -39q33 0 51.5 17.5t32.5 62.5h170q-55 -283 -251 -282q-72 0 -273 67q-49 16 -78 17q-53 0 -78 -80h-174z" />
<glyph unicode="&#xf7f2;" horiz-adv-x="1308" d="M90 457q0 283 164 479q166 197 467 197q246 0 377 -124t131 -358q0 -291 -172 -485q-88 -100 -197.5 -145.5t-265.5 -45.5q-260 0 -389 142q-115 131 -115 340zM410 469q0 -129 53 -198.5t151 -69.5q123 0 209 130t86 316q0 123 -53 191.5t-147 68.5q-135 0 -217 -141 q-82 -131 -82 -297zM414 1538h354l193 -299h-265z" />
<glyph unicode="&#xf7f3;" horiz-adv-x="1308" d="M90 457q0 283 164 479q166 197 467 197q246 0 377 -124t131 -358q0 -291 -172 -485q-88 -100 -197.5 -145.5t-265.5 -45.5q-260 0 -389 142q-115 131 -115 340zM410 469q0 -129 53 -198.5t151 -69.5q123 0 209 130t86 316q0 123 -53 191.5t-147 68.5q-135 0 -217 -141 q-82 -131 -82 -297zM600 1239l289 299h377l-369 -299h-297z" />
<glyph unicode="&#xf7f4;" horiz-adv-x="1308" d="M90 457q0 283 164 479q166 197 467 197q246 0 377 -124t131 -358q0 -291 -172 -485q-88 -100 -197.5 -145.5t-265.5 -45.5q-260 0 -389 142q-115 131 -115 340zM330 1239l284 299h365l192 -299h-280l-109 172l-159 -172h-293zM410 469q0 -129 53 -198.5t151 -69.5 q123 0 209 130t86 316q0 123 -53 191.5t-147 68.5q-135 0 -217 -141q-82 -131 -82 -297z" />
<glyph unicode="&#xf7f5;" horiz-adv-x="1308" d="M90 457q0 283 164 479q166 197 467 197q246 0 377 -124t131 -358q0 -291 -172 -485q-88 -100 -197.5 -145.5t-265.5 -45.5q-260 0 -389 142q-115 131 -115 340zM348 1227q27 129 94.5 205.5t155.5 76.5q63 0 201 -45q109 -39 149 -39q33 0 51.5 17.5t32.5 62.5h170 q-55 -283 -252 -282q-74 0 -272 67q-49 16 -78 17q-53 0 -78 -80h-174zM410 469q0 -129 53 -198.5t151 -69.5q123 0 209 130t86 316q0 123 -53 191.5t-147 68.5q-135 0 -217 -141q-82 -131 -82 -297z" />
<glyph unicode="&#xf7f6;" horiz-adv-x="1308" d="M90 457q0 283 164 479q166 197 467 197q246 0 377 -124t131 -358q0 -291 -172 -485q-88 -100 -197.5 -145.5t-265.5 -45.5q-260 0 -389 142q-115 131 -115 340zM377 1391q0 72 48 118.5t120 46.5q74 0 121 -47t47 -120.5t-47.5 -120.5t-121 -47t-120.5 47t-47 123z M410 469q0 -129 53 -198.5t151 -69.5q123 0 209 130t86 316q0 123 -53 191.5t-147 68.5q-135 0 -217 -141q-82 -131 -82 -297zM831 1391q0 72 48.5 118.5t119.5 46.5q74 0 121 -47t47 -120.5t-47 -120.5t-120.5 -47t-121 47t-47.5 123z" />
<glyph unicode="&#xf7f8;" horiz-adv-x="1300" d="M20 74l127 114q-57 109 -57 254q0 297 162 492q168 199 461 199q121 0 201.5 -24t160.5 -83l150 135l127 -127l-170 -151q39 -96 39 -224q0 -293 -172 -491q-166 -193 -455 -193q-213 0 -326 80l-121 -110zM406 424l450 405q-51 78 -158 78q-135 0 -215 -139 q-78 -131 -77 -291v-37v-16zM481 248q59 -47 131 -47q76 0 141.5 55t106.5 152q31 80 45 223z" />
<glyph unicode="&#xf7f9;" horiz-adv-x="1374" d="M137 883l35 225h526l-34 -225l-105 -6l-65 -414q-14 -102 -15 -125q0 -137 160 -137q123 0 176 82q33 53 51 180l66 414l-107 6l35 225h522l-34 -225l-121 -6l-70 -447q-27 -162 -50.5 -227.5t-74.5 -112.5q-123 -115 -411 -115q-449 0 -449 301q0 86 33 275l51 326z M459 1538h354l193 -299h-265z" />
<glyph unicode="&#xf7fa;" horiz-adv-x="1374" d="M137 883l35 225h526l-34 -225l-105 -6l-65 -414q-14 -102 -15 -125q0 -137 160 -137q123 0 176 82q33 53 51 180l66 414l-107 6l35 225h522l-34 -225l-121 -6l-70 -447q-27 -162 -50.5 -227.5t-74.5 -112.5q-123 -115 -411 -115q-449 0 -449 301q0 86 33 275l51 326z M604 1239l289 299h377l-369 -299h-297z" />
<glyph unicode="&#xf7fb;" horiz-adv-x="1374" d="M137 883l35 225h526l-34 -225l-105 -6l-65 -414q-14 -102 -15 -125q0 -137 160 -137q123 0 176 82q33 53 51 180l66 414l-107 6l35 225h522l-34 -225l-121 -6l-70 -447q-27 -162 -50.5 -227.5t-74.5 -112.5q-123 -115 -411 -115q-449 0 -449 301q0 86 33 275l51 326z M365 1239l286 299h363l192 -299h-280l-107 172l-160 -172h-294z" />
<glyph unicode="&#xf7fc;" horiz-adv-x="1374" d="M137 883l35 225h526l-34 -225l-105 -6l-65 -414q-14 -102 -15 -125q0 -137 160 -137q123 0 176 82q33 53 51 180l66 414l-107 6l35 225h522l-34 -225l-121 -6l-70 -447q-27 -162 -50.5 -227.5t-74.5 -112.5q-123 -115 -411 -115q-449 0 -449 301q0 86 33 275l51 326z M414 1391q0 72 48 118.5t120 46.5q74 0 121 -47t47 -120.5t-47.5 -120.5t-121 -47t-120.5 47t-47 123zM868 1391q0 72 48.5 118.5t119.5 46.5q74 0 121 -47t47 -120.5t-47 -120.5t-120.5 -47t-121 47t-47.5 123z" />
<glyph unicode="&#xf7fd;" horiz-adv-x="1079" d="M33 883l35 225h479l-31 -199h-96l98 -194q20 -45 27 -66q23 35 47 62l162 198h-103l31 199h504l-35 -225l-90 -6l-389 -455l-29 -191l135 -6l-35 -225h-577l35 225l137 6l29 191l-242 455zM485 1239l289 299h375l-369 -299h-295z" />
<glyph unicode="&#xf7fe;" horiz-adv-x="1155" d="M2 0l35 225l123 6l102 646l-121 6l37 225h518l-22 -145l-94 -7l-9 -57h74q254 0 344 -53q131 -76 131 -246q0 -100 -44 -182t-122 -129q-104 -63 -327 -64h-164l-10 -73l90 -7l-23 -145h-518zM494 408h104q102 0 147 30q70 47 70 156q0 70 -37 96.5t-131 26.5h-104z" />
<glyph unicode="&#xf7ff;" horiz-adv-x="1079" d="M33 883l35 225h479l-31 -199h-96l98 -194q20 -45 27 -66q23 35 47 62l162 198h-103l31 199h504l-35 -225l-90 -6l-389 -455l-29 -191l135 -6l-35 -225h-577l35 225l137 6l29 191l-242 455zM254 1391q0 72 48 118.5t120 46.5q74 0 121 -47t47 -120.5t-47 -120.5t-121 -47 t-121 47t-47 123zM709 1391q0 72 48 118.5t120 46.5q74 0 120.5 -47t46.5 -120.5t-47 -120.5t-120.5 -47t-120.5 47t-47 123z" />
<glyph horiz-adv-x="1531" d="M127 580q0 391 233 634q219 227 594 228q276 0 512 -96l-61 -390h-244l19 199q-115 37 -226 37q-244 0 -368 -168q-129 -176 -129 -410q0 -182 91 -285.5t253 -103.5q96 0 184 33l41 266l-139 6l33 209h567l-33 -209l-119 -6l-71 -465q-260 -84 -480 -84q-346 0 -508 175 q-149 158 -149 430zM756 1554l288 299h377l-370 -299h-295z" />
<glyph horiz-adv-x="1038" d="M106 1147l494 270h274l-186 -1186l191 -6l-37 -225h-678l35 225l178 6l133 850l-283 -161z" />
<glyph horiz-adv-x="1175" d="M-66 0l39 240q350 260 566 446q143 125 200.5 204t57.5 154q0 66 -58.5 107t-148.5 41q-156 0 -391 -100l-56 254q256 96 502 96q227 0 349 -93.5t122 -265.5q0 -127 -60.5 -239.5t-193.5 -235.5q-154 -141 -444 -358h579l-39 -250h-1024z" />
<glyph horiz-adv-x="1198" d="M-18 43l73 260q162 -80 357 -80q168 0 241 72q70 66 70 158q0 166 -295 165q-51 0 -170 -6l37 234q41 -2 94 -2q199 0 297 39q57 23 91 67.5t34 98.5q0 143 -219 143q-152 0 -363 -82l-51 252q225 80 457 80q242 0 368.5 -87t126.5 -255q0 -156 -89 -251t-257 -120 q131 -20 194.5 -90t63.5 -193q0 -102 -44 -195t-119 -157q-145 -121 -441 -121q-268 0 -456 70z" />
<glyph horiz-adv-x="1280" d="M14 377l37 227l703 813h411l-129 -811h187l-35 -229h-187l-26 -158l139 -6l-35 -213h-614l33 213l168 6l24 158h-676zM367 606h368l84 531z" />
<glyph horiz-adv-x="1241" d="M20 49l82 264q174 -88 351 -88q186 0 272 105q68 78 68 174q0 184 -310 184q-147 0 -311 -37l147 766h887l-39 -250h-585l-47 -245q74 6 106 6q471 0 471 -389q0 -258 -158 -412q-154 -152 -465 -152q-268 0 -469 74z" />
<glyph horiz-adv-x="1241" d="M88 424q0 193 64.5 394.5t173.5 342.5q217 281 600 281q121 0 280 -31l-71 -256q-119 37 -217 37q-164 0 -276 -95.5t-159 -273.5q133 119 305 119q176 0 276.5 -104.5t100.5 -288.5q0 -260 -163.5 -417t-434.5 -157q-233 0 -356 115t-123 334zM393 408 q0 -90 49.5 -140.5t139.5 -50.5q115 0 189.5 89t74.5 224q0 78 -47 124t-129 46q-119 0 -198 -82.5t-79 -209.5z" />
<glyph horiz-adv-x="1017" d="M-10 0l739 1167h-344l-45 -176h-236l68 426h946l-37 -235l-739 -1182h-352z" />
<glyph horiz-adv-x="1280" d="M70 360q0 139 75.5 232.5t239.5 150.5q-174 113 -174 293q0 184 145.5 295t388.5 111q225 0 357.5 -97.5t132.5 -265.5q0 -119 -63.5 -196.5t-210.5 -139.5q113 -57 160.5 -129.5t47.5 -185.5q0 -211 -159 -338q-150 -115 -420 -115q-250 0 -385 100.5t-135 284.5z M387 379q0 -76 56.5 -120t156.5 -44q111 0 181.5 58.5t70.5 148.5q0 145 -209 203q-256 -66 -256 -246zM528 1034q0 -129 162 -182q227 53 228 209q0 68 -48.5 104.5t-136.5 36.5q-92 0 -148.5 -46t-56.5 -122z" />
<glyph horiz-adv-x="1241" d="M92 6l70 256q119 -37 217 -37q164 0 277.5 96.5t158.5 272.5q-135 -119 -305 -119q-176 0 -276.5 104.5t-100.5 288.5q0 260 164 417t434 157q233 0 356 -115t123 -334q0 -193 -64.5 -394.5t-172.5 -342.5q-217 -281 -600 -281q-121 0 -281 31zM453 887q0 -80 47 -125 t129 -45q119 0 197.5 84t78.5 209q0 90 -50 140t-140 50q-113 0 -187.5 -89t-74.5 -224z" />
<glyph d="M109 500q0 164 37.5 337t101.5 293q158 311 514 312q231 0 357 -128t126 -364q0 -176 -38 -357t-101 -306q-158 -311 -516 -312q-481 1 -481 525zM428 500q0 -141 43 -208t135 -67q147 0 225 193q41 102 68 250.5t27 269.5q0 254 -176 254q-162 0 -240 -219 q-82 -235 -82 -473z" />
<glyph horiz-adv-x="1230" d="M-53 0l39 250h174q45 72 76 282l14 89h-184l34 221h185l12 71q27 174 56.5 251t88.5 139q133 135 404 135q203 0 428 -70l-60 -377h-235l10 176q-70 20 -131 21q-111 0 -167 -65.5t-83 -227.5l-10 -53h264l-33 -221h-264l-14 -89q-33 -195 -72 -282h379l41 186h236 l-70 -436h-1118z" />
<glyph horiz-adv-x="1355" d="M63 66l62 387h235l-14 -197q94 -45 201 -41l61 377q-184 66 -243 104q-156 90 -156 277q0 119 54 218t151 161q129 82 344 88l28 176h144l-29 -176q195 -10 395 -84l-57 -365h-235l8 178q-70 23 -148 33l-57 -352q207 -61 280 -107q139 -90 140 -272q0 -133 -59.5 -241.5 t-166.5 -166.5q-72 -41 -138 -56t-210 -27l-28 -183h-144l29 178q-257 3 -447 91zM539 1016q0 -51 28.5 -80t102.5 -49l49 311q-84 -10 -132 -58t-48 -124zM692 219q98 10 151.5 62.5t53.5 140.5q0 51 -31.5 78.5t-120.5 52.5z" />
<glyph horiz-adv-x="1101" d="M57 805q0 162 68 298t188 214q141 94 361 100l31 189h147l-33 -199q193 -27 340 -86l-55 -346h-217l16 178q-59 27 -119 33l-96 -611q152 10 293 76l53 -231q-164 -72 -383 -80l-30 -186h-146l29 190q-141 16 -246 80q-201 117 -201 381zM377 815q0 -176 166 -225l94 592 q-117 -27 -188.5 -128.5t-71.5 -238.5z" />
<glyph horiz-adv-x="1069" d="M-199 -186l62 395h211l-23 -195q29 -14 60 -14q90 0 131 102q18 47 43 193l51 319h-199l33 209h201l16 113q27 158 51.5 230.5t71.5 127.5q115 143 344 144q150 0 328 -60l-64 -393h-200l22 193q-47 16 -80 16q-68 0 -105.5 -67.5t-64.5 -231.5l-12 -72h264l-33 -209 h-264l-61 -383q-35 -240 -115 -340q-59 -74 -140 -105.5t-208 -31.5q-175 1 -320 60z" />
<glyph horiz-adv-x="1300" d="M16 481l76 150h133q6 76 17 121h-183l76 149h148q94 266 272 403.5t430 137.5q246 0 422 -101l-115 -225q-143 84 -291 84q-289 0 -399 -299h582l-74 -149h-545q-10 -61 -12 -121h496l-76 -150h-416q31 -260 315 -260q145 0 312 80l45 -252q-176 -74 -406 -74 q-279 0 -431 129t-169 377h-207z" />
<glyph horiz-adv-x="1261" d="M88 367l25 151h358l6 37l-43 92h-305l23 152h213l-177 387l-90 6l35 225h545l-35 -225l-108 -4l139 -371l254 369l-115 6l37 225h559l-37 -225l-92 -6l-297 -387h227l-24 -152h-320l-69 -92l-6 -37h372l-24 -151h-373l-21 -136l175 -6l-37 -225h-662l35 225l170 6l20 136 h-358z" />
<glyph horiz-adv-x="1859" d="M219 1266l295 151h188l-96 -610l94 -6l-24 -162h-410l25 162l98 6l64 405l-181 -98zM449 -33l786 1483h201l-787 -1483h-200zM1135 627l295 151h186l-96 -610l96 -6l-27 -162h-409l26 162l97 6l63 405l-178 -98z" />
<glyph horiz-adv-x="1859" d="M193 1266l294 151h189l-96 -610l94 -6l-25 -162h-409l24 162l98 6l64 405l-180 -98zM395 -33l787 1483h198l-786 -1483h-199zM1001 39l58 172q125 -55 223 -55q78 0 125 30.5t47 83.5q0 88 -178 88q-68 0 -207 -20l88 440h569l-26 -170h-361l-20 -114q49 10 98 10 q127 0 195.5 -55.5t68.5 -159.5q0 -150 -116 -234q-92 -66 -269 -65q-148 0 -295 49z" />
<glyph horiz-adv-x="1859" d="M145 639l27 168q88 47 248 166q96 72 137 122t41 99q0 70 -102 70q-74 0 -228 -64l-30 162q152 68 307 68q137 0 211.5 -54.5t74.5 -156.5q0 -137 -141 -252q-96 -82 -223 -160h305l-27 -168h-600zM465 -33l786 1483h201l-786 -1483h-201zM1049 39l57 172 q125 -55 225 -55q78 0 125 30.5t47 83.5q0 88 -178 88q-72 0 -207 -20l88 440h568l-27 -170h-358l-23 -114q51 10 100 10q127 0 196 -55.5t69 -159.5q0 -150 -117 -234q-92 -66 -268 -65q-150 0 -297 49z" />
<glyph horiz-adv-x="1859" d="M154 668l51 163q109 -39 217 -38q141 0 141 98q0 76 -143 76q-39 0 -86 -4l22 141q37 -2 78 -2q172 0 172 96q0 66 -125 66q-74 0 -190 -33l-29 155q143 43 281 44q297 0 297 -195q0 -154 -181 -195q76 -20 107 -58t31 -103q0 -133 -113 -199q-88 -53 -244 -53 q-165 0 -286 41zM465 -33l786 1483h201l-786 -1483h-201zM1049 39l57 172q125 -55 225 -55q78 0 125 30.5t47 83.5q0 88 -178 88q-72 0 -207 -20l88 440h568l-27 -170h-358l-23 -114q51 10 100 10q127 0 196 -55.5t69 -159.5q0 -150 -117 -234q-92 -66 -268 -65 q-145 0 -297 49z" />
<glyph horiz-adv-x="1859" d="M98 799l25 155l385 463h295l-74 -469h107l-25 -149h-106l-25 -160h-213l25 160h-394zM313 948h213l54 324zM465 -33l786 1483h201l-786 -1483h-201zM1049 39l57 172q125 -55 225 -55q78 0 125 30.5t47 83.5q0 88 -178 88q-72 0 -207 -20l88 440h568l-27 -170h-358 l-23 -114q51 10 100 10q127 0 196 -55.5t69 -159.5q0 -150 -117 -234q-92 -66 -268 -65q-150 0 -297 49z" />
<glyph horiz-adv-x="1859" d="M217 1266l295 151h188l-96 -610l94 -6l-24 -162h-410l25 162l98 6l64 405l-181 -98zM416 -33l786 1483h201l-787 -1483h-200zM1008 272q0 111 46 223.5t120 178.5q125 117 346 117q94 0 192 -23l-47 -166q-90 23 -154 23q-90 0 -142 -35t-91 -123q76 53 170 53 q115 0 180.5 -57t65.5 -160q0 -143 -101.5 -229t-269.5 -86q-154 0 -234.5 72.5t-80.5 211.5zM1227 236q0 -86 102 -86q63 0 100 36.5t37 96.5q0 82 -102 82q-61 0 -99 -36t-38 -93z" />
<glyph horiz-adv-x="1859" d="M135 678l58 172q125 -55 223 -55q78 0 125 30.5t47 83.5q0 88 -178 88q-70 0 -205 -20l88 440h567l-26 -170h-361l-20 -114q49 10 98 10q127 0 195.5 -55.5t68.5 -159.5q0 -150 -117 -234q-92 -66 -268 -65q-148 0 -295 49zM485 -33l787 1483h201l-787 -1483h-201z M1061 272q0 111 46 223.5t120 178.5q125 117 346 117q96 0 194 -23l-47 -166q-90 23 -153 23q-90 0 -142.5 -35t-91.5 -123q76 53 168 53q115 0 180.5 -57t65.5 -160q0 -143 -101.5 -229t-269.5 -86q-154 0 -234.5 72.5t-80.5 211.5zM1280 236q0 -86 102 -86 q63 0 100.5 36.5t37.5 96.5q0 82 -103 82q-61 0 -99 -36t-38 -93z" />
<glyph horiz-adv-x="1024" d="M524 1710q0 76 50.5 125t125.5 49q78 0 127.5 -49t49.5 -127t-49.5 -127t-127 -49t-127 50t-49.5 128z" />
<glyph horiz-adv-x="1024" d="M420 1626q0 111 75.5 184.5t190.5 73.5q117 0 191.5 -72.5t74.5 -187.5t-74.5 -188.5t-191.5 -73.5t-191.5 73.5t-74.5 190.5zM578 1622q0 -119 108 -119q51 0 80 32t29 87q0 57 -29 89t-80 32t-79.5 -32t-28.5 -89z" />
<glyph horiz-adv-x="1024" d="M248 1554l287 299h362l193 -299h-281l-109 172l-159 -172h-293z" />
<glyph horiz-adv-x="1024" d="M352 1774q0 45 10 96h170v-27q0 -59 39 -82.5t136 -23.5q102 0 148 28.5t63 104.5h172q-16 -147 -76 -215q-100 -115 -316 -115q-346 1 -346 234z" />
<glyph horiz-adv-x="1024" d="M272 1563q27 129 94.5 205.5t155.5 76.5q63 0 201 -45q106 -39 149 -39q59 0 84 80h170q-55 -283 -252 -282q-72 0 -272 67q-49 16 -78 16q-53 0 -78 -79h-174z" />
<glyph horiz-adv-x="1024" d="M104 -379l285 313h338l-340 -313h-283z" />
<glyph horiz-adv-x="1024" d="M96 -274q0 82 72 148.5t225 125.5h197q-141 -76 -192.5 -123t-51.5 -104q0 -84 119 -84q31 0 78 10l-13 -137q-92 -14 -168 -15q-129 0 -197.5 46.5t-68.5 132.5z" />
<glyph horiz-adv-x="1024" d="M84 -379l285 313h338l-340 -313h-283z" />
<glyph horiz-adv-x="2062" d="M14 41l52 321h239l-8 -131q94 -31 160 -30q76 0 120 28.5t44 77.5q0 37 -39 64q-27 16 -146 69q-170 76 -232.5 142.5t-62.5 173.5q0 170 124 273.5t329 103.5q213 0 414 -60l-52 -319h-239l6 127q-61 27 -121 26q-63 0 -102 -27.5t-39 -68.5q0 -45 67 -84 q47 -25 226 -109q96 -47 140 -108t44 -156q0 -184 -141 -291q-121 -88 -348 -88q-245 0 -435 66zM1026 41l49 321h240l-6 -131q98 -31 159 -30q76 0 120 28.5t44 77.5q0 37 -39 64q-27 16 -147 69q-170 76 -232.5 142.5t-62.5 173.5q0 170 124 273.5t331 103.5 q215 0 411 -60l-49 -319h-239l6 127q-61 27 -123 26.5t-102 -28t-40 -68.5q0 -45 70 -84q23 -14 223 -109q98 -47 142.5 -108t44.5 -156q0 -184 -142 -291q-121 -88 -348 -88q-244 0 -434 66z" />
<glyph horiz-adv-x="727" d="M4 0l35 225l125 6l102 646l-123 6l35 225h553l-35 -225l-125 -6l-102 -646l123 -6l-35 -225h-553z" />
<glyph horiz-adv-x="823" d="M-88 12l57 258q102 -57 166 -57q72 0 106.5 50t57.5 179l68 435l-131 6l34 225h564l-35 -225l-127 -6l-66 -422q-35 -207 -53 -258q-41 -117 -129 -169.5t-240 -52.5q-147 0 -272 37z" />
<glyph horiz-adv-x="1779" d="M8 0l35 225l121 6l102 646l-125 6l37 225h914l-58 -354h-239l12 133h-234l-36 -228h319l-35 -225h-319l-33 -203l133 -6l-35 -225h-559zM1057 0l35 225l122 6l105 646l-125 6l37 225h553l-37 -225l-123 -6l-104 -646l125 -6l-35 -225h-553z" />
<glyph horiz-adv-x="2109" d="M8 0l35 225l121 6l102 646l-125 6l37 225h914l-58 -354h-239l12 133h-234l-36 -228h319l-35 -225h-319l-33 -203l133 -6l-35 -225h-559zM1061 0l35 225l121 6l102 646l-125 6l37 225h559l-37 -225l-129 -6l-102 -650h250l32 152h240l-62 -379h-921z" />
<glyph horiz-adv-x="1271" d="M-53 0l35 219l86 4l475 885h346l215 -885l86 -4l-33 -219h-491l30 188h111l-25 142h-358l-68 -142h111l-29 -188h-491zM350 1554h281l106 -172l160 172h293l-285 -299h-364zM514 518h234l-17 90q-33 170 -45 289q-45 -113 -106 -242z" />
<glyph horiz-adv-x="1271" d="M-53 0l35 219l86 4l475 885h346l215 -885l86 -4l-33 -219h-491l30 188h111l-25 142h-358l-68 -142h111l-29 -188h-491zM397 1466q0 41 11 88h172q-2 -12 -2 -30q0 -57 37.5 -80t134.5 -23q104 0 148 28t67 105h170q-14 -96 -28.5 -138t-47.5 -79q-104 -113 -314 -112 q-180 0 -264 58t-84 183zM514 518h234l-17 90q-33 170 -45 289q-45 -113 -106 -242z" />
<glyph horiz-adv-x="1271" d="M-53 0l35 219l86 4l475 885h346l215 -885l86 -4l-33 -219h-37q-141 -76 -192 -122t-51 -101q0 -88 118 -88q25 0 78 10l-12 -137q-102 -14 -168 -15q-266 0 -266 179q0 82 70.5 147.5t226.5 126.5h-258l30 188h111l-25 142h-358l-68 -142h111l-29 -188h-491zM514 518h234 l-17 90q-33 176 -45 289q-20 -59 -106 -242z" />
<glyph horiz-adv-x="1177" d="M94 487q0 301 189 486q166 160 442 160q197 0 383 -74l-55 -344h-246l14 176q-39 16 -96 16q-135 0 -222 -110.5t-87 -282.5q0 -143 72.5 -228t197.5 -85q115 0 248 86l90 -236q-154 -76 -365 -76q-272 0 -418.5 132t-146.5 380zM549 1239l289 299h376l-368 -299h-297z " />
<glyph horiz-adv-x="1177" d="M94 487q0 301 189 486q166 160 442 160q197 0 383 -74l-55 -344h-246l14 176q-39 16 -96 16q-135 0 -222 -110.5t-87 -282.5q0 -143 72.5 -228t197.5 -85q115 0 248 86l90 -236q-154 -76 -365 -76q-272 0 -418.5 132t-146.5 380zM373 1554h280l107 -172l160 172h294 l-286 -299h-365z" />
<glyph horiz-adv-x="1177" d="M94 487q0 301 189 486q166 160 442 160q197 0 383 -74l-55 -344h-246l14 176q-39 16 -96 16q-135 0 -222 -110.5t-87 -282.5q0 -143 72.5 -228t197.5 -85q115 0 248 86l90 -236q-154 -76 -365 -76q-272 0 -418.5 132t-146.5 380zM602 1391q0 72 48 118.5t120 46.5 q74 0 121 -47t47 -120.5t-47 -120.5t-121 -47t-121 47t-47 123z" />
<glyph horiz-adv-x="1509" d="M8 0l35 225l121 6l102 646l-125 6l37 225h453q281 0 413 -80q178 -106 179 -387q0 -186 -65.5 -328.5t-186.5 -218.5q-82 -51 -186.5 -72.5t-282.5 -21.5h-494zM463 225h49q180 0 270 82q53 51 87 136t34 173q0 145 -62.5 206t-213.5 61h-60zM1243 918l266 579h301 l-317 -579h-250z" />
<glyph horiz-adv-x="1325" d="M27 0l34 225l121 6l37 238h-176l29 180h176l37 228l-125 6l37 225h452q281 0 414 -80q178 -109 178 -387q0 -186 -65.5 -328.5t-186.5 -218.5q-82 -51 -186.5 -72.5t-282.5 -21.5h-493zM481 225h49q180 0 271 82q55 51 88 135t33 174q0 145 -62.5 206t-214.5 61h-59 l-37 -234h215l-29 -180h-215z" />
<glyph horiz-adv-x="1124" d="M8 0l35 225l121 6l102 646l-125 6l37 225h914l-58 -354h-239l12 133h-234l-34 -213h295l-35 -225h-295l-37 -228h258l33 141h241l-59 -362h-932zM303 1554h281l106 -172l160 172h295l-287 -299h-364z" />
<glyph horiz-adv-x="1124" d="M8 0l35 225l121 6l102 646l-125 6l37 225h914l-58 -354h-239l12 133h-234l-34 -213h295l-35 -225h-295l-37 -228h258l33 141h241l-59 -362h-932zM524 1391q0 72 48.5 118.5t119.5 46.5q74 0 121 -47t47 -120.5t-47 -120.5t-121 -47t-121 47t-47 123z" />
<glyph horiz-adv-x="1124" d="M8 0l35 225l121 6l102 646l-125 6l37 225h914l-58 -354h-239l12 133h-234l-34 -213h295l-35 -225h-295l-37 -228h258l33 141h241l-59 -362q-141 -74 -192.5 -121t-51.5 -102q0 -88 119 -88q27 0 78 10l-10 -137q-102 -14 -170 -15q-266 0 -267 179q0 84 71 149.5 t226 124.5h-735z" />
<glyph horiz-adv-x="1310" d="M88 451q0 317 193 505q178 176 485 177q221 0 455 -84l-52 -322h-245l14 150q-80 31 -164 30q-158 0 -261 -117.5t-103 -297.5q0 -131 69.5 -211t182.5 -80q78 0 139 24l26 166l-125 4l31 199h510l-31 -199l-96 -4l-53 -342q-209 -74 -414 -74q-276 0 -418.5 120 t-142.5 356zM432 1554h281l106 -172l160 172h293l-285 -299h-364z" />
</font>
</defs>
</svg>
