<?xml version="1.0" standalone="no"?>
<!DOCTYPE svg PUBLIC "-//W3C//DTD SVG 1.1//EN" "http://www.w3.org/Graphics/SVG/1.1/DTD/svg11.dtd" >
<svg xmlns="http://www.w3.org/2000/svg">
<metadata>
This is a custom SVG webfont generated by Font Squirrel.
Copyright   : Design 200107 by Hans Jurg Hunziker
Foundry URL : wwwurwppde
</metadata>
<defs>
<font id="SiemensSerifBoldItalic" horiz-adv-x="1179" >
<font-face units-per-em="2048" ascent="1638" descent="-410" />
<missing-glyph horiz-adv-x="512" />
<glyph unicode="&#xfb01;" horiz-adv-x="1415" d="M104 0q57 295 103 582l59 389h-162l13 78h162l12 79q31 199 102 283q94 113 305 113q174 0 301 -66l-43 -262h-190l18 221q-10 25 -45 25q-68 0 -96 -78q-20 -57 -51 -234l-14 -83h186l-14 -76h-185l-65 -420q-57 -381 -78 -551h-318zM834 0q29 115 90 498l12 82 q43 274 51 389l-123 6l13 72l444 12q-55 -287 -84 -461l-10 -74q-45 -268 -74 -524h-319zM1044 1337.5q0 71.5 46.5 117.5t117.5 46q70 0 116 -45t46 -115q0 -74 -45 -119.5t-119 -45.5q-72 0 -117 45t-45 116.5z" />
<glyph unicode="&#xfb02;" horiz-adv-x="1413" d="M104 0q72 381 103 584l59 389h-162l13 76h162l16 94q18 121 46 180t89 104q129 98 406 99q281 0 540 -90q-57 -307 -84 -482l-63 -401l-51 -344l-13 -93l-14 -116h-317l102 584l68 432q43 285 49 348q-86 80 -203 80q-113 0 -171 -60.5t-81 -203.5l-20 -131h227l-12 -76 h-228l-65 -420q-57 -383 -78 -553h-318z" />
<glyph unicode=" "  horiz-adv-x="512" />
<glyph unicode="&#x09;" horiz-adv-x="512" />
<glyph unicode="&#xa0;" horiz-adv-x="512" />
<glyph unicode="!" horiz-adv-x="745" d="M147 152q0 74 49.5 123t125 49t125 -49.5t49.5 -125t-49.5 -125t-125 -49.5t-125 49.5t-49.5 127.5zM309 1110q-2 174 19 229q41 102 172 103q78 0 122 -36t44 -101q0 -47 -39 -158q-12 -45 -25 -74l-194 -606h-95z" />
<glyph unicode="&#x22;" horiz-adv-x="892" d="M203 1249q0 88 44 138.5t122 50.5q68 0 108.5 -36t40.5 -93q0 -45 -45 -152l-129 -309h-104l-31 303q-6 78 -6 98zM614 1251q0 88 44 137.5t122 49.5q70 0 111 -35t41 -94q0 -45 -45 -152l-129 -309h-107l-28 303q-9 77 -9 100z" />
<glyph unicode="#" d="M16 397l29 174h211l82 263h-184l26 174h209l127 409h201l-125 -409h231l125 409h203l-127 -409h197l-27 -174h-221l-82 -263h192l-28 -174h-217l-121 -397h-203l123 397h-234l-120 -397h-203l123 397h-187zM459 571h231l80 263h-231z" />
<glyph unicode="$" d="M76 68l41 319h229l-20 -262q51 -39 145 -55l80 510q-205 102 -281.5 194t-76.5 236q0 109 49 199.5t137 148.5q109 72 309 84l31 194h92l-31 -196q217 -14 357 -92l-37 -299h-232l19 256q-45 33 -121 45l-78 -492q172 -84 250 -145q133 -109 133 -289q0 -217 -168 -344 q-127 -96 -356 -103l-31 -200h-92l31 200q-213 13 -379 91zM444 1116q0 -123 158 -213l72 449q-100 -12 -165 -79t-65 -157zM561 66q115 10 184.5 77.5t69.5 167.5q0 113 -88 174q-23 14 -92 52z" />
<glyph unicode="%" horiz-adv-x="1736" d="M141 924q0 221 99 381q82 135 297 135q156 0 223 -64.5t67 -216.5q0 -236 -100 -389q-82 -133 -295 -133q-158 0 -224.5 65.5t-66.5 221.5zM358 848q0 -127 78 -127q80 0 123 160q51 209 51 354q0 121 -78 121q-80 0 -122 -164q-52 -197 -52 -344zM481 -41l678 1499h156 l-682 -1499h-152zM958 262q0 227 99 383q82 135 295 135q158 0 224 -64.5t66 -215.5q0 -229 -98 -389q-82 -133 -295 -134q-158 0 -224.5 65.5t-66.5 219.5zM1176 182q0 -121 75 -121q80 0 123 160q51 201 51 354q0 121 -77.5 121t-122.5 -164q-49 -188 -49 -350z" />
<glyph unicode="&#x26;" horiz-adv-x="1595" d="M84 326q0 223 213 346q53 31 192 76q-106 190 -106 319q0 180 131 285q115 90 317 90q190 0 296 -68.5t106 -191.5q0 -154 -143 -260q-90 -66 -281 -134l276 -411q92 125 129 342l-100 4l10 74h422l-10 -74l-98 -4q-33 -141 -91.5 -240.5t-181.5 -220.5l37 -55 q57 -82 105 -109q31 -20 104 -20h62l-11 -74h-358q-76 0 -105.5 13.5t-64.5 64.5l-10 12q-92 -66 -173 -90.5t-200 -24.5q-223 0 -345 91.5t-122 259.5zM385 330q0 -127 58.5 -199t158.5 -72q141 0 275 103l-340 516q-82 -63 -117 -145t-35 -203zM645 1135q0 -109 121 -281 l14 6q238 115 238 336q0 80 -43 127t-117 47q-92 0 -152.5 -66.5t-60.5 -168.5z" />
<glyph unicode="'" horiz-adv-x="481" d="M203 1249q0 88 44 138.5t122 50.5q68 0 108.5 -36t40.5 -93q0 -45 -45 -152l-129 -309h-104l-31 303q-6 78 -6 98z" />
<glyph unicode="(" horiz-adv-x="778" d="M145 444q0 360 183.5 647t521.5 453l35 -57q-170 -162 -271 -365q-82 -164 -131 -395t-49 -446q0 -319 168 -557l-45 -52q-201 131 -306.5 329.5t-105.5 442.5z" />
<glyph unicode=")" horiz-adv-x="778" d="M-78 -270q176 170 271 364q80 164 130 395.5t50 438.5q0 330 -168 565l45 51q199 -131 305.5 -329.5t106.5 -442.5q0 -360 -183.5 -647t-521.5 -453z" />
<glyph unicode="*" d="M289 1262q0 47 29.5 82.5t68.5 35.5q51 0 109 -51l153 -139l-22 194q-2 23 -2 46q0 53 28.5 84.5t79.5 31.5q49 0 81 -28.5t32 -73.5q0 -35 -25 -88l-80 -180l187 84q41 20 84 20q45 0 71.5 -28.5t26.5 -77.5q0 -55 -29.5 -78t-101.5 -23q-23 0 -39 2l-186 15l133 -156 q51 -59 51 -96q0 -45 -33 -77t-80 -32q-82 0 -108 115l-45 203l-105 -179q-47 -82 -108 -82q-45 0 -77 33t-32 80q0 33 17.5 54.5t66.5 52.5l176 106l-182 43q-76 18 -107.5 42t-31.5 65z" />
<glyph unicode="+" d="M74 416l35 215h378l66 418h240l-66 -418h379l-35 -215h-379l-65 -416h-240l68 416h-381z" />
<glyph unicode="," horiz-adv-x="589" d="M-16 -322q141 164 194 308q-115 39 -115 164q0 76 49.5 125t125.5 49q78 0 126 -47.5t48 -122.5q0 -94 -83 -220.5t-274 -318.5z" />
<glyph unicode="-" horiz-adv-x="786" d="M82 475l35 217h606l-35 -217h-606z" />
<glyph unicode="." horiz-adv-x="589" d="M61 152q0 74 50.5 123t126.5 49q74 0 123 -49.5t49 -125t-49.5 -125t-125 -49.5t-125 49.5t-49.5 127.5z" />
<glyph unicode="/" horiz-adv-x="425" d="M-92 -41l516 1499h156l-519 -1499h-153z" />
<glyph unicode="0" d="M100 442q0 184 46.5 390t115.5 335q78 145 189.5 210t285.5 65q213 0 308.5 -105.5t95.5 -345.5q0 -209 -51.5 -428t-131.5 -350q-76 -125 -183 -181.5t-271 -56.5q-219 0 -311.5 106.5t-92.5 360.5zM393 283q0 -119 30 -171.5t95 -52.5q78 0 132.5 81t92.5 261 q41 188 73 410.5t32 337.5q0 209 -127 209q-74 0 -124 -72t-91 -231q-39 -154 -76 -408.5t-37 -363.5z" />
<glyph unicode="1" d="M188 0l11 74l198 6q43 205 68 369l76 471q16 100 45 319q-123 -88 -310 -152l-20 87q256 94 432 243h242q-14 -55 -80 -442l-82 -512q-43 -276 -51 -383l178 -6l-12 -74h-695z" />
<glyph unicode="2" d="M49 0l29 172q279 209 475 424q272 303 272 559q0 94 -40 146.5t-111 52.5q-76 0 -164 -51l-61 -254h-234l49 299q195 94 451 94q205 0 315.5 -81t110.5 -230.5t-91.5 -278.5t-330.5 -320q-123 -96 -436 -313h690l-41 -219h-883z" />
<glyph unicode="3" d="M43 74l47 288h232l-21 -251q70 -47 150 -48q158 0 233 158q57 115 57 262q0 203 -266 203h-72h-26l14 92q23 -2 55 -2q227 0 312 109q37 49 62.5 135t25.5 162q0 176 -164 176q-78 0 -154 -45l-61 -254h-234l48 293q201 90 424 90q442 0 442 -322q0 -174 -124 -272 t-349 -103q174 -16 252 -69q125 -84 125 -254q0 -102 -45 -194.5t-123 -151.5q-137 -100 -377 -101q-232 1 -463 99z" />
<glyph unicode="4" d="M39 403l27 175l727 839h268q-45 -201 -82 -461l-57 -362h204l-43 -191h-192l-10 -59q-25 -184 -31 -264l160 -6l-13 -74h-659l10 74l182 6q18 68 52 266l10 57h-553zM229 594h398l106 590z" />
<glyph unicode="5" d="M51 76l47 284h232l-23 -251q63 -45 144 -46q150 0 231 179q59 131 59 272q0 115 -50 177.5t-140 62.5q-145 0 -270 -121h-107l158 784h801l-43 -219h-687l-92 -448q182 147 367 147q180 0 281.5 -101.5t101.5 -279.5q0 -113 -37 -218t-102 -177q-131 -145 -401.5 -145 t-469.5 100z" />
<glyph unicode="6" d="M100 428q0 236 101.5 464t265.5 365q250 205 623 222v-80q-240 -23 -387.5 -157t-225.5 -396q94 86 230 86q174 0 274 -107.5t100 -292.5q0 -258 -147 -411q-139 -145 -377 -146q-225 0 -341 115t-116 338zM391 281q0 -115 31 -168.5t98 -53.5q117 0 182 164 q72 188 72 393q0 219 -125 220q-111 0 -176 -146q-82 -186 -82 -409z" />
<glyph unicode="7" d="M129 0q76 260 273.5 536.5t570.5 647.5h-731l57 233h893l-25 -149q-569 -678 -708 -1268h-330z" />
<glyph unicode="8" d="M70 319q0 127 80.5 209t277.5 152q-100 76 -142 150.5t-42 175.5q0 190 138 313t353 123q174 0 277.5 -78t103.5 -209q0 -111 -71.5 -191.5t-239.5 -162.5q113 -80 156 -123q100 -100 100 -252q0 -203 -146.5 -327t-388.5 -124q-209 0 -332.5 93t-123.5 251zM283 305 q0 -113 65.5 -178.5t177.5 -65.5q119 0 199 71t80 173q0 78 -68.5 151.5t-242.5 180.5l-11 -4q-92 -53 -146 -140.5t-54 -187.5zM487 1130q0 -63 35 -110t131 -113q4 -2 40 -26.5t46 -32.5l15 8q74 53 117.5 135t43.5 170q0 92 -50 144.5t-138 52.5q-102 0 -171 -66 t-69 -162z" />
<glyph unicode="9" d="M150 18q238 23 386 157t226 396q-94 -86 -230 -86q-174 0 -274 107.5t-100 292.5q0 254 147 411q139 145 377 146q225 0 341 -115t116 -340q0 -233 -101.5 -461.5t-265.5 -365.5q-250 -205 -622 -221v79zM465 801q0 -219 125 -219q113 0 176 145q82 190 82 406 q0 117 -31 171t-98 54q-117 0 -182 -164q-72 -188 -72 -393z" />
<glyph unicode=":" horiz-adv-x="589" d="M66 152q0 74 50 123t125.5 49t124 -49.5t48.5 -125t-49.5 -125t-125 -49.5t-124.5 49.5t-49 127.5zM182 887q0 74 49.5 123t125 49t124.5 -49t49 -125t-49 -125t-124.5 -49t-125 49t-49.5 127z" />
<glyph unicode=";" horiz-adv-x="589" d="M-14 -322q141 164 194 308q-115 39 -114 164q0 76 49 125t125 49q78 0 126 -47.5t48 -122.5q0 -94 -83 -220.5t-274 -318.5zM182 887q0 74 49.5 123t125 49t124.5 -49t49 -125t-49 -125t-125 -49q-78 0 -126 49t-48 127z" />
<glyph unicode="&#x3c;" d="M76 428l30 193l1072 454l-41 -262l-717 -303l620 -301l-39 -236z" />
<glyph unicode="=" d="M41 217l35 217h997l-35 -217h-997zM104 612l35 217h998l-35 -217h-998z" />
<glyph unicode="&#x3e;" d="M4 -27l41 263l717 301l-621 303l37 235l928 -454l-31 -193z" />
<glyph unicode="?" horiz-adv-x="956" d="M188 152q0 74 49.5 123t125 49t125 -50.5t49.5 -124t-50.5 -124t-124.5 -50.5q-78 0 -126 49.5t-48 127.5zM190 1049l35 301q213 92 387 92q203 0 313.5 -74t110.5 -209q0 -172 -176 -303q-55 -43 -229 -145q-113 -66 -140.5 -97.5t-41.5 -117.5l-5 -31h-106l4 31 q18 121 39.5 160.5t116.5 127.5q131 125 178 220q49 104 49 188q0 78 -37 125t-98 47q-51 0 -115 -39l-61 -276h-224z" />
<glyph unicode="@" horiz-adv-x="1746" d="M125 729q0 305 205 500q223 213 608 213q350 0 555 -168t205 -455q0 -219 -116 -364.5t-290 -145.5q-164 0 -196 127q-98 -127 -248 -127q-141 0 -230 82q-84 76 -83 232q0 203 122.5 338t305.5 135q102 0 178 -49l6 30h217l-76 -479q-14 -92 -14 -121q0 -82 80 -82 q96 0 175 128t79 286q0 250 -174 399.5t-467 149.5q-297 0 -473.5 -171t-176.5 -460q0 -313 203 -491q205 -186 510 -187q164 0 336 74l29 -66q-172 -82 -387 -82q-395 0 -639 208t-244 546zM760 588q0 -186 135 -187q92 0 160 111l69 465q-49 37 -106 37q-115 0 -193 -146 q-65 -118 -65 -280z" />
<glyph unicode="A" horiz-adv-x="1386" d="M-88 0l12 74l113 8q74 113 196 364l281 570q129 260 193 401h223q16 -109 26 -160q33 -180 45 -233l101 -512q63 -299 96 -432l117 -6l-12 -74h-603l11 74l145 6q-10 82 -47 295l-16 88h-426l-39 -82q-111 -242 -133 -303l149 -4l-10 -74h-422zM408 551h368l-102 551z " />
<glyph unicode="B" horiz-adv-x="1355" d="M-16 0l12 72l158 6q25 104 79 450l64 390q47 324 55 421l-153 7l10 71h592q268 0 368 -65q121 -82 121 -256q0 -96 -38 -174t-103 -119q-88 -55 -272 -80q174 -18 251 -78q109 -84 109 -237q0 -104 -47 -192.5t-131 -141.5q-121 -74 -371 -74h-704zM479 86h62 q115 0 179 21.5t109 74.5q86 102 86 271q0 121 -59 173t-201 52h-92l-37 -234q-35 -237 -47 -358zM575 764h66q106 0 158.5 16.5t91.5 61.5q35 43 59.5 120.5t24.5 151.5q0 143 -78 191q-45 27 -160 26h-63q-35 -182 -64 -358z" />
<glyph unicode="C" horiz-adv-x="1378" d="M135 563q0 182 63.5 352t176.5 293q215 236 565 236q227 0 430 -92l-49 -314h-236l25 277q-59 37 -147 37q-225 0 -371 -271q-131 -246 -131 -563q0 -219 82 -335.5t235 -116.5q84 0 154 30l67 291h236l-51 -317q-190 -94 -428 -95q-332 0 -488 181q-133 155 -133 407z " />
<glyph unicode="D" horiz-adv-x="1513" d="M-16 0l12 72l158 6q31 145 75 418l62 395q47 274 61 448l-153 7l10 71h489q362 0 508 -84q227 -129 228 -481q0 -205 -68 -384t-188 -290q-109 -98 -247 -138t-374 -40h-573zM481 86h43q147 0 246.5 46t169.5 147q76 106 123 287.5t47 361.5q0 219 -83 311t-277 92h-72 q-31 -135 -68 -381l-69 -436z" />
<glyph unicode="E" horiz-adv-x="1259" d="M-16 0l12 72l158 6q37 178 75 418l62 393q49 319 61 450l-155 7l12 71h1079l-59 -368h-230l33 282h-354q-23 -96 -68 -381l-28 -182h419l-16 -100h-420l-24 -154q-29 -205 -45 -307q-2 -14 -7.5 -57.5t-7.5 -63.5h396l59 285h229l-59 -371h-1122z" />
<glyph unicode="F" horiz-adv-x="1222" d="M-16 0l12 74l158 6q31 150 75 418l62 393q47 279 61 448l-155 7l12 71h1079l-59 -368h-230l33 282h-354q-20 -86 -68 -381l-28 -180h424l-17 -100h-424l-24 -162q-51 -334 -60 -428l183 -6l-13 -74h-667z" />
<glyph unicode="G" horiz-adv-x="1542" d="M135 567q0 184 63.5 352t178.5 289q221 233 594 234q240 0 487 -103l-47 -290h-237l24 254q-88 49 -203 49q-250 0 -395 -258q-141 -260 -141 -619q0 -205 86 -305q86 -104 235 -104q94 0 185 45l73 460l-178 7l12 73h631l-12 -73l-154 -7l-34 -219q-27 -170 -37 -274 q-258 -102 -506 -103q-305 0 -465 151.5t-160 440.5z" />
<glyph unicode="H" horiz-adv-x="1605" d="M-16 0l12 74l158 6q31 135 75 418l62 387q49 324 61 452l-155 6l12 74h629l-11 -74l-149 -6q-35 -176 -68 -385l-28 -184h522l18 117q47 287 62 452l-144 6l11 74h630l-10 -74l-162 -6q-14 -66 -67 -383l-70 -442q-53 -360 -59 -432l155 -6l-10 -74h-631l11 74l147 6 q29 127 76 418l29 180h-523l-26 -166q-51 -334 -60 -432l144 -6l-11 -74h-630z" />
<glyph unicode="I" horiz-adv-x="794" d="M-6 0l12 74l158 6q33 156 76 418l61 387q49 319 61 452l-155 6l12 74h641l-12 -74l-160 -6q-23 -109 -67 -383l-70 -442q-51 -348 -59 -432l155 -6l-12 -74h-641z" />
<glyph unicode="J" horiz-adv-x="782" d="M-223 -186l16 77q27 -4 51 -4q78 0 150 34t112 89q66 86 113 369l80 510q51 305 61 448l-165 6l10 74h653l-10 -74l-162 -6q-12 -57 -68 -379l-92 -585q-25 -160 -41 -221.5t-49 -114.5q-70 -113 -210 -173.5t-330 -60.5q-64 1 -119 11z" />
<glyph unicode="K" horiz-adv-x="1380" d="M-16 0l12 74l158 6q39 178 75 418l62 387q49 319 61 452l-155 6l12 74h627l-13 -74l-145 -6q-35 -178 -68 -383l-26 -176l397 379q55 47 98 94l86 84l-141 8l10 74h453l-10 -74l-125 -8q-14 -14 -80 -67l-172 -154l-277 -254l307 -594q90 -170 107 -186l111 -6l-13 -74 h-585l12 74l110 4l-305 598l-26 -164q-53 -356 -60 -432l121 -6l-10 -74h-608z" />
<glyph unicode="L" horiz-adv-x="1236" d="M-16 0l12 72l158 6q31 147 75 420l62 387q49 319 61 452l-155 6l12 74h657l-12 -74l-176 -6q-25 -115 -68 -383l-67 -436l-47 -313q-2 -10 -5.5 -42t-9.5 -77h371l61 301h230l-62 -387h-1097z" />
<glyph unicode="M" horiz-adv-x="1884" d="M-20 0l12 72l149 6l74 395l98 584q35 197 39 280l-157 6l10 74h526q8 -68 21 -127l45 -215l131 -631l336 637q147 279 172 336h524l-10 -74l-160 -6q-23 -104 -70 -383l-69 -446q-49 -319 -60 -430l156 -6l-10 -72h-639l12 72l158 6q37 174 75 418l62 389l55 329 l-604 -1140h-158l-245 1128l-117 -729q-43 -297 -49 -395l151 -6l-10 -72h-448z" />
<glyph unicode="N" horiz-adv-x="1513" d="M-20 0l12 74l158 6q27 129 67 371l88 548q47 334 47 338l-157 6l10 74h497q63 -168 138 -338l303 -719l88 574q39 260 49 403l-145 6l10 74h448l-10 -74l-158 -6q-23 -98 -75 -409l-148 -928h-254q-16 57 -119 309l-374 891l-107 -690q-53 -362 -55 -430l147 -6l-12 -74 h-448z" />
<glyph unicode="O" horiz-adv-x="1560" d="M139 596q0 162 54.5 320.5t150.5 277.5q199 248 543 248q281 0 436.5 -162t155.5 -453q0 -174 -57.5 -336.5t-159.5 -281.5q-201 -233 -531 -234q-283 0 -437.5 162t-154.5 459zM457 492q0 -213 65.5 -325t190.5 -112q209 0 325 256q123 266 123 615q0 223 -62.5 329.5 t-195.5 106.5q-195 0 -311 -244q-59 -123 -97 -296.5t-38 -329.5z" />
<glyph unicode="P" horiz-adv-x="1308" d="M-16 0l12 74l158 6q33 158 75 418l62 387q51 330 61 454l-155 7l12 71h555q160 0 247 -15.5t150 -55.5q139 -88 139 -277q0 -252 -180 -371q-131 -86 -385 -86h-178l-16 -100q-51 -344 -60 -432l170 -6l-12 -74h-655zM569 700h56q106 0 161.5 19.5t98.5 73t70.5 142.5 t27.5 177q0 147 -88 195q-41 25 -152 24h-67q-27 -129 -68 -383z" />
<glyph unicode="Q" horiz-adv-x="1560" d="M139 588q0 356 205 606q203 248 543 248q291 0 438 -164q154 -166 154 -451q0 -338 -182.5 -577.5t-465.5 -267.5q31 -145 86.5 -209t153.5 -64h37l-4 -94q-51 -10 -117 -10q-260 0 -371 157q-76 106 -104 244q-373 125 -373 582zM457 492q0 -213 65.5 -325t190.5 -112 q209 0 325 256q123 268 123 615q0 223 -62.5 329.5t-195.5 106.5q-195 0 -311 -244q-59 -123 -97 -296.5t-38 -329.5z" />
<glyph unicode="R" horiz-adv-x="1361" d="M-16 0l12 74l158 6q37 176 75 420l62 389q43 252 61 450l-155 7l12 71h614q258 0 367.5 -72.5t109.5 -244.5q0 -195 -118 -303q-86 -76 -256 -92q109 -27 145.5 -81.5t63.5 -234.5l41 -309l104 -6l-12 -74h-400l-20 205q-23 242 -68 354q-20 51 -57 70.5t-113 19.5h-47 l-22 -139q-53 -358 -60 -430l156 -6l-12 -74h-641zM575 735h80q162 0 236 82q90 102 90 301q0 137 -82 187q-53 27 -190 26h-33q-31 -156 -66 -381z" />
<glyph unicode="S" horiz-adv-x="1183" d="M68 68l41 321h229l-21 -264q84 -61 207 -62q125 0 204 69t79 177q0 76 -35 124t-123 91q-264 131 -342 203q-123 109 -123 283q0 199 148 319q133 113 375 113q236 0 421 -94l-36 -301h-234l21 258q-72 49 -177 49q-111 0 -188.5 -68.5t-77.5 -169.5q0 -82 64 -145 q47 -45 200 -123q193 -96 265 -168q98 -94 98 -258q0 -190 -133 -313q-141 -133 -412 -134q-253 1 -450 93z" />
<glyph unicode="T" horiz-adv-x="1310" d="M117 1049l59 368h1243l-59 -368h-230l33 282h-219q-25 -111 -67 -385l-68 -434q-47 -322 -61 -432l196 -6l-12 -74h-719l10 74l199 6q31 145 76 420l59 379q45 283 61 452h-215l-57 -282h-229z" />
<glyph unicode="U" horiz-adv-x="1497" d="M190 1343l13 74h641l-13 -74l-159 -6q-20 -98 -68 -379l-61 -395q-25 -164 -25 -258q0 -225 236 -225q195 0 297 125q72 88 114 360l58 369q39 256 55 403l-156 6l11 74h452l-12 -74l-156 -6q-12 -49 -22 -114l-43 -236l-19 -104l-45 -291q-31 -207 -59.5 -302 t-77.5 -153q-133 -162 -418 -162q-522 0 -522 359q0 90 35 315l39 240q49 315 61 448z" />
<glyph unicode="V" horiz-adv-x="1394" d="M143 1343l13 74h589l-10 -74l-145 -6q18 -150 80 -495l92 -502l274 580q129 276 185 419l-131 4l12 74h416l-11 -74l-118 -6l-197 -372l-285 -568q-92 -184 -188 -397h-215q-20 141 -72 406l-102 530q-8 53 -33 172q-23 106 -27 123q-8 53 -16 78l-8 28z" />
<glyph unicode="W" horiz-adv-x="1957" d="M125 1343l12 74h592l-12 -74l-154 -6q2 -78 29 -383l57 -598l252 559q174 395 207 502h201q10 -223 34 -446l62 -613l237 545q88 201 179 434l-144 6l11 74h423l-10 -74l-119 -6q-31 -55 -61 -120q-23 -51 -72 -150l-49 -104l-258 -557q-135 -299 -174 -406h-225 q-6 135 -39 408l-62 548l-256 -559q-119 -258 -170 -397h-225q-4 98 -39 408l-59 548q-18 172 -49 381z" />
<glyph unicode="X" horiz-adv-x="1353" d="M-82 0l12 74l90 6q31 27 205 215l338 379l-114 266q-133 313 -175 397l-118 6l10 74h596l-10 -74l-131 -6q20 -88 124 -327l54 -121l192 223q147 178 180 227l-118 4l10 74h405l-10 -74l-117 -6q-84 -84 -243 -262l-254 -287l141 -323q139 -322 172 -385l119 -6l-10 -74 h-604l10 74l129 6q-27 102 -123 330l-70 161l-254 -305l-149 -186l125 -6l-13 -74h-399z" />
<glyph unicode="Y" horiz-adv-x="1220" d="M84 1343l12 74h606l-12 -74l-162 -6q20 -78 90 -270l109 -305l158 237q184 281 217 340l-139 4l10 74h409l-12 -74l-110 -6q-94 -117 -248 -346l-224 -325q-14 -37 -46.5 -244t-45.5 -346l164 -6l-10 -70h-662l13 70l166 6q78 330 96 579l-184 478q-61 152 -89 204z" />
<glyph unicode="Z" horiz-adv-x="1318" d="M10 0l19 113l127 159l161 207l371 479q59 78 82 111l100 131q61 82 93 131h-469l-58 -282h-229l59 368h1069l-18 -112l-219 -281l-44 -56q-38 -48 -57 -75l-292 -379l-87 -117l-98 -133l-94 -123l-39 -55h510l59 301h232l-62 -387h-1116z" />
<glyph unicode="[" horiz-adv-x="778" d="M63 -319l293 1855h471l-12 -76h-180l-268 -1704h178l-13 -75h-469z" />
<glyph unicode="\" horiz-adv-x="430" d="M111 1458h151l117 -1499h-150z" />
<glyph unicode="]" horiz-adv-x="778" d="M-20 -319l12 75h180l268 1704h-178l10 76h471l-294 -1855h-469z" />
<glyph unicode="^" d="M39 702l582 715h223l354 -715l-311 -4l-189 437l-331 -437z" />
<glyph unicode="_" horiz-adv-x="1024" d="M-250 -440l23 143h1218l-22 -143h-1219z" />
<glyph unicode="`" horiz-adv-x="1024" d="M375 1497q0 20 37 21h241q23 -72 80.5 -155t122.5 -136l-37 -58q-188 78 -305 164q-57 43 -98 92t-41 72z" />
<glyph unicode="a" horiz-adv-x="1300" d="M98 412q0 287 139.5 474t350.5 187q190 0 293 -164l22 140h293l-78 -437l-55 -352q-10 -59 -10 -88q0 -74 59 -74q37 0 109 33l34 -72q-135 -84 -282 -84q-100 0 -147.5 36t-55.5 118q-63 -82 -135 -118t-176 -36q-174 0 -267.5 113t-93.5 324zM416 395q0 -133 42 -203.5 t120 -70.5q111 0 192 143l84 531q-74 131 -176 131q-125 0 -201 -195q-61 -152 -61 -336z" />
<glyph unicode="b" horiz-adv-x="1306" d="M90 0q45 231 103 582l73 467q33 211 49 368l-122 6l12 74l432 12q-10 -49 -80 -442l-20 -123q133 127 299 127q182 0 278 -114.5t96 -329.5q0 -129 -36.5 -257t-100.5 -214q-133 -180 -366 -181q-115 0 -186.5 39t-114.5 125l-27 -139h-289zM432 283q23 -84 75 -133.5 t116 -49.5q135 0 211 219q61 184 61 375q0 256 -143 256q-109 0 -238 -155z" />
<glyph unicode="c" horiz-adv-x="1077" d="M96 422q0 272 152 457q160 193 459 192q184 0 350 -70l-51 -296h-230l25 266q-41 20 -82 20q-145 0 -232 -219q-33 -80 -55 -199.5t-22 -214.5q0 -287 223 -286q125 0 266 88l43 -74q-160 -111 -367 -111q-231 0 -355 115t-124 332z" />
<glyph unicode="d" horiz-adv-x="1312" d="M98 406q0 262 129 456q141 209 377 209q193 0 297 -143l19 119q45 299 49 370l-131 6l12 74l438 12q-66 -356 -106 -626l-68 -428q-41 -262 -49 -375l129 -6l-12 -74h-416l14 129q-121 -154 -317 -154q-178 0 -271.5 110t-93.5 321zM412 354q0 -254 147 -254 q59 0 128 50.5t110 125.5l84 517q-76 158 -189 157q-133 0 -215 -213q-65 -172 -65 -383z" />
<glyph unicode="e" horiz-adv-x="1200" d="M98 428q0 252 142 436q156 207 444 207q225 0 338 -108q90 -92 90 -293q0 -72 -12 -154h-678q-12 -90 -12 -147q0 -299 258 -299q135 0 272 88l47 -76q-176 -106 -395 -107q-238 0 -366 118t-128 335zM436 596h361q18 111 18 195q0 111 -27.5 157.5t-91.5 46.5 q-90 0 -157.5 -104.5t-102.5 -294.5z" />
<glyph unicode="f" horiz-adv-x="796" d="M104 0q51 266 103 584l59 389h-162l13 76h162l12 73q33 207 102 287q100 115 318 115q182 0 329 -66l-43 -262h-215l19 221q-25 27 -53 27q-66 0 -103 -82q-23 -57 -53 -232l-14 -81h227l-12 -76h-228l-63 -410q-63 -426 -80 -563h-318z" />
<glyph unicode="g" horiz-adv-x="1314" d="M20 -381l52 264h227l-23 -229q55 -35 134 -35q188 0 266 156q49 98 86 340l6 45q-117 -125 -283 -125q-178 0 -280.5 106.5t-102.5 292.5q0 274 140.5 455.5t355.5 181.5q211 0 309 -158l31 148l420 -14l-12 -72l-140 -6q-27 -121 -82 -455l-59 -379q-33 -201 -64.5 -289 t-97.5 -153q-152 -158 -487 -158q-232 0 -396 84zM416 379q0 -227 133 -227t246 176l73 460q-29 78 -81 123t-113.5 45t-105.5 -47t-85 -151q-67 -176 -67 -379z" />
<glyph unicode="h" horiz-adv-x="1325" d="M98 0q61 326 103 582l73 467q43 307 48 368l-123 6l14 74l442 12l-77 -442l-27 -162q96 90 180 128t187 38q125 0 193.5 -62.5t68.5 -177.5q0 -72 -33 -268l-19 -114q-35 -244 -47 -369l129 -6l-12 -74h-446l75 428l31 193q18 121 19 184q0 117 -97 117q-53 0 -123.5 -44 t-128.5 -112l-20 -139q-74 -477 -90 -627h-320z" />
<glyph unicode="i" horiz-adv-x="677" d="M98 0q29 129 88 498l13 82q37 236 53 389l-123 6l12 72l443 12q-61 -332 -82 -461l-13 -74q-55 -352 -71 -524h-320zM313 1370q0 72 46.5 118t117.5 46q70 0 116 -45t46 -115q0 -74 -45 -120t-119 -46q-70 0 -116 45t-46 117z" />
<glyph unicode="j" horiz-adv-x="677" d="M-221 -440l16 78q154 0 218.5 89t105.5 361l80 512q37 231 49 369l-131 6l12 72l451 12q-70 -387 -99 -565l-75 -471q-37 -254 -127 -347q-117 -123 -375 -122q-55 0 -125 6zM307 1374q0 70 46 115t118 45t117 -46t45 -118t-46 -117t-116 -45q-72 0 -118 46t-46 120z" />
<glyph unicode="k" horiz-adv-x="1247" d="M98 0q6 39 18.5 100.5t18.5 98.5q41 209 66 383l73 467q43 274 50 370l-123 6l12 72l444 12l-8 -43l-24 -116q-6 -43 -23 -129l-37 -228l-59 -381l319 244q121 94 144 115l-113 4l10 74h412l-12 -74l-97 -6q-33 -16 -88 -56l-98 -69q-23 -14 -68 -47l-32 -23l-115 -88 l178 -385l74 -151q18 -41 39 -68l117 -8l-13 -74h-418q-14 57 -75 190l-172 379l-29 -176q0 -2 -23 -164q-12 -74 -20 -147l-10 -82h-318z" />
<glyph unicode="l" horiz-adv-x="649" d="M84 0q74 395 102 582l72 467q33 201 49 368l-123 6l15 74l442 12l-100 -567l-60 -389l-22 -145l-15 -92q-4 -26 -7 -52t-7 -55q-20 -143 -27 -209h-319z" />
<glyph unicode="m" horiz-adv-x="1937" d="M98 0l97 545l8 55q29 190 33 225q12 88 16 144l-123 6l12 72l424 12l-18 -139q172 152 354 151q215 0 250 -176q109 98 192.5 137t186.5 39q260 0 260 -244q0 -63 -31 -264l-14 -90q-53 -315 -53 -393l129 -6l-11 -74h-448l96 545l8 51q23 135 23 199q0 127 -96 127 q-104 0 -230 -136l-37 -231q-8 -61 -25 -177l-26 -169q-18 -131 -26 -209h-320l98 549l7 43q23 139 22 203q0 127 -96 127q-94 0 -225 -131l-39 -240q-53 -344 -78 -551h-320z" />
<glyph unicode="n" horiz-adv-x="1325" d="M98 0q66 360 103 582l10 67q33 225 41 320l-123 6l12 72l424 12l-22 -162q100 94 186 134t186 40q127 0 196 -62.5t69 -177.5q0 -76 -33 -268l-19 -114q-31 -205 -47 -369l129 -6l-12 -74h-444l73 428l25 150q25 166 25 225q0 119 -97 119q-53 0 -123.5 -44t-126.5 -112 l-22 -139q-70 -455 -90 -627h-320z" />
<glyph unicode="o" horiz-adv-x="1286" d="M100 444q0 127 45 247t127 208q158 172 435 172q231 0 355 -120t124 -343q0 -272 -168 -458q-160 -174 -436 -175q-258 0 -371 134q-111 126 -111 335zM414 334q0 -281 166 -281q70 0 128 59.5t97 170.5q66 205 65 417q0 293 -165 293q-160 0 -246 -307 q-45 -174 -45 -352z" />
<glyph unicode="p" horiz-adv-x="1323" d="M29 -440q41 209 102 583l72 457q41 281 47 369l-121 6l12 72l424 12l-14 -119q131 131 303 131q180 0 276.5 -113.5t96.5 -328.5q0 -283 -137 -473q-133 -180 -363 -181q-215 0 -299 158l-8 -59q-59 -389 -74 -514h-317zM451 283q25 -84 76 -133.5t116 -49.5 q131 0 209 219q61 174 61 367q0 264 -145 264q-102 0 -238 -157z" />
<glyph unicode="q" horiz-adv-x="1323" d="M98 408q0 252 127 452q135 213 381 213q98 0 168 -34.5t129 -112.5l25 123h299l-80 -451l-78 -487q-63 -408 -78 -551h-317q2 10 13 71l22 115q31 143 51 297l10 74q-72 -78 -138.5 -110t-164.5 -32q-369 1 -369 433zM412 352q0 -252 145 -252q59 0 126 48.5t112 121.5 l84 527q-49 86 -90 119.5t-99 33.5q-131 0 -213 -213q-65 -172 -65 -385z" />
<glyph unicode="r" horiz-adv-x="987" d="M98 0l90 504l15 92l33 227q2 16 7 63l9 83l-123 6l12 72l414 10l-23 -162q115 172 322 172q100 0 174 -25l-55 -335h-223l24 233q-14 2 -22 2q-78 0 -151 -86t-89 -199l-18 -116q-4 -23 -52 -334q-6 -43 -26 -207h-318z" />
<glyph unicode="s" horiz-adv-x="1007" d="M49 39l43 274h213l-10 -211q59 -43 151 -43q88 0 144.5 47.5t56.5 120.5q0 63 -45 97q-27 16 -158 69q-170 68 -238.5 140.5t-68.5 187.5q0 152 117 252q113 98 324 98q205 0 346 -65l-41 -273h-209l16 225q-47 31 -131 31t-137 -46t-53 -116q0 -63 51 -96 q31 -20 182 -84q160 -70 211 -119q70 -66 70 -192q0 -172 -123 -266.5t-346 -94.5q-187 1 -365 64z" />
<glyph unicode="t" horiz-adv-x="796" d="M94 973l12 76h80q135 0 203 64.5t137 258.5h97l-54 -323h265l-13 -76h-264l-102 -658q-16 -98 -17 -135q0 -96 86 -96q66 0 142 59l45 -69q-115 -98 -277 -99q-137 0 -213 60.5t-76 171.5q0 51 21 170l92 596h-164z" />
<glyph unicode="u" horiz-adv-x="1323" d="M121 975l12 72l442 12l-79 -443l-33 -206q-14 -100 -14 -160q0 -125 94 -125q121 0 254 160l108 684l-133 6l12 72l443 12l-76 -428l-39 -242l-39 -309l123 -6l-12 -74l-424 -10l20 157q-111 -98 -190.5 -135t-186.5 -37q-125 0 -191.5 61.5t-66.5 176.5q0 61 31 270 l19 117q16 88 20 143q16 109 18 144q6 31 11 82z" />
<glyph unicode="v" horiz-adv-x="1138" d="M78 975l12 74h526l-12 -74l-108 -6q2 -23 10 -88l14 -84q2 -25 10 -74l86 -438l201 389q115 221 144 295l-148 6l12 74h396l-13 -74l-98 -6q-88 -137 -178 -307l-201 -365q-139 -266 -153 -297h-216q-12 92 -12 96l-12 72l-21 113l-73 389q-39 195 -70 299z" />
<glyph unicode="w" horiz-adv-x="1699" d="M86 975l12 72h527l-11 -72l-110 -6q2 -35 6 -84l10 -99l8 -67l58 -385l366 713h170l105 -713l174 356l84 176q14 29 43 103l-144 6l13 74h393l-12 -74l-101 -6l-161 -293l-216 -416l-126 -260h-207q-10 115 -33 276l-57 398l-218 -418l-127 -256h-206q-2 72 -31 274 l-57 396q-18 98 -31 190l-25 109z" />
<glyph unicode="x" horiz-adv-x="1116" d="M-100 0l12 74l98 6q63 57 221 223l193 205l-100 217l-62 137l-55 107l-109 6l11 74h550l-12 -74l-106 -6q10 -45 75 -191l41 -92l107 119q115 125 137 164l-106 6l10 74h377l-11 -74l-102 -6q-49 -39 -182 -174l-187 -197l111 -244q113 -250 135 -274l101 -6l-13 -74 h-557l10 74l119 6q-29 86 -78 196l-63 140l-143 -168q-82 -94 -138 -168l95 -6l-13 -74h-366z" />
<glyph unicode="y" horiz-adv-x="1130" d="M-90 -436l57 166q68 -25 127 -25q178 0 297 211l19 33l-154 706q-55 231 -80 314l-96 6l10 74h528l-12 -74l-112 -6q8 -63 49 -262l82 -381l174 311l123 227q35 68 51 109l-154 2l12 74h394l-13 -74l-96 -6q-27 -35 -174 -289l-424 -746q-123 -217 -231.5 -302 t-259.5 -85q-74 1 -117 17z" />
<glyph unicode="z" horiz-adv-x="1077" d="M-18 0l12 76l708 895h-325l-53 -264h-226l56 342h917l-12 -78l-713 -895h359l55 268h221l-55 -344h-944z" />
<glyph unicode="{" horiz-adv-x="778" d="M78 571l12 74q94 2 144.5 59.5t66.5 184.5l47 299q20 127 39 182t53 90q41 43 93.5 59.5t152.5 16.5h203l-12 -76h-68q-84 0 -112.5 -39t-53.5 -190l-51 -334q-20 -139 -67.5 -202.5t-147.5 -86.5q133 -37 133 -178q0 -37 -16 -149l-50 -318q-14 -88 -14 -115 q0 -51 23.5 -71.5t81.5 -20.5h73l-12 -75h-201q-131 0 -180 36q-63 45 -63 156q0 63 18 182l39 248q16 104 16 127q0 86 -59 123q-25 12 -88 18z" />
<glyph unicode="|" horiz-adv-x="589" d="M143 -440v1865h293v-1865h-293z" />
<glyph unicode="}" horiz-adv-x="778" d="M-82 -319l12 75h68q84 0 115 41q20 27 27 53.5t24 135.5l53 333q20 141 67.5 205t147.5 84q-133 35 -133 178q0 49 14 150l52 315q14 80 14 115q0 51 -24.5 72.5t-82.5 21.5h-73l12 76h201q135 0 184 -37q61 -45 61 -156q0 -53 -20 -182l-39 -250q-12 -86 -12 -120 q0 -94 57 -127q25 -12 86 -19l-10 -74q-96 -4 -147.5 -61t-65.5 -182l-47 -299q-20 -127 -39 -183.5t-51 -89.5q-41 -43 -94.5 -59t-153.5 -16h-203z" />
<glyph unicode="~" d="M43 432q102 154 183 221.5t163 67.5q55 0 101.5 -18.5t164.5 -88.5q115 -66 162 -65q43 0 83 34.5t99 123.5l140 -93q-92 -158 -169 -223t-165 -65q-63 0 -122.5 24.5t-190.5 102.5q-80 45 -119 45q-41 0 -80 -33t-105 -127z" />
<glyph unicode="&#xa1;" horiz-adv-x="743" d="M86 -256q0 49 64 231l194 607h94l4 -645q0 -182 -20 -228q-41 -102 -172 -102q-76 0 -120 37t-44 100zM256 899q0 76 48 125t126 49q76 0 125 -49t49 -127q0 -74 -49 -123t-125 -49q-78 0 -126 49t-48 125z" />
<glyph unicode="&#xa2;" d="M152 795q0 158 67.5 301t181.5 231q143 104 379 123l23 139h92l-23 -139q174 -6 334 -72l-51 -295h-229l24 263q-37 20 -90 22l-145 -919q16 -4 41 -5q137 0 284 93l50 -76q-158 -115 -392 -111l-20 -139h-92l22 147q-223 20 -339.5 132t-116.5 305zM465 741 q0 -217 162 -272l139 891q-96 -29 -166 -137q-59 -92 -97 -226.5t-38 -255.5z" />
<glyph unicode="&#xa3;" d="M-23 0l17 104q115 43 171 148.5t91 349.5l14 86h-182l14 86h183l32 207q23 141 58 221t94 131q133 109 371 109q236 0 413 -80l-49 -313h-237l28 258q-41 49 -114 49q-129 0 -197 -135q-39 -84 -68 -277l-26 -170h260l-14 -86h-261l-10 -63q-31 -201 -73.5 -290 t-153.5 -183h725l-25 -152h-1061z" />
<glyph unicode="&#xa4;" d="M20 264l150 150q-82 131 -82 301t82 301l-150 151l132 129l145 -145q133 94 326 94q180 0 323 -94l144 145l131 -129l-148 -151q80 -143 80 -301q0 -160 -80 -301l148 -150l-131 -131l-144 146q-145 -94 -323 -95q-193 0 -326 95l-145 -146zM299 719q0 -162 86 -255 t236 -93q147 0 234 93t87 250.5t-87 251t-234 93.5q-145 0 -233.5 -93t-88.5 -247z" />
<glyph unicode="&#xa5;" d="M78 1343l12 74h604l-10 -74l-164 -6q10 -43 88 -268l107 -305l157 237l86 132q96 147 107 165l22 41l-141 4l12 74h408l-10 -74l-111 -6q-100 -123 -246 -342l-192 -282h197l-13 -86h-227q-16 -86 -25 -142h230l-13 -86h-231l-4 -28q-35 -248 -37 -295l164 -6l-10 -70 h-660l10 70l168 6l56 293l6 30h-232l13 86h231q18 111 19 142h-228l12 86h195l-158 417q-61 162 -86 207z" />
<glyph unicode="&#xa6;" horiz-adv-x="589" d="M66 0l92 584h295l-95 -584h-292zM199 834l92 583h293l-92 -583h-293z" />
<glyph unicode="&#xa7;" d="M59 -240l47 293h238l-25 -243q66 -43 136 -43q100 0 166.5 61t66.5 156q0 66 -43 98q-37 31 -178 100q-182 88 -243.5 148.5t-61.5 148.5q0 86 53 162t184 178q-66 57 -92 108.5t-26 125.5q0 174 124.5 278.5t335.5 104.5q176 0 383 -72l-47 -289h-235l22 240 q-49 41 -114 41q-84 0 -144.5 -62.5t-60.5 -148.5q0 -68 49 -107q27 -23 162 -90q164 -82 226 -143.5t62 -142.5q0 -92 -53 -171t-178 -174q80 -51 109.5 -104t29.5 -139q0 -180 -135 -283.5t-371 -103.5q-190 -1 -387 73zM408 631q0 -68 59 -116t278 -157q53 72 54 148 q0 57 -54.5 105t-205.5 126q-10 4 -28.5 14.5t-23.5 12.5l-24 14q-55 -69 -55 -147z" />
<glyph unicode="&#xa8;" horiz-adv-x="1024" d="M264 1370q0 68 45 113t115 45t114 -44t44 -114t-44 -115t-114 -45q-72 0 -116 44t-44 116zM713 1370q0 68 45 113t114.5 45t113.5 -44t44 -114t-44 -115t-113.5 -45t-114.5 44t-45 116z" />
<glyph unicode="&#xa9;" horiz-adv-x="1605" d="M102 719q0 307 209 513t520 206q315 0 522.5 -207t207.5 -522.5t-206 -522t-521 -206.5q-322 0 -527 207.5t-205 531.5zM207 717q0 -287 175 -468t452 -181q270 0 446 181t176 459.5t-176 460t-449 181.5q-268 0 -446 -180.5t-178 -452.5zM459 700q0 184 102.5 287 t286.5 103q162 0 282 -72v-176h-155l-10 153q-37 29 -82 29q-88 0 -142.5 -87t-54.5 -232q0 -147 54.5 -234.5t146.5 -87.5q43 0 76 23l12 159h164v-176q-135 -78 -277 -78q-188 0 -295.5 104.5t-107.5 284.5z" />
<glyph unicode="&#xaa;" horiz-adv-x="778" d="M129 1073q0 162 85 262.5t218 100.5q59 0 95 -18.5t71 -67.5l12 73h211q-25 -121 -37 -196l-10 -51l-26 -175q-6 -35 -7 -49q0 -33 31 -32q23 0 66 26l39 -63q-90 -57 -203 -58q-100 0 -127 78q-41 -45 -80 -61.5t-100 -16.5q-238 0 -238 248zM356 1057q0 -131 78 -131 q55 0 103 75l41 261q-43 74 -91 73q-55 0 -93 -80.5t-38 -197.5z" />
<glyph unicode="&#xab;" horiz-adv-x="1157" d="M82 520l457 410h100l-246 -410l137 -407h-96zM553 520l455 410h100l-244 -410l135 -407h-94z" />
<glyph unicode="&#xac;" d="M104 567v215h967v-632h-237v417h-730z" />
<glyph unicode="&#xad;" horiz-adv-x="786" d="M82 475l35 217h606l-35 -217h-606z" />
<glyph unicode="&#xae;" horiz-adv-x="1196" d="M145 1022q0 223 152 372.5t379 149.5q229 0 379.5 -149.5t150.5 -380.5q0 -229 -149.5 -380t-378.5 -151q-233 0 -383 151.5t-150 387.5zM242 1020q0 -201 121.5 -329t314.5 -128q186 0 309 128t123 322.5t-123 322.5t-311 128q-186 0 -310 -127t-124 -317zM424 735v41 l61 4q4 57 4 121v215q0 68 -4 127l-61 4v45h260q141 0 182 -28q59 -41 60 -119q0 -57 -30 -89t-97 -46q43 -16 63.5 -46t42.5 -112l21 -72l39 -4v-41h-164l-31 113q-27 94 -48.5 119.5t-74.5 25.5h-18v-90v-65q2 -8 4 -58l51 -4v-41h-260zM629 1034h22q80 0 103 21 q27 27 26 86q0 55 -24.5 78.5t-81.5 23.5h-45v-209z" />
<glyph unicode="&#xaf;" horiz-adv-x="1024" d="M272 1298l21 125h723l-21 -125h-723z" />
<glyph unicode="&#xb0;" horiz-adv-x="733" d="M121 1112q0 145 93 235.5t243 90.5q154 0 248 -90.5t94 -239.5q0 -147 -93.5 -238.5t-244.5 -91.5q-154 0 -247 91t-93 243zM270 1110q0 -94 50.5 -148.5t140.5 -54.5q88 0 138 54.5t50 146.5q0 94 -51 147.5t-139 53.5q-86 0 -137.5 -53.5t-51.5 -145.5z" />
<glyph unicode="&#xb1;" d="M8 0l35 217h997l-34 -217h-998zM102 594l35 217h379l41 258h240l-41 -258h379l-33 -217h-381l-41 -260h-238l41 260h-381z" />
<glyph unicode="&#xb2;" horiz-adv-x="778" d="M117 639l20 123q432 291 432 483q0 45 -22.5 71.5t-61.5 26.5q-31 0 -73 -22l-35 -137h-174l30 192q127 53 289 54q274 0 275 -181q0 -109 -91.5 -202t-357.5 -254h363l-29 -154h-565z" />
<glyph unicode="&#xb3;" horiz-adv-x="778" d="M111 680l30 188h172l-8 -137q27 -20 72 -20q63 0 106 53t43 133q0 100 -149 100q-27 0 -55 -2h-19l14 90q29 -2 56 -2q119 0 164 52q43 49 43 122q0 88 -86 89q-41 0 -74 -21l-33 -135h-174l29 188q127 51 270 52q287 0 287 -183q0 -78 -38 -126t-126 -77 q115 -49 115 -163q0 -123 -89.5 -188.5t-252.5 -65.5q-139 0 -297 53z" />
<glyph unicode="&#xb4;" horiz-adv-x="1024" d="M408 1227q80 55 160.5 137t123.5 154h262q33 0 33 -15q0 -16 -40 -55t-101 -82q-139 -98 -404 -197z" />
<glyph unicode="&#xb5;" d="M-37 -440q27 127 84 463l92 587q37 236 47 357l-108 8l12 72l430 10q-12 -55 -33 -166l-16 -92l-8 -45l-23 -127l-32 -211q-14 -84 -15 -135q0 -82 33 -133.5t84 -51.5q94 0 197 133l63 402q39 252 49 338l-112 6l12 72l428 10l-88 -502l-15 -88q-45 -260 -51 -387 l107 -6l-10 -74l-410 -10l12 123q-59 -74 -108 -105t-113 -31q-74 0 -125 54l-8 -49q-41 -276 -55 -422h-320z" />
<glyph unicode="&#xb6;" horiz-adv-x="1507" d="M170 954q0 229 143 361q66 59 141.5 80.5t221.5 21.5h895l-10 -74l-187 -6l-256 -1607h-276l252 1587h-213l-252 -1587h-277l142 893q-154 0 -239 86.5t-85 244.5z" />
<glyph unicode="&#xb7;" horiz-adv-x="589" d="M131 592q0 74 50 123t126 49q74 0 123 -49t49 -125t-49 -125t-125 -49q-78 0 -126 49t-48 127z" />
<glyph unicode="&#xb8;" horiz-adv-x="1024" d="M111 -410q225 176 241 334h234q39 0 39 -22q0 -47 -58.5 -114t-152.5 -124q-66 -41 -269 -133z" />
<glyph unicode="&#xb9;" horiz-adv-x="778" d="M199 639l12 76l121 4q23 115 37 205l57 346q-68 -35 -182 -70l-25 82q176 57 275 135h174q-37 -184 -58 -321l-16 -101q-35 -227 -37 -276l107 -4l-13 -76h-452z" />
<glyph unicode="&#xba;" horiz-adv-x="778" d="M141 1087q0 154 103 256q94 92 274 93q152 0 230.5 -65.5t78.5 -192.5q0 -162 -100 -258q-100 -94 -276 -95q-310 0 -310 262zM367 1063q0 -156 90 -156q59 0 101 86t42 207q0 154 -90 154q-57 0 -100 -88t-43 -203z" />
<glyph unicode="&#xbb;" horiz-adv-x="1157" d="M47 113l244 409l-135 408h96l350 -408l-455 -409h-100zM518 113l244 409l-135 408h94l352 -408l-455 -409h-100z" />
<glyph unicode="&#xbc;" horiz-adv-x="1755" d="M215 639l12 76l121 4q23 115 37 205l57 346q-68 -35 -182 -70l-24 82q176 57 274 135h174q-37 -184 -57 -321l-17 -101q-35 -227 -37 -276l107 -4l-12 -76h-453zM489 -41l678 1499h154l-680 -1499h-152zM958 211l21 121l397 446h236q-23 -106 -49 -264l-27 -174h125 l-27 -129h-118l-17 -131l98 -4l-12 -76h-422l11 76l114 4l25 131h-355zM1133 340h204l56 305z" />
<glyph unicode="&#xbd;" horiz-adv-x="1755" d="M217 639l12 76l121 4q23 115 37 205l57 346q-68 -35 -182 -70l-24 82q176 57 274 135h174q-37 -184 -57 -321l-17 -101q-35 -227 -37 -276l107 -4l-12 -76h-453zM461 -41l680 1499h153l-682 -1499h-151zM969 0l20 123q432 293 432 483q0 45 -22.5 72t-59.5 27 q-33 0 -75 -23l-35 -137h-174l30 192q125 53 289 54q274 0 275 -181q0 -109 -88 -198.5t-359 -257.5h361l-29 -154h-565z" />
<glyph unicode="&#xbe;" horiz-adv-x="1755" d="M131 680l31 188h172l-8 -137q27 -20 71 -20q63 0 106.5 53t43.5 133q0 100 -150 100q-27 0 -55 -2h-18l14 90q29 -2 55 -2q119 0 164 52q43 49 43 122q0 88 -86 89q-41 0 -74 -21l-32 -135h-175l29 188q127 51 270 52q287 0 287 -183q0 -78 -38 -126t-126 -77 q115 -49 115 -163q0 -123 -89 -188.5t-253 -65.5q-139 0 -297 53zM512 -41l678 1499h156l-682 -1499h-152zM942 211l19 121l397 446h235q-31 -158 -47 -264l-28 -174h124l-26 -129h-119l-16 -131l98 -4l-12 -76h-422l12 76l115 4l22 131h-352zM1114 340h205l55 305z" />
<glyph unicode="&#xbf;" horiz-adv-x="956" d="M-68 -111q0 168 177 304q57 45 231 145q111 66 138.5 98.5t41.5 116.5l4 31h107l-4 -31q-18 -123 -39 -161t-117 -128q-227 -213 -227 -409q0 -78 36.5 -124t98.5 -46q59 0 115 39l61 276h223l-35 -301q-213 -92 -387 -92q-203 0 -313.5 73.5t-110.5 208.5zM432 899 q0 76 49 125t125 49t125 -49t49 -127q0 -74 -49 -123t-125 -49t-125 49t-49 125z" />
<glyph unicode="&#xc0;" horiz-adv-x="1386" d="M-88 0l12 74l113 8q74 113 196 364l281 570q129 260 193 401h223q16 -109 26 -160q33 -180 45 -233l101 -512q63 -299 96 -432l117 -6l-12 -74h-603l11 74l145 6q-10 82 -47 295l-16 88h-426l-39 -82q-111 -242 -133 -303l149 -4l-10 -74h-422zM408 551h368l-102 551z M559 1833q0 20 37 20h242q23 -72 80 -154.5t122 -135.5l-36 -58q-188 78 -306 164q-57 43 -98 92t-41 72z" />
<glyph unicode="&#xc1;" horiz-adv-x="1386" d="M-88 0l12 74l113 8q74 113 196 364l281 570q129 260 193 401h223q16 -109 26 -160q33 -180 45 -233l101 -512q63 -299 96 -432l117 -6l-12 -74h-603l11 74l145 6q-10 82 -47 295l-16 88h-426l-39 -82q-111 -242 -133 -303l149 -4l-10 -74h-422zM408 551h368l-102 551z M643 1563q80 55 161 137t124 153h262q33 0 33 -14q0 -16 -40 -55t-102 -82q-139 -98 -403 -197z" />
<glyph unicode="&#xc2;" horiz-adv-x="1386" d="M-88 0l12 74l113 8q74 113 196 364l281 570q129 260 193 401h223q16 -109 26 -160q33 -180 45 -233l101 -512q63 -299 96 -432l117 -6l-12 -74h-603l11 74l145 6q-10 82 -47 295l-16 88h-426l-39 -82q-111 -242 -133 -303l149 -4l-10 -74h-422zM408 551h368l-102 551z M483 1565q57 45 128 133t104 155h301q14 -72 57 -158.5t88 -129.5l-39 -60q-82 31 -156.5 84t-115.5 111q-141 -131 -334 -195z" />
<glyph unicode="&#xc3;" horiz-adv-x="1386" d="M-88 0l12 74l113 8q74 113 196 364l281 570q129 260 193 401h223q16 -109 26 -160q33 -180 45 -233l101 -512q63 -299 96 -432l117 -6l-12 -74h-603l11 74l145 6q-10 82 -47 295l-16 88h-426l-39 -82q-111 -242 -133 -303l149 -4l-10 -74h-422zM408 551h368l-102 551z M469 1554q29 141 88 218t139 77q68 0 215 -55q127 -45 164 -45q35 0 55.5 22.5t34.5 77.5h72q-61 -297 -246 -297q-45 0 -79.5 10.5t-202.5 69.5q-49 20 -82 21q-53 0 -82 -99h-76z" />
<glyph unicode="&#xc4;" horiz-adv-x="1386" d="M-88 0l12 74l113 8q74 113 196 364l281 570q129 260 193 401h223q16 -109 26 -160q33 -180 45 -233l101 -512q63 -299 96 -432l117 -6l-12 -74h-603l11 74l145 6q-10 82 -47 295l-16 88h-426l-39 -82q-111 -242 -133 -303l149 -4l-10 -74h-422zM408 551h368l-102 551z M457 1706q0 66 45 111t114.5 45t113.5 -44t44 -114t-44 -115t-114 -45q-72 0 -115.5 45t-43.5 117zM905 1706q0 66 45 111t115 45t114 -44t44 -114t-44 -115t-114 -45q-72 0 -116 45t-44 117z" />
<glyph unicode="&#xc5;" horiz-adv-x="1386" d="M-88 0l12 74l113 8q74 113 196 364l281 570q127 252 186 387q-84 59 -84 166q0 90 61.5 148.5t156 58.5t156 -58.5t61.5 -148.5q0 -127 -117 -185q8 -39 18 -108l49 -252l101 -512q41 -195 96 -432l117 -6l-12 -74h-603l11 74l145 6q-12 92 -47 295l-16 88h-426l-39 -82 q-121 -270 -133 -303l149 -4l-10 -74h-422zM408 551h368l-102 551zM717 1571q0 -57 30.5 -89t86.5 -32q53 0 84.5 33t31.5 86q0 55 -31.5 88t-85 33t-85 -33t-31.5 -86z" />
<glyph unicode="&#xc6;" horiz-adv-x="1880" d="M-266 0l12 72l119 6q66 74 342 428l723 911h977l-58 -368h-229l33 282h-355q-35 -176 -67 -381l-29 -182h418l-14 -100h-418l-25 -152q-53 -342 -59 -430h393l57 285h232l-62 -371h-1120l12 72l158 6q29 127 62 334l8 47h-535l-53 -76l-197 -279q-6 -10 -18 -26l147 -6 l-10 -72h-444zM383 551h475l121 764z" />
<glyph unicode="&#xc7;" horiz-adv-x="1378" d="M135 563q0 182 63.5 352t176.5 293q215 236 565 236q227 0 430 -92l-49 -314h-236l25 277q-59 37 -147 37q-225 0 -371 -271q-131 -246 -131 -563q0 -219 82 -335.5t235 -116.5q84 0 154 30l67 291h236l-51 -317q-190 -94 -428 -95q-332 0 -488 181q-133 155 -133 407z M289 -410q225 176 241 334h234q39 0 39 -22q0 -47 -58.5 -114t-152.5 -124q-66 -41 -268 -133z" />
<glyph unicode="&#xc8;" horiz-adv-x="1259" d="M-16 0l12 72l158 6q37 178 75 418l62 393q49 319 61 450l-155 7l12 71h1079l-59 -368h-230l33 282h-354q-23 -96 -68 -381l-28 -182h419l-16 -100h-420l-24 -154q-29 -205 -45 -307q-2 -14 -7.5 -57.5t-7.5 -63.5h396l59 285h229l-59 -371h-1122zM549 1833q0 20 37 20 h241q23 -72 80.5 -154.5t122.5 -135.5l-37 -58q-188 78 -305 164q-57 43 -98 92t-41 72z" />
<glyph unicode="&#xc9;" horiz-adv-x="1259" d="M-16 0l12 72l158 6q37 178 75 418l62 393q49 319 61 450l-155 7l12 71h1079l-59 -368h-230l33 282h-354q-23 -96 -68 -381l-28 -182h419l-16 -100h-420l-24 -154q-29 -205 -45 -307q-2 -14 -7.5 -57.5t-7.5 -63.5h396l59 285h229l-59 -371h-1122zM627 1563 q80 55 160.5 137t123.5 153h263q33 0 32 -14q0 -16 -40 -55t-101 -82q-139 -98 -403 -197z" />
<glyph unicode="&#xca;" horiz-adv-x="1259" d="M-16 0l12 72l158 6q37 178 75 418l62 393q49 319 61 450l-155 7l12 71h1079l-59 -368h-230l33 282h-354q-23 -96 -68 -381l-28 -182h419l-16 -100h-420l-24 -154q-29 -205 -45 -307q-2 -14 -7.5 -57.5t-7.5 -63.5h396l59 285h229l-59 -371h-1122zM449 1565 q57 45 127.5 133t103.5 155h301q14 -72 57 -158.5t88 -129.5l-39 -60q-82 31 -156.5 84t-115.5 111q-141 -131 -334 -195z" />
<glyph unicode="&#xcb;" horiz-adv-x="1259" d="M-16 0l12 72l158 6q37 178 75 418l62 393q49 319 61 450l-155 7l12 71h1079l-59 -368h-230l33 282h-354q-23 -96 -68 -381l-28 -182h419l-16 -100h-420l-24 -154q-29 -205 -45 -307q-2 -14 -7.5 -57.5t-7.5 -63.5h396l59 285h229l-59 -371h-1122zM403 1706q0 66 45.5 111 t115 45t113.5 -44t44 -114t-44 -115t-114 -45q-72 0 -116 45t-44 117zM852 1706q0 66 45 111t114.5 45t113.5 -44t44 -114t-44 -115t-113 -45q-72 0 -116 45t-44 117z" />
<glyph unicode="&#xcc;" horiz-adv-x="794" d="M-6 0l12 74l158 6q33 156 76 418l61 387q49 319 61 452l-155 6l12 74h641l-12 -74l-160 -6q-23 -109 -67 -383l-70 -442q-51 -348 -59 -432l155 -6l-12 -74h-641zM315 1833q0 20 37 20h242q23 -72 80 -154.5t123 -135.5l-37 -58q-188 78 -305 164q-57 43 -98.5 92 t-41.5 72z" />
<glyph unicode="&#xcd;" horiz-adv-x="794" d="M-6 0l12 74l158 6q33 156 76 418l61 387q49 319 61 452l-155 6l12 74h641l-12 -74l-160 -6q-23 -109 -67 -383l-70 -442q-51 -348 -59 -432l155 -6l-12 -74h-641zM344 1563q80 55 161 137t124 153h262q33 0 33 -14q0 -16 -40 -55t-102 -82q-139 -98 -403 -197z" />
<glyph unicode="&#xce;" horiz-adv-x="794" d="M-6 0l12 74l158 6q33 156 76 418l61 387q49 319 61 452l-155 6l12 74h641l-12 -74l-160 -6q-23 -109 -67 -383l-70 -442q-51 -348 -59 -432l155 -6l-12 -74h-641zM213 1565q57 45 128 133t103 155h301q14 -72 57.5 -158.5t88.5 -129.5l-39 -60q-82 31 -156.5 84 t-115.5 111q-141 -131 -334 -195z" />
<glyph unicode="&#xcf;" horiz-adv-x="794" d="M-6 0l12 74l158 6q33 156 76 418l61 387q49 319 61 452l-155 6l12 74h641l-12 -74l-160 -6q-23 -109 -67 -383l-70 -442q-51 -348 -59 -432l155 -6l-12 -74h-641zM186 1706q0 66 45 111t115 45t114 -44t44 -114t-44 -115t-114 -45q-72 0 -116 45t-44 117zM635 1706 q0 66 45 111t114.5 45t113.5 -44t44 -114t-44 -115t-113 -45q-72 0 -116 45t-44 117z" />
<glyph unicode="&#xd0;" horiz-adv-x="1513" d="M-16 0l12 72l158 6q35 154 75 418l29 182h-180l12 86h182l19 125q47 301 61 450l-155 7l12 71h489q360 0 508 -84q227 -133 228 -481q0 -207 -68 -384t-186 -288q-111 -100 -248 -140t-375 -40h-573zM481 86h43q279 0 416 190q76 106 123 287.5t47 360.5q0 221 -83 314 t-277 93h-72q-31 -133 -68 -381l-30 -186h245l-14 -86h-244l-26 -164q-52 -348 -60 -428z" />
<glyph unicode="&#xd1;" horiz-adv-x="1513" d="M-20 0l12 74l158 6q27 129 67 371l88 548q47 334 47 338l-157 6l10 74h497q63 -168 138 -338l303 -719l88 574q39 260 49 403l-145 6l10 74h448l-10 -74l-158 -6q-23 -98 -75 -409l-148 -928h-254q-16 57 -119 309l-374 891l-107 -690q-53 -362 -55 -430l147 -6l-12 -74 h-448zM600 1554q29 141 88.5 218t138.5 77q68 0 215 -55q127 -45 164 -45q35 0 55.5 22.5t34.5 77.5h72q-61 -297 -246 -297q-45 0 -79.5 10.5t-202.5 69.5q-49 20 -82 21q-53 0 -82 -99h-76z" />
<glyph unicode="&#xd2;" horiz-adv-x="1560" d="M139 596q0 162 54.5 320.5t150.5 277.5q199 248 543 248q281 0 436.5 -162t155.5 -453q0 -174 -57.5 -336.5t-159.5 -281.5q-201 -233 -531 -234q-283 0 -437.5 162t-154.5 459zM457 492q0 -213 65.5 -325t190.5 -112q209 0 325 256q123 266 123 615q0 223 -62.5 329.5 t-195.5 106.5q-195 0 -311 -244q-59 -123 -97 -296.5t-38 -329.5zM741 1833q0 20 37 20h242q23 -72 80 -154.5t123 -135.5l-37 -58q-188 78 -305 164q-57 43 -98.5 92t-41.5 72z" />
<glyph unicode="&#xd3;" horiz-adv-x="1560" d="M139 596q0 162 54.5 320.5t150.5 277.5q199 248 543 248q281 0 436.5 -162t155.5 -453q0 -174 -57.5 -336.5t-159.5 -281.5q-201 -233 -531 -234q-283 0 -437.5 162t-154.5 459zM457 492q0 -213 65.5 -325t190.5 -112q209 0 325 256q123 266 123 615q0 223 -62.5 329.5 t-195.5 106.5q-195 0 -311 -244q-59 -123 -97 -296.5t-38 -329.5zM791 1563q80 55 160.5 137t123.5 153h262q33 0 33 -14q0 -16 -40 -55t-101 -82q-139 -98 -404 -197z" />
<glyph unicode="&#xd4;" horiz-adv-x="1560" d="M139 596q0 162 54.5 320.5t150.5 277.5q199 248 543 248q281 0 436.5 -162t155.5 -453q0 -174 -57.5 -336.5t-159.5 -281.5q-201 -233 -531 -234q-283 0 -437.5 162t-154.5 459zM457 492q0 -213 65.5 -325t190.5 -112q209 0 325 256q123 266 123 615q0 223 -62.5 329.5 t-195.5 106.5q-195 0 -311 -244q-59 -123 -97 -296.5t-38 -329.5zM569 1565q57 45 128 133t104 155h301q14 -72 57 -158.5t88 -129.5l-39 -60q-82 31 -156.5 84t-115.5 111q-141 -131 -334 -195z" />
<glyph unicode="&#xd5;" horiz-adv-x="1560" d="M139 596q0 162 54.5 320.5t150.5 277.5q199 248 543 248q281 0 436.5 -162t155.5 -453q0 -174 -57.5 -336.5t-159.5 -281.5q-201 -233 -531 -234q-283 0 -437.5 162t-154.5 459zM457 492q0 -213 65.5 -325t190.5 -112q209 0 325 256q123 266 123 615q0 223 -62.5 329.5 t-195.5 106.5q-195 0 -311 -244q-59 -123 -97 -296.5t-38 -329.5zM602 1554q29 141 88.5 218t138.5 77q68 0 215 -55q127 -45 164 -45q35 0 55.5 22.5t34.5 77.5h72q-61 -297 -246 -297q-45 0 -79.5 10.5t-202.5 69.5q-49 20 -82 21q-55 0 -82 -99h-76z" />
<glyph unicode="&#xd6;" horiz-adv-x="1560" d="M139 596q0 162 54.5 320.5t150.5 277.5q199 248 543 248q281 0 436.5 -162t155.5 -453q0 -174 -57.5 -336.5t-159.5 -281.5q-201 -233 -531 -234q-283 0 -437.5 162t-154.5 459zM457 492q0 -213 65.5 -325t190.5 -112q209 0 325 256q123 266 123 615q0 223 -62.5 329.5 t-195.5 106.5q-195 0 -311 -244q-59 -123 -97 -296.5t-38 -329.5zM563 1706q0 66 45 111t115 45t114 -44t44 -114t-44 -115t-114 -45q-72 0 -116 45t-44 117zM1012 1706q0 66 45 111t114.5 45t113.5 -44t44 -114t-44 -115t-114 -45q-72 0 -115.5 45t-43.5 117z" />
<glyph unicode="&#xd7;" d="M127 213l309 311l-309 310l154 153l309 -311l309 311l154 -153l-310 -310l310 -311l-154 -152l-309 310l-309 -310z" />
<glyph unicode="&#xd8;" horiz-adv-x="1560" d="M74 -6l180 192q-115 166 -115 400q0 358 205 608q203 248 537 248q266 0 422 -142l174 185l67 -64l-180 -190q117 -170 117 -408q0 -170 -57.5 -333.5t-159.5 -280.5q-201 -233 -531 -234q-270 0 -418 142l-174 -187zM457 489q0 -49 4 -86l682 730q-29 121 -84 175 t-156 54q-190 0 -311 -244q-61 -123 -98 -296t-37 -333zM477 287q59 -231 236 -232q254 0 372 375q78 229 78 512q0 49 -4 74z" />
<glyph unicode="&#xd9;" horiz-adv-x="1497" d="M190 1343l13 74h641l-13 -74l-159 -6q-20 -98 -68 -379l-61 -395q-25 -164 -25 -258q0 -225 236 -225q195 0 297 125q72 88 114 360l58 369q39 256 55 403l-156 6l11 74h452l-12 -74l-156 -6q-12 -49 -22 -114l-43 -236l-19 -104l-45 -291q-31 -207 -59.5 -302 t-77.5 -153q-133 -162 -418 -162q-522 0 -522 359q0 90 35 315l39 240q49 315 61 448zM596 1833q0 20 37 20h241q23 -72 80.5 -154.5t122.5 -135.5l-37 -58q-188 78 -305 164q-57 43 -98 92t-41 72z" />
<glyph unicode="&#xda;" horiz-adv-x="1497" d="M190 1343l13 74h641l-13 -74l-159 -6q-20 -98 -68 -379l-61 -395q-25 -164 -25 -258q0 -225 236 -225q195 0 297 125q72 88 114 360l58 369q39 256 55 403l-156 6l11 74h452l-12 -74l-156 -6q-12 -49 -22 -114l-43 -236l-19 -104l-45 -291q-31 -207 -59.5 -302 t-77.5 -153q-133 -162 -418 -162q-522 0 -522 359q0 90 35 315l39 240q49 315 61 448zM887 1563q80 55 160.5 137t123.5 153h263q33 0 32 -14q0 -16 -40 -55t-101 -82q-139 -98 -403 -197z" />
<glyph unicode="&#xdb;" horiz-adv-x="1497" d="M190 1343l13 74h641l-13 -74l-159 -6q-20 -98 -68 -379l-61 -395q-25 -164 -25 -258q0 -225 236 -225q195 0 297 125q72 88 114 360l58 369q39 256 55 403l-156 6l11 74h452l-12 -74l-156 -6q-12 -49 -22 -114l-43 -236l-19 -104l-45 -291q-31 -207 -59.5 -302 t-77.5 -153q-133 -162 -418 -162q-522 0 -522 359q0 90 35 315l39 240q49 315 61 448zM659 1565q57 45 128 133t104 155h301q14 -72 57 -158.5t88 -129.5l-39 -60q-82 31 -156.5 84t-115.5 111q-141 -131 -334 -195z" />
<glyph unicode="&#xdc;" horiz-adv-x="1497" d="M190 1343l13 74h641l-13 -74l-159 -6q-20 -98 -68 -379l-61 -395q-25 -164 -25 -258q0 -225 236 -225q195 0 297 125q72 88 114 360l58 369q39 256 55 403l-156 6l11 74h452l-12 -74l-156 -6q-12 -49 -22 -114l-43 -236l-19 -104l-45 -291q-31 -207 -59.5 -302 t-77.5 -153q-133 -162 -418 -162q-522 0 -522 359q0 90 35 315l39 240q49 315 61 448zM575 1706q0 66 45.5 111t115 45t113.5 -44t44 -114t-44 -115t-114 -45q-72 0 -116 45t-44 117zM1024 1706q0 66 45 111t114.5 45t113.5 -44t44 -114t-44 -115t-113 -45q-72 0 -116 45 t-44 117z" />
<glyph unicode="&#xdd;" horiz-adv-x="1220" d="M84 1343l12 74h606l-12 -74l-162 -6q20 -78 90 -270l109 -305l158 237q184 281 217 340l-139 4l10 74h409l-12 -74l-110 -6q-94 -117 -248 -346l-224 -325q-14 -37 -46.5 -244t-45.5 -346l164 -6l-10 -70h-662l13 70l166 6q78 330 96 579l-184 478q-61 152 -89 204z M733 1563q80 55 161 137t124 153h262q33 0 33 -14q0 -16 -40 -55t-102 -82q-139 -98 -403 -197z" />
<glyph unicode="&#xde;" horiz-adv-x="1306" d="M-16 0l12 74l158 6q27 119 75 418l62 393q47 301 61 446l-155 6l12 74h641l-12 -74l-160 -6q-18 -82 -37 -202h80q160 0 247 -15.5t148 -56.5q139 -88 139 -277q0 -252 -180 -370q-131 -86 -385 -86h-176q-14 -98 -20 -137l-13 -113l156 -6l-12 -74h-641zM526 418h56 q104 0 159.5 19.5t100.5 72.5q96 117 96 317q0 125 -53.5 173.5t-186.5 48.5h-73z" />
<glyph unicode="&#xdf;" horiz-adv-x="1312" d="M-39 0l12 74l131 6q25 106 68 364l92 574q29 174 52.5 245.5t72.5 125.5q119 135 379 135q223 0 343 -89t120 -255q0 -190 -129 -283q-76 -55 -240 -90q162 -25 234 -90q98 -88 98 -256q0 -227 -143 -361q-127 -125 -371 -125q-102 0 -182 27l26 74q47 -16 82 -17 q143 0 217 168q57 129 58 291q0 240 -193 240h-26l12 73h16q109 0 164 103q72 135 72 336q0 180 -133 180q-66 0 -110 -44t-71 -138q-25 -86 -53 -260l-90 -572q-10 -100 -20 -153q-25 -147 -39 -283h-449z" />
<glyph unicode="&#xe0;" horiz-adv-x="1300" d="M98 412q0 287 139.5 474t350.5 187q190 0 293 -164l22 140h293l-78 -437l-55 -352q-10 -59 -10 -88q0 -74 59 -74q37 0 109 33l34 -72q-135 -84 -282 -84q-100 0 -147.5 36t-55.5 118q-63 -82 -135 -118t-176 -36q-174 0 -267.5 113t-93.5 324zM416 395q0 -133 42 -203.5 t120 -70.5q111 0 192 143l84 531q-74 131 -176 131q-125 0 -201 -195q-61 -152 -61 -336zM514 1497q0 20 37 21h242q23 -72 80 -155t122 -136l-37 -58q-188 78 -305 164q-57 43 -98 92t-41 72z" />
<glyph unicode="&#xe1;" horiz-adv-x="1300" d="M98 412q0 287 139.5 474t350.5 187q190 0 293 -164l22 140h293l-78 -437l-55 -352q-10 -59 -10 -88q0 -74 59 -74q37 0 109 33l34 -72q-135 -84 -282 -84q-100 0 -147.5 36t-55.5 118q-63 -82 -135 -118t-176 -36q-174 0 -267.5 113t-93.5 324zM416 395q0 -133 42 -203.5 t120 -70.5q111 0 192 143l84 531q-74 131 -176 131q-125 0 -201 -195q-61 -152 -61 -336zM573 1227q80 55 161 137t124 154h262q33 0 33 -15q0 -16 -40 -55t-101 -82q-139 -98 -404 -197z" />
<glyph unicode="&#xe2;" horiz-adv-x="1300" d="M98 412q0 287 139.5 474t350.5 187q190 0 293 -164l22 140h293l-78 -437l-55 -352q-10 -59 -10 -88q0 -74 59 -74q37 0 109 33l34 -72q-135 -84 -282 -84q-100 0 -147.5 36t-55.5 118q-63 -82 -135 -118t-176 -36q-174 0 -267.5 113t-93.5 324zM391 1229q57 43 128 131 t104 158h301q14 -70 58 -158t87 -131l-39 -60q-82 29 -156.5 83.5t-115.5 111.5q-141 -131 -334 -195zM416 395q0 -133 42 -203.5t120 -70.5q111 0 192 143l84 531q-74 131 -176 131q-125 0 -201 -195q-61 -152 -61 -336z" />
<glyph unicode="&#xe3;" horiz-adv-x="1300" d="M98 412q0 287 139.5 474t350.5 187q190 0 293 -164l22 140h293l-78 -437l-55 -352q-10 -59 -10 -88q0 -74 59 -74q37 0 109 33l34 -72q-135 -84 -282 -84q-100 0 -147.5 36t-55.5 118q-63 -82 -135 -118t-176 -36q-174 0 -267.5 113t-93.5 324zM399 1223q29 141 88.5 217 t139.5 76q66 0 215 -54q121 -45 164 -45q35 0 55 22.5t35 76.5h71q-57 -295 -245 -295q-45 0 -81 10t-202 69q-53 18 -82 19q-55 0 -82 -96h-76zM416 395q0 -133 42 -203.5t120 -70.5q111 0 192 143l84 531q-74 131 -176 131q-125 0 -201 -195q-61 -152 -61 -336z" />
<glyph unicode="&#xe4;" horiz-adv-x="1300" d="M98 412q0 287 139.5 474t350.5 187q190 0 293 -164l22 140h293l-78 -437l-55 -352q-10 -59 -10 -88q0 -74 59 -74q37 0 109 33l34 -72q-135 -84 -282 -84q-100 0 -147.5 36t-55.5 118q-63 -82 -135 -118t-176 -36q-174 0 -267.5 113t-93.5 324zM401 1370q0 68 45.5 113 t115 45t113.5 -44t44 -114t-44 -115t-113.5 -45t-115 44t-45.5 116zM416 395q0 -133 42 -203.5t120 -70.5q111 0 192 143l84 531q-74 131 -176 131q-125 0 -201 -195q-61 -152 -61 -336zM850 1370q0 68 45 113t114.5 45t113.5 -44t44 -114t-44 -115t-113 -45q-72 0 -116 44 t-44 116z" />
<glyph unicode="&#xe5;" horiz-adv-x="1300" d="M98 412q0 287 139.5 474t350.5 187q190 0 293 -164l22 140h293l-78 -437l-55 -352q-10 -59 -10 -88q0 -74 59 -74q37 0 109 33l34 -72q-135 -84 -282 -84q-100 0 -147.5 36t-55.5 118q-63 -82 -135 -118t-176 -36q-174 0 -267.5 113t-93.5 324zM416 395q0 -133 42 -203.5 t120 -70.5q111 0 192 143l84 531q-74 131 -176 131q-125 0 -201 -195q-61 -152 -61 -336zM569 1384q0 88 61.5 146.5t156 58.5t156 -58t61.5 -148.5t-61.5 -148.5t-156.5 -58q-96 0 -156.5 58t-60.5 150zM670 1382q0 -57 30.5 -88.5t85.5 -31.5q53 0 85 32.5t32 88t-31.5 88 t-85 32.5t-85 -33t-31.5 -88z" />
<glyph unicode="&#xe6;" horiz-adv-x="1888" d="M98 410q0 250 125 452q129 209 369 209q186 0 289 -162l22 140h180l-24 -138q135 162 348 162q209 0 309 -117q82 -94 82 -284q0 -82 -10 -156h-678q-14 -72 -14 -147q0 -299 258 -299q137 0 272 88l47 -76q-168 -106 -391 -107q-317 0 -428 234q-129 -233 -389 -234 q-367 1 -367 435zM418 387q0 -129 43 -197.5t121 -68.5q84 0 145 84q45 63 66 192l61 398q-74 131 -172 131q-131 0 -207 -203q-57 -143 -57 -336zM1122 596h361q18 86 18 192q0 113 -26.5 161t-92.5 48q-88 0 -159.5 -110.5t-100.5 -290.5z" />
<glyph unicode="&#xe7;" horiz-adv-x="1077" d="M96 422q0 272 152 457q160 193 459 192q184 0 350 -70l-51 -296h-230l25 266q-41 20 -82 20q-145 0 -232 -219q-33 -80 -55 -199.5t-22 -214.5q0 -287 223 -286q125 0 266 88l43 -74q-160 -111 -367 -111q-231 0 -355 115t-124 332zM139 -410q225 176 242 334h233 q39 0 39 -22q0 -47 -58 -114t-153 -124q-66 -41 -268 -133z" />
<glyph unicode="&#xe8;" horiz-adv-x="1200" d="M98 428q0 252 142 436q156 207 444 207q225 0 338 -108q90 -92 90 -293q0 -72 -12 -154h-678q-12 -90 -12 -147q0 -299 258 -299q135 0 272 88l47 -76q-176 -106 -395 -107q-238 0 -366 118t-128 335zM436 596h361q18 111 18 195q0 111 -27.5 157.5t-91.5 46.5 q-90 0 -157.5 -104.5t-102.5 -294.5zM489 1497q0 20 37 21h242q23 -72 80 -155t123 -136l-37 -58q-188 78 -305 164q-57 43 -98.5 92t-41.5 72z" />
<glyph unicode="&#xe9;" horiz-adv-x="1200" d="M98 428q0 252 142 436q156 207 444 207q225 0 338 -108q90 -92 90 -293q0 -72 -12 -154h-678q-12 -90 -12 -147q0 -299 258 -299q135 0 272 88l47 -76q-176 -106 -395 -107q-238 0 -366 118t-128 335zM436 596h361q18 111 18 195q0 111 -27.5 157.5t-91.5 46.5 q-90 0 -157.5 -104.5t-102.5 -294.5zM567 1227q80 55 161 137t124 154h262q33 0 33 -15q0 -16 -40 -55t-101 -82q-139 -98 -404 -197z" />
<glyph unicode="&#xea;" horiz-adv-x="1200" d="M98 428q0 252 142 436q156 207 444 207q225 0 338 -108q90 -92 90 -293q0 -72 -12 -154h-678q-12 -90 -12 -147q0 -299 258 -299q135 0 272 88l47 -76q-176 -106 -395 -107q-238 0 -366 118t-128 335zM375 1229q57 43 127.5 131t103.5 158h301q14 -70 58.5 -158 t87.5 -131l-39 -60q-82 29 -157 83.5t-116 111.5q-141 -131 -333 -195zM436 596h361q18 111 18 195q0 111 -27.5 157.5t-91.5 46.5q-90 0 -157.5 -104.5t-102.5 -294.5z" />
<glyph unicode="&#xeb;" horiz-adv-x="1200" d="M98 428q0 252 142 436q156 207 444 207q225 0 338 -108q90 -92 90 -293q0 -72 -12 -154h-678q-12 -90 -12 -147q0 -299 258 -299q135 0 272 88l47 -76q-176 -106 -395 -107q-238 0 -366 118t-128 335zM350 1370q0 68 45 113t115 45t114 -44t44 -114t-44 -115t-114 -45 q-72 0 -116 44t-44 116zM436 596h361q18 111 18 195q0 111 -27.5 157.5t-91.5 46.5q-90 0 -157.5 -104.5t-102.5 -294.5zM799 1370q0 68 45 113t114.5 45t113.5 -44t44 -114t-44 -115t-113.5 -45t-114.5 44t-45 116z" />
<glyph unicode="&#xec;" horiz-adv-x="677" d="M98 0q29 129 88 498l13 82q37 236 53 389l-123 6l12 72l443 12q-61 -332 -82 -461l-13 -74q-55 -352 -71 -524h-320zM203 1497q0 20 37 21h241q23 -72 80 -155t123 -136l-37 -58q-188 78 -305 164q-57 43 -98 92t-41 72z" />
<glyph unicode="&#xed;" horiz-adv-x="677" d="M98 0q29 129 88 498l13 82q37 236 53 389l-123 6l12 72l443 12q-61 -332 -82 -461l-13 -74q-55 -352 -71 -524h-320zM248 1227q80 55 160.5 137t123.5 154h263q33 0 32 -15q0 -16 -39.5 -55t-101.5 -82q-139 -98 -403 -197z" />
<glyph unicode="&#xee;" horiz-adv-x="677" d="M82 1229q57 43 128 131t103 158h301q14 -70 58.5 -158t87.5 -131l-39 -60q-82 29 -157 83.5t-115 111.5q-141 -131 -334 -195zM98 0q29 129 88 498l15 82q43 281 51 389l-123 6l12 72l443 12q-51 -268 -82 -461l-10 -74q-55 -328 -74 -524h-320z" />
<glyph unicode="&#xef;" horiz-adv-x="677" d="M63 1370q0 68 45.5 113t115 45t113.5 -44t44 -114t-44 -115t-114 -45q-72 0 -116 44t-44 116zM98 0q29 139 88 498l13 82q41 281 53 389l-123 6l10 72l445 12q-45 -229 -82 -461l-13 -74q-51 -326 -73 -524h-318zM512 1370q0 68 45 113t114.5 45t113.5 -44t44 -114 t-44 -115t-113.5 -45t-114.5 44t-45 116z" />
<glyph unicode="&#xf0;" horiz-adv-x="1234" d="M90 403q0 248 156 414q135 143 338 144q174 0 268 -95q-23 205 -145 357l-304 -136l-32 82l274 121q-96 104 -274 144l32 79q260 -27 408 -151l246 111l35 -82l-207 -93q254 -291 254 -645q0 -324 -155 -501t-435 -177q-217 0 -338 112.5t-121 315.5zM403 307 q0 -121 40 -187.5t112 -66.5q131 0 207 201q63 166 63 342q0 125 -42 194.5t-119 69.5q-123 0 -195 -186q-66 -170 -66 -367z" />
<glyph unicode="&#xf1;" horiz-adv-x="1325" d="M98 0q66 360 103 582l10 67q33 225 41 320l-123 6l12 72l424 12l-22 -162q100 94 186 134t186 40q127 0 196 -62.5t69 -177.5q0 -76 -33 -268l-19 -114q-31 -205 -47 -369l129 -6l-12 -74h-444l73 428l25 150q25 166 25 225q0 119 -97 119q-53 0 -123.5 -44t-126.5 -112 l-22 -139q-70 -455 -90 -627h-320zM395 1223q29 141 88.5 217t139.5 76q66 0 215 -54q121 -45 163 -45q35 0 55.5 22.5t35.5 76.5h71q-57 -295 -245 -295q-45 0 -81 10t-202 69q-53 18 -82 19q-55 0 -82 -96h-76z" />
<glyph unicode="&#xf2;" horiz-adv-x="1286" d="M100 444q0 127 45 247t127 208q158 172 435 172q231 0 355 -120t124 -343q0 -272 -168 -458q-160 -174 -436 -175q-258 0 -371 134q-111 126 -111 335zM414 334q0 -281 166 -281q70 0 128 59.5t97 170.5q66 205 65 417q0 293 -165 293q-160 0 -246 -307 q-45 -174 -45 -352zM545 1497q0 20 37 21h241q23 -72 80.5 -155t122.5 -136l-37 -58q-188 78 -305 164q-57 43 -98 92t-41 72z" />
<glyph unicode="&#xf3;" horiz-adv-x="1286" d="M100 444q0 127 45 247t127 208q158 172 435 172q231 0 355 -120t124 -343q0 -272 -168 -458q-160 -174 -436 -175q-258 0 -371 134q-111 126 -111 335zM414 334q0 -281 166 -281q70 0 128 59.5t97 170.5q66 205 65 417q0 293 -165 293q-160 0 -246 -307 q-45 -174 -45 -352zM602 1227q80 55 161 137t124 154h262q33 0 33 -15q0 -16 -40 -55t-102 -82q-139 -98 -403 -197z" />
<glyph unicode="&#xf4;" horiz-adv-x="1286" d="M100 444q0 127 45 247t127 208q158 172 435 172q231 0 355 -120t124 -343q0 -272 -168 -458q-160 -174 -436 -175q-258 0 -371 134q-111 126 -111 335zM399 1229q57 43 128 131t104 158h301q14 -70 58 -158t87 -131l-39 -60q-82 29 -156.5 83.5t-115.5 111.5 q-141 -131 -334 -195zM414 334q0 -281 166 -281q70 0 128 59.5t97 170.5q66 205 65 417q0 293 -165 293q-160 0 -246 -307q-45 -174 -45 -352z" />
<glyph unicode="&#xf5;" horiz-adv-x="1286" d="M100 444q0 127 45 247t127 208q158 172 435 172q231 0 355 -120t124 -343q0 -272 -168 -458q-160 -174 -436 -175q-258 0 -371 134q-111 126 -111 335zM406 1223q29 141 88 217t139 76q66 0 215 -54q121 -45 164 -45q35 0 55 22.5t35 76.5h72q-59 -295 -246 -295 q-47 0 -82 10t-201 69q-51 18 -82 19q-55 0 -82 -96h-75zM414 334q0 -281 166 -281q70 0 128 59.5t97 170.5q66 205 65 417q0 293 -165 293q-160 0 -246 -307q-45 -174 -45 -352z" />
<glyph unicode="&#xf6;" horiz-adv-x="1286" d="M100 444q0 127 45 247t127 208q158 172 435 172q231 0 355 -120t124 -343q0 -272 -168 -458q-160 -174 -436 -175q-258 0 -371 134q-111 126 -111 335zM381 1370q0 68 45 113t114.5 45t113.5 -44t44 -114t-44 -115t-113.5 -45t-114.5 44t-45 116zM414 334 q0 -281 166 -281q70 0 128 59.5t97 170.5q66 205 65 417q0 293 -165 293q-160 0 -246 -307q-45 -174 -45 -352zM829 1370q0 68 45.5 113t115 45t113.5 -44t44 -114t-44 -115t-114 -45q-72 0 -116 44t-44 116z" />
<glyph unicode="&#xf7;" d="M74 416l35 215h997l-35 -215h-997zM340 150q0 70 47 115.5t119 45.5q70 0 116 -47t46 -117q0 -72 -46.5 -117.5t-118 -45.5t-117.5 47t-46 119zM510 901q0 70 47 116t117 46q72 0 119 -47t47 -119q0 -70 -47.5 -117t-116.5 -47q-74 0 -120 46t-46 122z" />
<glyph unicode="&#xf8;" horiz-adv-x="1286" d="M29 -18l157 159q-86 131 -86 301q0 147 58.5 281.5t158.5 220.5q150 127 383 127q188 0 314 -80l139 144l68 -68l-138 -139q102 -121 103 -322q0 -147 -55.5 -279t-153.5 -218q-152 -133 -391 -134q-223 0 -338 97l-154 -158zM414 375l446 459q-39 160 -153 159 q-164 0 -252 -323q-39 -145 -41 -295zM418 244q29 -190 162 -191q94 0 161.5 97.5t102.5 281.5q27 147 28 277z" />
<glyph unicode="&#xf9;" horiz-adv-x="1323" d="M121 975l12 72l442 12l-79 -443l-33 -206q-14 -100 -14 -160q0 -125 94 -125q121 0 254 160l108 684l-133 6l12 72l443 12l-76 -428l-39 -242l-39 -309l123 -6l-12 -74l-424 -10l20 157q-111 -98 -190.5 -135t-186.5 -37q-125 0 -191.5 61.5t-66.5 176.5q0 61 31 270 l19 117q16 88 20 143q16 109 18 144q6 31 11 82zM492 1497q0 20 36 21h242q23 -72 80 -155t123 -136l-37 -58q-188 78 -305 164q-57 43 -98 92t-41 72z" />
<glyph unicode="&#xfa;" horiz-adv-x="1323" d="M121 975l12 72l442 12l-79 -443l-33 -206q-14 -100 -14 -160q0 -125 94 -125q121 0 254 160l108 684l-133 6l12 72l443 12l-76 -428l-39 -242l-39 -309l123 -6l-12 -74l-424 -10l20 157q-111 -98 -190.5 -135t-186.5 -37q-125 0 -191.5 61.5t-66.5 176.5q0 61 31 270 l19 117q16 88 20 143q16 109 18 144q6 31 11 82zM582 1227q80 55 160.5 137t123.5 154h262q33 0 33 -15q0 -16 -40 -55t-101 -82q-139 -98 -404 -197z" />
<glyph unicode="&#xfb;" horiz-adv-x="1323" d="M121 975l12 72l442 12l-79 -443l-33 -206q-14 -100 -14 -160q0 -125 94 -125q121 0 254 160l108 684l-133 6l12 72l443 12l-76 -428l-39 -242l-39 -309l123 -6l-12 -74l-424 -10l20 157q-111 -98 -190.5 -135t-186.5 -37q-125 0 -191.5 61.5t-66.5 176.5q0 61 31 270 l19 117q16 88 20 143q16 109 18 144q6 31 11 82zM391 1229q57 43 128 131t104 158h301q14 -70 58 -158t87 -131l-39 -60q-82 29 -156.5 83.5t-115.5 111.5q-141 -131 -334 -195z" />
<glyph unicode="&#xfc;" horiz-adv-x="1323" d="M121 975l12 72l442 12l-79 -443l-33 -206q-14 -100 -14 -160q0 -125 94 -125q121 0 254 160l108 684l-133 6l12 72l443 12l-76 -428l-39 -242l-39 -309l123 -6l-12 -74l-424 -10l20 157q-111 -98 -190.5 -135t-186.5 -37q-125 0 -191.5 61.5t-66.5 176.5q0 61 31 270 l19 117q16 88 20 143q16 109 18 144q6 31 11 82zM379 1370q0 68 45 113t114.5 45t113.5 -44t44 -114t-44 -115t-113 -45q-72 0 -116 44t-44 116zM827 1370q0 68 45.5 113t115 45t113.5 -44t44 -114t-44 -115t-113.5 -45t-115 44t-45.5 116z" />
<glyph unicode="&#xfd;" horiz-adv-x="1130" d="M-90 -436l57 166q68 -25 127 -25q178 0 297 211l19 33l-154 706q-55 231 -80 314l-96 6l10 74h528l-12 -74l-112 -6q8 -63 49 -262l82 -381l174 311l123 227q35 68 51 109l-154 2l12 74h394l-13 -74l-96 -6q-27 -35 -174 -289l-424 -746q-123 -217 -231.5 -302 t-259.5 -85q-74 1 -117 17zM575 1227q80 55 161 137t124 154h262q33 0 33 -15q0 -16 -40 -55t-101 -82q-139 -98 -404 -197z" />
<glyph unicode="&#xfe;" horiz-adv-x="1314" d="M16 -440q76 399 103 585l143 904q31 195 49 368l-123 6l11 72l438 14l-8 -61l-19 -92q-23 -117 -45 -277l-20 -135q127 127 299 127q180 0 276.5 -113.5t96.5 -328.5q0 -262 -134 -459q-131 -195 -368 -195q-113 0 -181.5 37t-117.5 121l-8 -59q-51 -330 -74 -514h-318z M438 276q61 -176 192.5 -176t211.5 219q61 174 61 367q0 264 -145 264q-106 0 -238 -157z" />
<glyph unicode="&#xff;" horiz-adv-x="1130" d="M-90 -436l57 166q68 -25 127 -25q178 0 297 211l19 33l-154 706q-55 231 -80 314l-96 6l10 74h528l-12 -74l-112 -6q8 -63 49 -262l82 -381l174 311l123 227q35 68 51 109l-154 2l12 74h394l-13 -74l-96 -6q-27 -35 -174 -289l-424 -746q-123 -217 -231.5 -302 t-259.5 -85q-74 1 -117 17zM315 1370q0 68 45.5 113t115 45t113.5 -44t44 -114t-44 -115t-113.5 -45t-115 44t-45.5 116zM764 1370q0 68 45 113t114.5 45t113.5 -44t44 -114t-44 -115t-113 -45q-72 0 -116 44t-44 116z" />
<glyph unicode="&#x100;" horiz-adv-x="1386" d="M-88 0l12 74l113 8q74 113 196 364l281 570q129 260 193 401h223q16 -109 26 -160q33 -180 45 -233l101 -512q63 -299 96 -432l117 -6l-12 -74h-603l11 74l145 6q-10 82 -47 295l-16 88h-426l-39 -82q-111 -242 -133 -303l149 -4l-10 -74h-422zM408 551h368l-102 551z M455 1630l20 125h723l-20 -125h-723z" />
<glyph unicode="&#x101;" horiz-adv-x="1300" d="M98 412q0 287 139.5 474t350.5 187q190 0 293 -164l22 140h293l-78 -437l-55 -352q-10 -59 -10 -88q0 -74 59 -74q37 0 109 33l34 -72q-135 -84 -282 -84q-100 0 -147.5 36t-55.5 118q-63 -82 -135 -118t-176 -36q-174 0 -267.5 113t-93.5 324zM412 1298l20 125h723 l-20 -125h-723zM416 395q0 -133 42 -203.5t120 -70.5q111 0 192 143l84 531q-74 131 -176 131q-125 0 -201 -195q-61 -152 -61 -336z" />
<glyph unicode="&#x102;" horiz-adv-x="1386" d="M-88 0l12 74l113 8q74 113 196 364l281 570q129 260 193 401h223q16 -109 26 -160q33 -180 45 -233l101 -512q63 -299 96 -432l117 -6l-12 -74h-603l11 74l145 6q-10 82 -47 295l-16 88h-426l-39 -82q-111 -242 -133 -303l149 -4l-10 -74h-422zM408 551h368l-102 551z M528 1794q0 49 13 94h71v-26q0 -72 53.5 -102.5t182.5 -30.5t185.5 33.5t82.5 125.5h74q-18 -154 -74 -223q-86 -123 -282 -123q-306 0 -306 252z" />
<glyph unicode="&#x103;" horiz-adv-x="1300" d="M98 412q0 287 139.5 474t350.5 187q190 0 293 -164l22 140h293l-78 -437l-55 -352q-10 -59 -10 -88q0 -74 59 -74q37 0 109 33l34 -72q-135 -84 -282 -84q-100 0 -147.5 36t-55.5 118q-63 -82 -135 -118t-176 -36q-174 0 -267.5 113t-93.5 324zM416 395q0 -133 42 -203.5 t120 -70.5q111 0 192 143l84 531q-74 131 -176 131q-125 0 -201 -195q-61 -152 -61 -336zM473 1440q0 47 10 110h74q2 -94 48 -125.5t183 -31.5q131 0 187.5 32.5t83.5 124.5h74q-14 -174 -103.5 -259t-257.5 -85q-299 1 -299 234z" />
<glyph unicode="&#x104;" horiz-adv-x="1386" d="M-88 0l12 74l113 8q74 113 196 364l281 570l193 401h223q14 -106 26 -160q25 -135 45 -233l101 -512q41 -195 96 -432l117 -6l-12 -74q-209 -123 -209 -279q0 -104 112 -104q35 0 84 14l2 -69q-84 -31 -184 -31q-254 0 -254 172q0 96 77 165t257 132h-488l11 74l145 6 q-12 92 -47 295l-16 88h-426l-39 -82q-121 -270 -133 -303l149 -4l-10 -74h-422zM408 551h368l-102 551z" />
<glyph unicode="&#x105;" horiz-adv-x="1300" d="M98 412q0 287 139.5 474t350.5 187q190 0 293 -164l22 140h293q-2 -16 -9 -55l-11 -58l-58 -324l-55 -352q-10 -68 -10 -84q0 -78 59 -78q37 0 109 33l34 -74q-18 -12 -43 -22l-73 -31q-82 -33 -156 -110q-70 -76 -70 -176.5t113 -100.5q35 0 84 14l2 -69 q-84 -31 -184 -31q-254 0 -254 172q0 168 272 274q-88 6 -129 41t-47 111q-63 -82 -135 -118t-176 -36q-174 0 -267.5 113t-93.5 324zM416 395q0 -133 42 -203.5t120 -70.5q111 0 192 143l84 531q-74 131 -176 131q-125 0 -201 -195q-61 -152 -61 -336z" />
<glyph unicode="&#x106;" horiz-adv-x="1378" d="M135 563q0 182 63.5 352t176.5 293q215 236 565 236q227 0 430 -92l-49 -314h-236l25 277q-59 37 -147 37q-225 0 -371 -271q-131 -246 -131 -563q0 -219 82 -335.5t235 -116.5q84 0 154 30l67 291h236l-51 -317q-190 -94 -428 -95q-332 0 -488 181q-133 155 -133 407z M784 1563q80 55 161 137t124 153h262q33 0 33 -14q0 -16 -40 -55t-101 -82q-139 -98 -404 -197z" />
<glyph unicode="&#x107;" horiz-adv-x="1077" d="M96 422q0 272 152 457q160 193 459 192q184 0 350 -70l-51 -296h-230l25 266q-41 20 -82 20q-145 0 -232 -219q-33 -80 -55 -199.5t-22 -214.5q0 -287 223 -286q125 0 266 88l43 -74q-160 -111 -367 -111q-231 0 -355 115t-124 332zM524 1227q80 55 161 137t124 154h262 q33 0 33 -15q0 -16 -40 -55t-101 -82q-139 -98 -404 -197z" />
<glyph unicode="&#x108;" horiz-adv-x="1378" d="M135 563q0 182 63.5 352t176.5 293q215 236 565 236q227 0 430 -92l-49 -314h-236l25 277q-59 37 -147 37q-225 0 -371 -271q-131 -246 -131 -563q0 -219 82 -335.5t235 -116.5q84 0 154 30l67 291h236l-51 -317q-190 -94 -428 -95q-332 0 -488 181q-133 155 -133 407z M631 1565q57 45 127.5 133t103.5 155h301q14 -72 57.5 -158.5t88.5 -129.5l-39 -60q-82 31 -157 84t-116 111q-141 -131 -333 -195z" />
<glyph unicode="&#x109;" horiz-adv-x="1077" d="M96 422q0 272 152 457q160 193 459 192q184 0 350 -70l-51 -296h-230l25 266q-41 20 -82 20q-145 0 -232 -219q-33 -80 -55 -199.5t-22 -214.5q0 -287 223 -286q125 0 266 88l43 -74q-160 -111 -367 -111q-231 0 -355 115t-124 332zM373 1229q57 43 127.5 131t103.5 158 h301q14 -70 58.5 -158t87.5 -131l-39 -60q-82 29 -157 83.5t-116 111.5q-141 -131 -333 -195z" />
<glyph unicode="&#x10a;" horiz-adv-x="1378" d="M135 563q0 182 63.5 352t176.5 293q215 236 565 236q227 0 430 -92l-49 -314h-236l25 277q-59 37 -147 37q-225 0 -371 -271q-131 -246 -131 -563q0 -219 82 -335.5t235 -116.5q84 0 154 30l67 291h236l-51 -317q-190 -94 -428 -95q-332 0 -488 181q-133 155 -133 407z M827 1706q0 70 46.5 115t117.5 45q70 0 116 -46t46 -116q0 -72 -45 -118t-116.5 -46t-118 46t-46.5 120z" />
<glyph unicode="&#x10b;" horiz-adv-x="1077" d="M96 422q0 272 152 457q160 193 459 192q184 0 350 -70l-51 -296h-230l25 266q-41 20 -82 20q-145 0 -232 -219q-33 -80 -55 -199.5t-22 -214.5q0 -287 223 -286q125 0 266 88l43 -74q-160 -111 -367 -111q-231 0 -355 115t-124 332zM582 1372q0 70 46 115t117 45 q70 0 116 -45t46 -117t-45 -118t-116.5 -46t-117.5 46t-46 120z" />
<glyph unicode="&#x10c;" horiz-adv-x="1378" d="M135 563q0 182 63.5 352t176.5 293q215 236 565 236q227 0 430 -92l-49 -314h-236l25 277q-59 37 -147 37q-225 0 -371 -271q-131 -246 -131 -563q0 -219 82 -335.5t235 -116.5q84 0 154 30l67 291h236l-51 -317q-190 -94 -428 -95q-332 0 -488 181q-133 155 -133 407z M657 1835l39 59q82 -31 157 -84t116 -110q141 131 334 194l32 -59q-59 -45 -128.5 -132t-102.5 -157h-301q-14 70 -58.5 158t-87.5 131z" />
<glyph unicode="&#x10d;" horiz-adv-x="1077" d="M96 422q0 272 152 457q160 193 459 192q184 0 350 -70l-51 -296h-230l25 266q-41 20 -82 20q-145 0 -232 -219q-33 -80 -55 -199.5t-22 -214.5q0 -287 223 -286q125 0 266 88l43 -74q-160 -111 -367 -111q-231 0 -355 115t-124 332zM440 1497l39 59q82 -31 157 -84 t116 -110q141 131 333 194l33 -59q-59 -45 -128.5 -132t-102.5 -157h-301q-14 72 -57.5 158t-88.5 131z" />
<glyph unicode="&#x10e;" horiz-adv-x="1513" d="M-16 0l12 72l158 6q31 145 75 418l62 395q47 274 61 448l-153 7l10 71h489q362 0 508 -84q227 -129 228 -481q0 -205 -68 -384t-188 -290q-109 -98 -247 -138t-374 -40h-573zM473 1835l39 59q82 -31 156.5 -84t115.5 -110q141 131 334 194l33 -59q-59 -45 -129 -132 t-102 -157h-302q-14 70 -58 158t-87 131zM481 86h43q147 0 246.5 46t169.5 147q76 106 123 287.5t47 361.5q0 219 -83 311t-277 92h-72q-31 -135 -68 -381l-69 -436z" />
<glyph unicode="&#x10f;" horiz-adv-x="1615" d="M98 406q0 262 129 456q141 209 377 209q193 0 297 -143l19 119q45 299 49 370l-131 6l12 74l438 12q-66 -356 -106 -626l-68 -428q-41 -262 -49 -375l129 -6l-12 -74h-416l14 129q-121 -154 -317 -154q-178 0 -271.5 110t-93.5 321zM412 354q0 -254 147 -254 q59 0 128 50.5t110 125.5l84 517q-76 158 -189 157q-133 0 -215 -213q-65 -172 -65 -383zM1389 877q121 162 151 297q-143 31 -143 165q0 80 49 129.5t127 49.5t126 -49.5t48 -131.5q0 -195 -279 -520z" />
<glyph unicode="&#x110;" horiz-adv-x="1513" d="M-16 0l12 72l158 6q35 154 75 418l29 182h-180l12 86h182l19 125q47 301 61 450l-155 7l12 71h489q360 0 508 -84q227 -133 228 -481q0 -207 -68 -384t-186 -288q-111 -100 -248 -140t-375 -40h-573zM481 86h43q279 0 416 190q76 106 123 287.5t47 360.5q0 221 -83 314 t-277 93h-72q-31 -133 -68 -381l-30 -186h245l-14 -86h-244l-26 -164q-52 -348 -60 -428z" />
<glyph unicode="&#x111;" horiz-adv-x="1312" d="M98 408q0 260 129 454q139 211 377 211q190 0 297 -145l41 262h-274l12 82h272q10 68 17 145l-131 6l12 74l438 12l-43 -237h170l-14 -82h-170l-117 -735q-41 -266 -49 -375l129 -6l-12 -74h-416l14 129q-121 -154 -317 -154q-178 0 -271.5 111t-93.5 322zM412 354 q0 -254 147 -254q59 0 128 50.5t110 125.5l84 517q-78 160 -189 159q-133 0 -215 -213q-65 -176 -65 -385z" />
<glyph unicode="&#x112;" horiz-adv-x="1259" d="M-16 0l12 72l158 6q37 178 75 418l62 393q49 319 61 450l-155 7l12 71h1079l-59 -368h-230l33 282h-354q-23 -96 -68 -381l-28 -182h419l-16 -100h-420l-24 -154q-29 -205 -45 -307q-2 -14 -7.5 -57.5t-7.5 -63.5h396l59 285h229l-59 -371h-1122zM414 1630l20 125h723 l-20 -125h-723z" />
<glyph unicode="&#x113;" horiz-adv-x="1200" d="M98 428q0 252 142 436q156 207 444 207q225 0 338 -108q90 -92 90 -293q0 -72 -12 -154h-678q-12 -90 -12 -147q0 -299 258 -299q135 0 272 88l47 -76q-176 -106 -395 -107q-238 0 -366 118t-128 335zM334 1298l20 125h723l-20 -125h-723zM436 596h361q18 111 18 195 q0 111 -27.5 157.5t-91.5 46.5q-90 0 -157.5 -104.5t-102.5 -294.5z" />
<glyph unicode="&#x114;" horiz-adv-x="1259" d="M-16 0l12 72l158 6q37 178 75 418l62 393q49 319 61 450l-155 7l12 71h1079l-59 -368h-230l33 282h-354q-23 -96 -68 -381l-28 -182h419l-16 -100h-420l-24 -154q-29 -205 -45 -307q-2 -14 -7.5 -57.5t-7.5 -63.5h396l59 285h229l-59 -371h-1122zM512 1794q0 49 12 94h72 v-26q0 -72 53 -102.5t182.5 -30.5t185.5 33.5t83 125.5h74q-18 -154 -74 -223q-86 -123 -283 -123q-305 0 -305 252z" />
<glyph unicode="&#x116;" horiz-adv-x="1259" d="M-16 0l12 72l158 6q37 178 75 418l62 393q49 319 61 450l-155 7l12 71h1079l-59 -368h-230l33 282h-354q-23 -96 -68 -381l-28 -182h419l-16 -100h-420l-24 -154q-29 -205 -45 -307q-2 -14 -7.5 -57.5t-7.5 -63.5h396l59 285h229l-59 -371h-1122zM657 1706q0 70 46.5 115 t118 45t116.5 -46t45 -116q0 -72 -45 -118t-116.5 -46t-118 46t-46.5 120z" />
<glyph unicode="&#x117;" horiz-adv-x="1200" d="M98 428q0 252 142 436q156 207 444 207q225 0 338 -108q90 -92 90 -293q0 -72 -12 -154h-678q-12 -90 -12 -147q0 -299 258 -299q135 0 272 88l47 -76q-176 -106 -395 -107q-238 0 -366 118t-128 335zM436 596h361q18 111 18 195q0 111 -27.5 157.5t-91.5 46.5 q-90 0 -157.5 -104.5t-102.5 -294.5zM573 1372q0 70 46.5 115t117.5 45q70 0 116 -45t46 -117t-45 -118t-116.5 -46t-118 46t-46.5 120z" />
<glyph unicode="&#x118;" horiz-adv-x="1259" d="M-16 0l12 72l158 6q35 172 75 418l62 393q47 287 61 450l-155 7l12 71h1079l-59 -368h-230l33 282h-354q-27 -119 -68 -381l-28 -182h419l-16 -100h-420l-24 -154q-16 -129 -31 -219q-16 -104 -29 -209h396l59 285h229l-59 -371q-111 -66 -161 -132.5t-50 -150.5 q0 -100 113 -100q35 0 84 14l4 -69q-84 -31 -187 -31q-254 0 -254 172q0 96 78 165t258 132h-1007z" />
<glyph unicode="&#x119;" horiz-adv-x="1200" d="M98 428q0 252 142 436q156 207 444 207q225 0 338 -108q90 -92 90 -293q0 -72 -12 -154h-678q-12 -90 -12 -147q0 -297 258 -297q135 0 272 86l47 -74q-117 -74 -244 -94q-190 -117 -190 -269q0 -104 113 -104q35 0 84 14l4 -69q-84 -31 -187 -31q-254 0 -254 172 q0 168 271 272q-486 17 -486 453zM436 596h361q18 121 18 195q0 111 -27.5 157.5t-91.5 46.5q-90 0 -157.5 -104.5t-102.5 -294.5z" />
<glyph unicode="&#x11a;" horiz-adv-x="1259" d="M-16 0l12 72l158 6q37 178 75 418l62 393q49 319 61 450l-155 7l12 71h1079l-59 -368h-230l33 282h-354q-23 -96 -68 -381l-28 -182h419l-16 -100h-420l-24 -154q-29 -205 -45 -307q-2 -14 -7.5 -57.5t-7.5 -63.5h396l59 285h229l-59 -371h-1122zM500 1835l39 59 q82 -31 156.5 -84t115.5 -110q141 131 334 194l33 -59q-59 -45 -129 -132t-103 -157h-301q-14 70 -58 158t-87 131z" />
<glyph unicode="&#x11b;" horiz-adv-x="1200" d="M98 428q0 252 142 436q156 207 444 207q225 0 338 -108q90 -92 90 -293q0 -72 -12 -154h-678q-12 -90 -12 -147q0 -299 258 -299q135 0 272 88l47 -76q-176 -106 -395 -107q-238 0 -366 118t-128 335zM414 1497l39 59q82 -31 156.5 -84t115.5 -110q141 131 334 194 l33 -59q-59 -45 -129 -132t-103 -157h-301q-14 72 -57 158t-88 131zM436 596h361q18 111 18 195q0 111 -27.5 157.5t-91.5 46.5q-90 0 -157.5 -104.5t-102.5 -294.5z" />
<glyph unicode="&#x11c;" horiz-adv-x="1542" d="M135 567q0 184 63.5 352t178.5 289q221 233 594 234q240 0 487 -103l-47 -290h-237l24 254q-88 49 -203 49q-250 0 -395 -258q-141 -260 -141 -619q0 -205 86 -305q86 -104 235 -104q94 0 185 45l73 460l-178 7l12 73h631l-12 -73l-154 -7l-34 -219q-27 -170 -37 -274 q-258 -102 -506 -103q-305 0 -465 151.5t-160 440.5zM653 1565q57 45 128 133t104 155h301q14 -72 57 -158.5t88 -129.5l-39 -60q-82 31 -156.5 84t-115.5 111q-141 -131 -334 -195z" />
<glyph unicode="&#x11d;" horiz-adv-x="1314" d="M20 -381l52 264h227l-23 -229q55 -35 134 -35q188 0 266 156q49 98 86 340l6 45q-117 -125 -283 -125q-178 0 -280.5 106.5t-102.5 292.5q0 274 140.5 455.5t355.5 181.5q211 0 309 -158l31 148l420 -14l-12 -72l-140 -6q-27 -121 -82 -455l-59 -379q-33 -201 -64.5 -289 t-97.5 -153q-152 -158 -487 -158q-232 0 -396 84zM416 379q0 -227 133 -227t246 176l73 460q-29 78 -81 123t-113.5 45t-105.5 -47t-85 -151q-67 -176 -67 -379zM420 1229q57 43 127.5 131t103.5 158h301q14 -70 58.5 -158t87.5 -131l-39 -60q-82 29 -157 83.5t-116 111.5 q-141 -131 -333 -195z" />
<glyph unicode="&#x11e;" horiz-adv-x="1542" d="M135 567q0 184 63.5 352t178.5 289q221 233 594 234q240 0 487 -103l-47 -290h-237l24 254q-88 49 -203 49q-250 0 -395 -258q-141 -260 -141 -619q0 -205 86 -305q86 -104 235 -104q94 0 185 45l73 460l-178 7l12 73h631l-12 -73l-154 -7l-34 -219q-27 -170 -37 -274 q-258 -102 -506 -103q-305 0 -465 151.5t-160 440.5zM668 1794q0 49 12 94h72v-26q0 -72 53 -102.5t182 -30.5t185.5 33.5t82.5 125.5h74q-18 -154 -74 -223q-86 -123 -282 -123q-305 0 -305 252z" />
<glyph unicode="&#x11f;" horiz-adv-x="1314" d="M20 -381l52 264h227l-23 -229q55 -35 134 -35q188 0 266 156q49 98 86 340l6 45q-117 -125 -283 -125q-178 0 -280.5 106.5t-102.5 292.5q0 274 140.5 455.5t355.5 181.5q211 0 309 -158l31 148l420 -14l-12 -72l-140 -6q-27 -121 -82 -455l-59 -379q-33 -201 -64.5 -289 t-97.5 -153q-152 -158 -487 -158q-232 0 -396 84zM416 379q0 -227 133 -227t246 176l73 460q-29 78 -81 123t-113.5 45t-105.5 -47t-85 -151q-67 -176 -67 -379zM481 1440q0 47 11 110h73q2 -94 48 -125.5t184 -31.5q131 0 187 32.5t83 124.5h74q-14 -174 -103.5 -259 t-257.5 -85q-299 1 -299 234z" />
<glyph unicode="&#x120;" horiz-adv-x="1542" d="M135 567q0 184 63.5 352t178.5 289q221 233 594 234q240 0 487 -103l-47 -290h-237l24 254q-88 49 -203 49q-250 0 -395 -258q-141 -260 -141 -619q0 -205 86 -305q86 -104 235 -104q94 0 185 45l73 460l-178 7l12 73h631l-12 -73l-154 -7l-34 -219q-27 -170 -37 -274 q-258 -102 -506 -103q-305 0 -465 151.5t-160 440.5zM831 1706q0 70 46.5 115t117.5 45q70 0 116 -46t46 -116q0 -72 -45 -118t-116.5 -46t-118 46t-46.5 120z" />
<glyph unicode="&#x121;" horiz-adv-x="1314" d="M20 -381l52 264h227l-23 -229q55 -35 134 -35q188 0 266 156q49 98 86 340l6 45q-117 -125 -283 -125q-178 0 -280.5 106.5t-102.5 292.5q0 274 140.5 455.5t355.5 181.5q211 0 309 -158l31 148l420 -14l-12 -72l-140 -6q-27 -121 -82 -455l-59 -379q-33 -201 -64.5 -289 t-97.5 -153q-152 -158 -487 -158q-232 0 -396 84zM416 379q0 -227 133 -227t246 176l73 460q-29 78 -81 123t-113.5 45t-105.5 -47t-85 -151q-67 -176 -67 -379zM631 1372q0 70 46 115t118 45q70 0 115.5 -45t45.5 -117t-45 -118t-116.5 -46t-117.5 46t-46 120z" />
<glyph unicode="&#x122;" horiz-adv-x="1542" d="M135 567q0 184 63.5 352t178.5 289q221 233 594 234q240 0 487 -103l-47 -290h-237l24 254q-88 49 -203 49q-250 0 -395 -258q-141 -260 -141 -619q0 -205 86 -305q86 -104 235 -104q94 0 185 45l73 460l-178 7l12 73h631l-12 -73l-154 -7l-34 -219q-27 -170 -37 -274 q-258 -102 -506 -103q-305 0 -465 151.5t-160 440.5zM369 -410q225 176 241 334h234q39 0 39 -22q0 -47 -58.5 -114t-152.5 -124q-66 -41 -269 -133z" />
<glyph unicode="&#x123;" horiz-adv-x="1314" d="M20 -381l52 264h227l-23 -229q55 -35 134 -35q188 0 266 156q49 98 86 340l6 45q-117 -125 -283 -125q-178 0 -280.5 106.5t-102.5 292.5q0 274 140.5 455.5t355.5 181.5q211 0 309 -158l31 148l420 -14l-12 -72l-140 -6q-27 -121 -82 -455l-59 -379q-33 -201 -64.5 -289 t-97.5 -153q-152 -158 -487 -158q-232 0 -396 84zM416 379q0 -227 133 -227t246 176l73 460q-29 78 -81 123t-113.5 45t-105.5 -47t-85 -151q-67 -176 -67 -379zM592 1221q0 27 76.5 89t173.5 115q117 61 293 129l34 -57q-80 -57 -160.5 -138t-123.5 -153h-260q-33 1 -33 15 z" />
<glyph unicode="&#x124;" horiz-adv-x="1605" d="M-16 0l12 74l158 6q31 135 75 418l62 387q49 324 61 452l-155 6l12 74h629l-11 -74l-149 -6q-35 -176 -68 -385l-28 -184h522l18 117q47 287 62 452l-144 6l11 74h630l-10 -74l-162 -6q-14 -66 -67 -383l-70 -442q-53 -360 -59 -432l155 -6l-10 -74h-631l11 74l147 6 q29 127 76 418l29 180h-523l-26 -166q-51 -334 -60 -432l144 -6l-11 -74h-630zM635 1565q57 45 128 133t103 155h301q14 -72 57.5 -158.5t88.5 -129.5l-39 -60q-82 31 -157 84t-116 111q-141 -131 -333 -195z" />
<glyph unicode="&#x125;" horiz-adv-x="1325" d="M98 0q61 326 103 582l73 467q43 307 48 368l-123 6l14 74l442 12l-77 -442l-27 -162q96 90 180 128t187 38q125 0 193.5 -62.5t68.5 -177.5q0 -72 -33 -268l-19 -114q-35 -244 -47 -369l129 -6l-12 -74h-446l75 428l31 193q18 121 19 184q0 117 -97 117q-53 0 -123.5 -44 t-128.5 -112l-20 -139q-74 -477 -90 -627h-320zM147 1638q57 45 128 133.5t104 155.5h301q14 -72 57 -159t88 -130l-39 -59q-82 31 -156.5 84t-115.5 111q-141 -131 -334 -195z" />
<glyph unicode="&#x126;" horiz-adv-x="1605" d="M-16 0l12 74l158 6q25 104 75 418l72 450h-182l14 86h180l21 144q14 98 18 159l-155 6l12 74h629l-11 -74l-149 -6q-14 -63 -55 -303h522l24 170l15 133l-144 6l11 74h630l-10 -74l-162 -6q-12 -55 -26 -137q-8 -55 -29 -166h182l-14 -86h-180l-70 -436 q-53 -360 -59 -432l155 -6l-10 -74h-631l11 74l147 6q29 127 76 418l29 180h-523l-26 -166q-51 -334 -60 -432l144 -6l-11 -74h-630zM582 768h522l29 180h-525z" />
<glyph unicode="&#x127;" horiz-adv-x="1325" d="M98 0q47 246 103 582l96 606h-143l14 82h137q10 76 17 147l-123 6l14 74l442 12l-43 -239h297l-12 -82h-301l-45 -283q98 90 181 128t186 38q127 0 194.5 -62.5t67.5 -177.5q0 -68 -33 -268l-19 -114q-29 -180 -47 -369l129 -6l-12 -74h-446q35 180 75 428l31 193 q18 125 19 184q0 117 -97 117q-53 0 -123.5 -44t-128.5 -112l-20 -139q-74 -477 -90 -627h-320z" />
<glyph unicode="&#x12a;" horiz-adv-x="794" d="M-6 0l12 74l158 6q33 156 76 418l61 387q49 319 61 452l-155 6l12 74h641l-12 -74l-160 -6q-23 -109 -67 -383l-70 -442q-51 -348 -59 -432l155 -6l-12 -74h-641zM199 1630l20 125h723l-20 -125h-723z" />
<glyph unicode="&#x12b;" horiz-adv-x="677" d="M59 1298l21 125h723l-21 -125h-723zM98 0q27 115 88 498l15 82q43 291 51 389l-123 6l12 72l445 12q-53 -279 -84 -461l-10 -74q-51 -311 -74 -524h-320z" />
<glyph unicode="&#x12d;" horiz-adv-x="677" d="M98 0q29 129 88 498l13 82q37 236 53 389l-123 6l12 72l443 12q-61 -332 -82 -461l-13 -74q-55 -352 -71 -524h-320zM129 1440q0 47 10 110h74q2 -94 48 -125.5t183 -31.5q131 0 187.5 32.5t83.5 124.5h73q-14 -174 -103 -259t-257 -85q-299 1 -299 234z" />
<glyph unicode="&#x12e;" horiz-adv-x="794" d="M-6 0l12 74l158 6q29 127 76 418l61 387q53 346 61 452l-155 6l12 74h641l-12 -74l-160 -6q-29 -131 -67 -383l-70 -442q-51 -352 -59 -432l155 -6l-12 -74q-111 -66 -160 -132.5t-49 -150.5q0 -100 113 -100q35 0 84 14l4 -69q-84 -31 -187 -31q-254 0 -254 172 q0 96 78 165t256 132h-526z" />
<glyph unicode="&#x12f;" horiz-adv-x="677" d="M-33 -297q0 94 78 162.5t258 134.5h-205q20 94 88 498l13 82q39 266 53 389l-123 6l12 72l443 12q-45 -233 -82 -461l-13 -74q-43 -285 -71 -524q-111 -66 -161 -132.5t-50 -150.5q0 -100 112 -100q35 0 84 14l5 -69q-84 -31 -187 -31q-254 0 -254 172zM313 1370 q0 72 45 118t117 46t118 -45t46 -115q0 -74 -45 -120t-119 -46q-70 0 -116 45t-46 117z" />
<glyph unicode="&#x130;" horiz-adv-x="794" d="M-6 0l12 74l158 6q33 156 76 418l61 387q49 319 61 452l-155 6l12 74h641l-12 -74l-160 -6q-23 -109 -67 -383l-70 -442q-51 -348 -59 -432l155 -6l-12 -74h-641zM422 1706q0 70 46 115t118 45q70 0 116 -46t46 -116q0 -72 -45.5 -118t-117 -46t-117.5 46t-46 120z" />
<glyph unicode="&#x131;" horiz-adv-x="677" d="M98 0q29 129 88 498l13 82q37 236 53 389l-123 6l12 72l443 12q-61 -332 -82 -461l-13 -74q-55 -352 -71 -524h-320z" />
<glyph unicode="&#x134;" horiz-adv-x="782" d="M-223 -186l16 77q27 -4 51 -4q78 0 150 34t112 89q66 86 113 369l80 510q51 305 61 448l-165 6l10 74h653l-10 -74l-162 -6q-12 -57 -68 -379l-92 -585q-25 -160 -41 -221.5t-49 -114.5q-70 -113 -210 -173.5t-330 -60.5q-64 1 -119 11zM195 1565q57 45 127.5 133 t103.5 155h301q14 -72 57 -158.5t88 -129.5l-38 -60q-82 31 -157 84t-116 111q-141 -131 -334 -195z" />
<glyph unicode="&#x135;" horiz-adv-x="677" d="M-221 -440l16 78q154 0 218.5 89t105.5 361l80 512q37 231 49 369l-131 6l12 72l451 12q-70 -387 -99 -565l-75 -471q-37 -254 -127 -347q-117 -123 -375 -122q-55 0 -125 6zM66 1229q57 43 127.5 131t103.5 158h301q14 -70 58 -158t87 -131l-38 -60q-82 29 -157 83.5 t-116 111.5q-141 -131 -334 -195z" />
<glyph unicode="&#x136;" horiz-adv-x="1380" d="M-16 0l12 74l158 6q39 178 75 418l62 387q49 319 61 452l-155 6l12 74h627l-13 -74l-145 -6q-35 -178 -68 -383l-26 -176l397 379q55 47 98 94l86 84l-141 8l10 74h453l-10 -74l-125 -8q-14 -14 -80 -67l-172 -154l-277 -254l307 -594q90 -170 107 -186l111 -6l-13 -74 h-585l12 74l110 4l-305 598l-26 -164q-53 -356 -60 -432l121 -6l-10 -74h-608zM289 -410q225 176 241 334h234q39 0 39 -22q0 -47 -58.5 -114t-152.5 -124q-66 -41 -268 -133z" />
<glyph unicode="&#x137;" horiz-adv-x="1247" d="M98 0q6 39 18.5 100.5t18.5 98.5q41 209 66 383l73 467q43 274 50 370l-123 6l12 72l444 12l-8 -43l-24 -116q-6 -43 -23 -129l-37 -228l-59 -381l319 244q121 94 144 115l-113 4l10 74h412l-12 -74l-97 -6q-33 -16 -88 -56l-98 -69q-23 -14 -68 -47l-32 -23l-115 -88 l178 -385l74 -151q18 -41 39 -68l117 -8l-13 -74h-418q-14 57 -75 190l-172 379l-29 -176q0 -2 -23 -164q-12 -74 -20 -147l-10 -82h-318zM201 -410q225 176 241 334h234q39 0 39 -22q0 -47 -58.5 -114t-152.5 -124q-66 -41 -268 -133z" />
<glyph unicode="&#x139;" horiz-adv-x="1236" d="M-16 0l12 72l158 6q31 147 75 420l62 387q49 319 61 452l-155 6l12 74h657l-12 -74l-176 -6q-25 -115 -68 -383l-67 -436l-47 -313q-2 -10 -5.5 -42t-9.5 -77h371l61 301h230l-62 -387h-1097zM408 1563q80 55 160.5 137t123.5 153h262q33 0 33 -14q0 -16 -40 -55 t-101 -82q-139 -98 -404 -197z" />
<glyph unicode="&#x13a;" horiz-adv-x="649" d="M84 0q74 395 102 582l72 467q33 201 49 368l-123 6l15 74l442 12l-100 -567l-60 -389l-22 -145l-15 -92q-4 -26 -7 -52t-7 -55q-20 -143 -27 -209h-319zM338 1665q80 55 161 137t124 154h262q33 0 33 -14q0 -16 -40 -55.5t-102 -82.5q-139 -98 -403 -196z" />
<glyph unicode="&#x13b;" horiz-adv-x="1236" d="M-16 0l12 72l158 6q31 147 75 420l62 387q49 319 61 452l-155 6l12 74h657l-12 -74l-176 -6q-25 -115 -68 -383l-67 -436l-47 -313q-2 -10 -5.5 -42t-9.5 -77h371l61 301h230l-62 -387h-1097zM215 -410q225 176 242 334h233q39 0 39 -22q0 -47 -58.5 -114t-152.5 -124 q-66 -41 -268 -133z" />
<glyph unicode="&#x13c;" horiz-adv-x="649" d="M-139 -410q225 176 241 334h234q39 0 39 -22q0 -47 -58.5 -114t-152.5 -124q-66 -41 -268 -133zM84 0q68 352 102 582l74 467q31 211 47 368l-121 6l13 74l442 12l-100 -567l-60 -389l-51 -344l-27 -209h-319z" />
<glyph unicode="&#x13d;" horiz-adv-x="1236" d="M-16 0l12 72l158 6q31 147 75 420l62 387q49 319 61 452l-155 6l12 74h657l-12 -74l-176 -6q-25 -115 -68 -383l-67 -436l-47 -313q-2 -10 -5.5 -42t-9.5 -77h371l61 301h230l-62 -387h-1097zM981 877q121 162 152 297q-143 31 -144 165q0 80 49 129.5t127 49.5 t126 -49.5t48 -131.5q0 -195 -278 -520z" />
<glyph unicode="&#x13e;" horiz-adv-x="966" d="M84 0q74 395 102 582l72 467q33 201 49 368l-123 6l15 74l442 12l-100 -567l-60 -389l-22 -145l-15 -92q-4 -26 -7 -52t-7 -55q-20 -143 -27 -209h-319zM739 877q121 162 152 297q-143 31 -143 165q0 80 49 129.5t126.5 49.5t126 -49.5t48.5 -131.5q0 -195 -279 -520z " />
<glyph unicode="&#x141;" horiz-adv-x="1236" d="M-16 0l12 72l158 6q33 158 75 418l11 71l-205 -137l16 111l207 139l33 209q49 315 61 448l-155 6l12 74h655l-10 -74l-176 -6q-27 -133 -68 -379l-6 -49l258 174l-16 -112l-260 -174l-45 -283q-39 -274 -45 -307q0 -12 -3.5 -29.5t-6.5 -44.5t-5 -47h371l61 301h230 l-62 -387h-1097z" />
<glyph unicode="&#x142;" horiz-adv-x="677" d="M18 481l19 121l190 141l47 306q35 240 50 368l-123 6l12 72l442 14l-80 -454l-10 -58l189 142l-19 -121l-188 -139l-51 -328q-33 -225 -52 -338l-26 -213h-318l99 561l10 64z" />
<glyph unicode="&#x143;" horiz-adv-x="1513" d="M-20 0l12 74l158 6q27 129 67 371l88 548q47 334 47 338l-157 6l10 74h497q63 -168 138 -338l303 -719l88 574q39 260 49 403l-145 6l10 74h448l-10 -74l-158 -6q-23 -98 -75 -409l-148 -928h-254q-16 57 -119 309l-374 891l-107 -690q-53 -362 -55 -430l147 -6l-12 -74 h-448zM821 1563q80 55 161 137t124 153h262q33 0 33 -14q0 -16 -40 -55t-101 -82q-139 -98 -404 -197z" />
<glyph unicode="&#x144;" horiz-adv-x="1325" d="M98 0q66 360 103 582l10 67q33 225 41 320l-123 6l12 72l424 12l-22 -162q100 94 186 134t186 40q127 0 196 -62.5t69 -177.5q0 -76 -33 -268l-19 -114q-31 -205 -47 -369l129 -6l-12 -74h-444l73 428l25 150q25 166 25 225q0 119 -97 119q-53 0 -123.5 -44t-126.5 -112 l-22 -139q-70 -455 -90 -627h-320zM588 1227q80 55 160.5 137t123.5 154h263q33 0 32 -15q0 -16 -40 -55t-101 -82q-139 -98 -403 -197z" />
<glyph unicode="&#x145;" horiz-adv-x="1513" d="M-20 0l12 74l158 6q27 129 67 371l88 548q47 334 47 338l-157 6l10 74h497q63 -168 138 -338l303 -719l88 574q39 260 49 403l-145 6l10 74h448l-10 -74l-158 -6q-23 -98 -75 -409l-148 -928h-254q-16 57 -119 309l-374 891l-107 -690q-53 -362 -55 -430l147 -6l-12 -74 h-448zM309 -410q225 176 242 334h233q39 0 39 -22q0 -47 -58 -114t-153 -124q-66 -41 -268 -133z" />
<glyph unicode="&#x146;" horiz-adv-x="1325" d="M98 0q66 360 103 582l10 67q33 225 41 320l-123 6l12 72l424 12l-22 -162q100 94 186 134t186 40q127 0 196 -62.5t69 -177.5q0 -76 -33 -268l-19 -114q-31 -205 -47 -369l129 -6l-12 -74h-444l73 428l25 150q25 166 25 225q0 119 -97 119q-53 0 -123.5 -44t-126.5 -112 l-22 -139q-70 -455 -90 -627h-320zM213 -410q225 176 242 334h233q39 0 39 -22q0 -47 -58.5 -114t-152.5 -124q-66 -41 -268 -133z" />
<glyph unicode="&#x147;" horiz-adv-x="1513" d="M-20 0l12 74l158 6q27 129 67 371l88 548q47 334 47 338l-157 6l10 74h497q63 -168 138 -338l303 -719l88 574q39 260 49 403l-145 6l10 74h448l-10 -74l-158 -6q-23 -98 -75 -409l-148 -928h-254q-16 57 -119 309l-374 891l-107 -690q-53 -362 -55 -430l147 -6l-12 -74 h-448zM668 1835l39 59q82 -31 156.5 -84t115.5 -110q141 131 334 194l33 -59q-59 -45 -129 -132t-103 -157h-301q-14 70 -58 158t-87 131z" />
<glyph unicode="&#x148;" horiz-adv-x="1325" d="M98 0q66 360 103 582l10 67q33 225 41 320l-123 6l12 72l424 12l-22 -162q100 94 186 134t186 40q127 0 196 -62.5t69 -177.5q0 -76 -33 -268l-19 -114q-31 -205 -47 -369l129 -6l-12 -74h-444l73 428l25 150q25 166 25 225q0 119 -97 119q-53 0 -123.5 -44t-126.5 -112 l-22 -139q-70 -455 -90 -627h-320zM444 1497l39 59q82 -31 157 -84t116 -110q141 131 334 194l32 -59q-59 -45 -128.5 -132t-102.5 -157h-301q-14 72 -57.5 158t-88.5 131z" />
<glyph unicode="&#x14c;" horiz-adv-x="1560" d="M139 596q0 162 54.5 320.5t150.5 277.5q199 248 543 248q281 0 436.5 -162t155.5 -453q0 -174 -57.5 -336.5t-159.5 -281.5q-201 -233 -531 -234q-283 0 -437.5 162t-154.5 459zM457 492q0 -213 65.5 -325t190.5 -112q209 0 325 256q123 266 123 615q0 223 -62.5 329.5 t-195.5 106.5q-195 0 -311 -244q-59 -123 -97 -296.5t-38 -329.5zM594 1630l20 125h723l-20 -125h-723z" />
<glyph unicode="&#x14d;" horiz-adv-x="1286" d="M100 444q0 127 45 247t127 208q158 172 435 172q231 0 355 -120t124 -343q0 -272 -168 -458q-160 -174 -436 -175q-258 0 -371 134q-111 126 -111 335zM379 1298l20 125h723l-20 -125h-723zM414 334q0 -281 166 -281q70 0 128 59.5t97 170.5q66 205 65 417 q0 293 -165 293q-160 0 -246 -307q-45 -174 -45 -352z" />
<glyph unicode="&#x150;" horiz-adv-x="1560" d="M139 596q0 162 54.5 320.5t150.5 277.5q199 248 543 248q281 0 436.5 -162t155.5 -453q0 -174 -57.5 -336.5t-159.5 -281.5q-201 -233 -531 -234q-283 0 -437.5 162t-154.5 459zM457 492q0 -213 65.5 -325t190.5 -112q209 0 325 256q123 266 123 615q0 223 -62.5 329.5 t-195.5 106.5q-195 0 -311 -244q-59 -123 -97 -296.5t-38 -329.5zM668 1563q74 57 143.5 139t103.5 151h250q35 0 35 -16q0 -27 -69.5 -89t-157.5 -114q-135 -74 -281 -129zM1065 1563q76 57 144.5 138t103.5 152h250q35 0 34 -16q0 -27 -69.5 -89t-157.5 -114 q-100 -57 -280 -129z" />
<glyph unicode="&#x151;" horiz-adv-x="1286" d="M100 444q0 127 45 247t127 208q158 172 435 172q231 0 355 -120t124 -343q0 -272 -168 -458q-160 -174 -436 -175q-258 0 -371 134q-111 126 -111 335zM414 334q0 -281 166 -281q70 0 128 59.5t97 170.5q66 205 65 417q0 293 -165 293q-160 0 -246 -307 q-45 -174 -45 -352zM442 1227q74 57 143.5 139t104.5 152h250q35 0 35 -17q0 -27 -69.5 -89t-157.5 -114q-135 -74 -281 -129zM840 1227q76 57 144.5 138t102.5 153h250q35 0 35 -17q0 -27 -69.5 -89t-157.5 -114q-100 -57 -281 -129z" />
<glyph unicode="&#x152;" horiz-adv-x="2031" d="M139 588q0 201 78 384t209 290q113 92 236.5 123.5t375.5 31.5h1020l-57 -368h-229l32 282h-356q-31 -147 -68 -381l-26 -182h418l-15 -100h-420l-24 -154q-45 -285 -60 -428h396l57 285h231l-61 -371h-975q-233 0 -354 26.5t-215 100.5q-193 152 -193 461zM461 535 q0 -279 135 -383q88 -66 283 -66h47q25 104 75 418l60 379q49 317 61 448h-45q-201 0 -295 -40t-168 -154q-68 -104 -110.5 -272t-42.5 -330z" />
<glyph unicode="&#x153;" horiz-adv-x="1937" d="M100 446q0 272 166 455q156 170 420 170q242 0 371 -135q162 135 373 135q221 0 325 -108q92 -92 92 -299q0 -84 -10 -148h-678q-12 -84 -12 -145q0 -301 258 -301q135 0 272 88l45 -76q-166 -106 -391 -107q-240 0 -366 140q-82 -76 -170 -108t-217 -32q-254 0 -367 134 q-111 128 -111 337zM414 336q0 -283 168 -283q70 0 128 60.5t95 169.5q68 193 67 419q0 291 -165 291q-164 0 -246 -307q-47 -170 -47 -350zM1171 596h363q16 129 16 195q0 111 -26.5 157.5t-89.5 46.5q-90 0 -161 -107.5t-102 -291.5z" />
<glyph unicode="&#x154;" horiz-adv-x="1361" d="M-16 0l12 74l158 6q37 176 75 420l62 389q43 252 61 450l-155 7l12 71h614q258 0 367.5 -72.5t109.5 -244.5q0 -195 -118 -303q-86 -76 -256 -92q109 -27 145.5 -81.5t63.5 -234.5l41 -309l104 -6l-12 -74h-400l-20 205q-23 242 -68 354q-20 51 -57 70.5t-113 19.5h-47 l-22 -139q-53 -358 -60 -430l156 -6l-12 -74h-641zM575 735h80q162 0 236 82q90 102 90 301q0 137 -82 187q-53 27 -190 26h-33q-31 -156 -66 -381zM668 1563q80 55 160.5 137t123.5 153h262q33 0 33 -14q0 -16 -40 -55t-101 -82q-139 -98 -404 -197z" />
<glyph unicode="&#x155;" horiz-adv-x="987" d="M98 0l90 504l15 92l33 227q2 16 7 63l9 83l-123 6l12 72l414 10l-23 -162q115 172 322 172q100 0 174 -25l-55 -335h-223l24 233q-14 2 -22 2q-78 0 -151 -86t-89 -199l-18 -116q-4 -23 -52 -334q-6 -43 -26 -207h-318zM492 1227q80 55 160.5 137t123.5 154h262 q33 0 33 -15q0 -16 -40 -55t-101 -82q-139 -98 -404 -197z" />
<glyph unicode="&#x156;" horiz-adv-x="1361" d="M-16 0l12 74l158 6q37 176 75 420l62 389q43 252 61 450l-155 7l12 71h614q258 0 367.5 -72.5t109.5 -244.5q0 -195 -118 -303q-86 -76 -256 -92q109 -27 145.5 -81.5t63.5 -234.5l41 -309l104 -6l-12 -74h-400l-20 205q-23 242 -68 354q-20 51 -57 70.5t-113 19.5h-47 l-22 -139q-53 -358 -60 -430l156 -6l-12 -74h-641zM340 -410q225 176 242 334h233q39 0 39 -22q0 -47 -58.5 -114t-152.5 -124q-66 -41 -268 -133zM575 735h80q162 0 236 82q90 102 90 301q0 137 -82 187q-53 27 -190 26h-33q-31 -156 -66 -381z" />
<glyph unicode="&#x157;" horiz-adv-x="987" d="M-117 -410q225 176 242 334h233q39 0 39 -22q0 -47 -58 -114t-153 -124q-66 -41 -268 -133zM98 0l90 504l15 92l33 227q12 96 16 146l-123 6l12 72l416 10l-22 -162q115 172 319 172q100 0 174 -25l-53 -335h-225l24 233q-12 2 -22 2q-76 0 -149 -86t-91 -199l-18 -116 q-63 -432 -76 -541h-320z" />
<glyph unicode="&#x158;" horiz-adv-x="1361" d="M-16 0l12 74l158 6q37 176 75 420l62 389q43 252 61 450l-155 7l12 71h614q258 0 367.5 -72.5t109.5 -244.5q0 -195 -118 -303q-86 -76 -256 -92q109 -27 145.5 -81.5t63.5 -234.5l41 -309l104 -6l-12 -74h-400l-20 205q-23 242 -68 354q-20 51 -57 70.5t-113 19.5h-47 l-22 -139q-53 -358 -60 -430l156 -6l-12 -74h-641zM455 1835l39 59q82 -31 156.5 -84t115.5 -110q141 131 334 194l33 -59q-59 -45 -129 -132t-103 -157h-301q-14 70 -58 158t-87 131zM575 735h80q162 0 236 82q90 102 90 301q0 137 -82 187q-53 27 -190 26h-33 q-31 -156 -66 -381z" />
<glyph unicode="&#x159;" horiz-adv-x="987" d="M98 0l90 504l15 92l33 227q2 16 7 63l9 83l-123 6l12 72l414 10l-23 -162q115 172 322 172q100 0 174 -25l-55 -335h-223l24 233q-14 2 -22 2q-78 0 -151 -86t-89 -199l-18 -116q-4 -23 -52 -334q-6 -43 -26 -207h-318zM311 1497l39 59q82 -31 157 -84t116 -110 q141 131 333 194l33 -59q-59 -45 -128.5 -132t-102.5 -157h-301q-14 72 -57.5 158t-88.5 131z" />
<glyph unicode="&#x15a;" horiz-adv-x="1183" d="M68 68l41 321h229l-21 -264q84 -61 207 -62q125 0 204 69t79 177q0 76 -35 124t-123 91q-264 131 -342 203q-123 109 -123 283q0 199 148 319q133 113 375 113q236 0 421 -94l-36 -301h-234l21 258q-72 49 -177 49q-111 0 -188.5 -68.5t-77.5 -169.5q0 -82 64 -145 q47 -45 200 -123q193 -96 265 -168q98 -94 98 -258q0 -190 -133 -313q-141 -133 -412 -134q-253 1 -450 93zM625 1563q80 55 160.5 137t123.5 153h262q33 0 33 -14q0 -16 -40 -55t-101 -82q-139 -98 -404 -197z" />
<glyph unicode="&#x15b;" horiz-adv-x="1007" d="M49 39l43 274h213l-10 -211q59 -43 151 -43q88 0 144.5 47.5t56.5 120.5q0 63 -45 97q-27 16 -158 69q-170 68 -238.5 140.5t-68.5 187.5q0 152 117 252q113 98 324 98q205 0 346 -65l-41 -273h-209l16 225q-47 31 -131 31t-137 -46t-53 -116q0 -63 51 -96 q31 -20 182 -84q160 -70 211 -119q70 -66 70 -192q0 -172 -123 -266.5t-346 -94.5q-187 1 -365 64zM467 1227q80 55 161 137t124 154h262q33 0 33 -15q0 -16 -40 -55t-102 -82q-139 -98 -403 -197z" />
<glyph unicode="&#x15c;" horiz-adv-x="1183" d="M68 68l41 321h229l-21 -264q84 -61 207 -62q125 0 204 69t79 177q0 76 -35 124t-123 91q-264 131 -342 203q-123 109 -123 283q0 199 148 319q133 113 375 113q236 0 421 -94l-36 -301h-234l21 258q-72 49 -177 49q-111 0 -188.5 -68.5t-77.5 -169.5q0 -82 64 -145 q47 -45 200 -123q193 -96 265 -168q98 -94 98 -258q0 -190 -133 -313q-141 -133 -412 -134q-253 1 -450 93zM395 1565q57 45 128 133t104 155h301q14 -72 57 -158.5t88 -129.5l-39 -60q-82 31 -156.5 84t-115.5 111q-141 -131 -334 -195z" />
<glyph unicode="&#x15d;" horiz-adv-x="1007" d="M49 39l43 274h213l-10 -211q59 -43 151 -43q88 0 144.5 47.5t56.5 120.5q0 63 -45 97q-27 16 -158 69q-170 68 -238.5 140.5t-68.5 187.5q0 152 117 252q113 98 324 98q205 0 346 -65l-41 -273h-209l16 225q-47 31 -131 31t-137 -46t-53 -116q0 -63 51 -96 q31 -20 182 -84q160 -70 211 -119q70 -66 70 -192q0 -172 -123 -266.5t-346 -94.5q-187 1 -365 64zM279 1229q57 43 127.5 131t103.5 158h301q14 -70 58 -158t87 -131l-38 -60q-82 29 -157 83.5t-116 111.5q-141 -131 -334 -195z" />
<glyph unicode="&#x15e;" horiz-adv-x="1183" d="M68 68l41 321h229l-21 -264q84 -61 207 -62q125 0 204 69t79 177q0 76 -35 124t-123 91q-264 131 -342 203q-123 109 -123 283q0 199 148 319q133 113 375 113q236 0 421 -94l-36 -301h-234l21 258q-72 49 -177 49q-111 0 -188.5 -68.5t-77.5 -169.5q0 -82 64 -145 q47 -45 200 -123q193 -96 265 -168q98 -94 98 -258q0 -190 -133 -313q-141 -133 -412 -134q-253 1 -450 93zM154 -410q225 176 241 334h234q39 0 39 -22q0 -47 -58.5 -114t-152.5 -124q-66 -41 -269 -133z" />
<glyph unicode="&#x15f;" horiz-adv-x="1007" d="M49 39l43 274h213l-10 -211q59 -43 151 -43q88 0 144.5 47.5t56.5 120.5q0 63 -45 97q-27 16 -158 69q-170 68 -238.5 140.5t-68.5 187.5q0 152 117 252q113 98 324 98q205 0 346 -65l-41 -273h-209l16 225q-47 31 -131 31t-137 -46t-53 -116q0 -63 51 -96 q31 -20 182 -84q160 -70 211 -119q70 -66 70 -192q0 -172 -123 -266.5t-346 -94.5q-187 1 -365 64zM59 -410q225 176 242 334h234q39 0 38 -22q0 -47 -58 -114t-153 -124q-66 -41 -268 -133z" />
<glyph unicode="&#x160;" horiz-adv-x="1183" d="M68 68l41 321h229l-21 -264q84 -61 207 -62q125 0 204 69t79 177q0 76 -35 124t-123 91q-264 131 -342 203q-123 109 -123 283q0 199 148 319q133 113 375 113q236 0 421 -94l-36 -301h-234l21 258q-72 49 -177 49q-111 0 -188.5 -68.5t-77.5 -169.5q0 -82 64 -145 q47 -45 200 -123q193 -96 265 -168q98 -94 98 -258q0 -190 -133 -313q-141 -133 -412 -134q-253 1 -450 93zM459 1835l39 59q82 -31 156.5 -84t115.5 -110q141 131 334 194l33 -59q-59 -45 -129 -132t-103 -157h-301q-14 70 -58 158t-87 131z" />
<glyph unicode="&#x161;" horiz-adv-x="1007" d="M49 39l43 274h213l-10 -211q59 -43 151 -43q88 0 144.5 47.5t56.5 120.5q0 63 -45 97q-27 16 -158 69q-170 68 -238.5 140.5t-68.5 187.5q0 152 117 252q113 98 324 98q205 0 346 -65l-41 -273h-209l16 225q-47 31 -131 31t-137 -46t-53 -116q0 -63 51 -96 q31 -20 182 -84q160 -70 211 -119q70 -66 70 -192q0 -172 -123 -266.5t-346 -94.5q-187 1 -365 64zM317 1497l39 59q82 -31 157 -84t116 -110q141 131 334 194l32 -59q-59 -45 -128.5 -132t-102.5 -157h-301q-14 72 -57.5 158t-88.5 131z" />
<glyph unicode="&#x163;" horiz-adv-x="796" d="M-4 -410q225 176 242 334h233q39 0 39 -22q0 -47 -58.5 -114t-152.5 -124q-66 -41 -268 -133zM94 973l12 76h78q137 0 205 64.5t137 258.5h95l-54 -323h267l-13 -76h-266l-102 -658q-16 -98 -17 -135q0 -96 88 -96q61 0 142 59l43 -69q-115 -98 -277 -99 q-137 0 -213 60.5t-76 171.5q0 43 21 170l92 596h-162z" />
<glyph unicode="&#x164;" horiz-adv-x="1310" d="M117 1049l59 368h1243l-59 -368h-230l33 282h-219q-25 -111 -67 -385l-68 -434q-47 -322 -61 -432l196 -6l-12 -74h-719l10 74l199 6q31 145 76 420l59 379q45 283 61 452h-215l-57 -282h-229zM508 1835l39 59q82 -31 156.5 -84t115.5 -110q141 131 334 194l33 -59 q-59 -45 -129 -132t-103 -157h-301q-14 70 -58 158t-87 131z" />
<glyph unicode="&#x165;" horiz-adv-x="937" d="M94 973l12 76h80q135 0 203 64.5t137 258.5h97l-54 -323h265l-13 -76h-264l-102 -658q-16 -98 -17 -135q0 -96 86 -96q66 0 142 59l45 -69q-115 -98 -277 -99q-137 0 -213 60.5t-76 171.5q0 51 21 170l92 596h-164zM760 1235q121 162 151 297q-143 31 -143 166 q0 80 49 129t127 49t126 -49t48 -131q0 -195 -278 -520z" />
<glyph unicode="&#x16a;" horiz-adv-x="1497" d="M190 1343l13 74h641l-13 -74l-159 -6q-20 -98 -68 -379l-61 -395q-25 -164 -25 -258q0 -225 236 -225q195 0 297 125q72 88 114 360l58 369q39 256 55 403l-156 6l11 74h452l-12 -74l-156 -6q-12 -49 -22 -114l-43 -236l-19 -104l-45 -291q-31 -207 -59.5 -302 t-77.5 -153q-133 -162 -418 -162q-522 0 -522 359q0 90 35 315l39 240q49 315 61 448zM604 1630l21 125h723l-21 -125h-723z" />
<glyph unicode="&#x16b;" horiz-adv-x="1323" d="M121 975l12 72l442 12l-79 -443l-33 -206q-14 -100 -14 -160q0 -125 94 -125q121 0 254 160l108 684l-133 6l12 72l443 12l-76 -428l-39 -242l-39 -309l123 -6l-12 -74l-424 -10l20 157q-111 -98 -190.5 -135t-186.5 -37q-125 0 -191.5 61.5t-66.5 176.5q0 61 31 270 l19 117q16 88 20 143q16 109 18 144q6 31 11 82zM387 1298l21 125h722l-20 -125h-723z" />
<glyph unicode="&#x16d;" horiz-adv-x="1323" d="M121 975l12 72l442 12l-79 -443l-33 -206q-14 -100 -14 -160q0 -125 94 -125q121 0 254 160l108 684l-133 6l12 72l443 12l-76 -428l-39 -242l-39 -309l123 -6l-12 -74l-424 -10l20 157q-111 -98 -190.5 -135t-186.5 -37q-125 0 -191.5 61.5t-66.5 176.5q0 61 31 270 l19 117q16 88 20 143q16 109 18 144q6 31 11 82zM451 1440q0 47 10 110h74q2 -94 48 -125.5t183 -31.5q131 0 187.5 32.5t82.5 124.5h74q-14 -174 -103 -259t-257 -85q-299 1 -299 234z" />
<glyph unicode="&#x16e;" horiz-adv-x="1497" d="M190 1343l13 74h641l-13 -74l-159 -6q-20 -98 -68 -379l-61 -395q-25 -164 -25 -258q0 -225 236 -225q195 0 297 125q72 88 114 360l58 369q39 256 55 403l-156 6l11 74h452l-12 -74l-156 -6q-12 -49 -22 -114l-43 -236l-19 -104l-45 -291q-31 -207 -59.5 -302 t-77.5 -153q-133 -162 -418 -162q-522 0 -522 359q0 90 35 315l39 240q49 315 61 448zM791 1726q0 88 61 145.5t155.5 57.5t156 -58.5t61.5 -148.5t-61.5 -148t-155.5 -58q-96 0 -156.5 58t-60.5 152zM891 1722q0 -57 30.5 -88.5t86.5 -31.5q53 0 84.5 32.5t31.5 88 t-31.5 88t-85 32.5t-85 -33t-31.5 -88z" />
<glyph unicode="&#x16f;" horiz-adv-x="1323" d="M121 975l12 72l442 12l-79 -443l-33 -206q-14 -100 -14 -160q0 -125 94 -125q121 0 254 160l108 684l-133 6l12 72l443 12l-76 -428l-39 -242l-39 -309l123 -6l-12 -74l-424 -10l20 157q-111 -98 -190.5 -135t-186.5 -37q-125 0 -191.5 61.5t-66.5 176.5q0 61 31 270 l19 117q16 88 20 143q16 109 18 144q6 31 11 82zM539 1384q0 88 61.5 146.5t155.5 58.5t155.5 -58t61.5 -148.5t-61.5 -148.5t-155.5 -58q-96 0 -156.5 58t-60.5 150zM639 1382q0 -57 30.5 -88.5t86.5 -31.5q53 0 84.5 32.5t31.5 88t-31.5 88t-85 32.5t-85 -33t-31.5 -88z " />
<glyph unicode="&#x170;" horiz-adv-x="1497" d="M190 1343l13 74h641l-13 -74l-159 -6q-20 -98 -68 -379l-61 -395q-25 -164 -25 -258q0 -225 236 -225q195 0 297 125q72 88 114 360l58 369q39 256 55 403l-156 6l11 74h452l-12 -74l-156 -6q-12 -49 -22 -114l-43 -236l-19 -104l-45 -291q-31 -207 -59.5 -302 t-77.5 -153q-133 -162 -418 -162q-522 0 -522 359q0 90 35 315l39 240q49 315 61 448zM655 1563q74 57 143.5 139t104.5 151h250q35 0 35 -16q0 -27 -69.5 -89t-157.5 -114q-135 -74 -281 -129zM1053 1563q76 57 144.5 138t102.5 152h250q35 0 35 -16q0 -27 -69.5 -89 t-157.5 -114q-100 -57 -281 -129z" />
<glyph unicode="&#x171;" horiz-adv-x="1323" d="M121 975l12 72l442 12l-79 -443l-33 -206q-14 -100 -14 -160q0 -125 94 -125q121 0 254 160l108 684l-133 6l12 72l443 12l-76 -428l-39 -242l-39 -309l123 -6l-12 -74l-424 -10l20 157q-111 -98 -190.5 -135t-186.5 -37q-125 0 -191.5 61.5t-66.5 176.5q0 61 31 270 l19 117q16 88 20 143q16 109 18 144q6 31 11 82zM432 1227q74 57 143.5 139t104.5 152h250q35 0 35 -17q0 -27 -70 -89t-158 -114q-135 -74 -280 -129zM829 1227q76 57 144.5 138t103.5 153h250q35 0 35 -17q0 -27 -69.5 -89t-157.5 -114q-100 -57 -281 -129z" />
<glyph unicode="&#x172;" horiz-adv-x="1497" d="M190 1343l13 74h641l-13 -74l-159 -6q-20 -92 -68 -379l-61 -395q-25 -164 -25 -258q0 -225 236 -225q195 0 297 125q72 88 114 360l58 369q39 256 55 403l-156 6l11 74h452l-12 -74l-156 -6q-41 -201 -84 -454l-45 -291q-39 -233 -60.5 -307t-76.5 -148 q-86 -109 -231 -143q-106 -66 -153.5 -130.5t-47.5 -146.5q0 -100 112 -100q35 0 84 14l5 -69q-84 -31 -187 -31q-254 0 -254 172q0 168 269 272h-33q-246 0 -375 92.5t-129 266.5q0 90 35 315l39 240q55 354 61 448z" />
<glyph unicode="&#x173;" horiz-adv-x="1323" d="M121 975l12 72l442 12l-79 -443l-33 -206q-14 -100 -14 -160q0 -125 94 -125q121 0 254 160l108 684l-133 6l12 72l443 12l-44 -248t-32 -180l-39 -242q-4 -23 -12 -90q-20 -158 -27 -219l123 -6l-12 -74q-209 -123 -209 -283q0 -100 112 -100q35 0 84 14l3 -69 q-82 -31 -185 -31q-254 0 -254 172q0 94 76 162.5t250 132.5l-301 -8l20 157q-111 -98 -190.5 -135t-186.5 -37q-125 0 -191.5 61.5t-66.5 176.5q0 61 31 270l19 117q31 199 49 369z" />
<glyph unicode="&#x174;" horiz-adv-x="1957" d="M125 1343l12 74h592l-12 -74l-154 -6q2 -78 29 -383l57 -598l252 559q174 395 207 502h201q10 -223 34 -446l62 -613l237 545q88 201 179 434l-144 6l11 74h423l-10 -74l-119 -6q-31 -55 -61 -120q-23 -51 -72 -150l-49 -104l-258 -557q-135 -299 -174 -406h-225 q-6 135 -39 408l-62 548l-256 -559q-119 -258 -170 -397h-225q-4 98 -39 408l-59 548q-18 172 -49 381zM874 1565q57 45 128 133t104 155h301q14 -72 57 -158.5t88 -129.5l-39 -60q-82 31 -156.5 84t-115.5 111q-141 -131 -334 -195z" />
<glyph unicode="&#x176;" horiz-adv-x="1220" d="M84 1343l12 74h606l-12 -74l-162 -6q20 -78 90 -270l109 -305l158 237q184 281 217 340l-139 4l10 74h409l-12 -74l-110 -6q-94 -117 -248 -346l-224 -325q-14 -37 -46.5 -244t-45.5 -346l164 -6l-10 -70h-662l13 70l166 6q78 330 96 579l-184 478q-61 152 -89 204z M504 1565q57 45 127.5 133t103.5 155h301q14 -72 57.5 -158.5t88.5 -129.5l-39 -60q-82 31 -157 84t-116 111q-141 -131 -333 -195z" />
<glyph unicode="&#x177;" horiz-adv-x="1130" d="M-90 -436l57 166q68 -25 127 -25q178 0 297 211l19 33l-154 706q-55 231 -80 314l-96 6l10 74h528l-12 -74l-112 -6q8 -63 49 -262l82 -381l174 311l123 227q35 68 51 109l-154 2l12 74h394l-13 -74l-96 -6q-27 -35 -174 -289l-424 -746q-123 -217 -231.5 -302 t-259.5 -85q-74 1 -117 17zM373 1229q57 43 127.5 131t103.5 158h301q14 -70 58.5 -158t87.5 -131l-39 -60q-82 29 -157 83.5t-116 111.5q-141 -131 -333 -195z" />
<glyph unicode="&#x178;" horiz-adv-x="1220" d="M84 1343l12 74h606l-12 -74l-162 -6q20 -78 90 -270l109 -305l158 237q184 281 217 340l-139 4l10 74h409l-12 -74l-110 -6q-94 -117 -248 -346l-224 -325q-14 -37 -46.5 -244t-45.5 -346l164 -6l-10 -70h-662l13 70l166 6q78 330 96 579l-184 478q-61 152 -89 204z M446 1706q0 66 45.5 111t115 45t113.5 -44t44 -114t-44 -115t-114 -45q-72 0 -116 45t-44 117zM895 1706q0 66 45 111t114.5 45t113.5 -44t44 -114t-44 -115t-113 -45q-72 0 -116 45t-44 117z" />
<glyph unicode="&#x179;" horiz-adv-x="1318" d="M10 0l19 113l127 159l161 207l371 479q59 78 82 111l100 131q61 82 93 131h-469l-58 -282h-229l59 368h1069l-18 -112l-219 -281l-44 -56q-38 -48 -57 -75l-292 -379l-87 -117l-98 -133l-94 -123l-39 -55h510l59 301h232l-62 -387h-1116zM709 1563q80 55 160.5 137 t123.5 153h262q33 0 33 -14q0 -16 -40 -55t-101 -82q-139 -98 -404 -197z" />
<glyph unicode="&#x17a;" horiz-adv-x="1077" d="M-18 0l12 76l708 895h-325l-53 -264h-226l56 342h917l-12 -78l-713 -895h359l55 268h221l-55 -344h-944zM473 1227q80 55 161 137t124 154h262q33 0 33 -15q0 -16 -40 -55t-102 -82q-139 -98 -403 -197z" />
<glyph unicode="&#x17b;" horiz-adv-x="1318" d="M10 0l19 113l127 159l161 207l371 479q59 78 82 111l100 131q61 82 93 131h-469l-58 -282h-229l59 368h1069l-18 -112l-219 -281l-44 -56q-38 -48 -57 -75l-292 -379l-87 -117l-98 -133l-94 -123l-39 -55h510l59 301h232l-62 -387h-1116zM651 1706q0 70 46 115t118 45 q70 0 116 -46t46 -116q0 -72 -45 -118t-117 -46t-118 46t-46 120z" />
<glyph unicode="&#x17c;" horiz-adv-x="1077" d="M-18 0l12 76l708 895h-325l-53 -264h-226l56 342h917l-12 -78l-713 -895h359l55 268h221l-55 -344h-944zM510 1372q0 70 46 115t117.5 45t117 -45t45.5 -117t-45.5 -118t-117 -46t-117.5 46t-46 120z" />
<glyph unicode="&#x17d;" horiz-adv-x="1318" d="M10 0l19 113l127 159l161 207l371 479q59 78 82 111l100 131q61 82 93 131h-469l-58 -282h-229l59 368h1069l-18 -112l-219 -281l-44 -56q-38 -48 -57 -75l-292 -379l-87 -117l-98 -133l-94 -123l-39 -55h510l59 301h232l-62 -387h-1116zM526 1835l39 59q82 -31 157 -84 t116 -110q141 131 333 194l33 -59q-59 -45 -128.5 -132t-102.5 -157h-301q-14 70 -58.5 158t-87.5 131z" />
<glyph unicode="&#x17e;" horiz-adv-x="1077" d="M-18 0l12 76l708 895h-325l-53 -264h-226l56 342h917l-12 -78l-713 -895h359l55 268h221l-55 -344h-944zM350 1497l39 59q82 -31 157 -84t116 -110q141 131 333 194l33 -59q-59 -45 -129 -132t-102 -157h-301q-14 72 -57.5 158t-88.5 131z" />
<glyph unicode="&#x192;" d="M-154 -217l48 299h212l-20 -258q20 -20 57 -21q92 0 142 154q23 70 51 248l78 487h-260l12 86h262l21 140q27 162 57.5 248.5t81.5 142.5q121 133 354 133q139 0 301 -64l-45 -291h-211l27 250q-27 27 -66 27q-100 0 -149 -164q-27 -80 -62 -309l-18 -113h278l-14 -86 h-276l-74 -465q-41 -266 -129 -366q-119 -137 -361 -137q-162 0 -297 59z" />
<glyph unicode="&#x1cd;" horiz-adv-x="1386" d="M-88 0l12 74l113 8q74 113 196 364l281 570q129 260 193 401h223q16 -109 26 -160q33 -180 45 -233l101 -512q63 -299 96 -432l117 -6l-12 -74h-603l11 74l145 6q-10 82 -47 295l-16 88h-426l-39 -82q-111 -242 -133 -303l149 -4l-10 -74h-422zM408 551h368l-102 551z M532 1835l39 59q82 -31 157 -84t116 -110q141 131 334 194l32 -59q-59 -45 -128.5 -132t-102.5 -157h-301q-14 70 -58.5 158t-87.5 131z" />
<glyph unicode="&#x1ce;" horiz-adv-x="1300" d="M98 412q0 287 139.5 474t350.5 187q190 0 293 -164l22 140h293l-78 -437l-55 -352q-10 -59 -10 -88q0 -74 59 -74q37 0 109 33l34 -72q-135 -84 -282 -84q-100 0 -147.5 36t-55.5 118q-63 -82 -135 -118t-176 -36q-174 0 -267.5 113t-93.5 324zM416 395q0 -133 42 -203.5 t120 -70.5q111 0 192 143l84 531q-74 131 -176 131q-125 0 -201 -195q-61 -152 -61 -336zM430 1497l39 59q82 -31 156.5 -84t115.5 -110q141 131 334 194l33 -59q-59 -45 -129 -132t-102 -157h-302q-14 72 -57 158t-88 131z" />
<glyph unicode="&#x1d3;" horiz-adv-x="1497" d="M190 1343l13 74h641l-13 -74l-159 -6q-20 -98 -68 -379l-61 -395q-25 -164 -25 -258q0 -225 236 -225q195 0 297 125q72 88 114 360l58 369q39 256 55 403l-156 6l11 74h452l-12 -74l-156 -6q-12 -49 -22 -114l-43 -236l-19 -104l-45 -291q-31 -207 -59.5 -302 t-77.5 -153q-133 -162 -418 -162q-522 0 -522 359q0 90 35 315l39 240q49 315 61 448zM680 1835l39 59q82 -31 156.5 -84t115.5 -110q141 131 334 194l33 -59q-59 -45 -129 -132t-103 -157h-301q-14 70 -58 158t-87 131z" />
<glyph unicode="&#x1e6;" horiz-adv-x="1542" d="M135 567q0 184 63.5 352t178.5 289q221 233 594 234q240 0 487 -103l-47 -290h-237l24 254q-88 49 -203 49q-250 0 -395 -258q-141 -260 -141 -619q0 -205 86 -305q86 -104 235 -104q94 0 185 45l73 460l-178 7l12 73h631l-12 -73l-154 -7l-34 -219q-27 -170 -37 -274 q-258 -102 -506 -103q-305 0 -465 151.5t-160 440.5zM674 1835l39 59q82 -31 156.5 -84t115.5 -110q141 131 334 194l33 -59q-59 -45 -129 -132t-103 -157h-301q-14 70 -58 158t-87 131z" />
<glyph unicode="&#x1e7;" horiz-adv-x="1314" d="M20 -381l52 264h227l-23 -229q55 -35 134 -35q188 0 266 156q49 98 86 340l6 45q-117 -125 -283 -125q-178 0 -280.5 106.5t-102.5 292.5q0 274 140.5 455.5t355.5 181.5q211 0 309 -158l31 148l420 -14l-12 -72l-140 -6q-27 -121 -82 -455l-59 -379q-33 -201 -64.5 -289 t-97.5 -153q-152 -158 -487 -158q-232 0 -396 84zM416 379q0 -227 133 -227t246 176l73 460q-29 78 -81 123t-113.5 45t-105.5 -47t-85 -151q-67 -176 -67 -379zM471 1497l39 59q82 -31 156.5 -84t115.5 -110q141 131 334 194l33 -59q-59 -45 -129 -132t-102 -157h-302 q-14 72 -57 158t-88 131z" />
<glyph unicode="&#x219;" horiz-adv-x="1007" d="M49 39l43 274h213l-10 -211q59 -43 151 -43q88 0 144.5 47.5t56.5 120.5q0 63 -45 97q-27 16 -158 69q-170 68 -238.5 140.5t-68.5 187.5q0 152 117 252q113 98 324 98q205 0 346 -65l-41 -273h-209l16 225q-47 31 -131 31t-137 -46t-53 -116q0 -63 51 -96 q31 -20 182 -84q160 -70 211 -119q70 -66 70 -192q0 -172 -123 -266.5t-346 -94.5q-187 1 -365 64zM72 -410q225 176 241 334h234q39 0 39 -22q0 -47 -58.5 -114t-152.5 -124q-66 -41 -269 -133z" />
<glyph unicode="&#x21a;" horiz-adv-x="1310" d="M117 1049l59 368h1243l-59 -368h-230l33 282h-219q-25 -111 -67 -385l-68 -434q-47 -322 -61 -432l196 -6l-12 -74h-719l10 74l199 6q31 145 76 420l59 379q45 283 61 452h-215l-57 -282h-229zM197 -410q225 176 241 334h234q39 0 39 -22q0 -47 -58.5 -114t-152.5 -124 q-66 -41 -269 -133z" />
<glyph unicode="&#x2bc;" horiz-adv-x="583" d="M170 879q143 160 195 301q-55 16 -86 60t-31 103q0 76 50 125.5t126 49.5q78 0 126 -47.5t48 -122.5q0 -92 -84 -218t-272 -315z" />
<glyph unicode="&#x2c6;" horiz-adv-x="1024" d="M289 1229q57 43 127.5 131t103.5 158h301q14 -70 58.5 -158t87.5 -131l-39 -60q-82 29 -157 83.5t-116 111.5q-141 -131 -333 -195z" />
<glyph unicode="&#x2c7;" horiz-adv-x="1024" d="M326 1497l39 59q82 -31 156.5 -84t115.5 -110q141 131 334 194l33 -59q-59 -45 -129 -132t-103 -157h-301q-14 72 -57 158t-88 131z" />
<glyph unicode="&#x2c9;" horiz-adv-x="1024" d="M272 1298l21 125h723l-21 -125h-723z" />
<glyph unicode="&#x2d8;" horiz-adv-x="1024" d="M336 1440q0 47 10 110h74q2 -94 48 -125.5t183 -31.5q131 0 187.5 32.5t83.5 124.5h73q-14 -174 -103 -259t-257 -85q-299 1 -299 234z" />
<glyph unicode="&#x2d9;" horiz-adv-x="1024" d="M485 1372q0 70 46.5 115t118 45t116.5 -45t45 -117t-45 -118t-116.5 -46t-118 46t-46.5 120z" />
<glyph unicode="&#x2da;" horiz-adv-x="1024" d="M432 1384q0 88 61.5 146.5t155.5 58.5t155.5 -58t61.5 -148.5t-61.5 -148.5t-155.5 -58q-96 0 -156.5 58t-60.5 150zM532 1382q0 -57 31 -88.5t86 -31.5q53 0 85 32.5t32 88t-32 88t-85 32.5t-85 -33t-32 -88z" />
<glyph unicode="&#x2db;" horiz-adv-x="1024" d="M152 -297q0 94 77.5 162.5t257.5 134.5h115q-113 -66 -162 -132.5t-49 -150.5q0 -100 113 -100q35 0 84 14l4 -69q-84 -31 -186 -31q-254 0 -254 172z" />
<glyph unicode="&#x2dc;" horiz-adv-x="1024" d="M262 1223q29 141 88.5 217t138.5 76q66 0 216 -54q121 -45 163 -45q35 0 55.5 22.5t34.5 76.5h72q-59 -295 -246 -295q-47 0 -81.5 10t-200.5 69q-51 18 -82 19q-55 0 -82 -96h-76z" />
<glyph unicode="&#x2dd;" horiz-adv-x="1024" d="M287 1227q74 57 143.5 139t104.5 152h249q35 0 35 -17q0 -27 -69.5 -89t-157.5 -114q-135 -74 -281 -129zM684 1227q76 57 144.5 138t103.5 153h250q35 0 35 -17q0 -27 -70 -89t-158 -114q-100 -57 -280 -129z" />
<glyph unicode="&#x384;" horiz-adv-x="1024" d="M463 1223q135 129 192 295h252q35 0 35 -21q0 -41 -106 -133q-123 -104 -344 -199z" />
<glyph unicode="&#x385;" horiz-adv-x="1024" d="M209 1370q0 57 38 94t95 37q59 0 95 -35.5t36 -95.5q0 -57 -37 -95t-94 -38q-59 0 -96 37t-37 96zM483 1235q78 135 97 305h180q43 0 43 -28.5t-35 -88t-78 -104.5q-70 -70 -172 -131zM819 1370q0 57 38 94t95 37q59 0 95 -35.5t36 -95.5q0 -57 -36.5 -95t-94.5 -38 q-59 0 -96 37t-37 96z" />
<glyph unicode="&#x386;" horiz-adv-x="1388" d="M-88 0l12 74l113 8q74 113 196 364l281 570q129 260 193 401h223q16 -109 26 -160q33 -180 45 -233l101 -512q63 -299 96 -432l117 -6l-12 -74h-603l11 74l145 6q-10 82 -47 295l-16 88h-426l-39 -82q-111 -242 -133 -303l149 -4l-10 -74h-422zM-12 956q72 90 130 215 t85 246h223q45 0 45 -35q0 -37 -47 -114.5t-107 -143.5q-113 -123 -286 -227zM408 551h368l-102 551z" />
<glyph unicode="&#x387;" horiz-adv-x="589" d="M131 592q0 74 50 123t126 49q74 0 123 -49t49 -125t-49 -125t-125 -49q-78 0 -126 49t-48 127z" />
<glyph unicode="&#x388;" horiz-adv-x="1677" d="M31 956q72 90 130 215t85 246h223q45 0 45 -35q0 -37 -47 -114.5t-107 -143.5q-113 -123 -286 -227zM399 0l13 72l157 6q29 131 76 418l62 393q45 266 61 450l-156 7l13 71h1079l-59 -368h-230l33 282h-354q-18 -82 -68 -381l-29 -182h420l-16 -100h-420l-23 -154 q-55 -375 -59 -428h393l60 285h229l-59 -371h-1123z" />
<glyph unicode="&#x389;" horiz-adv-x="2021" d="M31 956q72 90 130 215t85 246h223q45 0 45 -35q0 -37 -47 -114.5t-107 -143.5q-113 -123 -286 -227zM399 0l13 74l157 6q25 98 76 418l62 387q45 274 61 452l-156 6l13 74h630l-12 -74l-149 -6q-29 -143 -68 -385l-29 -184h523l18 117q39 229 64 452l-146 6l12 74h629 l-10 -74l-160 -6q-29 -131 -69 -383l-68 -442q-49 -313 -61 -432l155 -6l-10 -74h-631l12 74l146 6q31 131 76 418l28 180h-522l-27 -166q-47 -313 -59 -432l145 -6l-12 -74h-631z" />
<glyph unicode="&#x38a;" horiz-adv-x="1212" d="M31 956q72 90 130 215t85 246h223q45 0 45 -35q0 -37 -47 -114.5t-107 -143.5q-113 -123 -286 -227zM412 0l10 74l160 6q33 156 75 418l62 387q49 317 61 452l-155 6l10 74h643l-12 -74l-160 -6q-31 -141 -68 -383l-69 -442l-43 -291q-4 -20 -10 -63l-9 -78l158 -6 l-12 -74h-641z" />
<glyph unicode="&#x38c;" horiz-adv-x="1853" d="M31 956q72 90 130 215t85 246h223q45 0 45 -35q0 -37 -47 -114.5t-107 -143.5q-113 -123 -286 -227zM434 596q0 162 54.5 320.5t150.5 277.5q199 248 543 248q281 0 436.5 -162t155.5 -453q0 -174 -57.5 -336.5t-160.5 -281.5q-201 -233 -530 -234q-283 0 -437.5 162 t-154.5 459zM752 492q0 -211 65.5 -324t188.5 -113q211 0 327 256q123 266 123 615q0 223 -62.5 329.5t-195.5 106.5q-195 0 -311 -244q-59 -123 -97 -296.5t-38 -329.5z" />
<glyph unicode="&#x38e;" horiz-adv-x="1728" d="M31 956q160 201 215 461h223q45 0 45 -34.5t-47 -114.5t-107 -144q-113 -123 -286 -227zM594 1343l10 74h606l-10 -74l-164 -6q25 -82 92 -270l109 -305l158 237l217 340l-142 4l13 74h407l-10 -74l-111 -6q-82 -100 -249 -346l-222 -325q-14 -33 -46.5 -239t-47.5 -351 l166 -6l-12 -70h-660l13 70l166 6q74 319 94 579l-185 478l-53 135l-33 69z" />
<glyph unicode="&#x38f;" horiz-adv-x="1945" d="M31 956q72 90 130 215t85 246h223q45 0 45 -35q0 -37 -47 -114.5t-107 -143.5q-113 -123 -286 -227zM307 0l25 162q115 -31 356 -31h123l16 98q-162 68 -225 129q-141 141 -141 371q0 315 209 514q205 199 553 199q307 0 478 -148.5t171 -416.5q0 -295 -178 -463 q-68 -66 -136.5 -99.5t-238.5 -85.5l-14 -98h122q242 0 365 31l-25 -162h-630l47 293q162 59 252 207q119 195 118 467q0 186 -84 290.5t-233 104.5q-209 0 -338 -207q-121 -205 -121 -477q0 -301 205 -385l-47 -293h-629z" />
<glyph unicode="&#x390;" horiz-adv-x="679" d="M39 1370q0 57 38 94t95 37t94 -35.5t37 -95.5q0 -57 -37 -95t-94 -38q-59 0 -96 37t-37 96zM100 0q29 129 88 498l13 82q43 281 51 389l-121 6l10 72l445 12q-33 -166 -84 -461l-10 -74q-51 -326 -74 -524h-318zM313 1235q78 135 97 305h180q43 0 43 -28.5t-35 -88 t-78 -104.5q-70 -70 -172 -131zM649 1370q0 57 38 94t95.5 37t94 -35.5t36.5 -95.5q0 -57 -36.5 -95t-94.5 -38q-59 0 -96 37t-37 96z" />
<glyph unicode="&#x391;" horiz-adv-x="1388" d="M-88 0l12 74l113 8q74 113 196 364l281 570q129 260 193 401h223q16 -109 26 -160q33 -180 45 -233l101 -512q63 -299 96 -432l117 -6l-12 -74h-603l11 74l145 6q-10 82 -47 295l-16 88h-426l-39 -82q-111 -242 -133 -303l149 -4l-10 -74h-422zM408 551h368l-102 551z " />
<glyph unicode="&#x392;" horiz-adv-x="1355" d="M-16 0l12 72l158 6q25 104 79 450l64 390q47 324 55 421l-153 7l10 71h592q268 0 368 -65q121 -82 121 -256q0 -96 -38 -174t-103 -119q-88 -55 -272 -80q174 -18 251 -78q109 -84 109 -237q0 -104 -47 -192.5t-131 -141.5q-121 -74 -371 -74h-704zM479 86h62 q115 0 179 21.5t109 74.5q86 102 86 271q0 121 -59 173t-201 52h-92l-37 -234q-35 -237 -47 -358zM575 764h66q106 0 158.5 16.5t91.5 61.5q35 43 59.5 120.5t24.5 151.5q0 143 -78 191q-45 27 -160 26h-63q-35 -182 -64 -358z" />
<glyph unicode="&#x393;" horiz-adv-x="1226" d="M-16 0l12 74l158 6q27 111 67 369l82 520q45 293 49 370l-155 7l12 71h1118l-57 -368h-230l33 282h-393q-27 -123 -66 -360l-84 -522q-43 -287 -49 -369l187 -6l-13 -74h-671z" />
<glyph unicode="&#x394;" horiz-adv-x="1368" d="M-41 0l12 82q76 115 213 362l318 572q152 272 215 401h289q16 -127 65 -387l113 -592q59 -303 73 -358l-12 -80h-1286zM170 143h735q-6 31 -17 95.5t-26 136.5l-151 790l-420 -786q-80 -152 -121 -236z" />
<glyph unicode="&#x395;" horiz-adv-x="1259" d="M-16 0l12 72l158 6q37 178 75 418l62 393q49 319 61 450l-155 7l12 71h1079l-59 -368h-230l33 282h-354q-23 -96 -68 -381l-28 -182h419l-16 -100h-420l-24 -154q-29 -205 -45 -307q-2 -14 -7.5 -57.5t-7.5 -63.5h396l59 285h229l-59 -371h-1122z" />
<glyph unicode="&#x396;" horiz-adv-x="1318" d="M10 0l19 113l127 159l161 207l371 479q59 78 82 111l100 131q61 82 93 131h-469l-58 -282h-229l59 368h1069l-18 -112l-219 -281l-44 -56q-38 -48 -57 -75l-292 -379l-87 -117l-98 -133l-94 -123l-39 -55h510l59 301h232l-62 -387h-1116z" />
<glyph unicode="&#x397;" horiz-adv-x="1605" d="M-16 0l12 74l158 6q31 135 75 418l62 387q49 324 61 452l-155 6l12 74h629l-11 -74l-149 -6q-35 -176 -68 -385l-28 -184h522l18 117q47 287 62 452l-144 6l11 74h630l-10 -74l-162 -6q-14 -66 -67 -383l-70 -442q-53 -360 -59 -432l155 -6l-10 -74h-631l11 74l147 6 q29 127 76 418l29 180h-523l-26 -166q-51 -334 -60 -432l144 -6l-11 -74h-630z" />
<glyph unicode="&#x398;" horiz-adv-x="1587" d="M141 600q0 160 55.5 316.5t151.5 277.5q205 248 555 248q295 0 447 -164q158 -168 157 -453q0 -172 -58 -334.5t-161 -281.5q-207 -233 -543 -234q-289 0 -446.5 163t-157.5 462zM459 500q0 -217 68.5 -331t199.5 -114q221 0 338 256q125 262 125 609q0 225 -66.5 333.5 t-205.5 108.5q-201 0 -324 -244q-59 -121 -97 -292.5t-38 -325.5zM563 637l29 170h53q74 -29 195 -29q111 0 194 29h53l-26 -170h-53q-80 29 -201 29q-109 0 -189 -29h-55z" />
<glyph unicode="&#x399;" horiz-adv-x="794" d="M-6 0l12 74l158 6q33 156 76 418l61 387q49 319 61 452l-155 6l12 74h641l-12 -74l-160 -6q-23 -109 -67 -383l-70 -442q-51 -348 -59 -432l155 -6l-12 -74h-641z" />
<glyph unicode="&#x39a;" horiz-adv-x="1380" d="M-16 0l12 74l158 6q39 178 75 418l62 387q49 319 61 452l-155 6l12 74h627l-13 -74l-145 -6q-35 -178 -68 -383l-26 -176l397 379q55 47 98 94l86 84l-141 8l10 74h453l-10 -74l-125 -8q-14 -14 -80 -67l-172 -154l-277 -254l307 -594q90 -170 107 -186l111 -6l-13 -74 h-585l12 74l110 4l-305 598l-26 -164q-53 -356 -60 -432l121 -6l-10 -74h-608z" />
<glyph unicode="&#x39b;" horiz-adv-x="1374" d="M-100 0l12 72l106 10q53 92 197 362l293 572q158 307 201 401h239q14 -119 64 -387l110 -594q57 -293 74 -356l115 -6l-13 -74h-602l11 74l145 6q-12 113 -45 293l-123 747l-362 -741l-99 -213q-2 -4 -16 -38l-23 -52l148 -2l-13 -74h-419z" />
<glyph unicode="&#x39c;" horiz-adv-x="1884" d="M-20 0l12 72l149 6l74 395l98 584q35 197 39 280l-157 6l10 74h526q8 -68 21 -127l45 -215l131 -631l336 637q147 279 172 336h524l-10 -74l-160 -6q-23 -104 -70 -383l-69 -446q-49 -319 -60 -430l156 -6l-10 -72h-639l12 72l158 6q37 174 75 418l62 389l55 329 l-604 -1140h-158l-245 1128l-117 -729q-43 -297 -49 -395l151 -6l-10 -72h-448z" />
<glyph unicode="&#x39d;" horiz-adv-x="1515" d="M-20 0l12 74l158 6q27 129 67 371l88 548q47 334 47 338l-157 6l10 74h497q63 -168 138 -338l303 -719l88 574q39 260 49 403l-145 6l10 74h448l-10 -74l-158 -6q-23 -98 -75 -409l-148 -928h-254q-16 57 -119 309l-374 891l-107 -690q-53 -362 -55 -430l147 -6l-12 -74 h-448z" />
<glyph unicode="&#x39e;" horiz-adv-x="1259" d="M-8 0l59 371h230l-27 -228h631l45 228h231l-59 -371h-1110zM188 1049l58 368h1050l-57 -368h-231l26 225h-571l-45 -225h-230zM342 635l27 172h53q94 -20 249.5 -20.5t256.5 20.5h53l-29 -172h-51q-106 23 -260 22q-156 0 -246 -22h-53z" />
<glyph unicode="&#x39f;" horiz-adv-x="1560" d="M139 596q0 162 54.5 320.5t150.5 277.5q199 248 543 248q281 0 436.5 -162t155.5 -453q0 -174 -57.5 -336.5t-159.5 -281.5q-201 -233 -531 -234q-283 0 -437.5 162t-154.5 459zM457 492q0 -211 65.5 -324t188.5 -113q211 0 327 256q123 266 123 615q0 223 -62.5 329.5 t-195.5 106.5q-195 0 -311 -244q-59 -123 -97 -296.5t-38 -329.5z" />
<glyph unicode="&#x3a0;" horiz-adv-x="1556" d="M-16 0l12 74l158 6q27 111 67 369l82 522q45 301 49 368l-155 7l12 71h1423l-10 -71l-160 -7q-27 -117 -67 -368l-82 -522q-37 -248 -49 -369l155 -6l-10 -74h-631l13 74l143 6q25 102 70 369l79 509q43 270 50 369h-453q-27 -104 -68 -369l-82 -509q-39 -272 -47 -369 l142 -6l-13 -74h-628z" />
<glyph unicode="&#x3a1;" horiz-adv-x="1310" d="M-16 0l12 74l158 6q33 158 75 418l62 387q51 330 61 454l-155 7l12 71h555q160 0 247 -15.5t150 -55.5q139 -88 139 -277q0 -252 -180 -371q-131 -86 -385 -86h-178l-16 -100q-51 -344 -60 -432l170 -6l-12 -74h-655zM569 700h56q106 0 161.5 19.5t98.5 73t70.5 142.5 t27.5 177q0 147 -88 195q-41 25 -152 24h-67q-27 -129 -68 -383z" />
<glyph unicode="&#x3a3;" horiz-adv-x="1234" d="M-49 0l14 86l588 553l-360 719l8 59h1075l-57 -368h-230l33 282h-469l289 -575l-656 -613h680l45 228h232l-60 -371h-1132z" />
<glyph unicode="&#x3a4;" horiz-adv-x="1310" d="M117 1049l59 368h1243l-59 -368h-230l33 282h-219q-25 -111 -67 -385l-68 -434q-47 -322 -61 -432l196 -6l-12 -74h-719l10 74l199 6q31 145 76 420l59 379q45 283 61 452h-215l-57 -282h-229z" />
<glyph unicode="&#x3a5;" horiz-adv-x="1220" d="M84 1343l12 74h606l-12 -74l-162 -6q20 -78 90 -270l109 -305l158 237q184 281 217 340l-139 4l10 74h409l-12 -74l-110 -6q-94 -117 -248 -346l-224 -325q-14 -37 -46.5 -244t-45.5 -346l164 -6l-10 -70h-662l13 70l166 6q78 330 96 579l-184 478q-61 152 -89 204z" />
<glyph unicode="&#x3a6;" horiz-adv-x="1949" d="M143 680q0 281 212 444.5t595 175.5q16 117 23 185l-156 6l10 74h627l-12 -74l-156 -6q-18 -74 -39 -197q301 -33 461 -175t160 -378q0 -184 -93.5 -320t-269.5 -210q-188 -78 -444 -88q-18 -137 -21 -185l154 -6l-10 -73h-627l12 73l156 6q18 74 39 197q-186 20 -315 80 q-306 145 -306 471zM461 631q0 -348 319 -414l158 993q-229 -29 -353 -179t-124 -400zM1073 205q227 27 352 179.5t125 401.5q0 348 -319 414z" />
<glyph unicode="&#x3a7;" horiz-adv-x="1353" d="M-82 0l12 74l90 6q31 27 205 215l338 379l-114 266q-133 313 -175 397l-118 6l10 74h596l-10 -74l-131 -6q20 -88 124 -327l54 -121l192 223q147 178 180 227l-118 4l10 74h405l-10 -74l-117 -6q-84 -84 -243 -262l-254 -287l141 -323q139 -322 172 -385l119 -6l-10 -74 h-604l10 74l129 6q-27 102 -123 330l-70 161l-254 -305l-149 -186l125 -6l-13 -74h-399z" />
<glyph unicode="&#x3a8;" horiz-adv-x="2031" d="M195 1343l12 74l424 10q-6 -104 -39 -307l-29 -180q-18 -123 -18 -182q0 -141 76.5 -209t240.5 -70l78 490q37 240 49 368l-155 6l12 74h627l-13 -74l-157 -6q-27 -113 -68 -368l-78 -490q227 4 316.5 93.5t123.5 340.5l33 207q33 213 60 307l421 -10l-12 -74l-125 -6 q-29 -143 -76 -446q-27 -205 -100.5 -309.5t-224 -149.5t-430.5 -43q-27 -174 -39 -309l156 -6l-13 -74h-626l12 74l155 6q29 104 60 309q-315 -2 -454.5 96.5t-139.5 319.5q0 66 22 211q39 274 41 321z" />
<glyph unicode="&#x3a9;" horiz-adv-x="1650" d="M12 0l27 162q113 -31 354 -31h123l16 98q-100 43 -143 68t-80 61q-143 141 -143 371q0 315 209 514q205 199 555 199q307 0 478 -148.5t171 -416.5q0 -295 -178 -463q-70 -66 -138.5 -99.5t-236.5 -85.5l-16 -98h125q240 0 364 31l-26 -162h-631l47 293q164 59 254 207 q119 199 119 469q0 184 -85 288.5t-235 104.5q-211 0 -336 -207q-123 -203 -123 -477q0 -301 207 -385l-47 -293h-631z" />
<glyph unicode="&#x3aa;" horiz-adv-x="794" d="M-6 0l12 74l158 6q33 156 76 418l61 387q49 319 61 452l-155 6l12 74h641l-12 -74l-160 -6q-23 -109 -67 -383l-70 -442q-51 -348 -59 -432l155 -6l-12 -74h-641zM201 1706q0 66 45 111t114.5 45t113.5 -44t44 -114t-44 -115t-114 -45q-72 0 -115.5 45t-43.5 117z M651 1706q0 66 45 111t115 45t114 -44t44 -114t-44 -115t-114 -45q-72 0 -116 45t-44 117z" />
<glyph unicode="&#x3ab;" horiz-adv-x="1220" d="M84 1343l12 74h606l-12 -74l-162 -6q20 -78 90 -270l109 -305l158 237q184 281 217 340l-139 4l10 74h409l-12 -74l-110 -6q-94 -117 -248 -346l-224 -325q-14 -37 -46.5 -244t-45.5 -346l164 -6l-10 -70h-662l13 70l166 6q78 330 96 579l-184 478q-61 152 -89 204z M442 1706q0 66 45 111t115 45t114 -44t44 -114t-44 -115t-114 -45q-72 0 -116 45t-44 117zM891 1706q0 66 45 111t114.5 45t113.5 -44t44 -114t-44 -115t-113 -45q-72 0 -116 45t-44 117z" />
<glyph unicode="&#x3ac;" horiz-adv-x="1366" d="M96 442q0 127 41 250t111 207q145 172 397 172q178 0 265 -70.5t110 -236.5q82 223 106 309l232 -55q-131 -334 -336 -660q29 -84 74 -130t121 -70l-97 -183q-94 14 -149.5 62.5t-83.5 142.5q-154 -205 -352.5 -205t-318.5 127t-120 340zM410 305q0 -119 33.5 -184.5 t95.5 -65.5q154 0 317 410q0 291 -35 409.5t-123 118.5q-131 0 -209 -223q-79 -219 -79 -465zM621 1223q135 129 192 295h252q35 0 35 -21q0 -41 -107 -133q-123 -104 -344 -199z" />
<glyph unicode="&#x3ad;" horiz-adv-x="1087" d="M61 266q0 184 236 269q-76 39 -108.5 92t-32.5 133q0 313 473 313q244 0 440 -74l-47 -266h-229l20 236q-51 25 -141 24q-94 0 -144 -51q-72 -82 -71 -219q0 -84 40 -117t144 -33h78l-10 -73h-84q-123 0 -181 -58q-70 -66 -69 -186q0 -88 59.5 -135t169.5 -47 q84 0 150.5 29.5t142.5 103.5l72 -105q-166 -127 -428 -127q-231 0 -355.5 75t-124.5 216zM535 1223q135 129 192 295h252q35 0 35 -21q0 -41 -107 -133q-123 -104 -344 -199z" />
<glyph unicode="&#x3ae;" horiz-adv-x="1325" d="M98 0q66 360 103 582l10 67q33 225 41 320l-123 6l12 72l424 12l-22 -162q102 94 188 134t187 40q127 0 194.5 -62.5t67.5 -179.5q0 -39 -15 -149q-2 -25 -12 -117l-158 -1003h-311q104 580 143 825l31 193q25 168 25 223q0 121 -101 121q-53 0 -123.5 -44t-128.5 -112 l-22 -139q-70 -455 -90 -627h-320zM647 1223q135 129 193 295h252q35 0 34 -21q0 -41 -106 -133q-123 -104 -344 -199z" />
<glyph unicode="&#x3af;" horiz-adv-x="679" d="M98 0q29 129 88 498l13 82q37 236 53 389l-123 6l12 72l443 12q-61 -332 -82 -461l-13 -74q-55 -352 -71 -524h-320zM291 1223q135 129 192 295h252q35 0 35 -21q0 -41 -106 -133q-123 -104 -345 -199z" />
<glyph unicode="&#x3b0;" horiz-adv-x="1196" d="M111 975l12 72l442 12q-133 -729 -133 -842q0 -152 127 -151q180 0 250 280q49 197 49 369q0 145 -27 239l-116 4l8 74l383 29q18 -117 18 -242q0 -307 -112 -536q-150 -307 -516 -308q-352 0 -353 289q0 80 33 287q43 276 57 418zM295 1370q0 57 38 94t95 37 q59 0 95 -35.5t36 -95.5q0 -57 -37 -95t-94 -38q-59 0 -96 37t-37 96zM569 1235q78 135 97 305h180q43 0 43 -28.5t-35 -88t-78 -104.5q-70 -70 -172 -131zM905 1370q0 57 38 94t95 37q59 0 95 -35.5t36 -95.5q0 -57 -36.5 -95t-94.5 -38q-59 0 -96 37t-37 96z" />
<glyph unicode="&#x3b1;" horiz-adv-x="1366" d="M96 442q0 127 41 250t111 207q145 172 397 172q178 0 265 -70.5t110 -236.5q82 223 106 309l232 -55q-131 -334 -336 -660q29 -84 74 -130t121 -70l-97 -183q-94 14 -149.5 62.5t-83.5 142.5q-154 -205 -352.5 -205t-318.5 127t-120 340zM410 305q0 -119 33.5 -184.5 t95.5 -65.5q154 0 317 410q0 291 -35 409.5t-123 118.5q-131 0 -209 -223q-79 -219 -79 -465z" />
<glyph unicode="&#x3b2;" horiz-adv-x="1325" d="M35 -440q27 106 69 370l172 1096q27 164 50.5 234.5t72.5 123.5q121 139 371 140q225 0 350 -94.5t125 -262.5q0 -180 -145 -278q-70 -49 -223 -82q178 -27 255.5 -109t77.5 -239q0 -238 -147 -373q-121 -109 -336 -109q-104 0 -169.5 18.5t-133.5 67.5l-21 -133 q-43 -287 -49 -370h-319zM436 152q16 -12 23 -19q94 -72 186 -72q129 0 199 160q53 127 53 285q0 252 -195 252h-26l12 73h17q100 0 157 97q78 131 78 327q0 195 -139 195q-61 0 -103.5 -45t-72.5 -143q-25 -76 -52 -254z" />
<glyph unicode="&#x3b3;" horiz-adv-x="1112" d="M43 958l8 74l373 31q160 -522 149 -860q72 111 161 339t132 412l-139 4l8 74l426 31q-47 -307 -534 -959l-86 -544h-310q20 86 60 313l4 31q18 113 18 233q0 217 -69 490q-47 197 -97 327z" />
<glyph unicode="&#x3b4;" horiz-adv-x="1267" d="M90 424q0 238 152 364q86 74 250 121q-90 59 -127 121t-37 152q0 162 106.5 253t292.5 91q244 0 492 -99l-107 -182q-106 94 -188 133t-168 39q-78 0 -124 -43t-46 -114q0 -61 41 -99q35 -33 170 -106q174 -98 243 -166q127 -121 127 -324q0 -254 -141 -418 q-145 -172 -424 -172q-248 0 -380 116t-132 333zM401 326q0 -272 174 -273q135 0 209 187q70 182 70 331q0 133 -111 213q-59 41 -161 84q-84 -66 -132.5 -210t-48.5 -332z" />
<glyph unicode="&#x3b5;" horiz-adv-x="1087" d="M61 266q0 184 236 269q-76 39 -108.5 92t-32.5 133q0 313 473 313q244 0 440 -74l-47 -266h-229l20 236q-51 25 -141 24q-94 0 -144 -51q-72 -82 -71 -219q0 -84 40 -117t144 -33h78l-10 -73h-84q-123 0 -181 -58q-70 -66 -69 -186q0 -88 59.5 -135t169.5 -47 q84 0 150.5 29.5t142.5 103.5l72 -105q-166 -127 -428 -127q-231 0 -355.5 75t-124.5 216z" />
<glyph unicode="&#x3b6;" horiz-adv-x="933" d="M51 -418l68 201q162 -102 325 -102q250 0 250 172q0 59 -45 84q-23 12 -160 51q-240 68 -319.5 145.5t-79.5 243.5q0 164 78 308t246 298q182 170 438 309q-121 -8 -223 -8q-135 0 -301 19l45 194q176 -29 323.5 -29t360.5 29l-45 -188q-276 -180 -442.5 -427 t-166.5 -476q0 -90 50 -138q25 -23 46 -33t124 -49q121 -45 168 -98t47 -147q0 -86 -39 -167t-105 -134q-123 -98 -342 -99q-168 0 -301 41z" />
<glyph unicode="&#x3b7;" horiz-adv-x="1325" d="M98 0q66 360 103 582l10 67q33 225 41 320l-123 6l12 72l424 12l-22 -162q102 94 188 134t187 40q127 0 194.5 -62.5t67.5 -179.5q0 -39 -15 -149q-2 -25 -12 -117l-158 -1003h-311q104 580 143 825l31 193q25 168 25 223q0 121 -101 121q-53 0 -123.5 -44t-128.5 -112 l-22 -139q-70 -455 -90 -627h-320z" />
<glyph unicode="&#x3b8;" horiz-adv-x="1239" d="M109 578q0 186 52 375.5t142 324.5q84 127 188.5 186.5t245.5 59.5q252 0 367 -181q98 -162 98 -415q0 -193 -52 -382.5t-140 -322.5q-88 -131 -191.5 -189.5t-245.5 -58.5q-250 0 -366 181q-98 162 -98 422zM401 367q0 -164 37 -239t117 -75q111 0 183.5 159t133.5 531 h-436q-35 -253 -35 -376zM453 840h432q25 199 24 293q0 164 -36.5 238.5t-116.5 74.5q-102 0 -173 -141t-130 -465z" />
<glyph unicode="&#x3b9;" horiz-adv-x="679" d="M98 0q29 129 88 498l13 82q37 236 53 389l-123 6l12 72l443 12q-61 -332 -82 -461l-13 -74q-55 -352 -71 -524h-320z" />
<glyph unicode="&#x3ba;" horiz-adv-x="1265" d="M98 0q29 129 88 498l13 82q37 236 53 389l-123 6l12 74l443 10l-9 -51l-18 -86q-4 -29 -16 -95l-22 -115q-9 -50 -9 -59l-8 -59l491 375l-112 6l10 74h391l-12 -74l-90 -6l-299 -203l-88 -68l186 -399q84 -184 111 -217l110 -8l-12 -74h-404q-8 41 -73 190l-154 338 l-76 -57l-4 -37q-45 -287 -59 -434h-320z" />
<glyph unicode="&#x3bb;" horiz-adv-x="1165" d="M-45 0l4 29q100 215 571 995q-43 270 -131 395l-114 4l12 74l383 12q82 -162 160 -604l86 -491q41 -244 116 -332l91 -8l-13 -74h-354q-80 98 -143 467l-70 424q-211 -467 -301 -811l96 -6l-10 -74h-383z" />
<glyph unicode="&#x3bc;" horiz-adv-x="1323" d="M12 -440q76 387 145.5 809t86.5 600l-123 6l12 72l442 12q-76 -420 -92 -529.5t-16 -199.5q0 -219 133 -219q100 0 197 174l108 684l-133 6l12 72l443 12q-121 -662 -154 -979l123 -6l-12 -74l-424 -10l18 145q-53 -92 -95 -126t-108 -34q-106 0 -163 101l-82 -516h-318z " />
<glyph unicode="&#x3bd;" horiz-adv-x="1198" d="M14 958l9 74l393 29q55 -209 94 -428l84 -467q111 147 185.5 369.5t78.5 418.5l-131 4l8 74l402 29q4 -258 -124 -491.5t-462 -569.5h-232q-4 68 -43 276l-47 263q-51 295 -96 415z" />
<glyph unicode="&#x3be;" horiz-adv-x="993" d="M70 328q0 100 48 181t132 126q90 47 276 74q-150 43 -218 113.5t-68 181.5q0 164 163 245q84 43 271 74q-109 -6 -160 -6q-119 0 -199 8l41 172q172 -25 361 -24q154 0 360 24l-45 -190h-94q-213 0 -328.5 -78t-115.5 -223q0 -199 323 -199q14 0 92 4l-22 -137 q-63 12 -127 12q-182 0 -279.5 -79t-97.5 -224q0 -78 39 -120t143 -77q131 -43 193 -82q82 -57 82 -165q0 -78 -32 -158t-83 -131q-104 -111 -313 -111q-184 0 -336 47l65 201q162 -106 336 -106q217 0 217 159q0 76 -80 103q-47 16 -229 57q-119 25 -211 96 q-104 80 -104 232z" />
<glyph unicode="&#x3bf;" horiz-adv-x="1288" d="M100 444q0 127 45 247t127 208q158 172 435 172q231 0 355 -120t124 -343q0 -272 -168 -458q-160 -174 -436 -175q-258 0 -371 134q-111 126 -111 335zM414 334q0 -281 168 -281q70 0 128 60.5t95 169.5q68 203 67 417q0 293 -165 293q-162 0 -248 -307 q-45 -166 -45 -352z" />
<glyph unicode="&#x3c0;" horiz-adv-x="1462" d="M-8 791l158 258h995q205 0 422 20l-119 -192h-215l-92 -584q-10 -63 -11 -109q0 -94 84 -94q59 0 142 51l39 -63q-127 -98 -291 -98q-133 0 -195.5 53t-62.5 166q0 76 28 266l66 412h-313l-80 -508q-41 -281 -49 -369h-310q27 115 70 369l80 508h-143l-158 -132z" />
<glyph unicode="&#x3c1;" horiz-adv-x="1253" d="M-14 -440q16 227 63 565t84 496q53 236 184.5 343t362.5 107q236 0 357.5 -120t121.5 -353q0 -139 -43 -270t-117 -215q-119 -137 -323 -138q-217 0 -318 136q-53 -367 -65 -551h-307zM385 274q20 -74 77.5 -124t123.5 -50q68 0 116 53.5t86 170.5q61 180 62 389 q0 281 -154 280q-102 0 -166.5 -112.5t-103.5 -356.5z" />
<glyph unicode="&#x3c2;" horiz-adv-x="1028" d="M94 -418l68 201q160 -100 323 -100q223 0 224 149q0 55 -36 85t-159 77q-215 82 -287 135q-133 96 -133 293q0 268 131 455q139 195 422 194q197 0 379 -70l-51 -296h-232l27 266q-35 16 -78 16q-143 0 -229 -221q-61 -158 -62 -315q0 -109 66 -158q37 -25 174 -80 q125 -51 175 -110.5t50 -161.5q0 -174 -129 -289q-127 -113 -334 -113q-170 0 -309 43z" />
<glyph unicode="&#x3c3;" horiz-adv-x="1249" d="M96 451q0 125 42 245.5t114 204.5q147 172 387 172q35 0 137 -8q174 -16 279 -16h184l-18 -119l-205 18q135 -139 135 -366q0 -252 -152 -430q-143 -176 -413 -177q-254 0 -371 129q-119 132 -119 347zM401 317q0 -123 42 -193.5t114 -70.5q133 0 215 228q74 211 74 428 q0 285 -158 284q-129 0 -213 -227q-74 -213 -74 -449z" />
<glyph unicode="&#x3c4;" horiz-adv-x="991" d="M-8 791l158 258h526q207 0 420 20l-119 -192h-301l-92 -584q-8 -70 -9 -109q0 -94 82 -94q59 0 142 51l37 -65q-127 -96 -289 -96q-133 0 -194.5 53t-61.5 166q0 102 28 266l64 412h-188l-158 -132z" />
<glyph unicode="&#x3c5;" horiz-adv-x="1196" d="M111 975l12 72l442 12q-133 -729 -133 -842q0 -152 127 -151q180 0 250 280q49 197 49 369q0 145 -27 239l-116 4l8 74l383 29q18 -117 18 -242q0 -307 -112 -536q-150 -307 -516 -308q-352 0 -353 289q0 80 33 287q43 276 57 418z" />
<glyph unicode="&#x3c6;" horiz-adv-x="1720" d="M100 465q0 244 163 400.5t454 191.5l6 -88q-145 -59 -217 -170q-104 -158 -105 -379q0 -289 256 -350l80 493q29 178 46.5 244.5t52.5 118.5q94 139 333 139q461 0 461 -428q0 -385 -313 -553q-158 -86 -412 -104l-8 -58q-41 -272 -49 -362h-281q25 98 70 370l8 50 q-264 20 -404.5 145t-140.5 340zM920 70q129 18 208.5 78.5t128.5 177.5q72 178 72 411q0 242 -135 242q-102 0 -143 -133q-18 -63 -50 -254z" />
<glyph unicode="&#x3c7;" horiz-adv-x="1085" d="M-164 -440l8 47q135 182 555 672l-61 206q-133 442 -168 484l-96 6l12 72l350 12q72 -141 154 -416l41 -137q137 250 196 463l-110 6l12 72l430 12l-8 -47q-115 -178 -489 -611l129 -424q84 -289 178 -335l71 -9l-12 -73h-332q-57 31 -98 109.5t-94 260.5l-74 246 q-190 -346 -244 -536l105 -7l-12 -73h-443z" />
<glyph unicode="&#x3c8;" horiz-adv-x="1710" d="M106 975l13 74l422 10q-45 -225 -85 -479t-40 -316q0 -102 55 -145t184 -43h19l80 506l63 467h297q-55 -287 -88 -488l-76 -485h58q113 0 168 29.5t100 111.5q39 74 66.5 214t27.5 274q0 160 -22 249l-111 4l8 74l377 31q16 -131 16 -248q0 -332 -131 -569 q-78 -133 -197.5 -195.5t-301.5 -62.5h-72l-10 -66q-39 -270 -47 -362h-297q27 104 67 362l10 66h-10q-272 0 -385.5 76.5t-113.5 261.5q0 90 34 313q35 231 43 330z" />
<glyph unicode="&#x3c9;" horiz-adv-x="1689" d="M100 326q0 262 158 643l-115 6l11 72l426 14q-86 -221 -121 -348q-76 -274 -76 -477q0 -178 129 -179q113 0 166 133q27 63 51 213l59 383h244l-61 -378q-18 -115 -19 -191q0 -160 127 -160q76 0 125 57.5t86 184.5q57 215 58 420q0 152 -23 250l-111 4l9 74l374 14 q18 -129 19 -248q0 -346 -129 -586q-133 -250 -393 -250q-113 0 -176.5 43t-104.5 146q-72 -111 -139.5 -151t-184.5 -40q-188 0 -288.5 91.5t-100.5 259.5z" />
<glyph unicode="&#x3ca;" horiz-adv-x="679" d="M72 1370q0 68 45 113t114.5 45t113.5 -44t44 -114t-44 -115t-114 -45q-72 0 -115.5 44t-43.5 116zM98 0q25 115 88 498l13 82q39 244 53 389l-123 6l10 72l445 12q-41 -213 -82 -461l-13 -74q-47 -301 -73 -524h-318zM520 1370q0 68 45 113t115 45t114 -44t44 -114 t-44 -115t-114 -45t-115 44t-45 116z" />
<glyph unicode="&#x3cb;" horiz-adv-x="1196" d="M111 975l12 72l442 12q-133 -729 -133 -842q0 -152 127 -151q180 0 250 280q49 197 49 369q0 145 -27 239l-116 4l8 74l383 29q18 -117 18 -242q0 -307 -112 -536q-150 -307 -516 -308q-352 0 -353 289q0 80 33 287q43 276 57 418zM332 1370q0 68 45 113t114.5 45 t113.5 -44t44 -114t-44 -115t-113.5 -45t-114.5 44t-45 116zM780 1370q0 68 45 113t115 45t114 -44t44 -114t-44 -115t-114 -45q-72 0 -116 44t-44 116z" />
<glyph unicode="&#x3cc;" horiz-adv-x="1288" d="M100 444q0 127 45 247t127 208q158 172 435 172q231 0 355 -120t124 -343q0 -272 -168 -458q-160 -174 -436 -175q-258 0 -371 134q-111 126 -111 335zM414 334q0 -281 168 -281q70 0 128 60.5t95 169.5q68 203 67 417q0 293 -165 293q-162 0 -248 -307 q-45 -166 -45 -352zM596 1223q135 129 192 295h252q35 0 35 -21q0 -41 -106 -133q-123 -104 -344 -199z" />
<glyph unicode="&#x3cd;" horiz-adv-x="1196" d="M111 975l12 72l442 12q-133 -729 -133 -842q0 -152 127 -151q180 0 250 280q49 197 49 369q0 145 -27 239l-116 4l8 74l383 29q18 -117 18 -242q0 -307 -112 -536q-150 -307 -516 -308q-352 0 -353 289q0 80 33 287q43 276 57 418zM578 1223q135 129 192 295h252 q35 0 35 -21q0 -41 -107 -133q-123 -104 -344 -199z" />
<glyph unicode="&#x3ce;" horiz-adv-x="1689" d="M100 326q0 262 158 643l-115 6l11 72l426 14q-86 -221 -121 -348q-76 -274 -76 -477q0 -178 129 -179q113 0 166 133q27 63 51 213l59 383h244l-61 -378q-18 -115 -19 -191q0 -160 127 -160q76 0 125 57.5t86 184.5q57 215 58 420q0 152 -23 250l-111 4l9 74l374 14 q18 -129 19 -248q0 -346 -129 -586q-133 -250 -393 -250q-113 0 -176.5 43t-104.5 146q-72 -111 -139.5 -151t-184.5 -40q-188 0 -288.5 91.5t-100.5 259.5zM791 1223q135 129 192 295h252q35 0 35 -21q0 -41 -107 -133q-123 -104 -344 -199z" />
<glyph unicode="&#x401;" horiz-adv-x="1259" d="M-16 0l12 72l158 6q37 178 75 418l62 393q49 319 61 450l-155 7l12 71h1079l-59 -368h-230l33 282h-354q-23 -96 -68 -381l-28 -182h419l-16 -100h-420l-24 -154q-29 -205 -45 -307q-2 -14 -7.5 -57.5t-7.5 -63.5h396l59 285h229l-59 -371h-1122zM436 1706q0 66 45 111 t115 45t114 -44t44 -114t-44 -115t-114 -45q-72 0 -116 45t-44 117zM885 1706q0 66 45 111t114.5 45t113.5 -44t44 -114t-44 -115t-114 -45q-72 0 -115.5 45t-43.5 117z" />
<glyph unicode="&#x402;" horiz-adv-x="1767" d="M111 1049l59 368h1280l-57 -368h-232l33 282h-254q-18 -78 -68 -364l-30 -201q203 76 385 76q367 0 366 -289q0 -156 -69 -522q-39 -186 -95.5 -276.5t-166.5 -137.5q-102 -45 -375 -57l14 82q129 20 185.5 76.5t95.5 205.5q33 125 67.5 336t34.5 287q0 162 -164 162 q-127 0 -297 -60l-32 -198q-41 -281 -50 -371l170 -6l-10 -74h-694l10 74l197 6q27 111 67 371l82 516q41 268 49 364h-215l-57 -282h-229z" />
<glyph unicode="&#x403;" horiz-adv-x="1226" d="M-16 0l12 74l158 6q27 111 67 369l82 520q45 293 49 370l-155 7l12 71h1118l-57 -368h-230l33 282h-393q-27 -123 -66 -360l-84 -522q-43 -287 -49 -369l187 -6l-13 -74h-671zM629 1563q80 55 160.5 137t123.5 153h263q33 0 32 -14q0 -16 -40 -55t-101 -82 q-139 -98 -403 -197z" />
<glyph unicode="&#x404;" horiz-adv-x="1366" d="M137 569q0 182 62.5 363.5t165.5 298.5q182 209 495 209q270 0 512 -107l-53 -286h-232l29 237q-86 66 -225 66q-295 0 -397 -582h583l-16 -100h-584q-14 -113 -14 -205q0 -207 68.5 -302t220.5 -95q109 0 199.5 38.5t193.5 131.5l76 -119q-193 -141 -488 -141.5 t-445.5 150t-150.5 443.5z" />
<glyph unicode="&#x405;" horiz-adv-x="1183" d="M68 68l41 321h229l-21 -264q84 -61 207 -62q125 0 204 69t79 177q0 76 -35 124t-123 91q-264 131 -342 203q-123 109 -123 283q0 199 148 319q133 113 375 113q236 0 421 -94l-36 -301h-234l21 258q-72 49 -177 49q-111 0 -188.5 -68.5t-77.5 -169.5q0 -82 64 -145 q47 -45 200 -123q193 -96 265 -168q98 -94 98 -258q0 -190 -133 -313q-141 -133 -412 -134q-253 1 -450 93z" />
<glyph unicode="&#x406;" horiz-adv-x="794" d="M-6 0l12 74l158 6q33 156 76 418l61 387q49 319 61 452l-155 6l12 74h641l-12 -74l-160 -6q-23 -109 -67 -383l-70 -442q-51 -348 -59 -432l155 -6l-12 -74h-641z" />
<glyph unicode="&#x407;" horiz-adv-x="794" d="M-6 0l12 74l158 6q33 156 76 418l61 387q49 319 61 452l-155 6l12 74h641l-12 -74l-160 -6q-23 -109 -67 -383l-70 -442q-51 -348 -59 -432l155 -6l-12 -74h-641zM201 1706q0 66 45 111t114.5 45t113.5 -44t44 -114t-44 -115t-114 -45q-72 0 -115.5 45t-43.5 117z M649 1706q0 66 45 111t115 45t114 -44t44 -114t-44 -115t-114 -45q-72 0 -116 45t-44 117z" />
<glyph unicode="&#x408;" horiz-adv-x="782" d="M-223 -186l16 77q27 -4 51 -4q78 0 150 34t112 89q66 86 113 369l80 510q51 305 61 448l-165 6l10 74h653l-10 -74l-162 -6q-12 -57 -68 -379l-92 -585q-25 -160 -41 -221.5t-49 -114.5q-70 -113 -210 -173.5t-330 -60.5q-64 1 -119 11z" />
<glyph unicode="&#x409;" horiz-adv-x="1941" d="M-88 0l6 37q88 33 187.5 170t170.5 325q55 135 105.5 366.5t69.5 438.5l-156 9l12 71h1180l-10 -71l-158 -9q-25 -106 -68 -366l-20 -127h88q260 0 379 -56q168 -80 168 -323q0 -266 -187 -387q-123 -78 -372 -78h-686l12 72l158 6q18 74 67 368l82 517q39 258 47 364 h-405l-37 -221q-76 -483 -146.5 -707.5t-201.5 -406.5zM1116 86h68q121 0 180 21.5t100 78.5q86 123 86 322q0 141 -53 195.5t-192 54.5h-93l-49 -314q-37 -260 -47 -358z" />
<glyph unicode="&#x40a;" horiz-adv-x="2142" d="M-16 0l12 72l158 6q35 156 75 420l62 391q49 313 61 448l-155 6l12 74h629l-11 -74l-149 -6q-14 -61 -68 -379l-28 -186h520l31 199q45 305 49 366l-156 6l10 74h643l-12 -74l-158 -6q-25 -100 -67 -366l-23 -146h97q260 0 378 -55q168 -80 168 -319q0 -258 -184 -375 q-125 -76 -373 -76h-692l10 72l158 6q20 92 70 371l36 233h-520l-26 -174q-51 -336 -60 -430l144 -6l-11 -72h-630zM1307 86h77q119 0 178.5 20.5t100.5 77.5q84 117 84 310q0 139 -53.5 192t-194.5 53h-98l-45 -295q-41 -264 -49 -358z" />
<glyph unicode="&#x40b;" horiz-adv-x="1794" d="M111 1049l59 368h1280l-57 -368h-232l33 282h-254q-18 -78 -68 -364l-30 -201q201 76 387 76q389 0 389 -279q0 -61 -29 -250q-25 -176 -24 -233l131 -6l-13 -74h-612l12 74l152 6q27 111 49.5 254t22.5 201q0 174 -185 174q-135 0 -299 -60l-32 -198q-41 -281 -50 -371 l170 -6l-10 -74h-694l10 74l197 6q27 111 67 371l82 516q41 268 49 364h-215l-57 -282h-229z" />
<glyph unicode="&#x40c;" horiz-adv-x="1357" d="M-16 0l12 72l158 6q29 123 75 418l62 393q49 305 61 448l-155 6l12 74h629l-13 -74l-147 -6q-12 -61 -68 -381l-28 -190h102q74 0 114 14.5t87 57.5q51 47 88 99t92 159l129 237l-147 10l12 74h465l-13 -74l-133 -8q-23 -31 -168 -254l-80 -123q-55 -88 -97 -133t-99 -80 q102 -31 150.5 -104.5t80.5 -253.5l64 -307l106 -6l-10 -74h-391l-35 207q-29 164 -49.5 250t-56 140t-78.5 68.5t-121 14.5h-27l-26 -172q-45 -301 -60 -430l146 -6l-13 -72h-630zM811 1563q80 55 161 137t124 153h262q33 0 33 -14q0 -16 -40 -55t-102 -82 q-139 -98 -403 -197z" />
<glyph unicode="&#x40e;" horiz-adv-x="1316" d="M131 1343l12 74h607l-11 -74l-161 -6q18 -82 77 -284l129 -410l211 356q152 264 187 340l-123 4l12 74h397l-10 -74l-112 -6q-66 -88 -226 -346l-448 -737q-94 -156 -169 -210t-194 -54q-57 0 -153 10l47 201q63 -12 114 -13q102 0 166 43q51 33 86 78l17 19l-271 798 q-43 137 -77 211zM596 1745q0 57 10 127h88q2 -96 46 -127t175 -31q129 0 184.5 33t82.5 125h88q-25 -164 -68 -227q-80 -119 -299 -119q-164 0 -235.5 51t-71.5 168z" />
<glyph unicode="&#x40f;" horiz-adv-x="1544" d="M-16 0l12 72l158 6q29 123 67 368l82 523q43 272 49 368l-155 6l12 74h622l-10 -74l-139 -6q-23 -94 -70 -368l-80 -510q-43 -281 -49 -369h443q29 127 67 369l82 510q41 281 47 368l-137 6l12 74h625l-12 -74l-158 -6q-27 -111 -68 -368l-84 -523q-43 -293 -47 -368 l156 -6l-12 -72h-584l-76 -371h-211l41 371h-583z" />
<glyph unicode="&#x410;" horiz-adv-x="1388" d="M-88 0l12 74l113 8q74 113 196 364l281 570q129 260 193 401h223q16 -109 26 -160q33 -180 45 -233l101 -512q63 -299 96 -432l117 -6l-12 -74h-603l11 74l145 6q-10 82 -47 295l-16 88h-426l-39 -82q-111 -242 -133 -303l149 -4l-10 -74h-422zM408 551h368l-102 551z " />
<glyph unicode="&#x411;" horiz-adv-x="1337" d="M-16 0l12 72l158 6q18 74 67 368l82 523q43 270 49 370l-155 7l12 71h1077l-59 -368h-230l33 282h-350q-20 -76 -66 -360l-20 -127h88q258 0 377 -56q168 -78 168 -323q0 -266 -187 -387q-123 -78 -370 -78h-686zM479 86h68q121 0 180 21.5t100 78.5q86 123 86 322 q0 141 -53 195.5t-192 54.5h-93l-49 -314q-35 -233 -47 -358z" />
<glyph unicode="&#x412;" horiz-adv-x="1355" d="M-16 0l12 72l158 6q25 104 79 450l64 390q47 324 55 421l-153 7l10 71h592q268 0 368 -65q121 -82 121 -256q0 -96 -38 -174t-103 -119q-88 -55 -272 -80q174 -18 251 -78q109 -84 109 -237q0 -104 -47 -192.5t-131 -141.5q-121 -74 -371 -74h-704zM479 86h62 q115 0 179 21.5t109 74.5q86 102 86 271q0 121 -59 173t-201 52h-92l-37 -234q-35 -237 -47 -358zM575 764h66q106 0 158.5 16.5t91.5 61.5q35 43 59.5 120.5t24.5 151.5q0 143 -78 191q-45 27 -160 26h-63q-35 -182 -64 -358z" />
<glyph unicode="&#x413;" horiz-adv-x="1226" d="M-16 0l12 74l158 6q27 111 67 369l82 520q45 293 49 370l-155 7l12 71h1118l-57 -368h-230l33 282h-393q-27 -123 -66 -360l-84 -522q-43 -287 -49 -369l187 -6l-13 -74h-671z" />
<glyph unicode="&#x414;" horiz-adv-x="1423" d="M-141 -371l69 443l103 6q94 72 156.5 189.5t138.5 363.5l137 448q37 123 67 248l-153 19l12 71h1112l-12 -71l-158 -7q-20 -84 -67 -370l-84 -523q-43 -285 -47 -368l155 -6l-71 -443h-226l41 371h-870l-76 -371h-227zM215 90h590q27 123 67 369l80 499q39 272 47 369 h-319q-18 -51 -88 -266l-133 -430q-80 -262 -123 -358.5t-121 -182.5z" />
<glyph unicode="&#x415;" horiz-adv-x="1259" d="M-16 0l12 72l158 6q37 178 75 418l62 393q49 319 61 450l-155 7l12 71h1079l-59 -368h-230l33 282h-354q-23 -96 -68 -381l-28 -182h419l-16 -100h-420l-24 -154q-29 -205 -45 -307q-2 -14 -7.5 -57.5t-7.5 -63.5h396l59 285h229l-59 -371h-1122z" />
<glyph unicode="&#x416;" horiz-adv-x="2021" d="M-76 0l13 74l104 6l145 309q94 215 168 284.5t219 86.5q-47 37 -75.5 85t-77.5 173l-25 63l-104 254l-129 11l12 71h453l-11 -71l-145 -13l76 -252q53 -176 112 -243q37 -41 76 -56.5t105 -15.5h67l33 203q39 274 47 368l-153 6l12 74h616l-12 -74l-156 -6 q-25 -96 -67 -368l-33 -203h82q86 0 134 15.5t91 56.5q82 82 174 260l123 235l-141 13l12 71h465l-10 -71l-133 -11l-201 -309l-37 -59q-66 -104 -105.5 -147.5t-101.5 -78.5q102 -29 150.5 -99.5t81.5 -248.5l65 -313l103 -6l-11 -74h-389l-37 207q-37 209 -71.5 304 t-87 132t-152.5 37h-18l-35 -231q-43 -281 -49 -369l153 -6l-12 -74h-616l12 74l155 6q23 94 68 369l37 231h-64q-72 0 -114.5 -13.5t-92 -68.5t-94.5 -140t-120 -251l-97 -207h-387z" />
<glyph unicode="&#x417;" horiz-adv-x="1245" d="M39 104l92 136q158 -172 383 -172q176 0 246 137q55 106 55 246q0 88 -42 139t-132 74q-86 23 -219 22h-64l15 90h61q256 0 361 80q55 43 91 126t36 169q0 98 -55.5 152.5t-153.5 54.5q-102 0 -207 -60l-62 -251h-231l45 290q236 104 473 105q236 0 364 -90t128 -256 q0 -240 -262 -316q-80 -23 -244 -41q176 -27 250 -67q158 -86 157 -283q0 -106 -42 -194.5t-113 -139.5q-121 -80 -379 -80q-350 0 -551 129z" />
<glyph unicode="&#x418;" horiz-adv-x="1605" d="M-16 0l12 74l158 6q27 111 67 369l82 520q43 272 49 368l-155 6l12 74h622l-12 -74l-145 -6q-23 -88 -68 -368l-92 -576l664 828q2 16 5 37.5t3 27.5q4 49 4 51l-141 6l10 74h622l-10 -74l-160 -6q-25 -100 -67 -368l-82 -520q-37 -248 -49 -369l155 -6l-10 -74h-622 l10 74l145 6q18 76 70 369l90 579l-664 -827q-2 -16 -3 -29.5t-2 -20t-1 -12.5t-1 -11t-2 -18.5t-3 -29.5l143 -6l-12 -74h-622z" />
<glyph unicode="&#x419;" horiz-adv-x="1605" d="M-16 0l12 74l158 6q27 111 67 369l82 520q43 272 49 368l-155 6l12 74h622l-12 -74l-145 -6q-23 -88 -68 -368l-92 -576l664 828q2 16 5 37.5t3 27.5q4 49 4 51l-141 6l10 74h622l-10 -74l-160 -6q-25 -100 -67 -368l-82 -520q-37 -248 -49 -369l155 -6l-10 -74h-622 l10 74l145 6q18 76 70 369l90 579l-664 -827q-2 -16 -3 -29.5t-2 -20t-1 -12.5t-1 -11t-2 -18.5t-3 -29.5l143 -6l-12 -74h-622zM657 1747q0 55 11 125h88q0 -94 44 -126t177 -32q129 0 184.5 33t81.5 125h88q-20 -158 -65 -227q-82 -119 -301 -119q-164 0 -236 51t-72 170z " />
<glyph unicode="&#x41a;" horiz-adv-x="1357" d="M-16 0l12 72l158 6q29 123 75 418l62 393q49 305 61 448l-155 6l12 74h629l-13 -74l-147 -6q-12 -61 -68 -381l-28 -190h102q74 0 114 14.5t87 57.5q51 47 88 99t92 159l129 237l-147 10l12 74h465l-13 -74l-133 -8q-23 -31 -168 -254l-80 -123q-55 -88 -97 -133t-99 -80 q102 -31 150.5 -104.5t80.5 -253.5l64 -307l106 -6l-10 -74h-391l-35 207q-29 164 -49.5 250t-56 140t-78.5 68.5t-121 14.5h-27l-26 -172q-45 -301 -60 -430l146 -6l-13 -72h-630z" />
<glyph unicode="&#x41b;" horiz-adv-x="1406" d="M-88 0l6 39q88 33 187.5 169t170.5 324q55 133 105.5 365.5t69.5 439.5l-156 9l12 71h1178l-12 -71l-158 -9q-20 -82 -68 -368l-84 -520q-39 -262 -47 -369l156 -6l-12 -74h-642l11 74l157 6q25 104 68 369l82 509q39 270 49 369h-403l-37 -221q-78 -483 -147.5 -706.5 t-200.5 -407.5z" />
<glyph unicode="&#x41c;" horiz-adv-x="1884" d="M-20 0l12 72l149 6l74 395l98 584q35 197 39 280l-157 6l10 74h526q8 -68 21 -127l45 -215l131 -631l336 637q147 279 172 336h524l-10 -74l-160 -6q-23 -104 -70 -383l-69 -446q-49 -319 -60 -430l156 -6l-10 -72h-639l12 72l158 6q37 174 75 418l62 389l55 329 l-604 -1140h-158l-245 1128l-117 -729q-43 -297 -49 -395l151 -6l-10 -72h-448z" />
<glyph unicode="&#x41d;" horiz-adv-x="1605" d="M-16 0l12 74l158 6q31 135 75 418l62 387q49 324 61 452l-155 6l12 74h629l-11 -74l-149 -6q-35 -176 -68 -385l-28 -184h522l18 117q47 287 62 452l-144 6l11 74h630l-10 -74l-162 -6q-14 -66 -67 -383l-70 -442q-53 -360 -59 -432l155 -6l-10 -74h-631l11 74l147 6 q29 127 76 418l29 180h-523l-26 -166q-51 -334 -60 -432l144 -6l-11 -74h-630z" />
<glyph unicode="&#x41e;" horiz-adv-x="1560" d="M139 596q0 162 54.5 320.5t150.5 277.5q199 248 543 248q281 0 436.5 -162t155.5 -453q0 -174 -57.5 -336.5t-159.5 -281.5q-201 -233 -531 -234q-283 0 -437.5 162t-154.5 459zM457 492q0 -211 65.5 -324t188.5 -113q211 0 327 256q123 266 123 615q0 223 -62.5 329.5 t-195.5 106.5q-195 0 -311 -244q-59 -123 -97 -296.5t-38 -329.5z" />
<glyph unicode="&#x41f;" horiz-adv-x="1556" d="M-16 0l12 74l158 6q27 111 67 369l82 522q45 301 49 368l-155 7l12 71h1423l-10 -71l-160 -7q-27 -117 -67 -368l-82 -522q-37 -248 -49 -369l155 -6l-10 -74h-631l10 74l146 6q25 102 70 369l79 509q43 270 50 369h-453q-27 -104 -68 -369l-82 -509q-39 -272 -47 -369 l142 -6l-11 -74h-630z" />
<glyph unicode="&#x420;" horiz-adv-x="1310" d="M-16 0l12 74l158 6q33 158 75 418l62 387q51 330 61 454l-155 7l12 71h555q160 0 247 -15.5t150 -55.5q139 -88 139 -277q0 -252 -180 -371q-131 -86 -385 -86h-178l-16 -100q-51 -344 -60 -432l170 -6l-12 -74h-655zM569 700h56q106 0 161.5 19.5t98.5 73t70.5 142.5 t27.5 177q0 147 -88 195q-41 25 -152 24h-67q-27 -129 -68 -383z" />
<glyph unicode="&#x421;" horiz-adv-x="1378" d="M135 563q0 182 63.5 352t176.5 293q215 236 565 236q227 0 430 -92l-49 -314h-236l25 277q-59 37 -147 37q-225 0 -371 -271q-131 -246 -131 -563q0 -219 82 -335.5t235 -116.5q84 0 154 30l67 291h236l-51 -317q-190 -94 -428 -95q-332 0 -488 181q-133 155 -133 407z " />
<glyph unicode="&#x422;" horiz-adv-x="1310" d="M117 1049l59 368h1243l-59 -368h-230l33 282h-219q-25 -111 -67 -385l-68 -434q-47 -322 -61 -432l196 -6l-12 -74h-719l10 74l199 6q31 145 76 420l59 379q45 283 61 452h-215l-57 -282h-229z" />
<glyph unicode="&#x423;" horiz-adv-x="1316" d="M131 1343l12 74h607l-11 -74l-161 -6q18 -82 77 -284l129 -410l211 356q152 264 187 340l-123 4l12 74h397l-10 -74l-112 -6q-66 -88 -226 -346l-448 -737q-94 -156 -169 -210t-194 -54q-57 0 -153 10l47 201q63 -12 114 -13q102 0 166 43q51 33 86 78l17 19l-271 798 q-43 137 -77 211z" />
<glyph unicode="&#x424;" horiz-adv-x="1949" d="M143 680q0 281 212 444.5t595 175.5q16 117 23 185l-156 6l10 74h627l-12 -74l-156 -6q-18 -74 -39 -197q301 -33 461 -175t160 -378q0 -184 -93.5 -320t-269.5 -210q-188 -78 -444 -88q-18 -137 -21 -185l154 -6l-10 -73h-627l12 73l156 6q18 74 39 197q-186 20 -315 80 q-306 145 -306 471zM461 631q0 -348 319 -414l158 993q-229 -29 -353 -179t-124 -400zM1073 205q227 27 352 179.5t125 401.5q0 348 -319 414z" />
<glyph unicode="&#x425;" horiz-adv-x="1353" d="M-82 0l12 74l90 6q31 27 205 215l338 379l-114 266q-133 313 -175 397l-118 6l10 74h596l-10 -74l-131 -6q20 -88 124 -327l54 -121l192 223q147 178 180 227l-118 4l10 74h405l-10 -74l-117 -6q-84 -84 -243 -262l-254 -287l141 -323q139 -322 172 -385l119 -6l-10 -74 h-604l10 74l129 6q-27 102 -123 330l-70 161l-254 -305l-149 -186l125 -6l-13 -74h-399z" />
<glyph unicode="&#x426;" horiz-adv-x="1544" d="M-16 0l12 72l158 6q29 123 67 368l82 523q43 272 49 368l-155 6l12 74h625l-13 -74l-139 -6q-23 -94 -70 -368l-80 -510q-43 -281 -49 -369h443q29 127 67 369l82 510q41 281 47 368l-137 6l12 74h625l-12 -74l-158 -6q-27 -111 -68 -368l-84 -523q-43 -293 -47 -368 l156 -6l-72 -443h-225l41 371h-1169z" />
<glyph unicode="&#x427;" horiz-adv-x="1490" d="M147 1343l13 74h628l-12 -74l-158 -6q-86 -375 -86 -561q0 -145 70 -207.5t234 -62.5q35 0 90 8l22 2l72 453q39 268 49 368l-143 6l12 74h629l-11 -74l-159 -6q-25 -98 -68 -368l-82 -520q-43 -287 -49 -369l156 -6l-11 -74h-667l12 74l180 6q23 92 64 340l4 14 q-111 -18 -213 -18q-250 0 -372 98t-122 299q0 74 25 231q33 221 35 293z" />
<glyph unicode="&#x428;" horiz-adv-x="2252" d="M-16 0l12 72l158 6q29 123 67 368l82 523q43 272 49 368l-155 6l12 74h622l-10 -74l-139 -6q-23 -94 -70 -368l-80 -510q-43 -281 -49 -369h410q29 117 70 369l79 510q37 233 50 368l-138 6l13 74h604l-12 -74l-138 -6q-25 -102 -69 -368l-80 -510q-41 -279 -49 -369h409 q27 117 70 369l80 510q37 258 49 368l-137 6l10 74h625l-11 -74l-159 -6q-27 -111 -68 -368l-82 -523q-41 -268 -49 -368l156 -6l-11 -72h-2121z" />
<glyph unicode="&#x429;" horiz-adv-x="2252" d="M-16 0l12 72l158 6q29 123 67 368l82 523q43 272 49 368l-155 6l12 74h622l-10 -74l-139 -6q-23 -94 -70 -368l-80 -510q-43 -281 -49 -369h410q29 117 70 369l79 510q37 233 50 368l-138 6l13 74h604l-12 -74l-138 -6q-25 -102 -69 -368l-80 -510q-41 -279 -49 -369h409 q27 117 70 369l80 510q37 258 49 368l-137 6l10 74h625l-11 -74l-159 -6q-27 -111 -68 -368l-82 -523q-41 -268 -49 -368l156 -6l-70 -443h-227l41 371h-1876z" />
<glyph unicode="&#x42a;" horiz-adv-x="1576" d="M84 1049l59 368h977l-12 -71l-158 -7q-18 -76 -67 -368l-21 -127h90q258 0 377 -56q168 -78 168 -323q0 -266 -186 -387q-123 -78 -373 -78h-686l12 72l158 6q23 96 70 368l79 517q35 223 50 368h-250l-58 -282h-229zM748 86h69q121 0 179.5 21.5t99.5 78.5 q86 123 86 322q0 141 -53.5 195.5t-192.5 54.5h-90l-49 -314q-39 -254 -49 -358z" />
<glyph unicode="&#x42b;" horiz-adv-x="2054" d="M-16 0l12 72l158 6q18 74 67 368l84 525q43 307 47 366l-155 6l12 74h641l-10 -74l-158 -6q-27 -117 -68 -366l-20 -127h88q258 0 377 -56q168 -78 168 -323q0 -266 -187 -387q-123 -78 -370 -78h-686zM479 86h68q121 0 179 21.5t99 78.5q86 123 86 322q0 141 -53 195.5 t-190 54.5h-93l-49 -314q-35 -233 -47 -358zM1266 0l12 74l158 6q39 188 75 418l62 391q45 270 61 448l-155 6l12 74h641l-12 -74l-160 -6q-20 -94 -68 -379l-69 -450q-49 -326 -60 -428l156 -6l-12 -74h-641z" />
<glyph unicode="&#x42c;" horiz-adv-x="1304" d="M-16 0l12 72l158 6q18 74 67 368l84 525q43 307 47 366l-155 6l12 74h641l-10 -74l-158 -6q-27 -117 -68 -366l-20 -127h88q260 0 377 -56q168 -80 168 -323q0 -266 -187 -387q-123 -78 -370 -78h-686zM479 86h68q121 0 179 21.5t99 78.5q86 123 86 322q0 141 -53 195.5 t-190 54.5h-93l-49 -314q-35 -233 -47 -358z" />
<glyph unicode="&#x42d;" horiz-adv-x="1343" d="M41 102l92 134q78 -90 162 -130t192 -40q225 0 328 245q66 154 103 357h-566l17 100h563q12 125 12 193q0 389 -244 389q-125 0 -206 -68l-50 -235h-229l37 286q221 106 455 107q276 0 418.5 -151.5t142.5 -446.5q0 -188 -55.5 -359.5t-153.5 -287.5q-184 -219 -531 -220 q-309 0 -487 127z" />
<glyph unicode="&#x42e;" horiz-adv-x="2324" d="M-16 0l12 74l158 6q29 117 75 418l62 391q45 268 61 448l-155 6l12 74h629l-11 -74l-149 -6q-16 -78 -68 -379l-28 -190h358q47 254 186 424q199 250 537 250q285 0 432 -164q152 -168 152 -451q0 -174 -56.5 -336.5t-158.5 -281.5q-197 -233 -525 -234q-313 0 -463 201 q-121 158 -120 410q0 45 4 92h-361l-26 -170q-51 -330 -60 -428l144 -6l-11 -74h-630zM1241 489q0 -211 62.5 -322.5t183.5 -111.5q207 0 321 256q121 272 121 617q0 223 -61.5 328.5t-188.5 105.5q-190 0 -305 -244q-59 -125 -96 -298t-37 -331z" />
<glyph unicode="&#x42f;" horiz-adv-x="1392" d="M-80 0l12 74l107 6l139 309q82 178 137.5 234.5t167.5 81.5q-264 43 -264 301q0 244 178 346q115 66 355 65h718l-12 -71l-158 -7q-25 -104 -67 -368l-84 -522q-39 -272 -47 -369l155 -6l-12 -74h-641l10 74l162 6q25 92 68 369l33 200h-84q-78 0 -120 -19.5t-79 -70.5 q-78 -109 -180 -352l-84 -207h-410zM532 950q0 -115 54.5 -165t179.5 -50h123l94 596h-94q-117 0 -171 -16.5t-95 -63.5q-91 -104 -91 -301z" />
<glyph unicode="&#x430;" horiz-adv-x="1300" d="M98 412q0 287 139.5 474t350.5 187q190 0 293 -164l22 140h293l-78 -437l-55 -352q-10 -59 -10 -88q0 -74 59 -74q37 0 109 33l34 -72q-135 -84 -282 -84q-100 0 -147.5 36t-55.5 118q-63 -82 -135 -118t-176 -36q-174 0 -267.5 113t-93.5 324zM416 395q0 -133 42 -203.5 t120 -70.5q111 0 192 143l84 531q-74 131 -176 131q-125 0 -201 -195q-61 -152 -61 -336z" />
<glyph unicode="&#x431;" horiz-adv-x="1247" d="M113 408q0 139 42 350t93 336q121 299 491 374q172 37 473 48l-12 -170q-150 8 -231 8q-174 0 -257 -32t-132 -116q-59 -106 -91 -272q121 137 285 137q186 0 285.5 -111.5t99.5 -320.5q0 -270 -135 -459q-154 -205 -436 -205q-227 0 -351 113t-124 320zM410 301 q0 -248 155 -248q133 0 213 230q68 188 68 407q0 119 -41 187.5t-113 68.5q-57 0 -119.5 -47t-103.5 -125l-39 -248q-20 -129 -20 -225z" />
<glyph unicode="&#x432;" horiz-adv-x="1296" d="M94 430q0 137 51.5 266t141.5 215q168 160 452 160q211 0 328 -64.5t117 -181.5q0 -78 -47 -125t-162 -82q-8 0 -17 -6q213 -49 213 -254q0 -178 -151.5 -280.5t-413.5 -102.5q-285 0 -411 148q-101 119 -101 307zM408 354q0 -301 198 -301q147 0 213 148q47 100 47 207 q0 145 -207 145q-51 0 -237 -16q-14 -124 -14 -183zM438 623q190 0 307 45q137 49 138 188q0 137 -135 137q-109 0 -189 -96t-121 -274z" />
<glyph unicode="&#x433;" horiz-adv-x="1071" d="M45 221q0 129 109 203q66 47 260 108q111 35 156.5 57.5t74.5 57.5q49 55 49 150q0 78 -42 123t-113 45q-123 0 -287 -101l-45 117q201 90 420 90q381 0 381 -254q0 -117 -84 -188q-59 -49 -285 -123q-123 -41 -161 -58.5t-64 -44.5q-55 -59 -56 -147q0 -82 46.5 -130 t125.5 -48q135 0 344 108l50 -127q-254 -84 -475 -84q-404 0 -404 246z" />
<glyph unicode="&#x434;" horiz-adv-x="1259" d="M100 446q0 133 43 265.5t115 216.5q125 145 340 145q207 0 301 -131q8 55 8 129q0 164 -71.5 227.5t-255.5 63.5q-86 0 -209 -21l10 175q283 -8 450 -54q188 -51 275.5 -172t87.5 -332q0 -178 -37 -381.5t-90 -326.5q-121 -274 -485 -275q-238 0 -360 120t-122 351z M410 336q0 -283 151 -283q121 0 189 146q45 104 88 358l34 219q-18 80 -67 127t-115 47q-70 0 -122 -53t-93 -168q-65 -186 -65 -393z" />
<glyph unicode="&#x435;" horiz-adv-x="1202" d="M98 428q0 252 142 436q156 207 444 207q225 0 338 -108q90 -92 90 -293q0 -72 -12 -154h-678q-12 -90 -12 -147q0 -299 258 -299q135 0 272 88l47 -76q-176 -106 -395 -107q-238 0 -366 118t-128 335zM436 596h361q18 111 18 195q0 111 -27.5 157.5t-91.5 46.5 q-90 0 -157.5 -104.5t-102.5 -294.5z" />
<glyph unicode="&#x436;" horiz-adv-x="2342" d="M27 47l51 297h215l-27 -266q37 -23 64 -23q78 0 127 127q84 211 84 506q0 287 -150 287q-98 0 -205 -88l-45 76q137 111 308 110q188 0 288.5 -115.5t100.5 -334.5v-39h200l15 96q39 264 49 369h309q-41 -195 -68 -369l-14 -96h191q43 240 171 364.5t328 124.5 q152 0 299 -72l-51 -296h-215l25 266q-29 20 -58 20q-78 0 -129 -127q-88 -211 -88 -504q0 -289 154 -288q92 0 203 88l45 -74q-131 -111 -306 -111q-190 0 -291.5 115t-101.5 330q0 18 4 84h-194l-21 -135q-41 -268 -49 -369h-309q27 115 68 369l22 135h-197 q-37 -260 -164.5 -394.5t-338.5 -134.5q-152 0 -299 72z" />
<glyph unicode="&#x437;" horiz-adv-x="1089" d="M-4 96l98 111q66 -72 132.5 -101.5t158.5 -29.5q121 0 188.5 69.5t67.5 194.5q0 84 -43 122t-139 38h-84l12 73h78q121 0 170 39q78 68 78 217q0 162 -174 162q-68 0 -121 -22l-53 -236h-230l37 266q176 74 389 74q453 0 453 -282q0 -98 -50.5 -158t-164.5 -98 q80 -47 115.5 -102.5t35.5 -137.5q0 -197 -178 -272q-111 -47 -313 -48q-307 0 -463 121z" />
<glyph unicode="&#x438;" horiz-adv-x="1323" d="M123 975l12 72l443 12l-80 -443l-33 -206q-14 -100 -14 -160q0 -125 94 -125q121 0 254 160l108 684l-133 6l12 72l443 12l-76 -428l-39 -242l-39 -309l123 -6l-12 -74l-424 -10l20 157q-111 -98 -190.5 -135t-185.5 -37q-125 0 -192 61.5t-67 176.5q0 61 31 270l19 117 q16 88 20 143q16 109 19 144q6 31 10 82z" />
<glyph unicode="&#x439;" horiz-adv-x="1323" d="M123 975l12 72l443 12l-80 -443l-33 -206q-14 -100 -14 -160q0 -125 94 -125q121 0 254 160l108 684l-133 6l12 72l443 12l-76 -428l-39 -242l-39 -309l123 -6l-12 -74l-424 -10l20 157q-111 -98 -190.5 -135t-185.5 -37q-125 0 -192 61.5t-67 176.5q0 61 31 270l19 117 q16 88 20 143q16 109 19 144q6 31 10 82zM451 1386q0 63 12 130h86v-25q0 -74 50 -103.5t171 -29.5q129 0 185.5 32.5t82.5 125.5h86q-23 -164 -65 -228q-78 -119 -301 -119q-164 0 -235.5 51t-71.5 166z" />
<glyph unicode="&#x43a;" horiz-adv-x="1196" d="M98 0q25 86 87.5 485.5t66.5 483.5l-131 6l12 74l451 10q-31 -145 -68 -375l-18 -111h55q102 0 154.5 41t134.5 185l98 176l-109 6l11 68h397l-10 -68l-107 -6l-131 -184l-61 -91q-72 -102 -144 -145q92 -25 129 -79t74 -222l39 -182l86 -4l-12 -68h-354l-29 154 q-41 215 -78 278.5t-125 63.5h-31l-18 -123q-39 -233 -49 -373h-320z" />
<glyph unicode="&#x43b;" horiz-adv-x="1198" d="M-57 25v34q180 137 266 341t121 569l-131 8l12 72h1012l-13 -72l-131 -6q-31 -125 -81 -442.5t-60 -448.5l129 -6l-10 -74h-432q10 127 55 408l22 135q51 326 58 426h-299q-31 -365 -99.5 -594.5t-197.5 -399.5z" />
<glyph unicode="&#x43c;" horiz-adv-x="1640" d="M-35 29v22q238 260 295 918l-135 6l12 74h494q16 -90 65 -291l101 -416l233 418l96 174l60 115h477l-12 -74l-131 -6q-33 -154 -80 -452t-60 -439l129 -6l-12 -72h-412q4 72 50 369l79 495l-456 -811h-193l-194 828q-41 -375 -87 -581t-118 -325z" />
<glyph unicode="&#x43d;" horiz-adv-x="1361" d="M109 0q29 115 90 500t63 469l-129 6l10 74l453 10q-33 -145 -64 -332l-22 -143h360l23 133q35 246 41 332h319q-27 -111 -88 -496t-65 -473l131 -6l-12 -74h-431q8 111 50 375l20 129h-360l-23 -135q-39 -270 -47 -369h-319z" />
<glyph unicode="&#x43e;" horiz-adv-x="1288" d="M100 444q0 127 45 247t127 208q158 172 435 172q231 0 355 -120t124 -343q0 -272 -168 -458q-160 -174 -436 -175q-258 0 -371 134q-111 126 -111 335zM414 334q0 -281 168 -281q70 0 128 60.5t95 169.5q68 203 67 417q0 293 -165 293q-162 0 -248 -307 q-45 -166 -45 -352z" />
<glyph unicode="&#x43f;" horiz-adv-x="1327" d="M98 0q66 360 103 582l10 67q33 225 41 320l-123 6l12 72l424 12l-22 -162q100 94 186 134t186 40q127 0 196 -62.5t69 -177.5q0 -76 -33 -268l-19 -114q-31 -205 -47 -369l129 -6l-12 -74h-428q4 23 6 45.5t4 34.5q6 63 25 186q20 145 22 162l25 150q25 166 25 225 q0 119 -97 119q-53 0 -123.5 -44t-126.5 -112l-22 -139q-70 -455 -90 -627h-320z" />
<glyph unicode="&#x440;" horiz-adv-x="1323" d="M29 -440q41 209 102 583l72 457q41 281 47 369l-121 6l12 72l424 12l-14 -119q131 131 303 131q180 0 276.5 -113.5t96.5 -328.5q0 -283 -137 -473q-133 -180 -363 -181q-215 0 -299 158l-8 -59q-59 -389 -74 -514h-317zM451 283q25 -84 76 -133.5t116 -49.5 q131 0 209 219q61 174 61 367q0 264 -145 264q-102 0 -238 -157z" />
<glyph unicode="&#x441;" horiz-adv-x="1077" d="M96 422q0 272 152 457q160 193 459 192q184 0 350 -70l-51 -296h-230l25 266q-41 20 -82 20q-145 0 -232 -219q-33 -80 -55 -199.5t-22 -214.5q0 -287 223 -286q125 0 266 88l43 -74q-160 -111 -367 -111q-231 0 -355 115t-124 332z" />
<glyph unicode="&#x442;" horiz-adv-x="1214" d="M53 705l56 344h1165l-55 -344h-222l29 258h-192q-109 -559 -138 -883l152 -6l-12 -74h-623l12 74l154 6q27 117 78 436.5t61 446.5h-190l-54 -258h-221z" />
<glyph unicode="&#x443;" horiz-adv-x="1132" d="M-90 -436l57 166q68 -25 127 -25q178 0 297 211l19 33l-154 706q-55 231 -80 314l-96 6l10 74h528l-12 -74l-112 -6q8 -63 49 -262l82 -381l174 311l123 227q35 68 51 109l-154 2l12 74h394l-13 -74l-96 -6q-27 -35 -174 -289l-424 -746q-123 -217 -231.5 -302 t-259.5 -85q-74 1 -117 17z" />
<glyph unicode="&#x444;" horiz-adv-x="1802" d="M96 414q0 254 119 450q125 209 356 209q172 0 267 -133l18 109q41 276 47 368l-123 6l13 74l405 12q-33 -166 -80 -442l-20 -129q117 133 264 133q166 0 257 -115.5t91 -324.5q0 -244 -111 -445q-117 -211 -344 -211q-203 0 -286 144l-31 -189q-41 -295 -47 -370h-281 q18 82 68 368l31 191q-102 -143 -269 -144q-168 0 -256 113t-88 326zM395 358q0 -123 34 -190.5t97 -67.5q104 0 207 170l84 537q-70 145 -164 145q-117 0 -194 -219q-64 -172 -64 -375zM993 272q25 -76 76 -124t109 -48q104 0 176 224q57 186 57 370q0 117 -37 186.5 t-100 69.5q-96 0 -201 -164z" />
<glyph unicode="&#x445;" horiz-adv-x="1116" d="M-100 0l12 74l98 6q63 57 221 223l193 205l-100 217l-62 137l-55 107l-109 6l11 74h550l-12 -74l-106 -6q10 -45 75 -191l41 -92l107 119q115 125 137 164l-106 6l10 74h377l-11 -74l-102 -6q-49 -39 -182 -174l-187 -197l111 -244q113 -250 135 -274l101 -6l-13 -74 h-557l10 74l119 6q-29 86 -78 196l-63 140l-143 -168q-82 -94 -138 -168l95 -6l-13 -74h-366z" />
<glyph unicode="&#x446;" horiz-adv-x="1323" d="M123 975l12 72l443 12l-80 -443l-33 -206q-14 -100 -14 -160q0 -125 94 -125q121 0 254 160l108 684l-133 6l12 72l443 12l-76 -428l-39 -242l-39 -309l123 -6l-70 -445h-215l41 371h-190l18 147q-111 -98 -190.5 -135t-185.5 -37q-125 0 -192 61.5t-67 176.5 q0 61 31 270l19 117q16 88 20 143q16 109 19 144q6 31 10 82z" />
<glyph unicode="&#x447;" horiz-adv-x="1253" d="M90 975l12 74l430 10q-78 -360 -77 -496q0 -180 217 -180q31 0 61 6l35 211q41 276 47 369l-102 6l12 74l424 10q-27 -96 -89.5 -496.5t-66.5 -482.5l131 -6l-12 -74h-598l10 74l152 6l37 194l8 37q-88 -8 -139 -8q-420 0 -420 293q0 39 31 287q4 35 8 86z" />
<glyph unicode="&#x448;" horiz-adv-x="1937" d="M119 975l12 72l451 10q-129 -666 -129 -809q0 -123 96 -123q98 0 229 137l35 232q55 354 80 553h317q-127 -674 -127 -801q0 -121 97 -121q94 0 227 131l51 319q37 225 53 394l-131 6l11 72l452 10q-127 -690 -153 -977l120 -6l-10 -74l-424 -10l17 139 q-166 -154 -353 -154q-217 0 -252 179q-106 -100 -190 -139.5t-186 -39.5q-260 0 -260 244q0 78 30 266l15 90q51 317 53 394z" />
<glyph unicode="&#x449;" horiz-adv-x="1937" d="M119 975l12 72l451 10q-129 -666 -129 -809q0 -123 96 -123q98 0 229 137l35 232q55 354 80 553h317q-127 -674 -127 -801q0 -121 97 -121q94 0 227 131l51 319q37 225 53 394l-131 6l11 72l452 10q-127 -690 -153 -977l122 -6l-69 -445h-215l41 371h-191l15 129 q-166 -154 -353 -154q-217 0 -252 179q-106 -100 -190 -139.5t-186 -39.5q-260 0 -260 244q0 78 30 266l15 90q51 317 53 394z" />
<glyph unicode="&#x44a;" horiz-adv-x="1454" d="M41 705l53 344h754q-45 -145 -96 -402q123 92 280 92q170 0 260 -82t90 -237q0 -229 -153 -348q-119 -92 -355 -92q-244 0 -357.5 82.5t-113.5 263.5q0 205 115 645h-201l-53 -266h-223zM705 299q0 -131 33.5 -188.5t111.5 -57.5q96 0 160.5 110.5t64.5 278.5 q0 102 -33.5 150.5t-109.5 48.5q-102 0 -201 -111q-26 -143 -26 -231z" />
<glyph unicode="&#x44b;" horiz-adv-x="1843" d="M119 975l12 74l469 10q-59 -197 -98 -412q129 92 280 92q170 0 260.5 -82t90.5 -237q0 -229 -154 -348q-119 -92 -354 -92q-244 0 -357.5 82.5t-113.5 263.5q0 205 114 643zM455 299q0 -131 33.5 -188.5t111.5 -57.5q96 0 160.5 110.5t64.5 278.5q0 102 -33.5 150.5 t-109.5 48.5q-102 0 -201 -113q-26 -139 -26 -229zM1253 0q25 104 68 375l37 225q43 295 49 369l-131 6l12 74h449q-33 -152 -68 -375l-49 -299q-35 -229 -49 -375h-318z" />
<glyph unicode="&#x44c;" horiz-adv-x="1202" d="M119 975l12 74l469 10q-59 -197 -98 -412q129 92 280 92q170 0 260.5 -82t90.5 -237q0 -229 -154 -348q-119 -92 -354 -92q-244 0 -357.5 82.5t-113.5 263.5q0 205 114 643zM455 299q0 -131 33.5 -188.5t111.5 -57.5q96 0 160.5 110.5t64.5 278.5q0 102 -33.5 150.5 t-109.5 48.5q-102 0 -201 -113q-26 -139 -26 -229z" />
<glyph unicode="&#x44d;" horiz-adv-x="1116" d="M-4 98l98 109q119 -139 289 -139q94 0 153.5 49t104.5 166q35 92 55 221h-428l13 80h426q8 88 8 133q0 274 -180 274q-70 0 -115 -22l-55 -244h-232l39 274q170 72 379 72q229 0 340 -104q129 -125 129 -359q0 -274 -127 -444q-139 -188 -447 -189q-294 0 -450 123z" />
<glyph unicode="&#x44e;" horiz-adv-x="1890" d="M109 0q29 123 88 496.5t65 472.5l-129 6l10 74l453 10q-27 -106 -64 -332l-22 -143h256q49 236 195.5 361.5t371.5 125.5q221 0 339 -120t118 -343q0 -270 -162 -458q-150 -174 -420 -175q-244 0 -352 134q-104 129 -104 329q0 37 4 66h-258l-23 -135q-39 -270 -47 -369 h-319zM1065 334q0 -281 145 -281q63 0 117.5 60.5t87.5 169.5q61 203 62 417q0 293 -146 293q-147 0 -223 -307q-43 -172 -43 -352z" />
<glyph unicode="&#x44f;" horiz-adv-x="1241" d="M-57 0l12 74l86 4l104 219q61 121 99.5 161t113.5 60q-186 41 -186 232q0 86 38 152.5t105 98.5q96 47 314 48h635l-13 -72l-131 -6q-29 -127 -84 -477.5t-55 -413.5l129 -6l-12 -74h-430q6 76 51 377l14 96h-74q-49 0 -77.5 -13.5t-55.5 -49.5q-61 -82 -137 -256 l-67 -154h-379zM475 713q0 -88 39 -126t129 -38h102l9 51q39 248 49 371h-82h-8q-106 6 -164 -41q-74 -70 -74 -217z" />
<glyph unicode="&#x451;" horiz-adv-x="1202" d="M98 428q0 252 142 436q156 207 444 207q225 0 338 -108q90 -92 90 -293q0 -72 -12 -154h-678q-12 -90 -12 -147q0 -299 258 -299q135 0 272 88l47 -76q-176 -106 -395 -107q-238 0 -366 118t-128 335zM352 1370q0 68 45 113t115 45t114 -44t44 -114t-44 -115t-114 -45 t-115 44t-45 116zM436 596h361q18 111 18 195q0 111 -27.5 157.5t-91.5 46.5q-90 0 -157.5 -104.5t-102.5 -294.5zM801 1370q0 68 45 113t114.5 45t113.5 -44t44 -114t-44 -115t-113 -45q-72 0 -116 44t-44 116z" />
<glyph unicode="&#x452;" horiz-adv-x="1318" d="M98 0q47 246 103 582l96 606h-143l14 82h137q10 76 17 147l-123 6l14 74l442 12l-43 -239h297l-12 -82h-301l-45 -283q98 90 181 128t186 38q127 0 194.5 -62.5t67.5 -177.5q0 -68 -33 -268l-43 -272q-33 -223 -76 -357.5t-121 -219.5t-186.5 -117.5t-282.5 -36.5l15 82 q115 14 173 67t96 175t81 392l55 345q18 115 19 184q0 117 -97 117q-53 0 -123.5 -44t-128.5 -112l-20 -139q-74 -477 -90 -627h-320z" />
<glyph unicode="&#x453;" horiz-adv-x="1071" d="M45 221q0 129 109 203q66 47 260 108q111 35 156.5 57.5t74.5 57.5q49 55 49 150q0 78 -42 123t-113 45q-123 0 -287 -101l-45 117q201 90 420 90q381 0 381 -254q0 -117 -84 -188q-59 -49 -285 -123q-123 -41 -161 -58.5t-64 -44.5q-55 -59 -56 -147q0 -82 46.5 -130 t125.5 -48q135 0 344 108l50 -127q-254 -84 -475 -84q-404 0 -404 246zM516 1227q80 55 161 137t124 154h262q33 0 33 -15q0 -16 -40 -55t-102 -82q-139 -98 -403 -197z" />
<glyph unicode="&#x454;" horiz-adv-x="1116" d="M90 414q0 256 131 446q78 111 184.5 161t266.5 50q233 0 424 -72l-47 -274h-232l23 244q-51 23 -125 22q-88 0 -141.5 -52t-100.5 -179q-25 -72 -47 -176h428l-12 -80h-428q-12 -88 -13 -158q0 -145 51.5 -211.5t161.5 -66.5q158 0 310 139l61 -109q-158 -123 -414 -123 q-481 1 -481 439z" />
<glyph unicode="&#x455;" horiz-adv-x="1007" d="M49 39l43 274h213l-10 -211q59 -43 151 -43q88 0 144.5 47.5t56.5 120.5q0 63 -45 97q-27 16 -158 69q-170 68 -238.5 140.5t-68.5 187.5q0 152 117 252q113 98 324 98q205 0 346 -65l-41 -273h-209l16 225q-47 31 -131 31t-137 -46t-53 -116q0 -63 51 -96 q31 -20 182 -84q160 -70 211 -119q70 -66 70 -192q0 -172 -123 -266.5t-346 -94.5q-187 1 -365 64z" />
<glyph unicode="&#x456;" horiz-adv-x="679" d="M98 0q41 193 91.5 511t62.5 458l-123 6l12 72l443 12q-115 -588 -166 -1059h-320zM313 1370q0 72 46.5 118t117.5 46q70 0 116 -45t46 -115q0 -74 -45 -120t-119 -46q-70 0 -116 45t-46 117z" />
<glyph unicode="&#x457;" horiz-adv-x="677" d="M61 1370q0 68 45.5 113t115 45t113.5 -44t44 -114t-44 -115t-113.5 -45t-115 44t-45.5 116zM98 0q29 139 88 498l13 82q37 242 53 389l-123 6l10 72l445 12q-12 -78 -17 -90q-33 -162 -65 -371l-13 -74q-53 -336 -71 -524h-320zM510 1370q0 68 45 113t114.5 45t113.5 -44 t44 -114t-44 -115t-113 -45q-72 0 -116 44t-44 116z" />
<glyph unicode="&#x458;" horiz-adv-x="677" d="M-221 -440l16 78q154 0 218.5 89t105.5 361l80 512q37 231 49 369l-131 6l12 72l451 12q-70 -387 -99 -565l-75 -471q-37 -254 -127 -347q-117 -123 -375 -122q-55 0 -125 6zM307 1374q0 70 46 115t118 45t117 -46t45 -118t-46 -117t-116 -45q-72 0 -118 46t-46 120z" />
<glyph unicode="&#x459;" horiz-adv-x="1716" d="M-57 25v34q180 137 266 341t121 569l-131 8l12 72h901q-57 -190 -96 -402q129 92 280 92q170 0 260.5 -82t90.5 -237q0 -229 -154 -348q-119 -92 -354 -92q-246 0 -359.5 82.5t-113.5 263.5q0 199 114 643h-319q-31 -365 -99.5 -594.5t-197.5 -399.5zM969 299 q0 -131 33.5 -188.5t111.5 -57.5q98 0 162.5 110.5t64.5 278.5q0 102 -33.5 150.5t-109.5 48.5q-104 0 -205 -111q-24 -155 -24 -231z" />
<glyph unicode="&#x45a;" horiz-adv-x="1890" d="M109 0q29 115 90 500t63 469l-129 6l10 74l453 10q-27 -106 -64 -332l-22 -143h358q33 178 86 385l-149 6l12 74l469 10q-45 -150 -98 -412q125 92 282 92q170 0 260.5 -82t90.5 -235q0 -231 -154 -350q-119 -92 -354 -92q-246 0 -359.5 82.5t-113.5 263.5q0 72 16 178 h-358l-23 -135q-39 -270 -47 -369h-319zM1141 299q0 -131 33.5 -188.5t111.5 -57.5q98 0 162.5 110.5t64.5 280.5q0 102 -33.5 149.5t-109.5 47.5q-104 0 -203 -113q-26 -141 -26 -229z" />
<glyph unicode="&#x45b;" horiz-adv-x="1327" d="M98 0q43 203 103 582l96 606h-141l12 82h137l19 147l-125 6l14 74l442 12q-12 -59 -43 -239h297l-12 -82h-301l-45 -283q102 92 183 129t181 37q127 0 196 -62.5t69 -177.5q0 -76 -33 -268l-19 -114q-33 -231 -47 -369l129 -6l-12 -74h-430l51 367l10 73q47 301 48 363 q0 119 -97 119q-53 0 -123.5 -44t-126.5 -112l-22 -139q-72 -471 -90 -627h-320z" />
<glyph unicode="&#x45c;" horiz-adv-x="1196" d="M98 0q25 86 87.5 485.5t66.5 483.5l-131 6l12 74l451 10q-31 -145 -68 -375l-18 -111h55q102 0 154.5 41t134.5 185l98 176l-109 6l11 68h397l-10 -68l-107 -6l-131 -184l-61 -91q-72 -102 -144 -145q92 -25 129 -79t74 -222l39 -182l86 -4l-12 -68h-354l-29 154 q-41 215 -78 278.5t-125 63.5h-31l-18 -123q-39 -233 -49 -373h-320zM592 1227q80 55 161 137t124 154h262q33 0 32 -15q0 -16 -39.5 -55t-101.5 -82q-139 -98 -403 -197z" />
<glyph unicode="&#x45e;" horiz-adv-x="1132" d="M-90 -436l57 166q68 -25 127 -25q178 0 297 211l19 33l-154 706q-55 231 -80 314l-96 6l10 74h528l-12 -74l-112 -6q8 -63 49 -262l82 -381l174 311l123 227q35 68 51 109l-154 2l12 74h394l-13 -74l-96 -6q-27 -35 -174 -289l-424 -746q-123 -217 -231.5 -302 t-259.5 -85q-74 1 -117 17zM412 1389q0 57 10 127h88q2 -90 35 -117q47 -41 186 -41q129 0 184.5 32.5t81.5 125.5h86q-18 -160 -65 -228q-78 -119 -301 -119q-162 0 -233.5 51.5t-71.5 168.5z" />
<glyph unicode="&#x45f;" horiz-adv-x="1333" d="M-23 0l13 72l131 6q31 127 83 456.5t58 434.5l-131 6l12 74h551l-12 -74l-102 -6q-31 -139 -80 -447.5t-60 -441.5h314q29 125 79 440.5t60 448.5l-98 6l10 74h551l-13 -74l-131 -6q-27 -106 -80 -442.5t-61 -448.5l131 -6l-12 -72h-490l-75 -371h-199l41 371h-490z" />
<glyph unicode="&#x490;" horiz-adv-x="1224" d="M-16 0l12 74l158 6q27 111 67 369l82 522q45 295 49 368l-155 7l12 71h876l97 359h229l-98 -445h-633q-29 -127 -66 -358l-84 -524q-43 -291 -49 -369l187 -6l-13 -74h-671z" />
<glyph unicode="&#x491;" horiz-adv-x="1071" d="M45 221q0 129 109 203q72 51 260 111q109 35 155.5 57t75.5 55q49 59 49 152q0 78 -42 123t-113 45q-121 0 -287 -103l-45 119q182 84 375 88l151 322h301l-248 -334q221 -47 222 -240q0 -117 -84 -188q-63 -53 -285 -123q-123 -41 -161 -58.5t-64 -43.5 q-55 -61 -56 -150q0 -82 46.5 -130t125.5 -48q135 0 344 108l50 -127q-254 -84 -475 -84q-404 0 -404 246z" />
<glyph unicode="&#x4c0;" horiz-adv-x="794" d="M-6 0l12 74l158 6q33 156 76 418l61 387q49 319 61 452l-155 6l12 74h641l-12 -74l-160 -6q-23 -109 -67 -383l-70 -442q-51 -348 -59 -432l155 -6l-12 -74h-641z" />
<glyph unicode="&#x1e84;" horiz-adv-x="1957" d="M125 1343l12 74h592l-12 -74l-154 -6q2 -78 29 -383l57 -598l252 559q174 395 207 502h201q10 -223 34 -446l62 -613l237 545q88 201 179 434l-144 6l11 74h423l-10 -74l-119 -6q-31 -55 -61 -120q-23 -51 -72 -150l-49 -104l-258 -557q-135 -299 -174 -406h-225 q-6 135 -39 408l-62 548l-256 -559q-119 -258 -170 -397h-225q-4 98 -39 408l-59 548q-18 172 -49 381zM846 1706q0 66 45 111t114.5 45t113.5 -44t44 -114t-44 -115t-113 -45q-72 0 -116 45t-44 117zM1294 1706q0 66 45 111t115 45t114 -44t44 -114t-44 -115t-114 -45 q-72 0 -116 45t-44 117z" />
<glyph unicode="&#x2007;" horiz-adv-x="589" />
<glyph unicode="&#x2011;" horiz-adv-x="786" d="M82 475l35 217h606l-35 -217h-606z" />
<glyph unicode="&#x2012;" d="M94 477l35 215h977l-35 -215h-977z" />
<glyph unicode="&#x2013;" d="M94 477l35 215h977l-35 -215h-977z" />
<glyph unicode="&#x2014;" horiz-adv-x="2048" d="M-82 475l35 217h2195l-32 -217h-2198z" />
<glyph unicode="&#x2015;" horiz-adv-x="2048" d="M-82 475l35 217h2195l-32 -217h-2198z" />
<glyph unicode="&#x2017;" horiz-adv-x="1024" d="M-258 -459l16 99h1229l-16 -99h-1229zM-225 -252l16 98h1229l-16 -98h-1229z" />
<glyph unicode="&#x2018;" horiz-adv-x="583" d="M195 1006q0 176 354 532l72 -63q-147 -170 -193 -301q117 -39 117 -164q0 -76 -50.5 -125t-125.5 -49q-78 0 -126 47t-48 123z" />
<glyph unicode="&#x2019;" horiz-adv-x="583" d="M170 879q143 160 195 301q-55 16 -86 60t-31 103q0 76 50 125.5t126 49.5q78 0 126 -47.5t48 -122.5q0 -92 -84 -218t-272 -315z" />
<glyph unicode="&#x201a;" horiz-adv-x="583" d="M-18 -317q141 158 194 301q-117 39 -117 166q0 76 50.5 125t126.5 49q78 0 126 -47.5t48 -122.5q0 -176 -357 -535z" />
<glyph unicode="&#x201c;" horiz-adv-x="1050" d="M195 1006q0 176 354 532l72 -63q-147 -170 -193 -301q117 -39 117 -164q0 -76 -50.5 -125t-125.5 -49q-78 0 -126 47t-48 123zM662 1004q0 94 82.5 219t271.5 315l71 -63q-145 -166 -194 -301q117 -39 117 -164q0 -76 -49.5 -125t-125 -49t-124.5 47t-49 121z" />
<glyph unicode="&#x201d;" horiz-adv-x="1050" d="M172 879q143 160 195 301q-55 16 -86 60t-31 103q0 76 50 125.5t126 49.5q78 0 126 -47.5t48 -122.5q0 -92 -84 -218t-272 -315zM639 879q143 164 195 301q-119 35 -119 163q0 76 50 125.5t126 49.5t125 -47.5t49 -120.5q0 -94 -83 -218t-271 -317z" />
<glyph unicode="&#x201e;" horiz-adv-x="1050" d="M-18 -317q141 158 194 301q-117 39 -117 166q0 76 50.5 125t126.5 49q78 0 126 -47.5t48 -122.5q0 -176 -357 -535zM449 -317q143 168 194 301q-119 39 -119 166q0 76 50.5 125t125.5 49q78 0 126 -47.5t48 -122.5q0 -174 -354 -535z" />
<glyph unicode="&#x2020;" d="M135 836l31 194l412 -29l22 416h264l-110 -416l420 29l-31 -194l-410 28l-131 -1120h-272l223 1120z" />
<glyph unicode="&#x2021;" d="M51 303l31 195l410 -27l-7 197l70 196l-420 -28l31 194l412 -29l22 416h264l-110 -416l422 29l-33 -194l-410 28l6 -196l-67 -197l418 27l-31 -195l-410 29l-51 -588h-262l135 588z" />
<glyph unicode="&#x2022;" horiz-adv-x="1024" d="M188 719q0 147 103.5 248.5t253.5 101.5q152 0 253 -102.5t101 -251.5q0 -152 -101.5 -254.5t-252.5 -102.5q-154 0 -255.5 102.5t-101.5 258.5z" />
<glyph unicode="&#x2026;" horiz-adv-x="1769" d="M63 152q0 74 50.5 123t126.5 49q74 0 123 -49.5t49 -125t-49.5 -125t-125 -49.5t-125 49.5t-49.5 127.5zM651 152q0 74 50.5 123t125.5 49q74 0 123 -49.5t49 -125t-49 -125t-124.5 -49.5t-125 49.5t-49.5 127.5zM1239 152q0 74 50 123t126 49q74 0 123 -49.5t49 -125 t-49 -125t-125 -49.5q-78 0 -126 49.5t-48 127.5z" />
<glyph unicode="&#x2030;" horiz-adv-x="2465" d="M141 924q0 221 99 381q82 135 297 135q156 0 223 -64.5t67 -216.5q0 -236 -100 -389q-82 -133 -295 -133q-158 0 -224.5 65.5t-66.5 221.5zM358 848q0 -127 78 -127q80 0 123 160q51 209 51 354q0 121 -78 121q-80 0 -122 -164q-52 -197 -52 -344zM481 -41l678 1499h156 l-682 -1499h-152zM958 262q0 227 99 383q82 135 295 135q158 0 224 -64.5t66 -215.5q0 -229 -98 -389q-82 -133 -295 -134q-158 0 -224.5 65.5t-66.5 219.5zM1176 182q0 -121 75 -121q80 0 123 160q51 201 51 354q0 121 -77.5 121t-122.5 -164q-49 -188 -49 -350zM1704 262 q0 227 98 383q82 135 295 135q158 0 224.5 -64.5t66.5 -215.5q0 -229 -98 -389q-82 -133 -295 -134q-158 0 -224.5 65.5t-66.5 219.5zM1921 180q0 -119 76 -119q80 0 123 160q51 201 51 354q0 121 -78 121t-123 -164q-49 -188 -49 -352z" />
<glyph unicode="&#x2039;" horiz-adv-x="673" d="M76 520l456 410h101l-246 -410l137 -407h-96z" />
<glyph unicode="&#x203a;" horiz-adv-x="673" d="M43 113l244 409l-135 408h96l350 -408l-455 -409h-100z" />
<glyph unicode="&#x203e;" horiz-adv-x="1024" d="M88 1608l16 100h1194l-16 -100h-1194z" />
<glyph unicode="&#x2044;" horiz-adv-x="122" d="M-326 -41l680 1499h154l-682 -1499h-152z" />
<glyph unicode="&#x2070;" horiz-adv-x="778" d="M141 895q0 233 99 395q84 139 292 140q143 0 204 -60.5t61 -202.5q0 -242 -101 -405q-82 -135 -288 -135q-145 0 -206 60.5t-61 207.5zM356 825q0 -115 64 -114q70 0 108 159q53 209 54 373q0 102 -64 103q-70 0 -108 -164q-54 -214 -54 -357z" />
<glyph unicode="&#x2074;" horiz-adv-x="778" d="M104 850l19 121l397 446h238q-25 -102 -49 -264l-29 -174h125l-27 -129h-119l-14 -131l96 -4l-12 -76h-422l12 76l115 4l25 131h-355zM279 979h204l56 305z" />
<glyph unicode="&#x2075;" horiz-adv-x="778" d="M117 682l30 186h172l-10 -137q35 -20 70 -20q59 0 103 60t44 142q0 51 -28.5 84t-73.5 33q-78 0 -150 -61h-92l92 448h517l-31 -153h-412l-37 -177q92 53 199 54q115 0 180.5 -56.5t65.5 -154.5q0 -143 -86 -225q-80 -78 -252 -78q-176 0 -301 55z" />
<glyph unicode="&#x2076;" horiz-adv-x="778" d="M141 883q0 156 75 285.5t206 199.5q143 80 338 82v-80q-258 -20 -348 -235q55 29 114 28q113 0 176.5 -60.5t63.5 -166.5q0 -145 -87 -227t-243 -82q-295 0 -295 256zM352 825q0 -115 70 -114q51 0 88 74.5t37 175.5q0 113 -68 112q-51 0 -89 -74t-38 -174z" />
<glyph unicode="&#x2077;" horiz-adv-x="778" d="M160 639q49 156 145 284t318 332h-408l41 162h569l-18 -110q-332 -352 -412 -668h-235z" />
<glyph unicode="&#x2078;" horiz-adv-x="778" d="M125 821q0 70 44 116t144 81q-92 66 -92 166q0 113 84 179.5t225 66.5q119 0 184.5 -44.5t65.5 -123.5q0 -117 -147 -189q68 -43 95.5 -85t27.5 -103q0 -121 -90.5 -189.5t-247.5 -68.5q-137 0 -215 52t-78 142zM279 829q0 -53 40.5 -85.5t104.5 -32.5q59 0 100 29.5 t41 72.5q0 37 -35.5 67.5t-148.5 88.5l-8 -6q-94 -56 -94 -134zM403 1253q0 -39 29 -65.5t119 -75.5l8 6q76 53 76 129q0 45 -32 72t-87 27q-49 0 -81 -26t-32 -67z" />
<glyph unicode="&#x2079;" horiz-adv-x="778" d="M170 1120q0 145 87 227.5t243 82.5q295 0 295 -256q0 -156 -75 -286t-206 -200q-143 -80 -338 -82v80q258 18 348 236q-57 -29 -114 -29q-113 0 -176.5 60.5t-63.5 166.5zM389 1098q0 -115 68 -115q51 0 89 73.5t38 174.5q0 115 -70 115q-51 0 -88 -75t-37 -173z" />
<glyph unicode="&#x2080;" horiz-adv-x="778" d="M41 256q0 233 98 395q84 139 293 140q143 0 203.5 -60.5t60.5 -202.5q0 -242 -100 -405q-82 -135 -291 -135q-145 0 -204.5 60.5t-59.5 207.5zM256 186q0 -115 63 -114q70 0 109 159q53 209 53 373q0 102 -63 103q-70 0 -109 -164q-53 -214 -53 -357z" />
<glyph unicode="&#x2081;" horiz-adv-x="778" d="M98 0l13 76l120 4q12 61 37 205l58 346q-68 -35 -183 -70l-24 82q176 57 274 135h174q-35 -168 -57 -321l-16 -101q-33 -219 -37 -276l106 -4l-12 -76h-453z" />
<glyph unicode="&#x2082;" horiz-adv-x="778" d="M14 0l21 123q432 293 432 483q0 45 -22.5 72t-61.5 27q-35 0 -74 -23l-35 -137h-174l31 192q125 53 289 54q274 0 274 -181q0 -109 -89 -200t-359 -256h362l-28 -154h-566z" />
<glyph unicode="&#x2083;" horiz-adv-x="778" d="M10 41l31 188h172l-10 -137q31 -20 73 -20q63 0 106.5 53t43.5 133q0 100 -147 100q-29 0 -58 -2h-18l14 90q27 -2 55 -2q119 0 164 52q43 49 43 122q0 88 -86 89q-41 0 -74 -21l-32 -135h-174l28 188q123 51 271 52q287 0 286 -183q0 -78 -38.5 -127t-124.5 -75 q115 -49 114 -166q0 -121 -89 -186.5t-253 -65.5q-139 0 -297 53z" />
<glyph unicode="&#x2084;" horiz-adv-x="778" d="M4 211l19 121l397 446h237q-25 -102 -49 -264l-28 -174h125l-27 -129h-119l-14 -131l96 -4l-12 -76h-422l12 76l115 4l24 131h-354zM178 340h205l55 305z" />
<glyph unicode="&#x2085;" horiz-adv-x="778" d="M14 43l31 186h172l-10 -137q35 -20 69 -20q57 0 102.5 61.5t45.5 138.5q0 51 -28.5 85t-73.5 34q-78 0 -150 -61h-92l92 448h516l-31 -153h-411l-37 -176q92 53 199 53q115 0 180 -56.5t65 -152.5q0 -66 -23.5 -128.5t-62.5 -98.5q-80 -78 -252 -78t-301 55z" />
<glyph unicode="&#x2086;" horiz-adv-x="778" d="M41 244q0 156 74.5 285.5t206.5 199.5q143 80 337 82v-80q-258 -20 -348 -235q55 29 115 28q113 0 176.5 -60.5t63.5 -166.5q0 -145 -87 -227t-243 -82q-295 0 -295 256zM252 186q0 -115 70 -114q51 0 87.5 74.5t36.5 175.5q0 113 -67 112q-51 0 -89 -74t-38 -174z" />
<glyph unicode="&#x2087;" horiz-adv-x="778" d="M57 0q47 154 144.5 283t318.5 333h-407l41 162h569l-18 -110q-332 -352 -412 -668h-236z" />
<glyph unicode="&#x2088;" horiz-adv-x="778" d="M25 182q0 70 44 116t144 81q-92 66 -92 166q0 113 84 179.5t225 66.5q119 0 184.5 -44.5t65.5 -123.5q0 -117 -148 -189q68 -43 95.5 -85t27.5 -103q0 -121 -90 -189.5t-248 -68.5q-137 0 -214.5 52t-77.5 142zM178 190q0 -53 41 -85.5t105 -32.5q59 0 100 29.5t41 72.5 q0 37 -36 67.5t-148 88.5l-9 -6q-94 -54 -94 -134zM303 614q0 -39 28.5 -65.5t119.5 -75.5l8 6q76 53 76 129q0 45 -32 72t-87 27q-49 0 -81 -26t-32 -67z" />
<glyph unicode="&#x2089;" horiz-adv-x="778" d="M70 481q0 145 87 227.5t242 82.5q295 0 295 -256q0 -156 -74.5 -286t-205.5 -200q-143 -80 -338 -82v80q258 18 348 236q-57 -29 -115 -29q-113 0 -176 60.5t-63 166.5zM289 457q0 -113 67 -113q51 0 89 74t38 174q0 115 -69 115q-51 0 -88 -75t-37 -175z" />
<glyph unicode="&#x20ac;" d="M-39 557l47 88h125q0 18 4 51q2 29 13 70l2 16h-156l47 88h129q68 207 184 338q205 233 545 234q215 0 404 -90l-76 -142q-119 145 -287 146q-150 0 -259.5 -118t-188.5 -368h559l-47 -88h-535l-2 -20l-10 -49q-4 -16 -10 -68h485l-45 -88h-447v-57q0 -219 90 -340 q74 -100 224 -101q164 0 311 88l41 -73q-172 -98 -371 -99q-358 0 -516 248q-86 135 -92 334h-168z" />
<glyph unicode="&#x2116;" horiz-adv-x="2334" d="M-31 0l13 74l155 6q25 96 70 371l139 886l-164 6l13 74h493q12 -37 45 -110l127 -267l307 -657l95 586q39 264 47 368l-154 6l10 74h455l-10 -74l-158 -6q-29 -133 -68 -372l-153 -965h-252q-20 63 -133 309l-404 858l-112 -714q-41 -268 -49 -373l155 -6l-12 -74h-455z M1470 129l21 121h711l-21 -121h-711zM1556 684q0 176 109 284.5t283 108.5q158 0 247 -84t89 -231q0 -178 -108 -287.5t-282 -109.5q-160 0 -249 83.5t-89 235.5zM1788 580q0 -137 94 -137.5t129 145.5q41 168 41 278q0 133 -94 133q-82 0 -125 -127q-16 -53 -30.5 -148 t-14.5 -144z" />
<glyph unicode="&#x2122;" horiz-adv-x="1916" d="M111 1186l36 231h781l-37 -231h-172l16 147h-96q-8 -33 -33 -174l-43 -266q-6 -55 -22 -174l116 -4l-12 -76h-465l13 76l118 4l13 59l20 115l41 264l25 176h-97l-30 -147h-172zM827 639l13 76l94 4q16 66 33 180l71 438l-100 4l12 76h342l123 -475l275 475h346l-13 -76 l-100 -4l-72 -444q-18 -131 -22 -174l94 -4l-12 -76h-416l12 76l95 4q18 84 32 176l47 299l-303 -516h-121l-141 518l-47 -305l-8 -57l-8 -56q-2 -20 -4 -36.5t-2 -22.5l92 -4l-13 -76h-299z" />
<glyph unicode="&#x2126;" horiz-adv-x="1497" d="M-8 0l18 117h400q-156 119 -227.5 252t-71.5 309q0 162 62.5 312.5t170.5 256.5q203 195 526 195q281 0 440.5 -148.5t159.5 -412.5q0 -303 -202 -531q-102 -117 -307 -233h399l-19 -117h-585l14 86q133 109 219 254q164 272 164 629q0 176 -74.5 282.5t-197.5 106.5 q-223 0 -355 -289q-102 -229 -102 -496q0 -307 166 -487l-12 -86h-586z" />
<glyph unicode="&#x2153;" horiz-adv-x="1755" d="M217 639l12 76l121 4q23 115 37 205l57 346q-68 -35 -182 -70l-24 82q176 57 274 135h174q-37 -184 -57 -321l-17 -101q-35 -227 -37 -276l107 -4l-12 -76h-453zM461 -41l680 1499h153l-680 -1499h-153zM965 41l28 188h174l-10 -137q31 -20 74 -20q63 0 106 53t43 133 q0 100 -149 100q-27 0 -55 -2h-19l12 90q29 -2 58 -2q119 0 164 52q43 49 43 122q0 88 -86 89q-41 0 -74 -21l-35 -135h-172l29 188q127 51 270 52q287 0 287 -183q0 -78 -39 -127t-125 -75q115 -49 115 -164q0 -123 -89.5 -188.5t-252.5 -65.5q-137 0 -297 53z" />
<glyph unicode="&#x2154;" horiz-adv-x="1755" d="M135 639l21 123q432 291 432 483q0 45 -22.5 71.5t-61.5 26.5q-31 0 -74 -22l-35 -137h-174l31 192q127 53 289 54q274 0 274 -181q0 -109 -91 -202t-357 -254h362l-29 -154h-565zM489 -41l680 1499h154l-680 -1499h-154zM969 41l28 188h174l-10 -137q31 -20 72 -20 q66 0 108.5 53t42.5 133q0 100 -149 100q-29 0 -55 -2h-19l13 90q29 -2 55 -2q119 0 164 52q43 49 43 122q0 88 -86 89q-39 0 -72 -21l-35 -135h-174l31 188q123 51 270 52q285 0 285 -183q0 -152 -162 -202q115 -49 115 -164q0 -123 -89 -188.5t-253 -65.5q-139 0 -297 53z " />
<glyph unicode="&#x215b;" horiz-adv-x="1755" d="M217 639l12 76l121 4q23 115 37 205l57 346q-68 -35 -182 -70l-24 82q176 57 274 135h174q-37 -184 -57 -321l-17 -101q-35 -227 -37 -276l107 -4l-12 -76h-453zM473 -41l680 1499h154l-680 -1499h-154zM979 182q0 70 44 116t144 81q-92 70 -92 166q0 113 84 179.5 t225 66.5q119 0 184.5 -44.5t65.5 -123.5q0 -117 -147 -189q68 -43 95.5 -85t27.5 -103q0 -121 -90 -189.5t-248 -68.5q-137 0 -215 52t-78 142zM1133 190q0 -53 40.5 -85.5t104.5 -32.5q59 0 100 29.5t41 72.5q0 37 -35.5 67.5t-148.5 88.5l-8 -6q-94 -54 -94 -134z M1257 614q0 -39 29 -65.5t119 -75.5l8 6q76 53 76 129q0 45 -32 72t-87 27q-49 0 -81 -26t-32 -67z" />
<glyph unicode="&#x215c;" horiz-adv-x="1755" d="M129 680l31 188h172l-8 -137q27 -20 71 -20q63 0 106.5 53t43.5 133q0 100 -150 100q-27 0 -55 -2h-18l14 90q29 -2 55 -2q119 0 164 52q43 49 43 122q0 88 -86 89q-41 0 -74 -21l-32 -135h-175l29 188q127 51 270 52q287 0 287 -183q0 -78 -38 -126t-126 -77 q115 -49 115 -163q0 -123 -89 -188.5t-253 -65.5q-139 0 -297 53zM508 -41l680 1499h153l-682 -1499h-151zM983 182q0 70 44 116t144 81q-94 68 -94 166q0 113 84 179.5t225 66.5q119 0 184.5 -44.5t65.5 -123.5q0 -61 -33.5 -105.5t-111.5 -83.5q68 -43 95.5 -85t27.5 -103 q0 -121 -90 -189.5t-248 -68.5q-137 0 -215 52t-78 142zM1137 190q0 -53 41 -85.5t104 -32.5q59 0 100 29.5t41 72.5q0 37 -35.5 66.5t-148.5 89.5l-10 -6q-92 -56 -92 -134zM1260 614q0 -39 28.5 -66.5t120.5 -74.5l6 6q76 53 76 129q0 45 -32 72t-87 27q-49 0 -80.5 -26 t-31.5 -67z" />
<glyph unicode="&#x215d;" horiz-adv-x="1755" d="M135 682l31 186h172l-10 -137q35 -20 69 -20q59 0 103.5 60t44.5 142q0 51 -29 84t-74 33q-78 0 -149 -61h-92l92 448h516l-31 -153h-411l-37 -177q92 53 198 54q115 0 180.5 -56.5t65.5 -154.5q0 -143 -86 -225q-80 -78 -252 -78q-176 0 -301 55zM506 -41l680 1499h153 l-680 -1499h-153zM981 182q0 70 44 116t146 81q-94 68 -94 166q0 113 84 179.5t225 66.5q119 0 184.5 -44.5t65.5 -123.5q0 -61 -34.5 -104.5t-112.5 -84.5q70 -43 96.5 -85t26.5 -103q0 -121 -90 -189.5t-248 -68.5q-137 0 -215 52t-78 142zM1135 190q0 -53 41 -85.5 t104 -32.5q59 0 100 29.5t41 72.5q0 37 -35.5 67.5t-148.5 88.5l-8 -6q-94 -54 -94 -134zM1260 614q0 -39 28.5 -65.5t118.5 -75.5l8 6q76 53 76 129q0 45 -32 72t-87 27q-49 0 -80.5 -26t-31.5 -67z" />
<glyph unicode="&#x215e;" horiz-adv-x="1755" d="M180 639q49 156 145.5 284t317.5 332h-407l40 162h570l-19 -110q-332 -352 -411 -668h-236zM397 -41l678 1499h156l-682 -1499h-152zM922 182q0 70 45 116t145 81q-94 66 -94 166q0 113 84 179.5t225 66.5q119 0 184.5 -44.5t65.5 -123.5q0 -117 -147 -189q68 -43 95 -85 t27 -103q0 -121 -90 -189.5t-248 -68.5q-137 0 -214.5 52t-77.5 142zM1075 190q0 -53 41 -85.5t105 -32.5q59 0 100 29.5t41 72.5q0 37 -35 66.5t-149 89.5l-9 -6q-94 -54 -94 -134zM1200 614q0 -39 28.5 -65.5t119.5 -75.5l8 6q76 53 76 129q0 45 -32 72t-87 27 q-49 0 -81 -26t-32 -67z" />
<glyph unicode="&#x2202;" d="M82 403q0 248 149 414q129 143 326 144q162 0 250 -95q-35 227 -156 376t-307 192l31 79q311 -39 483 -231q111 -123 173.5 -289t62.5 -340q0 -322 -149.5 -500t-420.5 -178q-211 0 -326.5 112.5t-115.5 315.5zM395 313q0 -260 133 -260q121 0 193 201q59 168 59 342 q0 264 -145 264q-113 0 -178 -186q-62 -164 -62 -361z" />
<glyph unicode="&#x2206;" d="M-113 0l58 100l106 199l447 842q123 233 141 276h184q6 -49 76 -375l174 -806q25 -104 31 -134l24 -102h-1241zM84 115h688l-192 948z" />
<glyph unicode="&#x220f;" horiz-adv-x="1409" d="M-158 -317l13 73l165 6q41 188 68 369l166 1043q2 12 33 223q2 14 7 63t9 82l-166 6l13 72h1458l-11 -72l-165 -6l-70 -368l-164 -1043q-8 -47 -10 -76q-8 -51 -21 -147q-16 -106 -18 -146l164 -6l-10 -73h-650l11 73l157 6q47 231 68 369l162 1032q25 129 32 223 q10 68 19 146h-471q-16 -61 -19 -86l-11 -57q-7 -37 -9 -52l-11 -64q-7 -42 -12 -61l-8 -49l-164 -1032q-2 -12 -5 -37.5t-5 -38.5q-18 -129 -20 -147q-14 -106 -17 -146l152 -6l-10 -73h-650z" />
<glyph unicode="&#x2211;" d="M-94 -354l18 112l639 858l-356 920l18 109h1086l-64 -396h-229l33 289h-547l305 -815l-662 -881h650l49 240h229l-69 -436h-1100z" />
<glyph unicode="&#x2212;" d="M74 416l35 215h997l-35 -215h-997z" />
<glyph unicode="&#x221a;" d="M78 635l12 74h399l52 -473l426 890l260 570h542l-14 -88h-448l-760 -1608h-256l-82 629z" />
<glyph unicode="&#x221e;" horiz-adv-x="1656" d="M94 483q0 158 90 271q109 135 314 135q227 0 360 -195q96 106 183 150.5t200 44.5q158 0 243 -77t85 -220q0 -186 -110.5 -298t-293.5 -112q-236 0 -360 193q-106 -113 -186 -153t-199 -40q-156 0 -241 78t-85 223zM328 508q0 -53 33.5 -86t89.5 -33q51 0 102 24.5 t135 90.5l37 31l-25 28q-106 119 -202 119q-72 0 -121 -50t-49 -124zM936 535l29 -31q109 -115 200 -115q72 0 121 50t49 122q0 55 -33.5 88t-89.5 33q-96 0 -241 -119z" />
<glyph unicode="&#x222b;" horiz-adv-x="778" d="M-98 -287l39 70q57 -29 96 -29q51 0 77.5 42t43.5 147l204 1298q23 135 39.5 189.5t49.5 97.5q86 109 260 108q113 0 223 -55l-37 -70q-57 29 -96 29q-51 0 -79 -42t-44 -146l-207 -1307q-20 -127 -36.5 -181t-49.5 -97q-86 -109 -260 -109q-114 0 -223 55z" />
<glyph unicode="&#x2248;" d="M10 229q100 154 181 221.5t165 67.5q55 0 102.5 -18.5t164.5 -87.5q115 -66 161 -66q43 0 83 35t100 123l139 -92q-92 -158 -169 -223.5t-165 -65.5q-66 0 -124 23.5t-189 103.5q-78 45 -119 45t-80 -33t-104 -127zM76 635q100 156 181 223.5t165 67.5q53 0 100 -18.5 t166 -88.5q115 -68 160 -67q43 0 84 35.5t100 121.5l139 -90q-92 -158 -168.5 -224.5t-164.5 -66.5q-68 0 -119 20.5t-197 106.5q-78 47 -119 47t-77.5 -32.5t-104.5 -128.5z" />
<glyph unicode="&#x2260;" d="M41 217l35 217h327l129 178h-428l35 217h551l195 275l164 -107l-119 -168h207l-35 -217h-328l-129 -178h428l-35 -217h-551l-194 -274l-164 106l119 168h-207z" />
<glyph unicode="&#x2261;" d="M10 14l35 215h997l-34 -215h-998zM74 410l35 215h997l-35 -215h-997zM137 807l33 215h999l-34 -215h-998z" />
<glyph unicode="&#x2264;" d="M8 0l35 217h997l-34 -217h-998zM104 606l33 205l1045 293l-37 -236l-688 -170l635 -168l-35 -217z" />
<glyph unicode="&#x2265;" d="M8 0l35 217h997l-34 -217h-998zM57 313l37 234l688 168l-635 168l37 221l951 -293l-31 -205z" />
<glyph unicode="&#x22c5;" horiz-adv-x="589" d="M131 592q0 74 50 123t126 49q74 0 123 -49t49 -125t-49 -125t-125 -49q-78 0 -126 49t-48 127z" />
<glyph unicode="&#x25ca;" d="M12 709l606 741l609 -741l-609 -742zM293 709l325 -412l328 412l-328 411z" />
<glyph unicode="&#xe000;" horiz-adv-x="1050" d="M0 1050h1050v-1050h-1050v1050z" />
<glyph unicode="&#xea3f;" horiz-adv-x="1024" d="M444 877q121 162 152 297q-143 31 -143 165q0 80 49 129.5t127 49.5t126 -49.5t48 -131.5q0 -195 -279 -520z" />
<glyph unicode="&#xea4e;" horiz-adv-x="0" d="M197 1608l14 88h1190l-15 -88h-1189z" />
<glyph unicode="&#xea4f;" horiz-adv-x="1175" d="M471 1221q0 27 77 89t173 115q117 61 293 129l35 -57q-80 -57 -161 -138t-124 -153h-260q-33 1 -33 15z" />
<glyph unicode="&#xea67;" horiz-adv-x="1024" d="M444 877q121 162 152 297q-143 31 -143 165q0 80 49 129.5t127 49.5t126 -49.5t48 -131.5q0 -195 -279 -520z" />
<glyph unicode="&#xf6be;" horiz-adv-x="677" d="M-221 -440l16 78q154 0 218.5 89t105.5 361l80 512q37 231 49 369l-131 6l12 72l451 12q-70 -387 -99 -565l-75 -471q-37 -254 -127 -347q-117 -123 -375 -122q-55 0 -125 6z" />
<glyph unicode="&#xf6c3;" horiz-adv-x="1024" d="M111 -410q225 176 241 334h234q39 0 39 -22q0 -47 -58.5 -114t-152.5 -124q-66 -41 -269 -133z" />
<glyph unicode="&#xf6c9;" horiz-adv-x="1024" d="M461 1563q80 55 160.5 137t123.5 153h263q33 0 32 -14q0 -16 -39.5 -55t-101.5 -82q-139 -98 -403 -197z" />
<glyph unicode="&#xf6ca;" horiz-adv-x="1024" d="M379 1835l39 59q82 -31 156.5 -84t115.5 -110q141 131 334 194l33 -59q-59 -45 -129 -132t-103 -157h-301q-14 70 -58 158t-87 131z" />
<glyph unicode="&#xf6cb;" horiz-adv-x="1024" d="M315 1706q0 66 45.5 111t115 45t113.5 -44t44 -114t-44 -115t-114 -45q-72 0 -116 45t-44 117zM764 1706q0 66 45 111t114.5 45t113.5 -44t44 -114t-44 -115t-113 -45q-72 0 -116 45t-44 117z" />
<glyph unicode="&#xf6ce;" horiz-adv-x="1024" d="M430 1833q0 20 37 20h242q23 -72 80 -154.5t122 -135.5l-37 -58q-188 78 -305 164q-57 43 -98 92t-41 72z" />
<glyph unicode="&#xf6cf;" horiz-adv-x="1024" d="M338 1563q74 57 143.5 139t104.5 151h250q35 0 34 -16q0 -27 -69.5 -89t-157.5 -114q-135 -74 -281 -129zM735 1563q76 57 144.5 138t103.5 152h250q35 0 35 -16q0 -27 -70 -89t-158 -114q-100 -57 -280 -129z" />
<glyph unicode="&#xf6d0;" horiz-adv-x="1024" d="M326 1630l20 125h723l-20 -125h-723z" />
<glyph unicode="&#xf6f4;" horiz-adv-x="1019" d="M340 1481q0 47 10 110h74q-2 -6 -2 -16q0 -80 50 -110.5t181 -30.5q133 0 189.5 32.5t83.5 124.5h73q-14 -174 -103 -259t-257 -85q-299 1 -299 234z" />
<glyph unicode="&#xf6f5;" horiz-adv-x="1019" d="M330 1538l39 59q82 -31 156.5 -84t115.5 -110q141 131 334 194l33 -59q-59 -45 -129 -132t-103 -157h-301q-14 72 -57 158t-88 131z" />
<glyph unicode="&#xf6f6;" horiz-adv-x="1019" d="M293 1270q57 43 128 131t103 158h301q14 -70 58.5 -158t87.5 -131l-39 -60q-82 29 -157 83.5t-116 111.5q-141 -131 -333 -195z" />
<glyph unicode="&#xf6f7;" horiz-adv-x="1019" d="M485 1393q0 70 46.5 114.5t118 44.5t116.5 -45t45 -116.5t-45 -117.5t-116.5 -46t-118 46t-46.5 120z" />
<glyph unicode="&#xf6f8;" horiz-adv-x="1019" d="M291 1268q166 129 248 291h249q35 0 35 -17q0 -27 -69.5 -89t-157.5 -114q-119 -66 -281 -129zM688 1268q76 59 144.5 139t103.5 152h250q35 0 35 -17q0 -27 -70 -89t-158 -114q-127 -70 -280 -129z" />
<glyph unicode="&#xf6f9;" horiz-adv-x="1044" d="M-18 0l12 74l133 6q25 115 47 246l8 47l-159 -92l16 104l160 92l32 211q23 164 27 182q12 98 16 140l5 18l-134 6l13 74h585l-10 -74l-143 -6q-16 -76 -51 -287l-13 -75l289 165l-16 -104l-289 -166l-25 -153l-12 -82q-8 -90 -22 -162l-11 -84h252l47 233h234l-49 -313 h-942z" />
<glyph unicode="&#xf6fa;" horiz-adv-x="1708" d="M109 449q0 164 55 302t155 220q92 78 207 107.5t314 29.5h854l-47 -299h-234l27 219h-238q-12 -47 -53 -289l-21 -133h340l-16 -94h-338l-16 -104l-47 -328h272l45 221h236l-50 -301h-827q-301 0 -426 66q-192 100 -192 383zM412 393q0 -168 64.5 -240.5t213.5 -72.5h49 q20 78 52 287l53 335q12 78 20 136q2 8 21 141q2 27 6 49h-35q-207 0 -311 -145q-59 -80 -96 -215.5t-37 -274.5z" />
<glyph unicode="&#xf6fb;" horiz-adv-x="1021" d="M150 -297q0 94 77.5 162.5t257.5 134.5h115q-113 -66 -162 -132.5t-49 -150.5q0 -100 113 -100q35 0 84 14l4 -69q-84 -31 -187 -31q-253 0 -253 172z" />
<glyph unicode="&#xf6fc;" horiz-adv-x="1019" d="M434 1417q0 88 61.5 146.5t155.5 58.5t155.5 -58.5t61.5 -148.5t-61.5 -148.5t-155.5 -58.5q-96 0 -156.5 58.5t-60.5 150.5zM535 1415q0 -57 30.5 -89t85.5 -32q53 0 85 33t32 88t-31.5 88t-85 33t-85 -33t-31.5 -88z" />
<glyph unicode="&#xf6fd;" horiz-adv-x="1046" d="M63 55l31 258h236l-17 -207q66 -47 146 -47q82 0 139 52.5t57 130.5q0 57 -26.5 93t-91.5 68q-213 102 -281 156q-104 86 -104 227q0 158 117.5 251t318.5 93q205 0 373 -81l-29 -242h-236l13 203q-43 37 -121 37t-131.5 -49.5t-53.5 -123.5q0 -63 42 -106t165 -100 q182 -90 242.5 -157t60.5 -179q0 -154 -110 -252q-119 -104 -352 -105q-218 0 -388 80zM346 1538l37 59q186 -70 274 -194q141 131 334 194l33 -59q-59 -43 -130 -131t-103 -158h-299q-14 70 -58.5 158t-87.5 131z" />
<glyph unicode="&#xf6fe;" horiz-adv-x="1019" d="M264 1243q29 139 88.5 216t139.5 77q66 0 215 -53q121 -45 163 -45q35 0 55.5 22.5t35.5 75.5h71q-57 -295 -246 -295q-45 0 -80.5 10.5t-201.5 69.5q-53 18 -82 18q-55 0 -82 -96h-76z" />
<glyph unicode="&#xf6ff;" horiz-adv-x="1128" d="M-4 0l16 98q29 33 234 285l297 371q39 45 65 86l80 100q47 59 66 88h-334l-45 -219h-236l49 299h922l-16 -98q-20 -27 -23 -29l-72 -86l-163 -205l-234 -293l-70 -90q-27 -37 -79 -102l-97 -125h377l47 233h236l-49 -313h-971zM410 1538l39 59q82 -31 156.5 -84 t115.5 -110q141 131 334 194l32 -59q-59 -45 -127.5 -131t-103.5 -158h-301q-14 72 -57 159t-88 130z" />
<glyph unicode="&#xf730;" horiz-adv-x="1271" d="M92 432q0 141 44 278.5t118 227.5q160 193 457 192q236 0 357.5 -114.5t121.5 -339.5q0 -145 -43 -280.5t-119 -225.5q-158 -195 -457 -195q-479 0 -479 457zM397 326q0 -266 170 -267q166 0 248 269q70 231 70 456q0 262 -170 263q-168 0 -246 -265q-72 -241 -72 -456z " />
<glyph unicode="&#xf731;" horiz-adv-x="972" d="M84 0l10 74l199 6q23 86 67 369l27 157q23 137 47 322q-117 -80 -280 -140l-31 82q258 98 414 238h239q-33 -150 -80 -440l-32 -207q-39 -254 -52 -381l176 -6l-10 -74h-694z" />
<glyph unicode="&#xf732;" horiz-adv-x="1130" d="M12 0l29 176q246 152 428 301q162 133 227.5 226.5t65.5 189.5q0 66 -43 106.5t-113 40.5q-78 0 -180 -51l-66 -252h-231l47 295q274 100 496 101q190 0 296.5 -70t106.5 -195q0 -113 -75.5 -201.5t-274.5 -209.5q-190 -117 -457 -238h688l-43 -219h-901z" />
</font>
</defs>
</svg>
