<?xml version="1.0" standalone="no"?>
<!DOCTYPE svg PUBLIC "-//W3C//DTD SVG 1.1//EN" "http://www.w3.org/Graphics/SVG/1.1/DTD/svg11.dtd" >
<svg xmlns="http://www.w3.org/2000/svg">
<metadata>
This is a custom SVG webfont generated by Font Squirrel.
Copyright   : Design 200107 by Hans Jurg Hunziker
Foundry URL : wwwurwppde
</metadata>
<defs>
<font id="SiemensSansBold" horiz-adv-x="1024" >
<font-face units-per-em="2048" ascent="1638" descent="-410" />
<missing-glyph horiz-adv-x="512" />
<glyph unicode="&#xfb01;" horiz-adv-x="1310" d="M57 862v182h166v82q0 209 78 302.5t252 93.5q90 0 192 -29l-20 -190q-59 29 -121 28q-76 0 -108.5 -56t-32.5 -183v-48h239v-182h-239v-862h-240v862h-166zM877 1382q0 63 42 105.5t107 42.5q63 0 105.5 -42t42.5 -106q0 -66 -41 -107.5t-106.5 -41.5t-107.5 41.5 t-42 107.5zM905 0v1044h240v-1044h-240z" />
<glyph unicode="&#xfb02;" horiz-adv-x="1314" d="M57 862v182h166v82q0 209 78 302.5t252 93.5q90 0 192 -29l-20 -190q-59 29 -121 28q-76 0 -108.5 -56t-32.5 -183v-48h239v-182h-239v-862h-240v862h-166zM905 0v1497h240v-1497h-240z" />
<glyph unicode=" "  horiz-adv-x="512" />
<glyph unicode="&#x09;" horiz-adv-x="512" />
<glyph unicode="&#xa0;" horiz-adv-x="512" />
<glyph unicode="!" horiz-adv-x="694" d="M219 137q0 68 46 113t113.5 45t113 -45t45.5 -113q0 -70 -45.5 -115t-112.5 -45q-70 0 -115 45t-45 115zM254 1417h246l-19 -989h-209z" />
<glyph unicode="&#x22;" horiz-adv-x="663" d="M41 1495h244l-11 -526h-223zM379 1497h242l-11 -526h-221z" />
<glyph unicode="#" horiz-adv-x="1179" d="M76 395v178h194l37 265h-168v178h193l55 401h197l-56 -401h205l55 401h195l-55 -401h176v-178h-201l-35 -265h172v-178h-198l-54 -395h-196l55 395h-205l-53 -395h-196l53 395h-170zM467 573h205l37 265h-205z" />
<glyph unicode="$" horiz-adv-x="1179" d="M109 1034q0 127 56 221.5t161 139.5q57 27 188 41v166h131v-164q152 -10 338 -70l-45 -215q-143 72 -293 86v-412q8 -2 27 -9l57 -22l72 -28q252 -94 252 -371q0 -279 -248 -379q-49 -18 -168 -36v-172h-131v167q-125 4 -206 19.5t-189 58.5l32 219q180 -94 363 -100v449 q-190 80 -238 110q-159 104 -159 301zM358 1059q0 -68 34 -109t122 -78v361q-156 -33 -156 -174zM637 182q166 29 166 199q0 76 -36 118t-130 79v-396z" />
<glyph unicode="%" horiz-adv-x="1544" d="M57 1032q0 397 305.5 397.5t305.5 -401t-305.5 -402t-305.5 405.5zM238 1030q0 -266 124.5 -266t124.5 264t-124.5 264t-124.5 -262zM412 -37l561 1491h162l-562 -1491h-161zM877 393q0 397 305 397.5t305 -401t-305 -402t-305 405.5zM1057 391q0 -266 125 -266t125 264 t-125 264t-125 -262z" />
<glyph unicode="&#x26;" horiz-adv-x="1429" d="M104 391q0 137 70 229.5t225 159.5q-90 102 -124.5 172t-34.5 152q0 154 111.5 245t299.5 91q197 0 306.5 -89t109.5 -249q0 -131 -76 -218t-250 -153l277 -303q98 125 112 348h220q-18 -293 -183 -508l246 -268h-303l-106 119q-172 -141 -412 -142q-223 0 -355.5 113 t-132.5 301zM358 397q0 -102 71 -164.5t183 -62.5q135 0 250 100l-336 371q-168 -92 -168 -244zM485 1092q0 -109 140 -232l22 10q100 45 142 93.5t42 117.5q0 78 -47 123t-127 45q-78 0 -125 -42.5t-47 -114.5z" />
<glyph unicode="'" horiz-adv-x="368" d="M63 1497h244l-10 -526h-223z" />
<glyph unicode="(" horiz-adv-x="737" d="M109 621q0 563 473 944l131 -144q-365 -315 -365 -800.5t365 -800.5l-131 -144q-473 378 -473 945z" />
<glyph unicode=")" horiz-adv-x="737" d="M25 -180q365 315 364.5 800.5t-364.5 800.5l131 144q473 -377 473 -944.5t-473 -944.5z" />
<glyph unicode="*" horiz-adv-x="1179" d="M184 1100l60 196l278 -122l-33 301h203l-35 -301l279 122l61 -196l-292 -56l196 -219l-168 -120l-143 260l-141 -260l-168 120l196 219z" />
<glyph unicode="+" horiz-adv-x="1179" d="M94 428v188h395v428h203v-428h395v-188h-395v-428h-203v428h-395z" />
<glyph unicode="," horiz-adv-x="589" d="M49 -250l160 535h276l-204 -535h-232z" />
<glyph unicode="-" horiz-adv-x="636" d="M82 483v189h473v-189h-473z" />
<glyph unicode="." horiz-adv-x="589" d="M137 137q0 68 46 113t114 45t113 -45t45 -113q0 -70 -45 -115t-113 -45q-70 0 -115 45t-45 115z" />
<glyph unicode="/" horiz-adv-x="544" d="M-25 -49l369 1495h219l-368 -1495h-220z" />
<glyph unicode="0" horiz-adv-x="1179" d="M92 717q0 367 123 545t375 178q254 0 375.5 -179.5t121.5 -552t-121.5 -552t-375.5 -179.5q-256 0 -377 180.5t-121 559.5zM342 715q0 -274 60.5 -405.5t187.5 -131.5q248 0 248 530.5t-248 530.5t-248 -524z" />
<glyph unicode="1" horiz-adv-x="1179" d="M168 1163l391 254h215v-1417h-242v1143l-258 -174z" />
<glyph unicode="2" horiz-adv-x="1179" d="M111 0v197q383 352 525 530t142 307q0 92 -67.5 149.5t-175.5 57.5q-152 0 -340 -106l-60 206q209 98 426 99q221 0 344 -102.5t123 -288.5q0 -133 -62.5 -253t-224.5 -294q-152 -162 -303 -301h600v-201h-927z" />
<glyph unicode="3" horiz-adv-x="1179" d="M96 51l54 203q172 -80 335 -80q133 0 208 63.5t75 176.5q0 231 -360 231q-55 0 -119 -4v193q51 -4 94 -5q371 0 371 222q0 90 -64.5 140t-177.5 50q-137 0 -324 -78l-49 201q193 76 404 76q219 0 340 -96.5t121 -270.5q0 -281 -289 -336q303 -43 303 -334 q0 -205 -146 -321q-127 -106 -370 -107q-211 0 -406 76z" />
<glyph unicode="4" horiz-adv-x="1179" d="M49 358v207l576 852h284v-870h191v-189h-191v-358h-239v358h-621zM281 547h393v598z" />
<glyph unicode="5" horiz-adv-x="1179" d="M113 63l69 205q170 -92 318 -92q135 0 215 79t80 212q0 125 -78 191.5t-221 66.5q-141 0 -326 -59l23 751h800v-200h-561l-12 -316q84 14 153 14q225 0 348 -117.5t123 -334.5q0 -231 -145 -365q-129 -121 -375 -121q-225 0 -411 86z" />
<glyph unicode="6" horiz-adv-x="1179" d="M117 571q0 221 60.5 406.5t168.5 294.5q162 168 453 168q63 0 186 -15l-18 -208q-104 25 -166 24q-174 0 -283.5 -117.5t-132.5 -324.5q117 123 293 123q188 0 296.5 -121t108.5 -330q0 -229 -129 -361.5t-352 -132.5q-238 0 -361.5 151.5t-123.5 442.5zM371 453 q0 -129 63.5 -205t171.5 -76q104 0 167 77t63 206q0 125 -60.5 198.5t-163.5 73.5q-109 0 -175 -75.5t-66 -198.5z" />
<glyph unicode="7" horiz-adv-x="1179" d="M113 1217v200h936v-192l-580 -1225h-268l585 1217h-673z" />
<glyph unicode="8" horiz-adv-x="1179" d="M96 385q0 176 129 279q43 35 144 75q-133 70 -185.5 142.5t-52.5 185.5q0 172 124 272.5t335 100.5t335 -100.5t124 -272.5q0 -109 -51.5 -179.5t-178.5 -139.5q141 -63 201.5 -145.5t60.5 -209.5q0 -195 -131 -305.5t-362 -110.5q-229 0 -360.5 109t-131.5 299zM346 385 q0 -98 66.5 -157.5t177.5 -59.5q106 0 173.5 59.5t67.5 155.5q0 178 -251 264q-234 -76 -234 -262zM377 1067q0 -80 56 -136.5t177 -96.5l11 4q86 33 134 92t48 133q0 86 -57.5 136t-155.5 50t-155.5 -49t-57.5 -133z" />
<glyph unicode="9" horiz-adv-x="1179" d="M94 946q0 227 128 360.5t349 133.5q242 0 366 -150.5t124 -443.5q0 -221 -60.5 -406.5t-166.5 -294.5q-166 -168 -453 -168q-61 0 -188 15l20 209q104 -25 164 -25q174 0 283.5 118t132.5 324q-117 -123 -293 -122q-188 0 -297 120.5t-109 329.5zM342 961 q0 -125 60.5 -198t162.5 -73q109 0 175.5 76t66.5 197q0 131 -63.5 206.5t-172.5 75.5q-104 0 -166.5 -76.5t-62.5 -207.5z" />
<glyph unicode=":" horiz-adv-x="589" d="M168 137q0 68 46 113t113.5 45t112.5 -45t45 -113q0 -70 -45 -115t-112 -45q-70 0 -115 45t-45 115zM168 874q0 68 46 113t113.5 45t112.5 -45t45 -113q0 -70 -45 -114.5t-112 -44.5q-70 0 -115 44.5t-45 114.5z" />
<glyph unicode=";" horiz-adv-x="589" d="M31 -250l159 535h277l-205 -535h-231zM166 874q0 68 46 113t113.5 45t112.5 -45t45 -113q0 -70 -45 -114.5t-112 -44.5q-70 0 -115 44.5t-45 114.5z" />
<glyph unicode="&#x3c;" horiz-adv-x="1179" d="M88 442v160l993 471v-217l-704 -334l704 -334v-217z" />
<glyph unicode="=" horiz-adv-x="1179" d="M94 246v188h993v-188h-993zM94 608v189h993v-189h-993z" />
<glyph unicode="&#x3e;" horiz-adv-x="1179" d="M98 -29v217l705 334l-705 334v217l994 -471v-160z" />
<glyph unicode="?" horiz-adv-x="925" d="M90 1337q207 104 395.5 104.5t299 -93t110.5 -252.5q0 -98 -51 -175t-191 -184q-82 -63 -103.5 -101t-21.5 -118v-92h-223v98q0 143 25.5 195.5t144.5 146.5q102 82 132 122t30 95q0 78 -50 124t-132 46q-121 0 -297 -98zM260 137q0 68 46 113t113.5 45t113 -45 t45.5 -113q0 -70 -45.5 -115t-112.5 -45q-70 0 -115 45t-45 115z" />
<glyph unicode="@" horiz-adv-x="1699" d="M86 711q0 319 222 524t571 205q330 0 532.5 -174t202.5 -457q0 -209 -118 -352.5t-290 -143.5q-162 0 -178 142q-100 -141 -270 -142q-139 0 -221 81t-82 220q0 201 141 337t348 136q160 0 295 -49l-65 -415q-10 -51 -11 -91q0 -70 62 -69q88 0 153.5 108.5t65.5 251.5 q0 213 -150 334q-166 131 -411 131q-272 0 -449.5 -165t-177.5 -416q0 -256 177 -416t464 -160q152 0 324 57l28 -153q-178 -57 -368 -58q-354 0 -574.5 203t-220.5 531zM657 614q0 -70 36 -110.5t98 -40.5q96 0 151 78q29 41 47 143l41 250q-55 14 -82 14 q-115 0 -203 -100.5t-88 -233.5z" />
<glyph unicode="A" horiz-adv-x="1374" d="M20 0l525 1417h274l537 -1417h-264l-146 406h-532l-146 -406h-248zM481 600h398l-119 336q-39 104 -80 244q-29 -100 -80 -244z" />
<glyph unicode="B" horiz-adv-x="1218" d="M176 0v1417h379q147 0 227 -14t146 -51q76 -41 117.5 -124t41.5 -186q0 -256 -247 -319q279 -57 278 -332q0 -217 -162 -321q-111 -70 -356 -70h-424zM420 188h117q172 0 233 33q92 49 92 187q0 135 -108 188q-70 35 -215 35h-119v-443zM420 805h115q164 0 225 41 q76 51 76 166q0 125 -78 174q-68 43 -234 43h-104v-424z" />
<glyph unicode="C" horiz-adv-x="1251" d="M102 698q0 342 183.5 542t496.5 200q207 0 418 -94l-82 -195q-170 88 -323 88q-199 0 -317 -144.5t-118 -389.5q0 -244 120 -385.5t327 -141.5q156 0 338 94l69 -200q-207 -94 -419 -95q-324 0 -508.5 191.5t-184.5 529.5z" />
<glyph unicode="D" horiz-adv-x="1404" d="M176 0v1417h356q205 0 330 -31.5t219 -107.5q223 -180 224 -567q0 -428 -263 -602q-90 -59 -208.5 -84t-321.5 -25h-336zM424 201h98q236 0 348 80q84 57 130.5 169.5t46.5 258.5q0 303 -170 432q-61 45 -136 60.5t-229 15.5h-88v-1016z" />
<glyph unicode="E" horiz-adv-x="1146" d="M176 0v1417h830v-200h-582v-398h553v-201h-553v-417h612v-201h-860z" />
<glyph unicode="F" horiz-adv-x="1110" d="M176 0v1417h834v-200h-586v-398h557v-201h-557v-618h-248z" />
<glyph unicode="G" horiz-adv-x="1445" d="M102 692q0 346 191.5 547t523.5 201q238 0 457 -99l-82 -198q-190 96 -371 96q-240 0 -360 -172q-100 -145 -101 -369q0 -238 124 -379t335 -141q106 0 215 37v350h-260v201h504v-700q-252 -88 -473 -89q-330 0 -516.5 190.5t-186.5 524.5z" />
<glyph unicode="H" horiz-adv-x="1439" d="M176 0v1417h248v-594h594v594h248v-1417h-248v623h-594v-623h-248z" />
<glyph unicode="I" horiz-adv-x="600" d="M176 0v1417h248v-1417h-248z" />
<glyph unicode="J" horiz-adv-x="808" d="M-2 18l22 207q100 -43 185 -43q125 0 166 82q29 57 28 258v895h248v-887q0 -193 -16.5 -277.5t-63.5 -148.5q-98 -127 -321 -127q-135 0 -248 41z" />
<glyph unicode="K" horiz-adv-x="1300" d="M176 0v1417h248v-667l559 667h287l-563 -663l585 -754h-303l-565 735v-735h-248z" />
<glyph unicode="L" horiz-adv-x="1034" d="M176 0v1417h248v-1216h612v-201h-860z" />
<glyph unicode="M" horiz-adv-x="1849" d="M176 0v1417h361l317 -899l76 -248q31 117 76 248l313 899h354v-1417h-241v1161q-35 -125 -97 -309l-295 -852h-235l-293 834q-47 135 -104 327v-1161h-232z" />
<glyph unicode="N" horiz-adv-x="1482" d="M176 0v1417h277l454 -753q78 -131 140 -258q6 -8 26 -52q-4 88 -4 244v819h238v-1417h-275l-444 731q-84 141 -178 334q4 -117 4 -309v-756h-238z" />
<glyph unicode="O" horiz-adv-x="1517" d="M102 717q0 164 54.5 309t152.5 244q164 170 451 170q326 0 500 -226q158 -205 157 -505q0 -354 -207 -562q-164 -170 -450 -170q-326 0 -500 226q-158 203 -158 514zM360 715q0 -250 106.5 -393.5t293.5 -143.5q184 0 291.5 143.5t107.5 387t-107.5 387t-291.5 143.5 q-182 0 -291 -142t-109 -382z" />
<glyph unicode="P" horiz-adv-x="1128" d="M176 0v1417h342q162 0 253 -18.5t157 -65.5q160 -115 159.5 -342t-165.5 -342q-121 -84 -383 -84h-115v-565h-248zM420 760h80q168 0 235 35q98 49 99 190q0 135 -91 193q-70 45 -231 45h-92v-463z" />
<glyph unicode="Q" horiz-adv-x="1517" d="M102 709q0 350 207 561q164 170 451 170q326 0 500 -226q158 -205 157 -505q0 -248 -103.5 -426.5t-291.5 -255.5q92 -92 297 -222l-125 -170q-252 139 -469 342q-225 14 -360 119q-125 94 -194 256t-69 357zM360 715q0 -250 106.5 -393.5t293.5 -143.5 q184 0 291.5 143.5t107.5 387t-107.5 387t-291.5 143.5q-182 0 -291 -142t-109 -382z" />
<glyph unicode="R" horiz-adv-x="1210" d="M176 0v1417h416q238 0 346 -74q152 -100 152 -303q0 -139 -73 -232t-210 -126q72 -27 105.5 -71t101.5 -199l178 -412h-266l-129 307q-80 188 -134.5 238.5t-177.5 50.5h-61v-596h-248zM420 791h94q143 0 215 34q106 57 107 185q0 121 -86 174q-68 39 -224 39h-106v-432z " />
<glyph unicode="S" horiz-adv-x="1128" d="M102 1024q0 193 127 304.5t346 111.5q174 0 398 -72l-49 -211q-193 82 -338 82q-102 0 -164 -48t-62 -130q0 -72 51.5 -116t204.5 -107q221 -90 297 -154q117 -100 117 -283q0 -201 -131 -312.5t-369 -111.5q-213 0 -421 72l32 217q229 -88 381 -88q115 0 180.5 55.5 t65.5 149.5q0 78 -49 121t-225 119q-207 88 -275 141q-117 96 -117 260z" />
<glyph unicode="T" horiz-adv-x="1116" d="M20 1217v200h1078v-200h-418v-1217h-248v1217h-412z" />
<glyph unicode="U" horiz-adv-x="1423" d="M164 629v788h248v-839q0 -227 63 -308q74 -92 238 -92q197 0 264 123q45 80 45 264v852h240v-788q0 -223 -17.5 -314.5t-73.5 -162.5q-135 -174 -458 -175q-360 0 -486 211q-39 66 -51 153t-12 288z" />
<glyph unicode="V" horiz-adv-x="1302" d="M0 1417h262l281 -782q80 -225 116 -356q59 201 119 358l281 780h246l-517 -1417h-270z" />
<glyph unicode="W" horiz-adv-x="1892" d="M61 1417h250l170 -774q35 -156 66 -324q29 135 76 314l200 784h262l193 -758q53 -207 78 -325q27 147 67 323l174 760h236l-340 -1417h-264l-197 760q-39 150 -84 350q-49 -211 -86 -346l-203 -764h-266z" />
<glyph unicode="X" horiz-adv-x="1392" d="M41 0l506 725l-481 692h288l348 -504l357 504h280l-493 -694l504 -723h-299l-357 522l-362 -522h-291z" />
<glyph unicode="Y" horiz-adv-x="1259" d="M-12 1417h288l263 -416q57 -94 100 -178q63 119 102 181l260 413h273l-518 -811v-606h-248v606z" />
<glyph unicode="Z" horiz-adv-x="1173" d="M66 0v186l714 1031h-690v200h991v-186l-712 -1030h735v-201h-1038z" />
<glyph unicode="[" horiz-adv-x="737" d="M188 -301v1837h433v-190h-203v-1457h203v-190h-433z" />
<glyph unicode="\" horiz-adv-x="544" d="M-18 1446h219l368 -1495h-219z" />
<glyph unicode="]" horiz-adv-x="737" d="M119 -111h200v1457h-200v190h430v-1837h-430v190z" />
<glyph unicode="^" horiz-adv-x="1179" d="M55 633l447 784h176l446 -784h-245l-289 526l-289 -526h-246z" />
<glyph unicode="_" d="M-70 -258h1166v-182h-1166v182z" />
<glyph unicode="`" d="M182 1497h291l248 -299h-223z" />
<glyph unicode="a" horiz-adv-x="1134" d="M78 293q0 203 166 293q100 53 309 53q29 0 170 -6v20q0 115 -59.5 176.5t-171.5 61.5q-129 0 -283 -88l-64 172q184 92 379 92q254 0 361 -137q45 -55 61.5 -130t16.5 -222v-312q0 -178 10 -266h-228l-8 119q-76 -78 -148.5 -110t-174.5 -32q-158 0 -247 84.5t-89 231.5z M326 299q0 -72 44 -115t117 -43q135 0 236 146v196q-47 4 -109 4q-288 0 -288 -188z" />
<glyph unicode="b" horiz-adv-x="1220" d="M156 0q10 147 10 367v1130h240v-584q121 154 305 154q190 0 304.5 -148.5t114.5 -394.5q0 -264 -131 -418q-109 -129 -288 -129q-102 0 -175 39t-141 134l-8 -150h-231zM406 340q109 -178 247 -178q104 0 167 99t63 265q0 164 -63.5 260.5t-172.5 96.5q-143 0 -241 -174 v-369z" />
<glyph unicode="c" horiz-adv-x="987" d="M92 518q0 258 131 403.5t365 145.5q178 0 338 -80l-72 -178q-123 76 -242 76q-131 0 -201.5 -94.5t-70.5 -268.5q0 -170 77 -265t216 -95q123 0 237 80l78 -174q-141 -90 -338 -91q-244 0 -381 143.5t-137 397.5z" />
<glyph unicode="d" horiz-adv-x="1220" d="M92 524q0 246 115 394.5t305 148.5q184 0 305 -154v584h240v-1130q0 -233 10 -367h-231l-9 150q-68 -94 -139.5 -133.5t-175.5 -39.5q-207 0 -322 170q-98 152 -98 377zM340 526q0 -166 62.5 -265t166.5 -99q137 0 248 178v369q-98 174 -242 174q-109 0 -172 -96.5 t-63 -260.5z" />
<glyph unicode="e" horiz-adv-x="1159" d="M92 520q0 254 134 400.5t366 146.5q332 0 430 -256q49 -127 51 -365h-729q27 -289 301 -288q154 0 311 100l84 -176q-182 -104 -401 -105q-262 0 -404.5 141.5t-142.5 401.5zM344 614h483q-2 131 -64.5 204t-171 73t-175 -74t-72.5 -203z" />
<glyph unicode="f" horiz-adv-x="757" d="M57 862v182h166v70q0 190 58 279q80 129 274 129q88 0 190 -29l-20 -190q-59 29 -121 28q-76 0 -108.5 -55t-32.5 -184v-48h239v-182h-239v-862h-240v862h-166z" />
<glyph unicode="g" horiz-adv-x="1230" d="M92 543q0 238 115 381t305 143q205 0 322 -168l8 145h229q-10 -317 -10 -411v-514q0 -178 -18.5 -264t-71.5 -154q-133 -164 -428 -164q-223 0 -406 92l74 178q156 -88 313 -88q199 0 264 140q33 72 33 243v74q-133 -152 -311 -151q-190 0 -304 141t-114 377zM340 539 q0 -150 63.5 -240t169.5 -90q74 0 139.5 47t108.5 131v305q-41 90 -107.5 140.5t-144.5 50.5q-106 0 -167.5 -93t-61.5 -251z" />
<glyph unicode="h" horiz-adv-x="1255" d="M170 0v1497h240v-592q145 162 354 162t287 -147q45 -84 45 -291v-629h-240v616q0 121 -20 177q-35 90 -150 90q-147 0 -276 -176v-707h-240z" />
<glyph unicode="i" horiz-adv-x="573" d="M139 1382q0 63 42 105.5t108 42.5q63 0 105 -42t42 -106q0 -66 -41 -107.5t-106.5 -41.5t-107.5 41.5t-42 107.5zM168 0v1044h240v-1044h-240z" />
<glyph unicode="j" horiz-adv-x="591" d="M-80 -440l21 186q68 -18 102 -18q76 0 108.5 53t32.5 178v1085h240v-1050q0 -252 -59 -336q-84 -121 -273 -121q-74 0 -172 23zM156 1384q0 63 43 105.5t106 42.5q66 0 108 -42t42 -107.5t-42 -107.5t-107.5 -42t-107.5 41.5t-42 109.5z" />
<glyph unicode="k" horiz-adv-x="1103" d="M170 0v1497h240v-893l370 440h277l-404 -458l443 -586h-291l-395 537v-537h-240z" />
<glyph unicode="l" horiz-adv-x="577" d="M170 0v1497h240v-1497h-240z" />
<glyph unicode="m" horiz-adv-x="1851" d="M162 1044h227l8 -153q88 96 165 136t179 40q217 0 283 -190q92 106 171 148t181 42q195 0 271 -147q43 -88 43 -291v-629h-240v616q0 127 -18 177q-33 90 -134 90q-131 0 -247 -176v-707h-240v641q0 127 -35 184.5t-112 57.5q-129 0 -252 -176v-707h-240v678 q0 153 -10 366z" />
<glyph unicode="n" horiz-adv-x="1255" d="M162 1044h227l6 -153q96 98 178 137t193 39q207 0 285 -147q45 -84 45 -291v-629h-240v616q0 121 -20 177q-35 90 -150 90q-141 0 -274 -176v-707h-240v678q0 159 -10 366z" />
<glyph unicode="o" horiz-adv-x="1206" d="M92 528q0 250 138.5 394.5t373.5 144.5q238 0 375 -145.5t137 -399.5t-137 -399.5t-375 -145.5q-240 0 -376 146.5t-136 404.5zM340 526q0 -172 69.5 -269t194.5 -97q123 0 193.5 97t70.5 265t-70.5 265.5t-193.5 97.5t-193.5 -96.5t-70.5 -262.5z" />
<glyph unicode="p" horiz-adv-x="1220" d="M156 1044h231l8 -143q70 88 143.5 127t172.5 39q190 0 304.5 -148.5t114.5 -394.5q0 -264 -131 -418q-109 -129 -290 -129q-98 0 -169 37t-134 119v-573h-240v1067q0 257 -10 417zM406 340q111 -178 247 -178q104 0 167 99t63 265q0 164 -63.5 260.5t-172.5 96.5 q-135 0 -241 -172v-371z" />
<glyph unicode="q" horiz-adv-x="1220" d="M90 524q0 246 114.5 394.5t305.5 148.5q98 0 172 -38t145 -128l9 143h231q-10 -147 -10 -417v-1067h-240v573q-119 -156 -305 -156q-209 0 -324 170q-98 152 -98 377zM338 526q0 -166 62.5 -265t166.5 -99q139 0 250 178v371q-106 172 -244 172q-109 0 -172 -96.5 t-63 -260.5z" />
<glyph unicode="r" horiz-adv-x="782" d="M162 1044h225l6 -196q92 213 277 213q45 0 92 -12l-14 -211q-49 8 -82 8q-90 0 -158 -62.5t-100 -177.5v-606h-238v651q0 141 -8 393z" />
<glyph unicode="s" horiz-adv-x="931" d="M92 59l64 183q152 -84 276 -84q82 0 127 34.5t45 98.5q0 59 -41 88q-29 23 -168 72q-158 57 -217 108q-80 74 -80 193q0 145 103.5 230t281.5 85q168 0 340 -76l-61 -182q-137 80 -268 80q-74 0 -117 -32t-43 -87q0 -57 57 -90q33 -18 164 -68q162 -59 224.5 -124.5 t62.5 -174.5q0 -154 -110.5 -245t-297.5 -91q-180 0 -342 82z" />
<glyph unicode="t" horiz-adv-x="763" d="M57 862v182h168v228l240 45v-273h237v-182h-237v-485q0 -115 30.5 -161t108.5 -46q45 0 113 25l22 -183q-106 -35 -213 -35q-178 0 -250 109q-51 78 -51 279v497h-168z" />
<glyph unicode="u" horiz-adv-x="1245" d="M162 416v628h239v-616q0 -127 21 -176q35 -90 143 -90q141 0 271 176v706h239v-677q0 -193 10 -367h-227l-6 154q-92 -96 -175 -136.5t-190 -40.5q-205 0 -280 148q-45 88 -45 291z" />
<glyph unicode="v" horiz-adv-x="1103" d="M25 1044h247l217 -577q45 -121 78 -229q18 68 76 231l211 575h227l-391 -1044h-270z" />
<glyph unicode="w" horiz-adv-x="1697" d="M49 1044h238l139 -503q29 -102 70 -293q37 158 77 301l148 495h256l153 -491q55 -190 84 -305q20 86 29 129q2 10 11 44l19 66l17 60l142 497h217l-308 -1044h-254l-157 502q-49 162 -88 313q-31 -127 -86 -317l-148 -498h-258z" />
<glyph unicode="x" horiz-adv-x="1126" d="M31 0l403 528l-381 516h277l241 -348l256 348h265l-390 -505l398 -539h-275l-258 367l-272 -367h-264z" />
<glyph unicode="y" horiz-adv-x="1099" d="M12 -428l41 186q76 -31 131 -30q82 0 137.5 63.5t112.5 224.5l-420 1028h254l209 -528q37 -90 88 -240q37 113 88 250l197 518h233l-421 -1067q-106 -266 -193.5 -354t-247.5 -88q-92 0 -209 37z" />
<glyph unicode="z" horiz-adv-x="950" d="M61 0v162l512 700h-485v182h780v-170l-508 -692h525v-182h-824z" />
<glyph unicode="{" horiz-adv-x="737" d="M70 537v161q115 6 145.5 44t30.5 169v263q0 219 64.5 290.5t262.5 71.5h117v-174h-92q-76 0 -98.5 -35t-22.5 -147v-308q0 -137 -38 -184t-158 -70q123 -23 159.5 -70.5t36.5 -185.5v-307q0 -113 22.5 -147.5t98.5 -34.5h92v-174h-117q-199 0 -263 71.5t-64 290.5v263 q0 131 -30.5 169t-145.5 44z" />
<glyph unicode="|" horiz-adv-x="589" d="M178 -440v1857h236v-1857h-236z" />
<glyph unicode="}" horiz-adv-x="737" d="M47 -127h92q76 0 98.5 35t22.5 147v307q0 137 37 185.5t160 70.5q-121 23 -159 70t-38 184v308q0 113 -22.5 147.5t-98.5 34.5h-92v174h117q199 0 263.5 -71.5t64.5 -290.5v-263q0 -131 30.5 -168.5t145.5 -44.5v-161q-115 -6 -145.5 -44t-30.5 -169v-263 q0 -219 -65 -290.5t-263 -71.5h-117v174z" />
<glyph unicode="~" horiz-adv-x="1179" d="M74 444q84 143 151.5 200.5t153.5 57.5q53 0 103 -19t153 -79q121 -68 166 -67q43 0 82 33.5t92 119.5l133 -90q-82 -150 -145.5 -204t-151.5 -54q-94 0 -250 88q-90 53 -119.5 65.5t-60.5 12.5q-41 0 -74 -29.5t-98 -126.5z" />
<glyph unicode="&#xa1;" horiz-adv-x="694" d="M219 907q0 68 45 113t113 45q70 0 115 -45t45 -115q0 -68 -46.5 -112.5t-114 -44.5t-112.5 44.5t-45 114.5zM254 -334l18 950h209l19 -950h-246z" />
<glyph unicode="&#xa2;" horiz-adv-x="1179" d="M158 874q0 166 57 293t164 193q80 49 233 63v174h133v-176q135 -14 242 -65l-57 -191q-96 55 -185 72v-707q92 12 201 84l49 -190q-102 -63 -250 -80v-168h-133v168q-182 16 -278 94q-176 135 -176 436zM408 887q0 -152 52 -243t152 -109v702q-204 -41 -204 -350z" />
<glyph unicode="&#xa3;" horiz-adv-x="1179" d="M94 0v195h154q25 47 33 112.5t8 218.5v119h-176v176h176v101q0 164 19.5 243.5t74.5 141.5q119 131 352 131q162 0 357 -82l-62 -203q-170 84 -278 84q-119 0 -169.5 -77t-50.5 -255v-84h314v-176h-314v-119q0 -154 -7 -217t-29 -114h577v-195h-979z" />
<glyph unicode="&#xa4;" horiz-adv-x="1179" d="M10 268l133 135q-90 137 -90 312q0 176 90 313l-133 135l123 123l129 -131q137 104 327.5 104.5t328.5 -104.5l129 131l120 -123l-133 -135q90 -139 90 -313t-90 -312l133 -135l-120 -123l-129 129q-137 -102 -328 -102q-193 0 -328 102l-129 -129zM246 721 q0 -166 98 -270q92 -98 245.5 -98.5t248 100t94.5 262.5q0 164 -94.5 264t-249.5 100q-152 0 -247 -99t-95 -259z" />
<glyph unicode="&#xa5;" horiz-adv-x="1179" d="M8 1417h281l307 -557l307 557h268l-372 -643h241v-131h-309l-20 -37v-96h327v-131h-327v-379h-242v379h-328v131h328v96l-20 37h-312v131h244z" />
<glyph unicode="&#xa6;" horiz-adv-x="589" d="M178 0v573h236v-573h-236zM178 844v573h236v-573h-236z" />
<glyph unicode="&#xa7;" horiz-adv-x="1179" d="M156 -219l63 194q170 -80 320 -79q201 0 200 139q0 61 -53 102q-39 29 -205 96q-164 63 -223 119q-86 74 -86 197q0 160 174 287q-82 55 -114.5 113.5t-32.5 148.5q0 162 110.5 252t308.5 90q186 0 367 -82l-63 -195q-162 76 -291 76q-82 0 -128 -35t-46 -98.5t55 -99.5 q49 -33 205 -95q164 -61 223 -118q80 -70 80 -193q0 -88 -39 -155.5t-127 -135.5q143 -94 143 -258q0 -168 -116.5 -262t-323.5 -94q-213 0 -401 86zM399 602q0 -70 97 -125q31 -18 168 -76l45 -18q84 86 84 162q0 66 -78 117q-45 27 -176 79l-45 21q-95 -80 -95 -160z" />
<glyph unicode="&#xa8;" d="M160 1362q0 59 40 98t99 39q63 0 102 -39t39 -100.5t-39 -101t-100 -39.5q-63 0 -102 40t-39 103zM584 1362q0 59 40 98t99 39q63 0 102 -39t39 -100.5t-39 -101t-100 -39.5q-63 0 -102 40t-39 103z" />
<glyph unicode="&#xa9;" horiz-adv-x="1638" d="M90 719q0 307 209 513t520 206q315 0 522 -207t207 -522.5t-205.5 -522t-521.5 -206.5q-322 0 -526.5 206.5t-204.5 532.5zM184 717q0 -291 178.5 -475.5t458.5 -184.5q274 0 453.5 184.5t179.5 467t-180 467t-455 184.5q-272 0 -453.5 -183.5t-181.5 -459.5zM467 702 q0 178 104.5 283t284.5 105q123 0 246 -52l-41 -129q-92 43 -180 43q-106 0 -168 -66.5t-62 -181t65.5 -180t180.5 -65.5q80 0 180 49l39 -133q-121 -55 -252 -56q-184 0 -290.5 103.5t-106.5 279.5z" />
<glyph unicode="&#xaa;" horiz-adv-x="737" d="M80 999q0 199 293 199q29 0 73 -2v16q0 102 -120 103q-76 0 -179 -41l-22 110q131 45 233 46q164 0 217 -84q20 -31 25.5 -64t5.5 -125v-158q0 -78 6 -163h-147l-6 61q-80 -74 -185 -74q-90 0 -142 47t-52 129zM244 1008q0 -68 80 -68q72 0 122 57v105q-23 2 -47 2 q-155 0 -155 -96z" />
<glyph unicode="&#xab;" horiz-adv-x="1138" d="M63 522l367 463l158 -119l-258 -344l258 -346l-158 -119zM530 522l365 463l158 -119l-256 -344l256 -346l-158 -119z" />
<glyph unicode="&#xac;" horiz-adv-x="1179" d="M84 592v188h958v-626h-208v438h-750z" />
<glyph unicode="&#xad;" horiz-adv-x="636" d="M82 483v189h473v-189h-473z" />
<glyph unicode="&#xae;" horiz-adv-x="1228" d="M90 1022q0 223 150.5 372.5t373.5 149.5q227 0 376 -150.5t149 -380t-148.5 -380t-374.5 -150.5q-231 0 -378.5 150.5t-147.5 388.5zM180 1020q0 -203 122 -333t314 -130q188 0 310.5 129t122.5 327.5t-123 327.5t-312 129q-186 0 -310 -128.5t-124 -321.5zM428 735v553 h166q129 0 178 -24q72 -35 72 -129q0 -109 -119 -142q31 -14 45 -30.5t35 -61.5l69 -166h-135l-47 115q-27 66 -48 84t-69 18h-18v-217h-129zM557 1036h21q70 0 94 15q37 23 37 71q0 41 -27 59.5t-90 18.5h-35v-164z" />
<glyph unicode="&#xaf;" d="M174 1268v153h678v-153h-678z" />
<glyph unicode="&#xb0;" horiz-adv-x="679" d="M18 1126q0 137 90.5 224.5t231.5 87.5q143 0 233.5 -88t90.5 -228q0 -141 -89.5 -229t-232.5 -88q-145 0 -234.5 88t-89.5 233zM141 1124q0 -96 53.5 -152.5t147.5 -56.5q90 0 144.5 55.5t54.5 149.5t-54.5 149.5t-146.5 55.5q-90 0 -144.5 -55.5t-54.5 -145.5z" />
<glyph unicode="&#xb1;" horiz-adv-x="1179" d="M94 0v186h993v-186h-993zM94 596v186h395v277h203v-277h395v-186h-395v-272h-203v272h-395z" />
<glyph unicode="&#xb2;" horiz-adv-x="794" d="M106 639v135q117 86 248 203q139 131 140 217q0 45 -36 71.5t-96 26.5q-82 0 -217 -63l-36 137q139 63 274 64q137 0 213 -58.5t76 -163.5q0 -70 -32 -129t-108 -135q-109 -104 -192 -170h338v-135h-572z" />
<glyph unicode="&#xb3;" horiz-adv-x="794" d="M98 670l31 137q123 -43 219 -43q72 0 112 28.5t40 79.5q0 111 -191 111q-6 0 -76 -4v123q37 -4 72 -4q186 0 187 106q0 41 -38 65.5t-104 24.5q-82 0 -194 -37l-27 134q135 39 254 39q139 0 215 -53.5t76 -151.5q0 -137 -150 -178q162 -41 162 -187q0 -113 -83 -173 t-236 -60q-140 0 -269 43z" />
<glyph unicode="&#xb4;" d="M326 1198l247 299h291l-315 -299h-223z" />
<glyph unicode="&#xb5;" horiz-adv-x="1179" d="M152 -440v1484h239v-602q0 -150 29 -204q43 -80 133 -80q63 0 115.5 45t113.5 151v690h240v-696q0 -152 8 -348h-225l-8 129q-104 -152 -252 -152q-100 0 -158 70v-487h-235z" />
<glyph unicode="&#xb6;" horiz-adv-x="1351" d="M41 1001q0 121 53 217.5t148 145.5q104 53 336 53h571v-1659h-227v1459h-238v-1459h-227v838q-197 8 -306.5 115.5t-109.5 289.5z" />
<glyph unicode="&#xb7;" horiz-adv-x="589" d="M137 586q0 66 46 110.5t114 44.5t113 -45t45 -112q0 -70 -45 -115t-113 -45q-70 0 -115 46t-45 116z" />
<glyph unicode="&#xb8;" d="M238 -375l241 307h269l-287 -307h-223z" />
<glyph unicode="&#xb9;" horiz-adv-x="794" d="M121 1274l250 143h149v-778h-170v610l-166 -96z" />
<glyph unicode="&#xba;" horiz-adv-x="737" d="M76 1130q0 137 78.5 218.5t214.5 81.5q137 0 215 -81t78 -222.5t-78 -222.5t-215.5 -81t-215 81t-77.5 226zM240 1126q0 -82 34.5 -130t94 -48t94.5 48t35 132q0 82 -35 129.5t-94.5 47.5t-94 -48.5t-34.5 -130.5z" />
<glyph unicode="&#xbb;" horiz-adv-x="1138" d="M84 174l256 346l-256 346l158 119l366 -465l-366 -463zM551 174l256 346l-256 346l158 119l364 -465l-364 -463z" />
<glyph unicode="&#xbc;" horiz-adv-x="1759" d="M98 1274l250 143h150v-778h-170v610l-166 -96zM471 -37l561 1491h164l-561 -1491h-164zM975 178v135l332 465h219v-475h114v-125h-114v-178h-168v178h-383zM1124 303h242v344z" />
<glyph unicode="&#xbd;" horiz-adv-x="1759" d="M94 1274l250 143h150v-778h-170v610l-166 -96zM444 -37l562 1491h161l-561 -1491h-162zM1036 0v135q117 86 248 203q139 131 139 217q0 45 -35.5 71.5t-95.5 26.5q-84 0 -217 -65l-37 139q139 63 275 64q137 0 213 -58.5t76 -163.5q0 -70 -32 -129t-108 -135 q-109 -104 -192 -170h338v-135h-572z" />
<glyph unicode="&#xbe;" horiz-adv-x="1759" d="M104 670l31 137q123 -43 219 -43q72 0 112 28.5t40 79.5q0 111 -191 111q-6 0 -75 -4v123q37 -4 71 -4q186 0 187 106q0 41 -38 65.5t-104 24.5q-82 0 -194 -37l-27 134q135 39 254 39q139 0 215 -53.5t76 -151.5q0 -137 -150 -178q162 -41 162 -187q0 -113 -83 -173 t-236 -60q-140 0 -269 43zM526 -37l561 1491h164l-561 -1491h-164zM979 178v135l332 465h219v-475h117v-125h-117v-178h-168v178h-383zM1128 303h242v344z" />
<glyph unicode="&#xbf;" horiz-adv-x="925" d="M29 -29q0 98 51 175t190 184q82 63 103.5 101t21.5 118v69h223v-75q0 -143 -25.5 -195.5t-143.5 -146.5q-102 -82 -132 -122t-30 -93q0 -70 49 -112t131 -42q121 0 299 98l68 -182q-207 -104 -398 -104q-186 0 -296.5 87.5t-110.5 239.5zM348 907q0 68 45 113t113 45 q70 0 115 -45t45 -115q0 -68 -46.5 -112.5t-114 -44.5t-112.5 44.5t-45 114.5z" />
<glyph unicode="&#xc0;" horiz-adv-x="1374" d="M20 0l525 1417h274l537 -1417h-264l-146 406h-532l-146 -406h-248zM336 1849h291l247 -299h-223zM481 600h398l-119 336q-39 104 -80 244q-29 -100 -80 -244z" />
<glyph unicode="&#xc1;" horiz-adv-x="1374" d="M20 0l525 1417h274l537 -1417h-264l-146 406h-532l-146 -406h-248zM481 600h398l-119 336q-39 104 -80 244q-29 -100 -80 -244zM526 1550l248 299h291l-315 -299h-224z" />
<glyph unicode="&#xc2;" horiz-adv-x="1374" d="M20 0l525 1417h274l537 -1417h-264l-146 406h-532l-146 -406h-248zM319 1550l226 299h284l228 -299h-226l-143 187l-143 -187h-226zM481 600h398l-119 336q-39 104 -80 244q-29 -100 -80 -244z" />
<glyph unicode="&#xc3;" horiz-adv-x="1374" d="M20 0l525 1417h274l537 -1417h-264l-146 406h-532l-146 -406h-248zM309 1573q10 117 64.5 183.5t142.5 66.5q66 0 193 -45q102 -35 137 -35q74 0 84 84h139q-25 -252 -211 -252q-61 0 -182 41q-117 39 -148 39q-59 0 -77 -82h-142zM481 600h398l-119 336q-39 104 -80 244 q-29 -100 -80 -244z" />
<glyph unicode="&#xc4;" horiz-adv-x="1374" d="M20 0l525 1417h274l537 -1417h-264l-146 406h-532l-146 -406h-248zM332 1704q0 63 41 103t104.5 40t104.5 -41t41 -104.5t-41 -104.5t-104.5 -41t-104.5 41t-41 107zM481 600h398l-119 336q-39 104 -80 244q-29 -100 -80 -244zM756 1704q0 63 41 103t104.5 40t104.5 -41 t41 -104.5t-41 -104.5t-104.5 -41t-104.5 41t-41 107z" />
<glyph unicode="&#xc5;" horiz-adv-x="1374" d="M20 0l527 1419q-96 70 -96 193q0 102 67.5 168.5t170 66.5t170 -66.5t67.5 -168.5q0 -133 -105 -199l535 -1413h-264l-146 406h-532l-146 -406h-248zM481 600h398l-119 336q-29 80 -80 244q-25 -84 -35 -115q-14 -45 -45 -129zM575 1612q0 -55 31 -88t82 -33t82 32.5 t31 86.5q0 55 -31 88t-82 33t-82 -33t-31 -86z" />
<glyph unicode="&#xc6;" horiz-adv-x="1898" d="M-82 0l854 1417h985v-200h-581v-398h553v-201h-553v-417h610v-201h-858v365h-514l-211 -365h-285zM520 559h408v674h-17z" />
<glyph unicode="&#xc7;" horiz-adv-x="1251" d="M102 698q0 342 183.5 542t496.5 200q207 0 418 -94l-82 -195q-170 88 -323 88q-199 0 -317 -144.5t-118 -389.5q0 -244 120 -385.5t327 -141.5q156 0 338 94l69 -200q-207 -94 -419 -95q-324 0 -508.5 191.5t-184.5 529.5zM377 -375l241 307h269l-287 -307h-223z" />
<glyph unicode="&#xc8;" horiz-adv-x="1146" d="M176 0v1417h830v-200h-582v-398h553v-201h-553v-417h612v-201h-860zM244 1849h291l247 -299h-223z" />
<glyph unicode="&#xc9;" horiz-adv-x="1146" d="M176 0v1417h830v-200h-582v-398h553v-201h-553v-417h612v-201h-860zM424 1550l248 299h291l-316 -299h-223z" />
<glyph unicode="&#xca;" horiz-adv-x="1146" d="M176 0v1417h830v-200h-582v-398h553v-201h-553v-417h612v-201h-860zM223 1550l226 299h284l228 -299h-226l-143 187l-143 -187h-226z" />
<glyph unicode="&#xcb;" horiz-adv-x="1146" d="M176 0v1417h830v-200h-582v-398h553v-201h-553v-417h612v-201h-860zM233 1704q0 63 41 103t104.5 40t104.5 -41t41 -104.5t-41 -104.5t-104.5 -41t-104.5 41t-41 107zM657 1704q0 63 41 103t104.5 40t104.5 -41t41 -104.5t-41 -104.5t-104.5 -41t-104.5 41t-41 107z" />
<glyph unicode="&#xcc;" horiz-adv-x="600" d="M-57 1849h290l248 -299h-223zM176 0v1417h248v-1417h-248z" />
<glyph unicode="&#xcd;" horiz-adv-x="600" d="M139 1550l248 299h291l-316 -299h-223zM176 0v1417h248v-1417h-248z" />
<glyph unicode="&#xce;" horiz-adv-x="600" d="M-68 1550l226 299h284l228 -299h-226l-143 187l-143 -187h-226zM176 0v1417h248v-1417h-248z" />
<glyph unicode="&#xcf;" horiz-adv-x="600" d="M-57 1704q0 63 41 103t104.5 40t104 -41t40.5 -104.5t-40.5 -104.5t-104 -41t-104.5 41t-41 107zM176 0v1417h248v-1417h-248zM367 1704q0 63 41 103t104 40t104 -41t41 -104.5t-41 -104.5t-104 -41t-104 41t-41 107z" />
<glyph unicode="&#xd0;" horiz-adv-x="1404" d="M4 649v148h172v620h356q205 0 330 -31.5t219 -107.5q223 -180 224 -565q0 -430 -263 -604q-90 -59 -208.5 -84t-321.5 -25h-336v649h-172zM424 201h98q236 0 348 80q84 59 130.5 171.5t46.5 256.5q0 301 -170 432q-61 45 -136 60.5t-229 15.5h-88v-420h285v-148h-285 v-448z" />
<glyph unicode="&#xd1;" horiz-adv-x="1482" d="M176 0v1417h277l454 -753q78 -131 140 -258q6 -8 26 -52q-4 88 -4 244v819h238v-1417h-275l-444 731q-84 141 -178 334q4 -117 4 -309v-756h-238zM387 1573q10 117 64.5 183.5t142.5 66.5q66 0 192 -45q102 -35 138 -35q74 0 84 84h139q-25 -252 -211 -252q-61 0 -182 41 q-117 39 -148 39q-59 0 -78 -82h-141z" />
<glyph unicode="&#xd2;" horiz-adv-x="1517" d="M102 717q0 164 54.5 309t152.5 244q164 170 451 170q326 0 500 -226q158 -205 157 -505q0 -354 -207 -562q-164 -170 -450 -170q-326 0 -500 226q-158 203 -158 514zM360 715q0 -250 106.5 -393.5t293.5 -143.5q184 0 291.5 143.5t107.5 387t-107.5 387t-291.5 143.5 q-182 0 -291 -142t-109 -382zM430 1849h291l248 -299h-224z" />
<glyph unicode="&#xd3;" horiz-adv-x="1517" d="M102 717q0 164 54.5 309t152.5 244q164 170 451 170q326 0 500 -226q158 -205 157 -505q0 -354 -207 -562q-164 -170 -450 -170q-326 0 -500 226q-158 203 -158 514zM360 715q0 -250 106.5 -393.5t293.5 -143.5q184 0 291.5 143.5t107.5 387t-107.5 387t-291.5 143.5 q-182 0 -291 -142t-109 -382zM573 1550l248 299h291l-315 -299h-224z" />
<glyph unicode="&#xd4;" horiz-adv-x="1517" d="M102 717q0 164 54.5 309t152.5 244q164 170 451 170q326 0 500 -226q158 -205 157 -505q0 -354 -207 -562q-164 -170 -450 -170q-326 0 -500 226q-158 203 -158 514zM360 715q0 -250 106.5 -393.5t293.5 -143.5q184 0 291.5 143.5t107.5 387t-107.5 387t-291.5 143.5 q-182 0 -291 -142t-109 -382zM391 1550l225 299h285l227 -299h-225l-143 187l-144 -187h-225z" />
<glyph unicode="&#xd5;" horiz-adv-x="1517" d="M102 717q0 164 54.5 309t152.5 244q164 170 451 170q326 0 500 -226q158 -205 157 -505q0 -354 -207 -562q-164 -170 -450 -170q-326 0 -500 226q-158 203 -158 514zM360 715q0 -250 106.5 -393.5t293.5 -143.5q184 0 291.5 143.5t107.5 387t-107.5 387t-291.5 143.5 q-182 0 -291 -142t-109 -382zM379 1573q10 117 64.5 183.5t142.5 66.5q66 0 192 -45q102 -35 137 -35q74 0 84 84h140q-25 -252 -211 -252q-61 0 -183 41q-117 39 -147 39q-59 0 -78 -82h-141z" />
<glyph unicode="&#xd6;" horiz-adv-x="1517" d="M102 717q0 164 54.5 309t152.5 244q164 170 451 170q326 0 500 -226q158 -205 157 -505q0 -354 -207 -562q-164 -170 -450 -170q-326 0 -500 226q-158 203 -158 514zM360 715q0 -250 106.5 -393.5t293.5 -143.5q184 0 291.5 143.5t107.5 387t-107.5 387t-291.5 143.5 q-182 0 -291 -142t-109 -382zM403 1704q0 63 41 103t104.5 40t104.5 -41t41 -104.5t-41 -104.5t-104.5 -41t-104.5 41t-41 107zM827 1704q0 63 41 103t104.5 40t104.5 -41t41 -104.5t-41 -104.5t-104.5 -41t-104.5 41t-41 107z" />
<glyph unicode="&#xd7;" horiz-adv-x="1179" d="M133 199l324 323l-324 324l133 131l324 -322l323 322l131 -131l-321 -324l321 -323l-133 -133l-321 323l-324 -323z" />
<glyph unicode="&#xd8;" horiz-adv-x="1517" d="M100 709q0 354 207 561q168 170 453 170q252 0 416 -140l131 154l98 -88l-139 -164q150 -213 149 -493q0 -350 -207 -562q-168 -170 -454 -170q-250 0 -414 140l-129 -152l-102 88l139 162q-148 213 -148 494zM358 705q0 -147 60 -291l608 710q-113 115 -270 115 q-184 0 -291 -143t-107 -391zM489 293q109 -115 269 -115q184 0 291.5 143.5t107.5 389.5q0 152 -59 295z" />
<glyph unicode="&#xd9;" horiz-adv-x="1423" d="M164 629v788h248v-839q0 -227 63 -308q74 -92 238 -92q197 0 264 123q45 80 45 264v852h240v-788q0 -223 -17.5 -314.5t-73.5 -162.5q-135 -174 -458 -175q-360 0 -486 211q-39 66 -51 153t-12 288zM383 1849h291l248 -299h-224z" />
<glyph unicode="&#xda;" horiz-adv-x="1423" d="M164 629v788h248v-839q0 -227 63 -308q74 -92 238 -92q197 0 264 123q45 80 45 264v852h240v-788q0 -223 -17.5 -314.5t-73.5 -162.5q-135 -174 -458 -175q-360 0 -486 211q-39 66 -51 153t-12 288zM571 1550l248 299h291l-315 -299h-224z" />
<glyph unicode="&#xdb;" horiz-adv-x="1423" d="M164 629v788h248v-839q0 -227 63 -308q74 -92 238 -92q197 0 264 123q45 80 45 264v852h240v-788q0 -223 -17.5 -314.5t-73.5 -162.5q-135 -174 -458 -175q-360 0 -486 211q-39 66 -51 153t-12 288zM344 1550l225 299h285l227 -299h-225l-143 187l-144 -187h-225z" />
<glyph unicode="&#xdc;" horiz-adv-x="1423" d="M164 629v788h248v-839q0 -227 63 -308q74 -92 238 -92q197 0 264 123q45 80 45 264v852h240v-788q0 -223 -17.5 -314.5t-73.5 -162.5q-135 -174 -458 -175q-360 0 -486 211q-39 66 -51 153t-12 288zM356 1704q0 63 41 103t104.5 40t104.5 -41t41 -104.5t-41 -104.5 t-104.5 -41t-104.5 41t-41 107zM780 1704q0 63 41 103t104.5 40t104.5 -41t41 -104.5t-41 -104.5t-104.5 -41t-104.5 41t-41 107z" />
<glyph unicode="&#xdd;" horiz-adv-x="1259" d="M-12 1417h288l263 -416q57 -94 100 -178q63 119 102 181l260 413h273l-518 -811v-606h-248v606zM492 1550l247 299h291l-315 -299h-223z" />
<glyph unicode="&#xde;" horiz-adv-x="1128" d="M176 0v1417h248v-278h94q160 0 251 -18.5t159 -65.5q160 -113 159 -340q0 -225 -165 -344q-121 -84 -375 -84h-123v-287h-248zM424 487h76q164 0 231 35q98 49 98 187q0 131 -90 188q-70 43 -227 43h-88v-453z" />
<glyph unicode="&#xdf;" horiz-adv-x="1224" d="M164 0v993q0 154 16.5 236t59.5 139q113 154 364 154q207 0 329 -106.5t122 -289.5q0 -121 -59.5 -205.5t-166.5 -111.5q135 -33 203 -104q100 -106 101 -285q0 -205 -122 -324t-333 -119q-78 0 -168 19l27 188q57 -14 100 -14q117 0 182.5 68.5t65.5 191.5 q0 127 -75 201t-202 74q-23 0 -37 -3v183q236 4 236 235q0 102 -53.5 160.5t-147.5 58.5q-139 0 -182 -129q-20 -61 -21 -213v-997h-239z" />
<glyph unicode="&#xe0;" horiz-adv-x="1134" d="M78 293q0 203 166 293q100 53 309 53q29 0 170 -6v20q0 115 -59.5 176.5t-171.5 61.5q-129 0 -283 -88l-64 172q184 92 379 92q254 0 361 -137q45 -55 61.5 -130t16.5 -222v-312q0 -178 10 -266h-228l-8 119q-76 -78 -148.5 -110t-174.5 -32q-158 0 -247 84.5t-89 231.5z M238 1497h290l248 -299h-223zM326 299q0 -72 44 -115t117 -43q135 0 236 146v196q-47 4 -109 4q-288 0 -288 -188z" />
<glyph unicode="&#xe1;" horiz-adv-x="1134" d="M78 293q0 203 166 293q100 53 309 53q29 0 170 -6v20q0 115 -59.5 176.5t-171.5 61.5q-129 0 -283 -88l-64 172q184 92 379 92q254 0 361 -137q45 -55 61.5 -130t16.5 -222v-312q0 -178 10 -266h-228l-8 119q-76 -78 -148.5 -110t-174.5 -32q-158 0 -247 84.5t-89 231.5z M326 299q0 -72 44 -115t117 -43q135 0 236 146v196q-47 4 -109 4q-288 0 -288 -188zM381 1198l248 299h291l-316 -299h-223z" />
<glyph unicode="&#xe2;" horiz-adv-x="1134" d="M78 293q0 203 166 293q100 53 309 53q29 0 170 -6v20q0 115 -59.5 176.5t-171.5 61.5q-129 0 -283 -88l-64 172q184 92 379 92q254 0 361 -137q45 -55 61.5 -130t16.5 -222v-312q0 -178 10 -266h-228l-8 119q-76 -78 -148.5 -110t-174.5 -32q-158 0 -247 84.5t-89 231.5z M186 1198l226 299h284l228 -299h-226l-143 186l-143 -186h-226zM326 299q0 -72 44 -115t117 -43q135 0 236 146v196q-47 4 -109 4q-288 0 -288 -188z" />
<glyph unicode="&#xe3;" horiz-adv-x="1134" d="M78 293q0 203 166 293q100 53 309 53q29 0 170 -6v20q0 115 -59.5 176.5t-171.5 61.5q-129 0 -283 -88l-64 172q184 92 379 92q254 0 361 -137q45 -55 61.5 -130t16.5 -222v-312q0 -178 10 -266h-228l-8 119q-76 -78 -148.5 -110t-174.5 -32q-158 0 -247 84.5t-89 231.5z M164 1217q10 117 64.5 184t142.5 67q66 0 192 -45q102 -35 137 -34q74 0 84 84h140q-25 -254 -211 -254q-61 0 -183 41q-117 39 -147 38q-59 0 -78 -81h-141zM326 299q0 -72 44 -115t117 -43q135 0 236 146v196q-47 4 -109 4q-288 0 -288 -188z" />
<glyph unicode="&#xe4;" horiz-adv-x="1134" d="M78 293q0 203 166 293q100 53 309 53q29 0 170 -6v20q0 115 -59.5 176.5t-171.5 61.5q-129 0 -283 -88l-64 172q184 92 379 92q254 0 361 -137q45 -55 61.5 -130t16.5 -222v-312q0 -178 10 -266h-228l-8 119q-76 -78 -148.5 -110t-174.5 -32q-158 0 -247 84.5t-89 231.5z M209 1362q0 59 40 98t99 39q63 0 102 -39t39 -100.5t-38.5 -101t-100.5 -39.5q-63 0 -102 40t-39 103zM326 299q0 -72 44 -115t117 -43q135 0 236 146v196q-47 4 -109 4q-288 0 -288 -188zM633 1362q0 59 40 98t99 39q63 0 102 -39t39 -100.5t-38.5 -101t-100.5 -39.5 q-63 0 -102 40t-39 103z" />
<glyph unicode="&#xe5;" horiz-adv-x="1134" d="M78 293q0 203 166 293q100 53 309 53q29 0 170 -6v20q0 115 -59.5 176.5t-171.5 61.5q-129 0 -283 -88l-64 172q184 92 379 92q254 0 361 -137q45 -55 61.5 -130t16.5 -222v-312q0 -178 10 -266h-228l-8 119q-76 -78 -148.5 -110t-174.5 -32q-158 0 -247 84.5t-89 231.5z M326 299q0 -72 44 -115t117 -43q135 0 236 146v196q-47 4 -109 4q-288 0 -288 -188zM346 1380q0 92 63.5 154.5t158 62.5t157.5 -62t63 -157q0 -96 -62 -158.5t-158.5 -62.5t-159 63.5t-62.5 159.5zM465 1378q0 -51 27.5 -80.5t74.5 -29.5t75 29.5t28 80.5q0 49 -28 79 t-75 30t-74.5 -30t-27.5 -79z" />
<glyph unicode="&#xe6;" horiz-adv-x="1755" d="M78 291q0 201 170 287q98 53 305 53q66 0 172 -8v30q0 94 -45 158q-61 80 -188 80q-129 0 -283 -88l-64 172q184 92 379 92q244 0 357 -131q131 131 327 131q317 0 410 -256q49 -129 49 -365h-698q25 -289 284 -288q147 0 297 100l84 -176q-170 -104 -395 -105 q-152 0 -245 41t-163 142q-78 -98 -169 -140.5t-228 -42.5q-172 0 -264 81t-92 233zM326 295q0 -70 44 -112t117 -42q98 0 167 61.5t69 149.5v121q-94 4 -111 4q-286 0 -286 -182zM969 614h454q-4 133 -62 204t-161 71q-100 0 -162.5 -74t-68.5 -201z" />
<glyph unicode="&#xe7;" horiz-adv-x="987" d="M92 518q0 258 131 403.5t365 145.5q178 0 338 -80l-72 -178q-123 76 -242 76q-131 0 -201.5 -94.5t-70.5 -268.5q0 -170 77 -265t216 -95q123 0 237 80l78 -174q-141 -90 -338 -91q-244 0 -381 143.5t-137 397.5zM221 -375l242 307h268l-287 -307h-223z" />
<glyph unicode="&#xe8;" horiz-adv-x="1159" d="M92 520q0 254 134 400.5t366 146.5q332 0 430 -256q49 -127 51 -365h-729q27 -289 301 -288q154 0 311 100l84 -176q-182 -104 -401 -105q-262 0 -404.5 141.5t-142.5 401.5zM252 1497h291l248 -299h-224zM344 614h483q-2 131 -64.5 204t-171 73t-175 -74t-72.5 -203z " />
<glyph unicode="&#xe9;" horiz-adv-x="1159" d="M92 520q0 254 134 400.5t366 146.5q332 0 430 -256q49 -127 51 -365h-729q27 -289 301 -288q154 0 311 100l84 -176q-182 -104 -401 -105q-262 0 -404.5 141.5t-142.5 401.5zM344 614h483q-2 131 -64.5 204t-171 73t-175 -74t-72.5 -203zM422 1198l248 299h291l-316 -299 h-223z" />
<glyph unicode="&#xea;" horiz-adv-x="1159" d="M92 520q0 254 134 400.5t366 146.5q332 0 430 -256q49 -127 51 -365h-729q27 -289 301 -288q154 0 311 100l84 -176q-182 -104 -401 -105q-262 0 -404.5 141.5t-142.5 401.5zM229 1198l226 299h284l228 -299h-226l-143 186l-143 -186h-226zM344 614h483q-2 131 -64.5 204 t-171 73t-175 -74t-72.5 -203z" />
<glyph unicode="&#xeb;" horiz-adv-x="1159" d="M92 520q0 254 134 400.5t366 146.5q332 0 430 -256q49 -127 51 -365h-729q27 -289 301 -288q154 0 311 100l84 -176q-182 -104 -401 -105q-262 0 -404.5 141.5t-142.5 401.5zM248 1362q0 59 40 98t99 39q63 0 102 -39t39 -100.5t-38.5 -101t-100.5 -39.5q-63 0 -102 40 t-39 103zM344 614h483q-2 131 -64.5 204t-171 73t-175 -74t-72.5 -203zM672 1362q0 59 40 98t99 39q63 0 102 -39t39 -100.5t-39 -101t-100 -39.5q-63 0 -102 40t-39 103z" />
<glyph unicode="&#xec;" horiz-adv-x="573" d="M-59 1497h290l248 -299h-223zM166 0v1044h240v-1044h-240z" />
<glyph unicode="&#xed;" horiz-adv-x="573" d="M125 1198l248 299h291l-316 -299h-223zM166 0v1044h240v-1044h-240z" />
<glyph unicode="&#xee;" horiz-adv-x="573" d="M-82 1198l225 299h285l227 -299h-225l-143 186l-144 -186h-225zM166 0v1044h240v-1044h-240z" />
<glyph unicode="&#xef;" horiz-adv-x="573" d="M-66 1362q0 59 40 98t100 39q63 0 102 -39t39 -100.5t-39 -101t-100 -39.5q-63 0 -102.5 40t-39.5 103zM168 0v1044h240v-1044h-240zM358 1362q0 59 40 98t100 39q63 0 102 -39t39 -100.5t-39 -101t-100 -39.5q-63 0 -102.5 40t-39.5 103z" />
<glyph unicode="&#xf0;" horiz-adv-x="1161" d="M92 483q0 223 117 356.5t313 133.5q96 0 193 -43q-80 137 -189 229l-286 -131l-45 107l219 102q-102 57 -226 92l60 187q219 -37 399 -170l266 122l50 -106l-218 -100q326 -326 326 -756q0 -254 -130 -391.5t-368 -137.5q-225 0 -353 134t-128 372zM340 481 q0 -150 63.5 -235.5t176.5 -85.5q111 0 177 88t66 233q0 143 -66.5 226.5t-181.5 83.5q-113 0 -174 -81.5t-61 -228.5z" />
<glyph unicode="&#xf1;" horiz-adv-x="1255" d="M162 1044h227l6 -153q96 98 178 137t193 39q207 0 285 -147q45 -84 45 -291v-629h-240v616q0 121 -20 177q-35 90 -150 90q-141 0 -274 -176v-707h-240v678q0 159 -10 366zM276 1217q10 117 64.5 184t142.5 67q66 0 193 -45q102 -35 137 -34q74 0 84 84h139 q-25 -254 -211 -254q-61 0 -182 41q-117 39 -147 38q-59 0 -78 -81h-142z" />
<glyph unicode="&#xf2;" horiz-adv-x="1206" d="M92 528q0 250 138.5 394.5t373.5 144.5q238 0 375 -145.5t137 -399.5t-137 -399.5t-375 -145.5q-240 0 -376 146.5t-136 404.5zM274 1497h291l248 -299h-223zM340 526q0 -172 69.5 -269t194.5 -97q123 0 193.5 97t70.5 265t-70.5 265.5t-193.5 97.5t-193.5 -96.5 t-70.5 -262.5z" />
<glyph unicode="&#xf3;" horiz-adv-x="1206" d="M92 528q0 250 138.5 394.5t373.5 144.5q238 0 375 -145.5t137 -399.5t-137 -399.5t-375 -145.5q-240 0 -376 146.5t-136 404.5zM340 526q0 -172 69.5 -269t194.5 -97q123 0 193.5 97t70.5 265t-70.5 265.5t-193.5 97.5t-193.5 -96.5t-70.5 -262.5zM418 1198l248 299h290 l-315 -299h-223z" />
<glyph unicode="&#xf4;" horiz-adv-x="1206" d="M92 528q0 250 138.5 394.5t373.5 144.5q238 0 375 -145.5t137 -399.5t-137 -399.5t-375 -145.5q-240 0 -376 146.5t-136 404.5zM236 1198l225 299h284l228 -299h-225l-144 186l-143 -186h-225zM340 526q0 -172 69.5 -269t194.5 -97q123 0 193.5 97t70.5 265t-70.5 265.5 t-193.5 97.5t-193.5 -96.5t-70.5 -262.5z" />
<glyph unicode="&#xf5;" horiz-adv-x="1206" d="M92 528q0 250 138.5 394.5t373.5 144.5q238 0 375 -145.5t137 -399.5t-137 -399.5t-375 -145.5q-240 0 -376 146.5t-136 404.5zM223 1217q10 117 64.5 184t142.5 67q66 0 193 -45q102 -35 137 -34q74 0 84 84h139q-25 -254 -211 -254q-61 0 -182 41q-117 39 -148 38 q-59 0 -77 -81h-142zM340 526q0 -172 69.5 -269t194.5 -97q123 0 193.5 97t70.5 265t-70.5 265.5t-193.5 97.5t-193.5 -96.5t-70.5 -262.5z" />
<glyph unicode="&#xf6;" horiz-adv-x="1206" d="M92 528q0 250 138.5 394.5t373.5 144.5q238 0 375 -145.5t137 -399.5t-137 -399.5t-375 -145.5q-240 0 -376 146.5t-136 404.5zM252 1362q0 59 40 98t99 39q63 0 102 -39t39 -100.5t-38.5 -101t-100.5 -39.5q-63 0 -102 40t-39 103zM340 526q0 -172 69.5 -269t194.5 -97 q123 0 193.5 97t70.5 265t-70.5 265.5t-193.5 97.5t-193.5 -96.5t-70.5 -262.5zM676 1362q0 59 40 98t99 39q63 0 102 -39t39 -100.5t-38.5 -101t-100.5 -39.5q-63 0 -102 40t-39 103z" />
<glyph unicode="&#xf7;" horiz-adv-x="1179" d="M94 428v188h993v-188h-993zM449 164q0 61 39.5 101t103 40t103.5 -40t40 -103.5t-40 -103.5t-103.5 -40t-103 40t-39.5 106zM449 881q0 63 40.5 103t104 40t103.5 -40t40 -103.5t-40 -104.5t-103 -41q-66 0 -105.5 40t-39.5 106z" />
<glyph unicode="&#xf8;" horiz-adv-x="1206" d="M53 45l131 137q-92 143 -92 340q0 254 136.5 399.5t373.5 145.5q195 0 332 -106l125 129l90 -91l-129 -133q96 -150 96 -346q0 -252 -137 -397.5t-377 -145.5q-197 0 -332 109l-127 -131zM334 518q0 -51 20 -139l4 -17l430 447q-72 78 -186 78q-125 0 -196.5 -98.5 t-71.5 -270.5zM418 240q74 -82 188 -82q125 0 196.5 97t71.5 269q0 70 -26 164z" />
<glyph unicode="&#xf9;" horiz-adv-x="1245" d="M162 416v628h239v-616q0 -127 21 -176q35 -90 143 -90q141 0 271 176v706h239v-677q0 -193 10 -367h-227l-6 154q-92 -96 -175 -136.5t-190 -40.5q-205 0 -280 148q-45 88 -45 291zM293 1497h291l247 -299h-223z" />
<glyph unicode="&#xfa;" horiz-adv-x="1245" d="M162 416v628h239v-616q0 -127 21 -176q35 -90 143 -90q141 0 271 176v706h239v-677q0 -193 10 -367h-227l-6 154q-92 -96 -175 -136.5t-190 -40.5q-205 0 -280 148q-45 88 -45 291zM467 1198l248 299h291l-316 -299h-223z" />
<glyph unicode="&#xfb;" horiz-adv-x="1245" d="M162 416v628h239v-616q0 -127 21 -176q35 -90 143 -90q141 0 271 176v706h239v-677q0 -193 10 -367h-227l-6 154q-92 -96 -175 -136.5t-190 -40.5q-205 0 -280 148q-45 88 -45 291zM254 1198l225 299h285l227 -299h-225l-143 186l-144 -186h-225z" />
<glyph unicode="&#xfc;" horiz-adv-x="1245" d="M162 416v628h239v-616q0 -127 21 -176q35 -90 143 -90q141 0 271 176v706h239v-677q0 -193 10 -367h-227l-6 154q-92 -96 -175 -136.5t-190 -40.5q-205 0 -280 148q-45 88 -45 291zM270 1362q0 59 40 98t100 39q63 0 102 -39t39 -100.5t-39 -101t-100 -39.5 q-63 0 -102.5 40t-39.5 103zM694 1362q0 59 40 98t100 39q63 0 102 -39t39 -100.5t-39 -101t-100 -39.5q-63 0 -102.5 40t-39.5 103z" />
<glyph unicode="&#xfd;" horiz-adv-x="1099" d="M12 -428l41 186q76 -31 131 -30q82 0 137.5 63.5t112.5 224.5l-420 1028h254l209 -528q37 -90 88 -240q37 113 88 250l197 518h233l-421 -1067q-106 -266 -193.5 -354t-247.5 -88q-92 0 -209 37zM412 1198l247 299h291l-315 -299h-223z" />
<glyph unicode="&#xfe;" horiz-adv-x="1220" d="M164 -440v1937h239v-590q78 88 146.5 124t161.5 36q190 0 303.5 -150.5t113.5 -400.5q0 -244 -114.5 -391.5t-302.5 -147.5q-193 0 -308 158v-575h-239zM403 340q98 -180 248 -180q104 0 167 98t63 264q0 168 -63.5 265.5t-172.5 97.5q-131 0 -242 -176v-369z" />
<glyph unicode="&#xff;" horiz-adv-x="1099" d="M12 -428l41 186q76 -31 131 -30q82 0 137.5 63.5t112.5 224.5l-420 1028h254l209 -528q37 -90 88 -240q37 113 88 250l197 518h233l-421 -1067q-106 -266 -193.5 -354t-247.5 -88q-92 0 -209 37zM197 1362q0 59 39.5 98t99.5 39q63 0 102 -39t39 -100.5t-39 -101 t-100 -39.5q-63 0 -102 40t-39 103zM621 1362q0 59 39.5 98t99.5 39q63 0 102 -39t39 -100.5t-39 -101t-100 -39.5q-63 0 -102 40t-39 103z" />
<glyph unicode="&#x100;" horiz-adv-x="1374" d="M20 0l525 1417h274l537 -1417h-264l-146 406h-532l-146 -406h-248zM350 1581v154h678v-154h-678zM481 600h398l-119 336q-39 104 -80 244q-29 -100 -80 -244z" />
<glyph unicode="&#x101;" horiz-adv-x="1134" d="M78 293q0 203 166 293q100 53 309 53q29 0 170 -6v20q0 115 -59.5 176.5t-171.5 61.5q-129 0 -283 -88l-64 172q184 92 379 92q254 0 361 -137q45 -55 61.5 -130t16.5 -222v-312q0 -178 10 -266h-228l-8 119q-76 -78 -148.5 -110t-174.5 -32q-158 0 -247 84.5t-89 231.5z M211 1268v153h678v-153h-678zM326 299q0 -72 44 -115t117 -43q135 0 236 146v196q-47 4 -109 4q-288 0 -288 -188z" />
<glyph unicode="&#x102;" horiz-adv-x="1374" d="M20 0l525 1417h274l537 -1417h-264l-146 406h-532l-146 -406h-248zM352 1860h154q6 -86 49 -124t135 -38q90 0 133 38t51 124h152q-2 -164 -84 -242t-252 -78q-209 0 -289 121q-47 70 -49 199zM481 600h398l-119 336q-39 104 -80 244q-29 -100 -80 -244z" />
<glyph unicode="&#x103;" horiz-adv-x="1134" d="M78 293q0 203 166 293q100 53 309 53q29 0 170 -6v20q0 115 -59.5 176.5t-171.5 61.5q-129 0 -283 -88l-64 172q184 92 379 92q254 0 361 -137q45 -55 61.5 -130t16.5 -222v-312q0 -178 10 -266h-228l-8 119q-76 -78 -148.5 -110t-174.5 -32q-158 0 -247 84.5t-89 231.5z M215 1497h154q6 -86 49 -124t135 -38q90 0 133 38t51 124h152q-2 -164 -84 -241.5t-252 -77.5q-203 0 -287 118q-49 68 -51 201zM326 299q0 -72 44 -115t117 -43q135 0 236 146v196q-47 4 -109 4q-288 0 -288 -188z" />
<glyph unicode="&#x104;" horiz-adv-x="1374" d="M20 0l525 1417h274l537 -1417q-129 -78 -173 -124t-44 -103q0 -43 33.5 -70t89.5 -27q39 0 86 13l14 -119q-94 -20 -160 -21q-119 0 -188.5 51.5t-69.5 137.5q0 156 260 262h-112l-146 406h-532l-146 -406h-248zM481 600h398l-119 336q-39 104 -80 244l-21 -72l-22 -70 l-37 -102z" />
<glyph unicode="&#x105;" horiz-adv-x="1134" d="M78 293q0 203 166 293q100 53 307 53q37 0 172 -6v20q0 115 -59.5 176.5t-171.5 61.5q-129 0 -283 -88l-64 172q184 92 379 92q254 0 361 -137q45 -55 61.5 -130t16.5 -222v-312q0 -178 10 -266q-129 -78 -173 -124t-44 -103q0 -43 33.5 -70t89.5 -27q39 0 86 13l14 -119 q-94 -20 -160 -21q-119 0 -188.5 51.5t-69.5 137.5q0 156 260 262h-76l-8 119q-76 -78 -148.5 -110t-174.5 -32q-158 0 -247 84.5t-89 231.5zM326 299q0 -72 44 -115t117 -43q135 0 236 146v196q-47 4 -107 4q-290 0 -290 -188z" />
<glyph unicode="&#x106;" horiz-adv-x="1251" d="M102 698q0 342 183.5 542t496.5 200q207 0 418 -94l-82 -195q-170 88 -323 88q-199 0 -317 -144.5t-118 -389.5q0 -244 120 -385.5t327 -141.5q156 0 338 94l69 -200q-207 -94 -419 -95q-324 0 -508.5 191.5t-184.5 529.5zM608 1550l248 299h291l-316 -299h-223z" />
<glyph unicode="&#x107;" horiz-adv-x="987" d="M92 518q0 258 131 403.5t365 145.5q178 0 338 -80l-72 -178q-123 76 -242 76q-131 0 -201.5 -94.5t-70.5 -268.5q0 -170 77 -265t216 -95q123 0 237 80l78 -174q-141 -90 -338 -91q-244 0 -381 143.5t-137 397.5zM410 1198l247 299h291l-315 -299h-223z" />
<glyph unicode="&#x108;" horiz-adv-x="1251" d="M102 698q0 342 183.5 542t496.5 200q207 0 418 -94l-82 -195q-170 88 -323 88q-199 0 -317 -144.5t-118 -389.5q0 -244 120 -385.5t327 -141.5q156 0 338 94l69 -200q-207 -94 -419 -95q-324 0 -508.5 191.5t-184.5 529.5zM401 1550l226 299h284l228 -299h-226l-143 187 l-143 -187h-226z" />
<glyph unicode="&#x109;" horiz-adv-x="987" d="M92 518q0 258 131 403.5t365 145.5q178 0 338 -80l-72 -178q-123 76 -242 76q-131 0 -201.5 -94.5t-70.5 -268.5q0 -170 77 -265t216 -95q123 0 237 80l78 -174q-141 -90 -338 -91q-244 0 -381 143.5t-137 397.5zM211 1198l225 299h285l227 -299h-225l-143 186l-144 -186 h-225z" />
<glyph unicode="&#x10a;" horiz-adv-x="1251" d="M102 698q0 342 183.5 542t496.5 200q207 0 418 -94l-82 -195q-170 88 -323 88q-199 0 -317 -144.5t-118 -389.5q0 -244 120 -385.5t327 -141.5q156 0 338 94l69 -200q-207 -94 -419 -95q-324 0 -508.5 191.5t-184.5 529.5zM655 1704q0 63 41 103t104.5 40t104.5 -41 t41 -104.5t-41 -104.5t-104.5 -41t-104.5 41t-41 107z" />
<glyph unicode="&#x10b;" horiz-adv-x="987" d="M92 518q0 258 131 403.5t365 145.5q178 0 338 -80l-72 -178q-123 76 -242 76q-131 0 -201.5 -94.5t-70.5 -268.5q0 -170 77 -265t216 -95q123 0 237 80l78 -174q-141 -90 -338 -91q-244 0 -381 143.5t-137 397.5zM449 1356q0 63 40.5 103t104 40t104.5 -41t41 -104.5 t-41 -104.5t-104.5 -41t-104 41t-40.5 107z" />
<glyph unicode="&#x10c;" horiz-adv-x="1251" d="M102 698q0 342 183.5 542t496.5 200q207 0 418 -94l-82 -195q-170 88 -323 88q-199 0 -317 -144.5t-118 -389.5q0 -244 120 -385.5t327 -141.5q156 0 338 94l69 -200q-207 -94 -419 -95q-324 0 -508.5 191.5t-184.5 529.5zM418 1864h223l145 -187l144 187h225l-227 -299 h-285z" />
<glyph unicode="&#x10d;" horiz-adv-x="987" d="M92 518q0 258 131 403.5t365 145.5q178 0 338 -80l-72 -178q-123 76 -242 76q-131 0 -201.5 -94.5t-70.5 -268.5q0 -170 77 -265t216 -95q123 0 237 80l78 -174q-141 -90 -338 -91q-244 0 -381 143.5t-137 397.5zM203 1497h223l145 -186l144 186h225l-227 -299h-285z" />
<glyph unicode="&#x10e;" horiz-adv-x="1404" d="M176 0v1417h356q205 0 330 -31.5t219 -107.5q223 -180 224 -567q0 -428 -263 -602q-90 -59 -208.5 -84t-321.5 -25h-336zM289 1864h223l145 -187l144 187h225l-227 -299h-285zM424 201h98q236 0 348 80q84 57 130.5 169.5t46.5 258.5q0 303 -170 432q-61 45 -136 60.5 t-229 15.5h-88v-1016z" />
<glyph unicode="&#x10f;" horiz-adv-x="1458" d="M92 524q0 246 115 394.5t305 148.5q184 0 305 -154v584h240v-1130q0 -233 10 -367h-231l-9 150q-68 -94 -139.5 -133.5t-175.5 -39.5q-207 0 -322 170q-98 152 -98 377zM340 526q0 -166 62.5 -265t166.5 -99q137 0 248 178v369q-98 174 -242 174q-109 0 -172 -96.5 t-63 -260.5zM1128 971l162 526h269l-207 -526h-224z" />
<glyph unicode="&#x110;" horiz-adv-x="1404" d="M4 649v148h172v620h356q205 0 330 -31.5t219 -107.5q223 -180 224 -565q0 -430 -263 -604q-90 -59 -208.5 -84t-321.5 -25h-336v649h-172zM424 201h98q236 0 348 80q84 59 130.5 171.5t46.5 256.5q0 301 -170 432q-61 45 -136 60.5t-229 15.5h-88v-420h285v-148h-285 v-448z" />
<glyph unicode="&#x111;" horiz-adv-x="1220" d="M92 524q0 246 115 394.5t305 148.5q184 0 305 -154v293h-297v144h297v147h240v-147h160v-144h-160v-839q0 -207 10 -367h-231l-9 150q-68 -94 -139.5 -133.5t-175.5 -39.5q-207 0 -322 170q-98 152 -98 377zM340 526q0 -166 62.5 -265t166.5 -99q137 0 248 178v369 q-98 174 -242 174q-109 0 -172 -96.5t-63 -260.5z" />
<glyph unicode="&#x112;" horiz-adv-x="1146" d="M176 0v1417h830v-200h-582v-398h553v-201h-553v-417h612v-201h-860zM236 1581v154h677v-154h-677z" />
<glyph unicode="&#x113;" horiz-adv-x="1159" d="M92 520q0 254 134 400.5t366 146.5q332 0 430 -256q49 -127 51 -365h-729q27 -289 301 -288q154 0 311 100l84 -176q-182 -104 -401 -105q-262 0 -404.5 141.5t-142.5 401.5zM248 1268v153h678v-153h-678zM344 614h483q-2 131 -64.5 204t-171 73t-175 -74t-72.5 -203z " />
<glyph unicode="&#x114;" horiz-adv-x="1146" d="M176 0v1417h830v-200h-582v-398h553v-201h-553v-417h612v-201h-860zM262 1860h154q6 -86 49 -124t135 -38q90 0 133 38t51 124h152q-2 -164 -84 -242t-252 -78q-209 0 -289 121q-47 70 -49 199z" />
<glyph unicode="&#x116;" horiz-adv-x="1146" d="M176 0v1417h830v-200h-582v-398h553v-201h-553v-417h612v-201h-860zM463 1704q0 63 41 103t104.5 40t104.5 -41t41 -104.5t-41 -104.5t-104.5 -41t-104.5 41t-41 107z" />
<glyph unicode="&#x117;" horiz-adv-x="1159" d="M92 520q0 254 134 400.5t366 146.5q332 0 430 -256q49 -127 51 -365h-729q27 -289 301 -288q154 0 311 100l84 -176q-182 -104 -401 -105q-262 0 -404.5 141.5t-142.5 401.5zM344 614h483q-2 131 -64.5 204t-171 73t-175 -74t-72.5 -203zM461 1356q0 63 41 103t104.5 40 t104.5 -41t41 -104.5t-41 -104.5t-104.5 -41t-104.5 41t-41 107z" />
<glyph unicode="&#x118;" horiz-adv-x="1146" d="M176 0v1417h830v-200h-582v-398h553v-201h-553v-417h612v-201q-129 -78 -173 -124t-44 -103q0 -43 34 -70t89 -27q39 0 86 13l14 -119q-94 -20 -159 -21q-119 0 -188.5 51.5t-69.5 137.5q0 154 260 262h-709z" />
<glyph unicode="&#x119;" horiz-adv-x="1159" d="M92 518q0 256 134 402.5t366 146.5q332 0 430 -256q49 -127 51 -365h-729q27 -289 301 -288q154 0 311 100l84 -176q-133 -82 -299 -98q-106 -66 -146 -111t-40 -98q0 -43 34 -70t89 -27q37 0 86 11l14 -119q-98 -18 -160 -19q-119 0 -188.5 50.5t-69.5 138.5 q0 141 213 240q-238 23 -359.5 158.5t-121.5 379.5zM344 614h483q-2 131 -64.5 204t-171 73t-175 -74t-72.5 -203z" />
<glyph unicode="&#x11a;" horiz-adv-x="1146" d="M176 0v1417h830v-200h-582v-398h553v-201h-553v-417h612v-201h-860zM223 1864h223l146 -187l143 187h226l-228 -299h-284z" />
<glyph unicode="&#x11b;" horiz-adv-x="1159" d="M92 520q0 254 134 400.5t366 146.5q332 0 430 -256q49 -127 51 -365h-729q27 -289 301 -288q154 0 311 100l84 -176q-182 -104 -401 -105q-262 0 -404.5 141.5t-142.5 401.5zM227 1497h224l145 -186l143 186h226l-228 -299h-284zM344 614h483q-2 131 -64.5 204t-171 73 t-175 -74t-72.5 -203z" />
<glyph unicode="&#x11c;" horiz-adv-x="1445" d="M102 692q0 346 191.5 547t523.5 201q238 0 457 -99l-82 -198q-190 96 -371 96q-240 0 -360 -172q-100 -145 -101 -369q0 -238 124 -379t335 -141q106 0 215 37v350h-260v201h504v-700q-252 -88 -473 -89q-330 0 -516.5 190.5t-186.5 524.5zM428 1550l225 299h285 l227 -299h-225l-143 187l-144 -187h-225z" />
<glyph unicode="&#x11d;" horiz-adv-x="1230" d="M92 543q0 238 115 381t305 143q205 0 322 -168l8 145h229q-10 -317 -10 -411v-514q0 -178 -18.5 -264t-71.5 -154q-133 -164 -428 -164q-223 0 -406 92l74 178q156 -88 313 -88q199 0 264 140q33 72 33 243v74q-133 -152 -311 -151q-190 0 -304 141t-114 377zM248 1198 l225 299h285l227 -299h-225l-144 186l-143 -186h-225zM340 539q0 -150 63.5 -240t169.5 -90q74 0 139.5 47t108.5 131v305q-41 90 -107.5 140.5t-144.5 50.5q-106 0 -167.5 -93t-61.5 -251z" />
<glyph unicode="&#x11e;" horiz-adv-x="1445" d="M102 692q0 346 191.5 547t523.5 201q238 0 457 -99l-82 -198q-190 96 -371 96q-240 0 -360 -172q-100 -145 -101 -369q0 -238 124 -379t335 -141q106 0 215 37v350h-260v201h504v-700q-252 -88 -473 -89q-330 0 -516.5 190.5t-186.5 524.5zM453 1860h153q6 -86 49 -124 t136 -38q90 0 133 38t51 124h151q-2 -164 -83.5 -242t-251.5 -78q-209 0 -289 121q-47 70 -49 199z" />
<glyph unicode="&#x11f;" horiz-adv-x="1230" d="M92 543q0 238 115 381t305 143q205 0 322 -168l8 145h229q-10 -317 -10 -411v-514q0 -178 -18.5 -264t-71.5 -154q-133 -164 -428 -164q-223 0 -406 92l74 178q156 -88 313 -88q199 0 264 140q33 72 33 243v74q-133 -152 -311 -151q-190 0 -304 141t-114 377zM279 1497 h153q6 -86 49 -124t135 -38q90 0 133.5 38t51.5 124h151q-2 -164 -84 -241.5t-252 -77.5q-203 0 -286 118q-49 68 -51 201zM340 539q0 -150 63.5 -240t169.5 -90q74 0 139.5 47t108.5 131v305q-41 90 -107.5 140.5t-144.5 50.5q-106 0 -167.5 -93t-61.5 -251z" />
<glyph unicode="&#x120;" horiz-adv-x="1445" d="M102 692q0 346 191.5 547t523.5 201q238 0 457 -99l-82 -198q-190 96 -371 96q-240 0 -360 -172q-100 -145 -101 -369q0 -238 124 -379t335 -141q106 0 215 37v350h-260v201h504v-700q-252 -88 -473 -89q-330 0 -516.5 190.5t-186.5 524.5zM662 1704q0 63 40.5 103 t104 40t104.5 -41t41 -104.5t-41 -104.5t-104.5 -41t-104 41t-40.5 107z" />
<glyph unicode="&#x121;" horiz-adv-x="1230" d="M92 543q0 238 115 381t305 143q205 0 322 -168l8 145h229q-10 -317 -10 -411v-514q0 -178 -18.5 -264t-71.5 -154q-133 -164 -428 -164q-223 0 -406 92l74 178q156 -88 313 -88q199 0 264 140q33 72 33 243v74q-133 -152 -311 -151q-190 0 -304 141t-114 377zM340 539 q0 -150 63.5 -240t169.5 -90q74 0 139.5 47t108.5 131v305q-41 90 -107.5 140.5t-144.5 50.5q-106 0 -167.5 -93t-61.5 -251zM471 1356q0 63 41 103t104.5 40t104.5 -41t41 -104.5t-41 -104.5t-104.5 -41t-104.5 41t-41 107z" />
<glyph unicode="&#x122;" horiz-adv-x="1445" d="M102 692q0 346 191.5 547t523.5 201q238 0 457 -99l-82 -198q-190 96 -371 96q-240 0 -360 -172q-100 -145 -101 -369q0 -238 124 -379t335 -141q106 0 215 37v350h-260v201h504v-700q-252 -88 -473 -89q-330 0 -516.5 190.5t-186.5 524.5zM469 -375l242 307h268 l-287 -307h-223z" />
<glyph unicode="&#x123;" horiz-adv-x="1230" d="M92 543q0 238 115 381t305 143q205 0 322 -168l8 145h229q-10 -317 -10 -411v-514q0 -178 -18.5 -264t-71.5 -154q-133 -164 -428 -164q-223 0 -406 92l74 178q156 -88 313 -88q199 0 264 140q33 72 33 243v74q-133 -152 -311 -151q-190 0 -304 141t-114 377zM340 539 q0 -150 63.5 -240t169.5 -90q74 0 139.5 47t108.5 131v305q-41 90 -107.5 140.5t-144.5 50.5q-106 0 -167.5 -93t-61.5 -251zM420 1190l287 307h223l-242 -307h-268z" />
<glyph unicode="&#x124;" horiz-adv-x="1439" d="M176 0v1417h248v-594h594v594h248v-1417h-248v623h-594v-623h-248zM352 1550l226 299h284l228 -299h-226l-143 187l-143 -187h-226z" />
<glyph unicode="&#x125;" horiz-adv-x="1255" d="M-74 1550l226 299h284l228 -299h-226l-143 187l-143 -187h-226zM168 0v1497h240v-592q143 162 354 162q205 0 287 -147q45 -84 45 -291v-629h-240v616q0 121 -20 177q-35 90 -150 90q-143 0 -276 -176v-707h-240z" />
<glyph unicode="&#x126;" horiz-adv-x="1439" d="M49 1036v144h127v237h248v-237h594v237h248v-237h127v-144h-127v-1036h-248v623h-594v-623h-248v1036h-127zM424 823h594v213h-594v-213z" />
<glyph unicode="&#x127;" horiz-adv-x="1255" d="M2 1194v154h168v149h238v-149h294v-154h-292v-289q145 162 354 162q205 0 287 -147q45 -84 45 -291v-629h-240v616q0 127 -20 177q-35 90 -150 90q-145 0 -276 -176v-707h-240v1194h-168z" />
<glyph unicode="&#x12a;" horiz-adv-x="600" d="M-39 1581v154h678v-154h-678zM176 0v1417h248v-1417h-248z" />
<glyph unicode="&#x12b;" horiz-adv-x="573" d="M-51 1268v153h678v-153h-678zM168 0v1044h240v-1044h-240z" />
<glyph unicode="&#x12d;" horiz-adv-x="573" d="M-51 1497h153q6 -86 49.5 -124t135.5 -38q90 0 133 38t51 124h152q-2 -164 -84 -241.5t-252 -77.5q-203 0 -287 118q-49 68 -51 201zM166 0v1044h240v-1044h-240z" />
<glyph unicode="&#x12e;" horiz-adv-x="600" d="M12 -262q0 154 260 262h-96v1417h248v-1417q-129 -76 -174 -123t-45 -104q0 -43 33.5 -70t91.5 -27q39 0 86 13l14 -119q-94 -20 -160 -21q-119 0 -188.5 51.5t-69.5 137.5z" />
<glyph unicode="&#x12f;" horiz-adv-x="573" d="M-6 -262q0 154 260 262h-88v1044h240v-1044q-131 -78 -174.5 -123t-43.5 -104q0 -43 34 -70t89 -27q39 0 86 13l15 -119q-94 -20 -160 -21q-119 0 -188.5 51.5t-69.5 137.5zM137 1382q0 63 42 105.5t107.5 42.5t106.5 -42t41 -106q0 -66 -41 -107.5t-106.5 -41.5 t-107.5 41.5t-42 107.5z" />
<glyph unicode="&#x130;" horiz-adv-x="600" d="M156 1704q0 63 41 103t104.5 40t104 -41t40.5 -104.5t-40.5 -104.5t-104 -41t-104.5 41t-41 107zM176 0v1417h248v-1417h-248z" />
<glyph unicode="&#x131;" horiz-adv-x="573" d="M168 0v1044h240v-1044h-240z" />
<glyph unicode="&#x134;" horiz-adv-x="808" d="M-2 18l22 207q100 -43 185 -43q125 0 166 82q29 57 28 258v895h248v-887q0 -193 -16.5 -277.5t-63.5 -148.5q-98 -127 -321 -127q-135 0 -248 41zM137 1550l225 299h285l227 -299h-225l-143 187l-144 -187h-225z" />
<glyph unicode="&#x135;" horiz-adv-x="591" d="M-88 -440l20 186q68 -18 103 -18q76 0 108.5 53t32.5 178v1085h240v-1050q0 -252 -60 -336q-84 -121 -272 -121q-74 0 -172 23zM-80 1198l225 299h285l227 -299h-225l-143 186l-144 -186h-225z" />
<glyph unicode="&#x136;" horiz-adv-x="1300" d="M176 0v1417h248v-667l559 667h287l-563 -663l585 -754h-303l-565 735v-735h-248zM365 -375l241 307h268l-286 -307h-223z" />
<glyph unicode="&#x137;" horiz-adv-x="1103" d="M170 0v1497h240v-893l370 440h277l-404 -458l443 -586h-291l-395 537v-537h-240zM256 -375l242 307h268l-287 -307h-223z" />
<glyph unicode="&#x139;" horiz-adv-x="1034" d="M176 0v1417h248v-1216h612v-201h-860zM199 1550l247 299h291l-315 -299h-223z" />
<glyph unicode="&#x13a;" horiz-adv-x="577" d="M127 1550l248 299h291l-316 -299h-223zM168 0v1497h240v-1497h-240z" />
<glyph unicode="&#x13b;" horiz-adv-x="1034" d="M176 0v1417h248v-1216h612v-201h-860zM270 -375l242 307h268l-286 -307h-224z" />
<glyph unicode="&#x13c;" horiz-adv-x="577" d="M-47 -375l242 307h268l-287 -307h-223zM170 0v1497h240v-1497h-240z" />
<glyph unicode="&#x13d;" horiz-adv-x="1034" d="M176 0v1417h248v-1216h612v-201h-860zM569 971l162 526h268l-206 -526h-224z" />
<glyph unicode="&#x13e;" horiz-adv-x="811" d="M170 0v1497h240v-1497h-240zM481 971l162 526h268l-206 -526h-224z" />
<glyph unicode="&#x141;" horiz-adv-x="1062" d="M31 463v174l172 119v661h248v-489l231 159v-174l-231 -159v-553h612v-201h-860v582z" />
<glyph unicode="&#x142;" horiz-adv-x="626" d="M25 502v178l170 125v692h239v-516l168 125v-178l-168 -125v-803h-239v627z" />
<glyph unicode="&#x143;" horiz-adv-x="1482" d="M176 0v1417h277l454 -753q78 -131 140 -258q6 -8 26 -52q-4 88 -4 244v819h238v-1417h-275l-444 731q-84 141 -178 334q4 -117 4 -309v-756h-238zM618 1550l248 299h291l-315 -299h-224z" />
<glyph unicode="&#x144;" horiz-adv-x="1255" d="M162 1044h227l6 -153q96 98 178 137t193 39q207 0 285 -147q45 -84 45 -291v-629h-240v616q0 121 -20 177q-35 90 -150 90q-141 0 -274 -176v-707h-240v678q0 159 -10 366zM512 1198l248 299h291l-316 -299h-223z" />
<glyph unicode="&#x145;" horiz-adv-x="1482" d="M176 0v1417h277l454 -753q78 -131 140 -258q6 -8 26 -52q-4 88 -4 244v819h238v-1417h-275l-444 731q-84 141 -178 334q4 -117 4 -309v-756h-238zM428 -375l242 307h268l-287 -307h-223z" />
<glyph unicode="&#x146;" horiz-adv-x="1255" d="M162 1044h227l6 -153q96 98 178 137t193 39q207 0 285 -147q45 -84 45 -291v-629h-240v616q0 121 -20 177q-35 90 -150 90q-141 0 -274 -176v-707h-240v678q0 159 -10 366zM309 -375l242 307h268l-287 -307h-223z" />
<glyph unicode="&#x147;" horiz-adv-x="1482" d="M176 0v1417h277l454 -753q78 -131 140 -258q6 -8 26 -52q-4 88 -4 244v819h238v-1417h-275l-444 731q-84 141 -178 334q4 -117 4 -309v-756h-238zM412 1864h223l145 -187l144 187h225l-227 -299h-285z" />
<glyph unicode="&#x148;" horiz-adv-x="1255" d="M162 1044h227l6 -153q96 98 178 137t193 39q207 0 285 -147q45 -84 45 -291v-629h-240v616q0 121 -20 177q-35 90 -150 90q-141 0 -274 -176v-707h-240v678q0 159 -10 366zM305 1497h223l146 -186l143 186h225l-227 -299h-285z" />
<glyph unicode="&#x14c;" horiz-adv-x="1517" d="M102 717q0 164 54.5 309t152.5 244q164 170 451 170q326 0 500 -226q158 -205 157 -505q0 -354 -207 -562q-164 -170 -450 -170q-326 0 -500 226q-158 203 -158 514zM360 715q0 -250 106.5 -393.5t293.5 -143.5q184 0 291.5 143.5t107.5 387t-107.5 387t-291.5 143.5 q-182 0 -291 -142t-109 -382zM422 1581v154h678v-154h-678z" />
<glyph unicode="&#x14d;" horiz-adv-x="1206" d="M92 528q0 250 138.5 394.5t373.5 144.5q238 0 375 -145.5t137 -399.5t-137 -399.5t-375 -145.5q-240 0 -376 146.5t-136 404.5zM264 1268v153h678v-153h-678zM340 526q0 -172 69.5 -269t194.5 -97q123 0 193.5 97t70.5 265t-70.5 265.5t-193.5 97.5t-193.5 -96.5 t-70.5 -262.5z" />
<glyph unicode="&#x150;" horiz-adv-x="1517" d="M102 717q0 164 54.5 309t152.5 244q164 170 451 170q326 0 500 -226q158 -205 157 -505q0 -354 -207 -562q-164 -170 -450 -170q-326 0 -500 226q-158 203 -158 514zM360 715q0 -250 106.5 -393.5t293.5 -143.5q184 0 291.5 143.5t107.5 387t-107.5 387t-291.5 143.5 q-182 0 -291 -142t-109 -382zM424 1550l229 299h287l-297 -299h-219zM831 1550l228 299h289l-301 -299h-216z" />
<glyph unicode="&#x151;" horiz-adv-x="1206" d="M92 528q0 250 138.5 394.5t373.5 144.5q238 0 375 -145.5t137 -399.5t-137 -399.5t-375 -145.5q-240 0 -376 146.5t-136 404.5zM268 1198l230 299h286l-297 -299h-219zM340 526q0 -172 69.5 -269t194.5 -97q123 0 193.5 97t70.5 265t-70.5 265.5t-193.5 97.5 t-193.5 -96.5t-70.5 -262.5zM676 1198l227 299h289l-301 -299h-215z" />
<glyph unicode="&#x152;" horiz-adv-x="1970" d="M102 711q0 426 279 606q143 92 342 98q41 2 178 2h926v-200h-580v-398h551v-201h-551v-417h611v-201h-947q-240 0 -352 31q-219 61 -338 237.5t-119 442.5zM360 717q0 -299 170 -428q119 -88 379 -88h90v1016h-90q-184 0 -270 -24t-152 -91q-127 -131 -127 -385z" />
<glyph unicode="&#x153;" horiz-adv-x="1908" d="M92 522q0 252 134 398.5t364 146.5q248 0 383 -178q129 178 373 178q160 0 270 -66.5t156 -189.5q47 -125 49 -365h-725q27 -289 297 -288q156 0 311 100l84 -176q-178 -104 -399 -105q-145 0 -243.5 43t-174.5 140q-137 -182 -375 -183q-233 0 -368.5 146.5 t-135.5 398.5zM340 526q0 -172 67.5 -269t188.5 -97t189.5 97t68.5 265t-68.5 265.5t-189.5 97.5q-119 0 -187.5 -96.5t-68.5 -262.5zM1098 614h479q-4 133 -65.5 205t-170 72t-173 -74t-70.5 -203z" />
<glyph unicode="&#x154;" horiz-adv-x="1210" d="M176 0v1417h416q238 0 346 -74q152 -100 152 -303q0 -139 -73 -232t-210 -126q72 -27 105.5 -71t101.5 -199l178 -412h-266l-129 307q-80 188 -134.5 238.5t-177.5 50.5h-61v-596h-248zM420 791h94q143 0 215 34q106 57 107 185q0 121 -86 174q-68 39 -224 39h-106v-432z M451 1550l247 299h291l-315 -299h-223z" />
<glyph unicode="&#x155;" horiz-adv-x="782" d="M162 1044h225l6 -196q92 213 277 213q45 0 92 -12l-14 -211q-49 8 -82 8q-90 0 -158 -62.5t-100 -177.5v-606h-238v651q0 141 -8 393zM283 1198l247 299h291l-315 -299h-223z" />
<glyph unicode="&#x156;" horiz-adv-x="1210" d="M176 0v1417h416q238 0 346 -74q152 -100 152 -303q0 -139 -73 -232t-210 -126q72 -27 105.5 -71t101.5 -199l178 -412h-266l-129 307q-80 188 -134.5 238.5t-177.5 50.5h-61v-596h-248zM332 -375l241 307h269l-287 -307h-223zM420 791h94q143 0 215 34q106 57 107 185 q0 121 -86 174q-68 39 -224 39h-106v-432z" />
<glyph unicode="&#x157;" horiz-adv-x="782" d="M-57 -375l241 307h269l-287 -307h-223zM164 1044h225l6 -196q92 213 277 213q45 0 92 -12l-14 -211q-49 8 -82 8q-90 0 -158 -62.5t-100 -177.5v-606h-238v651q0 207 -8 393z" />
<glyph unicode="&#x158;" horiz-adv-x="1210" d="M176 0v1417h416q238 0 346 -74q152 -100 152 -303q0 -139 -73 -232t-210 -126q72 -27 105.5 -71t101.5 -199l178 -412h-266l-129 307q-80 188 -134.5 238.5t-177.5 50.5h-61v-596h-248zM238 1864h223l145 -187l144 187h225l-227 -299h-285zM420 791h94q143 0 215 34 q106 57 107 185q0 121 -86 174q-68 39 -224 39h-106v-432z" />
<glyph unicode="&#x159;" horiz-adv-x="782" d="M74 1497h223l145 -186l144 186h225l-227 -299h-285zM162 1044h223l8 -196q94 213 277 213q45 0 92 -12l-14 -211q-49 8 -82 8q-88 0 -156 -62.5t-102 -177.5v-606h-238v651q0 182 -8 393z" />
<glyph unicode="&#x15a;" horiz-adv-x="1128" d="M102 1024q0 193 127 304.5t346 111.5q174 0 398 -72l-49 -211q-193 82 -338 82q-102 0 -164 -48t-62 -130q0 -72 51.5 -116t204.5 -107q221 -90 297 -154q117 -100 117 -283q0 -201 -131 -312.5t-369 -111.5q-213 0 -421 72l32 217q229 -88 381 -88q115 0 180.5 55.5 t65.5 149.5q0 78 -49 121t-225 119q-207 88 -275 141q-117 96 -117 260zM432 1550l248 299h291l-316 -299h-223z" />
<glyph unicode="&#x15b;" horiz-adv-x="931" d="M92 59l64 183q152 -84 276 -84q82 0 127 34.5t45 98.5q0 59 -41 88q-29 23 -168 72q-158 57 -217 108q-80 74 -80 193q0 145 103.5 230t281.5 85q168 0 340 -76l-61 -182q-137 80 -268 80q-74 0 -117 -32t-43 -87q0 -57 57 -90q33 -18 164 -68q162 -59 224.5 -124.5 t62.5 -174.5q0 -154 -110.5 -245t-297.5 -91q-180 0 -342 82zM301 1198l248 299h291l-316 -299h-223z" />
<glyph unicode="&#x15c;" horiz-adv-x="1128" d="M102 1024q0 193 127 304.5t346 111.5q174 0 398 -72l-49 -211q-193 82 -338 82q-102 0 -164 -48t-62 -130q0 -72 51.5 -116t204.5 -107q221 -90 297 -154q117 -100 117 -283q0 -201 -131 -312.5t-369 -111.5q-213 0 -421 72l32 217q229 -88 381 -88q115 0 180.5 55.5 t65.5 149.5q0 78 -49 121t-225 119q-207 88 -275 141q-117 96 -117 260zM217 1550l225 299h285l227 -299h-225l-143 187l-144 -187h-225z" />
<glyph unicode="&#x15d;" horiz-adv-x="931" d="M92 59l64 183q152 -84 276 -84q82 0 127 34.5t45 98.5q0 59 -41 88q-29 23 -168 72q-158 57 -217 108q-80 74 -80 193q0 145 103.5 230t281.5 85q168 0 340 -76l-61 -182q-137 80 -268 80q-74 0 -117 -32t-43 -87q0 -57 57 -90q33 -18 164 -68q162 -59 224.5 -124.5 t62.5 -174.5q0 -154 -110.5 -245t-297.5 -91q-180 0 -342 82zM123 1198l225 299h285l227 -299h-225l-143 186l-144 -186h-225z" />
<glyph unicode="&#x15e;" horiz-adv-x="1128" d="M102 1024q0 193 127 304.5t346 111.5q174 0 398 -72l-49 -211q-193 82 -338 82q-102 0 -164 -48t-62 -130q0 -72 51.5 -116t204.5 -107q221 -90 297 -154q117 -100 117 -283q0 -201 -131 -312.5t-369 -111.5q-213 0 -421 72l32 217q229 -88 381 -88q115 0 180.5 55.5 t65.5 149.5q0 78 -49 121t-225 119q-207 88 -275 141q-117 96 -117 260zM211 -375l242 307h268l-287 -307h-223z" />
<glyph unicode="&#x15f;" horiz-adv-x="931" d="M92 59l64 183q152 -84 276 -84q82 0 127 34.5t45 98.5q0 59 -41 88q-29 23 -168 72q-158 57 -217 108q-80 74 -80 193q0 145 103.5 230t281.5 85q168 0 340 -76l-61 -182q-137 80 -268 80q-74 0 -117 -32t-43 -87q0 -57 57 -90q33 -18 164 -68q162 -59 224.5 -124.5 t62.5 -174.5q0 -154 -110.5 -245t-297.5 -91q-180 0 -342 82zM123 -375l242 307h268l-287 -307h-223z" />
<glyph unicode="&#x160;" horiz-adv-x="1128" d="M102 1024q0 193 127 304.5t346 111.5q174 0 398 -72l-49 -211q-193 82 -338 82q-102 0 -164 -48t-62 -130q0 -72 51.5 -116t204.5 -107q221 -90 297 -154q117 -100 117 -283q0 -201 -131 -312.5t-369 -111.5q-213 0 -421 72l32 217q229 -88 381 -88q115 0 180.5 55.5 t65.5 149.5q0 78 -49 121t-225 119q-207 88 -275 141q-117 96 -117 260zM223 1864h223l146 -187l143 187h226l-228 -299h-284z" />
<glyph unicode="&#x161;" horiz-adv-x="931" d="M92 59l64 183q152 -84 276 -84q82 0 127 34.5t45 98.5q0 59 -41 88q-29 23 -168 72q-158 57 -217 108q-80 74 -80 193q0 145 103.5 230t281.5 85q168 0 340 -76l-61 -182q-137 80 -268 80q-74 0 -117 -32t-43 -87q0 -57 57 -90q33 -18 164 -68q162 -59 224.5 -124.5 t62.5 -174.5q0 -154 -110.5 -245t-297.5 -91q-180 0 -342 82zM119 1497h223l145 -186l144 186h225l-227 -299h-285z" />
<glyph unicode="&#x163;" horiz-adv-x="763" d="M57 862v182h168v228l240 45v-273h237v-182h-237v-485q0 -115 30.5 -161t108.5 -46q45 0 113 25l22 -183q-106 -35 -213 -35q-178 0 -250 109q-51 78 -51 279v497h-168zM115 -375l241 307h269l-287 -307h-223z" />
<glyph unicode="&#x164;" horiz-adv-x="1116" d="M20 1217v200h1078v-200h-418v-1217h-248v1217h-412zM190 1864h224l145 -187l143 187h226l-228 -299h-284z" />
<glyph unicode="&#x165;" horiz-adv-x="929" d="M57 862v182h168v228l240 45v-273h237v-182h-237v-485q0 -115 30.5 -161t108.5 -46q45 0 113 25l22 -183q-106 -35 -213 -35q-178 0 -250 109q-51 78 -51 279v497h-168zM610 1149l162 526h268l-206 -526h-224z" />
<glyph unicode="&#x16a;" horiz-adv-x="1423" d="M164 629v788h248v-839q0 -227 63 -308q74 -92 238 -92q197 0 264 123q45 80 45 264v852h240v-788q0 -223 -17.5 -314.5t-73.5 -162.5q-135 -174 -458 -175q-360 0 -486 211q-39 66 -51 153t-12 288zM375 1581v154h678v-154h-678z" />
<glyph unicode="&#x16b;" horiz-adv-x="1245" d="M162 416v628h239v-616q0 -127 21 -176q35 -90 143 -90q141 0 271 176v706h239v-677q0 -193 10 -367h-227l-6 154q-92 -96 -175 -136.5t-190 -40.5q-205 0 -280 148q-45 88 -45 291zM285 1268v153h678v-153h-678z" />
<glyph unicode="&#x16d;" horiz-adv-x="1245" d="M162 416v628h239v-616q0 -127 21 -176q35 -90 143 -90q141 0 271 176v706h239v-677q0 -193 10 -367h-227l-6 154q-92 -96 -175 -136.5t-190 -40.5q-205 0 -280 148q-45 88 -45 291zM287 1497h153q6 -86 49 -124t136 -38q90 0 133 38t51 124h152q-2 -164 -84 -241.5 t-252 -77.5q-203 0 -287 118q-49 68 -51 201z" />
<glyph unicode="&#x16e;" horiz-adv-x="1423" d="M164 629v788h248v-839q0 -227 63 -308q74 -92 238 -92q197 0 264 123q45 80 45 264v852h240v-788q0 -223 -17.5 -314.5t-73.5 -162.5q-135 -174 -458 -175q-360 0 -486 211q-39 66 -51 153t-12 288zM479 1640q0 98 68.5 166t169.5 68q102 0 169.5 -67.5t67.5 -170 t-67.5 -170t-170 -67.5t-170 67.5t-67.5 173.5zM604 1636q0 -55 31 -87.5t82 -32.5t81.5 32.5t30.5 88t-30.5 88t-81.5 32.5t-82 -34t-31 -87z" />
<glyph unicode="&#x16f;" horiz-adv-x="1245" d="M162 416v628h239v-616q0 -127 21 -176q35 -90 143 -90q141 0 271 176v706h239v-677q0 -193 10 -367h-227l-6 154q-92 -96 -175 -136.5t-190 -40.5q-205 0 -280 148q-45 88 -45 291zM401 1380q0 92 63.5 154.5t158 62.5t158 -62t63.5 -157q0 -96 -63.5 -158.5 t-157.5 -62.5q-96 0 -159 63.5t-63 159.5zM520 1378q0 -51 27.5 -80.5t75 -29.5t75 29.5t27.5 80.5q0 49 -27.5 79t-75 30t-75 -30t-27.5 -79z" />
<glyph unicode="&#x170;" horiz-adv-x="1423" d="M164 629v788h248v-839q0 -227 63 -308q74 -92 238 -92q197 0 264 123q45 80 45 264v852h240v-788q0 -223 -17.5 -314.5t-73.5 -162.5q-135 -174 -458 -175q-360 0 -486 211q-39 66 -51 153t-12 288zM377 1550l229 299h287l-297 -299h-219zM784 1550l228 299h288 l-301 -299h-215z" />
<glyph unicode="&#x171;" horiz-adv-x="1245" d="M162 416v628h239v-616q0 -127 21 -176q35 -90 143 -90q141 0 271 176v706h239v-677q0 -193 10 -367h-227l-6 154q-92 -96 -175 -136.5t-190 -40.5q-205 0 -280 148q-45 88 -45 291zM287 1198l229 299h287l-297 -299h-219zM694 1198l228 299h288l-301 -299h-215z" />
<glyph unicode="&#x172;" horiz-adv-x="1423" d="M164 629v788h248v-839q0 -227 63 -308q74 -92 238 -92q197 0 264 123q45 80 45 264v852h240v-788q0 -223 -17.5 -314.5t-73.5 -162.5q-90 -117 -278 -160q-111 -63 -158 -113.5t-47 -105.5q0 -43 34 -70t89 -27q39 0 86 13l14 -119q-96 -20 -159 -21q-119 0 -188.5 51.5 t-69.5 137.5q0 139 208 239q-293 8 -419 140q-74 74 -96.5 171t-22.5 341z" />
<glyph unicode="&#x173;" horiz-adv-x="1245" d="M162 416v628h239v-616q0 -127 21 -176q35 -90 143 -90q141 0 271 176v706h239v-677q0 -193 10 -367q-131 -76 -176 -123t-45 -104q0 -43 34 -70t91 -27q41 0 88 13l13 -119q-94 -20 -160 -21q-119 0 -188.5 51.5t-69.5 137.5q0 156 262 262h-76l-6 154 q-92 -96 -175 -136.5t-190 -40.5q-205 0 -280 148q-45 88 -45 291z" />
<glyph unicode="&#x174;" horiz-adv-x="1892" d="M61 1417h250l170 -774q35 -156 66 -324q29 135 76 314l200 784h262l193 -758q53 -207 78 -325q27 147 67 323l174 760h236l-340 -1417h-264l-197 760q-39 150 -84 350q-49 -211 -86 -346l-203 -764h-266zM580 1550l225 299h285l227 -299h-225l-144 187l-143 -187h-225z " />
<glyph unicode="&#x176;" horiz-adv-x="1259" d="M-12 1417h288l263 -416q57 -94 100 -178q63 119 102 181l260 413h273l-518 -811v-606h-248v606zM266 1550l226 299h284l228 -299h-226l-143 187l-143 -187h-226z" />
<glyph unicode="&#x177;" horiz-adv-x="1099" d="M12 -428l41 186q76 -31 131 -30q82 0 137.5 63.5t112.5 224.5l-420 1028h254l209 -528q37 -90 88 -240q37 113 88 250l197 518h233l-421 -1067q-106 -266 -193.5 -354t-247.5 -88q-92 0 -209 37zM180 1198l226 299h284l228 -299h-226l-143 186l-143 -186h-226z" />
<glyph unicode="&#x178;" horiz-adv-x="1259" d="M-12 1417h288l263 -416q57 -94 100 -178q63 119 102 181l260 413h273l-518 -811v-606h-248v606zM274 1704q0 63 41 103t104.5 40t104.5 -41t41 -104.5t-41 -104.5t-104.5 -41t-104.5 41t-41 107zM698 1704q0 63 41 103t104.5 40t104.5 -41t41 -104.5t-41 -104.5 t-104.5 -41t-104.5 41t-41 107z" />
<glyph unicode="&#x179;" horiz-adv-x="1173" d="M66 0v186l714 1031h-690v200h991v-186l-712 -1030h735v-201h-1038zM451 1550l247 299h291l-315 -299h-223z" />
<glyph unicode="&#x17a;" horiz-adv-x="950" d="M61 0v162l512 700h-485v182h780v-170l-508 -692h525v-182h-824zM334 1198l248 299h290l-315 -299h-223z" />
<glyph unicode="&#x17b;" horiz-adv-x="1173" d="M66 0v186l714 1031h-690v200h991v-186l-712 -1030h735v-201h-1038zM473 1704q0 63 41 103t104.5 40t104.5 -41t41 -104.5t-41 -104.5t-104.5 -41t-104.5 41t-41 107z" />
<glyph unicode="&#x17c;" horiz-adv-x="950" d="M61 0v162l512 700h-485v182h780v-170l-508 -692h525v-182h-824zM369 1356q0 63 41 103t104.5 40t104 -41t40.5 -104.5t-40.5 -104.5t-104 -41t-104.5 41t-41 107z" />
<glyph unicode="&#x17d;" horiz-adv-x="1173" d="M66 0v186l714 1031h-690v200h991v-186l-712 -1030h735v-201h-1038zM246 1864h223l145 -187l144 187h225l-227 -299h-285z" />
<glyph unicode="&#x17e;" horiz-adv-x="950" d="M61 0v162l512 700h-485v182h780v-170l-508 -692h525v-182h-824zM127 1497h223l146 -186l143 186h225l-227 -299h-285z" />
<glyph unicode="&#x192;" horiz-adv-x="1179" d="M-18 -213l43 190q86 -35 143 -34q78 0 113.5 69.5t72.5 288.5l60 340h-174v176h204l29 164q45 260 115 346q88 111 260 111q106 0 227 -43l-47 -183q-84 33 -139 33q-76 0 -112 -60.5t-68 -240.5l-21 -127h250v-176h-281l-71 -405q-31 -182 -53.5 -253t-63.5 -122 q-92 -113 -266 -113q-94 0 -221 39z" />
<glyph unicode="&#x1cd;" horiz-adv-x="1374" d="M20 0l525 1417h274l537 -1417h-264l-146 406h-532l-146 -406h-248zM319 1864h224l145 -187l143 187h226l-228 -299h-284zM481 600h398l-119 336q-39 104 -80 244q-29 -100 -80 -244z" />
<glyph unicode="&#x1ce;" horiz-adv-x="1134" d="M78 293q0 203 166 293q100 53 309 53q29 0 170 -6v20q0 115 -59.5 176.5t-171.5 61.5q-129 0 -283 -88l-64 172q184 92 379 92q254 0 361 -137q45 -55 61.5 -130t16.5 -222v-312q0 -178 10 -266h-228l-8 119q-76 -78 -148.5 -110t-174.5 -32q-158 0 -247 84.5t-89 231.5z M180 1497h223l146 -186l143 186h226l-228 -299h-284zM326 299q0 -72 44 -115t117 -43q135 0 236 146v196q-47 4 -109 4q-288 0 -288 -188z" />
<glyph unicode="&#x1d3;" horiz-adv-x="1423" d="M164 629v788h248v-839q0 -227 63 -308q74 -92 238 -92q197 0 264 123q45 80 45 264v852h240v-788q0 -223 -17.5 -314.5t-73.5 -162.5q-135 -174 -458 -175q-360 0 -486 211q-39 66 -51 153t-12 288zM344 1864h223l146 -187l143 187h225l-227 -299h-285z" />
<glyph unicode="&#x1e6;" horiz-adv-x="1445" d="M102 692q0 346 191.5 547t523.5 201q238 0 457 -99l-82 -198q-190 96 -371 96q-240 0 -360 -172q-100 -145 -101 -369q0 -238 124 -379t335 -141q106 0 215 37v350h-260v201h504v-700q-252 -88 -473 -89q-330 0 -516.5 190.5t-186.5 524.5zM430 1864h223l146 -187 l143 187h225l-227 -299h-285z" />
<glyph unicode="&#x1e7;" horiz-adv-x="1230" d="M92 543q0 238 115 381t305 143q205 0 322 -168l8 145h229q-10 -317 -10 -411v-514q0 -178 -18.5 -264t-71.5 -154q-133 -164 -428 -164q-223 0 -406 92l74 178q156 -88 313 -88q199 0 264 140q33 72 33 243v74q-133 -152 -311 -151q-190 0 -304 141t-114 377zM248 1497 h223l145 -186l144 186h225l-227 -299h-285zM340 539q0 -150 63.5 -240t169.5 -90q74 0 139.5 47t108.5 131v305q-41 90 -107.5 140.5t-144.5 50.5q-106 0 -167.5 -93t-61.5 -251z" />
<glyph unicode="&#x219;" horiz-adv-x="931" d="M92 59l64 183q152 -84 276 -84q82 0 127 34.5t45 98.5q0 59 -41 88q-29 23 -168 72q-158 57 -217 108q-80 74 -80 193q0 145 103.5 230t281.5 85q168 0 340 -76l-61 -182q-137 80 -268 80q-74 0 -117 -32t-43 -87q0 -57 57 -90q33 -18 164 -68q162 -59 224.5 -124.5 t62.5 -174.5q0 -154 -110.5 -245t-297.5 -91q-180 0 -342 82zM131 -375l242 307h268l-287 -307h-223z" />
<glyph unicode="&#x21a;" horiz-adv-x="1116" d="M20 1217v200h1078v-200h-418v-1217h-248v1217h-412zM213 -375l242 307h268l-287 -307h-223z" />
<glyph unicode="&#x2bc;" horiz-adv-x="460" d="M27 971l161 526h269l-207 -526h-223z" />
<glyph unicode="&#x2c6;" d="M143 1198l226 299h284l228 -299h-226l-143 186l-143 -186h-226z" />
<glyph unicode="&#x2c7;" d="M143 1497h224l145 -186l143 186h226l-228 -299h-284z" />
<glyph unicode="&#x2c9;" d="M174 1268v153h678v-153h-678z" />
<glyph unicode="&#x2d8;" d="M174 1497h154q6 -86 49 -124t135 -38q90 0 133 38t51 124h152q-2 -164 -84 -241.5t-252 -77.5q-203 0 -287 118q-49 68 -51 201z" />
<glyph unicode="&#x2d9;" d="M369 1356q0 63 41 103t104.5 40t104 -41t40.5 -104.5t-40.5 -104.5t-104 -41t-104.5 41t-41 107z" />
<glyph unicode="&#x2da;" d="M291 1380q0 92 63.5 154.5t157.5 62.5t157.5 -62t63.5 -157q0 -96 -63.5 -158.5t-157.5 -62.5q-96 0 -158.5 63.5t-62.5 159.5zM410 1378q0 -51 27.5 -80.5t74.5 -29.5t74.5 29.5t27.5 80.5q0 49 -27.5 79t-74.5 30t-74.5 -30t-27.5 -79z" />
<glyph unicode="&#x2db;" d="M219 -262q0 154 260 262h152q-131 -78 -174 -123t-43 -104q0 -43 33.5 -70t89.5 -27q39 0 86 13l14 -119q-94 -20 -160 -21q-119 0 -188.5 51.5t-69.5 137.5z" />
<glyph unicode="&#x2dc;" d="M133 1217q10 117 64.5 184t142.5 67q66 0 192 -45q102 -35 138 -34q74 0 84 84h139q-25 -254 -211 -254q-61 0 -182 41q-117 39 -148 38q-59 0 -78 -81h-141z" />
<glyph unicode="&#x2dd;" d="M176 1198l230 299h286l-297 -299h-219zM584 1198l227 299h289l-301 -299h-215z" />
<glyph unicode="&#x384;" d="M403 1182l107 336h285l-199 -336h-193z" />
<glyph unicode="&#x385;" d="M119 1360q0 51 33.5 84t85.5 33q53 0 85.5 -34t32.5 -85t-32.5 -85t-86 -34t-86 34t-32.5 87zM397 1530h230l-35 -348h-162zM668 1360q0 51 33.5 84t84.5 33q53 0 86 -34t33 -85t-32.5 -85t-86 -34t-86 34t-32.5 87z" />
<glyph unicode="&#x386;" horiz-adv-x="1380" d="M-37 1067l107 430h284l-198 -430h-193zM0 0l524 1417h277l534 -1417h-264l-145 406h-531l-145 -406h-250zM461 600h397l-119 336q-39 104 -80 244q-33 -111 -79 -244z" />
<glyph unicode="&#x387;" horiz-adv-x="589" d="M137 586q0 66 46 110.5t114 44.5t113 -45t45 -112q0 -70 -45 -115t-113 -45q-70 0 -115 46t-45 116z" />
<glyph unicode="&#x388;" horiz-adv-x="1476" d="M-20 1067l106 430h285l-199 -430h-192zM502 0v1417h829v-200h-581v-398h553v-201h-553v-417h612v-201h-860z" />
<glyph unicode="&#x389;" horiz-adv-x="1769" d="M-20 1067l106 430h285l-199 -430h-192zM502 0v1417h248v-594h593v594h248v-1417h-248v623h-593v-623h-248z" />
<glyph unicode="&#x38a;" horiz-adv-x="964" d="M-20 1067l106 430h285l-199 -430h-192zM520 0v1417h248v-1417h-248z" />
<glyph unicode="&#x38c;" horiz-adv-x="1771" d="M-20 1067l106 430h285l-199 -430h-192zM352 717q0 164 54.5 309t152.5 244q164 170 451 170q326 0 499 -226q158 -205 158 -505q0 -354 -207 -562q-164 -170 -450 -170q-326 0 -500 226q-158 207 -158 514zM610 715q0 -250 106.5 -393.5t293.5 -143.5q184 0 291.5 143.5 t107.5 387t-107.5 387t-291.5 143.5q-182 0 -291 -142t-109 -382z" />
<glyph unicode="&#x38e;" horiz-adv-x="1693" d="M-20 1067l106 430h285l-199 -430h-192zM418 1417h289l262 -416q51 -84 100 -178q51 98 102 181l261 413h272l-518 -811v-606h-248v606z" />
<glyph unicode="&#x38f;" horiz-adv-x="1857" d="M-20 1067l106 430h285l-199 -430h-192zM352 811q0 303 221 483q182 145 480 146q340 0 530 -195q168 -178 168 -434q0 -295 -217 -461q-70 -55 -201 -102v-58h408v-190h-592v377q156 45 231 121q113 115 113 305q0 205 -118 320.5t-324.5 115.5t-323.5 -115.5 t-117 -320.5q0 -221 150 -340q72 -53 194 -86v-377h-592v190h408v58q-166 61 -248 143q-170 164 -170 420z" />
<glyph unicode="&#x390;" horiz-adv-x="688" d="M-90 1360q0 51 33.5 84t85.5 33q53 0 85.5 -34t32.5 -85t-32.5 -85t-86 -34t-86 34t-32.5 87zM182 401v643h240v-694q0 -102 28.5 -145t96.5 -43q35 0 94 14l23 -176q-96 -23 -185 -23q-201 0 -262 138q-35 75 -35 286zM188 1530h230l-35 -348h-162zM459 1360 q0 51 33.5 84t85.5 33q53 0 85.5 -34t32.5 -85t-32.5 -85t-86 -34t-86 34t-32.5 87z" />
<glyph unicode="&#x391;" horiz-adv-x="1380" d="M23 0l524 1417h274l537 -1417h-264l-146 406h-532l-146 -406h-247zM483 600h398l-119 336q-39 104 -80 244q-33 -111 -80 -244z" />
<glyph unicode="&#x392;" horiz-adv-x="1224" d="M178 0v1417h379q147 0 227 -14t146 -51q76 -41 118 -124t42 -186q0 -256 -248 -319q279 -57 278 -332q0 -217 -162 -321q-111 -70 -356 -70h-424zM422 188h117q172 0 233 33q92 49 92 187q0 135 -108 188q-70 35 -215 35h-119v-443zM422 805h115q164 0 225 41 q76 51 76 166q0 125 -78 174q-68 43 -234 43h-104v-424z" />
<glyph unicode="&#x393;" horiz-adv-x="1042" d="M178 0v1417h823v-200h-575v-1217h-248z" />
<glyph unicode="&#x394;" horiz-adv-x="1382" d="M43 0v182l492 1235h292l512 -1235v-182h-1296zM299 195h774l-285 733q-63 164 -102 289q-23 -59 -45 -134q-4 -8 -23.5 -62t-33.5 -89z" />
<glyph unicode="&#x395;" horiz-adv-x="1153" d="M178 0v1417h830v-200h-582v-398h553v-201h-553v-417h612v-201h-860z" />
<glyph unicode="&#x396;" horiz-adv-x="1177" d="M68 0v186l714 1031h-690v200h991v-186l-712 -1030h735v-201h-1038z" />
<glyph unicode="&#x397;" horiz-adv-x="1445" d="M178 0v1417h248v-594h594v594h248v-1417h-248v623h-594v-623h-248z" />
<glyph unicode="&#x398;" horiz-adv-x="1523" d="M104 717q0 164 54.5 309t152.5 244q164 170 451 170q326 0 500 -226q158 -205 157 -505q0 -354 -207 -562q-164 -170 -450 -170q-326 0 -500 226q-158 203 -158 514zM362 715q0 -250 106.5 -393.5t293.5 -143.5q184 0 291.5 143.5t107.5 387t-107.5 387t-291.5 143.5 q-182 0 -291 -142t-109 -382zM500 621v196h524v-196h-524z" />
<glyph unicode="&#x399;" horiz-adv-x="641" d="M197 0v1417h247v-1417h-247z" />
<glyph unicode="&#x39a;" horiz-adv-x="1306" d="M178 0v1417h248v-667l559 667h287l-563 -663l585 -754h-303l-565 735v-735h-248z" />
<glyph unicode="&#x39b;" horiz-adv-x="1337" d="M23 0l501 1417h277l514 -1417h-264l-314 936q-33 92 -75 244l-33 -111l-43 -133l-316 -936h-247z" />
<glyph unicode="&#x39c;" horiz-adv-x="1853" d="M178 0v1417h361l317 -899l76 -248q43 150 76 248l313 899h354v-1417h-241v1161q-35 -125 -97 -309l-295 -852h-235l-293 834q-47 135 -104 327v-1161h-232z" />
<glyph unicode="&#x39d;" horiz-adv-x="1486" d="M178 0v1417h277l454 -753q78 -131 140 -258l26 -52q-4 88 -4 244v819h238v-1417h-275l-444 731q-84 141 -178 334q4 -117 4 -309v-756h-238z" />
<glyph unicode="&#x39e;" horiz-adv-x="1193" d="M102 0v201h990v-201h-990zM133 1217v200h928v-200h-928zM217 621v200h760v-200h-760z" />
<glyph unicode="&#x39f;" horiz-adv-x="1523" d="M104 717q0 164 54.5 309t152.5 244q164 170 451 170q326 0 500 -226q158 -205 157 -505q0 -354 -207 -562q-164 -170 -450 -170q-326 0 -500 226q-158 203 -158 514zM362 715q0 -250 106.5 -393.5t293.5 -143.5q184 0 291.5 143.5t107.5 387t-107.5 387t-291.5 143.5 q-182 0 -291 -142t-109 -382z" />
<glyph unicode="&#x3a0;" horiz-adv-x="1439" d="M78 1217v200h1286v-200h-131v-1217h-248v1217h-530v-1217h-248v1217h-129z" />
<glyph unicode="&#x3a1;" horiz-adv-x="1134" d="M178 0v1417h342q162 0 253 -18.5t157 -65.5q160 -115 160 -342t-166 -342q-121 -84 -383 -84h-115v-565h-248zM422 760h80q168 0 235 35q98 49 99 190q0 135 -91 193q-70 45 -231 45h-92v-463z" />
<glyph unicode="&#x3a3;" horiz-adv-x="1130" d="M74 0v186l452 543l-430 502v186h951v-200h-656l379 -431v-116l-405 -469h718v-201h-1009z" />
<glyph unicode="&#x3a4;" horiz-adv-x="1122" d="M23 1217v200h1077v-200h-418v-1217h-248v1217h-411z" />
<glyph unicode="&#x3a5;" horiz-adv-x="1265" d="M-10 1417h289l262 -416q57 -94 100 -178q63 119 102 181l261 413h272l-518 -811v-606h-248v606z" />
<glyph unicode="&#x3a6;" horiz-adv-x="1759" d="M104 709q0 256 177.5 415.5t484.5 180.5v174h227v-174q307 -20 484.5 -180t177.5 -416t-177.5 -416t-484.5 -180v-174h-227v174q-307 20 -484.5 180t-177.5 416zM360 709q0 -170 107.5 -278.5t298.5 -131.5v819q-190 -23 -298 -131t-108 -278zM993 299q190 23 298 131.5 t108 278.5t-107.5 278.5t-298.5 130.5v-819z" />
<glyph unicode="&#x3a7;" horiz-adv-x="1398" d="M29 0l518 729l-479 688h288l349 -504l354 504h280l-493 -694l506 -723h-299l-363 526l-368 -526h-293z" />
<glyph unicode="&#x3a8;" horiz-adv-x="1806" d="M137 1020v397h248v-448q0 -143 20.5 -218t71.5 -120q76 -63 244 -64h59v850h248v-850h59q170 0 244 64q51 43 71.5 118.5t20.5 219.5v448h248v-397q0 -244 -22.5 -341t-96.5 -173q-74 -74 -180 -106.5t-274 -32.5h-70v-367h-248v367h-69q-168 0 -274.5 32.5t-180.5 106.5 q-74 76 -96.5 173t-22.5 341z" />
<glyph unicode="&#x3a9;" horiz-adv-x="1609" d="M104 811q0 303 224 483q180 145 477 146q342 0 530 -195q170 -176 170 -434q0 -295 -219 -461q-70 -55 -201 -102v-58h410v-190h-594v377q156 45 232 121q113 115 112 305q0 205 -116.5 320.5t-323.5 115.5t-323.5 -115.5t-116.5 -320.5q0 -221 149 -340q63 -47 195 -86 v-377h-594v190h409v58q-160 55 -250 143q-170 166 -170 420z" />
<glyph unicode="&#x3aa;" horiz-adv-x="641" d="M-37 1704q0 63 41 103t104.5 40t104.5 -41t41 -104.5t-41 -104.5t-104.5 -41t-104.5 41t-41 107zM197 0v1417h247v-1417h-247zM387 1704q0 63 41 103t104.5 40t104.5 -41t41 -104.5t-41 -104.5t-104.5 -41t-104.5 41t-41 107z" />
<glyph unicode="&#x3ab;" horiz-adv-x="1265" d="M-10 1417h289l262 -416q57 -94 100 -178q63 119 102 181l261 413h272l-518 -811v-606h-248v606zM276 1704q0 63 41 103t104.5 40t104.5 -41t41 -104.5t-41 -104.5t-104.5 -41t-104.5 41t-41 107zM700 1704q0 63 41 103t104.5 40t104.5 -41t41 -104.5t-41 -104.5 t-104.5 -41t-104.5 41t-41 107z" />
<glyph unicode="&#x3ac;" horiz-adv-x="1247" d="M94 516q0 256 112.5 403.5t307.5 147.5q119 0 198 -53t136 -172q6 92 26 215l240 -27q-41 -240 -41 -500q0 -274 82 -505l-240 -52q-31 92 -55 248q-66 -131 -148.5 -187.5t-209.5 -56.5q-195 0 -301.5 141.5t-106.5 397.5zM342 520q0 -358 221 -358q172 0 266 229v184 q-47 162 -109.5 235t-154.5 73q-109 0 -166 -93.5t-57 -269.5zM475 1182l107 336h284l-198 -336h-193z" />
<glyph unicode="&#x3ad;" horiz-adv-x="1046" d="M92 512q0 266 130 410.5t372 144.5q184 0 371 -80l-72 -178q-137 76 -268 76q-238 0 -277 -264h486v-172h-488q23 -150 94.5 -218.5t206.5 -68.5q139 0 273 82l77 -176q-160 -90 -374 -91q-258 0 -394.5 137.5t-136.5 397.5zM481 1182l107 336h284l-198 -336h-193z" />
<glyph unicode="&#x3ae;" horiz-adv-x="1261" d="M164 1044h227l6 -153q96 98 177 137t190 39q205 0 283 -147q45 -84 45 -291v-1069h-240v1056q0 127 -21 177q-35 90 -145 90q-143 0 -272 -176v-707h-240v678q0 159 -10 366zM537 1182l106 336h285l-199 -336h-192z" />
<glyph unicode="&#x3af;" horiz-adv-x="688" d="M184 401v643h240v-694q0 -102 27.5 -145t97.5 -43q35 0 94 14l23 -176q-96 -23 -185 -23q-201 0 -262 138q-35 75 -35 286zM215 1182l107 336h284l-198 -336h-193z" />
<glyph unicode="&#x3b0;" horiz-adv-x="1228" d="M164 487v557h239v-569q0 -147 25 -207q39 -109 186.5 -108.5t186.5 108.5q25 59 24 207v569h240v-557q0 -238 -49 -333q-86 -176 -401.5 -176.5t-401.5 176.5q-49 95 -49 333zM221 1360q0 51 34 84t85 33q53 0 86 -34t33 -85t-33 -85t-86 -34t-86 34t-33 87zM500 1530 h229l-35 -348h-162zM770 1360q0 51 34 84t85 33q53 0 86 -34t33 -85t-33 -85t-86 -34t-86 34t-33 87z" />
<glyph unicode="&#x3b1;" horiz-adv-x="1247" d="M94 516q0 256 112.5 403.5t307.5 147.5q119 0 198 -53t136 -172q6 92 26 215l240 -27q-41 -240 -41 -500q0 -274 82 -505l-240 -52q-31 92 -55 248q-66 -131 -148.5 -187.5t-209.5 -56.5q-195 0 -301.5 141.5t-106.5 397.5zM342 520q0 -358 221 -358q172 0 266 229v184 q-47 162 -109.5 235t-154.5 73q-109 0 -166 -93.5t-57 -269.5z" />
<glyph unicode="&#x3b2;" horiz-adv-x="1269" d="M170 -440v1433q0 156 17.5 237t62.5 138q117 154 379 154q217 0 343 -105.5t126 -286.5q0 -119 -63.5 -201.5t-174.5 -111.5q141 -33 211 -104q104 -106 105 -289q0 -201 -123 -324t-324 -123q-98 0 -170 28t-149 95v-540h-240zM410 285q131 -123 268 -123 q119 0 186.5 72.5t67.5 197.5q0 129 -78 205t-209 76h-39v180q121 0 184.5 59.5t63.5 171.5q0 100 -59.5 157.5t-161.5 57.5q-152 0 -201 -129q-23 -59 -22 -213v-712z" />
<glyph unicode="&#x3b3;" horiz-adv-x="1110" d="M33 965l198 100q258 -457 330 -703q68 242 330 703l184 -100q-244 -451 -322.5 -677.5t-78.5 -471.5v-256h-240v256q0 246 -78.5 470t-322.5 679z" />
<glyph unicode="&#x3b4;" horiz-adv-x="1200" d="M94 483q0 182 74 301t235 193q-90 59 -114 88q-72 78 -72 180q0 276 381 277q176 0 393 -60l-45 -186q-182 68 -339.5 67.5t-157.5 -102.5q0 -53 38.5 -85t196.5 -103q244 -113 333 -229.5t89 -325.5q0 -244 -134 -382.5t-370 -138.5q-242 0 -375 132t-133 374zM342 496 q0 -162 66.5 -249t189.5 -87t191.5 87t68.5 245q0 174 -90 264q-49 53 -223 141q-63 -33 -86 -52.5t-47 -60.5q-70 -110 -70 -288z" />
<glyph unicode="&#x3b5;" horiz-adv-x="1042" d="M94 512q0 266 130 410.5t370 144.5q186 0 369 -88l-74 -172q-135 78 -262 78q-238 0 -277 -264h486v-172h-488q23 -150 94.5 -218.5t206.5 -68.5q131 0 260 74l78 -175q-152 -84 -362 -84q-258 0 -394.5 137.5t-136.5 397.5z" />
<glyph unicode="&#x3b6;" horiz-adv-x="858" d="M94 381q0 166 66.5 317.5t214.5 317.5q119 137 307 299h-211q-190 0 -348 14l14 187q150 -18 375 -19h356v-201q-295 -293 -410.5 -488.5t-115.5 -397.5q0 -106 35 -157.5t129 -80.5q141 -43 190 -64.5t92 -58.5q86 -74 86 -221q0 -127 -86 -303l-184 76q53 127 53 209 q0 80 -49 112q-31 23 -139 49q-133 33 -186.5 55.5t-92.5 65.5q-96 96 -96 289z" />
<glyph unicode="&#x3b7;" horiz-adv-x="1261" d="M164 1044h227l6 -153q96 98 177 137t190 39q205 0 283 -147q45 -84 45 -291v-1069h-240v1056q0 127 -21 177q-35 90 -145 90q-143 0 -272 -176v-707h-240v678q0 159 -10 366z" />
<glyph unicode="&#x3b8;" horiz-adv-x="1208" d="M106 754q0 352 134.5 559t363.5 207q233 0 366.5 -207t133.5 -568q0 -369 -146 -579q-129 -188 -354 -189q-236 0 -367 204t-131 573zM350 698q12 -543 254 -542q244 0 256 542h-510zM352 866h506q-37 475 -254 475q-215 0 -252 -475z" />
<glyph unicode="&#x3b9;" horiz-adv-x="688" d="M184 401v643h240v-694q0 -102 27.5 -145t97.5 -43q35 0 94 14l23 -176q-96 -23 -185 -23q-201 0 -262 138q-35 75 -35 286z" />
<glyph unicode="&#x3ba;" horiz-adv-x="1153" d="M174 0v1044h240v-440l411 440h281l-447 -462l482 -582h-287l-440 537v-537h-240z" />
<glyph unicode="&#x3bb;" horiz-adv-x="1097" d="M12 27l434 1026l-14 32q-57 131 -107.5 174.5t-158.5 47.5l18 211q205 -2 299.5 -81t184.5 -325l229 -612q61 -160 103 -242t104 -149l-191 -138q-70 70 -117.5 166t-119.5 305l-43 123q-53 147 -76 232q-57 -168 -119 -316l-202 -512z" />
<glyph unicode="&#x3bc;" horiz-adv-x="1261" d="M178 -440v1484h240v-534q0 -170 24 -236q39 -113 168 -112q133 0 238 157v725h239v-677q0 -199 11 -367h-228l-8 143q-66 -90 -126 -128t-138 -38q-106 0 -180 80v-497h-240z" />
<glyph unicode="&#x3bd;" horiz-adv-x="1110" d="M27 1044h247l218 -577q45 -121 77 -229q18 68 76 231l211 575h227l-391 -1044h-270z" />
<glyph unicode="&#x3be;" horiz-adv-x="954" d="M113 397q0 217 145 328q51 41 160 72q-227 78 -228 250q0 184 250 268h-71q-123 0 -246 10l12 188q197 -16 383 -16h393v-182h-77q-205 0 -299.5 -56.5t-94.5 -177.5q0 -213 275 -213h125v-170h-125q-184 0 -260 -61q-94 -76 -95 -225q0 -135 74 -193q35 -27 160 -59 q170 -43 229 -109q72 -82 72 -221q0 -135 -72 -301l-196 76q51 137 51 209q0 78 -45 116q-29 25 -143.5 51.5t-169 50t-99.5 66.5q-108 104 -108 299z" />
<glyph unicode="&#x3bf;" horiz-adv-x="1212" d="M94 528q0 250 138.5 394.5t373.5 144.5q238 0 375 -145.5t137 -399.5t-137 -399.5t-375 -145.5q-240 0 -376 146.5t-136 404.5zM342 526q0 -172 69.5 -269t194.5 -97q123 0 193.5 97t70.5 265t-70.5 265.5t-193.5 97.5t-193.5 -96.5t-70.5 -262.5z" />
<glyph unicode="&#x3c0;" horiz-adv-x="1251" d="M37 862v182h1177v-182h-155v-862h-240v862h-381v-862h-239v862h-162z" />
<glyph unicode="&#x3c1;" horiz-adv-x="1245" d="M168 -440v915q0 264 94 404q127 188 395 188q231 0 363.5 -145.5t132.5 -401.5q0 -254 -115.5 -398.5t-320.5 -144.5q-197 0 -309 125v-542h-240zM408 324q88 -162 247 -162q119 0 184.5 94t65.5 266q0 170 -65.5 266.5t-182.5 96.5q-121 0 -185 -93.5t-64 -267.5v-200z " />
<glyph unicode="&#x3c2;" horiz-adv-x="987" d="M94 487q0 147 46 273.5t128 197.5q123 109 326 109q170 0 332 -78l-70 -172q-121 68 -233 68q-135 0 -207 -104.5t-72 -299.5q0 -125 45 -186.5t186 -132.5q111 -55 147 -79t62 -56q57 -74 58 -172q0 -121 -97 -330l-184 76q66 147 66 237q0 57 -36 84t-251 131 q-246 127 -246 434z" />
<glyph unicode="&#x3c3;" horiz-adv-x="1222" d="M94 522q0 254 131 399.5t361 145.5q55 0 184 -12q94 -10 133 -11h256v-186l-205 10q137 -135 138 -360q0 -256 -142 -402q-127 -129 -350 -129q-242 0 -374 142.5t-132 402.5zM342 522q0 -174 67.5 -268t188.5 -94q119 0 182.5 92t63.5 262q0 176 -65.5 273.5 t-186.5 97.5q-119 0 -184.5 -95.5t-65.5 -267.5z" />
<glyph unicode="&#x3c4;" horiz-adv-x="966" d="M12 862v182h920v-182h-367v-497q0 -117 28 -160t101 -43q51 0 121 20l25 -172q-119 -33 -226 -33q-172 0 -239 107q-49 76 -49 270v508h-314z" />
<glyph unicode="&#x3c5;" horiz-adv-x="1228" d="M164 487v557h239v-569q0 -147 25 -207q39 -109 186.5 -108.5t186.5 108.5q25 59 24 207v569h240v-557q0 -238 -49 -333q-86 -176 -401.5 -176.5t-401.5 176.5q-49 95 -49 333z" />
<glyph unicode="&#x3c6;" horiz-adv-x="1576" d="M94 524q0 406 420 518l53 -168q-125 -51 -176 -129.5t-51 -220.5q0 -332 338 -366v901q84 6 123 6q324 0 503 -142.5t179 -396.5q0 -162 -78 -284.5t-219 -186.5q-111 -49 -289 -67v-428h-219v428q-281 20 -432.5 159t-151.5 377zM897 160q160 8 250 105t90 259 q0 164 -91 261.5t-249 105.5v-731z" />
<glyph unicode="&#x3c7;" d="M-31 -381l404 752l-90 190q-78 156 -129.5 209t-145.5 76l31 213q176 -33 261 -110t189 -300l48 -94l256 512l200 -88l-336 -657l123 -248q70 -147 125.5 -225t134.5 -146l-143 -172q-102 78 -170 171t-139 261l-88 191l-330 -623z" />
<glyph unicode="&#x3c8;" horiz-adv-x="1619" d="M117 526q0 236 59 533l236 -33q-47 -254 -47 -467q0 -217 69.5 -299t257.5 -86v870h236v-870q188 4 257.5 86t69.5 299q0 213 -47 467l236 33q59 -297 59 -533q0 -356 -182 -460q-70 -39 -153 -54.5t-240 -19.5v-432h-236v432q-158 4 -240.5 19.5t-152.5 54.5 q-182 104 -182 460z" />
<glyph unicode="&#x3c9;" horiz-adv-x="1533" d="M94 485q0 178 54.5 313.5t177.5 266.5l184 -49q-90 -141 -128 -262t-38 -275q0 -319 168 -319q102 0 131 108q16 55 16 191v317h218v-317q0 -156 22 -215q35 -84 125 -84q168 0 168 319q0 154 -38 276t-128 261l184 49q123 -131 177.5 -266t54.5 -314q0 -242 -103.5 -375 t-289.5 -133q-188 0 -281 187q-92 -186 -281 -187q-186 0 -289.5 133t-103.5 375z" />
<glyph unicode="&#x3ca;" horiz-adv-x="688" d="M-20 1362q0 59 39.5 98t99.5 39q63 0 102 -39t39 -100.5t-39 -101t-100 -39.5q-63 0 -102 40t-39 103zM182 401v643h240v-694q0 -102 27.5 -145t97.5 -43q35 0 94 14l23 -176q-96 -23 -185 -23q-201 0 -262 138q-35 75 -35 286zM403 1362q0 59 40 98t100 39q63 0 102 -39 t39 -100.5t-39 -101t-100 -39.5q-63 0 -102.5 40t-39.5 103z" />
<glyph unicode="&#x3cb;" horiz-adv-x="1228" d="M164 487v557h239v-569q0 -147 25 -207q39 -109 186.5 -108.5t186.5 108.5q25 59 24 207v569h240v-557q0 -238 -49 -333q-86 -176 -401.5 -176.5t-401.5 176.5q-49 95 -49 333zM262 1362q0 59 40 98t99 39q63 0 102.5 -39t39.5 -100.5t-40 -101t-100 -39.5q-63 0 -102 40 t-39 103zM686 1362q0 59 40 98t99 39q63 0 102.5 -39t39.5 -100.5t-40 -101t-100 -39.5q-63 0 -102 40t-39 103z" />
<glyph unicode="&#x3cc;" horiz-adv-x="1212" d="M94 528q0 250 138.5 394.5t373.5 144.5q238 0 375 -145.5t137 -399.5t-137 -399.5t-375 -145.5q-240 0 -376 146.5t-136 404.5zM342 526q0 -172 69.5 -269t194.5 -97q123 0 193.5 97t70.5 265t-70.5 265.5t-193.5 97.5t-193.5 -96.5t-70.5 -262.5zM496 1182l106 336h285 l-199 -336h-192z" />
<glyph unicode="&#x3cd;" horiz-adv-x="1228" d="M164 487v557h239v-569q0 -147 25 -207q39 -109 186.5 -108.5t186.5 108.5q25 59 24 207v569h240v-557q0 -238 -49 -333q-86 -176 -401.5 -176.5t-401.5 176.5q-49 95 -49 333zM506 1182l106 336h285l-199 -336h-192z" />
<glyph unicode="&#x3ce;" horiz-adv-x="1533" d="M94 485q0 178 54.5 313.5t177.5 266.5l184 -49q-90 -141 -128 -262t-38 -275q0 -319 168 -319q102 0 131 108q16 55 16 191v317h218v-317q0 -156 22 -215q35 -84 125 -84q168 0 168 319q0 154 -38 276t-128 261l184 49q123 -131 177.5 -266t54.5 -314q0 -242 -103.5 -375 t-289.5 -133q-188 0 -281 187q-92 -186 -281 -187q-186 0 -289.5 133t-103.5 375zM651 1182l107 336h284l-198 -336h-193z" />
<glyph unicode="&#x401;" horiz-adv-x="1157" d="M180 0v1417h830v-200h-582v-398h553v-201h-553v-417h612v-201h-860zM242 1704q0 63 41 103t104.5 40t104 -41t40.5 -104.5t-40.5 -104.5t-104 -41t-104.5 41t-41 107zM666 1704q0 63 41 103t104 40t104 -41t41 -104.5t-41 -104.5t-104 -41t-104 41t-41 107z" />
<glyph unicode="&#x402;" horiz-adv-x="1558" d="M29 1217v200h1136v-200h-553v-447q102 90 197.5 130t214.5 40q231 0 315 -158q49 -92 50 -311v-209q0 -262 -28 -387t-104 -194q-121 -113 -399 -121v182q184 6 238 111q43 86 43 387v186q0 180 -39 246.5t-142 66.5q-186 0 -346 -188v-551h-250v1217h-333z" />
<glyph unicode="&#x403;" horiz-adv-x="1046" d="M180 0v1417h824v-200h-576v-1217h-248zM418 1550l248 299h290l-315 -299h-223z" />
<glyph unicode="&#x404;" horiz-adv-x="1222" d="M106 707q0 360 151 546.5t441 186.5q225 0 422 -105l-80 -188q-162 92 -321 92q-164 0 -246 -99.5t-100 -316.5h622v-200h-624q14 -229 104 -338t268 -109q160 0 322 90l82 -188q-201 -100 -434 -101q-607 1 -607 730z" />
<glyph unicode="&#x405;" horiz-adv-x="1140" d="M106 1024q0 193 127 304.5t347 111.5q174 0 397 -72l-49 -211q-193 82 -338 82q-102 0 -163.5 -48t-61.5 -130q0 -72 51 -116t205 -107q221 -90 297 -154q117 -100 116 -283q0 -201 -131 -312.5t-368 -111.5q-213 0 -422 72l32 217q229 -88 381 -88q115 0 180.5 55.5 t65.5 149.5q0 78 -49 121t-225 119q-207 88 -275 141q-117 96 -117 260z" />
<glyph unicode="&#x406;" horiz-adv-x="610" d="M180 0v1417h248v-1417h-248z" />
<glyph unicode="&#x407;" horiz-adv-x="610" d="M-51 1704q0 63 41 103t104.5 40t104.5 -41t41 -104.5t-41 -104.5t-104.5 -41t-104.5 41t-41 107zM182 0v1417h248v-1417h-248zM373 1704q0 63 41 103t104.5 40t104.5 -41t41 -104.5t-41 -104.5t-104.5 -41t-104.5 41t-41 107z" />
<glyph unicode="&#x408;" horiz-adv-x="821" d="M2 18l23 207q100 -43 184 -43q125 0 166 82q29 57 28 258v895h248v-887q0 -193 -16.5 -277.5t-63.5 -148.5q-98 -127 -321 -127q-135 0 -248 41z" />
<glyph unicode="&#x409;" horiz-adv-x="1959" d="M0 0v201q80 8 118 19t63.5 52t30.5 98.5t5 178.5v868h946v-520h199q139 0 217 -16.5t139 -61.5q162 -115 162 -370.5t-162 -370.5q-61 -45 -139 -61.5t-217 -16.5h-447v1217h-456v-709q0 -201 -23 -283q-35 -121 -131 -170t-305 -55zM1163 188h146q170 0 235 50 q80 63 80 210.5t-80 210.5q-66 49 -235 50h-146v-521z" />
<glyph unicode="&#x40a;" horiz-adv-x="2035" d="M180 0v1417h248v-557h551v557h248v-557h205q139 0 218 -16.5t142 -59.5q164 -109 164 -354.5t-164 -353.5q-63 -43 -142 -59.5t-218 -16.5h-453v662h-551v-662h-248zM1227 188h151q176 0 242 48q80 57 80 194t-80 195q-63 47 -242 47h-151v-484z" />
<glyph unicode="&#x40b;" horiz-adv-x="1564" d="M29 1217v200h1136v-200h-553v-447q102 92 198.5 131t217.5 39q233 0 322 -147q51 -82 51 -291v-502h-248v465q0 137 -27 190q-41 84 -168 84q-190 0 -346 -188v-551h-250v1217h-333z" />
<glyph unicode="&#x40c;" horiz-adv-x="1296" d="M180 0v1417h246v-614h63q106 0 156 61q31 37 100 209q88 219 160 285.5t223 66.5q49 0 105 -8l-19 -196q-35 8 -59 8q-86 0 -133 -76q-29 -45 -78 -178q-45 -121 -79 -165t-105 -83q102 -35 148 -81t132 -208l226 -438h-273l-174 338q-59 117 -80.5 151.5t-52.5 67.5 q-61 70 -178 70h-82v-627h-246zM543 1550l248 299h290l-315 -299h-223z" />
<glyph unicode="&#x40e;" horiz-adv-x="1249" d="M31 1417h274l227 -534l58 -135l78 -201q57 166 129 340l217 530h243l-448 -1061q-94 -221 -184 -300t-252 -79q-80 0 -162 21l35 192q59 -14 110 -14q76 0 119 30t78 105zM322 1847h151q8 -86 51 -123.5t133 -37.5q92 0 135.5 37.5t49.5 123.5h153q-2 -137 -49 -209 q-84 -127 -289 -127q-207 0 -286 127q-47 68 -49 209z" />
<glyph unicode="&#x40f;" horiz-adv-x="1384" d="M180 0v1417h248v-1216h526v1216h248v-1417h-389l-29 -344h-186l-29 344h-389z" />
<glyph unicode="&#x410;" horiz-adv-x="1386" d="M25 0l524 1417h274l537 -1417h-264l-146 406h-532l-146 -406h-247zM485 600h398l-119 336q-39 104 -80 244q-33 -111 -80 -244z" />
<glyph unicode="&#x411;" horiz-adv-x="1220" d="M180 0v1417h854v-200h-606v-332h168q250 0 362 -78q166 -109 166 -365q0 -254 -166 -364q-109 -78 -344 -78h-434zM428 188h135q156 0 221 48q84 61 84 206.5t-84 206.5q-66 47 -221 47h-135v-508z" />
<glyph unicode="&#x412;" horiz-adv-x="1230" d="M180 0v1417h379q147 0 227 -14t146 -51q76 -41 118 -124t42 -186q0 -256 -248 -319q279 -57 278 -332q0 -217 -161 -321q-111 -70 -357 -70h-424zM424 188h117q172 0 233 33q92 49 92 187q0 135 -108 188q-70 35 -215 35h-119v-443zM424 805h115q164 0 225 41 q76 51 76 166q0 125 -78 174q-68 43 -234 43h-104v-424z" />
<glyph unicode="&#x413;" horiz-adv-x="1046" d="M180 0v1417h824v-200h-576v-1217h-248z" />
<glyph unicode="&#x414;" horiz-adv-x="1386" d="M-29 201h135q76 137 109 342q47 293 47 682v192h926v-1216h149v-545h-184l-29 344h-938l-28 -344h-187v545zM365 197h575v1020h-442v-99q0 -272 -43 -573q-27 -184 -90 -348z" />
<glyph unicode="&#x415;" horiz-adv-x="1157" d="M180 0v1417h830v-200h-582v-398h553v-201h-553v-417h612v-201h-860z" />
<glyph unicode="&#x416;" horiz-adv-x="1816" d="M29 0l217 438q84 160 130 208t150 81q-82 43 -114.5 91t-96.5 224q-37 106 -75.5 145.5t-106.5 39.5q-8 0 -57 -4l-17 194q68 6 105 6q176 0 260 -116q29 -41 47 -81t100 -243q43 -109 83 -144.5t118 -35.5h14v614h244v-614h14q102 0 152 71q18 31 100 232 q72 186 138 248q78 70 219 69q37 0 104 -6l-16 -194q-49 4 -58 4q-76 0 -112.5 -44t-95.5 -210q-45 -123 -76 -164t-109 -82q104 -33 151.5 -81t129.5 -208l217 -438h-270l-166 338q-88 178 -146.5 233.5t-158.5 55.5h-17v-627h-244v627h-16q-100 0 -158.5 -55.5 t-146.5 -233.5l-166 -338h-270z" />
<glyph unicode="&#x417;" horiz-adv-x="1191" d="M53 55l56 199q193 -78 387 -78q158 0 242.5 60.5t84.5 173.5q0 123 -99 179t-312 56q-82 0 -146 -2v191q49 -4 117 -5q223 0 322 58q104 59 104 162q0 94 -75 143t-214 49q-156 0 -360 -78l-49 197q213 80 436 80q248 0 380 -95.5t132 -273.5q0 -135 -75 -220t-214 -112 q158 -31 231.5 -112.5t73.5 -225.5q0 -203 -145.5 -313.5t-415.5 -110.5q-240 0 -461 78z" />
<glyph unicode="&#x418;" horiz-adv-x="1439" d="M180 0v1417h242v-950l594 831v119h241v-1417h-241v961l-594 -832v-129h-242z" />
<glyph unicode="&#x419;" horiz-adv-x="1439" d="M180 0v1417h242v-950l594 831v119h241v-1417h-241v961l-594 -832v-129h-242zM383 1847h152q6 -86 49 -123.5t135 -37.5t135 37.5t49 123.5h154q-2 -137 -49 -209q-84 -127 -289 -127q-207 0 -287 127q-47 68 -49 209z" />
<glyph unicode="&#x41a;" horiz-adv-x="1296" d="M180 0v1417h246v-614h63q106 0 156 61q31 37 100 209q88 219 160 285.5t223 66.5q49 0 105 -8l-19 -196q-35 8 -59 8q-86 0 -133 -76q-29 -45 -78 -178q-45 -121 -79 -165t-105 -83q102 -35 148 -81t132 -208l226 -438h-273l-174 338q-59 117 -80.5 151.5t-52.5 67.5 q-61 70 -178 70h-82v-627h-246z" />
<glyph unicode="&#x41b;" horiz-adv-x="1359" d="M0 0v201q80 8 118 19t63.5 51t30.5 98.5t5 179.5v868h961v-1417h-248v1217h-471v-709q0 -209 -28 -298t-107 -142q-97 -62 -324 -68z" />
<glyph unicode="&#x41c;" horiz-adv-x="1859" d="M180 0v1417h361l317 -899l76 -248q43 150 76 248l313 899h354v-1417h-241v1161q-35 -125 -97 -309l-295 -852h-235l-293 834q-47 135 -104 327v-1161h-232z" />
<glyph unicode="&#x41d;" horiz-adv-x="1452" d="M180 0v1417h248v-594h594v594h248v-1417h-248v623h-594v-623h-248z" />
<glyph unicode="&#x41e;" horiz-adv-x="1529" d="M106 717q0 164 54.5 309t152.5 244q164 170 451 170q326 0 500 -226q158 -205 157 -505q0 -354 -207 -562q-164 -170 -450 -170q-326 0 -500 226q-158 203 -158 514zM365 715q0 -250 106.5 -393.5t292.5 -143.5q184 0 291.5 143.5t107.5 387t-107.5 387t-291.5 143.5 q-182 0 -290.5 -142t-108.5 -382z" />
<glyph unicode="&#x41f;" horiz-adv-x="1415" d="M180 0v1417h1053v-1417h-248v1217h-557v-1217h-248z" />
<glyph unicode="&#x420;" horiz-adv-x="1138" d="M180 0v1417h342q162 0 253 -18.5t157 -65.5q160 -115 160 -342t-166 -342q-121 -84 -383 -84h-115v-565h-248zM424 760h80q168 0 235 35q98 49 99 190q0 135 -90 193q-70 45 -232 45h-92v-463z" />
<glyph unicode="&#x421;" horiz-adv-x="1218" d="M106 694q0 344 177.5 545t480.5 201q195 0 397 -94l-82 -195q-162 88 -305 88q-188 0 -298.5 -144.5t-110.5 -392t111.5 -386t309.5 -138.5q86 0 154 19.5t166 74.5l70 -200q-197 -94 -400 -95q-319 0 -494.5 187.5t-175.5 529.5z" />
<glyph unicode="&#x422;" horiz-adv-x="1128" d="M25 1217v200h1077v-200h-418v-1217h-248v1217h-411z" />
<glyph unicode="&#x423;" horiz-adv-x="1249" d="M31 1417h274l227 -534l58 -135l78 -201q57 166 129 340l217 530h243l-448 -1061q-94 -221 -184 -300t-252 -79q-80 0 -162 21l35 192q59 -14 110 -14q76 0 119 30t78 105z" />
<glyph unicode="&#x424;" horiz-adv-x="1765" d="M106 709q0 256 177.5 415.5t484.5 180.5v174h227v-174q307 -20 484.5 -180t177.5 -416t-177 -416t-485 -180v-174h-227v174q-307 20 -484.5 180t-177.5 416zM362 709q0 -170 108 -278.5t298 -131.5v819q-190 -23 -298 -131t-108 -278zM995 299q190 23 298 131.5 t108 278.5t-107.5 278.5t-298.5 130.5v-819z" />
<glyph unicode="&#x425;" horiz-adv-x="1402" d="M20 0l523 735l-471 682h288l349 -504l354 504h280l-491 -694l504 -723h-299l-367 537l-383 -537h-287z" />
<glyph unicode="&#x426;" horiz-adv-x="1400" d="M180 0v1417h248v-1216h526v1216h248v-1218h150v-543h-185l-30 344h-957z" />
<glyph unicode="&#x427;" horiz-adv-x="1353" d="M154 784v633h247v-604q0 -129 27 -176q45 -90 184 -90q166 0 314 176v694h248v-1417h-248v506q-174 -160 -396 -160q-236 0 -323 148q-53 83 -53 290z" />
<glyph unicode="&#x428;" horiz-adv-x="2060" d="M180 0v1417h248v-1216h477v1216h248v-1216h477v1216h248v-1417h-1698z" />
<glyph unicode="&#x429;" horiz-adv-x="2078" d="M180 0v1417h248v-1216h477v1216h248v-1216h477v1216h248v-1218h150v-543h-185l-31 344h-1632z" />
<glyph unicode="&#x42a;" horiz-adv-x="1290" d="M-27 1217v200h541v-520h168q250 0 365 -78q166 -117 165 -370q0 -256 -165 -371q-115 -78 -347 -78h-434v1217h-293zM514 188h135q156 0 223 50q84 61 84 210.5t-84 210.5q-68 49 -223 50h-135v-521z" />
<glyph unicode="&#x42b;" horiz-adv-x="1769" d="M180 0v1417h248v-520h180q139 0 217 -16.5t140 -61.5q162 -115 161.5 -370.5t-161.5 -370.5q-61 -45 -139 -61.5t-218 -16.5h-428zM428 188h127q170 0 236 50q80 63 79.5 210.5t-79.5 210.5q-66 49 -236 50h-127v-521zM1341 0v1417h248v-1417h-248z" />
<glyph unicode="&#x42c;" horiz-adv-x="1206" d="M180 0v1417h248v-520h180q139 0 217 -16.5t140 -61.5q162 -115 161.5 -370.5t-161.5 -370.5q-61 -45 -139 -61.5t-218 -16.5h-428zM428 188h127q170 0 236 50q80 63 79.5 210.5t-79.5 210.5q-66 49 -236 50h-127v-521z" />
<glyph unicode="&#x42d;" horiz-adv-x="1222" d="M74 78l82 188q162 -90 321 -90q178 0 268.5 108.5t104.5 338.5h-625v200h623q-18 219 -98 317.5t-240 98.5q-162 0 -330 -92l-80 188q203 104 424 105q289 0 439.5 -187.5t150.5 -545.5q0 -729 -608 -730q-233 1 -432 101z" />
<glyph unicode="&#x42e;" horiz-adv-x="2109" d="M180 0v1417h248v-594h328q20 182 102 328q164 289 518 289q311 0 475 -228q150 -203 150 -503q0 -352 -197 -562q-158 -170 -428 -170q-352 0 -516 287q-90 158 -106 359h-326v-623h-248zM1010 713q0 -250 98 -393.5t268 -143.5q168 0 267.5 143.5t99.5 387.5 q0 246 -98.5 389t-268.5 143q-168 0 -267 -142t-99 -384z" />
<glyph unicode="&#x42f;" horiz-adv-x="1282" d="M25 0l178 403q70 158 102.5 200t104.5 67q-135 35 -208 129t-73 235q0 203 152 309q113 74 344 74h475v-1417h-248v586h-107q-135 0 -189 -47t-136 -236l-129 -303h-266zM383 1006q0 -135 106 -191q74 -37 213 -37h154v447h-164q-156 0 -223 -41q-86 -53 -86 -178z" />
<glyph unicode="&#x430;" horiz-adv-x="1144" d="M88 293q0 203 166 293q100 53 309 53q29 0 170 -6v20q0 115 -59.5 176.5t-171.5 61.5q-129 0 -283 -88l-63 172q184 92 379 92q254 0 360 -137q45 -55 61.5 -130t16.5 -222v-312q0 -178 10 -266h-227l-8 119q-76 -78 -149 -110t-175 -32q-158 0 -247 84.5t-89 231.5z M336 299q0 -72 44 -115t118 -43q135 0 235 146v196q-47 4 -108 4q-289 0 -289 -188z" />
<glyph unicode="&#x431;" horiz-adv-x="1189" d="M104 641q0 573 195 731q88 72 244 96q49 8 239 23q135 10 211 22l15 -180q-47 -8 -205 -22q-154 -8 -234 -23.5t-136 -64.5t-76.5 -124t-34.5 -216q76 102 150.5 143t182.5 41q201 0 319 -147.5t118 -395.5q0 -256 -132.5 -401.5t-361.5 -145.5q-254 0 -381 168 q-113 148 -113 496zM352 584q0 -201 45 -293q61 -131 203 -131q113 0 178.5 99t65.5 267q0 164 -63.5 261.5t-170.5 97.5q-160 0 -258 -195v-106z" />
<glyph unicode="&#x432;" horiz-adv-x="1171" d="M176 0v1044h471q197 0 283 -55q113 -72 112 -223q0 -156 -165 -225q102 -37 146 -92.5t44 -147.5q0 -301 -397 -301h-494zM412 172h233q170 0 170 141q0 139 -176 140h-227v-281zM412 612h233q156 0 156 131q0 129 -168 129h-221v-260z" />
<glyph unicode="&#x433;" horiz-adv-x="919" d="M176 0v1044h692v-182h-452v-862h-240z" />
<glyph unicode="&#x434;" horiz-adv-x="1175" d="M-18 182h104q70 117 96 246q45 215 45 487v129h772v-862h123v-485h-186l-23 303h-723l-26 -303h-182v485zM336 180h424v682h-311v-47q0 -197 -39 -395q-21 -97 -74 -240z" />
<glyph unicode="&#x435;" horiz-adv-x="1171" d="M96 520q0 254 134.5 400.5t365.5 146.5q332 0 430 -256q49 -127 51 -365h-729q27 -289 301 -288q154 0 312 100l83 -176q-182 -104 -401 -105q-262 0 -404.5 141.5t-142.5 401.5zM348 614h483q-2 131 -64 204t-171 73t-175.5 -74t-72.5 -203z" />
<glyph unicode="&#x436;" horiz-adv-x="1601" d="M49 0l170 322q61 113 101 155.5t106 65.5q-57 39 -82 74.5t-61 125.5q-33 80 -54.5 103.5t-62.5 23.5q-14 0 -60 -6l-18 180q66 8 111 9q137 0 196 -82q33 -43 111 -232q35 -78 60.5 -100.5t84.5 -22.5h33v428h236v-428h38q63 0 86 27t84 174q61 145 114.5 190.5 t162.5 45.5q45 0 111 -9l-19 -180q-47 6 -59 6q-57 0 -88 -63q-8 -14 -52 -119q-39 -88 -120 -145q66 -23 105.5 -66t100.5 -155l170 -322h-254l-143 274q-57 113 -97 150t-99 37h-41v-461h-236v461h-35q-66 0 -104.5 -36t-98.5 -151l-143 -274h-254z" />
<glyph unicode="&#x437;" horiz-adv-x="1013" d="M47 53l59 189q172 -82 336 -82q229 0 230 151q0 80 -73 115t-239 35q-6 0 -129 -4v172l25 -2l29 -2h53q170 0 248 32.5t78 106.5q0 59 -51.5 92t-145.5 33q-139 0 -317 -82l-58 184q193 76 395 76q416 0 416 -285q0 -168 -168 -233q180 -59 180 -246q0 -326 -454 -326 q-211 0 -414 76z" />
<glyph unicode="&#x438;" horiz-adv-x="1245" d="M176 0v1044h238v-632l417 524v108h238v-1044h-238v639l-417 -524v-115h-238z" />
<glyph unicode="&#x439;" horiz-adv-x="1245" d="M176 0v1044h238v-632l417 524v108h238v-1044h-238v639l-417 -524v-115h-238zM287 1485h151q8 -82 51 -117t134 -35q92 0 135 35t49 117h154q-2 -135 -52 -207q-82 -123 -286.5 -123t-284.5 123q-49 68 -51 207z" />
<glyph unicode="&#x43a;" horiz-adv-x="1150" d="M176 0v1044h238v-428h80q63 0 87.5 28t86 173.5t115 190.5t165.5 45q49 0 113 -9l-19 -180q-47 6 -59 6q-41 0 -62.5 -23.5t-56.5 -103.5q-39 -96 -64.5 -130.5t-82.5 -69.5q63 -20 102 -61.5t103 -151.5l180 -330h-258l-146 268q-61 115 -102 151t-113 36h-69v-455h-238 z" />
<glyph unicode="&#x43b;" horiz-adv-x="1169" d="M20 0v184q119 8 149 59.5t30 245.5v555h794v-1044h-239v862h-324v-385q0 -203 -24.5 -287t-98.5 -133q-86 -55 -287 -57z" />
<glyph unicode="&#x43c;" horiz-adv-x="1583" d="M176 0v1044h326l248 -667q20 -51 47 -146q23 86 45 144l245 669h320v-1044h-231v799q-14 -66 -74 -236l-207 -563h-209l-213 565q-55 154 -74 234v-799h-223z" />
<glyph unicode="&#x43d;" horiz-adv-x="1255" d="M176 0v1044h240v-419h424v419h239v-1044h-239v442h-424v-442h-240z" />
<glyph unicode="&#x43e;" horiz-adv-x="1216" d="M96 528q0 250 138.5 394.5t373.5 144.5q238 0 375 -145.5t137 -399.5t-137 -399.5t-375 -145.5q-240 0 -376 146.5t-136 404.5zM344 526q0 -172 69.5 -269t194.5 -97q123 0 193.5 97t70.5 265t-70.5 265.5t-193.5 97.5t-193.5 -96.5t-70.5 -262.5z" />
<glyph unicode="&#x43f;" horiz-adv-x="1239" d="M176 0v1044h887v-1044h-240v862h-407v-862h-240z" />
<glyph unicode="&#x440;" horiz-adv-x="1232" d="M162 1044h231l8 -143q70 88 143.5 127t172.5 39q190 0 305 -148.5t115 -394.5q0 -264 -131 -418q-106 -129 -291 -129q-98 0 -169 37t-134 119v-573h-240v1067q0 257 -10 417zM412 340q111 -178 247 -178q104 0 167 99t63 265q0 164 -63.5 260.5t-172.5 96.5 q-135 0 -241 -172v-371z" />
<glyph unicode="&#x441;" horiz-adv-x="997" d="M96 518q0 258 131 403.5t365 145.5q178 0 338 -80l-72 -178q-123 76 -242 76q-131 0 -201.5 -94.5t-70.5 -268.5q0 -170 77 -265t216 -95q123 0 237 80l78 -174q-141 -90 -338 -91q-244 0 -381 143.5t-137 397.5z" />
<glyph unicode="&#x442;" horiz-adv-x="915" d="M16 862v182h883v-182h-324v-862h-239v862h-320z" />
<glyph unicode="&#x443;" horiz-adv-x="1110" d="M18 -428l41 186q76 -31 129 -30q82 0 138.5 64.5t113.5 223.5l-420 1028h254l209 -528q53 -137 88 -240q43 133 88 250l197 518h234l-422 -1067q-106 -266 -193.5 -354t-247.5 -88q-92 0 -209 37z" />
<glyph unicode="&#x444;" horiz-adv-x="1730" d="M96 520q0 248 106.5 397.5t282.5 149.5q166 0 269 -147v577h221v-577q113 147 272 147q174 0 279.5 -148.5t105.5 -394.5q0 -250 -104.5 -398.5t-280.5 -148.5q-88 0 -151.5 36t-120.5 120v-573h-221v573q-59 -84 -122 -120t-153 -36q-176 0 -279.5 146.5t-103.5 396.5z M340 526q0 -168 54.5 -266t144.5 -98q63 0 112 41t103 137v371q-92 172 -209 172q-94 0 -149.5 -96.5t-55.5 -260.5zM975 340q55 -98 104 -138t113 -40q88 0 142.5 100t54.5 264t-55.5 260.5t-149.5 96.5q-119 0 -209 -172v-371z" />
<glyph unicode="&#x445;" horiz-adv-x="1136" d="M35 0l403 528l-381 516h277l241 -348l256 348h265l-389 -505l397 -539h-275l-258 367l-272 -367h-264z" />
<glyph unicode="&#x446;" horiz-adv-x="1228" d="M176 0v1044h240v-862h397v862h240v-862h123v-485h-187l-22 303h-791z" />
<glyph unicode="&#x447;" horiz-adv-x="1222" d="M145 651v393h240v-378q0 -106 18 -146q35 -74 138 -74q135 0 266 156v442h240v-1044h-240v406q-90 -82 -164 -113t-176 -31q-201 0 -277 131q-45 76 -45 258z" />
<glyph unicode="&#x448;" horiz-adv-x="1798" d="M176 0v1044h240v-862h364v862h240v-862h364v862h240v-1044h-1448z" />
<glyph unicode="&#x449;" horiz-adv-x="1798" d="M176 0v1044h240v-862h364v862h240v-862h364v862h240v-862h121v-485h-184l-23 303h-1362z" />
<glyph unicode="&#x44a;" horiz-adv-x="1181" d="M-10 862v182h524v-337h158q207 0 299 -60q133 -88 133 -295q0 -205 -133 -293q-92 -59 -299 -59h-393v862h-289zM514 172h115q125 0 174 37q57 45 57 145.5t-57 145.5q-49 37 -174 37h-115v-365z" />
<glyph unicode="&#x44b;" horiz-adv-x="1605" d="M176 0v1044h240v-337h157q207 0 299 -60q133 -88 134 -295q0 -205 -134 -293q-92 -59 -299 -59h-397zM416 172h114q125 0 175 37q57 45 57 145.5t-57 145.5q-49 37 -175 37h-114v-365zM1190 0v1044h240v-1044h-240z" />
<glyph unicode="&#x44c;" horiz-adv-x="1083" d="M176 0v1044h240v-337h157q207 0 299 -60q133 -88 134 -295q0 -205 -134 -293q-92 -59 -299 -59h-397zM416 172h114q125 0 175 37q57 45 57 145.5t-57 145.5q-49 37 -175 37h-114v-365z" />
<glyph unicode="&#x44d;" horiz-adv-x="1048" d="M59 61l80 175q129 -74 258 -74q262 0 301 287h-487v172h485q-18 137 -82.5 200.5t-183.5 63.5q-133 0 -272 -78l-74 172q178 88 369 88q240 0 369.5 -144.5t129.5 -408.5q0 -258 -137 -397.5t-393 -139.5q-211 0 -363 84z" />
<glyph unicode="&#x44e;" horiz-adv-x="1755" d="M176 0v1044h240v-419h270q27 211 154 326.5t329 115.5q227 0 358.5 -145.5t131.5 -399.5t-131 -399.5t-359 -145.5q-207 0 -334.5 122t-150.5 343h-268v-442h-240zM928 526q0 -172 64.5 -269t177 -97t177 97t64.5 265t-64.5 265.5t-177 97.5t-177 -96.5t-64.5 -262.5z " />
<glyph unicode="&#x44f;" horiz-adv-x="1177" d="M25 0l172 301q53 90 74.5 116.5t54.5 45.5q-106 41 -155.5 106.5t-49.5 169.5q0 170 127 248q92 57 291 57h462v-1044h-239v389h-139q-86 0 -127 -32.5t-101 -149.5l-106 -207h-264zM365 719q0 -84 54 -120t181 -36h166v305h-176q-123 0 -174 -33.5t-51 -115.5z" />
<glyph unicode="&#x451;" horiz-adv-x="1171" d="M96 520q0 254 134.5 400.5t365.5 146.5q332 0 430 -256q49 -127 51 -365h-729q27 -289 301 -288q154 0 312 100l83 -176q-182 -104 -401 -105q-262 0 -404.5 141.5t-142.5 401.5zM260 1362q0 59 40 98t99 39q63 0 102.5 -39t39.5 -100.5t-39 -101t-101 -39.5 q-63 0 -102 40t-39 103zM348 614h483q-2 131 -64 204t-171 73t-175.5 -74t-72.5 -203zM684 1362q0 59 40 98t99 39q63 0 102.5 -39t39.5 -100.5t-39 -101t-101 -39.5q-63 0 -102 40t-39 103z" />
<glyph unicode="&#x452;" horiz-adv-x="1267" d="M8 1182v153h168v162h240v-162h293v-153h-293v-277q160 162 356 162q203 0 285 -147q45 -84 45 -291v-305q0 -276 -21.5 -409.5t-79.5 -207.5q-109 -135 -419 -147v182q184 6 237 111q43 86 43 387v376q0 127 -20 177q-35 90 -150 90q-143 0 -276 -176v-707h-240v1182 h-168z" />
<glyph unicode="&#x453;" horiz-adv-x="919" d="M176 0v1044h692v-182h-452v-862h-240zM356 1198l248 299h291l-315 -299h-224z" />
<glyph unicode="&#x454;" horiz-adv-x="1048" d="M96 512q0 266 130 410.5t370 144.5q186 0 369 -88l-74 -172q-135 78 -262 78q-236 0 -277 -264h486v-172h-488q23 -150 94.5 -218.5t206.5 -68.5q131 0 260 74l78 -175q-152 -84 -362 -84q-258 0 -394.5 137.5t-136.5 397.5z" />
<glyph unicode="&#x455;" horiz-adv-x="944" d="M96 59l64 183q152 -84 276 -84q82 0 127 34.5t45 98.5q0 59 -41 88q-29 23 -168 72q-158 57 -217 108q-80 74 -80 193q0 145 103.5 230t281.5 85q168 0 340 -76l-61 -182q-137 80 -268 80q-74 0 -117 -32t-43 -87q0 -57 57 -90q33 -18 164 -68q162 -59 224.5 -124.5 t62.5 -174.5q0 -154 -110.5 -245t-297.5 -91q-180 0 -342 82z" />
<glyph unicode="&#x456;" horiz-adv-x="583" d="M143 1382q0 63 42 105.5t108 42.5q63 0 105 -42t42 -106q0 -66 -41 -107.5t-106.5 -41.5t-107.5 41.5t-42 107.5zM172 0v1044h240v-1044h-240z" />
<glyph unicode="&#x457;" horiz-adv-x="583" d="M-59 1362q0 59 39.5 98t99.5 39q63 0 102 -39t39 -100.5t-39 -101t-100 -39.5q-63 0 -102 40t-39 103zM174 0v1044h240v-1044h-240zM365 1362q0 59 39.5 98t99.5 39q63 0 102 -39t39 -100.5t-39 -101t-100 -39.5q-63 0 -102 40t-39 103z" />
<glyph unicode="&#x458;" horiz-adv-x="604" d="M-74 -440l21 186q68 -18 102 -18q76 0 108.5 53t32.5 178v1085h240v-1050q0 -252 -59 -336q-84 -121 -273 -121q-74 0 -172 23zM162 1384q0 63 43 105.5t106 42.5q66 0 108 -42t42 -107.5t-42 -107.5t-107.5 -42t-107.5 41.5t-42 109.5z" />
<glyph unicode="&#x459;" horiz-adv-x="1658" d="M20 0v182q119 8 149 60.5t30 246.5v555h790v-337h158q207 0 299 -60q133 -88 133 -295q0 -205 -133 -293q-92 -59 -299 -59h-393v862h-324v-383q0 -205 -24.5 -290t-98.5 -132q-86 -55 -287 -57zM989 172h115q125 0 174 37q57 45 57 145.5t-57 145.5q-49 37 -174 37h-115 v-365z" />
<glyph unicode="&#x45a;" horiz-adv-x="1734" d="M176 0v1044h240v-376h407v376h240v-344h158q209 0 301 -59q135 -86 135 -291q0 -207 -135 -291q-92 -59 -301 -59h-398v485h-407v-485h-240zM1063 172h115q127 0 178 37q57 41 57 141q0 96 -57 142q-49 39 -178 38h-115v-358z" />
<glyph unicode="&#x45b;" horiz-adv-x="1267" d="M8 1182v153h168v162h240v-162h293v-153h-293v-277q84 86 167 124t189 38q203 0 285 -147q45 -84 45 -291v-629h-240v616q0 127 -20 177q-35 90 -150 90q-143 0 -276 -176v-707h-240v1182h-168z" />
<glyph unicode="&#x45c;" horiz-adv-x="1150" d="M176 0v1044h238v-428h80q63 0 87.5 28t86 173.5t115 190.5t165.5 45q49 0 113 -9l-19 -180q-47 6 -59 6q-41 0 -62.5 -23.5t-56.5 -103.5q-39 -96 -64.5 -130.5t-82.5 -69.5q63 -20 102 -61.5t103 -151.5l180 -330h-258l-146 268q-61 115 -102 151t-113 36h-69v-455h-238 zM449 1198l247 299h291l-315 -299h-223z" />
<glyph unicode="&#x45e;" horiz-adv-x="1110" d="M18 -428l41 186q76 -31 129 -30q82 0 138.5 64.5t113.5 223.5l-420 1028h254l209 -528q53 -137 88 -240q43 133 88 250l197 518h234l-422 -1067q-106 -266 -193.5 -354t-247.5 -88q-92 0 -209 37zM227 1485h154q6 -82 49 -117t135 -35q90 0 133 35t52 117h151 q-2 -135 -51 -207q-80 -123 -285 -123t-286 123q-50 72 -52 207z" />
<glyph unicode="&#x45f;" horiz-adv-x="1228" d="M176 0v1044h240v-862h397v862h240v-1044h-324l-22 -303h-185l-22 303h-324z" />
<glyph unicode="&#x490;" horiz-adv-x="1046" d="M180 0v1417h621l30 240h173v-440h-576v-1217h-248z" />
<glyph unicode="&#x491;" horiz-adv-x="913" d="M176 0v1044h494l22 213h176v-395h-452v-862h-240z" />
<glyph unicode="&#x4c0;" horiz-adv-x="610" d="M180 0v1417h248v-1417h-248z" />
<glyph unicode="&#x1e84;" horiz-adv-x="1892" d="M61 1417h250l170 -774q35 -156 66 -324q29 135 76 314l200 784h262l193 -758q53 -207 78 -325q27 147 67 323l174 760h236l-340 -1417h-264l-197 760q-39 150 -84 350q-49 -211 -86 -346l-203 -764h-266zM590 1704q0 63 41 103t104.5 40t104.5 -41t41 -104.5t-41 -104.5 t-104.5 -41t-104.5 41t-41 107zM1014 1704q0 63 41 103t104.5 40t104.5 -41t41 -104.5t-41 -104.5t-104.5 -41t-104.5 41t-41 107z" />
<glyph unicode="&#x2007;" horiz-adv-x="589" />
<glyph unicode="&#x2011;" horiz-adv-x="636" d="M82 483v189h473v-189h-473z" />
<glyph unicode="&#x2012;" horiz-adv-x="1179" d="M94 483v189h993v-189h-993z" />
<glyph unicode="&#x2013;" horiz-adv-x="1179" d="M94 483v189h993v-189h-993z" />
<glyph unicode="&#x2014;" horiz-adv-x="2048" d="M-74 483v189h2198v-189h-2198z" />
<glyph unicode="&#x2015;" horiz-adv-x="2048" d="M-74 483v189h2198v-189h-2198z" />
<glyph unicode="&#x2017;" d="M-70 -133h1166v-115h-1166v115zM-70 -340h1166v-115h-1166v115z" />
<glyph unicode="&#x2018;" horiz-adv-x="460" d="M4 971l207 526h223l-162 -526h-268z" />
<glyph unicode="&#x2019;" horiz-adv-x="460" d="M27 971l161 526h269l-207 -526h-223z" />
<glyph unicode="&#x201a;" horiz-adv-x="460" d="M10 -244l162 527h268l-207 -527h-223z" />
<glyph unicode="&#x201c;" horiz-adv-x="866" d="M10 971l207 526h223l-161 -526h-269zM418 971l207 526h223l-162 -526h-268z" />
<glyph unicode="&#x201d;" horiz-adv-x="866" d="M20 971l162 526h269l-207 -526h-224zM428 971l162 526h268l-207 -526h-223z" />
<glyph unicode="&#x201e;" horiz-adv-x="866" d="M0 -244l162 527h268l-207 -527h-223zM408 -244l161 527h269l-207 -527h-223z" />
<glyph unicode="&#x2020;" horiz-adv-x="1179" d="M92 844v200h377v373h238v-373h380v-200h-380v-1082h-238v1082h-377z" />
<glyph unicode="&#x2021;" horiz-adv-x="1179" d="M92 264v201h377v379h-377v200h377v373h238v-373h380v-200h-380v-379h380v-201h-380v-502h-238v502h-377z" />
<glyph unicode="&#x2022;" d="M178 719q0 137 99.5 235.5t238.5 98.5q143 0 240.5 -97.5t97.5 -240.5q0 -141 -97.5 -239.5t-238.5 -98.5q-145 0 -242.5 98.5t-97.5 243.5z" />
<glyph unicode="&#x2026;" horiz-adv-x="1769" d="M137 137q0 68 46 113t114 45t113 -45t45 -113q0 -70 -45 -115t-113 -45q-70 0 -115 45t-45 115zM727 137q0 68 46 113t113.5 45t112.5 -45t45 -113q0 -70 -45 -115t-112 -45q-70 0 -115 45t-45 115zM1317 137q0 68 46 113t113.5 45t112.5 -45t45 -113q0 -70 -45 -115 t-112 -45q-70 0 -115 45t-45 115z" />
<glyph unicode="&#x2030;" horiz-adv-x="2226" d="M57 1032q0 397 305.5 397.5t305.5 -401t-305.5 -402t-305.5 405.5zM238 1030q0 -266 124.5 -266t124.5 264t-124.5 264t-124.5 -262zM412 -37l561 1491h162l-562 -1491h-161zM877 393q0 397 305 397.5t305 -401t-305 -402t-305 405.5zM1057 391q0 -266 125 -266t125 264 t-125 264t-125 -262zM1559 393q0 397 305 397.5t305 -401t-305 -402t-305 405.5zM1739 391q0 -266 125 -266t125 264t-125 264t-125 -262z" />
<glyph unicode="&#x2039;" horiz-adv-x="671" d="M63 522l365 463l158 -119l-256 -344l256 -346l-158 -119z" />
<glyph unicode="&#x203a;" horiz-adv-x="671" d="M84 176l256 344l-256 346l158 119l364 -465l-364 -463z" />
<glyph unicode="&#x203e;" d="M-70 1626v182h1166v-182h-1166z" />
<glyph unicode="&#x2044;" horiz-adv-x="163" d="M-281 -37l562 1491h161l-561 -1491h-162z" />
<glyph unicode="&#x2070;" horiz-adv-x="794" d="M76 1032q0 195 82 296.5t239 101.5q322 0 322 -401.5t-321.5 -402t-321.5 405.5zM256 1030q0 -266 141.5 -266t141.5 264t-141.5 264t-141.5 -262z" />
<glyph unicode="&#x2074;" horiz-adv-x="794" d="M57 817v135l334 465h219v-475h115v-125h-115v-178h-168v178h-385zM207 942h244v344z" />
<glyph unicode="&#x2075;" horiz-adv-x="794" d="M88 682l53 135q119 -53 209 -53q76 0 123 37t47 96q0 119 -180 119q-86 0 -211 -31l18 432h519v-137h-355l-4 -152q51 12 107 13q135 0 210.5 -64.5t75.5 -179.5q0 -129 -87 -199.5t-246 -70.5q-154 0 -279 55z" />
<glyph unicode="&#x2076;" horiz-adv-x="794" d="M88 963q0 260 150 383q98 84 278 84q51 0 143 -13l-14 -131q-74 12 -110 12q-197 0 -250 -204q74 57 170 57q121 0 192.5 -66.5t71.5 -181.5q0 -127 -84 -201.5t-227 -74.5q-156 0 -238 86t-82 250zM270 895q0 -63 36 -99t97.5 -36t99.5 37t38 96t-36 94t-99 35 q-61 0 -98.5 -35t-37.5 -92z" />
<glyph unicode="&#x2077;" horiz-adv-x="794" d="M90 1280v137h604v-129l-362 -649h-207l371 641h-406z" />
<glyph unicode="&#x2078;" horiz-adv-x="794" d="M80 856q0 72 39 115t127 67q-82 37 -115 77t-33 106q0 100 79 154.5t220.5 54.5t220 -55.5t78.5 -151.5q0 -63 -31.5 -102.5t-117.5 -78.5q90 -31 130 -74.5t40 -113.5q0 -104 -86 -165.5t-232 -61.5q-147 0 -233 61.5t-86 167.5zM254 860q0 -47 40 -76.5t105 -29.5 q61 0 102.5 28.5t41.5 73.5q0 88 -156 123q-61 -14 -97 -46t-36 -73zM272 1214q0 -70 134 -120l10 4q47 18 76.5 51t29.5 65q0 41 -32.5 65t-92 24t-92.5 -24t-33 -65z" />
<glyph unicode="&#x2079;" horiz-adv-x="794" d="M76 1153q0 127 84 202t227 75q156 0 238 -86.5t82 -249.5q0 -258 -148 -383q-102 -84 -280 -84q-53 0 -142 12l13 131q74 -12 110 -12q197 0 250 205q-72 -57 -170 -58q-119 0 -191.5 67.5t-72.5 180.5zM254 1163q0 -59 36 -94t97 -35q63 0 100 35t37 92q0 63 -35.5 99 t-99.5 36q-61 0 -98 -36t-37 -97z" />
<glyph unicode="&#x2080;" horiz-adv-x="794" d="M76 393q0 195 82 296.5t239 101.5q322 0 322 -401.5t-321.5 -402t-321.5 405.5zM256 391q0 -266 141.5 -266t141.5 264t-141.5 264t-141.5 -262z" />
<glyph unicode="&#x2081;" horiz-adv-x="794" d="M121 635l250 143h149v-778h-170v610l-166 -96z" />
<glyph unicode="&#x2082;" horiz-adv-x="794" d="M106 0v135q117 86 248 203q139 131 140 217q0 45 -36 71.5t-96 26.5q-86 0 -217 -65l-36 139q139 63 274 64q137 0 213 -58.5t76 -163.5q0 -70 -32 -129t-108 -135q-109 -104 -192 -170h338v-135h-572z" />
<glyph unicode="&#x2083;" horiz-adv-x="794" d="M98 31l31 137q123 -43 219 -43q72 0 112 28.5t40 79.5q0 111 -191 111q-6 0 -76 -4v123q37 -4 72 -4q186 0 187 106q0 41 -38 65.5t-104 24.5q-82 0 -194 -37l-27 134q135 39 254 39q139 0 215 -53.5t76 -151.5q0 -137 -150 -178q162 -41 162 -187q0 -113 -83 -173 t-236 -60q-140 0 -269 43z" />
<glyph unicode="&#x2084;" horiz-adv-x="794" d="M57 178v135l334 465h219v-475h115v-125h-115v-178h-168v178h-385zM207 303h244v344z" />
<glyph unicode="&#x2085;" horiz-adv-x="794" d="M88 43l53 135q115 -53 209 -53q76 0 123 37t47 96q0 119 -180 119q-82 0 -211 -31l18 432h519v-137h-355l-4 -152q51 12 107 13q135 0 210.5 -64.5t75.5 -179.5q0 -129 -87 -199.5t-246 -70.5q-154 0 -279 55z" />
<glyph unicode="&#x2086;" horiz-adv-x="794" d="M88 324q0 260 150 383q98 84 278 84q51 0 143 -13l-14 -131q-74 12 -110 12q-197 0 -250 -204q74 57 170 57q121 0 192.5 -66.5t71.5 -181.5q0 -127 -84 -201.5t-227 -74.5q-156 0 -238 86t-82 250zM270 256q0 -63 36 -99t97.5 -36t99.5 37t38 96t-36 94t-99 35 q-61 0 -98.5 -35t-37.5 -92z" />
<glyph unicode="&#x2087;" horiz-adv-x="794" d="M90 641v137h604v-129l-362 -649h-207l371 641h-406z" />
<glyph unicode="&#x2088;" horiz-adv-x="794" d="M80 217q0 72 39 115t127 67q-82 37 -115 77t-33 106q0 100 79 154.5t220.5 54.5t220 -55.5t78.5 -151.5q0 -63 -31.5 -102.5t-117.5 -78.5q90 -31 130 -74.5t40 -113.5q0 -104 -86 -165.5t-232 -61.5q-147 0 -233 61.5t-86 167.5zM254 221q0 -47 40 -76.5t105 -29.5 q61 0 102.5 28.5t41.5 73.5q0 88 -156 123q-61 -14 -97 -46t-36 -73zM272 575q0 -70 134 -120l10 4q47 18 76.5 51t29.5 65q0 41 -32.5 65t-92 24t-92.5 -24t-33 -65z" />
<glyph unicode="&#x2089;" horiz-adv-x="794" d="M76 514q0 127 84 202t227 75q156 0 238 -86.5t82 -249.5q0 -258 -148 -383q-102 -84 -280 -84q-53 0 -142 12l13 131q74 -12 110 -12q197 0 250 205q-72 -57 -170 -58q-119 0 -191.5 67.5t-72.5 180.5zM254 524q0 -59 36 -94t97 -35q63 0 100 35t37 92q0 63 -35.5 99 t-99.5 36q-61 0 -98 -36t-37 -97z" />
<glyph unicode="&#x20ac;" horiz-adv-x="1179" d="M8 502l43 133h148q-2 23 -2 57q0 41 2 72h-191l43 131h164q51 262 203.5 403.5t384.5 141.5q197 0 364 -90l-65 -197q-154 92 -285 92q-281 0 -356 -350h555l-43 -131h-524q-2 -25 -3 -59q0 -43 5 -70h481l-43 -131h-420q72 -332 356 -332q139 0 295 84l54 -199 q-180 -80 -371 -80q-248 0 -398.5 134.5t-191.5 390.5h-205z" />
<glyph unicode="&#x2116;" horiz-adv-x="2361" d="M180 0v1417h277l454 -753q78 -131 140 -258q6 -8 26 -52q-4 88 -4 244v819h238v-1417h-275l-444 731q-84 141 -178 334q4 -117 4 -309v-756h-238zM1511 725q0 170 101.5 266t277.5 96q178 0 278.5 -97t100.5 -269t-100.5 -269.5t-278.5 -97.5t-278.5 98.5t-100.5 272.5z M1544 90v143h694v-143h-694zM1731 723q0 -225 159.5 -225t159.5 223t-159.5 223t-159.5 -221z" />
<glyph unicode="&#x2122;" horiz-adv-x="1740" d="M2 1280v137h639v-137h-231v-639h-177v639h-231zM725 641v776h231l215 -583l211 583h230v-776h-168v369q0 111 8 235q-49 -174 -78 -252l-133 -352h-143l-129 336q-47 125 -86 268q8 -119 8 -235v-369h-166z" />
<glyph unicode="&#x2126;" horiz-adv-x="1468" d="M70 0v188h307q-162 129 -232.5 265.5t-70.5 324.5q0 299 181 480.5t478 181.5q299 0 479.5 -181.5t180.5 -480.5q0 -188 -71 -324.5t-232 -265.5h307v-188h-576v182q317 221 318 572q0 215 -113 350t-293 135t-292.5 -135t-112.5 -350q0 -354 317 -572v-182h-575z" />
<glyph unicode="&#x2153;" horiz-adv-x="1759" d="M98 1274l250 143h150v-778h-170v610l-166 -96zM434 -37l561 1491h162l-561 -1491h-162zM1001 31l29 137q127 -43 221 -43q72 0 112 28.5t40 79.5q0 111 -193 111q-8 0 -73 -4v123q37 -4 71 -4q186 0 187 106q0 41 -38 65.5t-104 24.5q-82 0 -194 -37l-29 134 q137 39 256 39q139 0 215 -53.5t76 -151.5q0 -133 -152 -178q164 -41 164 -187q0 -113 -83 -173t-236 -60q-132 0 -269 43z" />
<glyph unicode="&#x2154;" horiz-adv-x="1759" d="M106 639v135q117 86 248 203q139 131 140 217q0 45 -36 71.5t-96 26.5q-82 0 -217 -63l-36 137q139 63 274 64q137 0 213 -58.5t76 -163.5q0 -70 -32 -129t-108 -135q-109 -104 -192 -170h338v-135h-572zM512 -37l561 1491h164l-561 -1491h-164zM1051 31l30 137 q123 -43 219 -43q72 0 112 28.5t40 79.5q0 111 -190 111q-6 0 -76 -4v123q37 -4 71 -4q186 0 187 106q0 41 -38 65.5t-103 24.5q-82 0 -195 -37l-27 134q135 39 254 39q139 0 215 -53.5t76 -151.5q0 -137 -149 -178q162 -41 161 -187q0 -113 -82.5 -173t-236.5 -60 q-131 0 -268 43z" />
<glyph unicode="&#x215b;" horiz-adv-x="1759" d="M96 1274l250 143h150v-778h-170v610l-166 -96zM426 -37l561 1491h162l-561 -1491h-162zM983 217q0 72 39 115t127 67q-82 37 -115 77t-33 106q0 100 79 154.5t220.5 54.5t220 -55.5t78.5 -151.5q0 -63 -31.5 -102.5t-117.5 -78.5q90 -31 130 -74.5t40 -113.5 q0 -104 -86 -165.5t-231 -61.5q-147 0 -233.5 61.5t-86.5 167.5zM1157 221q0 -47 40 -76.5t106 -29.5q61 0 102 28.5t41 73.5q0 84 -156 123q-61 -14 -97 -46t-36 -73zM1176 575q0 -70 133 -120l10 4q47 18 76.5 51t29.5 65q0 41 -32.5 65t-92 24t-92 -24t-32.5 -65z" />
<glyph unicode="&#x215c;" horiz-adv-x="1759" d="M86 670l31 137q123 -43 219 -43q72 0 111.5 28.5t39.5 79.5q0 111 -190 111q-6 0 -76 -4v123q37 -4 72 -4q186 0 186 106q0 41 -38 65.5t-103 24.5q-82 0 -195 -37l-26 134q135 39 254 39q139 0 215 -53.5t76 -151.5q0 -137 -150 -178q162 -41 162 -187q0 -113 -83 -173 t-237 -60q-139 0 -268 43zM506 -37l561 1491h162l-561 -1491h-162zM1030 217q0 72 39 115t127 67q-82 37 -113.5 77t-31.5 106q0 100 77.5 154.5t221.5 54.5q139 0 218 -55.5t79 -151.5q0 -63 -32 -102.5t-118 -78.5q90 -31 130 -74.5t40 -113.5q0 -104 -86 -165.5 t-231 -61.5q-147 0 -233.5 61.5t-86.5 167.5zM1204 221q0 -47 41 -76.5t105 -29.5q61 0 102 28.5t41 73.5q0 84 -156 123q-61 -14 -97 -46t-36 -73zM1225 575q0 -70 131 -120l10 4q47 18 77 51t30 65q0 41 -33 65t-92 24q-123 -1 -123 -89z" />
<glyph unicode="&#x215d;" horiz-adv-x="1759" d="M80 682l53 135q119 -53 209 -53q76 0 123 37t47 96q0 119 -180 119q-86 0 -211 -31l18 432h518v-137h-354l-4 -152q51 12 107 13q135 0 210.5 -64.5t75.5 -179.5q0 -129 -87 -199.5t-247 -70.5q-153 0 -278 55zM510 -37l561 1491h162l-561 -1491h-162zM1034 217 q0 72 39 115t127 67q-82 37 -113.5 77t-31.5 106q0 100 77.5 154.5t221.5 54.5q139 0 218 -55.5t79 -151.5q0 -63 -32 -102.5t-118 -78.5q90 -31 130 -74.5t40 -113.5q0 -104 -86 -165.5t-233 -61.5q-145 0 -231.5 61.5t-86.5 167.5zM1208 221q0 -47 41 -76.5t105 -29.5 q61 0 102 28.5t41 73.5q0 84 -156 123q-61 -14 -97 -46t-36 -73zM1229 575q0 -70 131 -120l10 4q47 18 77 51t30 65q0 41 -33 65t-92 24q-123 -1 -123 -89z" />
<glyph unicode="&#x215e;" horiz-adv-x="1759" d="M117 1280v137h604v-129l-363 -649h-206l370 641h-405zM436 -37l561 1491h164l-561 -1491h-164zM997 217q0 72 39 115t127 67q-82 37 -114.5 77t-32.5 106q0 100 79 154.5t220 54.5t220 -55.5t79 -151.5q0 -63 -32 -102.5t-120 -78.5q92 -31 132 -74.5t40 -113.5 q0 -104 -86 -165.5t-233 -61.5q-145 0 -231.5 61.5t-86.5 167.5zM1171 221q0 -47 41 -76.5t105 -29.5q61 0 102 28.5t41 73.5q0 84 -155 123q-61 -14 -97.5 -46t-36.5 -73zM1190 575q0 -70 131 -120l10 4q49 18 79 50t30 66q0 41 -33 65t-92 24q-125 -1 -125 -89z" />
<glyph unicode="&#x2202;" horiz-adv-x="1179" d="M125 481q0 227 110.5 359.5t299.5 132.5q96 0 167 -35q-154 295 -487 391l55 189q238 -47 428 -211q168 -143 263.5 -356.5t95.5 -444.5q0 -254 -123 -391.5t-352 -137.5q-213 0 -335 134t-122 370zM373 481q0 -147 57 -234t158 -87q98 0 158.5 89t60.5 232.5 t-60.5 226.5t-162.5 83q-98 0 -154.5 -83.5t-56.5 -226.5z" />
<glyph unicode="&#x2206;" horiz-adv-x="1179" d="M14 0v158l447 1259h262l444 -1259v-158h-1153zM276 195h629l-315 917z" />
<glyph unicode="&#x220f;" horiz-adv-x="1351" d="M129 -317v1937h1094v-1937h-250v1736h-594v-1736h-250z" />
<glyph unicode="&#x2211;" horiz-adv-x="1179" d="M121 -111l409 785l-409 741v205h1024v-201h-746l406 -745l-412 -791h766v-200h-1038v206z" />
<glyph unicode="&#x2212;" horiz-adv-x="1179" d="M94 428v188h993v-188h-993z" />
<glyph unicode="&#x221a;" horiz-adv-x="1179" d="M88 604v180h334l151 -481l416 1505h578v-182h-412l-457 -1626h-235l-201 604h-174z" />
<glyph unicode="&#x221e;" horiz-adv-x="1626" d="M94 530q0 158 92.5 249t253.5 91q113 0 200 -47t173 -155q86 109 174 155.5t201 46.5q162 0 254 -91t92 -249q0 -160 -92 -251t-254 -91q-113 0 -202 49.5t-173 155.5q-158 -205 -373 -205q-162 0 -254 91t-92 251zM285 530q0 -76 45 -120.5t121 -44.5q63 0 116.5 31.5 t128.5 113.5l19 20l-17 19q-131 145 -249 145q-74 0 -119 -45t-45 -119zM913 530l19 -20q133 -145 246 -145q76 0 120.5 45t44.5 120q0 74 -45 119t-120 45q-63 0 -118.5 -32.5t-129.5 -112.5z" />
<glyph unicode="&#x222b;" horiz-adv-x="737" d="M8 -301l39 195q57 -25 103 -25q70 0 92 61q10 37 10 144v1159q0 152 9 208t44 101q76 100 244 100q88 0 180 -32l-35 -201q-63 25 -104 25q-66 0 -88 -60q-10 -29 -10 -123v-1157q0 -150 -9.5 -212t-36.5 -107q-74 -115 -245 -115q-101 0 -193 39z" />
<glyph unicode="&#x2248;" horiz-adv-x="1179" d="M74 264q86 145 152.5 201.5t152.5 56.5q51 0 101 -19.5t155 -78.5q123 -70 166 -70t81 34t93 122l133 -92q-84 -150 -146.5 -204t-150.5 -54q-94 0 -250 90q-90 53 -119.5 65.5t-60.5 12.5q-41 0 -74 -30t-96 -126zM74 625q86 145 152.5 201.5t152.5 56.5q53 0 103 -19.5 t153 -79.5q121 -68 166 -67q43 0 82 33.5t92 119.5l133 -90q-84 -147 -146.5 -202.5t-150.5 -55.5q-92 0 -250 88q-92 51 -120.5 64.5t-59.5 13.5q-41 0 -74 -28.5t-98 -127.5z" />
<glyph unicode="&#x2260;" horiz-adv-x="1179" d="M94 246v188h346l88 174h-434v189h531l145 293l164 -95l-98 -198h251v-189h-346l-88 -174h434v-188h-530l-145 -291l-164 94l96 197h-250z" />
<glyph unicode="&#x2261;" horiz-adv-x="1179" d="M94 70v188h993v-188h-993zM94 428v188h993v-188h-993zM94 784v189h993v-189h-993z" />
<glyph unicode="&#x2264;" horiz-adv-x="1179" d="M94 0v186h993v-186h-993zM94 600v166l993 324v-199l-692 -207l692 -207v-201z" />
<glyph unicode="&#x2265;" horiz-adv-x="1179" d="M94 0v186h993v-186h-993zM94 276v201l692 207l-692 207v199l993 -324v-166z" />
<glyph unicode="&#x22c5;" horiz-adv-x="589" d="M137 586q0 66 46 110.5t114 44.5t113 -45t45 -112q0 -70 -45 -115t-113 -45q-70 0 -115 46t-45 116z" />
<glyph unicode="&#x25ca;" horiz-adv-x="1179" d="M16 709l574 761l573 -761l-573 -764zM270 709l320 -428l319 428l-319 426z" />
<glyph unicode="&#xe000;" horiz-adv-x="1045" d="M0 1045h1045v-1045h-1045v1045z" />
<glyph unicode="&#xea3f;" d="M307 971l162 526h268l-207 -526h-223z" />
<glyph unicode="&#xea4e;" horiz-adv-x="0" d="M31 1626v182h1206v-182h-1206z" />
<glyph unicode="&#xea4f;" d="M238 1190l286 307h224l-242 -307h-268z" />
<glyph unicode="&#xea67;" d="M307 971l162 526h268l-207 -526h-223z" />
<glyph unicode="&#xf6be;" horiz-adv-x="591" d="M-80 -440l21 186q68 -18 102 -18q76 0 108.5 53t32.5 178v1085h240v-1050q0 -252 -59 -336q-84 -121 -273 -121q-74 0 -172 23z" />
<glyph unicode="&#xf6c3;" d="M225 -375l242 307h268l-286 -307h-224z" />
<glyph unicode="&#xf6c9;" d="M326 1550l247 299h291l-315 -299h-223z" />
<glyph unicode="&#xf6ca;" d="M143 1864h224l145 -187l143 187h226l-228 -299h-284z" />
<glyph unicode="&#xf6cb;" d="M156 1704q0 63 41 103t104.5 40t104 -41t40.5 -104.5t-40.5 -104.5t-104 -41t-104.5 41t-41 107zM580 1704q0 63 41 103t104 40t104 -41t41 -104.5t-41 -104.5t-104 -41t-104 41t-41 107z" />
<glyph unicode="&#xf6ce;" d="M182 1849h291l248 -299h-223z" />
<glyph unicode="&#xf6cf;" d="M176 1550l230 299h286l-297 -299h-219zM584 1550l227 299h289l-301 -299h-215z" />
<glyph unicode="&#xf6d0;" d="M174 1581v154h678v-154h-678z" />
<glyph unicode="&#xf6f4;" d="M174 1538h154q6 -86 49 -124t135 -38q90 0 133 38t51 124h152q-2 -164 -84 -241.5t-252 -77.5q-203 0 -287 118q-49 68 -51 201z" />
<glyph unicode="&#xf6f5;" d="M143 1538h224l145 -186l143 186h226l-228 -299h-284z" />
<glyph unicode="&#xf6f6;" d="M143 1239l226 299h284l228 -299h-226l-143 186l-143 -186h-226z" />
<glyph unicode="&#xf6f7;" d="M373 1382q0 59 40 98.5t99 39.5q63 0 102 -39t39 -100.5t-39 -101.5t-100 -40q-63 0 -102 40t-39 103z" />
<glyph unicode="&#xf6f8;" d="M176 1239l230 299h286l-297 -299h-219zM584 1239l227 299h289l-301 -299h-215z" />
<glyph unicode="&#xf6f9;" horiz-adv-x="933" d="M47 295v172l158 100v537h237v-387l242 153v-172l-242 -155v-357h488v-186h-725v395z" />
<glyph unicode="&#xf6fa;" horiz-adv-x="1644" d="M98 553q0 287 166 430q78 70 180.5 95.5t292.5 25.5h774v-184h-467v-271h445v-184h-445v-281h494v-184h-788q-166 0 -263.5 18.5t-171.5 65.5q-217 139 -217 469zM346 553q0 -211 123 -305q88 -70 276 -70h62v748h-62q-119 0 -182 -16.5t-110 -59.5q-49 -43 -78 -123 t-29 -174z" />
<glyph unicode="&#xf6fb;" d="M219 -262q0 154 260 262h152q-131 -78 -174 -123t-43 -104q0 -43 33.5 -70t89.5 -27q39 0 86 13l14 -119q-94 -20 -160 -21q-119 0 -188.5 51.5t-69.5 137.5z" />
<glyph unicode="&#xf6fc;" d="M291 1413q0 92 63.5 154.5t157.5 62.5t157.5 -62.5t63.5 -156.5q0 -96 -63.5 -158.5t-157.5 -62.5q-96 0 -158.5 63.5t-62.5 159.5zM410 1411q0 -51 27.5 -81t74.5 -30t74.5 30t27.5 81q0 49 -27.5 79t-74.5 30t-74.5 -30t-27.5 -79z" />
<glyph unicode="&#xf6fd;" horiz-adv-x="970" d="M98 41l37 197q176 -82 309 -82q82 0 131.5 37.5t49.5 103.5q0 53 -39 86t-170 86q-162 66 -219 109q-96 72 -97 206q0 160 106.5 251t293.5 91q156 0 334 -63l-50 -193q-170 78 -278 78q-70 0 -114 -33.5t-44 -87.5q0 -47 40 -79.5t153 -79.5q170 -66 237 -117 q96 -78 96 -227q0 -166 -107.5 -256.5t-305.5 -90.5q-185 1 -363 64zM139 1538h223l144 -186l143 186h225l-225 -299h-284z" />
<glyph unicode="&#xf6fe;" d="M133 1237q10 117 64.5 184.5t142.5 67.5q66 0 192 -45q102 -35 138 -35q74 0 84 84h139q-25 -254 -211 -254q-61 0 -182 41q-117 39 -148 39q-59 0 -78 -82h-141z" />
<glyph unicode="&#xf6ff;" horiz-adv-x="1001" d="M61 0v166l562 756h-541v182h838v-166l-560 -756h578v-182h-877zM168 1538h223l146 -186l143 186h223l-225 -299h-285z" />
<glyph unicode="&#xf730;" horiz-adv-x="1257" d="M96 557q0 262 143.5 415.5t389.5 153.5q248 0 390 -152.5t142 -420.5t-142 -422t-390 -154q-250 0 -391.5 154t-141.5 426zM346 555q0 -180 74 -278.5t209 -98.5q133 0 207.5 98.5t74.5 276.5q0 176 -74.5 274.5t-207.5 98.5t-208 -98.5t-75 -272.5z" />
<glyph unicode="&#xf731;" horiz-adv-x="923" d="M66 874l376 230h213v-1104h-239v840l-242 -150z" />
<glyph unicode="&#xf732;" horiz-adv-x="1103" d="M84 0v188q231 135 416 283q121 98 170 163.5t49 129.5q0 76 -57.5 120t-159.5 44q-154 0 -330 -88l-72 186q215 100 428 100q203 0 322 -92t119 -248q0 -137 -114 -258.5t-433 -326.5h553v-201h-891z" />
<glyph unicode="&#xf733;" horiz-adv-x="1101" d="M57 -281l56 199q154 -57 311 -57q143 0 226 63.5t83 173.5q0 233 -385 234q-61 0 -106 -4v190q31 -2 73 -2q401 0 402 221q0 90 -69.5 140.5t-192.5 50.5q-139 0 -305 -68l-60 195q195 72 395 71q229 0 355.5 -96t126.5 -270q0 -283 -303 -336q319 -45 319 -334 q0 -207 -154 -321q-137 -106 -391 -107q-195 0 -381 57z" />
<glyph unicode="&#xf734;" horiz-adv-x="1232" d="M55 45v209l613 850h288v-871h203v-188h-203v-358h-239v358h-662zM285 233h436v623z" />
<glyph unicode="&#xf735;" horiz-adv-x="1134" d="M76 -246l71 197q166 -90 322 -90q143 0 227 77.5t84 211.5q0 127 -78.5 195.5t-224.5 68.5q-150 0 -330 -58l25 748h809v-201h-571l-13 -319q94 18 170 18q219 0 341 -118.5t122 -333.5q0 -229 -153 -367q-141 -121 -390 -121q-218 0 -411 92z" />
<glyph unicode="&#xf736;" horiz-adv-x="1241" d="M119 571q0 221 64.5 405.5t178.5 295.5q174 168 476 168q63 0 192 -15l-20 -206q-100 23 -168 22q-197 0 -314.5 -121t-140.5 -340q129 141 323.5 141.5t309.5 -121.5t115 -329q0 -227 -136.5 -360.5t-367.5 -133.5q-250 0 -381 151.5t-131 442.5zM373 453 q0 -131 69.5 -206t190.5 -75q117 0 185.5 76t68.5 207q0 127 -66.5 199.5t-181.5 72.5q-121 0 -193.5 -74.5t-72.5 -199.5z" />
<glyph unicode="&#xf737;" horiz-adv-x="1021" d="M27 903v201h931v-193l-618 -1224h-268l622 1216h-667z" />
<glyph unicode="&#xf738;" horiz-adv-x="1241" d="M102 385q0 176 136 279q51 39 153 75q-139 68 -195.5 140.5t-56.5 187.5q0 170 130 271.5t352 101.5q223 0 353 -100.5t130 -272.5q0 -109 -54.5 -180.5t-189.5 -138.5q150 -61 214.5 -144.5t64.5 -210.5q0 -195 -137.5 -305.5t-380.5 -110.5q-242 0 -380.5 109 t-138.5 299zM352 385q0 -98 74 -157.5t194.5 -59.5t194.5 59.5t74 155.5q0 176 -281 264q-256 -76 -256 -262zM385 1067q0 -80 61.5 -136.5t196.5 -99.5l16 7q94 33 146.5 92t52.5 133q0 86 -63.5 136t-173.5 50q-109 0 -172.5 -49t-63.5 -133z" />
<glyph unicode="&#xf739;" horiz-adv-x="1241" d="M106 633q0 227 136.5 360t367.5 133q250 0 381 -151.5t131 -442.5q0 -221 -63.5 -405t-179.5 -295q-174 -168 -476 -168q-70 0 -192 14l22 207q98 -23 166 -22q197 0 316 119.5t141 341.5q-133 -141 -326 -142q-195 0 -309.5 122t-114.5 329zM354 647q0 -125 66.5 -197.5 t181.5 -72.5q121 0 193.5 74.5t72.5 199.5q0 131 -69.5 206t-190.5 75q-117 0 -185.5 -77t-68.5 -208z" />
<glyph unicode="&#xf760;" d="M182 1538h291l248 -299h-223z" />
<glyph unicode="&#xf761;" horiz-adv-x="1169" d="M16 0l433 1104h262l444 -1104h-256l-104 276h-433l-102 -276h-244zM424 453h311l-155 444z" />
<glyph unicode="&#xf762;" horiz-adv-x="1064" d="M172 0v1104h326q219 0 313 -47q133 -68 133 -248q0 -186 -172 -244q106 -37 150.5 -94t44.5 -160q0 -182 -136 -258q-90 -53 -301 -53h-358zM399 166h82q131 0 181 24q68 35 67 132q0 86 -51 120.5t-178 34.5h-101v-311zM399 637h80q131 0 172 31q57 39 58 120 q0 92 -60 125q-41 25 -160 25h-90v-301z" />
<glyph unicode="&#xf763;" horiz-adv-x="1062" d="M98 545q0 270 148.5 425.5t406.5 155.5q190 0 367 -88l-86 -176q-96 53 -144.5 69.5t-115.5 16.5q-147 0 -237.5 -109.5t-90.5 -289.5q0 -178 92 -285.5t244 -107.5q135 0 276 90l70 -180q-184 -88 -366 -89q-264 0 -414 151t-150 417z" />
<glyph unicode="&#xf764;" horiz-adv-x="1210" d="M172 0v1104h313q168 0 270.5 -24.5t178.5 -82.5q180 -137 180 -442q0 -342 -213 -473q-76 -45 -172 -63.5t-262 -18.5h-295zM410 178h65q174 0 258 60q133 94 133 317q0 225 -123 315q-45 33 -100 44.5t-172 11.5h-61v-748z" />
<glyph unicode="&#xf765;" horiz-adv-x="1011" d="M172 0v1104h707v-184h-469v-271h446v-184h-446v-281h493v-184h-731z" />
<glyph unicode="&#xf766;" horiz-adv-x="978" d="M172 0v1104h711v-184h-473v-281h448v-184h-448v-455h-238z" />
<glyph unicode="&#xf767;" horiz-adv-x="1239" d="M98 541q0 274 155 430.5t425 156.5q197 0 395 -96l-80 -176q-150 94 -299 94q-158 0 -253 -109.5t-95 -293.5q0 -174 95.5 -281.5t248.5 -107.5q80 0 152 30v250h-213v176h444v-561q-205 -76 -395 -76q-274 0 -427 148t-153 416z" />
<glyph unicode="&#xf768;" horiz-adv-x="1259" d="M172 0v1104h238v-447h440v447h237v-1104h-237v473h-440v-473h-238z" />
<glyph unicode="&#xf769;" horiz-adv-x="581" d="M172 0v1104h238v-1104h-238z" />
<glyph unicode="&#xf76a;" horiz-adv-x="718" d="M-4 12l20 193q88 -45 160 -45q88 0 115.5 49t27.5 203v692h238v-692q0 -154 -13.5 -220.5t-51.5 -113.5q-82 -100 -275 -101q-129 0 -221 35z" />
<glyph unicode="&#xf76b;" horiz-adv-x="1148" d="M172 0v1104h238v-492l415 492h293l-446 -510l461 -594h-302l-421 561v-561h-238z" />
<glyph unicode="&#xf76c;" horiz-adv-x="901" d="M172 0v1104h238v-918h489v-186h-727z" />
<glyph unicode="&#xf76d;" horiz-adv-x="1607" d="M172 0v1104h346l182 -522q57 -188 101 -361q45 174 117 385l174 498h344v-1104h-224v905q-33 -133 -92 -307l-202 -598h-242l-207 604q-55 170 -92 301l2 -905h-207z" />
<glyph unicode="&#xf76e;" horiz-adv-x="1302" d="M172 0v1104h279l352 -586q78 -131 117 -215v801h213v-1104h-275l-342 569q-86 143 -131 230v-799h-213z" />
<glyph unicode="&#xf76f;" horiz-adv-x="1280" d="M98 559q0 276 164 434q139 133 379 133q281 0 420 -178q123 -154 123 -395q0 -285 -164 -442q-135 -133 -379 -134q-279 0 -420 179q-123 153 -123 403zM346 557q0 -188 79 -294.5t216 -106.5t216 106.5t79 288.5q0 184 -79 290.5t-216 106.5q-135 0 -215 -105.5 t-80 -285.5z" />
<glyph unicode="&#xf770;" horiz-adv-x="1021" d="M172 0v1104h309q248 0 350 -64q129 -84 130 -276q0 -190 -138 -281q-100 -66 -319 -65h-101v-418h-231zM399 592h78q127 0 174 26q72 39 72 146q0 100 -66 139q-47 27 -168 27h-90v-338z" />
<glyph unicode="&#xf771;" horiz-adv-x="1280" d="M98 551q0 285 164 442q135 133 379 133q281 0 420 -178q123 -154 123 -397q0 -258 -135 -410q-53 -59 -158 -112q84 -70 223 -148l-117 -168q-229 117 -393 264q-186 12 -295 93q-211 153 -211 481zM346 557q0 -188 79 -294.5t216 -106.5t216 106.5t79 288.5 q0 184 -79 290.5t-216 106.5q-135 0 -215 -105.5t-80 -285.5z" />
<glyph unicode="&#xf772;" horiz-adv-x="1089" d="M172 0v1104h381q201 0 293 -57q127 -76 127 -244q0 -109 -53.5 -180.5t-153.5 -92.5q51 -20 75.5 -52t71.5 -136l156 -342h-250l-108 240q-59 131 -101.5 166.5t-136.5 35.5h-70v-442h-231zM399 616h99q125 0 181 38t56 122t-52 119t-177 35h-107v-314z" />
<glyph unicode="&#xf773;" horiz-adv-x="970" d="M98 41l37 197q176 -82 309 -82q82 0 131.5 37.5t49.5 103.5q0 53 -39 86t-170 86q-162 66 -219 109q-96 72 -97 206q0 160 106.5 251t293.5 91q156 0 334 -63l-50 -193q-170 78 -278 78q-70 0 -114 -33.5t-44 -87.5q0 -47 40 -79.5t153 -79.5q170 -66 237 -117 q96 -78 96 -227q0 -166 -107.5 -256.5t-305.5 -90.5q-185 1 -363 64z" />
<glyph unicode="&#xf774;" horiz-adv-x="937" d="M16 918v186h908v-186h-338v-918h-238v918h-332z" />
<glyph unicode="&#xf775;" horiz-adv-x="1247" d="M162 496v608h237v-655q0 -166 49.5 -229.5t176.5 -63.5t175 63.5t48 229.5v655h237v-608q0 -182 -15 -258t-62 -132q-111 -129 -383 -129q-305 0 -406 160q-35 51 -46 124t-11 235z" />
<glyph unicode="&#xf776;" horiz-adv-x="1099" d="M-4 1104h248l219 -588q57 -154 92 -266l90 260l223 594h238l-424 -1104h-264z" />
<glyph unicode="&#xf777;" horiz-adv-x="1656" d="M57 1104h240l133 -569q29 -133 45 -240l10 -51q27 133 68 301l149 559h269l164 -647q25 -100 47 -213q27 150 73 346l127 514h220l-295 -1104h-271l-127 508q-49 184 -82 373q-31 -150 -88 -373l-133 -508h-270z" />
<glyph unicode="&#xf778;" horiz-adv-x="1198" d="M37 0l430 569l-397 535h276l260 -365l273 365h268l-410 -541l424 -563h-284l-279 389l-289 -389h-272z" />
<glyph unicode="&#xf779;" horiz-adv-x="1083" d="M-16 1104h278l215 -324l35 -51l25 -41l12 -20l78 120l209 316h266l-438 -641v-463h-240v463z" />
<glyph unicode="&#xf77a;" horiz-adv-x="1001" d="M61 0v166l562 756h-541v182h838v-166l-560 -756h578v-182h-877z" />
<glyph unicode="&#xf7a8;" d="M160 1382q0 59 40 98.5t99 39.5q63 0 102 -39t39 -100.5t-39 -101.5t-100 -40q-63 0 -102 40t-39 103zM584 1382q0 59 40 98.5t99 39.5q63 0 102 -39t39 -100.5t-39 -101.5t-100 -40q-63 0 -102 40t-39 103z" />
<glyph unicode="&#xf7af;" d="M174 1288v154h678v-154h-678z" />
<glyph unicode="&#xf7b4;" d="M326 1239l247 299h291l-315 -299h-223z" />
<glyph unicode="&#xf7b8;" d="M238 -375l241 307h269l-287 -307h-223z" />
<glyph unicode="&#xf7e0;" horiz-adv-x="1169" d="M16 0l433 1104h262l444 -1104h-256l-104 276h-433l-102 -276h-244zM227 1538h291l248 -299h-223zM424 453h311l-155 444z" />
<glyph unicode="&#xf7e1;" horiz-adv-x="1169" d="M16 0l433 1104h262l444 -1104h-256l-104 276h-433l-102 -276h-244zM422 1239l246 299h290l-313 -299h-223zM424 453h311l-155 444z" />
<glyph unicode="&#xf7e2;" horiz-adv-x="1169" d="M16 0l433 1104h262l444 -1104h-256l-104 276h-433l-102 -276h-244zM217 1239l225 299h285l227 -299h-225l-143 186l-144 -186h-225zM424 453h311l-155 444z" />
<glyph unicode="&#xf7e3;" horiz-adv-x="1169" d="M16 0l433 1104h262l444 -1104h-256l-104 276h-433l-102 -276h-244zM205 1237q10 119 65.5 185.5t141.5 66.5q68 0 192 -45q102 -35 139 -35q74 0 82 84h140q-20 -254 -209 -254q-63 0 -185 41q-115 39 -147 39q-59 0 -78 -82h-141zM424 453h311l-155 444z" />
<glyph unicode="&#xf7e4;" horiz-adv-x="1169" d="M16 0l433 1104h262l444 -1104h-256l-104 276h-433l-102 -276h-244zM233 1382q0 59 40 98.5t100 39.5q63 0 102 -39t39 -100.5t-39 -101.5t-100 -40q-63 0 -102.5 40t-39.5 103zM424 453h311l-155 444zM657 1382q0 59 40 98.5t100 39.5q61 0 101 -39t40 -100.5t-40 -101.5 t-99 -40q-63 0 -102.5 40t-39.5 103z" />
<glyph unicode="&#xf7e5;" horiz-adv-x="1169" d="M16 0l433 1104h262l444 -1104h-256l-104 276h-433l-102 -276h-244zM365 1413q0 92 63.5 154.5t157.5 62.5t157.5 -62.5t63.5 -156.5q0 -96 -63.5 -158.5t-157.5 -62.5q-96 0 -158.5 63.5t-62.5 159.5zM424 453h311l-155 444zM483 1411q0 -51 28 -81t75 -30t74.5 30 t27.5 81q0 49 -27.5 79t-74.5 30t-75 -30t-28 -79z" />
<glyph unicode="&#xf7e6;" horiz-adv-x="1589" d="M-94 0l684 1104h866v-184h-467v-271h445v-184h-445v-281h494v-184h-731v270h-414l-164 -270h-268zM438 449h314v524z" />
<glyph unicode="&#xf7e7;" horiz-adv-x="1062" d="M98 545q0 270 148.5 425.5t406.5 155.5q190 0 367 -88l-86 -176q-96 53 -144.5 69.5t-115.5 16.5q-147 0 -237.5 -109.5t-90.5 -289.5q0 -178 92 -285.5t244 -107.5q135 0 276 90l70 -180q-184 -88 -366 -89q-264 0 -414 151t-150 417zM258 -375l242 307h268l-287 -307 h-223z" />
<glyph unicode="&#xf7e8;" horiz-adv-x="1011" d="M172 0v1104h707v-184h-469v-271h446v-184h-446v-281h493v-184h-731zM195 1538h290l248 -299h-223z" />
<glyph unicode="&#xf7e9;" horiz-adv-x="1011" d="M172 0v1104h707v-184h-469v-271h446v-184h-446v-281h493v-184h-731zM367 1239l247 299h291l-313 -299h-225z" />
<glyph unicode="&#xf7ea;" horiz-adv-x="1011" d="M152 1239l225 299h285l227 -299h-225l-144 186l-143 -186h-225zM168 0v1104h706v-184h-468v-271h446v-184h-446v-281h493v-184h-731z" />
<glyph unicode="&#xf7eb;" horiz-adv-x="1011" d="M164 1382q0 59 40 98.5t99 39.5q63 0 102 -39t39 -100.5t-38.5 -101.5t-100.5 -40q-63 0 -102 40t-39 103zM170 0v1104h707v-184h-469v-271h446v-184h-446v-281h495v-184h-733zM588 1382q0 59 40 98.5t99 39.5q63 0 102 -39t39 -100.5t-38.5 -101.5t-100.5 -40 q-63 0 -102 40t-39 103z" />
<glyph unicode="&#xf7ec;" horiz-adv-x="581" d="M-74 1538h291l248 -299h-223zM172 0v1104h238v-1104h-238z" />
<glyph unicode="&#xf7ed;" horiz-adv-x="581" d="M127 1239l248 299h291l-316 -299h-223zM172 0v1104h238v-1104h-238z" />
<glyph unicode="&#xf7ee;" horiz-adv-x="581" d="M-78 1239l225 299h285l227 -299h-225l-143 186l-144 -186h-225zM172 0v1104h238v-1104h-238z" />
<glyph unicode="&#xf7ef;" horiz-adv-x="581" d="M-61 1382q0 59 39.5 98.5t99.5 39.5q63 0 102 -39t39 -100.5t-39 -101.5t-100 -40q-63 0 -102 40t-39 103zM172 0v1104h238v-1104h-238zM362 1382q0 59 40 98.5t100 39.5q63 0 102 -39t39 -100.5t-39 -101.5t-100 -40q-63 0 -102.5 40t-39.5 103z" />
<glyph unicode="&#xf7f0;" horiz-adv-x="1245" d="M29 481v154h178v469h311q168 0 270.5 -24.5t178.5 -82.5q180 -137 180 -444q0 -340 -213 -471q-139 -82 -432 -82h-295v481h-178zM444 178h66q172 0 256 60q133 94 133 315q0 227 -123 317q-45 33 -100 44.5t-172 11.5h-60v-291h232v-154h-232v-303z" />
<glyph unicode="&#xf7f1;" horiz-adv-x="1302" d="M172 0v1104h279l352 -586q78 -131 117 -215v801h213v-1104h-275l-342 569q-86 143 -131 230v-799h-213zM303 1237q8 117 64.5 184.5t142.5 67.5q66 0 192 -45q102 -35 138 -35q76 0 84 84h139q-25 -254 -211 -254q-61 0 -182 41q-109 39 -148 39q-59 0 -78 -82h-141z" />
<glyph unicode="&#xf7f2;" horiz-adv-x="1280" d="M98 559q0 276 164 434q139 133 379 133q281 0 420 -178q123 -154 123 -395q0 -285 -164 -442q-135 -133 -379 -134q-279 0 -420 179q-123 153 -123 403zM311 1538h291l248 -299h-223zM346 557q0 -188 79 -294.5t216 -106.5t216 106.5t79 288.5q0 184 -79 290.5 t-216 106.5q-135 0 -215 -105.5t-80 -285.5z" />
<glyph unicode="&#xf7f3;" horiz-adv-x="1280" d="M98 559q0 276 164 434q139 133 379 133q281 0 420 -178q123 -154 123 -395q0 -285 -164 -442q-135 -133 -379 -134q-279 0 -420 179q-123 153 -123 403zM346 557q0 -188 79 -294.5t216 -106.5t216 106.5t79 288.5q0 184 -79 290.5t-216 106.5q-135 0 -215 -105.5 t-80 -285.5zM455 1239l247 299h291l-315 -299h-223z" />
<glyph unicode="&#xf7f4;" horiz-adv-x="1280" d="M98 559q0 276 164 434q139 133 379 133q281 0 420 -178q123 -154 123 -395q0 -285 -164 -442q-135 -133 -379 -134q-279 0 -420 179q-123 153 -123 403zM272 1239l226 299h284l228 -299h-226l-143 186l-143 -186h-226zM346 557q0 -188 79 -294.5t216 -106.5t216 106.5 t79 288.5q0 184 -79 290.5t-216 106.5q-135 0 -215 -105.5t-80 -285.5z" />
<glyph unicode="&#xf7f5;" horiz-adv-x="1280" d="M98 559q0 276 164 434q139 133 379 133q281 0 420 -178q123 -154 123 -395q0 -285 -164 -442q-135 -133 -379 -134q-279 0 -420 179q-123 153 -123 403zM260 1237q10 119 65.5 185.5t141.5 66.5q70 0 192 -45q102 -35 140 -35q72 0 84 84h137q-20 -254 -209 -254 q-63 0 -182 41q-117 39 -150 39q-59 0 -78 -82h-141zM346 557q0 -188 79 -294.5t216 -106.5t216 106.5t79 288.5q0 184 -79 290.5t-216 106.5q-135 0 -215 -105.5t-80 -285.5z" />
<glyph unicode="&#xf7f6;" horiz-adv-x="1280" d="M98 559q0 276 164 434q139 133 379 133q281 0 420 -178q123 -154 123 -395q0 -285 -164 -442q-135 -133 -379 -134q-279 0 -420 179q-123 153 -123 403zM289 1382q0 59 40 98.5t99 39.5q63 0 102 -39t39 -100.5t-38.5 -101.5t-100.5 -40q-63 0 -102 40t-39 103zM346 557 q0 -188 79 -294.5t216 -106.5t216 106.5t79 288.5q0 184 -79 290.5t-216 106.5q-135 0 -215 -105.5t-80 -285.5zM713 1382q0 59 40 98.5t99 39.5q63 0 102 -39t39 -100.5t-39 -101.5t-100 -40q-63 0 -102 40t-39 103z" />
<glyph unicode="&#xf7f8;" horiz-adv-x="1280" d="M84 55l113 123q-106 156 -107 375q0 283 164 440q135 133 377 133q207 0 338 -96l102 113l109 -94l-111 -123q106 -154 107 -375q0 -283 -164 -440q-139 -133 -379 -134q-213 0 -336 97l-102 -113zM338 551q0 -90 31 -182l454 501q-78 78 -190 78q-137 0 -216 -106.5 t-79 -290.5zM440 233q78 -78 193 -77q137 0 216 106.5t79 288.5q0 94 -33 184z" />
<glyph unicode="&#xf7f9;" horiz-adv-x="1247" d="M162 496v608h237v-655q0 -166 49.5 -229.5t176.5 -63.5t175 63.5t48 229.5v655h237v-608q0 -182 -15 -258t-62 -132q-111 -129 -383 -129q-305 0 -406 160q-35 51 -46 124t-11 235zM285 1538h290l248 -299h-223z" />
<glyph unicode="&#xf7fa;" horiz-adv-x="1247" d="M162 496v608h237v-655q0 -166 49.5 -229.5t176.5 -63.5t175 63.5t48 229.5v655h237v-608q0 -182 -15 -258t-62 -132q-111 -129 -383 -129q-305 0 -406 160q-35 51 -46 124t-11 235zM473 1239l248 299h291l-314 -299h-225z" />
<glyph unicode="&#xf7fb;" horiz-adv-x="1247" d="M162 496v608h237v-655q0 -166 49.5 -229.5t176.5 -63.5t175 63.5t48 229.5v655h237v-608q0 -182 -15 -258t-62 -132q-111 -129 -383 -129q-305 0 -406 160q-35 51 -46 124t-11 235zM256 1239l225 299h285l225 -299h-223l-143 186l-144 -186h-225z" />
<glyph unicode="&#xf7fc;" horiz-adv-x="1247" d="M162 496v608h237v-655q0 -166 49.5 -229.5t176.5 -63.5t175 63.5t48 229.5v655h237v-608q0 -182 -15 -258t-62 -132q-111 -129 -383 -129q-305 0 -406 160q-35 51 -46 124t-11 235zM272 1382q0 59 40 98.5t100 39.5q63 0 102 -39t39 -100.5t-40 -101.5t-99 -40 q-63 0 -102.5 40t-39.5 103zM696 1382q0 59 40 98.5t100 39.5q63 0 102 -39t39 -100.5t-40 -101.5t-99 -40q-63 0 -102.5 40t-39.5 103z" />
<glyph unicode="&#xf7fd;" horiz-adv-x="1083" d="M-16 1104h278l215 -324l35 -51l25 -41l12 -20l78 120l209 316h266l-438 -641v-463h-240v463zM401 1239l248 299h291l-315 -299h-224z" />
<glyph unicode="&#xf7fe;" horiz-adv-x="1032" d="M172 0v1104h231v-186h89q141 0 216.5 -14.5t131.5 -53.5q131 -92 131 -286.5t-137 -284.5q-100 -66 -320 -66h-111v-213h-231zM399 387h88q127 0 175 27q72 43 71.5 149.5t-65.5 149.5q-45 31 -168 30h-101v-356z" />
<glyph unicode="&#xf7ff;" horiz-adv-x="1083" d="M-16 1104h278l215 -324l35 -51l25 -41l12 -20l78 120l209 316h266l-438 -641v-463h-240v463zM188 1382q0 59 40 98.5t100 39.5q61 0 101 -39t40 -100.5t-40 -101.5t-99 -40q-63 0 -102.5 40t-39.5 103zM614 1382q0 59 40 98.5t100 39.5q61 0 101 -39t40 -100.5 t-40 -101.5t-99 -40q-63 0 -102.5 40t-39.5 103z" />
<glyph horiz-adv-x="1445" d="M102 692q0 346 191.5 547t523.5 201q238 0 457 -99l-82 -198q-190 96 -371 96q-240 0 -360 -172q-100 -145 -101 -369q0 -238 124 -379t335 -141q106 0 215 37v350h-260v201h504v-700q-252 -88 -473 -89q-330 0 -516.5 190.5t-186.5 524.5zM604 1550l248 299h291 l-316 -299h-223z" />
<glyph horiz-adv-x="933" d="M49 1163l391 254h215v-1417h-241v1143l-258 -174z" />
<glyph horiz-adv-x="1081" d="M20 0v197q383 352 525.5 530t142.5 307q0 92 -67.5 149.5t-176.5 57.5q-152 0 -340 -106l-59 206q209 98 426 99q221 0 344 -102.5t123 -288.5q0 -133 -62.5 -253t-224.5 -294q-152 -162 -303 -301h600v-201h-928z" />
<glyph horiz-adv-x="1093" d="M43 51l53 203q172 -80 336 -80q133 0 208 63.5t75 176.5q0 231 -361 231q-55 0 -118 -4v193q51 -4 94 -5q371 0 370 222q0 90 -64.5 140t-176.5 50q-137 0 -324 -78l-49 201q193 76 403 76q219 0 340 -96.5t121 -270.5q0 -281 -288 -336q303 -43 303 -334 q0 -205 -146 -321q-127 -106 -370 -107q-211 0 -406 76z" />
<glyph horiz-adv-x="1167" d="M45 358v207l576 852h284v-870h191v-189h-191v-358h-239v358h-621zM276 547h394v598z" />
<glyph horiz-adv-x="1134" d="M102 63l70 205q170 -92 317 -92q135 0 215 79t80 212q0 125 -77.5 191.5t-221.5 66.5q-141 0 -325 -59l22 751h801v-200h-561l-12 -316q84 14 153 14q225 0 348 -117.5t123 -334.5q0 -231 -145 -365q-129 -121 -375 -121q-226 0 -412 86z" />
<glyph horiz-adv-x="1140" d="M104 571q0 221 60.5 406.5t169.5 294.5q162 168 452 168q63 0 187 -15l-19 -208q-104 25 -166 24q-174 0 -283.5 -117.5t-131.5 -324.5q117 123 293 123q188 0 296.5 -121t108.5 -330q0 -229 -129 -361.5t-352 -132.5q-238 0 -362 151.5t-124 442.5zM358 453 q0 -129 63.5 -205t172.5 -76q104 0 166.5 77t62.5 206q0 125 -60.5 198.5t-162.5 73.5q-109 0 -175.5 -75.5t-66.5 -198.5z" />
<glyph horiz-adv-x="937" d="M6 1217v200h879v-192l-539 -1225h-268l545 1217h-617z" />
<glyph horiz-adv-x="1177" d="M96 385q0 176 129 279q43 35 144 75q-133 70 -185.5 142.5t-52.5 185.5q0 172 124 272.5t335 100.5t335 -100.5t124 -272.5q0 -109 -51.5 -179.5t-178.5 -139.5q141 -63 201.5 -145.5t60.5 -209.5q0 -195 -131 -305.5t-362 -110.5q-229 0 -360.5 109t-131.5 299zM346 385 q0 -98 66.5 -157.5t177.5 -59.5q106 0 173.5 59.5t67.5 155.5q0 178 -251 264q-234 -76 -234 -262zM377 1067q0 -80 56 -136.5t177 -96.5l11 4q86 33 134 92t48 133q0 86 -57.5 136t-155.5 50t-155.5 -49t-57.5 -133z" />
<glyph horiz-adv-x="1140" d="M70 946q0 227 128 360.5t349 133.5q242 0 365.5 -150.5t123.5 -443.5q0 -221 -60.5 -406.5t-166.5 -294.5q-166 -168 -453 -168q-61 0 -188 15l20 209q104 -25 164 -25q174 0 283.5 118t132.5 324q-117 -123 -293 -122q-188 0 -296.5 120.5t-108.5 329.5zM317 961 q0 -125 60.5 -198t163.5 -73q109 0 175 76t66 197q0 131 -63.5 206.5t-171.5 75.5q-104 0 -167 -76.5t-63 -207.5z" />
<glyph horiz-adv-x="1200" d="M102 717q0 367 123 545t375 178q254 0 376 -179.5t122 -552t-122 -552t-376 -179.5q-256 0 -377 180.5t-121 559.5zM352 715q0 -274 60.5 -405.5t187.5 -131.5q248 0 248 530.5t-248 530.5t-248 -524z" />
<glyph horiz-adv-x="1124" d="M68 0v195h153q25 47 33 112.5t8 218.5v119h-176v176h176v101q0 164 19.5 243.5t74.5 141.5q119 131 353 131q162 0 356 -82l-61 -203q-170 84 -279 84q-119 0 -169 -77t-50 -255v-84h313v-176h-313v-119q0 -154 -7 -217t-30 -114h578v-195h-979z" />
<glyph horiz-adv-x="1191" d="M117 1034q0 127 56 221.5t161 139.5q57 27 188 41v166h131v-164q152 -10 338 -70l-45 -215q-143 72 -293 86v-412q8 -2 27 -9l57 -22l72 -28q252 -94 252 -371q0 -279 -248 -379q-49 -18 -168 -36v-172h-131v167q-125 4 -206 19.5t-189 58.5l33 219q180 -94 362 -100v449 q-190 80 -238 110q-159 104 -159 301zM367 1059q0 -68 33.5 -109t121.5 -78v361q-155 -33 -155 -174zM645 182q166 29 166 199q0 76 -36 118t-130 79v-396z" />
<glyph horiz-adv-x="1013" d="M106 874q0 166 57.5 293t164.5 193q80 49 233 63v174h133v-176q135 -14 242 -65l-57 -191q-96 55 -185 72v-707q92 12 201 84l49 -190q-102 -63 -250 -80v-168h-133v168q-182 16 -278 94q-177 135 -177 436zM356 887q0 -152 52.5 -243t152.5 -109v702q-205 -41 -205 -350 z" />
<glyph horiz-adv-x="935" d="M-141 -213l43 190q86 -35 143 -34q78 0 114 69.5t72 288.5l60 340h-174v176h205l28 164q45 260 115 346q88 111 260 111q106 0 227 -43l-47 -183q-84 33 -139 33q-76 0 -112 -60.5t-68 -240.5l-21 -127h250v-176h-280l-72 -405q-31 -182 -53.5 -253t-63.5 -122 q-92 -113 -266 -113q-94 0 -221 39z" />
<glyph horiz-adv-x="1206" d="M25 502l43 133h147q-2 23 -2 57q0 41 2 72h-190l43 131h163q51 262 204 403.5t384 141.5q197 0 365 -90l-66 -197q-154 92 -284 92q-281 0 -357 -350h555l-43 -131h-524q-2 -25 -2 -59q0 -43 4 -70h481l-43 -131h-420q72 -332 357 -332q139 0 295 84l53 -199 q-180 -80 -371 -80q-248 0 -398.5 134.5t-191.5 390.5h-204z" />
<glyph horiz-adv-x="1146" d="M-8 1417h280l308 -557l307 557h268l-373 -643h242v-131h-309l-21 -37v-96h328v-131h-328v-379h-241v379h-328v131h328v96l-21 37h-311v131h244z" />
<glyph horiz-adv-x="1759" d="M119 1274l250 143h149v-778h-170v610l-166 -96zM496 -37l561 1491h164l-562 -1491h-163zM1083 635l250 143h150v-778h-170v610l-166 -96z" />
<glyph horiz-adv-x="1759" d="M104 1274l250 143h150v-778h-170v610l-166 -96zM440 -37l561 1491h164l-561 -1491h-164zM1004 43l53 135q115 -53 209 -53q78 0 124 37t46 98q0 117 -181 117q-82 0 -211 -31l19 432h518v-137h-354l-6 -152q53 12 108 13q135 0 211 -64.5t76 -179.5q0 -129 -87 -199.5 t-247 -70.5q-153 0 -278 55z" />
<glyph horiz-adv-x="1759" d="M106 639v135q117 86 248 203q139 131 140 217q0 45 -36 71.5t-96 26.5q-82 0 -217 -63l-36 137q139 63 274 64q137 0 213 -58.5t76 -163.5q0 -70 -32 -129t-108 -135q-109 -104 -192 -170h338v-135h-572zM514 -37l561 1491h164l-561 -1491h-164zM1047 43l53 135 q115 -53 209 -53q76 0 123 37t47 96q0 119 -181 119q-82 0 -211 -31l19 432h518v-137h-354l-4 -152q51 12 106 13q135 0 211 -64.5t76 -179.5q0 -129 -87 -199.5t-247 -70.5q-149 0 -278 55z" />
<glyph horiz-adv-x="1759" d="M98 670l31 137q123 -43 219 -43q72 0 112 28.5t40 79.5q0 111 -191 111q-6 0 -76 -4v123q37 -4 72 -4q186 0 187 106q0 41 -38 65.5t-104 24.5q-82 0 -194 -37l-27 134q135 39 254 39q139 0 215 -53.5t76 -151.5q0 -137 -150 -178q162 -41 162 -187q0 -113 -83 -173 t-236 -60q-140 0 -269 43zM518 -37l561 1491h162l-561 -1491h-162zM1053 43l53 135q115 -53 209 -53q76 0 123 37t47 96q0 119 -180 119q-82 0 -211 -31l18 432h518v-137h-354l-4 -152q51 12 106 13q135 0 211 -64.5t76 -179.5q0 -129 -87 -199.5t-247 -70.5q-149 0 -278 55 z" />
<glyph horiz-adv-x="1759" d="M57 817v135l334 465h219v-475h115v-125h-115v-178h-168v178h-385zM207 942h244v344zM518 -37l561 1491h164l-561 -1491h-164zM1053 43l53 135q115 -53 209 -53q76 0 123 37t47 96q0 119 -180 119q-82 0 -211 -31l18 432h518v-137h-354l-6 -152q53 12 108 13 q135 0 211 -64.5t76 -179.5q0 -129 -87 -199.5t-247 -70.5q-153 0 -278 55z" />
<glyph horiz-adv-x="1759" d="M98 1274l250 143h150v-778h-170v610l-166 -96zM451 -37l561 1491h164l-562 -1491h-163zM1001 324q0 260 150 383q98 84 279 84q51 0 143 -13l-14 -131q-74 12 -111 12q-197 0 -250 -204q76 57 170 57q121 0 192.5 -66.5t71.5 -181.5q0 -129 -84 -202.5t-229 -73.5 q-156 0 -237 86t-81 250zM1184 256q0 -63 35.5 -99t99.5 -36q59 0 97 37t38 96t-36 94t-99 35q-61 0 -98 -35t-37 -92z" />
<glyph horiz-adv-x="1759" d="M94 682l53 135q119 -53 209 -53q76 0 123 37t47 96q0 119 -180 119q-86 0 -211 -31l19 432h518v-137h-355l-4 -152q51 12 107 13q135 0 211 -64.5t76 -179.5q0 -129 -87.5 -199.5t-246.5 -70.5q-154 0 -279 55zM530 -37l562 1491h161l-561 -1491h-162zM1034 324 q0 260 150 383q98 84 278 84q51 0 144 -13l-15 -131q-74 12 -110 12q-197 0 -250 -204q74 57 170 57q121 0 192.5 -66.5t71.5 -181.5q0 -127 -84 -201.5t-227 -74.5q-156 0 -238 86t-82 250zM1217 256q0 -63 35.5 -99t97 -36t99.5 37t38 96t-36 94t-99 35q-61 0 -98 -35 t-37 -92z" />
<glyph d="M369 1704q0 63 41 103t104.5 40t104 -41t40.5 -104.5t-40.5 -104.5t-104 -41t-104.5 41t-41 107z" />
<glyph d="M274 1616q0 98 69 165.5t169 67.5q102 0 170 -67.5t68 -170t-68 -170t-170 -67.5t-170 68t-68 174zM399 1612q0 -55 31 -88t82 -33t82 32.5t31 88t-31 88.5t-82 33t-82 -34t-31 -87z" />
<glyph d="M143 1550l226 299h284l228 -299h-226l-143 187l-143 -187h-226z" />
<glyph d="M174 1860h154q6 -86 49 -124t135 -38q90 0 133 38t51 124h152q-2 -164 -84 -242t-252 -78q-209 0 -289 121q-47 70 -49 199z" />
<glyph d="M133 1573q10 117 64.5 183.5t142.5 66.5q66 0 192 -45q102 -35 138 -35q74 0 84 84h139q-25 -252 -211 -252q-61 0 -182 41q-117 39 -148 39q-59 0 -78 -82h-141z" />
<glyph d="M264 -375l242 307h268l-287 -307h-223z" />
<glyph d="M225 -262q0 154 260 262h152q-131 -78 -174 -123t-43 -104q0 -43 33.5 -70t89.5 -27q39 0 86 13l14 -119q-94 -20 -160 -21q-119 0 -188.5 51.5t-69.5 137.5z" />
<glyph d="M264 -375l242 307h268l-287 -307h-223z" />
<glyph horiz-adv-x="1892" d="M98 41l35 197q176 -82 309 -82q84 0 132.5 37.5t48.5 103.5q0 53 -39 86t-170 86q-162 66 -219 109q-96 74 -97 206q0 160 106.5 251t293.5 91q152 0 333 -63l-49 -193q-166 78 -278 78q-70 0 -114 -33.5t-44 -87.5q0 -47 40 -79.5t153 -79.5q170 -66 237 -117 q96 -80 96 -225q0 -168 -107.5 -258.5t-305.5 -90.5q-179 1 -361 64zM1020 41l35 197q176 -82 309 -82q82 0 131 37.5t49 103.5q0 53 -39 86t-170 86q-162 66 -219 109q-96 72 -96 206q0 160 106.5 251t292.5 91q156 0 334 -63l-49 -193q-172 78 -279 78q-70 0 -113.5 -33.5 t-43.5 -87.5q0 -47 40 -79.5t152 -79.5q174 -70 238 -117q96 -78 96 -227q0 -166 -107.5 -256.5t-306.5 -90.5q-178 1 -360 64z" />
<glyph horiz-adv-x="581" d="M172 0v1104h238v-1104h-238z" />
<glyph horiz-adv-x="718" d="M-4 12l20 193q88 -45 160 -45q88 0 115.5 49t27.5 203v692h238v-692q0 -154 -13.5 -220.5t-51.5 -113.5q-82 -100 -275 -101q-129 0 -221 35z" />
<glyph horiz-adv-x="1533" d="M172 0v1104h711v-184h-473v-281h448v-184h-448v-455h-238zM1124 0v1104h238v-1104h-238z" />
<glyph horiz-adv-x="1859" d="M172 0v1104h711v-184h-473v-281h448v-184h-448v-455h-238zM1124 0v1104h238v-918h493v-186h-731z" />
<glyph horiz-adv-x="1169" d="M16 0l433 1104h262l444 -1104h-256l-104 276h-433l-102 -276h-244zM217 1538h223l146 -186l143 186h225l-227 -299h-285zM424 453h311l-155 444z" />
<glyph horiz-adv-x="1169" d="M16 0l433 1104h262l444 -1104h-256l-104 276h-433l-102 -276h-244zM248 1538h153q6 -86 49.5 -124t135.5 -38t135 38t49 124h152q-2 -133 -52 -201q-82 -119 -284 -118q-170 0 -253 77.5t-85 241.5zM424 453h311l-155 444z" />
<glyph horiz-adv-x="1169" d="M16 0l433 1104h262l444 -1104q-129 -78 -173 -124t-44 -103q0 -43 33 -70t90 -27q39 0 86 13l12 -119q-94 -20 -158 -21q-119 0 -188.5 51.5t-69.5 137.5q0 156 261 262h-105l-104 276h-433l-102 -276h-244zM424 453h311l-155 444z" />
<glyph horiz-adv-x="1062" d="M98 545q0 270 148.5 425.5t406.5 155.5q190 0 367 -88l-86 -176q-96 53 -144.5 69.5t-115.5 16.5q-147 0 -237.5 -109.5t-90.5 -289.5q0 -178 92 -285.5t244 -107.5q135 0 276 90l70 -180q-184 -88 -366 -89q-264 0 -414 151t-150 417zM473 1239l248 299h291l-316 -299 h-223z" />
<glyph horiz-adv-x="1062" d="M98 545q0 270 148.5 425.5t406.5 155.5q190 0 367 -88l-86 -176q-96 53 -144.5 69.5t-115.5 16.5q-147 0 -237.5 -109.5t-90.5 -289.5q0 -178 92 -285.5t244 -107.5q135 0 276 90l70 -180q-184 -88 -366 -89q-264 0 -414 151t-150 417zM279 1538h223l143 -186l143 186 h226l-226 -299h-284z" />
<glyph horiz-adv-x="1062" d="M98 545q0 270 148.5 425.5t406.5 155.5q190 0 367 -88l-86 -176q-96 53 -144.5 69.5t-115.5 16.5q-147 0 -237.5 -109.5t-90.5 -289.5q0 -178 92 -285.5t244 -107.5q135 0 276 90l70 -180q-184 -88 -366 -89q-264 0 -414 151t-150 417zM526 1382q0 59 40 98.5t100 39.5 q63 0 102 -39t39 -100.5t-39 -101.5t-100 -40q-63 0 -102.5 40t-39.5 103z" />
<glyph horiz-adv-x="1296" d="M172 0v1104h313q168 0 270.5 -24.5t178.5 -82.5q180 -137 180 -442q0 -342 -213 -473q-76 -45 -172 -63.5t-262 -18.5h-295zM410 178h65q174 0 258 60q133 94 133 317q0 225 -123 315q-45 33 -100 44.5t-172 11.5h-61v-748zM1104 971l162 526h245l-206 -526h-201z" />
<glyph horiz-adv-x="1245" d="M29 481v154h178v469h311q168 0 270.5 -24.5t178.5 -82.5q180 -137 180 -444q0 -340 -213 -471q-139 -82 -432 -82h-295v481h-178zM444 178h66q172 0 256 60q133 94 133 315q0 227 -123 317q-45 33 -100 44.5t-172 11.5h-60v-291h232v-154h-232v-303z" />
<glyph horiz-adv-x="1011" d="M152 1538h223l145 -186l144 186h225l-227 -299h-285zM160 0v1104h704v-184h-467v-271h445v-184h-445v-281h494v-184h-731z" />
<glyph horiz-adv-x="1011" d="M172 0v1104h707v-184h-469v-271h446v-184h-446v-281h493v-184h-731zM418 1382q0 59 40 98.5t99 39.5q63 0 102 -39t39 -100.5t-40 -101.5t-99 -40q-63 0 -102 40t-39 103z" />
<glyph horiz-adv-x="1011" d="M172 0v1104h707v-184h-469v-271h446v-184h-446v-281h493v-184q-12 -8 -26 -16q-113 -72 -152 -114t-39 -97q0 -43 34 -70t91 -27q39 0 84 13l14 -119q-90 -20 -159 -21q-119 0 -188.5 51.5t-69.5 137.5q0 80 62 142.5t200 119.5h-582z" />
<glyph horiz-adv-x="1239" d="M98 541q0 274 155 430.5t425 156.5q197 0 395 -96l-80 -176q-150 94 -299 94q-158 0 -253 -109.5t-95 -293.5q0 -174 95.5 -281.5t248.5 -107.5q80 0 152 30v250h-213v176h444v-561q-205 -76 -395 -76q-274 0 -427 148t-153 416zM303 1538h225l144 -186l143 186h225 l-225 -299h-285z" />
<glyph horiz-adv-x="1239" d="M98 541q0 274 155 430.5t425 156.5q197 0 395 -96l-80 -176q-150 94 -299 94q-158 0 -253 -109.5t-95 -293.5q0 -174 95.5 -281.5t248.5 -107.5q80 0 152 30v250h-213v176h444v-561q-205 -76 -395 -76q-274 0 -427 148t-153 416zM311 1538h152q8 -86 50 -124t134 -38 t135 38t49 124h154q-2 -133 -51 -201q-84 -119 -287 -118q-170 0 -252 77.5t-84 241.5z" />
<glyph horiz-adv-x="1239" d="M98 541q0 274 155 430.5t425 156.5q197 0 395 -96l-80 -176q-150 94 -299 94q-158 0 -253 -109.5t-95 -293.5q0 -174 95.5 -281.5t248.5 -107.5q80 0 152 30v250h-213v176h444v-561q-205 -76 -395 -76q-274 0 -427 148t-153 416zM522 1382q0 59 40 98.5t100 39.5 q61 0 101 -39t40 -100.5t-40 -101.5t-99 -40q-63 0 -102.5 40t-39.5 103z" />
<glyph horiz-adv-x="901" d="M172 0v1104h238v-918h489v-186h-727zM201 1239l248 299h290l-315 -299h-223z" />
<glyph horiz-adv-x="901" d="M172 0v1104h238v-918h489v-186h-727zM514 971l162 526h246l-207 -526h-201z" />
<glyph horiz-adv-x="1302" d="M172 0v1104h279l352 -586q78 -131 117 -215v801h213v-1104h-275l-342 569q-86 143 -131 230v-799h-213zM522 1239l248 299h291l-316 -299h-223z" />
<glyph horiz-adv-x="1302" d="M172 0v1104h279l352 -586q78 -131 117 -215v801h213v-1104h-275l-342 569q-86 143 -131 230v-799h-213zM315 1538h224l145 -186l143 186h224l-226 -299h-284z" />
<glyph horiz-adv-x="1280" d="M98 559q0 276 164 434q139 133 379 133q281 0 420 -178q123 -154 123 -395q0 -285 -164 -442q-135 -133 -379 -134q-279 0 -420 179q-123 153 -123 403zM305 1239l230 299h286l-297 -299h-219zM346 557q0 -188 79 -294.5t216 -106.5t216 106.5t79 288.5q0 184 -79 290.5 t-216 106.5q-135 0 -215 -105.5t-80 -285.5zM713 1239l227 299h289l-301 -299h-215z" />
<glyph horiz-adv-x="1089" d="M172 0v1104h381q201 0 293 -57q127 -76 127 -244q0 -109 -53.5 -180.5t-153.5 -92.5q51 -20 75.5 -52t71.5 -136l156 -342h-250l-108 240q-59 131 -101.5 166.5t-136.5 35.5h-70v-442h-231zM381 1239l246 299h291l-314 -299h-223zM399 616h99q125 0 181 38t56 122 t-52 119t-177 35h-107v-314z" />
<glyph horiz-adv-x="970" d="M98 41l37 197q176 -82 309 -82q82 0 131.5 37.5t49.5 103.5q0 53 -39 86t-170 86q-162 66 -219 109q-96 72 -97 206q0 160 106.5 251t293.5 91q156 0 334 -63l-50 -193q-170 78 -278 78q-70 0 -114 -33.5t-44 -87.5q0 -47 40 -79.5t153 -79.5q170 -66 237 -117 q96 -78 96 -227q0 -166 -107.5 -256.5t-305.5 -90.5q-185 1 -363 64zM367 1239l247 299h291l-315 -299h-223z" />
<glyph horiz-adv-x="970" d="M98 41l37 197q176 -82 309 -82q82 0 131.5 37.5t49.5 103.5q0 53 -39 86t-170 86q-162 66 -219 109q-96 72 -97 206q0 160 106.5 251t293.5 91q156 0 334 -63l-50 -193q-170 78 -278 78q-70 0 -114 -33.5t-44 -87.5q0 -47 40 -79.5t153 -79.5q170 -66 237 -117 q96 -78 96 -227q0 -166 -107.5 -256.5t-305.5 -90.5q-185 1 -363 64zM147 1239l226 299h284l226 -299h-224l-145 186l-143 -186h-224z" />
<glyph horiz-adv-x="970" d="M98 41l37 197q176 -82 309 -82q82 0 131.5 37.5t49.5 103.5q0 53 -39 86t-170 86q-162 66 -219 109q-96 72 -97 206q0 160 106.5 251t293.5 91q156 0 334 -63l-50 -193q-170 78 -278 78q-70 0 -114 -33.5t-44 -87.5q0 -47 40 -79.5t153 -79.5q170 -66 237 -117 q96 -78 96 -227q0 -166 -107.5 -256.5t-305.5 -90.5q-185 1 -363 64zM129 -375l242 307h268l-287 -307h-223z" />
<glyph horiz-adv-x="1167" d="M16 918v186h908v-186h-338v-918h-238v918h-332zM995 971l162 526h246l-207 -526h-201z" />
<glyph horiz-adv-x="1247" d="M162 496v608h237v-655q0 -166 49.5 -229.5t176.5 -63.5t175 63.5t48 229.5v655h237v-608q0 -182 -15 -258t-62 -132q-111 -129 -383 -129q-305 0 -406 160q-35 51 -46 124t-11 235zM403 1413q0 92 63.5 154.5t158 62.5t158 -62.5t63.5 -156.5q0 -96 -62.5 -158.5 t-159 -62.5t-159 63.5t-62.5 159.5zM522 1411q0 -51 28 -81t75 -30t74.5 30t27.5 81q0 49 -27.5 79t-74.5 30q-45 0 -74 -31t-29 -78z" />
<glyph horiz-adv-x="1247" d="M162 496v608h237v-655q0 -166 49.5 -229.5t176.5 -63.5t175 63.5t48 229.5v655h237v-608q0 -182 -15 -258t-62 -132q-111 -129 -383 -129q-305 0 -406 160q-35 51 -46 124t-11 235zM289 1239l229 299h287l-297 -299h-219zM696 1239l228 299h288l-301 -299h-215z" />
<glyph horiz-adv-x="1001" d="M61 0v166l562 756h-541v182h838v-166l-560 -756h578v-182h-877zM352 1239l248 299h291l-316 -299h-223z" />
<glyph horiz-adv-x="1001" d="M61 0v166l562 756h-541v182h838v-166l-560 -756h578v-182h-877zM393 1382q0 59 40 98.5t99 39.5q61 0 101.5 -39t40.5 -100.5t-40 -101.5t-99 -40q-63 0 -102.5 40t-39.5 103z" />
<glyph horiz-adv-x="1259" d="M14 805v139h158v160h238v-160h440v160h237v-160h160v-139h-160v-805h-237v461h-440v-461h-238v805h-158zM410 635h440v170h-440v-170z" />
<glyph horiz-adv-x="937" d="M16 918v186h908v-186h-338v-918h-238v918h-332zM109 -375l239 307h270l-288 -307h-221z" />
<glyph horiz-adv-x="1169" d="M16 0l433 1104h262l444 -1104h-256l-104 276h-433l-102 -276h-244zM246 1288v154h678v-154h-678zM424 453h311l-155 444z" />
<glyph horiz-adv-x="1083" d="M-16 1104h278l215 -324l35 -51l25 -41l12 -20l78 120l209 316h266l-438 -641v-463h-240v463zM174 1239l225 299h285l225 -299h-223l-145 186l-144 -186h-223z" />
<glyph horiz-adv-x="1062" d="M98 545q0 270 148.5 425.5t406.5 155.5q190 0 367 -88l-86 -176q-96 53 -144.5 69.5t-115.5 16.5q-147 0 -237.5 -109.5t-90.5 -289.5q0 -178 92 -285.5t244 -107.5q135 0 276 90l70 -180q-184 -88 -366 -89q-264 0 -414 151t-150 417zM270 1239l226 299h284l228 -299 h-226l-143 186l-143 -186h-226z" />
<glyph horiz-adv-x="1011" d="M166 1288v154h678v-154h-678zM170 0v1104h707v-184h-469v-271h446v-184h-446v-281h495v-184h-733z" />
<glyph horiz-adv-x="1239" d="M98 541q0 274 155 430.5t425 156.5q197 0 395 -96l-80 -176q-150 94 -299 94q-158 0 -253 -109.5t-95 -293.5q0 -174 95.5 -281.5t248.5 -107.5q80 0 152 30v250h-213v176h444v-561q-205 -76 -395 -76q-274 0 -427 148t-153 416zM291 1239l225 299h285l225 -299h-223 l-146 186l-143 -186h-223z" />
<glyph horiz-adv-x="581" d="M-47 1538h153q6 -86 49.5 -124t135.5 -38q90 0 133 38t51 124h152q-2 -164 -84 -241.5t-252 -77.5q-203 0 -287 118q-49 68 -51 201zM170 0v1104h238v-1104h-238z" />
<glyph horiz-adv-x="581" d="M-49 1288v154h678v-154h-678zM170 0v1104h238v-1104h-238z" />
<glyph horiz-adv-x="718" d="M-6 12l20 193q88 -45 160 -45q88 0 115.5 49t27.5 203v692h238v-692q0 -154 -13.5 -220.5t-52.5 -113.5q-82 -100 -274 -101q-129 0 -221 35zM57 1239l226 299h284l226 -299h-224l-143 186l-143 -186h-226z" />
<glyph horiz-adv-x="1148" d="M172 0v1104h238v-492l415 492h293l-446 -510l461 -594h-302l-421 561v-561h-238zM258 -375l242 307h268l-287 -307h-223z" />
<glyph horiz-adv-x="901" d="M160 -375l241 307h269l-287 -307h-223zM168 0v1104h238v-918h487v-186h-725z" />
<glyph horiz-adv-x="1302" d="M172 0v1104h279l352 -586q78 -131 117 -215v801h213v-1104h-275l-342 569q-86 143 -131 230v-799h-213zM297 -375l240 307h270l-289 -307h-221z" />
<glyph horiz-adv-x="1280" d="M98 559q0 276 164 434q139 133 379 133q281 0 420 -178q123 -154 123 -395q0 -285 -164 -442q-135 -133 -379 -134q-279 0 -420 179q-123 153 -123 403zM301 1288v154h678v-154h-678zM346 557q0 -188 79 -294.5t216 -106.5t216 106.5t79 288.5q0 184 -79 290.5 t-216 106.5q-135 0 -215 -105.5t-80 -285.5z" />
<glyph horiz-adv-x="1089" d="M172 0v1104h381q201 0 293 -57q127 -76 127 -244q0 -109 -53.5 -180.5t-153.5 -92.5q51 -20 75.5 -52t71.5 -136l156 -342h-250l-108 240q-59 131 -101.5 166.5t-136.5 35.5h-70v-442h-231zM231 -375l240 307h270l-288 -307h-222zM399 616h99q125 0 181 38t56 122 t-52 119t-177 35h-107v-314z" />
<glyph horiz-adv-x="1247" d="M162 496v608h237v-655q0 -166 49.5 -229.5t176.5 -63.5t175 63.5t48 229.5v655h237v-608q0 -182 -15 -258t-62 -132q-111 -129 -383 -129q-305 0 -406 160q-35 51 -46 124t-11 235zM287 1538h153q6 -86 49 -124t135.5 -38t134.5 38t50 124h152q-2 -133 -52 -201 q-82 -119 -284.5 -118.5t-286.5 118.5q-49 68 -51 201z" />
<glyph horiz-adv-x="1527" d="M98 578q0 408 219 616q66 66 145 103.5t253 88.5q164 47 264 134l104 -160q-68 -57 -138.5 -90t-235.5 -80q-123 -37 -176.5 -68.5t-110.5 -103.5q78 31 137 31q82 0 130 -38t81 -126q90 182 281 182q184 0 287.5 -133t103.5 -373q0 -319 -209 -561h-219q102 162 141 285 t39 280q0 319 -168 320q-102 0 -131 -109q-16 -55 -16 -190v-178h-217v178q0 156 -23 217q-37 84 -127 84q-172 0 -172 -322q0 -158 39 -279.5t141 -285.5h-219q-203 238 -203 578z" />
<glyph horiz-adv-x="1247" d="M162 496v608h237v-655q0 -166 49.5 -229.5t176.5 -63.5t175 63.5t48 229.5v655h237v-608q0 -182 -15 -258t-62 -132q-111 -129 -383 -129q-305 0 -406 160q-35 51 -46 124t-11 235zM285 1288v154h678v-154h-678z" />
<glyph horiz-adv-x="1247" d="M162 496v608h237v-655q0 -166 49.5 -229.5t176.5 -63.5t175 63.5t48 229.5v655h237v-608q0 -176 -14 -252t-57 -131q-61 -70 -168 -107q-127 -72 -178.5 -124t-51.5 -109q0 -43 34 -70t89 -27q41 0 88 13l13 -119q-94 -20 -160 -21q-119 0 -188.5 51.5t-69.5 137.5 q0 139 211 239h-29q-285 0 -385 158q-35 53 -46 126t-11 235z" />
<glyph horiz-adv-x="1089" d="M162 0v1104h381q201 0 293 -57q127 -76 127 -244q0 -109 -53.5 -179.5t-153.5 -93.5q51 -20 75.5 -52t71.5 -136l156 -342h-250l-109 240q-59 131 -101 166.5t-136 35.5h-70v-442h-231zM162 1538h223l145 -186l144 186h225l-227 -299h-285zM389 616h98q125 0 181.5 38 t56.5 122q0 92 -70 129q-49 25 -159 25h-107v-314z" />
<glyph horiz-adv-x="970" d="M98 41l37 197q176 -82 309 -82q82 0 131.5 37.5t49.5 103.5q0 53 -39 86t-170 86q-162 66 -219 109q-96 72 -97 206q0 160 106.5 251t293.5 91q156 0 334 -63l-50 -193q-170 78 -278 78q-70 0 -114 -33.5t-44 -87.5q0 -47 40 -79.5t153 -79.5q170 -66 237 -117 q96 -78 96 -227q0 -166 -107.5 -256.5t-305.5 -90.5q-185 1 -363 64zM133 -375l240 307h270l-289 -307h-221z" />
<glyph horiz-adv-x="1239" d="M98 541q0 274 155 430.5t425 156.5q197 0 395 -96l-80 -176q-150 94 -299 94q-158 0 -253 -109.5t-95 -293.5q0 -174 95.5 -281.5t248.5 -107.5q80 0 152 30v250h-213v176h444v-561q-205 -76 -395 -76q-274 0 -427 148t-153 416zM479 1210l287 308h223l-241 -308h-269z " />
<glyph horiz-adv-x="798" d="M29 922l356 194h207v-1116h-238v862l-223 -127z" />
<glyph horiz-adv-x="935" d="M27 0v176q209 172 364 328q106 109 147.5 173t41.5 124q0 72 -45.5 109.5t-128.5 37.5q-131 0 -300 -88l-63 176q205 90 397 90q186 0 286.5 -82.5t100.5 -236.5q0 -135 -100 -268t-367 -355h478v-184h-811z" />
<glyph horiz-adv-x="976" d="M29 43l57 178q154 -66 315 -65q223 0 224 170q0 84 -71 120.5t-235 36.5q-43 0 -112 -2v183q37 -4 92 -5q311 0 311 162q0 127 -194 127q-133 0 -297 -65l-51 172q201 72 385 71q406 0 405 -299q0 -98 -43 -155.5t-149 -96.5q207 -53 206 -256q0 -168 -116.5 -255 t-339.5 -87q-221 0 -387 66z" />
<glyph horiz-adv-x="1001" d="M16 270v185l510 649h279v-662h170v-172h-170v-270h-236v270h-553zM238 442h337v439z" />
<glyph horiz-adv-x="1021" d="M68 55l73 183q166 -82 295 -82q113 0 176.5 54t63.5 150q0 170 -248 170q-117 0 -303 -49l25 623h727v-184h-498l-8 -226q76 14 139 15q414 0 414 -340q0 -195 -129 -299q-117 -92 -338 -92.5t-389 77.5z" />
<glyph horiz-adv-x="1056" d="M94 451q0 362 205 544q147 131 403 131q66 0 197 -20l-22 -174q-92 16 -146 16q-299 0 -375 -307q109 80 252 80q176 0 274.5 -92t98.5 -256q0 -186 -116.5 -291t-323.5 -105q-447 1 -447 474zM338 354q0 -94 54 -148t148.5 -54t148.5 54t54 146q0 90 -54 144.5 t-146 54.5q-94 0 -149.5 -53.5t-55.5 -143.5z" />
<glyph horiz-adv-x="907" d="M20 918v186h850v-174l-520 -930h-284l536 918h-582z" />
<glyph horiz-adv-x="1052" d="M74 303q0 96 51 159.5t168 115.5q-102 45 -145.5 101t-43.5 146q0 143 111 222t309 79q205 0 315.5 -78.5t110.5 -222.5q0 -86 -41 -140t-143 -101q115 -55 164 -119t49 -158q0 -156 -120 -243t-333 -87t-332.5 86t-119.5 240zM315 311q0 -72 57.5 -115.5t153.5 -43.5 q94 0 152.5 43t58.5 110q0 125 -229 191q-193 -50 -193 -185zM342 821q0 -113 221 -172l17 6q133 53 133 162q0 63 -49.5 100t-137.5 37q-84 0 -134 -36t-50 -97z" />
<glyph horiz-adv-x="1056" d="M78 731q0 186 115.5 290.5t320.5 104.5q451 0 451 -473q0 -172 -53.5 -314t-151.5 -230q-150 -131 -404 -132q-76 0 -196 21l20 174q82 -16 148 -16q299 0 372 307q-106 -80 -249 -80q-176 0 -274.5 92t-98.5 256zM315 751.5q0 -92.5 54.5 -145.5t146.5 -53t148.5 54.5 t56.5 142.5q0 94 -54.5 148t-148.5 54t-148.5 -54t-54.5 -146.5z" />
<glyph horiz-adv-x="1101" d="M94 557q0 569 457 569q231 0 344 -141t113 -432q0 -293 -113 -434.5t-344 -141.5q-233 0 -345 141.5t-112 438.5zM342 557q0 -401 209 -401t209 395q0 397 -209 397t-209 -391z" />
<glyph horiz-adv-x="1028" d="M59 0v182h142q33 53 32 228v77h-157v166h157v58q0 135 18.5 203.5t67.5 117.5q92 92 295 92q182 0 365 -75l-66 -170q-143 66 -251 65q-104 0 -147.5 -56.5t-43.5 -189.5v-45h285v-166h-285v-77q0 -168 -22 -228h509v-182h-899z" />
<glyph horiz-adv-x="1009" d="M119 41l37 197q182 -82 309 -82q82 0 131 37.5t49 103.5q0 53 -39 86t-170 86q-164 68 -219 109q-96 72 -96 208q0 139 84 228.5t233 107.5v183h123v-179q158 -10 293 -63l-49 -191q-168 76 -279 76q-70 0 -113.5 -33.5t-43.5 -87.5q0 -47 40 -79.5t154 -79.5 q176 -72 236 -119q96 -74 96 -225q0 -147 -86 -236.5t-248 -105.5v-183h-123v178q-176 9 -319 64z" />
<glyph horiz-adv-x="964" d="M129 682q0 184 95 297t270 131v195h122v-193q127 -10 240 -68l-74 -157q-86 61 -184 61q-106 0 -165.5 -68.5t-59.5 -189.5q0 -119 62.5 -187.5t170.5 -68.5q98 0 185 62l71 -158q-102 -61 -246 -70v-188h-122v192q-176 20 -270.5 125t-94.5 285z" />
<glyph horiz-adv-x="929" d="M-63 -156l43 170q82 -27 131 -26q63 0 90.5 47t52.5 198l41 252h-158v166h182l19 107q29 188 74 258q68 111 241 110q100 0 238 -43l-49 -163q-72 27 -131 26q-57 0 -86 -43t-50 -164l-14 -88h223v-166h-247l-48 -292q-25 -150 -42 -207.5t-50 -96.5q-72 -84 -231 -84 q-120 0 -229 39z" />
<glyph horiz-adv-x="1132" d="M10 385l47 117h131q-2 16 -2 39q0 27 2 53h-178l47 117h146q113 416 532 415q195 0 350 -77l-69 -175q-139 74 -262 74q-117 0 -187.5 -56t-111.5 -181h495l-47 -117h-467q-2 -23 -2 -55q0 -23 2 -37h432l-47 -117h-364q51 -229 305 -229q137 0 272 67l58 -174 q-156 -72 -355 -72q-305 0 -440 177q-57 78 -94 231h-193z" />
<glyph horiz-adv-x="1114" d="M6 1104h291l266 -406l268 406h281l-334 -483h195v-117h-268l-27 -41v-49h295v-117h-295v-297h-240v297h-295v117h295v49l-26 41h-269v117h195z" />
<glyph horiz-adv-x="1560" d="M61 809q0 154 75 235.5t218.5 81.5t218 -81.5t74.5 -239.5q0 -156 -74.5 -238t-218.5 -82q-293 0 -293 324zM238 809q0 -195 116.5 -195t116.5 191q0 193 -117 192q-55 0 -85.5 -49t-30.5 -139zM446 -27l508 1157h160l-506 -1157h-162zM913 301q0 154 75 235.5 t218.5 81.5t218 -81.5t74.5 -237.5q0 -158 -74.5 -240t-218.5 -82q-293 0 -293 324zM1090 301q0 -195 116.5 -195t116.5 193q0 190 -117 190q-55 0 -85.5 -49t-30.5 -139z" />
<glyph horiz-adv-x="2234" d="M61 809q0 154 75 235.5t218.5 81.5t218 -81.5t74.5 -239.5q0 -156 -74.5 -238t-218.5 -82q-293 0 -293 324zM238 809q0 -195 116.5 -195t116.5 191q0 193 -117 192q-55 0 -85.5 -49t-30.5 -139zM446 -27l508 1157h160l-506 -1157h-162zM913 301q0 154 75 235.5 t218.5 81.5t218 -81.5t74.5 -237.5q0 -158 -74.5 -240t-218.5 -82q-293 0 -293 324zM1090 301q0 -195 116.5 -195t116.5 193q0 190 -117 190q-55 0 -85.5 -49t-30.5 -139zM1589 301q0 154 75 235.5t216 81.5q143 0 218 -81.5t75 -237.5q0 -158 -75 -240t-218 -82 q-291 0 -291 324zM1765 301q0 -195 117 -195q115 0 115 193q0 190 -115 190q-55 0 -86 -49t-31 -139z" />
<glyph d="M225 -375l242 307h268l-286 -307h-224z" />
<glyph horiz-adv-x="1904" d="M92 522q0 254 136.5 399.5t373.5 145.5q217 0 356 -127q129 127 347 127q233 0 371.5 -146.5t138.5 -394.5q0 -156 -60.5 -279.5t-198.5 -246.5h-231q242 244 242 518q0 168 -72 267.5t-192 99.5q-125 0 -232 -113q45 -111 45 -254q0 -250 -137 -395.5t-374.5 -145.5 t-375 145.5t-137.5 399.5zM340 526q0 -172 69.5 -269t194.5 -97q123 0 193.5 97t70.5 265t-70.5 265.5t-193.5 97.5t-193.5 -96.5t-70.5 -262.5z" />
<glyph horiz-adv-x="1239" d="M90 524q0 248 118 395.5t318 147.5q109 0 182.5 -41t151.5 -143q-8 141 -13 184t-22 94q-51 176 -293 176q-154 0 -290 -88l-56 191q168 80 365 80q358 0 459 -258q70 -184 69 -639q0 -369 -147 -517q-133 -129 -348 -129q-229 0 -361.5 145.5t-132.5 401.5zM338 528 q0 -170 65.5 -269t178.5 -99q162 0 219 166q29 90 28 258v106q-96 195 -258 195q-106 0 -169.5 -96.5t-63.5 -260.5z" />
<glyph horiz-adv-x="993" d="M-20 68l59 190q170 -98 334 -98q143 0 211.5 67.5t68.5 210.5q0 158 -88 230.5t-276 72.5q-53 0 -117 -6v193q53 -6 96 -6q193 0 279 38.5t86 126.5q0 102 -84 138q-35 14 -189 30q-227 20 -342 107l101 164q70 -49 141.5 -67.5t231.5 -28.5q389 -31 389 -336 q0 -188 -197 -263q217 -96 217 -397q0 -225 -130 -341t-382 -116q-214 1 -409 91z" />
<glyph horiz-adv-x="1527" d="M92 543q0 238 86 366q104 158 305 158q188 0 281 -182q92 182 280 182q184 0 288 -133t104 -373q0 -319 -209 -561h-219q102 162 141 285t39 280q0 319 -168 320q-102 0 -131 -109q-16 -55 -17 -190v-178h-217v178q0 156 -22 215q-35 84 -125 84t-129 -82t-39 -268 q0 -193 33 -306.5t110 -193.5q82 -84 203 -119l221 -51q301 -63 502 -164l-111 -176q-178 100 -400 143t-560 39h-215v182h239q-270 222 -270 654z" />
<glyph horiz-adv-x="1200" d="M162 0v1085q0 188 71 291q100 143 314 144q152 0 234.5 -69t82.5 -194q0 -195 -188 -305q-100 -57 -275 -110v-117q78 74 150 103.5t172 29.5q188 0 287.5 -97t99.5 -280q0 -209 -63 -481h-250q66 274 65 461q0 215 -176 215q-119 0 -202 -116t-83 -279v-281h-239z M401 1024q117 39 170.5 92t53.5 133q0 88 -82 88q-141 0 -142 -194v-119z" />
<glyph horiz-adv-x="1441" d="M92 973q0 248 96 397q98 150 291 150q131 0 206 -84t75 -234q0 -166 -103.5 -309t-289.5 -234q33 -137 66.5 -219t92.5 -159q94 -121 205 -121q55 0 87 26.5t32 71.5q0 66 -52.5 115t-197.5 121l90 163q127 -70 169 -87t81 -17q43 0 69.5 25.5t26.5 66.5q0 57 -52 99 t-202 106l80 162q25 -8 80 -37q78 -35 127 -35q43 0 68.5 22.5t25.5 59.5q0 35 -16.5 55.5t-81.5 65.5q-119 84 -164 139t-78 158l185 92q27 -92 61.5 -136t140.5 -122q117 -88 149 -133t32 -123q0 -92 -50.5 -145.5t-158.5 -73.5q47 -45 64.5 -83t17.5 -95 q0 -70 -39 -124.5t-105 -74.5q-41 -12 -92 -19q49 -70 49 -149q0 -127 -95 -202t-257 -75q-279 0 -449 271q-86 137 -135 330.5t-49 394.5zM332 956q0 -47 2 -82q8 4 14 11q180 127 180 315q0 137 -55 137q-59 0 -100 -109.5t-41 -271.5z" />
<glyph horiz-adv-x="1030" d="M16 -371l58 189q172 -98 336 -99q143 0 211.5 68t68.5 211q0 158 -88 230.5t-276 72.5q-55 0 -117 -6v176l366 391h-507v182h823v-161l-393 -412q186 -18 295 -117q145 -133 145 -360q0 -225 -130 -341t-382 -116q-226 0 -410 92z" />
</font>
</defs>
</svg>
