<?xml version="1.0" standalone="no"?>
<!DOCTYPE svg PUBLIC "-//W3C//DTD SVG 1.1//EN" "http://www.w3.org/Graphics/SVG/1.1/DTD/svg11.dtd" >
<svg xmlns="http://www.w3.org/2000/svg">
<metadata>
This is a custom SVG webfont generated by Font Squirrel.
Copyright   : Design 200107 by Hans Jurg Hunziker
Foundry URL : wwwurwppde
</metadata>
<defs>
<font id="SiemensSansBlack" horiz-adv-x="1294" >
<font-face units-per-em="2048" ascent="1638" descent="-410" />
<missing-glyph horiz-adv-x="512" />
<glyph unicode="&#xfb01;" horiz-adv-x="1415" d="M49 823v226h166v67q0 213 86 310.5t277 97.5q109 0 231 -35l-25 -234q-72 27 -122 27q-137 0 -138 -217v-16h234v-226h-234v-823h-309v823h-166zM924 1366q0 76 51 127t129 51t129 -51t51 -129t-51 -129t-129 -51q-80 0 -130 51t-50 131zM948 0v1049h309v-1049h-309z" />
<glyph unicode="&#xfb02;" horiz-adv-x="1421" d="M49 823v226h166v67q0 213 86 310.5t277 97.5q109 0 231 -35l-25 -234q-72 27 -122 27q-137 0 -138 -217v-16h234v-226h-234v-823h-309v823h-166zM950 0v1497h310v-1497h-310z" />
<glyph unicode=" "  horiz-adv-x="512" />
<glyph unicode="&#x09;" horiz-adv-x="512" />
<glyph unicode="&#xa0;" horiz-adv-x="512" />
<glyph unicode="!" horiz-adv-x="743" d="M205 168q0 80 54 133t136 53t135.5 -54t53.5 -136t-53.5 -135.5t-135.5 -53.5q-84 0 -137 54.5t-53 138.5zM240 1417h309l-19 -948h-272z" />
<glyph unicode="&#x22;" horiz-adv-x="923" d="M94 1497h309l-10 -579h-289zM520 1497h309l-10 -579h-289z" />
<glyph unicode="#" d="M55 373v225h215l31 209h-176v225h211l59 385h250l-59 -385h213l59 385h250l-59 -385h190v-225h-225l-31 -209h186v-225h-221l-57 -373h-250l57 373h-213l-57 -373h-250l58 373h-181zM520 598h213l31 209h-213z" />
<glyph unicode="$" d="M78 66l49 266q197 -109 430 -109v369q-197 59 -281 104q-190 104 -190 324q0 135 63.5 232.5t180.5 144.5q86 35 243 43v176h140v-176q193 -8 407 -74l-59 -256q-158 66 -348 80v-340q236 -59 329 -115q162 -98 162 -321q0 -201 -124 -307.5t-384 -126.5v-183h-139v178 q-276 3 -479 91zM408 1040q0 -63 35.5 -96t129.5 -59v301q-165 -17 -165 -146zM696 227q96 8 141.5 47t45.5 117q0 68 -38 101.5t-149 62.5v-328z" />
<glyph unicode="%" horiz-adv-x="1859" d="M76 1032q0 193 90 295.5t260 102.5t259 -103.5t89 -298t-90 -298t-260 -103.5t-259 103t-89 302zM301 1030q0 -233 125 -233q123 0 123 231.5t-123 231.5q-125 -1 -125 -230zM549 -33l563 1483h197l-564 -1483h-196zM1083 393q0 193 90.5 295.5t260.5 102.5t259 -103.5 t89 -298t-90 -298t-260 -103.5t-259.5 103t-89.5 302zM1309 391q0 -233 125 -233q123 0 122.5 231.5t-122.5 231.5q-125 -1 -125 -230z" />
<glyph unicode="&#x26;" horiz-adv-x="1474" d="M86 414q0 137 66.5 226t214.5 148q-88 94 -120 158t-32 146q0 162 121 256t330 94q221 0 339.5 -93.5t118.5 -263.5q0 -258 -311 -362l229 -238q88 117 93 314h278q-4 -303 -180 -512l278 -287h-391l-104 106q-90 -72 -183.5 -101.5t-222.5 -29.5q-240 0 -382 119 t-142 320zM406 414q0 -90 62 -146.5t161 -56.5q106 0 205 84l-297 313q-131 -69 -131 -194zM528 1069q0 -100 134 -192l18 8q80 37 113.5 76.5t33.5 99.5q0 66 -41 105.5t-110 39.5q-66 0 -107 -38t-41 -99z" />
<glyph unicode="'" horiz-adv-x="497" d="M94 1497h309l-10 -579h-289z" />
<glyph unicode="(" horiz-adv-x="917" d="M162 621q0 360 207 649q59 84 122.5 145.5t182.5 151.5l174 -187q-203 -166 -293 -345t-90 -414q0 -238 90 -417t293 -345l-174 -187q-119 90 -182.5 151.5t-122.5 145.5q-207 290 -207 652z" />
<glyph unicode=")" horiz-adv-x="917" d="M70 -141q203 168 293 347t90 414.5t-90.5 413.5t-292.5 346l174 187q115 -86 178 -147.5t127 -149.5q207 -293 207 -649q0 -358 -207 -652q-63 -88 -127 -149.5t-178 -147.5z" />
<glyph unicode="*" d="M227 1061l70 229l272 -127l-43 295h242l-41 -295l272 127l70 -229l-291 -47l201 -217l-201 -140l-131 267l-131 -267l-199 140l199 217z" />
<glyph unicode="+" d="M123 406v237h393v406h262v-406h393v-237h-393v-406h-262v406h-393z" />
<glyph unicode="," horiz-adv-x="647" d="M41 -250l178 594h340l-229 -594h-289z" />
<glyph unicode="-" horiz-adv-x="813" d="M94 461v237h625v-237h-625z" />
<glyph unicode="." horiz-adv-x="647" d="M135 168q0 80 54.5 133t136.5 53t135 -54t53 -136t-53 -135.5t-135 -53.5q-84 0 -137.5 54.5t-53.5 138.5z" />
<glyph unicode="/" horiz-adv-x="839" d="M51 -55l436 1491h291l-436 -1491h-291z" />
<glyph unicode="0" d="M94 717q0 725 553 725q334 0 467 -260q86 -164 86 -473q0 -360 -121 -531q-143 -203 -432 -203q-332 0 -467 261q-86 166 -86 481zM414 715q0 -254 56 -372t177 -118t177.5 118t56.5 365.5t-56.5 365.5t-177.5 118q-119 0 -176 -116.5t-57 -360.5z" />
<glyph unicode="1" d="M147 1151l453 266h274v-1417h-309v1085l-274 -172z" />
<glyph unicode="2" d="M106 0v240q299 252 451 397q150 143 203 221t53 156q0 80 -65.5 129t-169.5 49q-150 0 -379 -96l-80 247q250 98 495 99q248 0 383.5 -107.5t135.5 -306.5q0 -168 -115 -321.5t-465 -456.5h592v-250h-1039z" />
<glyph unicode="3" d="M84 55l70 248q172 -80 370 -80q137 0 211 50.5t74 146.5q0 115 -109 162q-76 35 -233 34q-61 0 -160 -4v234q41 -2 94 -2q207 0 300.5 43t93.5 137q0 82 -63.5 125t-182.5 43q-147 0 -352 -76l-68 246q227 80 467 80q254 0 386 -100.5t132 -290.5q0 -276 -293 -322 q307 -45 307 -323q0 -209 -153 -326q-141 -106 -418 -107q-262 0 -473 82z" />
<glyph unicode="4" d="M37 322v249l614 846h375v-866h191v-229h-191v-322h-309v322h-680zM332 551h393v567z" />
<glyph unicode="5" d="M94 57l80 250q184 -82 356 -82q164 0 238 80q61 66 61 162q0 223 -340 223q-119 0 -315 -37l29 764h897v-250h-596l-8 -245q57 6 118 6q264 0 399.5 -117t135.5 -346q0 -236 -143 -363q-141 -127 -428 -127q-273 0 -484 82z" />
<glyph unicode="6" d="M113 580q0 221 62.5 403t174.5 289q176 170 488 170q121 0 260 -25l-31 -262q-125 37 -225 37q-170 0 -271.5 -98.5t-115.5 -276.5q133 125 311 125q203 0 316.5 -120t113.5 -337q0 -242 -142.5 -376t-396.5 -134q-268 0 -406 153t-138 452zM432 463q0 -115 60.5 -180.5 t166.5 -65.5q102 0 161 67.5t59 184.5q0 109 -55.5 169t-155.5 60q-106 0 -171 -64.5t-65 -170.5z" />
<glyph unicode="7" d="M121 1167v250h1034v-235l-623 -1182h-344l623 1167h-690z" />
<glyph unicode="8" d="M94 401q0 127 61.5 207t198.5 135q-121 59 -175 132t-54 178q0 180 140.5 284.5t381.5 104.5q240 0 380 -104.5t140 -284.5q0 -106 -52 -177t-177 -133q137 -55 198.5 -135t61.5 -207q0 -201 -145.5 -313.5t-405.5 -112.5q-262 0 -407.5 112.5t-145.5 313.5zM414 397 q0 -84 63.5 -134t169.5 -50q104 0 168 50t64 134q0 166 -244 228q-221 -62 -221 -228zM438 1053q0 -145 209 -201l17 4q84 20 137 73.5t53 119.5q0 74 -55.5 114.5t-151.5 40.5t-152.5 -40.5t-56.5 -110.5z" />
<glyph unicode="9" d="M98 932q0 242 142.5 376t396.5 134q268 0 406.5 -152.5t138.5 -451.5q0 -221 -62.5 -403.5t-175.5 -289.5q-176 -170 -487 -170q-121 0 -260 25l30 262q125 -37 226 -37q170 0 271 98.5t116 276.5q-133 -125 -312 -125q-203 0 -316.5 120t-113.5 337zM416 948 q0 -109 55 -169t156 -60q106 0 170.5 64.5t64.5 170.5q0 115 -60.5 180.5t-166.5 65.5q-102 0 -160.5 -67.5t-58.5 -184.5z" />
<glyph unicode=":" horiz-adv-x="647" d="M154 168q0 80 54 133t136 53t135 -54t53 -136t-53 -135.5t-135 -53.5q-84 0 -137 54.5t-53 138.5zM154 887q0 80 54 133t136 53t135 -54t53 -136t-53 -135.5t-135 -53.5q-84 0 -137 54.5t-53 138.5z" />
<glyph unicode=";" horiz-adv-x="647" d="M8 -250l178 594h340l-229 -594h-289zM154 887q0 80 54 133t136 53t135 -54t53 -136t-53 -135.5t-135 -53.5q-84 0 -137 54.5t-53 138.5z" />
<glyph unicode="&#x3c;" d="M117 422v205l1048 446v-274l-645 -275l645 -274v-275z" />
<glyph unicode="=" d="M123 197v237h1048v-237h-1048zM123 614v238h1048v-238h-1048z" />
<glyph unicode="&#x3e;" d="M129 -25v275l645 274l-645 275v274l1049 -446v-205z" />
<glyph unicode="?" horiz-adv-x="997" d="M80 1327q227 115 444 115q213 0 333 -95.5t120 -265.5q0 -104 -51.5 -179t-182.5 -161q-100 -66 -122.5 -102.5t-22.5 -126.5v-41h-295v88q0 131 24.5 176t143.5 129q111 78 143.5 115t32.5 88q0 63 -46 101t-124 38q-123 0 -309 -102zM262 168q0 80 54.5 133t136.5 53 t135 -54t53 -136t-53 -135.5t-135 -53.5q-84 0 -137.5 54.5t-53.5 138.5z" />
<glyph unicode="@" horiz-adv-x="1699" d="M51 709q0 332 227.5 532.5t604.5 200.5q348 0 558 -174t210 -461q0 -213 -120 -351.5t-302 -138.5q-168 0 -197 140q-88 -139 -270 -140q-152 0 -237 83t-85 231q0 203 140.5 331t361.5 128q186 0 320 -52l-64 -389q-8 -51 -8 -88q0 -63 57 -63q78 0 134.5 95t56.5 226 q0 211 -142 318q-160 121 -409 120q-279 0 -451 -153.5t-172 -401.5q0 -254 170 -396t469 -142q186 0 359 49l18 -197q-170 -41 -375 -41q-403 0 -628.5 194t-225.5 540zM686 618q0 -57 31 -88.5t84 -31.5q78 0 121 65q27 43 47 168l30 180q-35 8 -59 9q-100 0 -177 -90.5 t-77 -211.5z" />
<glyph unicode="A" horiz-adv-x="1458" d="M12 0l541 1417h334l559 -1417h-338l-123 338h-534l-121 -338h-318zM535 578h366l-110 307q-39 111 -74 221q-23 -84 -72 -221z" />
<glyph unicode="B" horiz-adv-x="1296" d="M168 0v1417h510q152 0 229.5 -17.5t136.5 -62.5q63 -47 99.5 -128t36.5 -171q0 -240 -213 -313q236 -74 235 -324q0 -211 -145 -317q-113 -84 -344 -84h-545zM479 229h152q119 0 170 27q78 43 78 160q0 109 -80 162q-55 35 -164 34h-156v-383zM479 823h148q131 0 182 37 q55 45 55 139q0 96 -61 148q-55 41 -193 41h-131v-365z" />
<glyph unicode="C" horiz-adv-x="1292" d="M94 696q0 348 187.5 547t515.5 199q219 0 448 -101l-106 -241q-166 92 -324 92q-184 0 -287.5 -128t-103.5 -353q0 -229 108.5 -357.5t301.5 -128.5q88 0 160.5 23.5t176.5 85.5l93 -254q-125 -61 -219.5 -83t-231.5 -22q-346 0 -532 189q-187 192 -187 532z" />
<glyph unicode="D" horiz-adv-x="1458" d="M168 0v1417h393q231 0 368.5 -38t237.5 -130q197 -180 197 -540q0 -432 -270 -603q-96 -59 -220 -82.5t-335 -23.5h-371zM487 250h62q219 0 323 72q78 51 120 153.5t42 237.5q0 115 -34.5 213t-96.5 151q-59 53 -133 71.5t-221 18.5h-62v-917z" />
<glyph unicode="E" horiz-adv-x="1200" d="M168 0v1417h897v-250h-578v-323h549v-250h-549v-344h609v-250h-928z" />
<glyph unicode="F" horiz-adv-x="1163" d="M168 0v1417h901v-250h-582v-323h553v-250h-553v-594h-319z" />
<glyph unicode="G" horiz-adv-x="1503" d="M94 692q0 412 264 611q178 139 482 139q264 0 495 -96l-108 -250q-193 96 -367 96q-211 0 -323.5 -126t-112.5 -361q0 -219 112.5 -349.5t305.5 -130.5q98 0 184 33v285h-244v250h553v-723q-164 -57 -266 -76t-240 -19q-358 0 -542 187q-193 192 -193 530z" />
<glyph unicode="H" horiz-adv-x="1492" d="M168 0v1417h319v-569h519v569h319v-1417h-319v598h-519v-598h-319z" />
<glyph unicode="I" horiz-adv-x="655" d="M168 0v1417h319v-1417h-319z" />
<glyph unicode="J" horiz-adv-x="866" d="M4 18l27 263q102 -47 180 -48q104 0 149 70q31 43 31 209v905h320v-835q0 -229 -16.5 -318.5t-73.5 -157.5q-106 -131 -349 -131q-153 0 -268 43z" />
<glyph unicode="K" horiz-adv-x="1396" d="M168 0v1417h319v-659l525 659h360l-534 -655l555 -762h-381l-525 739v-739h-319z" />
<glyph unicode="L" horiz-adv-x="1087" d="M168 0v1417h319v-1167h609v-250h-928z" />
<glyph unicode="M" horiz-adv-x="1935" d="M168 0v1417h473l246 -766q49 -160 82 -286q51 195 82 286l247 766h469v-1417h-307v1147q-29 -119 -78 -270l-284 -877h-273l-276 854l-29 86l-24 80l-17 61q-2 16 -16 66v-1147h-295z" />
<glyph unicode="N" horiz-adv-x="1540" d="M168 0v1417h352l377 -637q100 -174 174 -334q-6 82 -6 271v700h307v-1417h-346l-354 594q-106 182 -203 379q6 -119 6 -338v-635h-307z" />
<glyph unicode="O" horiz-adv-x="1554" d="M94 717q0 356 213 559q176 166 471 166q342 0 520 -223q162 -201 162 -510q0 -360 -213 -568q-172 -166 -471 -166q-342 0 -520 224q-162 201 -162 518zM424 715q0 -227 94 -358.5t258 -131.5t259 130t95 353.5t-95 353.5t-259 130q-162 0 -257 -129t-95 -348z" />
<glyph unicode="P" horiz-adv-x="1200" d="M168 0v1417h399q186 0 281.5 -19.5t165.5 -72.5q154 -115 153 -344q0 -223 -149 -344q-125 -96 -397 -96h-134v-541h-319zM479 780h92q135 0 191 29q86 41 86 162q0 117 -82 170q-63 37 -195 37h-92v-398z" />
<glyph unicode="Q" horiz-adv-x="1554" d="M94 709q0 360 213 567q172 166 471 166q342 0 520 -223q162 -201 162 -510.5t-164 -513.5q-63 -80 -188 -150q78 -82 287 -195l-160 -227q-272 131 -506 354q-223 14 -362 115q-131 96 -202 256t-71 361zM424 715q0 -227 94 -358.5t258 -131.5t259 130t95 353.5 t-95 353.5t-259 130q-162 0 -257 -129t-95 -348z" />
<glyph unicode="R" horiz-adv-x="1302" d="M168 0v1417h512q248 0 356 -80q139 -104 140 -301q0 -137 -69 -230t-196 -128q59 -25 91 -70t110 -211l178 -397h-340l-114 270q-78 186 -130.5 243.5t-144.5 57.5h-74v-571h-319zM479 811h111q266 0 266 188q0 94 -61 140q-57 39 -205 39h-111v-367z" />
<glyph unicode="S" horiz-adv-x="1183" d="M94 55l45 273q244 -102 414 -103q96 0 151.5 45t55.5 123q0 61 -44 96t-216 105q-203 82 -279 137q-125 94 -125 268q0 225 162 349q125 94 334 94q207 0 452 -78l-65 -258q-139 51 -213 68.5t-154 17.5q-88 0 -137 -40t-49 -110q0 -57 42 -89.5t197.5 -96t208 -89.5 t97.5 -60q123 -96 123 -287q0 -217 -134.5 -331t-390.5 -114q-250 0 -475 80z" />
<glyph unicode="T" horiz-adv-x="1169" d="M12 1167v250h1145v-250h-416v-1167h-319v1167h-410z" />
<glyph unicode="U" horiz-adv-x="1476" d="M156 633v784h319v-823q0 -215 49 -281q66 -88 215 -88q84 0 148.5 33t93.5 86q31 66 31 250v823h309v-784q0 -225 -17.5 -319.5t-74.5 -166.5q-141 -172 -490 -172q-389 0 -518 211q-39 66 -52 155t-13 292z" />
<glyph unicode="V" horiz-adv-x="1376" d="M-8 1417h332l235 -637q90 -236 135 -399q61 197 131 387l244 649h315l-536 -1417h-320z" />
<glyph unicode="W" horiz-adv-x="2004" d="M53 1417h314l145 -631q31 -133 72 -340q35 143 86 320l190 651h307l172 -610q47 -164 91 -344q41 199 75 344l146 610h301l-359 -1417h-309l-176 616q-47 156 -102 381q-51 -197 -107 -372l-190 -625h-312z" />
<glyph unicode="X" horiz-adv-x="1503" d="M33 0l524 727l-498 690h371l330 -463l334 463h364l-514 -698l520 -719h-385l-336 473l-333 -473h-377z" />
<glyph unicode="Y" horiz-adv-x="1353" d="M-20 1417h370l234 -375q57 -94 104 -184q45 86 107 186l231 373h348l-534 -835v-582h-320v582z" />
<glyph unicode="Z" horiz-adv-x="1220" d="M53 0v225l690 942h-665v250h1065v-225l-690 -942h714v-250h-1114z" />
<glyph unicode="[" horiz-adv-x="917" d="M242 -289v1819h508v-240h-218v-1337h218v-242h-508z" />
<glyph unicode="\" horiz-adv-x="839" d="M63 1436h291l437 -1491h-291z" />
<glyph unicode="]" horiz-adv-x="917" d="M168 -47h215v1337h-215v240h506v-1819h-506v242z" />
<glyph unicode="^" d="M49 721l483 696h230l483 -696h-342l-258 377l-254 -377h-342z" />
<glyph unicode="_" horiz-adv-x="1024" d="M-102 -215h1228v-225h-1228v225z" />
<glyph unicode="`" horiz-adv-x="1024" d="M121 1497h368l246 -299h-286z" />
<glyph unicode="a" horiz-adv-x="1206" d="M66 299q0 201 155 291q102 57 324 57q86 0 186 -8v12q0 96 -60.5 150.5t-168.5 54.5q-125 0 -293 -84l-59 217q182 84 399 84q264 0 391 -133q59 -61 79.5 -138t20.5 -239v-291q6 -227 13 -272h-297l-11 117q-78 -78 -152.5 -110t-180.5 -32q-162 0 -254 86t-92 238z M385 307q0 -63 38 -101t99 -38q117 0 209 135v164q-51 4 -100 4q-246 0 -246 -164z" />
<glyph unicode="b" horiz-adv-x="1282" d="M143 0q10 121 11 360v1137h309v-571q123 147 305 147q201 0 315.5 -147.5t114.5 -407.5q0 -264 -125 -412q-111 -131 -299 -131q-209 0 -321 168l-11 -143h-299zM463 373q94 -168 225 -168q84 0 137.5 90t53.5 235q0 143 -55.5 228.5t-147.5 85.5q-113 0 -213 -158v-313z " />
<glyph unicode="c" horiz-adv-x="1021" d="M84 526q0 266 152 418q127 129 364 129q190 0 363 -76l-82 -221q-121 72 -234 72q-119 0 -181.5 -85t-62.5 -245q0 -152 69 -232.5t200 -80.5q115 0 223 74l94 -220q-152 -84 -360 -84q-256 0 -400.5 145.5t-144.5 405.5z" />
<glyph unicode="d" horiz-adv-x="1282" d="M84 518q0 260 114.5 407.5t315.5 147.5q184 0 305 -147v571h309v-1137q0 -240 11 -360h-299l-11 143q-113 -168 -321 -168q-199 0 -311.5 144.5t-112.5 398.5zM403 530q0 -145 53.5 -235t137.5 -90q131 0 225 168v313q-100 158 -213 158q-92 0 -147.5 -85.5t-55.5 -228.5 z" />
<glyph unicode="e" horiz-adv-x="1228" d="M84 520q0 254 145 406q135 147 396 147q377 0 479 -278q45 -127 45 -373h-741q18 -225 274 -225q164 0 334 102l104 -219q-201 -104 -442 -105q-293 0 -443.5 138.5t-150.5 406.5zM408 625h430q-4 111 -59.5 171t-149.5 60q-96 0 -155.5 -61t-65.5 -170z" />
<glyph unicode="f" horiz-adv-x="813" d="M49 823v226h166v47q0 223 88 325.5t279 102.5q104 0 227 -35l-25 -234q-74 27 -122 27q-72 0 -105 -51t-33 -166v-16h234v-226h-234v-823h-309v823h-166z" />
<glyph unicode="g" horiz-adv-x="1296" d="M84 549q0 240 116.5 382t315.5 142q209 0 324 -158l8 134h295q-12 -311 -13 -412v-510q0 -188 -19 -273t-77 -155q-133 -164 -483 -164q-227 0 -416 78l82 223q150 -76 303 -76q209 0 271 127q31 63 30 219v66q-121 -143 -303 -143q-201 0 -317.5 139t-116.5 381z M403 545q0 -133 52.5 -210t144.5 -77q66 0 124 46t97 128v227q-29 84 -90 134.5t-135 50.5q-90 0 -141.5 -80t-51.5 -219z" />
<glyph unicode="h" horiz-adv-x="1310" d="M162 0v1497h311v-571q145 147 340 147q213 0 297 -149q47 -84 47 -275v-649h-309v625q0 100 -19 145q-35 74 -124 74q-123 0 -232 -164v-680h-311z" />
<glyph unicode="i" horiz-adv-x="624" d="M133 1366q0 76 51.5 127t129 51t129 -51t51.5 -129t-51.5 -129t-129.5 -51q-80 0 -130 51t-50 131zM158 0v1049h309v-1049h-309z" />
<glyph unicode="j" horiz-adv-x="659" d="M-82 -434l25 229q76 -23 116 -22q74 0 102.5 56t28.5 200v1020h310v-1043q0 -143 -16.5 -221t-59.5 -133q-88 -117 -289 -117q-100 0 -217 31zM166 1366q0 76 51 127t129 51t129 -51t51 -129t-51 -129t-129 -51q-80 0 -130 51t-50 131z" />
<glyph unicode="k" horiz-adv-x="1193" d="M162 0v1497h309v-889l326 441h346l-361 -455l410 -594h-367l-354 535v-535h-309z" />
<glyph unicode="l" horiz-adv-x="632" d="M162 0v1497h309v-1497h-309z" />
<glyph unicode="m" horiz-adv-x="1908" d="M154 1049h284l11 -148q78 92 157.5 132t184.5 40q217 0 292 -178q88 100 163 139t181 39q201 0 283 -149q45 -84 45 -275v-649h-309v625q0 98 -16 145q-29 74 -111 74q-109 0 -205 -164v-680h-309v655q0 188 -121 189q-113 0 -211 -164v-680h-309v659q0 103 -10 390z" />
<glyph unicode="n" horiz-adv-x="1310" d="M154 1049h284l11 -146q94 96 172.5 133t191.5 37q211 0 295 -149q49 -82 49 -275v-649h-309v625q0 100 -19 145q-35 74 -124 74q-123 0 -232 -164v-680h-309v659q0 154 -10 390z" />
<glyph unicode="o" horiz-adv-x="1247" d="M84 530q0 272 164 420q129 123 377 123q276 0 415 -166q123 -147 123 -383q0 -279 -164 -426q-129 -123 -376 -123q-276 0 -416 166q-123 147 -123 389zM403 528q0 -160 56.5 -243.5t163 -83.5t164 83t57.5 240q0 156 -56.5 240t-163 84t-164 -83t-57.5 -237z" />
<glyph unicode="p" horiz-adv-x="1282" d="M143 1049h299l11 -134q76 86 146.5 122t168.5 36q201 0 315.5 -148.5t114.5 -406.5q0 -264 -125 -412q-113 -131 -299 -131q-203 0 -311 152v-567h-309v1071q-1 287 -11 418zM463 373q94 -168 225 -168q84 0 137.5 90t53.5 235q0 143 -55.5 228.5t-147.5 85.5 q-113 0 -213 -158v-313z" />
<glyph unicode="q" horiz-adv-x="1282" d="M84 518q0 258 114.5 406.5t315.5 148.5q98 0 169 -36t146 -122l11 134h299q-10 -131 -11 -418v-1071h-309v567q-111 -152 -311 -152q-199 0 -311.5 144.5t-112.5 398.5zM403 530q0 -145 53.5 -235t137.5 -90q131 0 225 168v313q-100 158 -213 158q-92 0 -147.5 -85.5 t-55.5 -228.5z" />
<glyph unicode="r" horiz-adv-x="835" d="M154 1049h292l11 -201q76 215 264 215q49 0 104 -16l-14 -267q-53 12 -102 13q-186 0 -238 -226v-567h-307v696q0 179 -10 353z" />
<glyph unicode="s" horiz-adv-x="991" d="M84 66l78 229q145 -98 299 -98q147 0 147 104q0 47 -41 72q-25 14 -170 63q-168 57 -225 107q-80 70 -80 196q0 158 110.5 246t311.5 88q168 0 377 -74l-76 -229q-162 84 -291 84q-63 0 -99 -25.5t-36 -68.5q0 -33 25.5 -52.5t105.5 -48.5q213 -70 287 -124 q100 -76 100 -205q0 -143 -100 -244q-115 -111 -342 -111q-219 1 -381 91z" />
<glyph unicode="t" horiz-adv-x="813" d="M49 823v226h168v225l309 57v-282h232v-226h-232v-422q0 -100 32 -141t106 -41q37 0 110 21l27 -228q-129 -37 -254 -37q-193 0 -273 117q-57 82 -57 309v422h-168z" />
<glyph unicode="u" horiz-adv-x="1300" d="M154 399v650h309v-625q0 -100 18 -145q33 -74 121 -74q119 0 225 164v680h310v-660q0 -125 10 -389h-285l-10 145q-92 -96 -171 -133t-187 -37q-209 0 -293 150q-47 86 -47 274z" />
<glyph unicode="v" horiz-adv-x="1185" d="M16 1049h320l182 -484q57 -147 88 -250q35 119 88 258l178 476h297l-409 -1049h-330z" />
<glyph unicode="w" horiz-adv-x="1767" d="M41 1049h303l111 -392q37 -131 75 -321q43 190 84 330l117 383h305l123 -387q47 -154 88 -326q45 195 82 321l115 392h282l-321 -1049h-303l-121 379q-51 160 -104 362q-39 -164 -99 -360l-116 -381h-308z" />
<glyph unicode="x" horiz-adv-x="1226" d="M23 0l423 532l-397 517h354l218 -316l237 316h346l-409 -508l415 -541h-352l-237 336l-254 -336h-344z" />
<glyph unicode="y" horiz-adv-x="1181" d="M8 -420l53 234q82 -35 142 -35q76 0 124 53t111 207l-430 1010h328l186 -459q47 -111 90 -240q47 143 90 254l168 445h306l-422 -1022q-76 -180 -113 -252t-84 -125q-104 -117 -291 -117q-133 0 -258 47z" />
<glyph unicode="z" horiz-adv-x="983" d="M53 0v195l471 628h-444v226h829v-203l-465 -621h482v-225h-873z" />
<glyph unicode="{" horiz-adv-x="917" d="M121 524v193q102 4 137 31q25 18 32 47.5t7 113.5v244q0 231 74 303q43 43 104.5 58.5t183.5 15.5h154v-215h-108q-70 0 -91.5 -31t-21.5 -131v-287q0 -92 -15.5 -134t-56.5 -68q-39 -23 -147 -43q123 -23 164 -54q33 -29 44 -67.5t11 -124.5v-287q0 -100 21.5 -131 t91.5 -31h108v-215h-154q-123 0 -184 15.5t-104 58.5q-74 72 -74 303v244q0 90 -10.5 121.5t-42.5 50.5q-27 14 -123 20z" />
<glyph unicode="|" horiz-adv-x="647" d="M176 -440v1857h295v-1857h-295z" />
<glyph unicode="}" horiz-adv-x="917" d="M104 -74h109q70 0 91.5 31t21.5 131v287q0 92 15 134t56 69q39 23 148 43q-123 23 -164 53q-33 29 -44 67.5t-11 124.5v287q0 100 -21.5 131t-91.5 31h-109v215h154q123 0 184.5 -15.5t104.5 -58.5q74 -72 74 -303v-244q0 -90 10 -121.5t43 -50.5q27 -14 123 -20v-193 q-102 -4 -138 -30q-25 -18 -31.5 -48t-6.5 -114v-244q0 -231 -74 -303q-43 -43 -104.5 -58.5t-184.5 -15.5h-154v215z" />
<glyph unicode="~" d="M80 430q86 156 165 226.5t167 70.5q57 0 104 -16.5t189 -85.5q131 -61 180 -62q47 0 83 32t83 114l161 -88q-45 -100 -102 -177q-88 -123 -217 -122q-63 0 -130 23.5t-214 94.5q-86 45 -133 45q-45 0 -80 -31.5t-86 -117.5z" />
<glyph unicode="&#xa1;" horiz-adv-x="743" d="M205 883q0 82 53 136t135 54q84 0 137.5 -54t53.5 -138q0 -80 -54.5 -133.5t-136.5 -53.5t-135 53.5t-53 135.5zM240 -369l18 949h272l19 -949h-309z" />
<glyph unicode="&#xa2;" d="M135 866q0 336 230 480q98 59 299 69v191h143v-191q150 -12 268 -53l-59 -234q-104 45 -209 58v-621q104 4 223 70l45 -236q-117 -51 -268 -61v-184h-143v180q-529 26 -529 532zM455 872q0 -141 50 -213.5t159 -89.5v617q-86 -14 -129 -60q-80 -84 -80 -254z" />
<glyph unicode="&#xa3;" d="M90 0v244h176q33 76 33 288v91h-188v219h188v69q0 170 21.5 251t82.5 143q131 131 392 131q184 0 413 -86l-80 -246q-184 80 -301 80q-115 0 -165 -66.5t-50 -222.5v-53h326v-219h-326v-91q0 -188 -26 -288h602v-244h-1098z" />
<glyph unicode="&#xa4;" d="M20 262l142 144q-80 135 -80 309t80 309l-142 143l156 156l137 -137q145 100 334 100q193 0 336 -100l135 137l158 -156l-143 -143q82 -135 81.5 -309t-81.5 -309l143 -144l-158 -156l-135 138q-145 -100 -336 -101q-195 0 -334 101l-137 -138zM332 719q0 -158 92 -252 q84 -90 225 -90q143 0 229.5 92t86.5 245.5t-86 246t-229.5 92.5t-225.5 -90q-92 -94 -92 -244z" />
<glyph unicode="&#xa5;" d="M0 1417h362l291 -528l289 528h352l-372 -618h260v-152h-351l-28 -45v-84h375v-151h-375v-367h-311v367h-379v151h379v84l-29 45h-354v152h264z" />
<glyph unicode="&#xa6;" horiz-adv-x="647" d="M176 0v586h295v-586h-295zM176 831v586h295v-586h-295z" />
<glyph unicode="&#xa7;" d="M172 -203l78 242q199 -84 350 -84q154 0 154 96q0 49 -47 78q-37 23 -201 84t-227 117q-90 78 -91 207q0 90 40 156.5t130 129.5q-80 61 -110.5 118.5t-30.5 143.5q0 168 114.5 262.5t319.5 94.5q217 0 414 -92l-78 -242q-180 84 -311 84q-129 0 -129 -94q0 -49 47 -80 q35 -23 199 -84q168 -63 231 -117q88 -76 88 -205q0 -92 -40 -158.5t-132 -129.5q82 -61 112.5 -119t30.5 -144q0 -180 -137 -278q-115 -78 -319 -78q-238 0 -455 92zM469 600q0 -53 78 -96q33 -18 164 -74q14 -8 43 -20q78 70 77 137q0 55 -77 96q-39 23 -164 74 q-14 8 -43 20q-78 -71 -78 -137z" />
<glyph unicode="&#xa8;" horiz-adv-x="1024" d="M117 1370q0 72 48 119t120 47q74 0 121 -47t47 -121t-47.5 -121t-121 -47t-120.5 47t-47 123zM571 1370q0 72 48.5 119t119.5 47q74 0 121 -47t47 -121t-47 -121t-120.5 -47t-121 47t-47.5 123z" />
<glyph unicode="&#xa9;" horiz-adv-x="1638" d="M90 719q0 307 209 513t520 206q315 0 522 -207t207 -522.5t-205.5 -522t-521.5 -206.5q-322 0 -526.5 206.5t-204.5 532.5zM197 717q0 -285 175 -466t449 -181q268 0 444.5 181t176.5 458q0 279 -176 459t-447 180q-268 0 -445 -179.5t-177 -451.5zM455 700 q0 180 106.5 285t292.5 105q139 0 260 -46l-43 -157q-80 33 -170 33q-100 0 -156.5 -57.5t-56.5 -160t59.5 -160t165.5 -57.5q80 0 179 45l41 -163q-121 -55 -267 -56q-193 0 -302 103.5t-109 285.5z" />
<glyph unicode="&#xaa;" horiz-adv-x="843" d="M104 997q0 63 36 111.5t102 71.5q68 20 178 20q37 0 67 -2v10q0 88 -125 88q-82 0 -190 -32l-12 129q139 37 248 37q172 0 233 -76q27 -33 33 -67t6 -132v-149q0 -66 8 -177h-172l-8 62q-90 -74 -199 -74q-96 0 -150.5 48t-54.5 132zM303 1008q0 -57 72 -58q68 0 112 45 v101q-23 2 -43 2q-141 0 -141 -90z" />
<glyph unicode="&#xab;" horiz-adv-x="1267" d="M59 530l406 494l201 -154l-271 -340l271 -340l-201 -155zM578 530l405 494l201 -154l-271 -340l271 -340l-201 -155z" />
<glyph unicode="&#xac;" d="M102 545v237h1018v-665h-262v428h-756z" />
<glyph unicode="&#xad;" horiz-adv-x="813" d="M94 461v237h625v-237h-625z" />
<glyph unicode="&#xae;" horiz-adv-x="1228" d="M84 1022q0 223 151.5 372.5t378.5 149.5q229 0 380 -149.5t151 -380.5q0 -229 -149.5 -380t-379.5 -151q-233 0 -382.5 151.5t-149.5 387.5zM182 1020q0 -201 121 -328t313 -127q186 0 308.5 127t122.5 321.5t-122 321.5t-311 127q-186 0 -309 -126t-123 -316zM412 735 v551h163q154 0 205 -24q76 -37 76 -134q0 -117 -129 -149q39 -12 56.5 -30.5t39.5 -69.5l56 -144h-152l-31 88q-23 63 -45 83t-71 20h-23v-191h-145zM557 1024h23q76 0 96 16q27 20 26 70q0 41 -23.5 56.5t-82.5 15.5h-39v-158z" />
<glyph unicode="&#xaf;" horiz-adv-x="1024" d="M139 1257v181h748v-181h-748z" />
<glyph unicode="&#xb0;" horiz-adv-x="872" d="M94 1108q0 145 94.5 237.5t243.5 92.5q156 0 251 -91.5t95 -242.5q0 -150 -95 -242t-247 -92q-156 0 -249 92t-93 246zM248 1106q0 -92 50 -144.5t138 -52.5t138.5 52.5t50.5 142.5t-50.5 142t-138.5 52q-86 0 -137 -52t-51 -140z" />
<glyph unicode="&#xb1;" d="M123 0v233h1048v-233h-1048zM123 584v233h393v256h262v-256h393v-233h-393v-256h-262v256h-393z" />
<glyph unicode="&#xb2;" horiz-adv-x="843" d="M115 1368q141 61 297 62q152 0 232.5 -60.5t80.5 -175.5q0 -70 -28.5 -124t-98.5 -120q-84 -76 -176 -143h309v-168h-606v168q96 57 227 164q150 121 150 203q0 86 -121 86q-78 0 -229 -62z" />
<glyph unicode="&#xb3;" horiz-adv-x="843" d="M102 672l35 170q127 -49 244 -49q127 0 127 84q0 88 -166 88q-37 0 -78 -2v141q35 -2 78 -2q162 0 162 84q0 78 -142 78q-86 0 -196 -35l-29 164q145 37 277 37q317 0 317 -216q0 -70 -36 -110.5t-115 -63.5q90 -23 126.5 -63.5t36.5 -116.5q0 -233 -340 -233 q-160 0 -301 45z" />
<glyph unicode="&#xb4;" horiz-adv-x="1024" d="M313 1198l246 299h369l-330 -299h-285z" />
<glyph unicode="&#xb5;" d="M154 -440v1489h309v-619q0 -125 22 -168q35 -66 115 -65q133 0 221 204v648h309v-676q0 -164 11 -373h-293l-8 145q-45 -94 -94.5 -132t-120.5 -38q-53 0 -89 17.5t-81 66.5v-499h-301z" />
<glyph unicode="&#xb6;" horiz-adv-x="1486" d="M55 991q0 266 211 373q109 53 361 53h643v-1659h-289v1409h-221v-1409h-289v817q-205 14 -310.5 121t-105.5 295z" />
<glyph unicode="&#xb7;" horiz-adv-x="647" d="M133 594q0 80 54.5 133t136.5 53t135 -54t53 -136t-53 -135.5t-135 -53.5q-84 0 -137.5 54.5t-53.5 138.5z" />
<glyph unicode="&#xb8;" horiz-adv-x="1024" d="M197 -379l239 313h340l-297 -313h-282z" />
<glyph unicode="&#xb9;" horiz-adv-x="843" d="M100 1266l277 151h186v-778h-215v575l-168 -98z" />
<glyph unicode="&#xba;" horiz-adv-x="843" d="M111 1126q0 141 82.5 222.5t228.5 81.5q147 0 229 -80t82 -225.5t-82 -226.5t-229.5 -81t-229 81t-81.5 228zM309 1120q0 -154 113 -153.5t113 159.5q0 154 -113 154t-113 -160z" />
<glyph unicode="&#xbb;" horiz-adv-x="1267" d="M84 186l270 342l-270 340l201 156l405 -496l-405 -493zM602 186l270 342l-270 340l201 156l405 -496l-405 -493z" />
<glyph unicode="&#xbc;" horiz-adv-x="1859" d="M92 1266l277 151h186v-778h-215v575l-168 -98zM494 -33l563 1483h196l-561 -1483h-198zM1012 160v155l323 463h289v-469h109v-149h-109v-160h-205v160h-407zM1190 309h240v348z" />
<glyph unicode="&#xbd;" horiz-adv-x="1859" d="M86 1266l276 151h187v-778h-215v575l-168 -98zM467 -33l563 1483h197l-563 -1483h-197zM1087 729q141 61 297 62q152 0 233 -60.5t81 -175.5q0 -70 -29 -124t-98 -120q-84 -76 -176 -143h309v-168h-606v168q96 57 227 164q150 121 150 203q0 86 -121 86q-78 0 -230 -62z " />
<glyph unicode="&#xbe;" horiz-adv-x="1859" d="M102 672l35 170q127 -49 244 -49q127 0 127 84q0 88 -166 88q-37 0 -78 -2v141q35 -2 78 -2q162 0 162 84q0 78 -142 78q-86 0 -196 -35l-29 164q145 37 277 37q317 0 317 -216q0 -70 -36 -110.5t-115 -63.5q90 -23 126.5 -63.5t36.5 -116.5q0 -233 -340 -233 q-160 0 -301 45zM549 -33l563 1483h199l-563 -1483h-199zM1012 160v155l323 463h289v-469h109v-149h-109v-160h-205v160h-407zM1190 309h240v348z" />
<glyph unicode="&#xbf;" horiz-adv-x="997" d="M18 -33q0 104 51.5 179t182.5 161q100 66 122.5 102.5t22.5 127.5v41h295v-89q0 -131 -24.5 -176t-143.5 -129q-111 -78 -143.5 -114.5t-32.5 -87.5q0 -63 46 -101.5t124 -38.5q123 0 309 103l88 -224q-227 -115 -444 -114q-213 0 -333 95t-120 265zM354 883 q0 82 53.5 136t135.5 54q84 0 137 -54t53 -138q0 -80 -54 -133.5t-136 -53.5t-135.5 53.5t-53.5 135.5z" />
<glyph unicode="&#xc0;" horiz-adv-x="1458" d="M12 0l541 1417h334l559 -1417h-338l-123 338h-534l-121 -338h-318zM338 1853h369l245 -299h-286zM535 578h366l-110 307q-39 111 -74 221q-23 -84 -72 -221z" />
<glyph unicode="&#xc1;" horiz-adv-x="1458" d="M12 0l541 1417h334l559 -1417h-338l-123 338h-534l-121 -338h-318zM530 1554l246 299h369l-330 -299h-285zM535 578h366l-110 307q-39 111 -74 221q-23 -84 -72 -221z" />
<glyph unicode="&#xc2;" horiz-adv-x="1458" d="M12 0l541 1417h334l559 -1417h-338l-123 338h-534l-121 -338h-318zM303 1554l244 299h364l244 -299h-287l-139 177l-139 -177h-287zM535 578h366l-110 307q-39 111 -74 221q-23 -84 -72 -221z" />
<glyph unicode="&#xc3;" horiz-adv-x="1458" d="M12 0l541 1417h334l559 -1417h-338l-123 338h-534l-121 -338h-318zM319 1563q8 129 66.5 205.5t151.5 76.5q63 0 204 -45q115 -39 154 -39q37 0 53.5 17.5t22.5 64.5h168q-16 -285 -226 -284q-43 0 -76.5 8t-195.5 59q-55 16 -80 16q-57 0 -72 -79h-170zM535 578h366 l-110 307q-39 111 -74 221q-23 -84 -72 -221z" />
<glyph unicode="&#xc4;" horiz-adv-x="1458" d="M12 0l541 1417h334l559 -1417h-338l-123 338h-534l-121 -338h-318zM326 1710q0 76 50 125t126 49t126 -49t50 -127t-50 -127t-126 -49q-78 0 -127 50t-49 128zM535 578h366l-110 307q-39 111 -74 221q-23 -84 -72 -221zM780 1710q0 76 50.5 125t126 49t126 -49t50.5 -127 t-50.5 -127t-126.5 -49q-78 0 -127 50t-49 128z" />
<glyph unicode="&#xc5;" horiz-adv-x="1458" d="M12 0l543 1419q-92 76 -92 203q0 115 74.5 188.5t191.5 73.5t191.5 -73.5t74.5 -188.5q0 -137 -106 -213l557 -1409h-338l-123 338h-534l-121 -338h-318zM535 578h366l-110 307q-39 111 -74 221q-29 -104 -72 -221zM621 1622q0 -119 108 -119q51 0 80 32t29 87t-29 87 t-80 32t-79.5 -32t-28.5 -87z" />
<glyph unicode="&#xc6;" horiz-adv-x="1939" d="M-90 0l803 1417h1093v-250h-579v-323h551v-250h-551v-344h608v-250h-928v336h-463l-176 -336h-358zM569 575h338v621h-14z" />
<glyph unicode="&#xc7;" horiz-adv-x="1292" d="M94 696q0 348 187.5 547t515.5 199q219 0 448 -101l-106 -241q-166 92 -324 92q-184 0 -287.5 -128t-103.5 -353q0 -229 108.5 -357.5t301.5 -128.5q88 0 160.5 23.5t176.5 85.5l93 -254q-125 -61 -219.5 -83t-231.5 -22q-346 0 -532 189q-187 192 -187 532zM358 -379 l240 313h340l-297 -313h-283z" />
<glyph unicode="&#xc8;" horiz-adv-x="1200" d="M168 0v1417h897v-250h-578v-323h549v-250h-549v-344h609v-250h-928zM209 1853h369l245 -299h-286z" />
<glyph unicode="&#xc9;" horiz-adv-x="1200" d="M168 0v1417h897v-250h-578v-323h549v-250h-549v-344h609v-250h-928zM418 1554l246 299h368l-330 -299h-284z" />
<glyph unicode="&#xca;" horiz-adv-x="1200" d="M168 0v1417h897v-250h-578v-323h549v-250h-549v-344h609v-250h-928zM190 1554l244 299h365l243 -299h-286l-140 177l-139 -177h-287z" />
<glyph unicode="&#xcb;" horiz-adv-x="1200" d="M168 0v1417h897v-250h-578v-323h549v-250h-549v-344h609v-250h-928zM209 1710q0 76 50 125t126 49q78 0 127 -49t49 -127t-49 -127t-127 -49t-127 50t-49 128zM664 1710q0 76 50 125t126 49q78 0 127 -49t49 -127t-49 -127t-127 -49t-127 50t-49 128z" />
<glyph unicode="&#xcc;" horiz-adv-x="655" d="M-63 1853h368l246 -299h-287zM168 0v1417h319v-1417h-319z" />
<glyph unicode="&#xcd;" horiz-adv-x="655" d="M129 1554l246 299h368l-329 -299h-285zM168 0v1417h319v-1417h-319z" />
<glyph unicode="&#xce;" horiz-adv-x="655" d="M-98 1554l243 299h365l244 -299h-287l-139 177l-140 -177h-286zM168 0v1417h319v-1417h-319z" />
<glyph unicode="&#xcf;" horiz-adv-x="655" d="M-76 1710q0 76 50.5 125t126 49t125.5 -49t50 -127t-50 -127t-126 -49q-78 0 -127 50t-49 128zM168 0v1417h319v-1417h-319zM379 1710q0 76 50 125t126 49t126 -49t50 -127t-50 -127t-126 -49q-78 0 -127 50t-49 128z" />
<glyph unicode="&#xd0;" horiz-adv-x="1458" d="M-6 633v180h174v604h391q233 0 370.5 -38t237.5 -130q197 -180 197 -542q0 -430 -270 -601q-96 -59 -220 -82.5t-335 -23.5h-371v633h-174zM487 250h62q217 0 323 69q162 111 162 392q0 117 -34.5 215t-96.5 151q-59 53 -133 71.5t-221 18.5h-62v-354h267v-180h-267v-383 z" />
<glyph unicode="&#xd1;" horiz-adv-x="1540" d="M168 0v1417h352l377 -637q100 -174 174 -334q-6 82 -6 271v700h307v-1417h-346l-354 594q-106 182 -203 379q6 -119 6 -338v-635h-307zM387 1563q8 129 66.5 205.5t150.5 76.5q63 0 205 -45q115 -39 154 -39q37 0 53 17.5t22 64.5h168q-16 -285 -225 -284q-43 0 -77 8 t-195 59q-55 16 -80 16q-55 0 -72 -79h-170z" />
<glyph unicode="&#xd2;" horiz-adv-x="1554" d="M94 717q0 356 213 559q176 166 471 166q342 0 520 -223q162 -201 162 -510q0 -360 -213 -568q-172 -166 -471 -166q-342 0 -520 224q-162 201 -162 518zM387 1853h369l245 -299h-286zM424 715q0 -227 94 -358.5t258 -131.5t259 130t95 353.5t-95 353.5t-259 130 q-162 0 -257 -129t-95 -348z" />
<glyph unicode="&#xd3;" horiz-adv-x="1554" d="M94 717q0 356 213 559q176 166 471 166q342 0 520 -223q162 -201 162 -510q0 -360 -213 -568q-172 -166 -471 -166q-342 0 -520 224q-162 201 -162 518zM424 715q0 -227 94 -358.5t258 -131.5t259 130t95 353.5t-95 353.5t-259 130q-162 0 -257 -129t-95 -348zM580 1554 l245 299h369l-330 -299h-284z" />
<glyph unicode="&#xd4;" horiz-adv-x="1554" d="M94 717q0 356 213 559q176 166 471 166q342 0 520 -223q162 -201 162 -510q0 -360 -213 -568q-172 -166 -471 -166q-342 0 -520 224q-162 201 -162 518zM350 1554l244 299h364l244 -299h-287l-139 177l-139 -177h-287zM424 715q0 -227 94 -358.5t258 -131.5t259 130 t95 353.5t-95 353.5t-259 130q-162 0 -257 -129t-95 -348z" />
<glyph unicode="&#xd5;" horiz-adv-x="1554" d="M94 717q0 356 213 559q176 166 471 166q342 0 520 -223q162 -201 162 -510q0 -360 -213 -568q-172 -166 -471 -166q-342 0 -520 224q-162 201 -162 518zM367 1563q8 129 66.5 205.5t150.5 76.5q63 0 204 -45q115 -39 154 -39q37 0 53.5 17.5t22.5 64.5h168 q-16 -285 -225 -284q-43 0 -77 8t-196 59q-55 16 -80 16q-55 0 -71 -79h-170zM424 715q0 -227 94 -358.5t258 -131.5t259 130t95 353.5t-95 353.5t-259 130q-162 0 -257 -129t-95 -348z" />
<glyph unicode="&#xd6;" horiz-adv-x="1554" d="M94 717q0 356 213 559q176 166 471 166q342 0 520 -223q162 -201 162 -510q0 -360 -213 -568q-172 -166 -471 -166q-342 0 -520 224q-162 201 -162 518zM375 1710q0 76 50 125t126 49t126 -49t50 -127t-50 -127t-126 -49q-78 0 -127 50t-49 128zM424 715 q0 -227 94 -358.5t258 -131.5t259 130t95 353.5t-95 353.5t-259 130q-162 0 -257 -129t-95 -348zM829 1710q0 76 50.5 125t126 49t126 -49t50.5 -127t-50.5 -127t-125.5 -49q-78 0 -127.5 50t-49.5 128z" />
<glyph unicode="&#xd7;" d="M160 825l186 187l309 -312l301 301l168 -167l-301 -302l310 -309l-185 -186l-311 311l-301 -301l-168 168l301 301z" />
<glyph unicode="&#xd8;" horiz-adv-x="1554" d="M90 63l146 162q-141 203 -142 484q0 360 213 567q172 166 475 166q254 0 420 -129l137 153l125 -112l-145 -162q141 -207 141 -483q0 -360 -213 -568q-174 -166 -475 -166q-254 0 -420 129l-137 -153zM424 709q0 -121 35 -232l549 617q-96 98 -232 98q-162 0 -257 -130 t-95 -353zM547 324q96 -98 229 -99q164 0 259 130t95 354q0 115 -34 231z" />
<glyph unicode="&#xd9;" horiz-adv-x="1476" d="M156 633v784h319v-823q0 -215 49 -281q66 -88 215 -88q84 0 148.5 33t93.5 86q31 66 31 250v823h309v-784q0 -225 -17.5 -319.5t-74.5 -166.5q-141 -172 -490 -172q-389 0 -518 211q-39 66 -52 155t-13 292zM348 1853h369l246 -299h-287z" />
<glyph unicode="&#xda;" horiz-adv-x="1476" d="M156 633v784h319v-823q0 -215 49 -281q66 -88 215 -88q84 0 148.5 33t93.5 86q31 66 31 250v823h309v-784q0 -225 -17.5 -319.5t-74.5 -166.5q-141 -172 -490 -172q-389 0 -518 211q-39 66 -52 155t-13 292zM582 1554l245 299h369l-330 -299h-284z" />
<glyph unicode="&#xdb;" horiz-adv-x="1476" d="M156 633v784h319v-823q0 -215 49 -281q66 -88 215 -88q84 0 148.5 33t93.5 86q31 66 31 250v823h309v-784q0 -225 -17.5 -319.5t-74.5 -166.5q-141 -172 -490 -172q-389 0 -518 211q-39 66 -52 155t-13 292zM311 1554l244 299h365l243 -299h-286l-140 177l-139 -177h-287 z" />
<glyph unicode="&#xdc;" horiz-adv-x="1476" d="M156 633v784h319v-823q0 -215 49 -281q66 -88 215 -88q84 0 148.5 33t93.5 86q31 66 31 250v823h309v-784q0 -225 -17.5 -319.5t-74.5 -166.5q-141 -172 -490 -172q-389 0 -518 211q-39 66 -52 155t-13 292zM336 1710q0 76 50 125t126 49q78 0 127 -49t49 -127t-49 -127 t-127 -49t-127 50t-49 128zM791 1710q0 76 50 125t126 49q78 0 127 -49t49 -127t-49.5 -127t-127 -49t-126.5 50t-49 128z" />
<glyph unicode="&#xdd;" horiz-adv-x="1353" d="M-20 1417h370l234 -375q57 -94 104 -184q45 86 107 186l231 373h348l-534 -835v-582h-320v582zM506 1554l246 299h368l-329 -299h-285z" />
<glyph unicode="&#xde;" horiz-adv-x="1200" d="M168 0v1417h319v-274h80q186 0 281.5 -19.5t165.5 -72.5q154 -115 153 -342q0 -225 -149 -347q-123 -96 -397 -96h-134v-266h-319zM487 514h84q129 0 185 27q82 43 82 155q0 115 -80 162q-61 35 -187 35h-84v-379z" />
<glyph unicode="&#xdf;" horiz-adv-x="1290" d="M156 0v958q0 164 17 254.5t60 149.5q117 162 402 162q250 0 371 -113q123 -111 122 -299q0 -203 -170 -299q129 -57 188.5 -150.5t59.5 -238.5q0 -209 -124 -329t-339 -120q-76 0 -180 17l29 233q43 -8 76 -8q102 0 160.5 58.5t58.5 160.5q0 111 -63.5 177.5t-170.5 66.5 q-23 0 -37 -2v225q100 0 146.5 48t46.5 155q0 193 -166 192q-131 0 -164 -129q-14 -63 -14 -192v-977h-309z" />
<glyph unicode="&#xe0;" horiz-adv-x="1206" d="M66 299q0 201 155 291q102 57 324 57q86 0 186 -8v12q0 96 -60.5 150.5t-168.5 54.5q-125 0 -293 -84l-59 217q182 84 399 84q264 0 391 -133q59 -61 79.5 -138t20.5 -239v-291q6 -227 13 -272h-297l-11 117q-78 -78 -152.5 -110t-180.5 -32q-162 0 -254 86t-92 238z M211 1497h369l245 -299h-286zM385 307q0 -63 38 -101t99 -38q117 0 209 135v164q-51 4 -100 4q-246 0 -246 -164z" />
<glyph unicode="&#xe1;" horiz-adv-x="1206" d="M66 299q0 201 155 291q102 57 324 57q86 0 186 -8v12q0 96 -60.5 150.5t-168.5 54.5q-125 0 -293 -84l-59 217q182 84 399 84q264 0 391 -133q59 -61 79.5 -138t20.5 -239v-291q6 -227 13 -272h-297l-11 117q-78 -78 -152.5 -110t-180.5 -32q-162 0 -254 86t-92 238z M385 307q0 -63 38 -101t99 -38q117 0 209 135v164q-51 4 -100 4q-246 0 -246 -164zM406 1198l245 299h369l-330 -299h-284z" />
<glyph unicode="&#xe2;" horiz-adv-x="1206" d="M66 299q0 201 155 291q102 57 324 57q86 0 186 -8v12q0 96 -60.5 150.5t-168.5 54.5q-125 0 -293 -84l-59 217q182 84 399 84q264 0 391 -133q59 -61 79.5 -138t20.5 -239v-291q6 -227 13 -272h-297l-11 117q-78 -78 -152.5 -110t-180.5 -32q-162 0 -254 86t-92 238z M160 1198l243 299h365l244 -299h-287l-139 176l-140 -176h-286zM385 307q0 -63 38 -101t99 -38q117 0 209 135v164q-51 4 -100 4q-246 0 -246 -164z" />
<glyph unicode="&#xe3;" horiz-adv-x="1206" d="M66 299q0 201 155 291q102 57 324 57q86 0 186 -8v12q0 96 -60.5 150.5t-168.5 54.5q-125 0 -293 -84l-59 217q182 84 399 84q264 0 391 -133q59 -61 79.5 -138t20.5 -239v-291q6 -227 13 -272h-297l-11 117q-78 -78 -152.5 -110t-180.5 -32q-162 0 -254 86t-92 238z M172 1202q8 129 66.5 206t150.5 77q63 0 205 -45q115 -39 154 -39q37 0 53 17.5t22 64.5h168q-16 -285 -225 -285q-43 0 -77 8t-195 60q-55 16 -80 16q-57 0 -72 -80h-170zM385 307q0 -63 38 -101t99 -38q117 0 209 135v164q-51 4 -100 4q-246 0 -246 -164z" />
<glyph unicode="&#xe4;" horiz-adv-x="1206" d="M66 299q0 201 155 291q102 57 324 57q86 0 186 -8v12q0 96 -60.5 150.5t-168.5 54.5q-125 0 -293 -84l-59 217q182 84 399 84q264 0 391 -133q59 -61 79.5 -138t20.5 -239v-291q6 -227 13 -272h-297l-11 117q-78 -78 -152.5 -110t-180.5 -32q-162 0 -254 86t-92 238z M197 1370q0 72 48 119t120 47q74 0 120.5 -47t46.5 -121t-47 -121t-120.5 -47t-120.5 47t-47 123zM385 307q0 -63 38 -101t99 -38q117 0 209 135v164q-51 4 -100 4q-246 0 -246 -164zM651 1370q0 72 48.5 119t119.5 47q74 0 121 -47t47 -121t-47 -121t-121 -47t-121 47 t-47 123z" />
<glyph unicode="&#xe5;" horiz-adv-x="1206" d="M66 299q0 201 155 291q102 57 324 57q86 0 186 -8v12q0 96 -60.5 150.5t-168.5 54.5q-125 0 -293 -84l-59 217q182 84 399 84q264 0 391 -133q59 -61 79.5 -138t20.5 -239v-291q6 -227 13 -272h-297l-11 117q-78 -78 -152.5 -110t-180.5 -32q-162 0 -254 86t-92 238z M367 1393q0 96 67.5 161.5t167.5 65.5q102 0 169 -65.5t67 -166t-66.5 -166t-169 -65.5t-169 66t-66.5 170zM385 307q0 -63 38 -101t99 -38q117 0 209 135v164q-51 4 -100 4q-246 0 -246 -164zM512 1389q0 -98 90 -98.5t90 98t-90 98.5q-41 0 -65.5 -26.5t-24.5 -71.5z" />
<glyph unicode="&#xe6;" horiz-adv-x="1843" d="M66 299q0 201 155 291q102 57 324 57q70 0 186 -8v12q0 94 -62.5 149.5t-168.5 55.5q-131 0 -291 -84l-59 217q186 84 399 84q246 0 377 -117q137 117 336 117q174 0 292.5 -72.5t165.5 -205.5q43 -127 43 -373h-723q18 -225 267 -225q160 0 323 102l107 -219 q-197 -104 -455 -105q-172 0 -268 40t-164 141q-72 -100 -164 -140.5t-244 -40.5q-188 0 -278 82q-98 88 -98 242zM385 307q0 -61 38 -100t97 -39q88 0 149.5 56.5t61.5 140.5v102q-51 4 -100 4q-246 0 -246 -164zM1040 625h412q-4 111 -56.5 171t-144.5 60t-148.5 -61 t-62.5 -170z" />
<glyph unicode="&#xe7;" horiz-adv-x="1021" d="M84 526q0 266 152 418q127 129 364 129q190 0 363 -76l-82 -221q-121 72 -234 72q-119 0 -181.5 -85t-62.5 -245q0 -152 69 -232.5t200 -80.5q115 0 223 74l94 -220q-152 -84 -360 -84q-256 0 -400.5 145.5t-144.5 405.5zM197 -379l239 313h340l-297 -313h-282z" />
<glyph unicode="&#xe8;" horiz-adv-x="1228" d="M84 520q0 254 145 406q135 147 396 147q377 0 479 -278q45 -127 45 -373h-741q18 -225 274 -225q164 0 334 102l104 -219q-201 -104 -442 -105q-293 0 -443.5 138.5t-150.5 406.5zM223 1497h369l246 -299h-287zM408 625h430q-4 111 -59.5 171t-149.5 60q-96 0 -155.5 -61 t-65.5 -170z" />
<glyph unicode="&#xe9;" horiz-adv-x="1228" d="M84 520q0 254 145 406q135 147 396 147q377 0 479 -278q45 -127 45 -373h-741q18 -225 274 -225q164 0 334 102l104 -219q-201 -104 -442 -105q-293 0 -443.5 138.5t-150.5 406.5zM408 625h430q-4 111 -59.5 171t-149.5 60q-96 0 -155.5 -61t-65.5 -170zM416 1198 l246 299h368l-330 -299h-284z" />
<glyph unicode="&#xea;" horiz-adv-x="1228" d="M84 520q0 254 145 406q135 147 396 147q377 0 479 -278q45 -127 45 -373h-741q18 -225 274 -225q164 0 334 102l104 -219q-201 -104 -442 -105q-293 0 -443.5 138.5t-150.5 406.5zM197 1198l243 299h365l244 -299h-287l-139 176l-140 -176h-286zM408 625h430 q-4 111 -59.5 171t-149.5 60q-96 0 -155.5 -61t-65.5 -170z" />
<glyph unicode="&#xeb;" horiz-adv-x="1228" d="M84 520q0 254 145 406q135 147 396 147q377 0 479 -278q45 -127 45 -373h-741q18 -225 274 -225q164 0 334 102l104 -219q-201 -104 -442 -105q-293 0 -443.5 138.5t-150.5 406.5zM231 1370q0 72 48.5 119t119.5 47q74 0 121 -47t47 -121t-47 -121t-120.5 -47t-121 47 t-47.5 123zM408 625h430q-4 111 -59.5 171t-149.5 60q-96 0 -155.5 -61t-65.5 -170zM686 1370q0 72 48 119t120 47q74 0 121 -47t47 -121t-47 -121t-121 -47t-121 47t-47 123z" />
<glyph unicode="&#xec;" horiz-adv-x="624" d="M-78 1497h369l246 -299h-287zM158 0v1049h309v-1049h-309z" />
<glyph unicode="&#xed;" horiz-adv-x="624" d="M115 1198l245 299h369l-330 -299h-284zM158 0v1049h309v-1049h-309z" />
<glyph unicode="&#xee;" horiz-adv-x="624" d="M-115 1198l244 299h365l243 -299h-286l-140 176l-139 -176h-287zM158 0v1049h309v-1049h-309z" />
<glyph unicode="&#xef;" horiz-adv-x="624" d="M-84 1370q0 72 48 119t120 47q74 0 121 -47t47 -121t-47 -121t-121 -47t-121 47t-47 123zM158 0v1049h309v-1049h-309zM371 1370q0 72 48 119t120 47q74 0 121 -47t47 -121t-47.5 -121t-121 -47t-120.5 47t-47 123z" />
<glyph unicode="&#xf0;" horiz-adv-x="1210" d="M84 479q0 219 116.5 348t317.5 129q90 0 180 -32q-68 121 -170 206l-299 -135l-49 121l217 98q-102 49 -239 74l55 232q281 -25 485 -170l258 118l56 -118l-199 -90q313 -324 313 -752q0 -260 -136 -396.5t-394 -136.5q-240 0 -376 134t-136 370zM403 473 q0 -127 52.5 -199.5t144.5 -72.5t149.5 74.5t57.5 193.5q0 123 -56.5 192.5t-154.5 69.5q-92 0 -142.5 -66.5t-50.5 -191.5z" />
<glyph unicode="&#xf1;" horiz-adv-x="1310" d="M154 1049h284l11 -146q94 96 172.5 133t191.5 37q211 0 295 -149q49 -82 49 -275v-649h-309v625q0 100 -19 145q-35 74 -124 74q-123 0 -232 -164v-680h-309v659q0 154 -10 390zM272 1202q8 129 66.5 206t150.5 77q63 0 205 -45q115 -39 154 -39q37 0 53.5 17.5 t22.5 64.5h168q-16 -285 -226 -285q-43 0 -76.5 8t-195.5 60q-55 16 -80 16q-55 0 -72 -80h-170z" />
<glyph unicode="&#xf2;" horiz-adv-x="1247" d="M84 530q0 272 164 420q129 123 377 123q276 0 415 -166q123 -147 123 -383q0 -279 -164 -426q-129 -123 -376 -123q-276 0 -416 166q-123 147 -123 389zM233 1497h369l246 -299h-287zM403 528q0 -160 56.5 -243.5t163 -83.5t164 83t57.5 240q0 156 -56.5 240t-163 84 t-164 -83t-57.5 -237z" />
<glyph unicode="&#xf3;" horiz-adv-x="1247" d="M84 530q0 272 164 420q129 123 377 123q276 0 415 -166q123 -147 123 -383q0 -279 -164 -426q-129 -123 -376 -123q-276 0 -416 166q-123 147 -123 389zM403 528q0 -160 56.5 -243.5t163 -83.5t164 83t57.5 240q0 156 -56.5 240t-163 84t-164 -83t-57.5 -237zM426 1198 l246 299h368l-329 -299h-285z" />
<glyph unicode="&#xf4;" horiz-adv-x="1247" d="M84 530q0 272 164 420q129 123 377 123q276 0 415 -166q123 -147 123 -383q0 -279 -164 -426q-129 -123 -376 -123q-276 0 -416 166q-123 147 -123 389zM197 1198l243 299h365l244 -299h-287l-139 176l-140 -176h-286zM403 528q0 -160 56.5 -243.5t163 -83.5t164 83 t57.5 240q0 156 -56.5 240t-163 84t-164 -83t-57.5 -237z" />
<glyph unicode="&#xf5;" horiz-adv-x="1247" d="M84 530q0 272 164 420q129 123 377 123q276 0 415 -166q123 -147 123 -383q0 -279 -164 -426q-129 -123 -376 -123q-276 0 -416 166q-123 147 -123 389zM213 1202q8 129 66.5 206t150.5 77q63 0 205 -45q115 -39 153 -39q37 0 53.5 17.5t22.5 64.5h168 q-16 -285 -225 -285q-43 0 -77 8t-195 60q-55 16 -80 16q-57 0 -72 -80h-170zM403 528q0 -160 56.5 -243.5t163 -83.5t164 83t57.5 240q0 156 -56.5 240t-163 84t-164 -83t-57.5 -237z" />
<glyph unicode="&#xf6;" horiz-adv-x="1247" d="M84 530q0 272 164 420q129 123 377 123q276 0 415 -166q123 -147 123 -383q0 -279 -164 -426q-129 -123 -376 -123q-276 0 -416 166q-123 147 -123 389zM229 1370q0 72 48.5 119t119.5 47q74 0 121 -47t47 -121t-47 -121t-120.5 -47t-121 47t-47.5 123zM403 528 q0 -160 56.5 -243.5t163 -83.5t164 83t57.5 240q0 156 -56.5 240t-163 84t-164 -83t-57.5 -237zM684 1370q0 72 48 119t120 47q74 0 121 -47t47 -121t-47 -121t-121 -47t-121 47t-47 123z" />
<glyph unicode="&#xf7;" d="M123 406v237h1048v-237h-1048zM477 147q0 72 48 119t122 47q72 0 120 -48t48 -122q0 -72 -48 -120t-120 -48q-76 0 -123 48t-47 124zM477 905q0 72 49 120t121 48q74 0 122 -48t48 -122t-48 -122t-122 -48q-76 0 -123 48t-47 124z" />
<glyph unicode="&#xf8;" horiz-adv-x="1247" d="M35 59l133 134q-84 139 -84 329q0 262 140.5 406.5t393.5 144.5q215 0 345 -92l124 123l113 -115l-127 -125q90 -143 90 -344q0 -274 -164 -422q-129 -123 -376 -123q-215 0 -347 97l-129 -127zM391 524q0 -53 8 -104l375 373q-57 59 -151 59q-113 0 -172.5 -85 t-59.5 -243zM467 262q57 -66 158 -65q113 0 172 85t59 242q0 55 -10 115z" />
<glyph unicode="&#xf9;" horiz-adv-x="1300" d="M154 399v650h309v-625q0 -100 18 -145q33 -74 121 -74q119 0 225 164v680h310v-660q0 -125 10 -389h-285l-10 145q-92 -96 -171 -133t-187 -37q-209 0 -293 150q-47 86 -47 274zM260 1497h369l245 -299h-286z" />
<glyph unicode="&#xfa;" horiz-adv-x="1300" d="M154 399v650h309v-625q0 -100 18 -145q33 -74 121 -74q119 0 225 164v680h310v-660q0 -125 10 -389h-285l-10 145q-92 -96 -171 -133t-187 -37q-209 0 -293 150q-47 86 -47 274zM473 1198l246 299h368l-329 -299h-285z" />
<glyph unicode="&#xfb;" horiz-adv-x="1300" d="M154 399v650h309v-625q0 -100 18 -145q33 -74 121 -74q119 0 225 164v680h310v-660q0 -125 10 -389h-285l-10 145q-92 -96 -171 -133t-187 -37q-209 0 -293 150q-47 86 -47 274zM223 1198l244 299h364l244 -299h-287l-139 176l-139 -176h-287z" />
<glyph unicode="&#xfc;" horiz-adv-x="1300" d="M154 399v650h309v-625q0 -100 18 -145q33 -74 121 -74q119 0 225 164v680h310v-660q0 -125 10 -389h-285l-10 145q-92 -96 -171 -133t-187 -37q-209 0 -293 150q-47 86 -47 274zM256 1370q0 72 48 119t120 47q74 0 121 -47t47 -121t-47 -121t-121 -47t-121 47t-47 123z M711 1370q0 72 48 119t120 47q74 0 121 -47t47 -121t-47.5 -121t-121 -47t-120.5 47t-47 123z" />
<glyph unicode="&#xfd;" horiz-adv-x="1181" d="M8 -420l53 234q82 -35 142 -35q76 0 124 53t111 207l-430 1010h328l186 -459q47 -111 90 -240q47 143 90 254l168 445h306l-422 -1022q-76 -180 -113 -252t-84 -125q-104 -117 -291 -117q-133 0 -258 47zM422 1198l246 299h368l-329 -299h-285z" />
<glyph unicode="&#xfe;" horiz-adv-x="1282" d="M154 -440v1937h309v-569q131 145 305 145q201 0 315.5 -148.5t114.5 -406.5q0 -264 -125 -412q-111 -131 -299 -131q-203 0 -311 156v-571h-309zM463 373q96 -172 225 -172q84 0 137.5 91t53.5 236.5t-55.5 232.5t-147.5 87q-111 0 -213 -162v-313z" />
<glyph unicode="&#xff;" horiz-adv-x="1181" d="M8 -420l53 234q82 -35 142 -35q76 0 124 53t111 207l-430 1010h328l186 -459q47 -111 90 -240q47 143 90 254l168 445h306l-422 -1022q-76 -180 -113 -252t-84 -125q-104 -117 -291 -117q-133 0 -258 47zM197 1370q0 72 48 119t120 47q74 0 120.5 -47t46.5 -121t-47 -121 t-120.5 -47t-120.5 47t-47 123zM651 1370q0 72 48.5 119t119.5 47q74 0 121 -47t47 -121t-47 -121t-121 -47t-121 47t-47 123z" />
<glyph unicode="&#x100;" horiz-adv-x="1458" d="M12 0l541 1417h334l559 -1417h-338l-123 338h-534l-121 -338h-318zM356 1565v180h748v-180h-748zM535 578h366l-110 307q-39 111 -74 221q-23 -84 -72 -221z" />
<glyph unicode="&#x101;" horiz-adv-x="1206" d="M66 299q0 201 155 291q102 57 324 57q86 0 186 -8v12q0 96 -60.5 150.5t-168.5 54.5q-125 0 -293 -84l-59 217q182 84 399 84q264 0 391 -133q59 -61 79.5 -138t20.5 -239v-291q6 -227 13 -272h-297l-11 117q-78 -78 -152.5 -110t-180.5 -32q-162 0 -254 86t-92 238z M209 1257v181h747v-181h-747zM385 307q0 -63 38 -101t99 -38q117 0 209 135v164q-51 4 -100 4q-246 0 -246 -164z" />
<glyph unicode="&#x102;" horiz-adv-x="1458" d="M12 0l541 1417h334l559 -1417h-338l-123 338h-534l-121 -338h-318zM362 1870h168q6 -78 48.5 -106.5t152.5 -28.5q109 0 151 28.5t48 106.5h168q0 -147 -51 -215q-84 -115 -315.5 -115t-317.5 115q-52 68 -52 215zM535 578h366l-110 307q-39 111 -74 221 q-23 -84 -72 -221z" />
<glyph unicode="&#x103;" horiz-adv-x="1206" d="M66 299q0 201 155 291q102 57 324 57q86 0 186 -8v12q0 96 -60.5 150.5t-168.5 54.5q-125 0 -293 -84l-59 217q182 84 399 84q264 0 391 -133q59 -61 79.5 -138t20.5 -239v-291q6 -227 13 -272h-297l-11 117q-78 -78 -152.5 -110t-180.5 -32q-162 0 -254 86t-92 238z M215 1497h168q6 -78 48 -106.5t153 -28.5q109 0 150.5 28.5t47.5 106.5h168q0 -147 -51 -215q-84 -115 -315.5 -115t-317.5 115q-51 68 -51 215zM385 307q0 -63 38 -101t99 -38q117 0 209 135v164q-51 4 -100 4q-246 0 -246 -164z" />
<glyph unicode="&#x104;" horiz-adv-x="1458" d="M12 0l541 1417h334l559 -1417q-125 -72 -169 -115t-44 -96q0 -100 139 -100q35 0 74 8l10 -137q-92 -12 -166 -13q-139 0 -219 53.5t-80 145.5q0 147 260 254h-143l-123 338h-534l-121 -338h-318zM535 578h366l-110 307q-39 111 -74 221q-27 -98 -72 -221z" />
<glyph unicode="&#x105;" horiz-adv-x="1206" d="M66 299q0 201 155 291q102 57 324 57q78 0 186 -8v12q0 96 -60.5 150.5t-168.5 54.5q-125 0 -293 -84l-59 217q182 84 399 84q264 0 391 -133q59 -61 79.5 -138t20.5 -239v-291q6 -227 13 -272q-131 -76 -172 -117t-41 -94q0 -47 35.5 -73.5t101.5 -26.5q35 0 76 8 l10 -137q-92 -12 -166 -13q-139 0 -219 53.5t-80 145.5q0 147 258 254h-100l-11 117q-78 -78 -152.5 -110t-180.5 -32q-162 0 -254 86t-92 238zM385 307q0 -63 38 -101t99 -38q117 0 209 135v164q-98 4 -100 4q-246 0 -246 -164z" />
<glyph unicode="&#x106;" horiz-adv-x="1292" d="M94 696q0 348 187.5 547t515.5 199q219 0 448 -101l-106 -241q-166 92 -324 92q-184 0 -287.5 -128t-103.5 -353q0 -229 108.5 -357.5t301.5 -128.5q88 0 160.5 23.5t176.5 85.5l93 -254q-125 -61 -219.5 -83t-231.5 -22q-346 0 -532 189q-187 192 -187 532zM586 1554 l245 299h369l-330 -299h-284z" />
<glyph unicode="&#x107;" horiz-adv-x="1021" d="M84 526q0 266 152 418q127 129 364 129q190 0 363 -76l-82 -221q-121 72 -234 72q-119 0 -181.5 -85t-62.5 -245q0 -152 69 -232.5t200 -80.5q115 0 223 74l94 -220q-152 -84 -360 -84q-256 0 -400.5 145.5t-144.5 405.5zM410 1198l245 299h369l-330 -299h-284z" />
<glyph unicode="&#x108;" horiz-adv-x="1292" d="M94 696q0 348 187.5 547t515.5 199q219 0 448 -101l-106 -241q-166 92 -324 92q-184 0 -287.5 -128t-103.5 -353q0 -229 108.5 -357.5t301.5 -128.5q88 0 160.5 23.5t176.5 85.5l93 -254q-125 -61 -219.5 -83t-231.5 -22q-346 0 -532 189q-187 192 -187 532zM358 1554 l244 299h365l243 -299h-286l-140 177l-139 -177h-287z" />
<glyph unicode="&#x109;" horiz-adv-x="1021" d="M84 526q0 266 152 418q127 129 364 129q190 0 363 -76l-82 -221q-121 72 -234 72q-119 0 -181.5 -85t-62.5 -245q0 -152 69 -232.5t200 -80.5q115 0 223 74l94 -220q-152 -84 -360 -84q-256 0 -400.5 145.5t-144.5 405.5zM168 1198l244 299h364l244 -299h-287l-139 176 l-139 -176h-287z" />
<glyph unicode="&#x10a;" horiz-adv-x="1292" d="M94 696q0 348 187.5 547t515.5 199q219 0 448 -101l-106 -241q-166 92 -324 92q-184 0 -287.5 -128t-103.5 -353q0 -229 108.5 -357.5t301.5 -128.5q88 0 160.5 23.5t176.5 85.5l93 -254q-125 -61 -219.5 -83t-231.5 -22q-346 0 -532 189q-187 192 -187 532zM621 1710 q0 76 50 125t125.5 49t126 -49t50.5 -127t-50.5 -127t-125.5 -49q-78 0 -127 50t-49 128z" />
<glyph unicode="&#x10b;" horiz-adv-x="1021" d="M84 526q0 266 152 418q127 129 364 129q190 0 363 -76l-82 -221q-121 72 -234 72q-119 0 -181.5 -85t-62.5 -245q0 -152 69 -232.5t200 -80.5q115 0 223 74l94 -220q-152 -84 -360 -84q-256 0 -400.5 145.5t-144.5 405.5zM424 1362q0 76 50 125t126 49t126 -49t50 -127 t-50 -127t-126 -49q-78 0 -127 50t-49 128z" />
<glyph unicode="&#x10c;" horiz-adv-x="1292" d="M94 696q0 348 187.5 547t515.5 199q219 0 448 -101l-106 -241q-166 92 -324 92q-184 0 -287.5 -128t-103.5 -353q0 -229 108.5 -357.5t301.5 -128.5q88 0 160.5 23.5t176.5 85.5l93 -254q-125 -61 -219.5 -83t-231.5 -22q-346 0 -532 189q-187 192 -187 532zM358 1870 h287l139 -176l140 176h286l-243 -299h-365z" />
<glyph unicode="&#x10d;" horiz-adv-x="1021" d="M84 526q0 266 152 418q127 129 364 129q190 0 363 -76l-82 -221q-121 72 -234 72q-119 0 -181.5 -85t-62.5 -245q0 -152 69 -232.5t200 -80.5q115 0 223 74l94 -220q-152 -84 -360 -84q-256 0 -400.5 145.5t-144.5 405.5zM154 1497h286l140 -176l139 176h287l-244 -299 h-365z" />
<glyph unicode="&#x10e;" horiz-adv-x="1458" d="M168 0v1417h393q231 0 368.5 -38t237.5 -130q197 -180 197 -540q0 -432 -270 -603q-96 -59 -220 -82.5t-335 -23.5h-371zM262 1870h287l139 -176l139 176h287l-244 -299h-364zM487 250h62q219 0 323 72q78 51 120 153.5t42 237.5q0 115 -34.5 213t-96.5 151 q-59 53 -133 71.5t-221 18.5h-62v-917z" />
<glyph unicode="&#x10f;" horiz-adv-x="1603" d="M84 518q0 260 114.5 407.5t315.5 147.5q184 0 305 -147v571h309v-1137q0 -240 11 -360h-299l-11 143q-113 -168 -321 -168q-199 0 -311.5 144.5t-112.5 398.5zM403 530q0 -145 53.5 -235t137.5 -90q131 0 225 168v313q-100 158 -213 158q-92 0 -147.5 -85.5t-55.5 -228.5 zM1239 918l178 579h299l-229 -579h-248z" />
<glyph unicode="&#x110;" horiz-adv-x="1458" d="M-6 633v180h174v604h391q233 0 370.5 -38t237.5 -130q197 -180 197 -542q0 -430 -270 -601q-96 -59 -220 -82.5t-335 -23.5h-371v633h-174zM487 250h62q217 0 323 69q162 111 162 392q0 117 -34.5 215t-96.5 151q-59 53 -133 71.5t-221 18.5h-62v-354h267v-180h-267v-383 z" />
<glyph unicode="&#x111;" horiz-adv-x="1282" d="M84 518q0 260 114.5 407.5t315.5 147.5q184 0 305 -147v268h-297v164h297v139h309v-139h175v-164h-175v-834q0 -240 11 -360h-299l-11 143q-113 -168 -321 -168q-199 0 -311.5 144.5t-112.5 398.5zM403 530.5q0 -145.5 53.5 -235.5t137.5 -90q131 0 225 168v313 q-100 158 -213 158q-94 0 -148.5 -84t-54.5 -229.5z" />
<glyph unicode="&#x112;" horiz-adv-x="1200" d="M168 0v1417h897v-250h-578v-323h549v-250h-549v-344h609v-250h-928zM227 1565v180h748v-180h-748z" />
<glyph unicode="&#x113;" horiz-adv-x="1228" d="M84 520q0 254 145 406q135 147 396 147q377 0 479 -278q45 -127 45 -373h-741q18 -225 274 -225q164 0 334 102l104 -219q-201 -104 -442 -105q-293 0 -443.5 138.5t-150.5 406.5zM242 1257v181h747v-181h-747zM408 625h430q-4 111 -59.5 171t-149.5 60q-96 0 -155.5 -61 t-65.5 -170z" />
<glyph unicode="&#x114;" horiz-adv-x="1200" d="M168 0v1417h897v-250h-578v-323h549v-250h-549v-344h609v-250h-928zM260 1870h168q6 -78 48 -106.5t153 -28.5q109 0 150.5 28.5t47.5 106.5h168q0 -147 -51 -215q-84 -115 -315.5 -115t-317.5 115q-51 68 -51 215z" />
<glyph unicode="&#x116;" horiz-adv-x="1200" d="M168 0v1417h897v-250h-578v-323h549v-250h-549v-344h609v-250h-928zM457 1710q0 76 50 125t126 49t126 -49t50 -127t-50 -127t-126 -49q-78 0 -127 50t-49 128z" />
<glyph unicode="&#x117;" horiz-adv-x="1228" d="M84 520q0 254 145 406q135 147 396 147q377 0 479 -278q45 -127 45 -373h-741q18 -225 274 -225q164 0 334 102l104 -219q-201 -104 -442 -105q-293 0 -443.5 138.5t-150.5 406.5zM408 625h430q-4 111 -59.5 171t-149.5 60q-96 0 -155.5 -61t-65.5 -170zM459 1362 q0 76 50 125t126 49q78 0 127 -49t49 -127t-49 -127t-127 -49t-127 50t-49 128z" />
<glyph unicode="&#x118;" horiz-adv-x="1200" d="M168 0v1417h897v-250h-578v-323h549v-250h-549v-344h609v-250q-127 -72 -170 -115t-43 -96q0 -100 139 -100q33 0 74 8l10 -137q-92 -12 -166 -13q-139 0 -219 53.5t-80 145.5q0 147 260 254h-733z" />
<glyph unicode="&#x119;" horiz-adv-x="1228" d="M84 520q0 254 145 406q135 147 396 147q377 0 479 -278q45 -127 45 -373h-741q18 -225 274 -225q164 0 334 102l104 -219q-147 -82 -321 -98q-102 -59 -141.5 -101.5t-39.5 -91.5q0 -47 36 -73.5t102 -26.5q35 0 75 8l11 -137q-92 -12 -166 -13q-139 0 -219 53.5 t-80 145.5q0 133 211 234q-184 18 -289 86q-215 135 -215 454zM408 625h430q-4 111 -59.5 171t-149.5 60q-96 0 -155.5 -61t-65.5 -170z" />
<glyph unicode="&#x11a;" horiz-adv-x="1200" d="M168 0v1417h897v-250h-578v-323h549v-250h-549v-344h609v-250h-928zM190 1870h287l139 -176l140 176h286l-243 -299h-365z" />
<glyph unicode="&#x11b;" horiz-adv-x="1228" d="M84 520q0 254 145 406q135 147 396 147q377 0 479 -278q45 -127 45 -373h-741q18 -225 274 -225q164 0 334 102l104 -219q-201 -104 -442 -105q-293 0 -443.5 138.5t-150.5 406.5zM201 1497h286l140 -176l139 176h287l-244 -299h-365zM408 625h430q-4 111 -59.5 171 t-149.5 60q-96 0 -155.5 -61t-65.5 -170z" />
<glyph unicode="&#x11c;" horiz-adv-x="1503" d="M94 692q0 412 264 611q178 139 482 139q264 0 495 -96l-108 -250q-193 96 -367 96q-211 0 -323.5 -126t-112.5 -361q0 -219 112.5 -349.5t305.5 -130.5q98 0 184 33v285h-244v250h553v-723q-164 -57 -266 -76t-240 -19q-358 0 -542 187q-193 192 -193 530zM387 1554 l244 299h364l244 -299h-287l-139 177l-139 -177h-287z" />
<glyph unicode="&#x11d;" horiz-adv-x="1296" d="M84 549q0 240 116.5 382t315.5 142q209 0 324 -158l8 134h295q-12 -311 -13 -412v-510q0 -188 -19 -273t-77 -155q-133 -164 -483 -164q-227 0 -416 78l82 223q150 -76 303 -76q209 0 271 127q31 63 30 219v66q-121 -143 -303 -143q-201 0 -317.5 139t-116.5 381z M221 1198l244 299h364l244 -299h-287l-139 176l-139 -176h-287zM403 545q0 -133 52.5 -210t144.5 -77q66 0 124 46t97 128v227q-29 84 -90 134.5t-135 50.5q-90 0 -141.5 -80t-51.5 -219z" />
<glyph unicode="&#x11e;" horiz-adv-x="1503" d="M94 692q0 412 264 611q178 139 482 139q264 0 495 -96l-108 -250q-193 96 -367 96q-211 0 -323.5 -126t-112.5 -361q0 -219 112.5 -349.5t305.5 -130.5q98 0 184 33v285h-244v250h553v-723q-164 -57 -266 -76t-240 -19q-358 0 -542 187q-193 192 -193 530zM446 1870h168 q6 -78 48.5 -106.5t152.5 -28.5q109 0 151 28.5t48 106.5h168q0 -147 -52 -215q-84 -115 -315 -115t-317 115q-52 68 -52 215z" />
<glyph unicode="&#x11f;" horiz-adv-x="1296" d="M84 549q0 240 116.5 382t315.5 142q209 0 324 -158l8 134h295q-12 -311 -13 -412v-510q0 -188 -19 -273t-77 -155q-133 -164 -483 -164q-227 0 -416 78l82 223q150 -76 303 -76q209 0 271 127q31 63 30 219v66q-121 -143 -303 -143q-201 0 -317.5 139t-116.5 381z M281 1497h168q6 -78 48 -106.5t152 -28.5q109 0 151 28.5t48 106.5h168q0 -147 -51 -215q-84 -115 -315.5 -115t-317.5 115q-51 68 -51 215zM403 545q0 -133 52.5 -210t144.5 -77q66 0 124 46t97 128v227q-29 84 -90 134.5t-135 50.5q-90 0 -141.5 -80t-51.5 -219z" />
<glyph unicode="&#x120;" horiz-adv-x="1503" d="M94 692q0 412 264 611q178 139 482 139q264 0 495 -96l-108 -250q-193 96 -367 96q-211 0 -323.5 -126t-112.5 -361q0 -219 112.5 -349.5t305.5 -130.5q98 0 184 33v285h-244v250h553v-723q-164 -57 -266 -76t-240 -19q-358 0 -542 187q-193 192 -193 530zM657 1710 q0 76 50.5 125t126 49t126 -49t50.5 -127t-50.5 -127t-125.5 -49q-78 0 -127.5 50t-49.5 128z" />
<glyph unicode="&#x121;" horiz-adv-x="1296" d="M84 549q0 240 116.5 382t315.5 142q209 0 324 -158l8 134h295q-12 -311 -13 -412v-510q0 -188 -19 -273t-77 -155q-133 -164 -483 -164q-227 0 -416 78l82 223q150 -76 303 -76q209 0 271 127q31 63 30 219v66q-121 -143 -303 -143q-201 0 -317.5 139t-116.5 381z M403 545q0 -133 52.5 -210t144.5 -77q66 0 124 46t97 128v227q-29 84 -90 134.5t-135 50.5q-90 0 -141.5 -80t-51.5 -219zM473 1362q0 76 50 125t126 49t126 -49t50 -127t-50 -127t-126 -49q-78 0 -127 50t-49 128z" />
<glyph unicode="&#x122;" horiz-adv-x="1503" d="M94 692q0 412 264 611q178 139 482 139q264 0 495 -96l-108 -250q-193 96 -367 96q-211 0 -323.5 -126t-112.5 -361q0 -219 112.5 -349.5t305.5 -130.5q98 0 184 33v285h-244v250h553v-723q-164 -57 -266 -76t-240 -19q-358 0 -542 187q-193 192 -193 530zM465 -379 l240 313h339l-296 -313h-283z" />
<glyph unicode="&#x123;" horiz-adv-x="1296" d="M84 549q0 240 116.5 382t315.5 142q209 0 324 -158l8 134h295q-12 -311 -13 -412v-510q0 -188 -19 -273t-77 -155q-133 -164 -483 -164q-227 0 -416 78l82 223q150 -76 303 -76q209 0 271 127q31 63 30 219v66q-121 -143 -303 -143q-201 0 -317.5 139t-116.5 381z M403 545q0 -133 52.5 -210t144.5 -77q66 0 124 46t97 128v227q-29 84 -90 134.5t-135 50.5q-90 0 -141.5 -80t-51.5 -219zM424 1184l297 313h283l-242 -313h-338z" />
<glyph unicode="&#x124;" horiz-adv-x="1492" d="M168 0v1417h319v-569h519v569h319v-1417h-319v598h-519v-598h-319zM319 1554l244 299h365l243 -299h-286l-140 177l-139 -177h-287z" />
<glyph unicode="&#x125;" horiz-adv-x="1310" d="M-94 1554l244 299h364l244 -299h-285l-141 177l-139 -177h-287zM162 0v1497h311v-571q145 147 340 147q213 0 297 -149q47 -84 47 -275v-649h-309v625q0 100 -19 145q-35 74 -124 74q-123 0 -232 -164v-680h-311z" />
<glyph unicode="&#x126;" horiz-adv-x="1492" d="M45 1028v164h123v225h319v-225h519v225h319v-225h123v-164h-123v-1028h-319v598h-519v-598h-319v1028h-123zM487 848h519v180h-519v-180z" />
<glyph unicode="&#x127;" horiz-adv-x="1310" d="M14 1196v180h148v121h311v-121h289v-180h-289v-270q141 147 340 147q213 0 297 -149q47 -84 47 -275v-649h-309v625q0 100 -19 145q-33 74 -124 74q-125 0 -232 -164v-680h-311v1196h-148z" />
<glyph unicode="&#x12a;" horiz-adv-x="655" d="M-45 1565v180h747v-180h-747zM168 0v1417h319v-1417h-319z" />
<glyph unicode="&#x12b;" horiz-adv-x="624" d="M-61 1257v181h747v-181h-747zM158 0v1049h309v-1049h-309z" />
<glyph unicode="&#x12d;" horiz-adv-x="624" d="M-55 1497h168q6 -78 48 -106.5t152 -28.5q109 0 151 28.5t48 106.5h168q0 -147 -51 -215q-84 -115 -315.5 -115t-317.5 115q-51 68 -51 215zM158 0v1049h309v-1049h-309z" />
<glyph unicode="&#x12e;" horiz-adv-x="655" d="M33 -254q0 147 260 254h-125v1417h319v-1417q-127 -72 -170 -115t-43 -96q0 -100 140 -100q33 0 73 8l11 -137q-92 -12 -166 -13q-139 0 -219 53.5t-80 145.5z" />
<glyph unicode="&#x12f;" horiz-adv-x="624" d="M12 -254q0 76 62.5 136.5t197.5 117.5h-114v1049h309v-1049q-125 -72 -169 -115t-44 -96q0 -47 36 -73.5t101 -26.5q35 0 76 8l10 -137q-92 -12 -166 -13q-139 0 -219 53.5t-80 145.5zM133 1366q0 76 51.5 127t129 51t129 -51t51.5 -129t-51.5 -129t-129.5 -51 q-80 0 -130 51t-50 131z" />
<glyph unicode="&#x130;" horiz-adv-x="655" d="M152 1710q0 76 50 125t126 49q78 0 127 -49t49 -127t-49 -127t-127 -49t-127 50t-49 128zM168 0v1417h319v-1417h-319z" />
<glyph unicode="&#x131;" horiz-adv-x="624" d="M158 0v1049h309v-1049h-309z" />
<glyph unicode="&#x134;" horiz-adv-x="866" d="M4 18l27 263q102 -47 180 -48q104 0 149 70q31 43 31 209v905h320v-835q0 -229 -16.5 -318.5t-73.5 -157.5q-106 -131 -349 -131q-153 0 -268 43zM102 1554l244 299h365l243 -299h-286l-140 177l-139 -177h-287z" />
<glyph unicode="&#x135;" horiz-adv-x="659" d="M-96 1198l243 299h365l244 -299h-287l-139 176l-140 -176h-286zM-82 -434l25 229q76 -23 116 -22q74 0 102.5 56t28.5 200v1020h310v-1043q0 -143 -16.5 -221t-59.5 -133q-88 -117 -289 -117q-100 0 -217 31z" />
<glyph unicode="&#x136;" horiz-adv-x="1396" d="M168 0v1417h319v-659l525 659h360l-534 -655l555 -762h-381l-525 739v-739h-319zM369 -379l239 313h340l-297 -313h-282z" />
<glyph unicode="&#x137;" horiz-adv-x="1193" d="M162 0v1497h309v-889l326 441h346l-361 -455l410 -594h-367l-354 535v-535h-309zM258 -379l240 313h340l-297 -313h-283z" />
<glyph unicode="&#x139;" horiz-adv-x="1087" d="M168 0v1417h319v-1167h609v-250h-928zM180 1554l246 299h369l-330 -299h-285z" />
<glyph unicode="&#x13a;" horiz-adv-x="632" d="M119 1554l246 299h368l-330 -299h-284zM162 0v1497h309v-1497h-309z" />
<glyph unicode="&#x13b;" horiz-adv-x="1087" d="M168 0v1417h319v-1167h609v-250h-928zM256 -379l240 313h340l-297 -313h-283z" />
<glyph unicode="&#x13c;" horiz-adv-x="632" d="M-43 -379l240 313h340l-297 -313h-283zM162 0v1497h309v-1497h-309z" />
<glyph unicode="&#x13d;" horiz-adv-x="1087" d="M168 0v1417h319v-1167h609v-250h-928zM610 918l178 579h312l-230 -579h-260z" />
<glyph unicode="&#x13e;" horiz-adv-x="946" d="M162 0v1497h309v-1497h-309zM582 918l178 579h299l-230 -579h-247z" />
<glyph unicode="&#x141;" horiz-adv-x="1116" d="M23 416v213l174 112v676h319v-465l246 160v-213l-246 -160v-489h608v-250h-927v530z" />
<glyph unicode="&#x142;" horiz-adv-x="684" d="M18 463v219l170 119v696h310v-477l168 119v-217l-168 -121v-801h-310v584z" />
<glyph unicode="&#x143;" horiz-adv-x="1540" d="M168 0v1417h352l377 -637q100 -174 174 -334q-6 82 -6 271v700h307v-1417h-346l-354 594q-106 182 -203 379q6 -119 6 -338v-635h-307zM612 1554l246 299h369l-330 -299h-285z" />
<glyph unicode="&#x144;" horiz-adv-x="1310" d="M154 1049h284l11 -146q94 96 172.5 133t191.5 37q211 0 295 -149q49 -82 49 -275v-649h-309v625q0 100 -19 145q-35 74 -124 74q-123 0 -232 -164v-680h-309v659q0 154 -10 390zM506 1198l246 299h368l-329 -299h-285z" />
<glyph unicode="&#x145;" horiz-adv-x="1540" d="M168 0v1417h352l377 -637q100 -174 174 -334q-6 82 -6 271v700h307v-1417h-346l-354 594q-106 182 -203 379q6 -119 6 -338v-635h-307zM428 -379l240 313h340l-297 -313h-283z" />
<glyph unicode="&#x146;" horiz-adv-x="1310" d="M154 1049h284l11 -146q94 96 172.5 133t191.5 37q211 0 295 -149q49 -82 49 -275v-649h-309v625q0 100 -19 145q-35 74 -124 74q-123 0 -232 -164v-680h-309v659q0 154 -10 390zM295 -379l240 313h339l-296 -313h-283z" />
<glyph unicode="&#x147;" horiz-adv-x="1540" d="M168 0v1417h352l377 -637q100 -174 174 -334q-6 82 -6 271v700h307v-1417h-346l-354 594q-106 182 -203 379q6 -119 6 -338v-635h-307zM379 1870h287l139 -176l139 176h287l-244 -299h-364z" />
<glyph unicode="&#x148;" horiz-adv-x="1310" d="M154 1049h284l11 -146q94 96 172.5 133t191.5 37q211 0 295 -149q49 -82 49 -275v-649h-309v625q0 100 -19 145q-35 74 -124 74q-123 0 -232 -164v-680h-309v659q0 154 -10 390zM270 1497h287l139 -176l140 176h286l-243 -299h-365z" />
<glyph unicode="&#x14c;" horiz-adv-x="1554" d="M94 717q0 356 213 559q176 166 471 166q342 0 520 -223q162 -201 162 -510q0 -360 -213 -568q-172 -166 -471 -166q-342 0 -520 224q-162 201 -162 518zM403 1565v180h748v-180h-748zM424 715q0 -227 94 -358.5t258 -131.5t259 130t95 353.5t-95 353.5t-259 130 q-162 0 -257 -129t-95 -348z" />
<glyph unicode="&#x14d;" horiz-adv-x="1247" d="M84 530q0 272 164 420q129 123 377 123q276 0 415 -166q123 -147 123 -383q0 -279 -164 -426q-129 -123 -376 -123q-276 0 -416 166q-123 147 -123 389zM250 1257v181h747v-181h-747zM403 528q0 -160 56.5 -243.5t163 -83.5t164 83t57.5 240q0 156 -56.5 240t-163 84 t-164 -83t-57.5 -237z" />
<glyph unicode="&#x150;" horiz-adv-x="1554" d="M94 717q0 356 213 559q176 166 471 166q342 0 520 -223q162 -201 162 -510q0 -360 -213 -568q-172 -166 -471 -166q-342 0 -520 224q-162 201 -162 518zM375 1554l246 299h368l-330 -299h-284zM424 715q0 -227 94 -358.5t258 -131.5t259 130t95 353.5t-95 353.5t-259 130 q-162 0 -257 -129t-95 -348zM856 1554l244 299h368l-333 -299h-279z" />
<glyph unicode="&#x151;" horiz-adv-x="1247" d="M84 530q0 272 164 420q129 123 377 123q276 0 415 -166q123 -147 123 -383q0 -279 -164 -426q-129 -123 -376 -123q-276 0 -416 166q-123 147 -123 389zM221 1198l246 299h369l-330 -299h-285zM403 528q0 -160 56.5 -243.5t163 -83.5t164 83t57.5 240q0 156 -56.5 240 t-163 84t-164 -83t-57.5 -237zM702 1198l244 299h369l-334 -299h-279z" />
<glyph unicode="&#x152;" horiz-adv-x="2023" d="M94 709q0 217 78 377.5t223 242.5q94 53 199.5 70.5t329.5 17.5h964v-250h-577v-323h549v-250h-549v-344h608v-250h-985q-246 0 -363 31q-236 57 -356.5 230.5t-120.5 447.5zM424 723q0 -270 158 -391q111 -82 352 -82h57v917h-57q-170 0 -251 -18.5t-138 -71.5 q-121 -114 -121 -354z" />
<glyph unicode="&#x153;" horiz-adv-x="1959" d="M84 524q0 260 135 404.5t379 144.5q252 0 379 -158q137 158 383 158q182 0 305 -71.5t170 -206.5q45 -125 45 -373h-741q18 -225 274 -225q164 0 334 102l104 -219q-195 -104 -444 -105q-158 0 -256 37t-178 125q-72 -88 -156 -125t-211 -37q-248 0 -385 143.5 t-137 405.5zM403 528q0 -160 53.5 -243.5t154 -83.5t154.5 83t54 240.5t-54 240.5t-155 83q-98 0 -152.5 -83t-54.5 -237zM1139 625h430q-4 111 -59.5 171t-149.5 60q-96 0 -155.5 -61t-65.5 -170z" />
<glyph unicode="&#x154;" horiz-adv-x="1302" d="M168 0v1417h512q248 0 356 -80q139 -104 140 -301q0 -137 -69 -230t-196 -128q59 -25 91 -70t110 -211l178 -397h-340l-114 270q-78 186 -130.5 243.5t-144.5 57.5h-74v-571h-319zM453 1554l245 299h369l-330 -299h-284zM479 811h111q266 0 266 188q0 94 -61 140 q-57 39 -205 39h-111v-367z" />
<glyph unicode="&#x155;" horiz-adv-x="835" d="M154 1049h292l11 -201q76 215 264 215q49 0 104 -16l-14 -267q-53 12 -102 13q-186 0 -238 -226v-567h-307v696q0 179 -10 353zM283 1198l245 299h369l-330 -299h-284z" />
<glyph unicode="&#x156;" horiz-adv-x="1302" d="M168 0v1417h512q248 0 356 -80q139 -104 140 -301q0 -137 -69 -230t-196 -128q59 -25 91 -70t110 -211l178 -397h-340l-114 270q-78 186 -130.5 243.5t-144.5 57.5h-74v-571h-319zM344 -379l240 313h340l-297 -313h-283zM479 811h111q266 0 266 188q0 94 -61 140 q-57 39 -205 39h-111v-367z" />
<glyph unicode="&#x157;" horiz-adv-x="835" d="M-80 -379l240 313h340l-297 -313h-283zM154 1049h292l11 -201q76 215 264 215q49 0 104 -16l-14 -267q-53 12 -102 13q-186 0 -238 -226v-567h-307v696q0 179 -10 353z" />
<glyph unicode="&#x158;" horiz-adv-x="1302" d="M168 0v1417h512q248 0 356 -80q139 -104 140 -301q0 -137 -69 -230t-196 -128q59 -25 91 -70t110 -211l178 -397h-340l-114 270q-78 186 -130.5 243.5t-144.5 57.5h-74v-571h-319zM225 1870h287l139 -176l140 176h286l-243 -299h-365zM479 811h111q266 0 266 188 q0 94 -61 140q-57 39 -205 39h-111v-367z" />
<glyph unicode="&#x159;" horiz-adv-x="835" d="M39 1497h287l139 -176l139 176h287l-244 -299h-364zM154 1049h292l11 -201q76 215 264 215q49 0 104 -16l-14 -267q-53 12 -102 13q-186 0 -238 -226v-567h-307v696q0 179 -10 353z" />
<glyph unicode="&#x15a;" horiz-adv-x="1183" d="M94 55l45 273q244 -102 414 -103q96 0 151.5 45t55.5 123q0 61 -44 96t-216 105q-203 82 -279 137q-125 94 -125 268q0 225 162 349q125 94 334 94q207 0 452 -78l-65 -258q-139 51 -213 68.5t-154 17.5q-88 0 -137 -40t-49 -110q0 -57 42 -89.5t197.5 -96t208 -89.5 t97.5 -60q123 -96 123 -287q0 -217 -134.5 -331t-390.5 -114q-250 0 -475 80zM442 1554l246 299h369l-330 -299h-285z" />
<glyph unicode="&#x15b;" horiz-adv-x="991" d="M84 66l78 229q145 -98 299 -98q147 0 147 104q0 47 -41 72q-25 14 -170 63q-168 57 -225 107q-80 70 -80 196q0 158 110.5 246t311.5 88q168 0 377 -74l-76 -229q-162 84 -291 84q-63 0 -99 -25.5t-36 -68.5q0 -33 25.5 -52.5t105.5 -48.5q213 -70 287 -124 q100 -76 100 -205q0 -143 -100 -244q-115 -111 -342 -111q-219 1 -381 91zM307 1198l246 299h369l-330 -299h-285z" />
<glyph unicode="&#x15c;" horiz-adv-x="1183" d="M94 55l45 273q244 -102 414 -103q96 0 151.5 45t55.5 123q0 61 -44 96t-216 105q-203 82 -279 137q-125 94 -125 268q0 225 162 349q125 94 334 94q207 0 452 -78l-65 -258q-139 51 -213 68.5t-154 17.5q-88 0 -137 -40t-49 -110q0 -57 42 -89.5t197.5 -96t208 -89.5 t97.5 -60q123 -96 123 -287q0 -217 -134.5 -331t-390.5 -114q-250 0 -475 80zM193 1554l243 299h365l243 -299h-286l-140 177l-139 -177h-286z" />
<glyph unicode="&#x15d;" horiz-adv-x="991" d="M84 66l78 229q145 -98 299 -98q147 0 147 104q0 47 -41 72q-25 14 -170 63q-168 57 -225 107q-80 70 -80 196q0 158 110.5 246t311.5 88q168 0 377 -74l-76 -229q-162 84 -291 84q-63 0 -99 -25.5t-36 -68.5q0 -33 25.5 -52.5t105.5 -48.5q213 -70 287 -124 q100 -76 100 -205q0 -143 -100 -244q-115 -111 -342 -111q-219 1 -381 91zM96 1198l244 299h365l243 -299h-286l-140 176l-139 -176h-287z" />
<glyph unicode="&#x15e;" horiz-adv-x="1183" d="M94 55l45 273q244 -102 414 -103q96 0 151.5 45t55.5 123q0 61 -44 96t-216 105q-203 82 -279 137q-125 94 -125 268q0 225 162 349q125 94 334 94q207 0 452 -78l-65 -258q-139 51 -213 68.5t-154 17.5q-88 0 -137 -40t-49 -110q0 -57 42 -89.5t197.5 -96t208 -89.5 t97.5 -60q123 -96 123 -287q0 -217 -134.5 -331t-390.5 -114q-250 0 -475 80zM207 -379l239 313h340l-297 -313h-282z" />
<glyph unicode="&#x15f;" horiz-adv-x="991" d="M84 66l78 229q145 -98 299 -98q147 0 147 104q0 47 -41 72q-25 14 -170 63q-168 57 -225 107q-80 70 -80 196q0 158 110.5 246t311.5 88q168 0 377 -74l-76 -229q-162 84 -291 84q-63 0 -99 -25.5t-36 -68.5q0 -33 25.5 -52.5t105.5 -48.5q213 -70 287 -124 q100 -76 100 -205q0 -143 -100 -244q-115 -111 -342 -111q-219 1 -381 91zM125 -379l240 313h340l-297 -313h-283z" />
<glyph unicode="&#x160;" horiz-adv-x="1183" d="M94 55l45 273q244 -102 414 -103q96 0 151.5 45t55.5 123q0 61 -44 96t-216 105q-203 82 -279 137q-125 94 -125 268q0 225 162 349q125 94 334 94q207 0 452 -78l-65 -258q-139 51 -213 68.5t-154 17.5q-88 0 -137 -40t-49 -110q0 -57 42 -89.5t197.5 -96t208 -89.5 t97.5 -60q123 -96 123 -287q0 -217 -134.5 -331t-390.5 -114q-250 0 -475 80zM193 1870h286l139 -176l140 176h286l-243 -299h-365z" />
<glyph unicode="&#x161;" horiz-adv-x="991" d="M84 66l78 229q145 -98 299 -98q147 0 147 104q0 47 -41 72q-25 14 -170 63q-168 57 -225 107q-80 70 -80 196q0 158 110.5 246t311.5 88q168 0 377 -74l-76 -229q-162 84 -291 84q-63 0 -99 -25.5t-36 -68.5q0 -33 25.5 -52.5t105.5 -48.5q213 -70 287 -124 q100 -76 100 -205q0 -143 -100 -244q-115 -111 -342 -111q-219 1 -381 91zM90 1497h287l139 -176l139 176h287l-244 -299h-364z" />
<glyph unicode="&#x163;" horiz-adv-x="813" d="M49 823v226h168v225l309 57v-282h232v-226h-232v-422q0 -100 32 -141t106 -41q37 0 110 21l27 -228q-129 -37 -254 -37q-193 0 -273 117q-57 82 -57 309v422h-168zM102 -379l240 313h340l-297 -313h-283z" />
<glyph unicode="&#x164;" horiz-adv-x="1169" d="M12 1167v250h1145v-250h-416v-1167h-319v1167h-410zM158 1870h286l140 -176l139 176h287l-244 -299h-365z" />
<glyph unicode="&#x165;" horiz-adv-x="1052" d="M49 823v226h168v225l309 57v-282h232v-226h-232v-422q0 -100 32 -141t106 -41q37 0 110 21l27 -228q-129 -37 -254 -37q-193 0 -273 117q-57 82 -57 309v422h-168zM735 1161l178 580h299l-229 -580h-248z" />
<glyph unicode="&#x16a;" horiz-adv-x="1476" d="M156 633v784h319v-823q0 -215 49 -281q66 -88 215 -88q84 0 148.5 33t93.5 86q31 66 31 250v823h309v-784q0 -225 -17.5 -319.5t-74.5 -166.5q-141 -172 -490 -172q-389 0 -518 211q-39 66 -52 155t-13 292zM365 1565v180h747v-180h-747z" />
<glyph unicode="&#x16b;" horiz-adv-x="1300" d="M154 399v650h309v-625q0 -100 18 -145q33 -74 121 -74q119 0 225 164v680h310v-660q0 -125 10 -389h-285l-10 145q-92 -96 -171 -133t-187 -37q-209 0 -293 150q-47 86 -47 274zM276 1257v181h748v-181h-748z" />
<glyph unicode="&#x16d;" horiz-adv-x="1300" d="M154 399v650h309v-625q0 -100 18 -145q33 -74 121 -74q119 0 225 164v680h310v-660q0 -125 10 -389h-285l-10 145q-92 -96 -171 -133t-187 -37q-209 0 -293 150q-47 86 -47 274zM283 1497h168q6 -78 48 -106.5t152 -28.5q109 0 151 28.5t48 106.5h168q0 -147 -51 -215 q-84 -115 -315.5 -115t-317.5 115q-51 68 -51 215z" />
<glyph unicode="&#x16e;" horiz-adv-x="1476" d="M156 633v784h319v-823q0 -215 49 -281q66 -88 215 -88q84 0 148.5 33t93.5 86q31 66 31 250v823h309v-784q0 -225 -17.5 -319.5t-74.5 -166.5q-141 -172 -490 -172q-389 0 -518 211q-39 66 -52 155t-13 292zM477 1667q0 111 76 184.5t190 73.5q117 0 192 -72.5t75 -187.5 t-75 -188.5t-191.5 -73.5t-191.5 73.5t-75 190.5zM635 1663q0 -117 108 -117q51 0 80 32t29 85q0 55 -28.5 87t-80 32t-80 -32t-28.5 -87z" />
<glyph unicode="&#x16f;" horiz-adv-x="1300" d="M154 399v650h309v-625q0 -100 18 -145q33 -74 121 -74q119 0 225 164v680h310v-660q0 -125 10 -389h-285l-10 145q-92 -96 -171 -133t-187 -37q-209 0 -293 150q-47 86 -47 274zM416 1393q0 96 67.5 161.5t167.5 65.5q102 0 169 -65.5t67 -166t-66.5 -166t-169 -65.5 t-169 66t-66.5 170zM561 1389q0 -98 90 -98.5t90 98t-90 98.5q-41 0 -65.5 -26.5t-24.5 -71.5z" />
<glyph unicode="&#x170;" horiz-adv-x="1476" d="M156 633v784h319v-823q0 -215 49 -281q66 -88 215 -88q84 0 148.5 33t93.5 86q31 66 31 250v823h309v-784q0 -225 -17.5 -319.5t-74.5 -166.5q-141 -172 -490 -172q-389 0 -518 211q-39 66 -52 155t-13 292zM336 1554l246 299h368l-329 -299h-285zM817 1554l244 299h369 l-334 -299h-279z" />
<glyph unicode="&#x171;" horiz-adv-x="1300" d="M154 399v650h309v-625q0 -100 18 -145q33 -74 121 -74q119 0 225 164v680h310v-660q0 -125 10 -389h-285l-10 145q-92 -96 -171 -133t-187 -37q-209 0 -293 150q-47 86 -47 274zM248 1198l246 299h368l-330 -299h-284zM729 1198l244 299h368l-333 -299h-279z" />
<glyph unicode="&#x172;" horiz-adv-x="1476" d="M156 633v784h319v-823q0 -215 49 -281q66 -88 215 -88q84 0 148.5 33t93.5 86q31 66 31 250v823h309v-784q0 -225 -17.5 -319.5t-74.5 -166.5q-92 -115 -289 -155q-199 -104 -199 -203q0 -100 140 -100q33 0 73 8l11 -137q-92 -12 -166 -13q-139 0 -219 53.5t-80 145.5 q0 68 48 122t157 107q-160 8 -257.5 40t-166.5 98q-76 74 -100.5 174t-24.5 346z" />
<glyph unicode="&#x173;" horiz-adv-x="1300" d="M154 399v650h309v-625q0 -100 18 -145q33 -74 121 -74q119 0 225 164v680h310v-660q0 -125 10 -389q-127 -72 -170 -115t-43 -96q0 -100 139 -100q33 0 74 8l10 -137q-92 -12 -166 -13q-139 0 -219 53.5t-80 145.5q0 147 260 254h-90l-10 145q-92 -96 -171 -133t-187 -37 q-209 0 -293 150q-47 86 -47 274z" />
<glyph unicode="&#x174;" horiz-adv-x="2004" d="M53 1417h314l145 -631q31 -133 72 -340q35 143 86 320l190 651h307l172 -610q47 -164 91 -344q41 199 75 344l146 610h301l-359 -1417h-309l-176 616q-47 156 -102 381q-51 -197 -107 -372l-190 -625h-312zM575 1554l244 299h365l243 -299h-286l-140 177l-139 -177h-287z " />
<glyph unicode="&#x176;" horiz-adv-x="1353" d="M-20 1417h370l234 -375q57 -94 104 -184q45 86 107 186l231 373h348l-534 -835v-582h-320v582zM252 1554l244 299h364l244 -299h-287l-139 177l-139 -177h-287z" />
<glyph unicode="&#x177;" horiz-adv-x="1181" d="M8 -420l53 234q82 -35 142 -35q76 0 124 53t111 207l-430 1010h328l186 -459q47 -111 90 -240q47 143 90 254l168 445h306l-422 -1022q-76 -180 -113 -252t-84 -125q-104 -117 -291 -117q-133 0 -258 47zM166 1198l244 299h364l244 -299h-287l-139 176l-139 -176h-287z " />
<glyph unicode="&#x178;" horiz-adv-x="1353" d="M-20 1417h370l234 -375q57 -94 104 -184q45 86 107 186l231 373h348l-534 -835v-582h-320v582zM274 1710q0 76 50.5 125t126.5 49q78 0 127 -49t49 -127t-49.5 -127t-127 -49t-127 50t-49.5 128zM729 1710q0 76 50 125t126 49q78 0 127 -49t49 -127t-49 -127t-127 -49 t-127 50t-49 128z" />
<glyph unicode="&#x179;" horiz-adv-x="1220" d="M53 0v225l690 942h-665v250h1065v-225l-690 -942h714v-250h-1114zM461 1554l246 299h368l-330 -299h-284z" />
<glyph unicode="&#x17a;" horiz-adv-x="983" d="M53 0v195l471 628h-444v226h829v-203l-465 -621h482v-225h-873zM328 1198l245 299h369l-330 -299h-284z" />
<glyph unicode="&#x17b;" horiz-adv-x="1220" d="M53 0v225l690 942h-665v250h1065v-225l-690 -942h714v-250h-1114zM475 1710q0 76 50 125t126 49q78 0 127 -49t49 -127t-49 -127t-127 -49t-127 50t-49 128z" />
<glyph unicode="&#x17c;" horiz-adv-x="983" d="M53 0v195l471 628h-444v226h829v-203l-465 -621h482v-225h-873zM356 1362q0 76 50.5 125t125.5 49q78 0 127.5 -49t49.5 -127t-49.5 -127t-127 -49t-127 50t-49.5 128z" />
<glyph unicode="&#x17d;" horiz-adv-x="1220" d="M53 0v225l690 942h-665v250h1065v-225l-690 -942h714v-250h-1114zM219 1870h287l139 -176l139 176h287l-244 -299h-364z" />
<glyph unicode="&#x17e;" horiz-adv-x="983" d="M53 0v195l471 628h-444v226h829v-203l-465 -621h482v-225h-873zM86 1497h287l139 -176l139 176h287l-244 -299h-364z" />
<glyph unicode="&#x192;" d="M-43 -193l59 232q96 -41 166 -41q74 0 113 67.5t76 260.5l55 288h-178v220h219l27 131q29 156 54 228.5t68 123.5q102 121 302 121q125 0 284 -56l-65 -223q-96 35 -160 35q-76 0 -111 -55.5t-67 -229.5l-15 -75h260v-220h-303l-63 -338q-39 -197 -68.5 -279.5 t-81.5 -135.5q-100 -106 -288 -107q-148 0 -283 53z" />
<glyph unicode="&#x1cd;" horiz-adv-x="1458" d="M12 0l541 1417h334l559 -1417h-338l-123 338h-534l-121 -338h-318zM303 1870h287l139 -176l139 176h287l-244 -299h-364zM535 578h366l-110 307q-39 111 -74 221q-23 -84 -72 -221z" />
<glyph unicode="&#x1ce;" horiz-adv-x="1206" d="M66 299q0 201 155 291q102 57 324 57q86 0 186 -8v12q0 96 -60.5 150.5t-168.5 54.5q-125 0 -293 -84l-59 217q182 84 399 84q264 0 391 -133q59 -61 79.5 -138t20.5 -239v-291q6 -227 13 -272h-297l-11 117q-78 -78 -152.5 -110t-180.5 -32q-162 0 -254 86t-92 238z M156 1497h286l140 -176l139 176h287l-244 -299h-365zM385 307q0 -63 38 -101t99 -38q117 0 209 135v164q-51 4 -100 4q-246 0 -246 -164z" />
<glyph unicode="&#x1d3;" horiz-adv-x="1476" d="M156 633v784h319v-823q0 -215 49 -281q66 -88 215 -88q84 0 148.5 33t93.5 86q31 66 31 250v823h309v-784q0 -225 -17.5 -319.5t-74.5 -166.5q-141 -172 -490 -172q-389 0 -518 211q-39 66 -52 155t-13 292zM311 1870h287l139 -176l140 176h286l-243 -299h-365z" />
<glyph unicode="&#x1e6;" horiz-adv-x="1503" d="M94 692q0 412 264 611q178 139 482 139q264 0 495 -96l-108 -250q-193 96 -367 96q-211 0 -323.5 -126t-112.5 -361q0 -219 112.5 -349.5t305.5 -130.5q98 0 184 33v285h-244v250h553v-723q-164 -57 -266 -76t-240 -19q-358 0 -542 187q-193 192 -193 530zM395 1870h287 l139 -176l140 176h286l-243 -299h-365z" />
<glyph unicode="&#x1e7;" horiz-adv-x="1296" d="M84 549q0 240 116.5 382t315.5 142q209 0 324 -158l8 134h295q-12 -311 -13 -412v-510q0 -188 -19 -273t-77 -155q-133 -164 -483 -164q-227 0 -416 78l82 223q150 -76 303 -76q209 0 271 127q31 63 30 219v66q-121 -143 -303 -143q-201 0 -317.5 139t-116.5 381z M221 1497h287l139 -176l139 176h287l-244 -299h-364zM403 545q0 -133 52.5 -210t144.5 -77q66 0 124 46t97 128v227q-29 84 -90 134.5t-135 50.5q-90 0 -141.5 -80t-51.5 -219z" />
<glyph unicode="&#x219;" horiz-adv-x="991" d="M84 66l78 229q145 -98 299 -98q147 0 147 104q0 47 -41 72q-25 14 -170 63q-168 57 -225 107q-80 70 -80 196q0 158 110.5 246t311.5 88q168 0 377 -74l-76 -229q-162 84 -291 84q-63 0 -99 -25.5t-36 -68.5q0 -33 25.5 -52.5t105.5 -48.5q213 -70 287 -124 q100 -76 100 -205q0 -143 -100 -244q-115 -111 -342 -111q-219 1 -381 91zM135 -379l240 313h340l-297 -313h-283z" />
<glyph unicode="&#x21a;" horiz-adv-x="1169" d="M12 1167v250h1145v-250h-416v-1167h-319v1167h-410zM195 -379l239 313h340l-297 -313h-282z" />
<glyph unicode="&#x2bc;" horiz-adv-x="557" d="M35 918l178 579h340l-229 -579h-289z" />
<glyph unicode="&#x2c6;" horiz-adv-x="1024" d="M86 1198l244 299h364l244 -299h-287l-139 176l-139 -176h-287z" />
<glyph unicode="&#x2c7;" horiz-adv-x="1024" d="M86 1497h287l139 -176l139 176h287l-244 -299h-364z" />
<glyph unicode="&#x2c9;" horiz-adv-x="1024" d="M139 1257v181h748v-181h-748z" />
<glyph unicode="&#x2d8;" horiz-adv-x="1024" d="M143 1497h168q6 -78 48 -106.5t153 -28.5q109 0 151 28.5t48 106.5h168q0 -147 -52 -215q-84 -115 -315 -115t-317 115q-52 68 -52 215z" />
<glyph unicode="&#x2d9;" horiz-adv-x="1024" d="M336 1362q0 76 50 125t126 49q78 0 127 -49t49 -127t-49 -127t-127 -49t-127 50t-49 128z" />
<glyph unicode="&#x2da;" horiz-adv-x="1024" d="M276 1393q0 96 68 161.5t168 65.5q102 0 169 -65.5t67 -166t-67 -166t-169 -65.5t-169 66t-67 170zM422 1389q0 -98 90 -98.5t90 98t-90 98.5q-41 0 -65.5 -26.5t-24.5 -71.5z" />
<glyph unicode="&#x2db;" horiz-adv-x="1024" d="M213 -254q0 147 258 254h197q-125 -70 -169 -114t-44 -97q0 -47 35.5 -73.5t101.5 -26.5q35 0 76 8l10 -137q-92 -12 -168 -13q-137 0 -217 53.5t-80 145.5z" />
<glyph unicode="&#x2dc;" horiz-adv-x="1024" d="M102 1202q8 129 66.5 206t150.5 77q63 0 205 -45q115 -39 154 -39q37 0 53.5 17.5t22.5 64.5h168q-16 -285 -226 -285q-43 0 -76.5 8t-195.5 60q-55 16 -80 16q-57 0 -72 -80h-170z" />
<glyph unicode="&#x2dd;" horiz-adv-x="1024" d="M109 1198l245 299h369l-330 -299h-284zM590 1198l244 299h368l-334 -299h-278z" />
<glyph unicode="&#x384;" horiz-adv-x="1024" d="M375 1182l106 336h369l-211 -336h-264z" />
<glyph unicode="&#x385;" horiz-adv-x="1024" d="M55 1370q0 59 39 98t100.5 39t100.5 -38.5t39 -100t-39 -100.5t-100 -39q-63 0 -101.5 39t-38.5 102zM373 1536h278l-37 -356h-204zM690 1370q0 59 39 98t100.5 39t100.5 -38.5t39 -100t-39 -100.5t-101 -39q-63 0 -101 39t-38 102z" />
<glyph unicode="&#x386;" horiz-adv-x="1458" d="M-98 1059l106 438h369l-211 -438h-264zM12 0l541 1417h332l561 -1417h-338l-123 338h-534l-121 -338h-318zM532 578h369l-110 307q-39 104 -74 221q-31 -109 -74 -221z" />
<glyph unicode="&#x387;" horiz-adv-x="647" d="M133 594q0 80 54.5 133t136.5 53t135 -54t53 -136t-53 -135.5t-135 -53.5q-84 0 -137.5 54.5t-53.5 138.5z" />
<glyph unicode="&#x388;" horiz-adv-x="1587" d="M-25 1059l107 438h369l-211 -438h-265zM553 0v1417h897v-250h-578v-323h549v-250h-549v-344h609v-250h-928z" />
<glyph unicode="&#x389;" horiz-adv-x="1880" d="M-25 1059l107 438h369l-211 -438h-265zM553 0v1417h319v-569h519v569h319v-1417h-319v598h-519v-598h-319z" />
<glyph unicode="&#x38a;" horiz-adv-x="1075" d="M-25 1059l107 438h369l-211 -438h-265zM569 0v1417h320v-1417h-320z" />
<glyph unicode="&#x38c;" horiz-adv-x="1859" d="M-25 1059l107 438h369l-211 -438h-265zM397 717q0 356 213 559q176 166 471 166q342 0 521 -223q162 -201 161 -510q0 -360 -213 -568q-172 -166 -471 -166q-342 0 -520 224q-162 201 -162 518zM727 715q0 -227 94 -358.5t258 -131.5t259.5 130t95.5 353.5t-95.5 353.5 t-259.5 130q-162 0 -257 -129t-95 -348z" />
<glyph unicode="&#x38e;" horiz-adv-x="1867" d="M-25 1059l107 438h369l-211 -438h-265zM492 1417h370l234 -375q57 -94 104 -184q45 86 107 186l231 373h348l-534 -835v-582h-320v582z" />
<glyph unicode="&#x38f;" horiz-adv-x="1947" d="M-25 1059l107 438h369l-211 -438h-265zM399 819q0 303 232 481q184 141 495 142q356 0 551 -191q174 -174 174 -432q0 -283 -223 -450q-74 -53 -182 -90v-46h393v-233h-612v426q141 47 198 111q98 109 99 276q0 178 -105.5 278.5t-292.5 100.5q-188 0 -293.5 -100.5 t-105.5 -278.5q0 -199 131 -305q49 -45 166 -82v-426h-612v233h393v46q-141 49 -227 129q-179 165 -179 411z" />
<glyph unicode="&#x390;" horiz-adv-x="733" d="M-127 1370q0 59 39 98t100.5 39t100.5 -38.5t39 -100t-39 -100.5t-101 -39q-63 0 -101 39t-38 102zM174 401v648h309v-666q0 -100 29 -141t96 -41q35 0 94 14l27 -209q-119 -31 -231 -31q-205 0 -279 136q-45 81 -45 290zM190 1536h279l-37 -356h-205zM508 1370 q0 59 39 98t100.5 39t100 -38.5t38.5 -100t-38.5 -100.5t-100.5 -39q-63 0 -101 39t-38 102z" />
<glyph unicode="&#x391;" horiz-adv-x="1458" d="M12 0l541 1417h334l559 -1417h-338l-123 338h-534l-121 -338h-318zM535 578h366l-110 307q-39 111 -74 221q-23 -84 -72 -221z" />
<glyph unicode="&#x392;" horiz-adv-x="1296" d="M168 0v1417h510q152 0 229.5 -17.5t136.5 -62.5q63 -47 99.5 -128t36.5 -171q0 -240 -213 -313q236 -74 235 -324q0 -211 -145 -317q-113 -84 -344 -84h-545zM479 229h152q119 0 170 27q78 43 78 160q0 109 -80 162q-55 35 -164 34h-156v-383zM479 823h148q131 0 182 37 q55 45 55 139q0 96 -61 148q-55 41 -193 41h-131v-365z" />
<glyph unicode="&#x393;" horiz-adv-x="1079" d="M168 0v1417h866v-250h-547v-1167h-319z" />
<glyph unicode="&#x394;" horiz-adv-x="1439" d="M41 0v225l475 1192h367l516 -1192v-225h-1358zM362 240h697l-246 645q-61 150 -104 284q-37 -125 -101 -284z" />
<glyph unicode="&#x395;" horiz-adv-x="1200" d="M168 0v1417h897v-250h-578v-323h549v-250h-549v-344h609v-250h-928z" />
<glyph unicode="&#x396;" horiz-adv-x="1220" d="M53 0v225l690 942h-665v250h1065v-225l-690 -942h714v-250h-1114z" />
<glyph unicode="&#x397;" horiz-adv-x="1492" d="M168 0v1417h319v-569h519v569h319v-1417h-319v598h-519v-598h-319z" />
<glyph unicode="&#x398;" horiz-adv-x="1554" d="M94 717q0 356 213 559q176 166 471 166q342 0 520 -223q162 -201 162 -510q0 -360 -213 -568q-172 -166 -471 -166q-342 0 -520 224q-162 201 -162 518zM424 715q0 -227 94 -358.5t258 -131.5t259 130t95 353.5t-95 353.5t-259 130q-162 0 -257 -129t-95 -348zM528 598 v242h498v-242h-498z" />
<glyph unicode="&#x399;" horiz-adv-x="688" d="M184 0v1417h320v-1417h-320z" />
<glyph unicode="&#x39a;" horiz-adv-x="1396" d="M168 0v1417h319v-659l525 659h360l-534 -655l555 -762h-381l-525 739v-739h-319z" />
<glyph unicode="&#x39b;" horiz-adv-x="1421" d="M12 0l523 1417h333l541 -1417h-338l-303 885q-29 82 -70 221l-26 -98l-9 -27l-12 -33q-2 -8 -10 -29.5t-12 -33.5l-299 -885h-318z" />
<glyph unicode="&#x39c;" horiz-adv-x="1935" d="M168 0v1417h473l246 -766q49 -160 82 -286q51 195 82 286l247 766h469v-1417h-307v1147q-29 -119 -78 -270l-284 -877h-273l-276 854l-29 86l-24 80l-17 61q-2 16 -16 66v-1147h-295z" />
<glyph unicode="&#x39d;" horiz-adv-x="1540" d="M168 0v1417h352l377 -637q100 -174 174 -334q-6 82 -6 271v700h307v-1417h-346l-354 594q-106 182 -203 379q6 -119 6 -338v-635h-307z" />
<glyph unicode="&#x39e;" horiz-adv-x="1173" d="M70 0v250h1034v-250h-1034zM100 1167v250h973v-250h-973zM182 598v250h809v-250h-809z" />
<glyph unicode="&#x39f;" horiz-adv-x="1554" d="M94 717q0 356 213 559q176 166 471 166q342 0 520 -223q162 -201 162 -510q0 -360 -213 -568q-172 -166 -471 -166q-342 0 -520 224q-162 201 -162 518zM424 715q0 -227 94 -358.5t258 -131.5t259 130t95 353.5t-95 353.5t-259 130q-162 0 -257 -129t-95 -348z" />
<glyph unicode="&#x3a0;" horiz-adv-x="1492" d="M66 1167v250h1361v-250h-139v-1167h-319v1167h-445v-1167h-319v1167h-139z" />
<glyph unicode="&#x3a1;" horiz-adv-x="1200" d="M168 0v1417h399q186 0 281.5 -19.5t165.5 -72.5q154 -115 153 -344q0 -223 -149 -344q-125 -96 -397 -96h-134v-541h-319zM479 780h92q135 0 191 29q86 41 86 162q0 117 -82 170q-63 37 -195 37h-92v-398z" />
<glyph unicode="&#x3a3;" horiz-adv-x="1155" d="M53 0v225l424 500l-399 467v225h1016v-250h-629l328 -370v-150l-353 -397h686v-250h-1073z" />
<glyph unicode="&#x3a4;" horiz-adv-x="1169" d="M12 1167v250h1145v-250h-416v-1167h-319v1167h-410z" />
<glyph unicode="&#x3a5;" horiz-adv-x="1353" d="M-20 1417h370l234 -375q57 -94 104 -184q45 86 107 186l231 373h348l-534 -835v-582h-320v582z" />
<glyph unicode="&#x3a6;" horiz-adv-x="1832" d="M94 709q0 258 179.5 415.5t498.5 182.5v172h291v-172q319 -25 498.5 -182.5t179.5 -415.5t-179.5 -416t-498.5 -182v-172h-291v172q-319 25 -498.5 182.5t-179.5 415.5zM424 708.5q0 -307.5 348 -364.5v729q-348 -57 -348 -364.5zM1063 344q348 57 348 364.5t-348 364.5 v-729z" />
<glyph unicode="&#x3a7;" horiz-adv-x="1503" d="M33 0l524 727l-498 690h371l330 -463l334 463h364l-514 -698l520 -719h-385l-336 473l-333 -473h-377z" />
<glyph unicode="&#x3a8;" horiz-adv-x="1943" d="M143 1006v411h320v-450q0 -137 16.5 -204t57.5 -104q70 -61 227 -61h49v819h320v-819h49q156 0 225 61q41 37 57.5 103.5t16.5 204.5v450h319v-411q0 -246 -24.5 -346.5t-100.5 -174.5q-143 -137 -477 -137h-65v-348h-320v348h-65q-180 0 -292 32t-187.5 105.5 t-100.5 174t-25 346.5z" />
<glyph unicode="&#x3a9;" horiz-adv-x="1644" d="M94 819q0 285 197.5 454t529.5 169t529.5 -169t197.5 -453.5t-225 -450.5q-70 -53 -182 -90v-46h395v-233h-614v426q135 45 198 111q98 111 99 276q0 178 -105.5 278.5t-292 100.5t-292 -100.5t-105.5 -278.5q0 -199 131 -305q45 -39 166 -82v-426h-615v233h396v46 q-145 51 -228 129q-180 165 -180 411z" />
<glyph unicode="&#x3aa;" horiz-adv-x="688" d="M-59 1710q0 76 50 125t126 49t126 -49t50 -127t-50 -127t-126 -49q-78 0 -127 50t-49 128zM184 0v1417h320v-1417h-320zM395 1710q0 76 50.5 125t126 49t126 -49t50.5 -127t-50.5 -127t-126.5 -49q-78 0 -127 50t-49 128z" />
<glyph unicode="&#x3ab;" horiz-adv-x="1353" d="M-20 1417h370l234 -375q57 -94 104 -184q45 86 107 186l231 373h348l-534 -835v-582h-320v582zM274 1710q0 76 50.5 125t126.5 49q78 0 127 -49t49 -127t-49.5 -127t-127 -49t-127 50t-49.5 128zM729 1710q0 76 50 125t126 49q78 0 127 -49t49 -127t-49 -127t-127 -49 t-127 50t-49 128z" />
<glyph unicode="&#x3ac;" horiz-adv-x="1300" d="M92 518q0 256 113.5 405.5t308.5 149.5q119 0 193.5 -49t128.5 -164q4 76 24 205l307 -33q-41 -242 -41 -502q0 -248 78 -497l-297 -64q-27 78 -59 246q-63 -129 -141 -184.5t-199 -55.5q-197 0 -306.5 143.5t-109.5 399.5zM412 530q0 -326 180 -325q145 0 225 188v185 q-45 145 -95 205.5t-122 60.5q-188 -1 -188 -314zM465 1182l106 336h369l-211 -336h-264z" />
<glyph unicode="&#x3ad;" horiz-adv-x="1087" d="M84 520q0 264 140.5 408.5t396.5 144.5q207 0 399 -76l-82 -221q-141 72 -270 72q-203 0 -254 -213h454v-209h-456q43 -221 280 -221q133 0 260 74l92 -220q-164 -84 -393 -84q-279 0 -423 139.5t-144 405.5zM510 1182l106 336h369l-209 -336h-266z" />
<glyph unicode="&#x3ae;" horiz-adv-x="1320" d="M154 1049h284l11 -146q94 96 172.5 133t191.5 37q211 0 295 -149q49 -82 49 -275v-1089h-309v1065q0 100 -19 145q-35 74 -124 74q-123 0 -232 -164v-680h-309v659q0 154 -10 390zM543 1182l106 336h369l-211 -336h-264z" />
<glyph unicode="&#x3af;" horiz-adv-x="733" d="M174 401v648h309v-666q0 -100 29 -141t96 -41q35 0 94 14l27 -209q-119 -31 -231 -31q-205 0 -279 136q-45 81 -45 290zM205 1182l106 336h369l-211 -336h-264z" />
<glyph unicode="&#x3b0;" horiz-adv-x="1275" d="M154 473v576h309v-598q0 -115 22 -162q39 -86 154 -86q111 0 152 86q23 45 22 162v598h309v-576q0 -219 -51 -315q-53 -96 -155.5 -139.5t-276.5 -43.5q-176 0 -278.5 43t-155.5 140q-51 96 -51 315zM182 1370q0 59 39 98t100.5 39t100.5 -38.5t39 -100t-39 -100.5 t-100 -39q-63 0 -101.5 39t-38.5 102zM500 1536h278l-37 -356h-204zM817 1370q0 59 39 98t100.5 39t100.5 -38.5t39 -100t-39 -100.5t-101 -39q-63 0 -101 39t-38 102z" />
<glyph unicode="&#x3b1;" horiz-adv-x="1300" d="M92 518q0 256 113.5 405.5t308.5 149.5q119 0 193.5 -49t128.5 -164q4 76 24 205l307 -33q-41 -242 -41 -502q0 -248 78 -497l-297 -64q-27 78 -59 246q-63 -129 -141 -184.5t-199 -55.5q-197 0 -306.5 143.5t-109.5 399.5zM412 530q0 -326 180 -325q145 0 225 188v185 q-45 145 -95 205.5t-122 60.5q-188 -1 -188 -314z" />
<glyph unicode="&#x3b2;" horiz-adv-x="1323" d="M164 -440v1398q0 297 80 404q119 162 411 162q254 0 381 -113q125 -113 125 -297q0 -205 -182 -301q137 -59 198.5 -151.5t61.5 -239.5q0 -205 -121 -326t-325 -121q-102 0 -173 25t-147 86v-526h-309zM473 309q63 -59 115.5 -82.5t122.5 -23.5q104 0 160.5 60.5 t56.5 170.5q0 113 -66.5 179.5t-177.5 66.5q-23 0 -39 -2v225q106 0 155.5 48t49.5 155q0 193 -184 192q-143 0 -177 -127q-16 -66 -16 -194v-668z" />
<glyph unicode="&#x3b3;" horiz-adv-x="1185" d="M35 950l256 121q231 -420 309 -661q70 233 307 661l240 -121q-252 -477 -327 -692t-75 -459v-239h-309v239q0 244 -74.5 459t-326.5 692z" />
<glyph unicode="&#x3b4;" horiz-adv-x="1247" d="M84 485q0 324 281 471q-84 59 -121 122t-37 147q0 160 127 237q100 61 287 62q188 0 417 -56l-53 -231q-197 68 -344 68q-131 0 -131 -91q0 -49 35 -75.5t188 -89.5q248 -106 339 -222t91 -323q0 -266 -164 -412q-131 -117 -374 -117q-262 0 -401.5 131t-139.5 379z M403 510q0 -309 218 -309q109 0 166 76.5t57 222.5q0 160 -92 233q-59 47 -215 127q-4 -4 -9 -6q-125 -86 -125 -344z" />
<glyph unicode="&#x3b5;" horiz-adv-x="1087" d="M84 520q0 262 140.5 407.5t393.5 145.5q205 0 396 -88l-88 -213q-137 76 -260 76q-205 0 -252 -213h454v-209h-456q43 -221 280 -221q129 0 252 69l92 -219q-156 -80 -385 -80q-279 0 -423 139.5t-144 405.5z" />
<glyph unicode="&#x3b6;" horiz-adv-x="907" d="M84 408q0 233 127 417.5t467 446.5h-223q-188 0 -338 14l18 232q178 -20 422 -21h369v-233q-203 -186 -271 -263q-252 -279 -252 -550q0 -135 66 -195q31 -31 174 -82q117 -41 173 -79t91 -95q41 -76 41 -180q0 -123 -82 -299l-233 90q41 111 41 190q0 68 -37 98.5 t-158 61.5q-137 33 -194.5 59.5t-100.5 73.5q-100 115 -100 314z" />
<glyph unicode="&#x3b7;" horiz-adv-x="1320" d="M154 1049h284l11 -146q94 96 172.5 133t191.5 37q211 0 295 -149q49 -82 49 -275v-1089h-309v1065q0 100 -19 145q-35 74 -124 74q-123 0 -232 -164v-680h-309v659q0 154 -10 390z" />
<glyph unicode="&#x3b8;" horiz-adv-x="1239" d="M90 756q0 381 164 592q137 176 367 176q264 0 403 -236q125 -207 125 -540q0 -381 -162 -596q-135 -176 -369 -177q-270 0 -407 236q-121 209 -121 545zM399 680q18 -485 222 -485q201 0 219 485h-441zM403 881h433q-35 424 -215 424q-183 0 -218 -424z" />
<glyph unicode="&#x3b9;" horiz-adv-x="733" d="M174 401v648h309v-666q0 -100 29 -141t96 -41q35 0 94 14l27 -209q-119 -31 -231 -31q-205 0 -279 136q-45 81 -45 290z" />
<glyph unicode="&#x3ba;" horiz-adv-x="1236" d="M164 0v1049h309v-441l367 441h346l-402 -459l451 -590h-367l-395 535v-535h-309z" />
<glyph unicode="&#x3bb;" horiz-adv-x="1163" d="M12 41l430 1010l-6 12q-59 115 -108 149.5t-160 36.5l16 267q131 2 209 -13.5t144.5 -69t112.5 -137.5t102 -233l194 -494q70 -178 116 -266t112 -166l-244 -166q-139 139 -262 516l-11 33q-49 147 -67 215q-51 -152 -107 -291l-180 -473z" />
<glyph unicode="&#x3bc;" horiz-adv-x="1314" d="M168 -440v1489h309v-527q0 -152 23 -219q31 -98 147 -98q115 0 195 131v713h309v-660q0 -125 10 -389h-284l-11 125q-59 -84 -110 -117t-121 -33q-88 0 -158 64v-479h-309z" />
<glyph unicode="&#x3bd;" horiz-adv-x="1185" d="M16 1049h320l182 -484q57 -147 88 -250q35 119 88 258l178 476h297l-409 -1049h-330z" />
<glyph unicode="&#x3be;" horiz-adv-x="987" d="M102 383q0 207 144 324q51 41 157 77q-121 45 -174 98.5t-53 131.5q0 174 264 258h-75q-109 0 -259 12l17 234q209 -20 420 -21h395v-225h-109q-172 0 -239 -41q-90 -49 -90 -172q0 -190 243 -191h129v-204h-141q-168 0 -233 -58q-76 -70 -76 -198q0 -109 55 -160 q23 -20 141 -58q174 -49 234 -122q74 -90 74 -250q0 -129 -58 -291l-254 90q37 117 37 186q0 80 -39 117q-27 25 -133 49q-135 35 -191.5 60.5t-97.5 74.5q-88 107 -88 279z" />
<glyph unicode="&#x3bf;" horiz-adv-x="1247" d="M84 530q0 272 164 420q129 123 377 123q276 0 415 -166q123 -147 123 -383q0 -279 -164 -426q-129 -123 -376 -123q-276 0 -416 166q-123 147 -123 389zM403 528q0 -160 56.5 -243.5t163 -83.5t164 83t57.5 240q0 156 -56.5 240t-163 84t-164 -83t-57.5 -237z" />
<glyph unicode="&#x3c0;" horiz-adv-x="1312" d="M31 823v226h1251v-226h-149v-823h-310v823h-321v-823h-309v823h-162z" />
<glyph unicode="&#x3c1;" horiz-adv-x="1282" d="M154 -440v927q0 297 128 441.5t390 144.5q272 0 407 -166q119 -145 119 -383q0 -262 -112.5 -405.5t-319.5 -143.5q-193 0 -303 111v-526h-309zM463 342q41 -76 87 -106.5t116 -30.5q213 0 213 321q0 156 -54.5 239t-154.5 83q-207 0 -207 -322v-184z" />
<glyph unicode="&#x3c2;" horiz-adv-x="991" d="M84 487q0 150 49 281t133 203q121 102 324 102q182 0 348 -76l-80 -211q-111 61 -219 62q-127 0 -176 -96q-57 -109 -57 -279q0 -109 40.5 -168t161.5 -125q115 -61 151 -86.5t60 -64.5q43 -70 43 -172q0 -113 -100 -336l-232 90q61 135 62 227q0 41 -19.5 65.5 t-78.5 53.5q-211 106 -277 170q-133 131 -133 360z" />
<glyph unicode="&#x3c3;" horiz-adv-x="1245" d="M84 524q0 260 136 404.5t382 144.5q74 0 201 -14q102 -10 145 -10h264v-234l-188 10q111 -111 111 -315q0 -264 -158 -412q-131 -123 -369 -123q-270 0 -405 166q-119 145 -119 383zM403 524.5q0 -155.5 53.5 -239.5t153.5 -84q98 0 151.5 83t53.5 236q0 328 -205 328 q-100 0 -153.5 -84t-53.5 -239.5z" />
<glyph unicode="&#x3c4;" horiz-adv-x="1036" d="M20 823v226h977v-226h-358v-440q0 -100 28.5 -141t100.5 -41q47 0 119 16l26 -209q-131 -33 -262 -33q-188 0 -266 117q-55 84 -55 309v422h-310z" />
<glyph unicode="&#x3c5;" horiz-adv-x="1275" d="M154 473v576h309v-598q0 -115 22 -162q39 -86 154 -86q111 0 152 86q23 45 22 162v598h309v-576q0 -219 -51 -315q-53 -96 -155.5 -139.5t-276.5 -43.5q-176 0 -278.5 43t-155.5 140q-51 96 -51 315z" />
<glyph unicode="&#x3c6;" horiz-adv-x="1683" d="M84 535q0 393 455 518l69 -215q-113 -45 -160 -116t-47 -192q0 -145 77 -229t222 -98v858q74 10 156 10q352 0 547.5 -143.5t195.5 -401.5q0 -350 -325 -479q-111 -43 -291 -59v-428h-283v428q-188 10 -350 96q-266 144 -266 451zM983 203q137 4 218 91t81 230 q0 141 -81 228.5t-218 93.5v-643z" />
<glyph unicode="&#x3c7;" horiz-adv-x="1089" d="M-43 -358l401 729l-77 159q-82 156 -132.5 203t-152.5 58l22 272q193 -8 290.5 -70.5t178.5 -230.5q29 -53 56 -111l28 -51l240 471l266 -110l-346 -652l82 -147q80 -158 144.5 -244t164.5 -168l-180 -219q-127 84 -214 196.5t-157 284.5l-41 94l-307 -575z" />
<glyph unicode="&#x3c8;" horiz-adv-x="1759" d="M111 526q0 254 59 539l309 -43q-45 -240 -45 -442q0 -201 61.5 -276t229.5 -79v824h309v-824q168 4 229.5 79t61.5 276q0 203 -45 442l309 43q59 -285 60 -539q0 -356 -191 -458q-70 -39 -162 -53.5t-262 -14.5v-440h-309v440q-170 0 -262 14.5t-162 53.5 q-190 102 -190 458z" />
<glyph unicode="&#x3c9;" horiz-adv-x="1624" d="M84 481q0 182 55.5 318.5t186.5 269.5l249 -53q-94 -137 -133 -263t-39 -282q0 -270 150 -270q74 0 99.5 59t25.5 229v289h268v-289q0 -170 25.5 -229t99.5 -59q150 0 150 270q0 156 -39 282t-133 263l249 53q131 -133 186.5 -269t55.5 -319q0 -238 -115.5 -372 t-320.5 -134q-104 0 -174 44t-117 143q-51 -98 -119.5 -142.5t-173.5 -44.5q-205 0 -320.5 134t-115.5 372z" />
<glyph unicode="&#x3ca;" horiz-adv-x="733" d="M-29 1370q0 72 48.5 119t119.5 47q74 0 121 -47t47 -121t-47 -121t-120.5 -47t-121 47t-47.5 123zM174 401v648h309v-666q0 -100 29 -141t96 -41q35 0 94 14l27 -209q-119 -31 -231 -31q-205 0 -279 136q-45 81 -45 290zM426 1370q0 72 48 119t120 47q74 0 121 -47 t47 -121t-47 -121t-121 -47t-121 47t-47 123z" />
<glyph unicode="&#x3cb;" horiz-adv-x="1275" d="M154 473v576h309v-598q0 -115 22 -162q39 -86 154 -86q111 0 152 86q23 45 22 162v598h309v-576q0 -219 -51 -315q-53 -96 -155.5 -139.5t-276.5 -43.5q-176 0 -278.5 43t-155.5 140q-51 96 -51 315zM244 1370q0 72 48 119t120 47q74 0 121 -47t47 -121t-47.5 -121 t-121 -47t-120.5 47t-47 123zM698 1370q0 72 48.5 119t119.5 47q74 0 121 -47t47 -121t-47 -121t-120.5 -47t-121 47t-47.5 123z" />
<glyph unicode="&#x3cc;" horiz-adv-x="1247" d="M84 530q0 272 164 420q129 123 377 123q276 0 415 -166q123 -147 123 -383q0 -279 -164 -426q-129 -123 -376 -123q-276 0 -416 166q-123 147 -123 389zM403 528q0 -160 56.5 -243.5t163 -83.5t164 83t57.5 240q0 156 -56.5 240t-163 84t-164 -83t-57.5 -237zM485 1182 l107 336h369l-211 -336h-265z" />
<glyph unicode="&#x3cd;" horiz-adv-x="1275" d="M154 473v576h309v-598q0 -115 22 -162q39 -86 154 -86q111 0 152 86q23 45 22 162v598h309v-576q0 -219 -51 -315q-53 -96 -155.5 -139.5t-276.5 -43.5q-176 0 -278.5 43t-155.5 140q-51 96 -51 315zM500 1182l106 336h369l-211 -336h-264z" />
<glyph unicode="&#x3ce;" horiz-adv-x="1624" d="M84 481q0 182 55.5 318.5t186.5 269.5l249 -53q-94 -137 -133 -263t-39 -282q0 -270 150 -270q74 0 99.5 59t25.5 229v289h268v-289q0 -170 25.5 -229t99.5 -59q150 0 150 270q0 156 -39 282t-133 263l249 53q131 -133 186.5 -269t55.5 -319q0 -238 -115.5 -372 t-320.5 -134q-104 0 -174 44t-117 143q-51 -98 -119.5 -142.5t-173.5 -44.5q-205 0 -320.5 134t-115.5 372zM666 1182l106 336h369l-211 -336h-264z" />
<glyph unicode="&#x401;" horiz-adv-x="1200" d="M168 0v1417h897v-250h-578v-323h549v-250h-549v-344h609v-250h-928zM213 1710q0 76 50 125t126 49q78 0 127 -49t49 -127t-49 -127t-127 -49t-127 50t-49 128zM668 1710q0 76 50 125t126 49q78 0 127 -49t49 -127t-49 -127t-127 -49t-127 50t-49 128z" />
<glyph unicode="&#x402;" horiz-adv-x="1603" d="M41 1167v250h1188v-250h-565v-364q162 147 380 147q248 0 349 -162q55 -92 55 -299v-243q0 -274 -35 -405.5t-125 -194.5q-72 -49 -156.5 -66.5t-265.5 -19.5v223q98 0 149.5 20.5t76.5 67.5q35 74 34 352v191q0 156 -32 215q-41 72 -142 71q-156 0 -288 -163v-537h-322 v1167h-301z" />
<glyph unicode="&#x403;" horiz-adv-x="1079" d="M168 0v1417h866v-250h-547v-1167h-319zM408 1554l245 299h369l-330 -299h-284z" />
<glyph unicode="&#x404;" horiz-adv-x="1259" d="M94 707q0 412 211 604q145 131 406 131q238 0 463 -113l-101 -239q-172 102 -332 102q-143 0 -214.5 -81t-92.5 -263h600v-250h-604q14 -195 98 -284t248 -89q152 0 320 90l104 -231q-211 -109 -473 -109q-324 0 -477 185q-156 182 -156 547z" />
<glyph unicode="&#x405;" horiz-adv-x="1183" d="M94 55l45 273q244 -102 414 -103q96 0 151.5 45t55.5 123q0 61 -44 96t-216 105q-203 82 -279 137q-125 94 -125 268q0 225 162 349q125 94 334 94q207 0 452 -78l-65 -258q-139 51 -213 68.5t-154 17.5q-88 0 -137 -40t-49 -110q0 -57 42 -89.5t197.5 -96t208 -89.5 t97.5 -60q123 -96 123 -287q0 -217 -134.5 -331t-390.5 -114q-250 0 -475 80z" />
<glyph unicode="&#x406;" horiz-adv-x="655" d="M168 0v1417h319v-1417h-319z" />
<glyph unicode="&#x407;" horiz-adv-x="655" d="M-76 1710q0 76 50.5 125t126 49t125.5 -49t50 -127t-50 -127t-126 -49q-78 0 -127 50t-49 128zM168 0v1417h319v-1417h-319zM379 1710q0 76 50 125t126 49t126 -49t50 -127t-50 -127t-126 -49q-78 0 -127 50t-49 128z" />
<glyph unicode="&#x408;" horiz-adv-x="866" d="M4 18l27 263q102 -47 180 -48q104 0 149 70q31 43 31 209v905h320v-835q0 -229 -16.5 -318.5t-73.5 -157.5q-106 -131 -349 -131q-153 0 -268 43z" />
<glyph unicode="&#x409;" horiz-adv-x="2041" d="M-20 0v250q59 6 89.5 10t60.5 20.5t41 34t20.5 60.5t10.5 89t1 132v821h1046v-512h234q231 0 344 -92q145 -121 145 -360.5t-145 -360.5q-113 -92 -344 -92h-553v1167h-418v-637q0 -223 -27 -305q-41 -123 -155 -174t-350 -51zM1249 229h172q121 0 170 50 q57 61 57.5 173.5t-57.5 174.5q-49 49 -170 49h-172v-447z" />
<glyph unicode="&#x40a;" horiz-adv-x="2121" d="M168 0v1417h319v-545h510v545h320v-545h233q238 0 353 -88q150 -117 149 -348q0 -233 -149 -348q-115 -88 -353 -88h-553v623h-510v-623h-319zM1317 229h172q129 0 184 50q55 55 55.5 157.5t-55.5 157.5q-55 49 -184 49h-172v-414z" />
<glyph unicode="&#x40b;" horiz-adv-x="1603" d="M41 1167v250h1188v-250h-565v-364q166 147 383 147q246 0 346 -149q55 -84 55 -275v-526h-320v469q0 125 -28 166q-47 66 -154 65q-156 0 -282 -163v-537h-322v1167h-301z" />
<glyph unicode="&#x40c;" horiz-adv-x="1347" d="M168 0v1417h313v-592h80q66 0 98.5 34t71.5 138q102 268 168 338q86 92 260 92q61 0 123 -10l-25 -241q-41 6 -53 6q-74 0 -114 -62q-25 -35 -74 -166q-41 -111 -67.5 -151.5t-82.5 -69.5q109 -39 146 -82t121 -227l190 -424h-340l-127 297q-74 180 -123 235 q-55 66 -168 66h-84v-598h-313zM551 1554l246 299h368l-329 -299h-285z" />
<glyph unicode="&#x40e;" horiz-adv-x="1308" d="M20 1417h353l182 -430q78 -176 147 -369q51 152 146 381l170 418h311l-450 -1046q-94 -223 -201 -309.5t-287 -86.5q-96 0 -194 25l47 242q66 -14 121 -15q76 0 119.5 24.5t72.5 84.5zM328 1870h168q6 -78 48 -106.5t150 -28.5q111 0 153 28.5t48 106.5h168 q0 -160 -51 -234q-86 -125 -318 -125q-229 0 -315 125q-51 74 -51 234z" />
<glyph unicode="&#x40f;" horiz-adv-x="1417" d="M168 0v1417h319v-1167h443v1167h319v-1417h-395l-33 -344h-225l-33 344h-395z" />
<glyph unicode="&#x410;" horiz-adv-x="1458" d="M12 0l541 1417h334l559 -1417h-338l-123 338h-534l-121 -338h-318zM535 578h366l-110 307q-39 111 -74 221q-23 -84 -72 -221z" />
<glyph unicode="&#x411;" horiz-adv-x="1280" d="M168 0v1417h946v-250h-627v-282h234q231 0 344 -90q145 -117 145 -352.5t-145 -352.5q-113 -90 -344 -90h-553zM487 229h172q123 0 170 47q57 57 57.5 166t-57.5 166q-47 47 -170 47h-172v-426z" />
<glyph unicode="&#x412;" horiz-adv-x="1296" d="M168 0v1417h510q152 0 229.5 -17.5t136.5 -62.5q63 -47 99.5 -128t36.5 -171q0 -240 -213 -313q236 -74 235 -324q0 -211 -145 -317q-113 -84 -344 -84h-545zM479 229h152q119 0 170 27q78 43 78 160q0 109 -80 162q-55 35 -164 34h-156v-383zM479 823h148q131 0 182 37 q55 45 55 139q0 96 -61 148q-55 41 -193 41h-131v-365z" />
<glyph unicode="&#x413;" horiz-adv-x="1079" d="M168 0v1417h866v-250h-547v-1167h-319z" />
<glyph unicode="&#x414;" horiz-adv-x="1462" d="M-29 250h135q70 135 103 313q45 276 45 664v190h1024v-1167h156v-594h-228l-30 344h-947l-30 -344h-228v594zM438 244h520v923h-405v-104q0 -240 -39 -512q-25 -172 -76 -307z" />
<glyph unicode="&#x415;" horiz-adv-x="1200" d="M168 0v1417h897v-250h-578v-323h549v-250h-549v-344h609v-250h-928z" />
<glyph unicode="&#x416;" horiz-adv-x="1898" d="M25 0l190 426q84 184 122 227t144 80q-61 35 -87.5 80t-84.5 205q-35 90 -71.5 127t-94.5 37q-12 0 -53 -6l-24 241q59 10 122 10q190 0 279 -122q51 -72 143 -308q39 -104 72 -138t98 -34h13v592h313v-592h12q66 0 98.5 34t71.5 138q92 236 144 308q88 123 278 122 q63 0 123 -10l-25 -241q-39 6 -53 6q-74 0 -115 -62q-25 -35 -73 -166q-41 -111 -67.5 -150.5t-82.5 -70.5q106 -37 144 -80t122 -227l191 -426h-336l-125 299q-78 180 -123 236q-57 66 -168 65h-16v-600h-313v600h-17q-111 0 -168 -65q-45 -55 -123 -236l-125 -299h-335z " />
<glyph unicode="&#x417;" horiz-adv-x="1245" d="M33 55l69 248q190 -78 404 -78q309 0 309 193q0 117 -121 164q-82 35 -258 34q-70 0 -180 -4v234q47 -2 111 -2q254 0 354 51q84 49 84 129t-73 124t-204 44q-94 0 -168.5 -15.5t-201.5 -60.5l-68 246q231 80 477 80q272 0 414.5 -100.5t142.5 -290.5q0 -276 -293 -322 q307 -45 308 -330q0 -209 -162 -319q-152 -104 -438 -105q-279 0 -506 80z" />
<glyph unicode="&#x418;" horiz-adv-x="1470" d="M168 0v1417h307v-862l520 733v129h308v-1417h-308v872l-520 -733v-139h-307z" />
<glyph unicode="&#x419;" horiz-adv-x="1470" d="M168 0v1417h307v-862l520 733v129h308v-1417h-308v872l-520 -733v-139h-307zM367 1870h168q6 -78 49 -106.5t151 -28.5q111 0 153 28.5t48 106.5h168q0 -156 -51 -234q-86 -125 -318 -125q-233 0 -315 125q-51 72 -53 234z" />
<glyph unicode="&#x41a;" horiz-adv-x="1347" d="M168 0v1417h313v-592h80q66 0 98.5 34t71.5 138q102 268 168 338q86 92 260 92q61 0 123 -10l-25 -241q-41 6 -53 6q-74 0 -114 -62q-25 -35 -74 -166q-41 -111 -67.5 -151.5t-82.5 -69.5q109 -39 146 -82t121 -227l190 -424h-340l-127 297q-74 180 -123 235 q-55 66 -168 66h-84v-598h-313z" />
<glyph unicode="&#x41b;" horiz-adv-x="1425" d="M-20 0v250q59 6 89.5 10t60.5 20.5t41 34t20.5 60.5t10.5 89t1 132v821h1054v-1417h-319v1167h-426v-637q0 -223 -27 -305q-41 -123 -155 -174t-350 -51z" />
<glyph unicode="&#x41c;" horiz-adv-x="1935" d="M168 0v1417h473l246 -766q49 -160 82 -286q51 195 82 286l247 766h469v-1417h-307v1147q-29 -119 -78 -270l-284 -877h-273l-276 854l-29 86l-24 80l-17 61q-2 16 -16 66v-1147h-295z" />
<glyph unicode="&#x41d;" horiz-adv-x="1492" d="M168 0v1417h319v-569h519v569h319v-1417h-319v598h-519v-598h-319z" />
<glyph unicode="&#x41e;" horiz-adv-x="1554" d="M94 717q0 356 213 559q176 166 471 166q342 0 520 -223q162 -201 162 -510q0 -360 -213 -568q-172 -166 -471 -166q-342 0 -520 224q-162 201 -162 518zM424 715q0 -227 94 -358.5t258 -131.5t259 130t95 353.5t-95 353.5t-259 130q-162 0 -257 -129t-95 -348z" />
<glyph unicode="&#x41f;" horiz-adv-x="1435" d="M168 0v1417h1100v-1417h-320v1167h-461v-1167h-319z" />
<glyph unicode="&#x420;" horiz-adv-x="1200" d="M168 0v1417h399q186 0 281.5 -19.5t165.5 -72.5q154 -115 153 -344q0 -223 -149 -344q-125 -96 -397 -96h-134v-541h-319zM479 780h92q135 0 191 29q86 41 86 162q0 117 -82 170q-63 37 -195 37h-92v-398z" />
<glyph unicode="&#x421;" horiz-adv-x="1247" d="M94 696q0 348 181.5 547t498.5 199q209 0 426 -101l-106 -241q-154 92 -303 92q-172 0 -269.5 -128t-97.5 -353q0 -229 102.5 -357.5t284.5 -128.5q82 0 149.5 23.5t165.5 85.5l93 -254q-119 -61 -208 -83t-223 -22q-334 0 -514 189q-180 192 -180 532z" />
<glyph unicode="&#x422;" horiz-adv-x="1169" d="M12 1167v250h1145v-250h-416v-1167h-319v1167h-410z" />
<glyph unicode="&#x423;" horiz-adv-x="1308" d="M20 1417h353l182 -430q78 -176 147 -369q51 152 146 381l170 418h311l-450 -1046q-94 -223 -201 -309.5t-287 -86.5q-96 0 -194 25l47 242q66 -14 121 -15q76 0 119.5 24.5t72.5 84.5z" />
<glyph unicode="&#x424;" horiz-adv-x="1832" d="M94 709q0 258 179.5 415.5t498.5 182.5v172h291v-172q319 -25 498.5 -182.5t179.5 -415.5t-179.5 -416t-498.5 -182v-172h-291v172q-319 25 -498.5 182.5t-179.5 415.5zM424 708.5q0 -307.5 348 -364.5v729q-348 -57 -348 -364.5zM1063 344q348 57 348 364.5t-348 364.5 v-729z" />
<glyph unicode="&#x425;" horiz-adv-x="1503" d="M33 0l524 727l-498 690h371l330 -463l334 463h364l-514 -698l520 -719h-385l-336 473l-333 -473h-377z" />
<glyph unicode="&#x426;" horiz-adv-x="1433" d="M168 0v1417h319v-1167h443v1167h319v-1169h156v-592h-227l-31 344h-979z" />
<glyph unicode="&#x427;" horiz-adv-x="1400" d="M143 768v649h320v-604q0 -106 24 -145q45 -74 162 -74q143 0 264 164v659h320v-1417h-320v492q-156 -147 -376 -148q-242 0 -338 150q-56 84 -56 274z" />
<glyph unicode="&#x428;" horiz-adv-x="2138" d="M168 0v1417h319v-1167h422v1167h320v-1167h422v1167h319v-1417h-1802z" />
<glyph unicode="&#x429;" horiz-adv-x="2154" d="M168 0v1417h319v-1167h422v1167h320v-1167h422v1167h319v-1169h156v-592h-228l-30 344h-1700z" />
<glyph unicode="&#x42a;" horiz-adv-x="1429" d="M-25 1167v250h664v-512h233q231 0 345 -92q145 -121 145 -360.5t-145 -360.5q-113 -92 -345 -92h-553v1167h-344zM639 229h172q121 0 170 50q57 61 57 173.5t-57 174.5q-49 49 -170 49h-172v-447z" />
<glyph unicode="&#x42b;" horiz-adv-x="1894" d="M168 0v1417h319v-512h234q231 0 344 -92q145 -121 145 -360.5t-145 -360.5q-113 -92 -344 -92h-553zM487 229h172q121 0 170 50q57 61 57.5 173.5t-57.5 174.5q-49 49 -170 49h-172v-447zM1407 0v1417h319v-1417h-319z" />
<glyph unicode="&#x42c;" horiz-adv-x="1280" d="M168 0v1417h319v-512h234q231 0 344 -92q145 -121 145 -360.5t-145 -360.5q-113 -92 -344 -92h-553zM487 229h172q121 0 170 50q57 61 57.5 173.5t-57.5 174.5q-49 49 -170 49h-172v-447z" />
<glyph unicode="&#x42d;" horiz-adv-x="1259" d="M59 84l105 231q168 -90 319 -90q164 0 248 90.5t98 282.5h-604v250h600q-20 182 -89.5 263t-207.5 81q-168 0 -342 -102l-100 239q225 113 463 113q299 0 452 -180q164 -197 164 -555q0 -414 -200 -594q-156 -137 -435 -138q-260 0 -471 109z" />
<glyph unicode="&#x42e;" horiz-adv-x="2205" d="M168 0v1417h319v-569h316q20 166 102 307q174 287 549 287q330 0 502 -225q156 -199 155 -508q0 -358 -204 -568q-170 -166 -453 -166q-373 0 -549 287q-84 141 -104 336h-314v-598h-319zM1124 715q0 -227 88 -358.5t240 -131.5t241 130t89 353.5t-89 353.5t-241 130 q-150 0 -239 -129t-89 -348z" />
<glyph unicode="&#x42f;" horiz-adv-x="1359" d="M12 0l178 387q76 160 108 203t93 67q-127 37 -195.5 132.5t-68.5 236.5q0 203 139 309q106 82 357 82h569v-1417h-320v555h-104q-115 0 -166 -49t-135 -244l-115 -262h-340zM446 989q0 -199 267 -198h168v391h-168q-152 0 -205 -43q-62 -50 -62 -150z" />
<glyph unicode="&#x430;" horiz-adv-x="1202" d="M74 299q0 201 155 291q102 57 324 57q86 0 186 -8v12q0 96 -60.5 150.5t-168.5 54.5q-125 0 -293 -84l-59 217q182 84 399 84q264 0 391 -133q59 -61 80 -138t21 -239v-291q6 -227 12 -272h-297l-10 117q-78 -78 -153 -110t-181 -32q-162 0 -254 86t-92 238zM393 307 q0 -63 38 -101t99 -38q117 0 209 135v164q-51 4 -100 4q-246 0 -246 -164z" />
<glyph unicode="&#x431;" horiz-adv-x="1230" d="M90 647q0 625 270 768q90 49 277 68q51 4 229 14q135 8 178 16l15 -223q-55 -10 -293 -26q-225 -14 -300 -83t-110 -292q125 184 340 184q207 0 329 -147.5t122 -399.5q0 -281 -160 -428q-129 -123 -369 -123q-274 0 -407 164q-121 148 -121 508zM412 545q0 -182 48 -263 t158 -81q100 0 154.5 83t54.5 240q0 154 -52 239t-146 85q-145 0 -217 -166v-137z" />
<glyph unicode="&#x432;" horiz-adv-x="1218" d="M164 0v1049h516q223 0 311 -58q115 -76 115 -227q0 -82 -37 -134t-123 -93q94 -37 136 -91.5t42 -142.5q0 -162 -123 -242q-96 -61 -294 -61h-543zM467 211h203q70 0 100.5 26.5t30.5 86t-31 86t-100 26.5h-203v-225zM467 625h203q129 0 129 106.5t-129 106.5h-203v-213z " />
<glyph unicode="&#x433;" horiz-adv-x="954" d="M164 0v1049h741v-226h-432v-823h-309z" />
<glyph unicode="&#x434;" horiz-adv-x="1232" d="M-25 225h113q115 193 115 666v158h866v-824h125v-528h-236l-22 303h-700l-33 -303h-228v528zM416 221h344v602h-266v-49q0 -315 -78 -553z" />
<glyph unicode="&#x435;" horiz-adv-x="1228" d="M84 520q0 254 145 406q135 147 396 147q377 0 479 -278q45 -127 45 -373h-741q18 -225 274 -225q164 0 334 102l104 -219q-201 -104 -442 -105q-293 0 -443.5 138.5t-150.5 406.5zM408 625h430q-4 111 -59.5 171t-149.5 60q-96 0 -155.5 -61t-65.5 -170z" />
<glyph unicode="&#x436;" horiz-adv-x="1650" d="M27 0l172 342q63 121 87.5 151.5t82.5 53.5q-35 33 -78 135q-39 94 -62.5 123t-64.5 29q-20 0 -64 -9l-24 224q72 10 133 10q160 0 227 -94q27 -33 43.5 -67t67.5 -159q29 -70 46 -88t52 -18h27v416h305v-416h27q41 0 56 22.5t73 159.5q61 145 122.5 194.5t184.5 49.5 q61 0 133 -10l-25 -224q-47 8 -63 9q-41 0 -64.5 -29t-62.5 -123q-43 -102 -78 -135q57 -23 81.5 -53.5t88.5 -151.5l172 -342h-322l-110 238q-57 119 -96 160.5t-95 41.5h-22v-440h-305v440h-23q-55 0 -94 -42t-96 -160l-111 -238h-321z" />
<glyph unicode="&#x437;" horiz-adv-x="1054" d="M29 45l71 231q174 -76 342 -75q217 0 217 121q0 63 -63.5 90.5t-210.5 27.5q-53 0 -170 -2v203q72 -4 123 -4q174 0 243.5 23.5t69.5 82.5q0 109 -186 109q-129 0 -320 -76l-69 225q207 72 416 72q469 0 469 -305q0 -84 -40 -136t-133 -87q96 -35 140.5 -91.5 t44.5 -148.5q0 -330 -496 -330q-239 0 -448 70z" />
<glyph unicode="&#x438;" horiz-adv-x="1290" d="M164 0v1049h307v-562l348 461v101h307v-1049h-307v567l-348 -461v-106h-307z" />
<glyph unicode="&#x439;" horiz-adv-x="1290" d="M164 0v1049h307v-562l348 461v101h307v-1049h-307v567l-348 -461v-106h-307zM276 1501h168q6 -74 49.5 -100.5t151.5 -26.5q111 0 153 26.5t48 100.5h168q0 -152 -51 -229q-86 -121 -317.5 -121t-315.5 121q-52 73 -54 229z" />
<glyph unicode="&#x43a;" horiz-adv-x="1200" d="M164 0v1049h305v-416h76q41 0 56 23.5t73 160.5q61 145 122.5 193.5t188.5 48.5q68 0 137 -10l-24 -224q-47 8 -64 9q-39 0 -63.5 -30t-63.5 -122q-43 -102 -78 -135q57 -23 82 -53.5t88 -151.5l172 -342h-329l-111 238q-59 125 -97 163.5t-104 38.5h-61v-440h-305z" />
<glyph unicode="&#x43b;" horiz-adv-x="1230" d="M6 0v225q123 10 150.5 57.5t27.5 239.5v527h883v-1049h-309v823h-275v-313q0 -223 -22 -293q-47 -174 -264 -207q-78 -10 -191 -10z" />
<glyph unicode="&#x43c;" horiz-adv-x="1654" d="M164 0v1049h432l182 -590q20 -59 49 -174q35 127 50 170l186 594h428v-1049h-299v772q-39 -162 -55 -211l-183 -561h-264l-182 557q-20 57 -57 215v-772h-287z" />
<glyph unicode="&#x43d;" horiz-adv-x="1302" d="M164 0v1049h309v-402h356v402h310v-1049h-310v422h-356v-422h-309z" />
<glyph unicode="&#x43e;" horiz-adv-x="1247" d="M84 530q0 272 164 420q129 123 377 123q276 0 415 -166q123 -147 123 -383q0 -279 -164 -426q-129 -123 -376 -123q-276 0 -416 166q-123 147 -123 389zM403 528q0 -160 56.5 -243.5t163 -83.5t164 83t57.5 240q0 156 -56.5 240t-163 84t-164 -83t-57.5 -237z" />
<glyph unicode="&#x43f;" horiz-adv-x="1290" d="M164 0v1049h962v-1049h-309v823h-344v-823h-309z" />
<glyph unicode="&#x440;" horiz-adv-x="1282" d="M143 1049h299l11 -134q76 86 146.5 122t168.5 36q201 0 315.5 -148.5t114.5 -406.5q0 -264 -125 -412q-113 -131 -299 -131q-203 0 -311 152v-567h-309v1071q-1 287 -11 418zM463 373q94 -168 225 -168q84 0 137.5 90t53.5 235q0 143 -55.5 228.5t-147.5 85.5 q-113 0 -213 -158v-313z" />
<glyph unicode="&#x441;" horiz-adv-x="1021" d="M84 526q0 266 152 418q127 129 364 129q190 0 363 -76l-82 -221q-121 72 -234 72q-119 0 -181.5 -85t-62.5 -245q0 -152 69 -232.5t200 -80.5q115 0 223 74l94 -220q-152 -84 -360 -84q-256 0 -400.5 145.5t-144.5 405.5z" />
<glyph unicode="&#x442;" horiz-adv-x="980" d="M8 823v226h965v-226h-330v-823h-309v823h-326z" />
<glyph unicode="&#x443;" horiz-adv-x="1181" d="M8 -420l53 234q82 -35 142 -35q76 0 124 53t111 207l-430 1010h328l186 -459q47 -111 90 -240q47 143 90 254l168 445h306l-422 -1022q-76 -180 -113 -252t-84 -125q-104 -117 -291 -117q-133 0 -258 47z" />
<glyph unicode="&#x444;" horiz-adv-x="1787" d="M84 514q0 260 106.5 409.5t294.5 149.5q168 0 265 -141v565h288v-565q115 141 273 141q182 0 287.5 -148.5t105.5 -406.5q0 -254 -103.5 -398.5t-285.5 -144.5q-176 0 -277 152v-567h-288v567q-98 -152 -280.5 -152t-284 141.5t-101.5 397.5zM395 528q0 -150 44 -236.5 t120 -86.5q111 0 191 168v313q-84 158 -179 158q-82 0 -129 -85.5t-47 -230.5zM1038 373q80 -168 191 -168q72 0 118 90t46 233q0 145 -47.5 230.5t-128.5 85.5q-94 0 -179 -158v-313z" />
<glyph unicode="&#x445;" horiz-adv-x="1226" d="M23 0l423 532l-397 517h354l218 -316l237 316h346l-409 -508l415 -541h-352l-237 336l-254 -336h-344z" />
<glyph unicode="&#x446;" horiz-adv-x="1282" d="M164 0v1049h309v-824h336v824h309v-824h125v-528h-235l-23 303h-821z" />
<glyph unicode="&#x447;" horiz-adv-x="1277" d="M127 668v381h309v-357q0 -100 19 -145q35 -74 125 -74q117 0 225 164v412h309v-1049h-309v391q-141 -147 -334 -147q-213 0 -297 149q-47 85 -47 275z" />
<glyph unicode="&#x448;" horiz-adv-x="1882" d="M164 0v1049h309v-824h313v824h310v-824h313v824h309v-1049h-1554z" />
<glyph unicode="&#x449;" horiz-adv-x="1882" d="M164 0v1049h309v-824h313v824h310v-824h313v824h309v-824h125v-528h-235l-23 303h-1421z" />
<glyph unicode="&#x44a;" horiz-adv-x="1212" d="M-16 823v226h587v-324h158q201 0 295 -72q121 -92 121 -290.5t-121 -290.5q-94 -72 -295 -72h-461v823h-284zM571 211h103q84 0 120.5 36t36.5 115q0 82 -37.5 119t-119.5 37h-103v-307z" />
<glyph unicode="&#x44b;" horiz-adv-x="1710" d="M164 0v1049h309v-324h158q201 0 295 -72q121 -92 121 -290.5t-121 -290.5q-94 -72 -295 -72h-467zM473 211h102q84 0 121 36t37 115q0 82 -38 119t-120 37h-102v-307zM1237 0v1049h309v-1049h-309z" />
<glyph unicode="&#x44c;" horiz-adv-x="1112" d="M164 0v1049h309v-324h158q201 0 295 -72q121 -92 121 -290.5t-121 -290.5q-94 -72 -295 -72h-467zM473 211h102q84 0 121 36t37 115q0 82 -38 119t-120 37h-102v-307z" />
<glyph unicode="&#x44d;" horiz-adv-x="1087" d="M49 55l92 219q123 -70 252 -69q238 0 281 221h-457v209h455q-20 111 -75.5 162t-156.5 51q-135 0 -280 -76l-88 213q190 88 395 88q254 0 394 -145.5t140 -407.5q0 -266 -144 -405.5t-423 -139.5q-235 0 -385 80z" />
<glyph unicode="&#x44e;" horiz-adv-x="1828" d="M164 0v1049h309v-402h250q72 426 508 426q264 0 397 -166q117 -147 117 -383q0 -276 -156 -426q-125 -123 -358 -123q-221 0 -352 115t-158 332h-248v-422h-309zM1034 528q0 -160 50.5 -243.5t144.5 -83.5t145 83t51 240q0 156 -50 240t-144 84t-145.5 -83t-51.5 -237z " />
<glyph unicode="&#x44f;" horiz-adv-x="1234" d="M8 0l189 297q59 92 78.5 115.5t50.5 46.5q-111 45 -158 108.5t-47 167.5q0 170 119 252q90 61 301 62h530v-1049h-309v367h-125q-57 0 -95 -37t-98 -148l-94 -182h-342zM430 708.5q0 -69.5 41 -98t141 -28.5h156v252h-156q-100 0 -141 -28t-41 -97.5z" />
<glyph unicode="&#x451;" horiz-adv-x="1228" d="M84 520q0 254 145 406q135 147 396 147q377 0 479 -278q45 -127 45 -373h-741q18 -225 274 -225q164 0 334 102l104 -219q-201 -104 -442 -105q-293 0 -443.5 138.5t-150.5 406.5zM244 1370q0 72 48 119t120 47q74 0 121 -47t47 -121t-47.5 -121t-121 -47t-120.5 47 t-47 123zM408 625h430q-4 111 -59.5 171t-149.5 60q-96 0 -155.5 -61t-65.5 -170zM698 1370q0 72 48.5 119t119.5 47q74 0 121 -47t47 -121t-47 -121t-120.5 -47t-121 47t-47.5 123z" />
<glyph unicode="&#x452;" horiz-adv-x="1310" d="M14 1176v180h148v141h311v-141h289v-180h-289v-250q145 147 340 147q213 0 297 -149q47 -84 47 -275v-295q0 -313 -22.5 -451.5t-83.5 -209.5q-104 -119 -336 -131l-125 -2v223q98 0 149.5 20.5t73.5 67.5q35 74 35 352v402q0 100 -19 145q-33 74 -124 74 q-121 0 -232 -164v-680h-311v1176h-148z" />
<glyph unicode="&#x453;" horiz-adv-x="954" d="M164 0v1049h741v-226h-432v-823h-309zM334 1198l246 299h368l-330 -299h-284z" />
<glyph unicode="&#x454;" horiz-adv-x="1087" d="M84 520q0 262 140.5 407.5t393.5 145.5q205 0 396 -88l-88 -213q-137 76 -260 76q-205 0 -252 -213h454v-209h-456q43 -221 280 -221q129 0 252 69l92 -219q-156 -80 -385 -80q-279 0 -423 139.5t-144 405.5z" />
<glyph unicode="&#x455;" horiz-adv-x="991" d="M84 66l78 229q145 -98 299 -98q147 0 147 104q0 47 -41 72q-25 14 -170 63q-168 57 -225 107q-80 70 -80 196q0 158 110.5 246t311.5 88q168 0 377 -74l-76 -229q-162 84 -291 84q-63 0 -99 -25.5t-36 -68.5q0 -33 25.5 -52.5t105.5 -48.5q213 -70 287 -124 q100 -76 100 -205q0 -143 -100 -244q-115 -111 -342 -111q-219 1 -381 91z" />
<glyph unicode="&#x456;" horiz-adv-x="624" d="M133 1366q0 76 51.5 127t129 51t129 -51t51.5 -129t-51.5 -129t-129.5 -51q-80 0 -130 51t-50 131zM158 0v1049h309v-1049h-309z" />
<glyph unicode="&#x457;" horiz-adv-x="624" d="M-84 1370q0 72 48 119t120 47q74 0 121 -47t47 -121t-47 -121t-121 -47t-121 47t-47 123zM158 0v1049h309v-1049h-309zM371 1370q0 72 48 119t120 47q74 0 121 -47t47 -121t-47.5 -121t-121 -47t-120.5 47t-47 123z" />
<glyph unicode="&#x458;" horiz-adv-x="659" d="M-82 -434l25 229q76 -23 116 -22q74 0 102.5 56t28.5 200v1020h310v-1043q0 -143 -16.5 -221t-59.5 -133q-88 -117 -289 -117q-100 0 -217 31zM166 1366q0 76 51 127t129 51t129 -51t51 -129t-51 -129t-129 -51q-80 0 -130 51t-50 131z" />
<glyph unicode="&#x459;" horiz-adv-x="1699" d="M6 0v225q123 10 150.5 57.5t27.5 239.5v527h877v-324h158q201 0 294 -72q121 -92 121 -290.5t-121 -290.5q-94 -72 -294 -72h-461v823h-275v-313q0 -223 -22 -293q-47 -174 -264 -207q-78 -10 -191 -10zM1061 211h102q84 0 121 36t37 115q0 82 -38 119t-120 37h-102v-307 z" />
<glyph unicode="&#x45a;" horiz-adv-x="1771" d="M164 0v1049h309v-357h350v357h310v-324h157q201 0 295 -72q121 -92 121 -290.5t-121 -290.5q-94 -72 -295 -72h-467v467h-350v-467h-309zM1133 211h102q84 0 121 36t37 115q0 82 -38 119t-120 37h-102v-307z" />
<glyph unicode="&#x45b;" horiz-adv-x="1310" d="M14 1176v180h148v141h311v-141h289v-180h-289v-250q141 147 340 147q213 0 297 -149q47 -84 47 -275v-649h-309v625q0 100 -19 145q-33 74 -124 74q-125 0 -232 -164v-680h-311v1176h-148z" />
<glyph unicode="&#x45c;" horiz-adv-x="1200" d="M164 0v1049h305v-416h76q41 0 56 23.5t73 160.5q61 145 122.5 193.5t188.5 48.5q68 0 137 -10l-24 -224q-47 8 -64 9q-39 0 -63.5 -30t-63.5 -122q-43 -102 -78 -135q57 -23 82 -53.5t88 -151.5l172 -342h-329l-111 238q-59 125 -97 163.5t-104 38.5h-61v-440h-305z M461 1198l246 299h368l-330 -299h-284z" />
<glyph unicode="&#x45e;" horiz-adv-x="1181" d="M8 -420l53 234q82 -35 142 -35q76 0 124 53t111 207l-430 1010h328l186 -459q47 -111 90 -240q47 143 90 254l168 445h306l-422 -1022q-76 -180 -113 -252t-84 -125q-104 -117 -291 -117q-133 0 -258 47zM236 1501h167q6 -74 48.5 -100.5t150.5 -26.5q111 0 153 26.5 t48 100.5h168q0 -156 -51 -229q-86 -121 -318 -121q-229 0 -315 121q-51 73 -51 229z" />
<glyph unicode="&#x45f;" horiz-adv-x="1282" d="M164 0v1049h309v-824h336v824h309v-1049h-336l-24 -303h-234l-24 303h-336z" />
<glyph unicode="&#x490;" horiz-adv-x="1079" d="M168 0v1417h620l33 248h213v-498h-547v-1167h-319z" />
<glyph unicode="&#x491;" horiz-adv-x="954" d="M164 0v1049h493l25 217h223v-443h-432v-823h-309z" />
<glyph unicode="&#x4c0;" horiz-adv-x="655" d="M168 0v1417h319v-1417h-319z" />
<glyph unicode="&#x1e84;" horiz-adv-x="2004" d="M53 1417h314l145 -631q31 -133 72 -340q35 143 86 320l190 651h307l172 -610q47 -164 91 -344q41 199 75 344l146 610h301l-359 -1417h-309l-176 616q-47 156 -102 381q-51 -197 -107 -372l-190 -625h-312zM598 1710q0 76 50 125t126 49q78 0 127 -49t49 -127t-49 -127 t-127 -49t-127 50t-49 128zM1053 1710q0 76 50 125t126 49q78 0 127 -49t49 -127t-49 -127t-127 -49t-127 50t-49 128z" />
<glyph unicode="&#x2007;" horiz-adv-x="647" />
<glyph unicode="&#x2011;" horiz-adv-x="813" d="M94 461v237h625v-237h-625z" />
<glyph unicode="&#x2012;" d="M123 461v237h1048v-237h-1048z" />
<glyph unicode="&#x2013;" d="M123 461v237h1048v-237h-1048z" />
<glyph unicode="&#x2014;" horiz-adv-x="2048" d="M-102 461v237h2252v-237h-2252z" />
<glyph unicode="&#x2015;" horiz-adv-x="2048" d="M-102 461v237h2252v-237h-2252z" />
<glyph unicode="&#x2017;" horiz-adv-x="1024" d="M-102 -133h1228v-119h-1228v119zM-102 -340h1228v-119h-1228v119z" />
<glyph unicode="&#x2018;" horiz-adv-x="557" d="M4 918l227 579h291l-178 -579h-340z" />
<glyph unicode="&#x2019;" horiz-adv-x="557" d="M35 918l178 579h340l-229 -579h-289z" />
<glyph unicode="&#x201a;" horiz-adv-x="557" d="M25 -236l178 580h340l-230 -580h-288z" />
<glyph unicode="&#x201c;" horiz-adv-x="1036" d="M12 918l228 579h290l-178 -579h-340zM494 918l229 579h289l-178 -579h-340z" />
<glyph unicode="&#x201d;" horiz-adv-x="1036" d="M25 918l178 579h340l-230 -579h-288zM506 918l178 579h340l-227 -579h-291z" />
<glyph unicode="&#x201e;" horiz-adv-x="1036" d="M6 -236l178 580h340l-229 -580h-289zM487 -236l179 580h340l-228 -580h-291z" />
<glyph unicode="&#x2020;" d="M117 799v250h379v368h299v-368h383v-250h-383v-1026h-299v1026h-379z" />
<glyph unicode="&#x2021;" d="M117 242v250h379v307h-379v250h379v368h299v-368h383v-250h-383v-307h383v-250h-383v-469h-299v469h-379z" />
<glyph unicode="&#x2022;" horiz-adv-x="1024" d="M141 717q0 156 107.5 262t265.5 106t265.5 -107.5t107.5 -265t-107.5 -265t-265.5 -107.5q-160 0 -266.5 107.5t-106.5 269.5z" />
<glyph unicode="&#x2026;" horiz-adv-x="1941" d="M133 168q0 80 54.5 133t136.5 53t135 -54t53 -136t-53 -135.5t-135 -53.5q-84 0 -137.5 54.5t-53.5 138.5zM780 168q0 80 54.5 133t136.5 53t135 -54t53 -136t-53 -135.5t-135 -53.5q-84 0 -137.5 54.5t-53.5 138.5zM1427 168q0 80 54.5 133t136.5 53t135 -54t53 -136 t-53 -135.5t-135 -53.5q-84 0 -137.5 54.5t-53.5 138.5z" />
<glyph unicode="&#x2030;" horiz-adv-x="2672" d="M76 1032q0 193 90 295.5t260 102.5t259 -103.5t89 -298t-90 -298t-260 -103.5t-259 103t-89 302zM301 1030q0 -233 125 -233q123 0 123 231.5t-123 231.5q-125 -1 -125 -230zM549 -33l563 1483h197l-564 -1483h-196zM1083 393q0 193 90.5 295.5t260.5 102.5t259 -103.5 t89 -298t-90 -298t-260 -103.5t-259.5 103t-89.5 302zM1309 391q0 -233 125 -233q123 0 122.5 231.5t-122.5 231.5q-125 -1 -125 -230zM1896 393q0 193 90.5 295.5t260.5 102.5t259 -103.5t89 -298t-90 -298t-260 -103.5t-259.5 103t-89.5 302zM2122 391q0 -233 125 -233 q123 0 123 231.5t-123 231.5q-125 -1 -125 -230z" />
<glyph unicode="&#x2039;" horiz-adv-x="749" d="M59 530l406 494l201 -154l-271 -340l271 -340l-201 -155z" />
<glyph unicode="&#x203a;" horiz-adv-x="749" d="M84 186l270 342l-270 340l201 156l405 -496l-405 -493z" />
<glyph unicode="&#x203e;" horiz-adv-x="1024" d="M-102 1651v225h1228v-225h-1228z" />
<glyph unicode="&#x2044;" horiz-adv-x="172" d="M-295 -33l563 1483h197l-563 -1483h-197z" />
<glyph unicode="&#x2070;" horiz-adv-x="843" d="M72 1032q0 193 90 295.5t260 102.5t259 -103.5t89 -298t-90 -298t-260 -103.5t-259 103t-89 302zM297 1030q0 -233 125 -233q123 0 123 231.5t-123 231.5q-125 -1 -125 -230z" />
<glyph unicode="&#x2074;" horiz-adv-x="843" d="M51 799v155l324 463h289v-469h108v-149h-108v-160h-205v160h-408zM229 948h240v348z" />
<glyph unicode="&#x2075;" horiz-adv-x="843" d="M76 680l61 166q131 -49 234 -49q76 0 117.5 26.5t41.5 73.5q0 94 -190 94q-90 0 -211 -18l18 444h574v-172h-367l-4 -115q57 8 99 9q150 0 228.5 -62.5t78.5 -179.5q0 -270 -357 -270q-178 0 -323 53z" />
<glyph unicode="&#x2076;" horiz-adv-x="843" d="M80 971q0 258 151 381q104 78 285 78q78 0 201 -19l-27 -162q-84 20 -151 21q-90 0 -140.5 -39t-76.5 -129q76 57 178 57q127 0 199.5 -66.5t72.5 -179.5q0 -133 -92 -209.5t-254 -76.5q-170 0 -258 88t-88 256zM305 897q0 -109 125 -109q123 0 123 109q0 106 -123 107 q-125 -1 -125 -107z" />
<glyph unicode="&#x2077;" horiz-adv-x="843" d="M88 1245v172h655v-155l-376 -623h-258l385 606h-406z" />
<glyph unicode="&#x2078;" horiz-adv-x="843" d="M72 862q0 133 164 176q-84 39 -115 75t-31 99q0 102 87 160t245 58q156 0 243 -57.5t87 -160.5q0 -63 -31 -99t-115 -75q164 -43 164 -178q0 -111 -91 -172t-257 -61q-168 0 -259 61t-91 174zM287 866q0 -39 36.5 -62.5t98.5 -23.5q59 0 96 23.5t37 62.5q0 78 -133 101 q-135 -23 -135 -101zM305 1204q0 -68 117 -106l10 4q45 12 75 40.5t30 59.5q0 74 -117 74q-115 0 -115 -72z" />
<glyph unicode="&#x2079;" horiz-adv-x="843" d="M72 1143q0 133 92 210t254 77q170 0 258 -88.5t88 -256.5q0 -258 -152 -380q-104 -78 -284 -78q-78 0 -201 18l27 162q84 -20 151 -21q90 0 140.5 39t76.5 129q-76 -57 -178 -57q-127 0 -199.5 66.5t-72.5 179.5zM291 1161q0 -109 125 -108q123 0 123 106q0 109 -125 109 q-123 -1 -123 -107z" />
<glyph unicode="&#x2080;" horiz-adv-x="843" d="M72 393q0 193 90 295.5t260 102.5t259 -103.5t89 -298t-90 -298t-260 -103.5t-259 103t-89 302zM297 391q0 -233 125 -233q123 0 123 231.5t-123 231.5q-125 -1 -125 -230z" />
<glyph unicode="&#x2081;" horiz-adv-x="843" d="M100 627l277 151h186v-778h-215v575l-168 -98z" />
<glyph unicode="&#x2082;" horiz-adv-x="843" d="M115 729q141 61 297 62q152 0 232.5 -60.5t80.5 -175.5q0 -70 -28.5 -124t-98.5 -120q-84 -76 -176 -143h309v-168h-606v168q96 57 227 164q150 121 150 203q0 86 -121 86q-78 0 -229 -62z" />
<glyph unicode="&#x2083;" horiz-adv-x="843" d="M102 33l35 170q127 -49 244 -49q127 0 127 84q0 88 -166 88q-37 0 -78 -2v141q35 -2 78 -2q162 0 162 84q0 78 -142 78q-86 0 -196 -35l-29 164q145 37 277 37q317 0 317 -216q0 -70 -36 -110.5t-115 -63.5q90 -23 126.5 -63.5t36.5 -116.5q0 -233 -340 -233 q-160 0 -301 45z" />
<glyph unicode="&#x2084;" horiz-adv-x="843" d="M51 160v155l324 463h289v-469h108v-149h-108v-160h-205v160h-408zM229 309h240v348z" />
<glyph unicode="&#x2085;" horiz-adv-x="843" d="M76 41l61 166q131 -49 234 -49q76 0 117.5 26.5t41.5 73.5q0 94 -190 94q-90 0 -211 -18l18 444h574v-172h-367l-4 -114q57 8 99 8q150 0 228.5 -62.5t78.5 -179.5q0 -270 -357 -270q-178 0 -323 53z" />
<glyph unicode="&#x2086;" horiz-adv-x="843" d="M80 332q0 258 151 381q104 78 285 78q78 0 201 -19l-27 -162q-84 20 -151 21q-90 0 -140.5 -39t-76.5 -129q76 57 178 57q127 0 199.5 -66.5t72.5 -179.5q0 -133 -92 -209.5t-254 -76.5q-170 0 -258 88t-88 256zM305 258q0 -109 125 -108q123 0 123 108q0 106 -123 107 q-125 -1 -125 -107z" />
<glyph unicode="&#x2087;" horiz-adv-x="843" d="M88 606v172h655v-155l-376 -623h-258l385 606h-406z" />
<glyph unicode="&#x2088;" horiz-adv-x="843" d="M72 223q0 133 164 176q-84 39 -115 75t-31 99q0 102 87 160t245 58q156 0 243 -57.5t87 -160.5q0 -63 -31 -99t-115 -75q164 -43 164 -178q0 -111 -91 -172t-257 -61q-168 0 -259 61t-91 174zM287 227q0 -39 36.5 -62.5t98.5 -23.5q59 0 96 23.5t37 62.5q0 78 -133 101 q-135 -23 -135 -101zM305 565q0 -68 117 -106l10 4q45 12 75 40.5t30 59.5q0 74 -117 74q-115 0 -115 -72z" />
<glyph unicode="&#x2089;" horiz-adv-x="843" d="M72 504q0 133 92 210t254 77q170 0 258 -88.5t88 -256.5q0 -258 -152 -380q-104 -78 -284 -78q-78 0 -201 18l27 162q84 -20 151 -21q90 0 140.5 39t76.5 129q-76 -57 -178 -57q-127 0 -199.5 66.5t-72.5 179.5zM291 522q0 -109 125 -108q123 0 123 106q0 109 -125 109 q-123 -1 -123 -107z" />
<glyph unicode="&#x20ac;" d="M10 481l53 150h140q-2 20 -2 51q0 43 2 72h-193l53 147h158q53 260 218 400.5t415 140.5q248 0 432 -92l-84 -236q-158 86 -305 86q-299 0 -362 -299h591l-51 -147h-553l-2 -19v-28q0 -31 6 -76h506l-53 -150h-424q45 -139 131 -201.5t236 -62.5q152 0 299 80l65 -244 q-182 -78 -416 -78q-260 0 -429 132.5t-220 373.5h-211z" />
<glyph unicode="&#x2116;" horiz-adv-x="2420" d="M168 0v1417h352l377 -637q100 -174 174 -334q-6 82 -6 271v700h307v-1417h-346l-354 594q-106 182 -203 379q6 -119 6 -338v-635h-307zM1538 725q0 170 108.5 269.5t293 99.5t292 -100.5t107.5 -272.5t-107.5 -272.5t-294 -100.5t-293 100.5t-106.5 276.5zM1575 72v164 h727v-164h-727zM1810 723q0 -111 30 -159t97 -48q70 0 99.5 48t29.5 156.5t-29.5 157t-97.5 48.5q-70 0 -99.5 -47t-29.5 -156z" />
<glyph unicode="&#x2122;" horiz-adv-x="1867" d="M12 1247v170h680v-170h-229v-606h-221v606h-230zM780 641v776h295l187 -530l184 530h295v-776h-207v391q0 78 10 215q-45 -168 -76 -248l-131 -358h-153l-131 358q-31 80 -76 248q10 -137 10 -215v-391h-207z" />
<glyph unicode="&#x2126;" horiz-adv-x="1513" d="M74 0v233h272q-145 123 -204.5 247t-59.5 298q0 309 180 486.5t496 177.5q313 0 493.5 -177.5t180.5 -486.5q0 -174 -59.5 -298t-205.5 -247h273v-233h-594v225q266 205 266 529q0 201 -96 319.5t-258 118.5q-164 0 -260.5 -119t-96.5 -319q0 -324 267 -529v-225h-594z " />
<glyph unicode="&#x2153;" horiz-adv-x="1859" d="M100 1266l277 151h186v-778h-215v575l-168 -98zM461 -33l563 1483h197l-564 -1483h-196zM1042 33l35 170q127 -49 244 -49q127 0 127 84q0 88 -166 88q-37 0 -78 -2v141q35 -2 78 -2q162 0 162 84q0 78 -141 78q-86 0 -197 -35l-29 164q145 37 277 37q317 0 317 -216 q0 -70 -36 -110.5t-115 -63.5q90 -23 126.5 -63.5t36.5 -116.5q0 -233 -340 -233q-160 0 -301 45z" />
<glyph unicode="&#x2154;" horiz-adv-x="1859" d="M115 1368q141 61 297 62q152 0 232.5 -60.5t80.5 -175.5q0 -70 -28.5 -124t-98.5 -120q-84 -76 -176 -143h309v-168h-606v168q96 57 227 164q150 121 150 203q0 86 -121 86q-78 0 -229 -62zM551 -33l561 1483h199l-563 -1483h-197zM1104 33l35 170q127 -49 243 -49 q127 0 127 84q0 88 -166 88q-37 0 -77 -2v141q35 -2 77 -2q162 0 162 84q0 78 -141 78q-86 0 -197 -35l-28 164q145 37 276 37q317 0 318 -216q0 -70 -36 -110.5t-116 -63.5q90 -23 127 -63.5t37 -116.5q0 -233 -340 -233q-160 0 -301 45z" />
<glyph unicode="&#x215b;" horiz-adv-x="1859" d="M92 1266l277 151h186v-778h-215v575l-168 -98zM453 -33l563 1483h196l-563 -1483h-196zM1012 223q0 133 164 176q-84 39 -115 75t-31 99q0 102 87 160t245 58q156 0 243 -57.5t87 -160.5q0 -63 -31 -99t-115 -75q164 -43 164 -178q0 -111 -91 -172t-257 -61 q-168 0 -259 61t-91 174zM1227 227q0 -39 36.5 -62.5t98.5 -23.5q59 0 96 23.5t37 62.5q0 78 -133 101q-135 -23 -135 -101zM1245 565q0 -68 117 -106l10 4q45 12 75 40.5t30 59.5q0 74 -117 74q-115 0 -115 -72z" />
<glyph unicode="&#x215c;" horiz-adv-x="1859" d="M82 672l35 170q127 -49 243 -49q127 0 127 84q0 88 -165 88q-37 0 -78 -2v141q35 -2 78 -2q162 0 161 84q0 78 -141 78q-86 0 -197 -35l-28 164q145 37 276 37q317 0 318 -216q0 -70 -36 -110.5t-116 -63.5q90 -23 127 -63.5t37 -116.5q0 -233 -340 -233q-160 0 -301 45z M528 -33l564 1483h198l-563 -1483h-199zM1067 223q0 133 166 176q-86 39 -117 75t-31 99q0 102 87.5 160t244.5 58q156 0 243 -57.5t87 -160.5q0 -63 -30.5 -99t-114.5 -75q88 -23 126.5 -64.5t38.5 -113.5q0 -111 -92 -172t-258 -61t-258 61t-92 174zM1282 227 q0 -39 38 -62.5t97.5 -23.5t97 23.5t37.5 62.5q0 78 -135 101q-135 -23 -135 -101zM1300 565q0 -70 117 -106l10 4q45 12 75 40.5t30 59.5q0 74 -117 74q-115 0 -115 -72z" />
<glyph unicode="&#x215d;" horiz-adv-x="1859" d="M61 680l62 166q131 -49 233 -49q76 0 118 26.5t42 73.5q0 94 -190 94q-92 0 -211 -18l18 444h574v-172h-367l-4 -115q57 8 98 9q150 0 228.5 -62.5t78.5 -179.5q0 -270 -356 -270q-179 0 -324 53zM535 -33l563 1483h196l-561 -1483h-198zM1073 223q0 133 164 176 q-84 39 -114.5 75t-30.5 99q0 102 87 160t244 58q156 0 243 -57.5t87 -160.5q0 -63 -30.5 -99t-114.5 -75q164 -43 164 -178q0 -111 -91.5 -172t-257.5 -61q-168 0 -259 61t-91 174zM1288 227q0 -39 37 -62.5t98 -23.5q59 0 96 23.5t37 62.5q0 78 -133 101 q-135 -23 -135 -101zM1307 565q0 -68 116 -106l11 4q45 12 74.5 40.5t29.5 59.5q0 74 -117 74q-114 0 -114 -72z" />
<glyph unicode="&#x215e;" horiz-adv-x="1859" d="M123 1245v172h655v-155l-377 -623h-258l385 606h-405zM467 -33l563 1483h199l-563 -1483h-199zM1040 223q0 133 164 176q-84 39 -114.5 75t-30.5 99q0 102 87 160t245 58q156 0 242.5 -57.5t86.5 -160.5q0 -63 -30.5 -99t-114.5 -75q164 -43 164 -178q0 -111 -91.5 -172 t-256.5 -61q-168 0 -259.5 61t-91.5 174zM1255 227q0 -39 37 -62.5t99 -23.5q59 0 96 23.5t37 62.5q0 78 -133 101q-136 -23 -136 -101zM1274 565q0 -68 117 -106l10 4q45 12 74.5 40.5t29.5 59.5q0 74 -116 74q-115 0 -115 -72z" />
<glyph unicode="&#x2202;" d="M125 479q0 219 117.5 348t318.5 129q90 0 180 -32q-178 307 -542 364l55 232q199 -23 344 -87.5t268 -187.5q139 -141 220 -338.5t81 -400.5q0 -258 -136 -394.5t-394 -136.5q-240 0 -376 134t-136 370zM444 473q0 -127 52.5 -199.5t144.5 -72.5t149.5 74.5t57.5 193.5 q0 123 -56.5 192.5t-154.5 69.5q-92 0 -142.5 -66.5t-50.5 -191.5z" />
<glyph unicode="&#x2206;" d="M20 0v184l467 1233h320l467 -1233v-184h-1254zM356 242h582l-291 813z" />
<glyph unicode="&#x220f;" horiz-adv-x="1441" d="M135 -317v1937h1172v-1937h-320v1687h-532v-1687h-320z" />
<glyph unicode="&#x2211;" d="M150 -68l415 742l-415 694v252h1093v-252h-721l402 -694l-416 -742h747v-249h-1105v249z" />
<glyph unicode="&#x2212;" d="M123 406v237h1048v-237h-1048z" />
<glyph unicode="&#x221a;" d="M80 575v226h387l174 -471l434 1546h651v-225h-444l-481 -1651h-299l-230 575h-192z" />
<glyph unicode="&#x221e;" horiz-adv-x="1685" d="M90 537q0 170 97.5 263t273.5 93q225 0 381 -182q84 96 174 139t209 43q176 0 273 -93t97 -263t-97 -263.5t-273 -93.5q-119 0 -209 43t-174 139q-156 -182 -381 -182q-176 0 -273.5 93.5t-97.5 263.5zM338 536.5q0 -57.5 38 -93t99 -35.5q94 0 215 106l27 23l-23 20 q-121 109 -219 109q-61 0 -99 -36t-38 -93.5zM969 537l26 -23q121 -106 215 -106q61 0 99.5 35.5t38.5 93t-38 93.5t-100 36q-98 0 -219 -109z" />
<glyph unicode="&#x222b;" horiz-adv-x="917" d="M57 -295l45 242q55 -27 105 -27q68 0 90 55q12 37 12 150v1098q0 158 11.5 213t52.5 106q84 102 272 103q113 0 215 -39l-37 -248q-68 25 -108 24q-61 0 -84 -53q-12 -29 -13 -110v-1094q0 -152 -10 -221.5t-41 -116.5q-80 -129 -270 -129q-131 0 -240 47z" />
<glyph unicode="&#x2248;" d="M80 221q86 156 165 226.5t167 70.5q57 0 104 -16.5t189 -85.5q131 -61 180 -62q47 0 83 32t83 114l161 -88q-45 -100 -102 -176q-88 -123 -217 -123q-63 0 -130 23.5t-214 94.5q-86 45 -133 45q-45 0 -80 -31.5t-86 -117.5zM80 639q86 156 165 226.5t167 70.5 q57 0 104 -16.5t189 -85.5q131 -61 180 -62q47 0 83 32t83 114l161 -89q-45 -100 -102 -176q-88 -123 -217 -123q-63 0 -130 24t-214 95q-86 45 -133 45q-45 0 -80 -31.5t-86 -117.5z" />
<glyph unicode="&#x2260;" d="M123 197v237h338l104 180h-442v238h579l168 289l203 -115l-102 -174h200v-238h-337l-105 -180h442v-237h-579l-168 -289l-203 115l103 174h-201z" />
<glyph unicode="&#x2261;" d="M123 0v238h1048v-238h-1048zM123 406v237h1048v-237h-1048zM123 811v238h1048v-238h-1048z" />
<glyph unicode="&#x2264;" d="M123 0v233h1048v-233h-1048zM123 606v217l1048 285v-246l-634 -147l634 -146v-245z" />
<glyph unicode="&#x2265;" d="M123 0v233h1048v-233h-1048zM123 324v245l635 146l-635 147v246l1048 -285v-217z" />
<glyph unicode="&#x22c5;" horiz-adv-x="647" d="M133 594q0 80 54.5 133t136.5 53t135 -54t53 -136t-53 -135.5t-135 -53.5q-84 0 -137.5 54.5t-53.5 138.5z" />
<glyph unicode="&#x25ca;" d="M12 709l635 737l635 -737l-635 -738zM338 709l309 -359l309 359l-309 358z" />
<glyph unicode="&#xe000;" horiz-adv-x="1050" d="M0 1050h1050v-1050h-1050v1050z" />
<glyph unicode="&#xea3f;" horiz-adv-x="1024" d="M268 918l178 579h299l-229 -579h-248z" />
<glyph unicode="&#xea4e;" horiz-adv-x="0" d="M-90 1651v225h1352v-225h-1352z" />
<glyph unicode="&#xea4f;" horiz-adv-x="1024" d="M197 1184l297 313h282l-241 -313h-338z" />
<glyph unicode="&#xea67;" horiz-adv-x="1024" d="M268 918l178 579h312l-230 -579h-260z" />
<glyph unicode="&#xf6be;" horiz-adv-x="659" d="M-82 -434l25 229q76 -23 116 -22q74 0 102.5 56t28.5 200v1020h310v-1043q0 -143 -16.5 -221t-59.5 -133q-88 -117 -289 -117q-100 0 -217 31z" />
<glyph unicode="&#xf6c3;" horiz-adv-x="1024" d="M172 -379l240 313h340l-297 -313h-283z" />
<glyph unicode="&#xf6c9;" horiz-adv-x="1024" d="M313 1554l246 299h369l-330 -299h-285z" />
<glyph unicode="&#xf6ca;" horiz-adv-x="1024" d="M86 1870h287l139 -176l139 176h287l-244 -299h-364z" />
<glyph unicode="&#xf6cb;" horiz-adv-x="1024" d="M109 1710q0 76 50 125t125.5 49t126 -49t50.5 -127t-50.5 -127t-125.5 -49q-78 0 -127 50t-49 128zM563 1710q0 76 50.5 125t126 49t125.5 -49t50 -127t-50 -127t-126 -49q-78 0 -127 50t-49 128z" />
<glyph unicode="&#xf6ce;" horiz-adv-x="1024" d="M121 1853h368l246 -299h-286z" />
<glyph unicode="&#xf6cf;" horiz-adv-x="1024" d="M109 1554l245 299h369l-330 -299h-284zM590 1554l244 299h368l-334 -299h-278z" />
<glyph unicode="&#xf6d0;" horiz-adv-x="1024" d="M139 1565v180h748v-180h-748z" />
<glyph unicode="&#xf6f4;" horiz-adv-x="1024" d="M143 1538h168q6 -78 48 -106.5t153 -28.5q109 0 151 28.5t48 106.5h168q0 -147 -52 -215q-84 -115 -315 -115t-317 115q-52 68 -52 215z" />
<glyph unicode="&#xf6f5;" horiz-adv-x="1024" d="M86 1538h287l139 -176l139 176h287l-244 -299h-364z" />
<glyph unicode="&#xf6f6;" horiz-adv-x="1024" d="M86 1239l244 299h364l244 -299h-287l-139 178l-139 -178h-287z" />
<glyph unicode="&#xf6f7;" horiz-adv-x="1024" d="M344 1391q0 72 48 118.5t120 46.5q74 0 121 -47t47 -120.5t-47 -120.5t-121 -47t-121 47t-47 123z" />
<glyph unicode="&#xf6f8;" horiz-adv-x="1024" d="M109 1239l245 299h369l-330 -299h-284zM590 1239l244 299h368l-334 -299h-278z" />
<glyph unicode="&#xf6f9;" horiz-adv-x="1005" d="M45 258v211l164 94v545h307v-367l250 144v-211l-250 -144v-290h485v-240h-792v352z" />
<glyph unicode="&#xf6fa;" horiz-adv-x="1693" d="M90 555q0 285 160 424q80 70 192.5 99.5t305.5 29.5h819v-234h-469v-200h446v-234h-446v-207h495v-233h-829q-174 0 -274.5 18.5t-178.5 63.5q-221 125 -221 473zM410 561q0 -201 116 -282q74 -53 230 -54h37v658h-37q-109 0 -164 -13.5t-94 -50.5q-88 -82 -88 -258z" />
<glyph unicode="&#xf6fb;" horiz-adv-x="1024" d="M213 -254q0 147 258 254h197q-125 -70 -169 -114t-44 -97q0 -47 35.5 -73.5t101.5 -26.5q35 0 76 8l10 -137q-92 -12 -168 -13q-137 0 -217 53.5t-80 145.5z" />
<glyph unicode="&#xf6fc;" horiz-adv-x="1024" d="M276 1425q0 96 68 162t168 66q102 0 169 -65.5t67 -166t-67 -166t-169 -65.5t-169 65.5t-67 169.5zM422 1421q0 -98 90 -98t90 98.5t-90 98.5q-41 0 -65.5 -27t-24.5 -72z" />
<glyph unicode="&#xf6fd;" horiz-adv-x="1021" d="M90 47l49 248q176 -94 332 -94q68 0 105.5 27.5t37.5 76.5q0 37 -36.5 63.5t-155.5 73.5q-160 63 -219 105q-104 74 -105 217q0 190 142 293q100 76 284 76q190 0 379 -70l-67 -238q-188 82 -301 82q-55 0 -87 -23.5t-32 -64.5q0 -47 69 -82q39 -20 236 -98 q115 -47 165 -115.5t50 -179.5q0 -180 -111.5 -274.5t-326.5 -94.5t-408 72zM113 1538h286l140 -176l139 176h287l-244 -299h-365z" />
<glyph unicode="&#xf6fe;" horiz-adv-x="1024" d="M102 1223q8 129 66.5 205.5t150.5 76.5q63 0 205 -45q115 -39 154 -39q37 0 53.5 17.5t22.5 64.5h168q-16 -285 -226 -284q-43 0 -76.5 8t-195.5 59q-55 16 -80 17q-57 0 -72 -80h-170z" />
<glyph unicode="&#xf6ff;" horiz-adv-x="1050" d="M49 0v199l541 680h-520v229h913v-201l-539 -678h557v-229h-952zM141 1538h287l139 -176l138 176h288l-243 -299h-365z" />
<glyph unicode="&#xf730;" d="M90 561q0 268 147.5 420t409.5 152q264 0 410.5 -152t146.5 -426t-146.5 -427t-410.5 -153q-266 0 -411.5 153.5t-145.5 432.5zM410 557q0 -156 62.5 -244t175 -88t175 87t62.5 243q0 154 -62.5 241t-175.5 87q-111 0 -174 -87t-63 -239z" />
<glyph unicode="&#xf731;" horiz-adv-x="995" d="M55 872l402 236h274v-1108h-309v776l-227 -135z" />
<glyph unicode="&#xf732;" horiz-adv-x="1134" d="M88 0v229q231 127 395 263q201 162 201 264q0 59 -48 93t-136 34q-137 0 -332 -76l-80 237q219 88 442 89q242 0 363 -103q111 -94 111 -250q0 -90 -42 -165.5t-139 -159.5q-66 -57 -115 -92t-178 -113h486v-250h-928z" />
<glyph unicode="&#xf733;" horiz-adv-x="1134" d="M37 -279l67 250q147 -57 324 -57q137 0 211 50t74 147q0 115 -109 161q-72 35 -227 35q-72 0 -137 -4v234q29 -2 69 -2q203 0 296 43t93 137q0 82 -63.5 125t-179.5 43q-135 0 -314 -62l-67 246q211 66 426 66q254 0 386 -100.5t132 -291.5q0 -276 -293 -321 q307 -45 307 -324q0 -209 -153 -325q-145 -106 -424 -107q-238 0 -418 57z" />
<glyph unicode="&#xf734;" d="M45 12v250l614 846h375v-866h191v-230h-191v-321h-309v321h-680zM340 242h393v567z" />
<glyph unicode="&#xf735;" horiz-adv-x="1142" d="M43 -246l80 250q166 -90 332 -90q135 0 206.5 61.5t71.5 176.5q0 233 -313 233q-125 0 -297 -43l27 766h854v-250h-553l-9 -246q74 6 117 6q250 0 369 -116q125 -121 125 -344q0 -240 -144 -367q-145 -127 -422 -127q-243 0 -444 90z" />
<glyph unicode="&#xf736;" d="M113 580q0 221 62.5 403t174.5 289q176 170 488 170q121 0 260 -25l-31 -262q-125 37 -225 37q-170 0 -271.5 -98.5t-115.5 -276.5q133 125 311 125q203 0 316.5 -120t113.5 -337q0 -242 -142.5 -376t-396.5 -134q-268 0 -406 153t-138 452zM432 463q0 -115 60.5 -180.5 t166.5 -65.5q102 0 161 67.5t59 184.5q0 109 -55.5 169t-155.5 60q-106 0 -171 -64.5t-65 -170.5z" />
<glyph unicode="&#xf737;" horiz-adv-x="1067" d="M31 858v250h985v-236l-623 -1181h-344l623 1167h-641z" />
<glyph unicode="&#xf738;" d="M94 401q0 127 61.5 207t198.5 135q-121 59 -175 132t-54 178q0 180 140.5 284.5t381.5 104.5q240 0 380 -104.5t140 -284.5q0 -106 -52 -177t-177 -133q137 -55 198.5 -135t61.5 -207q0 -201 -145.5 -313.5t-405.5 -112.5q-262 0 -407.5 112.5t-145.5 313.5zM414 397 q0 -84 63.5 -134t169.5 -50q104 0 168 50t64 134q0 166 -244 228q-221 -62 -221 -228zM438 1053q0 -145 209 -201l17 4q84 20 137 73.5t53 119.5q0 74 -55.5 114.5t-151.5 40.5t-152.5 -40.5t-56.5 -110.5z" />
<glyph unicode="&#xf739;" d="M98 623q0 242 142.5 376t396.5 134q268 0 406.5 -153t138.5 -452q0 -221 -62.5 -403t-175.5 -289q-176 -170 -487 -170q-121 0 -260 25l30 262q125 -37 226 -37q170 0 271 98.5t116 276.5q-133 -125 -312 -125q-203 0 -316.5 120t-113.5 337zM416 639q0 -109 55 -169 t156 -60q106 0 170.5 64.5t64.5 170.5q0 115 -60.5 180.5t-166.5 65.5q-102 0 -160.5 -67.5t-58.5 -184.5z" />
<glyph unicode="&#xf760;" horiz-adv-x="1024" d="M121 1538h368l246 -299h-286z" />
<glyph unicode="&#xf761;" horiz-adv-x="1263" d="M8 0l451 1108h327l469 -1108h-327l-88 229h-437l-88 -229h-307zM479 449h287l-143 413z" />
<glyph unicode="&#xf762;" horiz-adv-x="1130" d="M164 0v1108h418q233 0 321 -59q119 -80 119 -242q0 -90 -37 -146.5t-119 -91.5q92 -41 133 -98t41 -152q0 -170 -125 -256q-96 -63 -299 -63h-452zM453 205h100q104 0 146 28.5t42 100.5q0 70 -42 98.5t-146 28.5h-100v-256zM453 655h100q94 0 134 29t40 94q0 78 -55 107 q-31 18 -119 18h-100v-248z" />
<glyph unicode="&#xf763;" horiz-adv-x="1103" d="M90 545q0 279 150.5 433.5t423.5 154.5q229 0 403 -99l-113 -217q-127 90 -256 90q-133 0 -210.5 -94t-77.5 -258q0 -162 80.5 -258t218.5 -96q143 0 272 106l96 -229q-156 -102 -403 -103q-281 0 -432.5 148t-151.5 422z" />
<glyph unicode="&#xf764;" horiz-adv-x="1261" d="M164 0v1108h350q193 0 305.5 -29.5t192.5 -99.5q160 -139 159 -424q0 -348 -221 -473q-78 -45 -178 -63.5t-274 -18.5h-334zM469 225h37q156 0 229 54q117 82 117 282q0 178 -84 258q-39 37 -93 50.5t-163 13.5h-43v-658z" />
<glyph unicode="&#xf765;" horiz-adv-x="1067" d="M164 0v1108h776v-234h-469v-200h447v-234h-447v-207h496v-233h-803z" />
<glyph unicode="&#xf766;" horiz-adv-x="1034" d="M164 0v1108h780v-234h-475v-219h453v-233h-453v-422h-305z" />
<glyph unicode="&#xf767;" d="M90 541q0 283 158 437.5t446 154.5q233 0 436 -105l-108 -221q-129 100 -295 100q-150 0 -234.5 -95t-84.5 -261q0 -156 85 -253t220 -97q57 0 118 26v197h-204v219h499v-588q-137 -47 -223 -63.5t-203 -16.5q-299 0 -454.5 143.5t-155.5 422.5z" />
<glyph unicode="&#xf768;" horiz-adv-x="1314" d="M164 0v1108h307v-424h373v424h307v-1108h-307v451h-373v-451h-307z" />
<glyph unicode="&#xf769;" horiz-adv-x="634" d="M164 0v1108h307v-1108h-307z" />
<glyph unicode="&#xf76a;" horiz-adv-x="782" d="M0 12l29 244q76 -49 153.5 -49t105 42t27.5 163v696h308v-655q0 -178 -14.5 -250t-61.5 -125q-90 -102 -301 -103q-142 0 -246 37z" />
<glyph unicode="&#xf76b;" horiz-adv-x="1251" d="M164 0v1108h307v-492l381 492h377l-424 -508l434 -600h-387l-381 563v-563h-307z" />
<glyph unicode="&#xf76c;" horiz-adv-x="960" d="M164 0v1108h307v-868h485v-240h-792z" />
<glyph unicode="&#xf76d;" horiz-adv-x="1683" d="M164 0v1108h434l104 -334q74 -244 136 -491q61 238 151 512l101 313h430v-1108h-279v877q-35 -143 -84 -306l-180 -571h-293l-180 563q-37 123 -84 314v-877h-256z" />
<glyph unicode="&#xf76e;" horiz-adv-x="1363" d="M164 0v1108h342l297 -481q80 -125 131 -236v717h266v-1108h-334l-293 473l-36 59q-51 82 -107 183v-715h-266z" />
<glyph unicode="&#xf76f;" horiz-adv-x="1312" d="M90 561q0 285 174 443q141 129 393 129q289 0 435 -175q131 -156 131 -403q0 -295 -174 -451q-141 -129 -394 -129q-287 0 -434 175q-131 155 -131 411zM408 557q0 -168 66.5 -262t180.5 -94q117 0 183.5 94t66.5 258t-66.5 259t-181 95t-182 -94t-67.5 -256z" />
<glyph unicode="&#xf770;" horiz-adv-x="1101" d="M164 0v1108h366q158 0 239 -15.5t140 -56.5q131 -90 131 -280q0 -195 -125 -291q-102 -76 -331 -76h-125v-389h-295zM453 604h100q94 0 131 25q57 35 57 123q0 84 -57 118q-37 23 -131 23h-100v-289z" />
<glyph unicode="&#xf771;" horiz-adv-x="1312" d="M90 555q0 293 174 449q141 129 393 129q287 0 435 -175q131 -156 131 -405q0 -352 -250 -504q70 -53 213 -121l-148 -219q-248 102 -430 268q-184 10 -295 89q-223 153 -223 489zM408 557q0 -168 66.5 -262t180.5 -94q117 0 183.5 94t66.5 258t-66.5 259t-181 95 t-182 -94t-67.5 -256z" />
<glyph unicode="&#xf772;" horiz-adv-x="1173" d="M164 0v1108h463q215 0 307 -61q119 -82 119 -248q0 -236 -199 -273q51 -20 73.5 -50t71.5 -134l168 -342h-321l-96 211q-57 125 -97.5 163t-115.5 38h-78v-412h-295zM453 627h112q102 0 145.5 30.5t43.5 104.5t-41 102.5t-148 28.5h-112v-266z" />
<glyph unicode="&#xf773;" horiz-adv-x="1021" d="M90 47l49 248q176 -94 332 -94q68 0 105.5 27.5t37.5 76.5q0 37 -36.5 63.5t-155.5 73.5q-160 63 -219 105q-104 74 -105 217q0 190 142 293q100 76 284 76q190 0 379 -70l-67 -238q-188 82 -301 82q-55 0 -87 -23.5t-32 -64.5q0 -47 69 -82q39 -20 236 -98 q115 -47 165 -115.5t50 -179.5q0 -180 -111.5 -274.5t-326.5 -94.5t-408 72z" />
<glyph unicode="&#xf774;" horiz-adv-x="993" d="M8 868v240h977v-240h-338v-868h-307v868h-332z" />
<glyph unicode="&#xf775;" horiz-adv-x="1306" d="M156 506v602h307v-645q0 -152 40 -207t150.5 -55t150.5 55t40 207v645h307v-602q0 -188 -17.5 -268t-68.5 -138q-117 -125 -412 -125q-330 0 -436 156q-37 53 -49 129t-12 246z" />
<glyph unicode="&#xf776;" horiz-adv-x="1155" d="M-12 1108h321l172 -479q70 -195 103 -305q29 96 98 294l182 490h303l-424 -1108h-331z" />
<glyph unicode="&#xf777;" horiz-adv-x="1761" d="M49 1108h307l109 -467q35 -147 59 -328q29 160 78 338l131 457h322l153 -594q27 -96 43 -201q27 152 92 424l95 371h274l-309 -1108h-324l-94 360q-68 270 -102 465q-39 -197 -117 -465l-104 -360h-322z" />
<glyph unicode="&#xf778;" horiz-adv-x="1312" d="M29 0l460 580l-415 528h352l242 -328l252 328h346l-432 -545l446 -563h-365l-262 356l-274 -356h-350z" />
<glyph unicode="&#xf779;" horiz-adv-x="1193" d="M-25 1108h357l196 -295l76 -117q33 57 82 129l193 283h340l-465 -666v-442h-310v442z" />
<glyph unicode="&#xf77a;" horiz-adv-x="1050" d="M49 0v199l541 680h-520v229h913v-201l-539 -678h557v-229h-952z" />
<glyph unicode="&#xf7a8;" horiz-adv-x="1024" d="M117 1391q0 72 48 118.5t120 46.5q74 0 121 -47t47 -120.5t-47.5 -120.5t-121 -47t-120.5 47t-47 123zM571 1391q0 72 48.5 118.5t119.5 46.5q74 0 121 -47t47 -120.5t-47 -120.5t-120.5 -47t-121 47t-47.5 123z" />
<glyph unicode="&#xf7af;" horiz-adv-x="1024" d="M139 1278v180h748v-180h-748z" />
<glyph unicode="&#xf7b4;" horiz-adv-x="1024" d="M313 1239l246 299h369l-330 -299h-285z" />
<glyph unicode="&#xf7b8;" horiz-adv-x="1024" d="M197 -379l239 313h340l-297 -313h-282z" />
<glyph unicode="&#xf7e0;" horiz-adv-x="1263" d="M8 0l451 1108h327l469 -1108h-327l-88 229h-437l-88 -229h-307zM240 1538h368l246 -299h-285zM479 449h287l-143 413z" />
<glyph unicode="&#xf7e1;" horiz-adv-x="1263" d="M8 0l451 1108h327l469 -1108h-327l-88 229h-437l-88 -229h-307zM434 1239l246 299h367l-328 -299h-285zM479 449h287l-143 413z" />
<glyph unicode="&#xf7e2;" horiz-adv-x="1263" d="M8 0l451 1108h327l469 -1108h-327l-88 229h-437l-88 -229h-307zM205 1239l244 299h364l244 -299h-285l-141 178l-137 -178h-289zM479 449h287l-143 413z" />
<glyph unicode="&#xf7e3;" horiz-adv-x="1263" d="M8 0l451 1108h327l469 -1108h-327l-88 229h-437l-88 -229h-307zM221 1223q8 129 67.5 205.5t151.5 76.5q61 0 203 -45q115 -39 154 -39q37 0 54 18.5t21 63.5h170q-18 -285 -227 -284q-41 0 -75.5 8t-196.5 59q-53 16 -80 17q-57 0 -70 -80h-172zM479 449h287l-143 413z " />
<glyph unicode="&#xf7e4;" horiz-adv-x="1263" d="M8 0l451 1108h327l469 -1108h-327l-88 229h-437l-88 -229h-307zM236 1391q0 72 48 118.5t119 46.5q74 0 121 -47t47 -120.5t-47 -120.5t-120.5 -47t-120.5 47t-47 123zM479 449h287l-143 413zM690 1391q0 72 48 118.5t120 46.5q74 0 121 -47t47 -120.5t-47 -120.5 t-121 -47t-121 47t-47 123z" />
<glyph unicode="&#xf7e5;" horiz-adv-x="1263" d="M8 0l451 1108h327l469 -1108h-327l-88 229h-437l-88 -229h-307zM395 1425q0 96 67.5 162t168.5 66q102 0 168.5 -65.5t66.5 -166t-66.5 -166t-169 -65.5t-169 65.5t-66.5 169.5zM479 449h287l-143 413zM541 1421q0 -98 90 -98t90 98.5t-90 98.5q-41 0 -65.5 -27 t-24.5 -72z" />
<glyph unicode="&#xf7e6;" horiz-adv-x="1652" d="M-102 0l634 1108h994v-234h-469v-200h446v-234h-446v-207h495v-233h-802v244h-383l-131 -244h-338zM487 469h263v489z" />
<glyph unicode="&#xf7e7;" horiz-adv-x="1103" d="M90 545q0 279 150.5 433.5t423.5 154.5q229 0 403 -99l-113 -217q-127 90 -256 90q-133 0 -210.5 -94t-77.5 -258q0 -162 80.5 -258t218.5 -96q143 0 272 106l96 -229q-156 -102 -403 -103q-281 0 -432.5 148t-151.5 422zM238 -379l239 313h338l-295 -313h-282z" />
<glyph unicode="&#xf7e8;" horiz-adv-x="1067" d="M164 0v1108h776v-234h-469v-200h447v-234h-447v-207h496v-233h-803zM176 1538h369l246 -299h-285z" />
<glyph unicode="&#xf7e9;" horiz-adv-x="1067" d="M164 0v1108h776v-234h-469v-200h447v-234h-447v-207h496v-233h-803zM377 1239l246 299h366l-327 -299h-285z" />
<glyph unicode="&#xf7ea;" horiz-adv-x="1067" d="M127 1239l244 299h364l244 -299h-287l-139 178l-139 -178h-287zM164 0v1108h776v-234h-469v-200h447v-234h-447v-207h496v-233h-803z" />
<glyph unicode="&#xf7eb;" horiz-adv-x="1067" d="M160 1391q0 72 48 118.5t120 46.5q74 0 121 -47t47 -120.5t-47.5 -120.5t-121 -47t-120.5 47t-47 123zM166 0v1108h776v-234h-469v-200h447v-234h-447v-207h496v-233h-803zM614 1391q0 72 48.5 118.5t119.5 46.5q74 0 121 -47t47 -120.5t-47 -120.5t-120.5 -47t-121 47 t-47.5 123z" />
<glyph unicode="&#xf7ec;" horiz-adv-x="634" d="M-109 1538h369l246 -299h-287zM164 0v1108h307v-1108h-307z" />
<glyph unicode="&#xf7ed;" horiz-adv-x="634" d="M119 1239l246 299h368l-330 -299h-284zM164 0v1108h307v-1108h-307z" />
<glyph unicode="&#xf7ee;" horiz-adv-x="634" d="M-109 1239l244 299h365l243 -299h-286l-140 178l-139 -178h-287zM164 0v1108h307v-1108h-307z" />
<glyph unicode="&#xf7ef;" horiz-adv-x="634" d="M-78 1391q0 72 48 118.5t120 46.5q74 0 121 -47t47 -120.5t-47 -120.5t-121 -47t-121 47t-47 123zM164 0v1108h307v-1108h-307zM377 1391q0 72 48 118.5t120 46.5q74 0 121 -47t47 -120.5t-47.5 -120.5t-121 -47t-120.5 47t-47 123z" />
<glyph unicode="&#xf7f0;" horiz-adv-x="1314" d="M41 469v180h176v459h352q190 0 303 -29.5t193 -99.5q160 -139 160 -424q0 -348 -219 -473q-80 -45 -179.5 -63.5t-275.5 -18.5h-334v469h-176zM522 225h37q156 0 229 54q117 82 117 282q0 178 -84 258q-39 37 -93 50.5t-163 13.5h-43v-234h211v-180h-211v-244z" />
<glyph unicode="&#xf7f1;" horiz-adv-x="1363" d="M164 0v1108h342l297 -481q80 -125 131 -236v717h266v-1108h-334l-293 473l-36 59q-51 82 -107 183v-715h-266zM307 1223q6 129 65.5 205.5t151.5 76.5q61 0 203 -45q115 -39 156 -39q37 0 53 17.5t22 64.5h168q-16 -285 -225 -284q-43 0 -76.5 8t-195.5 59q-55 16 -82 17 q-57 0 -70 -80h-170z" />
<glyph unicode="&#xf7f2;" horiz-adv-x="1312" d="M90 561q0 285 174 443q141 129 393 129q289 0 435 -175q131 -156 131 -403q0 -295 -174 -451q-141 -129 -394 -129q-287 0 -434 175q-131 155 -131 411zM266 1538h367l246 -299h-285zM408 557q0 -168 66.5 -262t180.5 -94q117 0 183.5 94t66.5 258t-66.5 259t-181 95 t-182 -94t-67.5 -256z" />
<glyph unicode="&#xf7f3;" horiz-adv-x="1312" d="M90 561q0 285 174 443q141 129 393 129q289 0 435 -175q131 -156 131 -403q0 -295 -174 -451q-141 -129 -394 -129q-287 0 -434 175q-131 155 -131 411zM408 557q0 -168 66.5 -262t180.5 -94q117 0 183.5 94t66.5 258t-66.5 259t-181 95t-182 -94t-67.5 -256zM459 1239 l246 299h366l-328 -299h-284z" />
<glyph unicode="&#xf7f4;" horiz-adv-x="1312" d="M90 561q0 285 174 443q141 129 393 129q289 0 435 -175q131 -156 131 -403q0 -295 -174 -451q-141 -129 -394 -129q-287 0 -434 175q-131 155 -131 411zM229 1239l244 299h367l243 -299h-286l-142 178l-137 -178h-289zM408 557q0 -168 66.5 -262t180.5 -94 q117 0 183.5 94t66.5 258t-66.5 259t-181 95t-182 -94t-67.5 -256z" />
<glyph unicode="&#xf7f5;" horiz-adv-x="1312" d="M90 561q0 285 174 443q141 129 393 129q289 0 435 -175q131 -156 131 -403q0 -295 -174 -451q-141 -129 -394 -129q-287 0 -434 175q-131 155 -131 411zM246 1223q8 129 67.5 205.5t151.5 76.5q61 0 203 -45q115 -39 153 -39q37 0 54.5 18.5t23.5 63.5h168 q-18 -285 -225 -284q-43 0 -78 8t-197 59q-53 16 -80 17q-57 0 -69 -80h-172zM408 557q0 -168 66.5 -262t180.5 -94q117 0 183.5 94t66.5 258t-66.5 259t-181 95t-182 -94t-67.5 -256z" />
<glyph unicode="&#xf7f6;" horiz-adv-x="1312" d="M90 561q0 285 174 443q141 129 393 129q289 0 435 -175q131 -156 131 -403q0 -295 -174 -451q-141 -129 -394 -129q-287 0 -434 175q-131 155 -131 411zM262 1391q0 72 48 118.5t120 46.5q74 0 121 -47t47 -120.5t-47 -120.5t-121 -47t-121 47t-47 123zM408 557 q0 -168 66.5 -262t180.5 -94q117 0 183.5 94t66.5 258t-66.5 259t-181 95t-182 -94t-67.5 -256zM717 1391q0 72 48 118.5t120 46.5q74 0 121 -47t47 -120.5t-47.5 -120.5t-121 -47t-120.5 47t-47 123z" />
<glyph unicode="&#xf7f8;" horiz-adv-x="1312" d="M68 72l118 125q-96 147 -96 360q0 289 174 447q141 129 389 129q217 0 346 -89l111 115l137 -123l-119 -125q94 -150 95 -360q0 -289 -174 -447q-137 -129 -387 -129q-215 0 -347 88l-110 -114zM408 553q0 -66 12 -115l391 410q-61 59 -156 59q-115 0 -181 -95t-66 -259z M504 260q61 -59 153 -59q115 0 181.5 95t66.5 259q0 55 -10 115z" />
<glyph unicode="&#xf7f9;" horiz-adv-x="1306" d="M156 506v602h307v-645q0 -152 40 -207t150.5 -55t150.5 55t40 207v645h307v-602q0 -188 -17.5 -268t-68.5 -138q-117 -125 -412 -125q-330 0 -436 156q-37 53 -49 129t-12 246zM262 1538h369l246 -299h-287z" />
<glyph unicode="&#xf7fa;" horiz-adv-x="1306" d="M156 506v602h307v-645q0 -152 40 -207t150.5 -55t150.5 55t40 207v645h307v-602q0 -188 -17.5 -268t-68.5 -138q-117 -125 -412 -125q-330 0 -436 156q-37 53 -49 129t-12 246zM475 1239l246 299h369l-328 -299h-287z" />
<glyph unicode="&#xf7fb;" horiz-adv-x="1306" d="M156 506v602h307v-645q0 -152 40 -207t150.5 -55t150.5 55t40 207v645h307v-602q0 -188 -17.5 -268t-68.5 -138q-117 -125 -412 -125q-330 0 -436 156q-37 53 -49 129t-12 246zM227 1239l244 299h365l243 -299h-286l-140 178l-139 -178h-287z" />
<glyph unicode="&#xf7fc;" horiz-adv-x="1306" d="M156 506v602h307v-645q0 -152 40 -207t150.5 -55t150.5 55t40 207v645h307v-602q0 -188 -17.5 -268t-68.5 -138q-117 -125 -412 -125q-330 0 -436 156q-37 53 -49 129t-12 246zM258 1391q0 72 48 118.5t120 46.5q74 0 121 -47t47 -120.5t-47 -120.5t-121 -47t-121 47 t-47 123zM713 1391q0 72 48 118.5t120 46.5q74 0 121 -47t47 -120.5t-47.5 -120.5t-121 -47t-120.5 47t-47 123z" />
<glyph unicode="&#xf7fd;" horiz-adv-x="1193" d="M-25 1108h357l196 -295l76 -117q33 57 82 129l193 283h340l-465 -666v-442h-310v442zM426 1239l246 299h368l-329 -299h-285z" />
<glyph unicode="&#xf7fe;" horiz-adv-x="1114" d="M164 0v1108h295v-176h84q158 0 238.5 -16.5t140.5 -59.5q131 -96 131 -295t-125 -293q-102 -76 -332 -75h-137v-193h-295zM453 408h112q94 0 131 24q57 35 58 125q0 92 -58 133q-37 27 -131 27h-112v-309z" />
<glyph unicode="&#xf7ff;" horiz-adv-x="1193" d="M-25 1108h357l196 -295l76 -117q33 57 82 129l193 283h340l-465 -666v-442h-310v442zM201 1391q0 72 48 118.5t120 46.5q74 0 121 -47t47 -120.5t-47.5 -120.5t-121 -47t-120.5 47t-47 123zM655 1391q0 72 48.5 118.5t119.5 46.5q74 0 121 -47t47 -120.5t-47 -120.5 t-120.5 -47t-121 47t-47.5 123z" />
<glyph horiz-adv-x="1503" d="M94 692q0 412 264 611q178 139 482 139q264 0 495 -96l-108 -250q-193 96 -367 96q-211 0 -323.5 -126t-112.5 -361q0 -219 112.5 -349.5t305.5 -130.5q98 0 184 33v285h-244v250h553v-723q-164 -57 -266 -76t-240 -19q-358 0 -542 187q-193 192 -193 530zM602 1554 l246 299h369l-330 -299h-285z" />
<glyph horiz-adv-x="1038" d="M41 1151l453 266h274v-1417h-309v1085l-275 -172z" />
<glyph horiz-adv-x="1175" d="M12 0v240q299 252 451 397q150 143 203 221t53 156q0 80 -65.5 129t-170.5 49q-150 0 -379 -96l-79 247q250 98 495 99q248 0 383 -107.5t135 -306.5q0 -168 -114.5 -321.5t-464.5 -456.5h592v-250h-1039z" />
<glyph horiz-adv-x="1198" d="M35 55l69 248q172 -80 371 -80q137 0 211 50.5t74 146.5q0 115 -109 162q-76 35 -233 34q-61 0 -160 -4v234q41 -2 94 -2q207 0 300 43t93 137q0 82 -63.5 125t-181.5 43q-147 0 -353 -76l-67 246q227 80 467 80q254 0 386 -100.5t132 -290.5q0 -276 -293 -322 q307 -45 307 -323q0 -209 -153 -326q-141 -106 -418 -107q-262 0 -473 82z" />
<glyph horiz-adv-x="1280" d="M37 322v249l614 846h375v-866h191v-229h-191v-322h-309v322h-680zM332 551h393v567z" />
<glyph horiz-adv-x="1241" d="M94 57l80 250q184 -82 356 -82q164 0 238 80q61 66 61 162q0 223 -340 223q-119 0 -315 -37l29 764h897v-250h-596l-8 -245q57 6 118 6q264 0 399.5 -117t135.5 -346q0 -236 -143 -363q-141 -127 -428 -127q-273 0 -484 82z" />
<glyph horiz-adv-x="1241" d="M96 580q0 221 62.5 403t175.5 289q176 170 487 170q121 0 260 -25l-30 -262q-125 37 -226 37q-170 0 -271 -98.5t-116 -276.5q133 125 312 125q203 0 316.5 -120t113.5 -337q0 -242 -142.5 -376t-396.5 -134q-268 0 -406.5 153t-138.5 452zM416 463q0 -115 60.5 -180.5 t166.5 -65.5q102 0 160.5 67.5t58.5 184.5q0 109 -55 169t-156 60q-106 0 -170.5 -64.5t-64.5 -170.5z" />
<glyph horiz-adv-x="1017" d="M16 1167v250h957v-235l-565 -1182h-345l566 1167h-613z" />
<glyph horiz-adv-x="1280" d="M88 401q0 127 61.5 207t198.5 135q-121 59 -175 132t-54 178q0 180 140 284.5t382 104.5q240 0 380 -104.5t140 -284.5q0 -106 -52 -177t-177 -133q137 -55 198.5 -135t61.5 -207q0 -201 -145.5 -313.5t-405.5 -112.5q-262 0 -407.5 112.5t-145.5 313.5zM408 397 q0 -84 63.5 -134t169.5 -50q104 0 167.5 50t63.5 134q0 166 -243 228q-221 -62 -221 -228zM432 1053q0 -145 209 -201l16 4q84 20 137.5 73.5t53.5 119.5q0 74 -55.5 114.5t-151.5 40.5t-152.5 -40.5t-56.5 -110.5z" />
<glyph horiz-adv-x="1241" d="M61 932q0 242 142.5 376t396.5 134q268 0 406.5 -152.5t138.5 -451.5q0 -221 -62.5 -403.5t-175.5 -289.5q-176 -170 -487 -170q-121 0 -260 25l30 262q125 -37 226 -37q170 0 271 98.5t116 276.5q-133 -125 -311 -125q-203 0 -317 120t-114 337zM379 948q0 -109 55 -169 t156 -60q106 0 170.5 64.5t64.5 170.5q0 115 -60 180.5t-167 65.5q-102 0 -160.5 -67.5t-58.5 -184.5z" />
<glyph d="M94 717q0 725 553 725q334 0 467 -260q86 -164 86 -473q0 -360 -121 -531q-143 -203 -432 -203q-332 0 -467 261q-86 166 -86 481zM414 715q0 -254 56 -372t177 -118t177.5 118t56.5 365.5t-56.5 365.5t-177.5 118q-119 0 -176 -116.5t-57 -360.5z" />
<glyph horiz-adv-x="1230" d="M59 0v244h177q33 76 32 288v91h-188v219h188v69q0 170 21.5 251t83.5 143q131 131 391 131q184 0 414 -86l-80 -246q-184 80 -301 80q-115 0 -165 -66.5t-50 -222.5v-53h325v-219h-325v-91q0 -188 -27 -288h602v-244h-1098z" />
<glyph horiz-adv-x="1355" d="M109 66l49 266q197 -109 430 -109v369q-197 59 -281 104q-190 104 -190 324q0 135 63.5 232.5t179.5 144.5q86 35 244 43v176h139v-176q193 -8 408 -74l-59 -256q-158 66 -349 80v-340q236 -59 330 -115q162 -98 162 -321q0 -201 -124 -307.5t-384 -126.5v-183h-139v178 q-276 3 -479 91zM438 1040q0 -63 36 -96t130 -59v301q-166 -17 -166 -146zM727 227q96 8 141 47t45 117q0 68 -37.5 101.5t-148.5 62.5v-328z" />
<glyph horiz-adv-x="1101" d="M98 866q0 336 230 480q98 59 299 69v191h143v-191q150 -12 268 -53l-59 -234q-104 45 -209 58v-621q104 4 223 70l45 -236q-117 -51 -268 -61v-184h-143v180q-529 26 -529 532zM418 872q0 -141 50 -213.5t159 -89.5v617q-86 -14 -129 -60q-80 -84 -80 -254z" />
<glyph horiz-adv-x="1069" d="M-150 -193l60 232q96 -41 166 -41q74 0 112.5 67.5t75.5 260.5l55 288h-178v220h219l27 131q29 156 54.5 228.5t68.5 123.5q102 121 301 121q125 0 285 -56l-66 -223q-96 35 -160 35q-76 0 -110.5 -55.5t-67.5 -229.5l-14 -75h260v-220h-303l-64 -338 q-39 -197 -68.5 -279.5t-80.5 -135.5q-100 -106 -289 -107q-148 0 -283 53z" />
<glyph horiz-adv-x="1300" d="M16 481l54 150h139q-2 20 -2 51q0 43 2 72h-193l54 147h157q53 260 218 400.5t415 140.5q248 0 432 -92l-84 -236q-158 86 -305 86q-299 0 -362 -299h592l-52 -147h-553l-2 -19v-28q0 -31 6 -76h506l-53 -150h-424q45 -139 131 -201.5t236 -62.5q152 0 299 80l65 -244 q-182 -78 -415 -78q-260 0 -429 132.5t-221 373.5h-211z" />
<glyph horiz-adv-x="1261" d="M-16 1417h362l291 -528l289 528h352l-373 -618h260v-152h-350l-29 -45v-84h375v-151h-375v-367h-311v367h-379v151h379v84l-29 45h-354v152h264z" />
<glyph horiz-adv-x="1859" d="M100 1266l277 151h186v-778h-215v575l-168 -98zM508 -33l563 1483h199l-563 -1483h-199zM1116 627l277 151h186v-778h-215v575l-168 -98z" />
<glyph horiz-adv-x="1859" d="M92 1266l277 151h186v-778h-215v575l-168 -98zM467 -33l561 1483h199l-563 -1483h-197zM1022 41l61 166q131 -49 234 -49q76 0 118 26.5t42 73.5q0 94 -191 94q-90 0 -211 -18l19 444h573v-172h-367l-4 -114q57 8 99 8q150 0 228.5 -62.5t78.5 -179.5q0 -270 -356 -270 q-177 0 -324 53z" />
<glyph horiz-adv-x="1859" d="M115 1368q141 61 297 62q152 0 232.5 -60.5t80.5 -175.5q0 -70 -28.5 -124t-98.5 -120q-84 -76 -176 -143h309v-168h-606v168q96 57 227 164q150 121 150 203q0 86 -121 86q-78 0 -229 -62zM555 -33l561 1483h199l-563 -1483h-197zM1094 41l61 166q131 -49 234 -49 q76 0 117.5 26.5t41.5 73.5q0 94 -190 94q-92 0 -211 -18l18 444h574v-172h-367l-4 -114q57 8 98 8q150 0 229 -62.5t79 -179.5q0 -270 -357 -270q-176 0 -323 53z" />
<glyph horiz-adv-x="1859" d="M102 672l35 170q127 -49 244 -49q127 0 127 84q0 88 -166 88q-37 0 -78 -2v141q35 -2 78 -2q162 0 162 84q0 78 -142 78q-86 0 -196 -35l-29 164q145 37 277 37q317 0 317 -216q0 -70 -36 -110.5t-115 -63.5q90 -23 126.5 -63.5t36.5 -116.5q0 -233 -340 -233 q-160 0 -301 45zM549 -33l563 1483h199l-563 -1483h-199zM1092 41l61 166q131 -49 233 -49q76 0 118 26.5t42 73.5q0 94 -190 94q-90 0 -211 -18l18 444h574v-172h-367l-4 -114q57 8 98 8q150 0 229 -62.5t79 -179.5q0 -270 -357 -270q-176 0 -323 53z" />
<glyph horiz-adv-x="1859" d="M51 799v155l324 463h289v-469h108v-149h-108v-160h-205v160h-408zM229 948h240v348zM549 -33l563 1483h199l-563 -1483h-199zM1092 41l61 166q131 -49 233 -49q76 0 118 26.5t42 73.5q0 94 -190 94q-90 0 -211 -18l18 444h574v-172h-367l-4 -114q57 8 98 8 q150 0 229 -62.5t79 -179.5q0 -270 -357 -270q-176 0 -323 53z" />
<glyph horiz-adv-x="1859" d="M92 1266l277 151h186v-778h-215v575l-168 -98zM473 -33l563 1483h197l-563 -1483h-197zM1032 332q0 260 154 381q102 78 282 78q78 0 201 -19l-24 -162q-84 20 -154 21q-90 0 -140.5 -39t-76.5 -129q76 57 178 57q127 0 199.5 -66.5t72.5 -179.5q0 -133 -92 -209.5 t-254 -76.5q-170 0 -258 88t-88 256zM1257 258q0 -109 125 -108q123 0 123 108q0 106 -123 107q-125 -1 -125 -107z" />
<glyph horiz-adv-x="1859" d="M76 680l61 166q131 -49 234 -49q76 0 117.5 26.5t41.5 73.5q0 94 -190 94q-90 0 -211 -18l18 444h574v-172h-367l-4 -115q57 8 99 9q150 0 228.5 -62.5t78.5 -179.5q0 -270 -357 -270q-178 0 -323 53zM559 -33l563 1483h197l-561 -1483h-199zM1087 332q0 258 152 381 q104 78 285 78q78 0 200 -19l-26 -162q-84 20 -152 21q-90 0 -139 -39t-78 -129q76 57 178 57q127 0 200 -66.5t73 -179.5q0 -133 -92.5 -209.5t-253.5 -76.5q-170 0 -258.5 88t-88.5 256zM1313 258q0 -109 125 -108q123 0 123 108q0 106 -123 107q-125 -1 -125 -107z" />
<glyph horiz-adv-x="1024" d="M336 1710q0 76 50 125t126 49q78 0 127 -49t49 -127t-49 -127t-127 -49t-127 50t-49 128z" />
<glyph horiz-adv-x="1024" d="M246 1626q0 111 75.5 184.5t190.5 73.5q117 0 191.5 -72.5t74.5 -187.5t-74.5 -188.5t-191.5 -73.5t-191.5 73.5t-74.5 190.5zM403 1622q0 -117 109 -117q51 0 80 32t29 85q0 55 -29 87t-80 32t-80 -32t-29 -87z" />
<glyph horiz-adv-x="1024" d="M86 1554l244 299h364l244 -299h-287l-139 177l-139 -177h-287z" />
<glyph horiz-adv-x="1024" d="M143 1870h168q6 -78 48 -106.5t153 -28.5q109 0 151 28.5t48 106.5h168q0 -147 -52 -215q-84 -115 -315 -115t-317 115q-52 68 -52 215z" />
<glyph horiz-adv-x="1024" d="M102 1563q8 129 66.5 205.5t150.5 76.5q63 0 205 -45q115 -39 154 -39q37 0 53.5 17.5t22.5 64.5h168q-16 -285 -226 -284q-43 0 -76.5 8t-195.5 59q-55 16 -80 16q-57 0 -72 -79h-170z" />
<glyph horiz-adv-x="1024" d="M225 -379l240 313h340l-297 -313h-283z" />
<glyph horiz-adv-x="1024" d="M217 -254q0 147 258 254h197q-125 -70 -169 -114t-44 -97q0 -47 35.5 -73.5t101.5 -26.5q35 0 76 8l10 -137q-92 -12 -168 -13q-137 0 -217 53.5t-80 145.5z" />
<glyph horiz-adv-x="1024" d="M225 -379l240 313h340l-297 -313h-283z" />
<glyph horiz-adv-x="1994" d="M90 47l49 248q176 -94 332 -94q68 0 105.5 27.5t37.5 76.5q0 37 -36.5 63.5t-155.5 73.5q-160 63 -219 105q-104 74 -105 217q0 190 142 293q100 76 284 76q190 0 379 -70l-67 -238q-188 82 -301 82q-55 0 -87 -23.5t-32 -64.5q0 -47 69 -82q39 -20 236 -98 q115 -47 165 -115.5t50 -179.5q0 -180 -111.5 -274.5t-326.5 -94.5t-408 72zM1063 47l49 248q176 -94 332 -94q68 0 105.5 27.5t37.5 76.5q0 37 -37 63.5t-155 73.5q-160 63 -219 105q-104 74 -105 217q0 190 141 293q100 76 285 76q190 0 379 -70l-68 -238q-188 82 -301 82 q-55 0 -86.5 -23.5t-31.5 -64.5q0 -47 69 -82q39 -20 236 -98q115 -47 165 -115.5t50 -179.5q0 -180 -111.5 -274.5t-326.5 -94.5t-408 72z" />
<glyph horiz-adv-x="634" d="M164 0v1108h307v-1108h-307z" />
<glyph horiz-adv-x="782" d="M0 12l29 244q76 -49 153.5 -49t105 42t27.5 163v696h308v-655q0 -178 -14.5 -250t-61.5 -125q-90 -102 -301 -103q-142 0 -246 37z" />
<glyph horiz-adv-x="1660" d="M164 0v1108h780v-234h-475v-219h453v-233h-453v-422h-305zM1190 0v1108h307v-1108h-307z" />
<glyph horiz-adv-x="1996" d="M164 0v1108h780v-234h-475v-219h453v-233h-453v-422h-305zM1190 0v1108h307v-868h496v-240h-803z" />
<glyph horiz-adv-x="1263" d="M8 0l451 1108h327l469 -1108h-327l-88 229h-437l-88 -229h-307zM205 1538h287l141 -176l137 176h287l-242 -299h-366zM479 449h287l-143 413z" />
<glyph horiz-adv-x="1263" d="M8 0l451 1108h327l469 -1108h-327l-88 229h-437l-88 -229h-307zM264 1538h168q6 -78 48 -106.5t151 -28.5q111 0 152.5 28.5t47.5 106.5h168q0 -147 -51 -215q-86 -115 -317.5 -115t-315.5 115q-51 68 -51 215zM479 449h287l-143 413z" />
<glyph horiz-adv-x="1263" d="M8 0l451 1108h327l469 -1108q-125 -70 -169 -114t-44 -97q0 -47 36 -73.5t102 -26.5q35 0 75 8l11 -137q-92 -12 -168 -13q-137 0 -217 53.5t-80 145.5q0 147 258 254h-131l-88 229h-437l-88 -229h-307zM479 449h287l-143 413z" />
<glyph horiz-adv-x="1103" d="M90 545q0 279 150.5 433.5t423.5 154.5q229 0 403 -99l-113 -217q-127 90 -256 90q-133 0 -210.5 -94t-77.5 -258q0 -162 80.5 -258t218.5 -96q143 0 272 106l96 -229q-156 -102 -403 -103q-281 0 -432.5 148t-151.5 422zM477 1239l246 299h369l-328 -299h-287z" />
<glyph horiz-adv-x="1103" d="M90 545q0 279 150.5 433.5t423.5 154.5q229 0 403 -99l-113 -217q-127 90 -256 90q-133 0 -210.5 -94t-77.5 -258q0 -162 80.5 -258t218.5 -96q143 0 272 106l96 -229q-156 -102 -403 -103q-281 0 -432.5 148t-151.5 422zM244 1538h286l140 -176l137 176h289l-244 -299 h-365z" />
<glyph horiz-adv-x="1103" d="M90 545q0 279 150.5 433.5t423.5 154.5q229 0 403 -99l-113 -217q-127 90 -256 90q-133 0 -210.5 -94t-77.5 -258q0 -162 80.5 -258t218.5 -96q143 0 272 106l96 -229q-156 -102 -403 -103q-281 0 -432.5 148t-151.5 422zM514 1391q0 72 48 118.5t120 46.5q74 0 121 -47 t47 -120.5t-47 -120.5t-121 -47t-121 47t-47 123z" />
<glyph horiz-adv-x="1417" d="M164 0v1108h350q193 0 305.5 -29.5t192.5 -99.5q160 -139 159 -424q0 -348 -221 -473q-78 -45 -178 -63.5t-274 -18.5h-334zM469 225h37q156 0 229 54q117 82 117 282q0 178 -84 258q-39 37 -93 50.5t-163 13.5h-43v-658zM1165 918l178 579h299l-229 -579h-248z" />
<glyph horiz-adv-x="1314" d="M41 469v180h176v459h352q190 0 303 -29.5t193 -99.5q160 -139 160 -424q0 -348 -219 -473q-80 -45 -179.5 -63.5t-275.5 -18.5h-334v469h-176zM522 225h37q156 0 229 54q117 82 117 282q0 178 -84 258q-39 37 -93 50.5t-163 13.5h-43v-234h211v-180h-211v-244z" />
<glyph horiz-adv-x="1067" d="M127 1538h287l139 -176l139 176h287l-244 -299h-364zM164 0v1108h776v-234h-469v-200h447v-234h-447v-207h496v-233h-803z" />
<glyph horiz-adv-x="1067" d="M164 0v1108h776v-234h-469v-200h447v-234h-447v-207h496v-233h-803zM416 1391q0 72 48 118.5t120 46.5q74 0 121 -47t47 -120.5t-47.5 -120.5t-121 -47t-120.5 47t-47 123z" />
<glyph horiz-adv-x="1067" d="M164 0v1108h776v-234h-469v-200h447v-234h-447v-207h496v-233q-127 -72 -170 -115t-43 -96q0 -100 139 -100q33 0 74 8l10 -137q-92 -12 -166 -13q-139 0 -219 53.5t-80 145.5q0 147 260 254h-608z" />
<glyph d="M90 541q0 283 158 437.5t446 154.5q233 0 436 -105l-108 -221q-129 100 -295 100q-150 0 -234.5 -95t-84.5 -261q0 -156 85 -253t220 -97q57 0 118 26v197h-204v219h499v-588q-137 -47 -223 -63.5t-203 -16.5q-299 0 -454.5 143.5t-155.5 422.5zM268 1538h287l141 -176 l135 176h289l-241 -299h-367z" />
<glyph d="M90 541q0 283 158 437.5t446 154.5q233 0 436 -105l-108 -221q-129 100 -295 100q-150 0 -234.5 -95t-84.5 -261q0 -156 85 -253t220 -97q57 0 118 26v197h-204v219h499v-588q-137 -47 -223 -63.5t-203 -16.5q-299 0 -454.5 143.5t-155.5 422.5zM299 1538h168 q6 -78 48 -106.5t153 -28.5q109 0 151.5 28.5t48.5 106.5h168q-2 -147 -53 -215q-84 -115 -315.5 -115t-317.5 115q-51 72 -51 215z" />
<glyph d="M90 541q0 283 158 437.5t446 154.5q233 0 436 -105l-108 -221q-129 100 -295 100q-150 0 -234.5 -95t-84.5 -261q0 -156 85 -253t220 -97q57 0 118 26v197h-204v219h499v-588q-137 -47 -223 -63.5t-203 -16.5q-299 0 -454.5 143.5t-155.5 422.5zM514 1391q0 72 48 118.5 t120 46.5q74 0 121 -47t47 -120.5t-47 -120.5t-121 -47t-121 47t-47 123z" />
<glyph horiz-adv-x="960" d="M164 0v1108h307v-868h485v-240h-792zM193 1239l245 299h369l-328 -299h-286z" />
<glyph horiz-adv-x="960" d="M164 0v1108h307v-868h485v-240h-792zM561 918l178 579h299l-229 -579h-248z" />
<glyph horiz-adv-x="1363" d="M164 0v1108h342l297 -481q80 -125 131 -236v717h266v-1108h-334l-293 473l-36 59q-51 82 -107 183v-715h-266zM518 1239l246 299h369l-330 -299h-285z" />
<glyph horiz-adv-x="1363" d="M164 0v1108h342l297 -481q80 -125 131 -236v717h266v-1108h-334l-293 473l-36 59q-51 82 -107 183v-715h-266zM291 1538h287l139 -176l137 176h289l-244 -299h-364z" />
<glyph horiz-adv-x="1312" d="M90 561q0 285 174 443q141 129 393 129q289 0 435 -175q131 -156 131 -403q0 -295 -174 -451q-141 -129 -394 -129q-287 0 -434 175q-131 155 -131 411zM254 1239l244 299h368l-327 -299h-285zM408 557q0 -168 66.5 -262t180.5 -94q117 0 183.5 94t66.5 258t-66.5 259 t-181 95t-182 -94t-67.5 -256zM733 1239l246 299h369l-336 -299h-279z" />
<glyph horiz-adv-x="1173" d="M164 0v1108h463q215 0 307 -61q119 -82 119 -248q0 -236 -199 -273q51 -20 73.5 -50t71.5 -134l168 -342h-321l-96 211q-57 125 -97.5 163t-115.5 38h-78v-412h-295zM389 1239l246 299h369l-330 -299h-285zM453 627h112q102 0 145.5 30.5t43.5 104.5t-41 102.5t-148 28.5 h-112v-266z" />
<glyph horiz-adv-x="1021" d="M90 47l49 248q176 -94 332 -94q68 0 105.5 27.5t37.5 76.5q0 37 -36.5 63.5t-155.5 73.5q-160 63 -219 105q-104 74 -105 217q0 190 142 293q100 76 284 76q190 0 379 -70l-67 -238q-188 82 -301 82q-55 0 -87 -23.5t-32 -64.5q0 -47 69 -82q39 -20 236 -98 q115 -47 165 -115.5t50 -179.5q0 -180 -111.5 -274.5t-326.5 -94.5t-408 72zM381 1239l246 299h368l-327 -299h-287z" />
<glyph horiz-adv-x="1021" d="M90 47l49 248q176 -94 332 -94q68 0 105.5 27.5t37.5 76.5q0 37 -36.5 63.5t-155.5 73.5q-160 63 -219 105q-104 74 -105 217q0 190 142 293q100 76 284 76q190 0 379 -70l-67 -238q-188 82 -301 82q-55 0 -87 -23.5t-32 -64.5q0 -47 69 -82q39 -20 236 -98 q115 -47 165 -115.5t50 -179.5q0 -180 -111.5 -274.5t-326.5 -94.5t-408 72zM119 1239l243 299h365l244 -299h-287l-139 178l-137 -178h-289z" />
<glyph horiz-adv-x="1021" d="M90 47l49 248q176 -94 332 -94q68 0 105.5 27.5t37.5 76.5q0 37 -36.5 63.5t-155.5 73.5q-160 63 -219 105q-104 74 -105 217q0 190 142 293q100 76 284 76q190 0 379 -70l-67 -238q-188 82 -301 82q-55 0 -87 -23.5t-32 -64.5q0 -47 69 -82q39 -20 236 -98 q115 -47 165 -115.5t50 -179.5q0 -180 -111.5 -274.5t-326.5 -94.5t-408 72zM123 -379l242 313h337l-296 -313h-283z" />
<glyph horiz-adv-x="1310" d="M8 868v240h977v-240h-338v-868h-307v868h-332zM1059 918l178 579h299l-229 -579h-248z" />
<glyph horiz-adv-x="1306" d="M156 506v602h307v-645q0 -152 40 -207t150.5 -55t150.5 55t40 207v645h307v-602q0 -188 -17.5 -268t-68.5 -138q-117 -125 -412 -125q-330 0 -436 156q-37 53 -49 129t-12 246zM418 1425q0 96 67.5 162t167.5 66q102 0 169 -65.5t67 -166t-66.5 -166t-169 -65.5 t-169 65.5t-66.5 169.5zM563 1421q0 -98 90 -98t90 98.5t-90 98.5q-41 0 -65.5 -27t-24.5 -72z" />
<glyph horiz-adv-x="1306" d="M156 506v602h307v-645q0 -152 40 -207t150.5 -55t150.5 55t40 207v645h307v-602q0 -188 -17.5 -268t-68.5 -138q-117 -125 -412 -125q-330 0 -436 156q-37 53 -49 129t-12 246zM250 1239l246 299h368l-329 -299h-285zM731 1239l244 299h368l-333 -299h-279z" />
<glyph horiz-adv-x="1050" d="M49 0v199l541 680h-520v229h913v-201l-539 -678h557v-229h-952zM362 1239l246 299h367l-328 -299h-285z" />
<glyph horiz-adv-x="1050" d="M49 0v199l541 680h-520v229h913v-201l-539 -678h557v-229h-952zM399 1391q0 72 48.5 118.5t119.5 46.5q74 0 121 -47t47 -120.5t-47 -120.5t-120.5 -47t-121 47t-47.5 123z" />
<glyph horiz-adv-x="1314" d="M10 795v159h154v154h307v-154h373v154h307v-154h152v-159h-152v-795h-307v430h-373v-430h-307v795h-154zM471 647h373v148h-373v-148z" />
<glyph horiz-adv-x="993" d="M8 868v240h977v-240h-338v-868h-307v868h-332zM100 -379l240 313h338l-297 -313h-281z" />
<glyph horiz-adv-x="1263" d="M8 0l451 1108h327l469 -1108h-327l-88 229h-437l-88 -229h-307zM258 1278v180h748v-180h-748zM479 449h287l-143 413z" />
<glyph horiz-adv-x="1193" d="M-25 1108h357l196 -295l76 -117q33 57 82 129l193 283h340l-465 -666v-442h-310v442zM170 1239l244 299h364l244 -299h-287l-139 178l-137 -178h-289z" />
<glyph horiz-adv-x="1103" d="M90 545q0 279 150.5 433.5t423.5 154.5q229 0 403 -99l-113 -217q-127 90 -256 90q-133 0 -210.5 -94t-77.5 -258q0 -162 80.5 -258t218.5 -96q143 0 272 106l96 -229q-156 -102 -403 -103q-281 0 -432.5 148t-151.5 422zM229 1239l244 299h365l243 -299h-286l-140 178 l-139 -178h-287z" />
<glyph horiz-adv-x="1067" d="M160 1278v180h747v-180h-747zM164 0v1108h776v-234h-469v-200h447v-234h-447v-207h496v-233h-803z" />
<glyph d="M90 541q0 283 158 437.5t446 154.5q233 0 436 -105l-108 -221q-129 100 -295 100q-150 0 -234.5 -95t-84.5 -261q0 -156 85 -253t220 -97q57 0 118 26v197h-204v219h499v-588q-137 -47 -223 -63.5t-203 -16.5q-299 0 -454.5 143.5t-155.5 422.5zM256 1239l242 299h366 l244 -299h-287l-141 178l-137 -178h-287z" />
<glyph horiz-adv-x="634" d="M-51 1538h168q6 -78 48 -106.5t152 -28.5q109 0 151 28.5t48 106.5h168q0 -147 -51 -215q-84 -115 -315.5 -115t-317.5 115q-51 68 -51 215zM164 0v1108h307v-1108h-307z" />
<glyph horiz-adv-x="634" d="M-55 1278v180h747v-180h-747zM164 0v1108h307v-1108h-307z" />
<glyph horiz-adv-x="782" d="M0 12l29 244q76 -49 153.5 -49t105 42t27.5 163v696h308v-655q0 -178 -14.5 -250t-61.5 -125q-90 -102 -301 -103q-142 0 -246 37zM27 1239l243 299h365l244 -299h-287l-139 178l-138 -178h-288z" />
<glyph horiz-adv-x="1251" d="M164 0v1108h307v-492l381 492h377l-424 -508l434 -600h-387l-381 563v-563h-307zM252 -379l242 313h337l-296 -313h-283z" />
<glyph horiz-adv-x="960" d="M141 -379l240 313h340l-297 -313h-283zM164 0v1108h307v-868h485v-240h-792z" />
<glyph horiz-adv-x="1363" d="M164 0v1108h342l297 -481q80 -125 131 -236v717h266v-1108h-334l-293 473l-36 59q-51 82 -107 183v-715h-266zM274 -379l240 313h338l-297 -313h-281z" />
<glyph horiz-adv-x="1312" d="M90 561q0 285 174 443q141 129 393 129q289 0 435 -175q131 -156 131 -403q0 -295 -174 -451q-141 -129 -394 -129q-287 0 -434 175q-131 155 -131 411zM283 1278v180h747v-180h-747zM408 557q0 -168 66.5 -262t180.5 -94q117 0 183.5 94t66.5 258t-66.5 259t-181 95 t-182 -94t-67.5 -256z" />
<glyph horiz-adv-x="1173" d="M164 0v1108h463q215 0 307 -61q119 -82 119 -248q0 -236 -199 -273q51 -20 73.5 -50t71.5 -134l168 -342h-321l-96 211q-57 125 -97.5 163t-115.5 38h-78v-412h-295zM233 -379l240 313h340l-297 -313h-283zM453 627h112q102 0 145.5 30.5t43.5 104.5t-41 102.5t-148 28.5 h-112v-266z" />
<glyph horiz-adv-x="1306" d="M156 506v602h307v-645q0 -152 40 -207t150.5 -55t150.5 55t40 207v645h307v-602q0 -188 -17.5 -268t-68.5 -138q-117 -125 -412 -125q-330 0 -436 156q-37 53 -49 129t-12 246zM285 1538h168q6 -78 49 -106.5t151 -28.5q111 0 153 28.5t48 106.5h168q0 -143 -51 -215 q-86 -115 -317.5 -115t-315.5 115q-51 68 -53 215z" />
<glyph horiz-adv-x="1306" d="M156 506v602h307v-645q0 -152 40 -207t150.5 -55t150.5 55t40 207v645h307v-602q0 -188 -17.5 -268t-68.5 -138q-117 -125 -412 -125q-330 0 -436 156q-37 53 -49 129t-12 246zM281 1278v180h745v-180h-745z" />
<glyph horiz-adv-x="1306" d="M156 506v602h307v-645q0 -152 40 -207t150.5 -55t150.5 55t40 207v645h307v-602q0 -182 -15.5 -259t-60.5 -134q-53 -63 -153 -101q-133 -70 -185.5 -119t-52.5 -106q0 -47 37 -72.5t102 -25.5q33 0 74 8l10 -137q-92 -12 -166 -13q-139 0 -219 53.5t-80 145.5 q0 70 48.5 123t158.5 108q-14 -2 -31 -2q-295 0 -401 154q-37 55 -49 131t-12 246z" />
<glyph horiz-adv-x="1173" d="M147 1538h287l139 -176l140 176h286l-243 -299h-365zM164 0v1108h463q215 0 307 -61q119 -82 119 -248q0 -236 -199 -273q51 -20 73.5 -50t71.5 -134l168 -342h-321l-96 211q-57 125 -97.5 163t-115.5 38h-78v-412h-295zM453 627h112q102 0 145.5 30.5t43.5 104.5 t-41 102.5t-148 28.5h-112v-266z" />
<glyph horiz-adv-x="1021" d="M90 47l49 248q176 -94 332 -94q68 0 105.5 27.5t37.5 76.5q0 37 -36.5 63.5t-155.5 73.5q-160 63 -219 105q-104 74 -105 217q0 190 142 293q100 76 284 76q190 0 379 -70l-67 -238q-188 82 -301 82q-55 0 -87 -23.5t-32 -64.5q0 -47 69 -82q39 -20 236 -98 q115 -47 165 -115.5t50 -179.5q0 -180 -111.5 -274.5t-326.5 -94.5t-408 72zM135 -379l240 313h338l-297 -313h-281z" />
<glyph d="M90 541q0 283 158 437.5t446 154.5q233 0 436 -105l-108 -221q-129 100 -295 100q-150 0 -234.5 -95t-84.5 -261q0 -156 85 -253t220 -97q57 0 118 26v197h-204v219h499v-588q-137 -47 -223 -63.5t-203 -16.5q-299 0 -454.5 143.5t-155.5 422.5zM469 1204l297 314h283 l-240 -314h-340z" />
<glyph horiz-adv-x="851" d="M10 920l387 200h267v-1120h-308v797l-213 -119z" />
<glyph horiz-adv-x="995" d="M25 0v219q193 150 358 299q113 102 154 158.5t41 107.5q0 123 -146 123q-135 0 -321 -94l-84 217q231 102 448 103q205 0 312.5 -88.5t107.5 -256.5q0 -137 -80 -240.5t-348 -314.5h438v-233h-880z" />
<glyph horiz-adv-x="1040" d="M25 49l75 223q164 -72 336 -71q184 0 185 133q0 72 -58.5 98.5t-216.5 26.5q-41 0 -125 -2v223q43 -2 96 -2q160 0 225.5 28.5t65.5 100.5q0 100 -166 100q-125 0 -307 -67l-69 213q225 80 430 80q430 0 430 -322q0 -92 -38 -147.5t-128 -92.5q178 -66 178 -245 q0 -350 -489 -351q-234 0 -424 74z" />
<glyph horiz-adv-x="1069" d="M16 240v225l510 643h361v-655h160v-213h-160v-240h-301v240h-570zM295 453h301v395z" />
<glyph horiz-adv-x="1062" d="M45 51l86 232q180 -82 315 -82q100 0 154.5 41t54.5 116q0 68 -55 97.5t-182 29.5q-123 0 -297 -34l24 657h783v-234h-490l-4 -169q53 6 96 6q227 0 335 -83t108 -257q0 -195 -121 -297q-121 -98 -369 -99q-250 0 -438 76z" />
<glyph horiz-adv-x="1124" d="M94 459q0 324 158 499t448 175q123 0 275 -33l-33 -219q-104 27 -201 26q-240 0 -315 -237q111 70 238 69q186 0 283 -91t97 -265q0 -197 -121.5 -302.5t-349.5 -105.5q-242 0 -360.5 120t-118.5 364zM401 362q0 -82 45.5 -127t126.5 -45q80 0 125 45.5t45 125t-45 124.5 t-124.5 45t-126 -45t-46.5 -123z" />
<glyph horiz-adv-x="970" d="M16 874v234h916v-217l-526 -891h-367l543 874h-566z" />
<glyph horiz-adv-x="1120" d="M74 313q0 170 192 269q-90 45 -129 99t-39 138q0 152 118 233t339 81q227 0 347 -81t120 -233q0 -84 -39 -138t-129 -99q102 -53 147.5 -117t45.5 -152q0 -162 -127 -250t-359 -88q-233 0 -360 88t-127 250zM381 317q0 -57 48 -92t130 -35t131 35t49 92.5t-55 102.5 t-149 61q-72 -16 -113 -60.5t-41 -103.5zM397 809q0 -49 52.5 -88t142.5 -62l10 5q55 20 88 59t33 84q0 113 -164 113q-76 0 -119 -30t-43 -81z" />
<glyph horiz-adv-x="1124" d="M80 725q0 197 122 302.5t349 105.5q242 0 360.5 -120t118.5 -364q0 -324 -157.5 -499t-448.5 -175q-123 0 -274 33l32 219q104 -27 201 -26q240 0 315 237q-111 -70 -237 -69q-186 0 -283.5 91t-97.5 265zM381 747.5q0 -79.5 45 -124.5t127 -45q78 0 124 45t46 122 q0 82 -45 127.5t-127 45.5q-80 0 -125 -45.5t-45 -125z" />
<glyph horiz-adv-x="1163" d="M94 561q0 571 488 572q248 0 367.5 -142.5t119.5 -437.5q0 -293 -120 -435.5t-365 -142.5q-250 0 -370 143.5t-120 442.5zM412 557q0 -356 170 -356t170 352q0 354 -170 354t-170 -350z" />
<glyph horiz-adv-x="1101" d="M59 0v229h154q20 53 20 189v53h-157v209h157v27q0 137 19.5 207.5t73.5 121.5q98 92 317 92q207 0 408 -84l-82 -215q-162 74 -264 74q-88 0 -127 -49t-39 -162v-12h280v-209h-280v-53q0 -115 -13 -189h502v-229h-969z" />
<glyph horiz-adv-x="1064" d="M117 47l47 248q180 -94 334 -94q68 0 105.5 27.5t37.5 76.5q0 37 -37 63.5t-158 73.5q-170 70 -219 105q-104 74 -104 217q0 115 55 203t154 129q61 27 143 34v179h139v-179q168 -12 316 -67l-68 -238q-193 82 -303 82q-55 0 -87 -23.5t-32 -64.5q0 -47 70 -82 q39 -20 235 -98q117 -47 167.5 -115.5t50.5 -179.5q0 -160 -90.5 -254t-258.5 -110v-181h-139v176q-196 9 -358 72z" />
<glyph horiz-adv-x="983" d="M119 680q0 186 96 300t270 134v195h140v-191q131 -6 254 -61l-84 -201q-80 57 -166 57q-94 0 -147.5 -60t-53.5 -167q0 -100 52 -153.5t149 -53.5q94 0 166 56l84 -205q-115 -55 -254 -58v-192h-140v196q-366 50 -366 404z" />
<glyph horiz-adv-x="1024" d="M-63 -135l57 213q94 -37 151 -37q55 0 78 40t43 173l35 211h-154v209h187l12 80q33 197 78 266q76 113 268 113q135 0 293 -58l-67 -203q-82 35 -146 35q-51 0 -73.5 -36.5t-41.5 -149.5l-8 -47h219v-209h-252l-36 -238q-27 -162 -47.5 -227.5t-61.5 -105.5 q-80 -82 -248 -82q-165 0 -286 53z" />
<glyph horiz-adv-x="1187" d="M12 371l54 131h114v28q0 23 2 62h-170l54 131h135q113 410 557 410q221 0 389 -80l-88 -217q-143 72 -266 71q-207 0 -275 -184h496l-53 -131h-459q-4 -29 -4 -55q0 -18 2 -35h426l-54 -131h-342q23 -88 89.5 -129t189.5 -41q137 0 270 69l68 -221q-147 -74 -381 -74 q-242 0 -378 94.5t-191 301.5h-185z" />
<glyph horiz-adv-x="1187" d="M0 1108h377l225 -363l223 363h365l-309 -461h184v-131h-272l-41 -59v-31h313v-131h-313v-295h-312v295h-319v131h319v31l-41 59h-278v131h190z" />
<glyph horiz-adv-x="1701" d="M57 811q0 152 85 237t241 85q158 0 242 -85t84 -241t-84 -241t-242 -85t-242 85t-84 245zM276 809q0 -76 29 -120t78 -44t77.5 43t28.5 119t-28.5 119t-77.5 43t-78 -43t-29 -117zM485 -25l535 1158h197l-535 -1158h-197zM993 305q0 152 85 237t241 85t241 -84t85 -242 q0 -156 -85 -241t-241 -85q-158 0 -242 85t-84 245zM1212 303q0 -76 29 -120t78 -44t77.5 43t28.5 119t-28.5 119t-77.5 43t-78 -43t-29 -117z" />
<glyph horiz-adv-x="2437" d="M57 811q0 152 85 237t241 85q158 0 242 -85t84 -241t-84 -241t-242 -85t-242 85t-84 245zM276 809q0 -76 29 -120t78 -44t77.5 43t28.5 119t-28.5 119t-77.5 43t-78 -43t-29 -117zM485 -25l535 1158h197l-535 -1158h-197zM993 305q0 152 85 237t241 85t241 -84t85 -242 q0 -156 -85 -241t-241 -85q-158 0 -242 85t-84 245zM1212 303q0 -76 29 -120t78 -44t77.5 43t28.5 119t-28.5 119t-77.5 43t-78 -43t-29 -117zM1729 305q0 152 84.5 237t240.5 85q158 0 242 -84t84 -242q0 -156 -85 -241t-241 -85q-158 0 -241.5 85t-83.5 245zM1948 303 q0 -76 28.5 -120t77.5 -44t78 43t29 119t-29 119t-78 43t-77.5 -43t-28.5 -117z" />
<glyph horiz-adv-x="1024" d="M172 -379l240 313h340l-297 -313h-283z" />
</font>
</defs>
</svg>
