<?xml version="1.0" standalone="no"?>
<!DOCTYPE svg PUBLIC "-//W3C//DTD SVG 1.1//EN" "http://www.w3.org/Graphics/SVG/1.1/DTD/svg11.dtd" >
<svg xmlns="http://www.w3.org/2000/svg">
<metadata>
This is a custom SVG webfont generated by Font Squirrel.
Copyright   : Design 200107 by Hans Jurg Hunziker
Foundry URL : wwwurwppde
</metadata>
<defs>
<font id="SiemensSlabRegular" horiz-adv-x="1024" >
<font-face units-per-em="2048" ascent="1638" descent="-410" />
<missing-glyph horiz-adv-x="512" />
<glyph unicode="&#xfb01;" horiz-adv-x="1226" d="M66 913v125h167v99q0 182 52 266q68 115 235 115q66 0 148 -21l-15 -135q-55 31 -118 31q-82 0 -114 -59.5t-32 -209.5v-86h326q121 0 305 11v-932l149 -6v-111h-454v111l149 6v796h-475v-796l150 -6v-111h-465v111l159 6v796h-167zM831 1409q0 47 32 78t79 31 q49 0 80 -31t31 -80t-31 -80t-80 -31t-80 31t-31 82z" />
<glyph unicode="&#xfb02;" horiz-adv-x="1214" d="M66 913v125h167v58q0 229 88.5 325.5t296.5 96.5q174 0 390 -35v-1366l149 -6v-111h-455v111l150 6v1241q-137 35 -238 35q-129 0 -177 -66.5t-48 -243.5v-45h207v-125h-207v-796l150 -6v-111h-465v111l159 6v796h-167z" />
<glyph unicode=" "  horiz-adv-x="512" />
<glyph unicode="&#x09;" horiz-adv-x="512" />
<glyph unicode="&#xa0;" horiz-adv-x="512" />
<glyph unicode="!" horiz-adv-x="634" d="M238 102q0 51 34.5 85t86 34t86 -34.5t34.5 -86t-34.5 -86t-86.5 -34.5q-53 0 -86.5 34.5t-33.5 87.5zM274 1417h168l-18 -1042h-131z" />
<glyph unicode="&#x22;" horiz-adv-x="663" d="M102 1493h164l-10 -459h-143zM397 1497h164l-10 -459h-143z" />
<glyph unicode="#" horiz-adv-x="1179" d="M111 424v119h200l47 334h-182v118h199l59 422h123l-59 -422h262l59 422h123l-59 -422h184v-118h-201l-47 -334h182v-119h-198l-60 -424h-122l59 424h-262l-60 -424h-122l59 424h-184zM434 543h262l47 334h-262z" />
<glyph unicode="$" horiz-adv-x="1179" d="M141 1044q0 170 103.5 272.5t287.5 117.5v151h103v-147q156 -6 354 -82v-299h-145l-17 176q-76 61 -192 72v-523q174 -68 235 -106q156 -96 156 -289q0 -172 -104.5 -276.5t-298.5 -128.5v-156h-103v154q-80 0 -190.5 24.5t-186.5 56.5v299h146l16 -186q100 -59 215 -63 v534q-180 74 -252 129q-127 100 -127 270zM307 1073q0 -86 50.5 -142.5t174.5 -111.5v486q-109 -14 -167 -74t-58 -158zM623 113q104 12 170.5 81.5t66.5 170.5q0 82 -43 129t-164 100l-30 12v-493z" />
<glyph unicode="%" horiz-adv-x="1544" d="M76 1032q0 203 70.5 300.5t218 97.5t217 -97.5t69.5 -304.5t-69.5 -304t-219.5 -97q-147 0 -216.5 98t-69.5 307zM203 1032q0 -311 162 -311q160 0 159.5 307t-159.5 307q-162 0 -162 -303zM434 -41l559 1499h121l-559 -1499h-121zM893 393q0 203 70.5 300.5t218 97.5 t217 -97.5t69.5 -304.5t-69.5 -304t-218.5 -97q-147 0 -217 98t-70 307zM1020 393q0 -311 162 -311q160 0 159.5 307t-159.5 307q-162 0 -162 -303z" />
<glyph unicode="&#x26;" horiz-adv-x="1390" d="M131 360q0 190 145 308q59 49 168 100q-94 109 -133 187.5t-39 162.5q0 143 100.5 231.5t264.5 88.5q170 0 268.5 -83t98.5 -229q0 -182 -162 -290q-49 -35 -180 -93l333 -389q96 125 127 328l-118 6v111h405v-111l-137 -6q-18 -131 -58 -229.5t-120 -208.5l108 -127 l172 -6v-111h-270l-109 135q-96 -84 -193 -119.5t-227 -35.5q-203 0 -323.5 103t-120.5 277zM305 377q0 -121 79 -191.5t212 -70.5q178 0 303 125l-381 440q-113 -63 -163 -134t-50 -169zM436 1118q0 -123 150 -280l26 12q121 55 174.5 114.5t53.5 141.5q0 94 -53.5 146.5 t-149.5 52.5q-92 0 -146.5 -51.5t-54.5 -135.5z" />
<glyph unicode="'" horiz-adv-x="368" d="M102 1497h164l-10 -459h-143z" />
<glyph unicode="(" horiz-adv-x="737" d="M154 622.5q0 266.5 114.5 517.5t313.5 423l77 -86q-158 -152 -250 -383.5t-92 -471t92.5 -469t249.5 -384.5l-77 -86q-199 170 -313.5 421.5t-114.5 518z" />
<glyph unicode=")" horiz-adv-x="737" d="M78 -231q158 152 250 383t92 470.5t-92 469t-250 385.5l78 86q199 -170 313.5 -422t114.5 -518.5t-115 -517t-313 -422.5z" />
<glyph unicode="*" horiz-adv-x="1179" d="M201 1155l49 152l285 -117l-25 307h160l-27 -307l287 117l49 -152l-295 -72l190 -221l-129 -94l-155 252l-156 -252l-129 94l191 221z" />
<glyph unicode="+" horiz-adv-x="1179" d="M72 457v123h456v458h123v-458h457v-123h-457v-457h-123v457h-456z" />
<glyph unicode="," horiz-adv-x="589" d="M94 -250l142 459h196l-176 -459h-162z" />
<glyph unicode="-" horiz-adv-x="636" d="M82 510v125h473v-125h-473z" />
<glyph unicode="." horiz-adv-x="589" d="M174 102q0 51 35 85t86 34q53 0 87 -34.5t34 -86t-34 -86t-87 -34.5t-87 34.5t-34 87.5z" />
<glyph unicode="/" horiz-adv-x="544" d="M61 -41l287 1499h135l-286 -1499h-136z" />
<glyph unicode="0" horiz-adv-x="1179" d="M102 715q0 723 487.5 723t487.5 -729t-487 -729q-248 0 -368 181t-120 554zM268 715q0 -315 74 -449q80 -152 248 -151q193 0 270 198q51 129 51 396q0 307 -73 442q-82 152 -248 152q-193 0 -271 -199q-51 -135 -51 -389z" />
<glyph unicode="1" horiz-adv-x="1179" d="M217 1180l375 237h141v-1300l180 -6v-111h-518v111l180 6v1122l-288 -184z" />
<glyph unicode="2" horiz-adv-x="1179" d="M131 0v143q406 365 561.5 564.5t155.5 355.5q0 109 -84 176.5t-221 67.5q-162 0 -330 -107l-41 141q199 96 389 97q211 0 332 -97.5t121 -267.5q0 -137 -77 -273t-269 -337q-160 -172 -340 -328h698v-135h-895z" />
<glyph unicode="3" horiz-adv-x="1179" d="M125 45l37 131q184 -66 332 -65q158 0 251 79.5t93 215.5q0 279 -447 278q-47 0 -80 -4v135q33 -4 86 -4q195 0 308.5 73.5t113.5 198.5q0 104 -77.5 164t-213.5 60q-147 0 -325 -70l-31 133q184 68 371 68q205 0 323.5 -91.5t118.5 -246.5q0 -139 -82 -229.5 t-235 -120.5q162 -16 249 -106.5t87 -242.5q0 -190 -137.5 -305.5t-364.5 -115.5q-180 -1 -377 65z" />
<glyph unicode="4" horiz-adv-x="1179" d="M70 408v155l610 854h184v-874h219v-135h-219v-291l183 -6v-111h-519v111l181 6v291h-639zM219 543h490v692z" />
<glyph unicode="5" horiz-adv-x="1179" d="M147 70l62 133q160 -92 305 -92q158 0 256 99t98 257q0 139 -86 221t-233 82q-168 0 -363 -76l23 723h764v-135h-604l-17 -414q115 33 223 33q211 0 335 -119.5t124 -322.5q0 -213 -143 -346t-373 -133q-189 0 -371 90z" />
<glyph unicode="6" horiz-adv-x="1179" d="M139 565q0 221 65.5 407.5t184.5 299.5q172 166 479 166q29 0 93 -2l-9 -133q-39 4 -86 4q-481 0 -549 -576q129 164 342 164q186 0 301 -123t115 -323q0 -211 -129 -340t-338 -129q-229 0 -349 149t-120 436zM313 438q0 -152 80 -239.5t219 -87.5q137 0 217 88t80 239 q0 150 -78.5 238t-212.5 88q-137 0 -221 -89.5t-84 -236.5z" />
<glyph unicode="7" horiz-adv-x="1179" d="M111 1057v360h929v-135l-614 -1282h-180l626 1282h-600l-16 -225h-145z" />
<glyph unicode="8" horiz-adv-x="1179" d="M113 377q0 137 78.5 224t242.5 134q-150 66 -213 147t-63 201q0 162 117.5 258.5t316.5 96.5q201 0 317.5 -95.5t116.5 -257.5q0 -115 -55.5 -185.5t-204.5 -145.5q160 -66 230.5 -153t70.5 -218q0 -186 -128 -294.5t-349 -108.5q-217 0 -347 108.5t-130 288.5zM279 379 q0 -119 87 -193.5t226 -74.5q137 0 223 70.5t86 183.5q0 102 -69.5 170.5t-251.5 142.5q-156 -43 -228.5 -114.5t-72.5 -184.5zM322 1083q0 -90 68.5 -150.5t248.5 -125.5l16 8q207 102 207 264q0 106 -72.5 167t-199.5 61q-125 0 -196.5 -60t-71.5 -164z" />
<glyph unicode="9" horiz-adv-x="1179" d="M104 969q0 211 129 340t338 129q229 0 349 -149.5t120 -436.5q0 -221 -65.5 -407.5t-183.5 -299.5q-172 -166 -480 -165q-29 0 -92 2l8 133q39 -4 86 -4q481 0 549 575q-129 -164 -342 -164q-186 0 -301 123t-115 324zM270 979q0 -150 79 -238t212 -88q137 0 221 89 t84 237q0 152 -79.5 240t-219.5 88q-137 0 -217 -88t-80 -240z" />
<glyph unicode=":" horiz-adv-x="589" d="M217 102q0 51 35 85t86 34t86 -34.5t35 -86t-35 -86t-86 -34.5q-53 0 -87 34.5t-34 87.5zM217 864q0 51 35 85t86 34t86 -35t35 -86t-35 -86t-86 -35q-53 0 -87 35t-34 88z" />
<glyph unicode=";" horiz-adv-x="589" d="M94 -250l142 459h196l-176 -459h-162zM217 864q0 51 35 85t86 34t86 -35t35 -86t-35 -86t-86 -35q-53 0 -87 35t-34 88z" />
<glyph unicode="&#x3c;" horiz-adv-x="1179" d="M66 467v106l1036 486v-133l-873 -406l873 -407v-133z" />
<glyph unicode="=" horiz-adv-x="1179" d="M72 309v123h1036v-123h-1036zM72 604v123h1036v-123h-1036z" />
<glyph unicode="&#x3e;" horiz-adv-x="1179" d="M78 -20v133l872 407l-872 406v133l1036 -486v-106z" />
<glyph unicode="?" horiz-adv-x="839" d="M102 1352q168 90 338 90q162 0 260.5 -90t98.5 -240q0 -84 -38 -149.5t-140 -161.5q-121 -113 -148 -155t-27 -120v-157h-139v110q0 119 10.5 171t42 97.5t117.5 124.5q90 84 119 130.5t29 105.5q0 94 -55.5 151.5t-145.5 57.5q-113 0 -279 -96zM258 102q0 51 35 85 t86 34t86 -34.5t35 -86t-35 -86t-86 -34.5q-53 0 -87 34.5t-34 87.5z" />
<glyph unicode="@" horiz-adv-x="1699" d="M129 709q0 309 215 519t533 210q137 0 269 -44t226 -122q201 -166 201 -455q0 -240 -133 -379q-123 -129 -264 -129q-68 0 -109 40t-43 106q-106 -145 -270 -146q-127 0 -205 79t-78 208q0 98 44 195.5t120 169.5q127 123 319 122q123 0 260 -45l-71 -450 q-10 -61 -10 -92q0 -35 18 -55.5t49 -20.5q96 0 175 127t79 282q0 213 -165 355.5t-410 142.5q-264 0 -447.5 -178t-183.5 -436q0 -264 182 -443.5t451 -179.5q139 0 290 66l43 -101q-180 -76 -356 -75q-305 0 -517 213t-212 516zM623 612q0 -90 42 -141t117 -51 q104 0 187 92q33 37 45 113l55 340q-61 20 -113 20q-131 0 -232 -113t-101 -260z" />
<glyph unicode="A" horiz-adv-x="1292" d="M-66 0v111l144 6l463 1300h207l466 -1300l144 -6v-111h-496v111l176 6l-133 379h-528l-133 -379l176 -6v-111h-486zM426 631h430l-127 373q-53 160 -86 274q-25 -86 -39 -127q0 -4 -49 -147z" />
<glyph unicode="B" horiz-adv-x="1155" d="M57 0v111l164 6v1183l-164 7v110h385q268 0 383 -47q90 -35 139.5 -119t49.5 -200q0 -145 -68.5 -223t-218.5 -105q326 -37 326 -346q0 -236 -181 -324q-68 -35 -134 -44t-236 -9h-445zM385 133h74q238 0 311 41q109 55 109 221q0 172 -144 228q-80 33 -276 32h-74v-522z M385 782h74q207 0 282 45q98 61 99 205q0 156 -99 209q-78 43 -282 43h-74v-502z" />
<glyph unicode="C" horiz-adv-x="1189" d="M111 696q0 336 176 539t469 203q158 0 344 -62v-319h-146l-16 215q-94 31 -184 31q-209 0 -339 -168t-130 -439q0 -266 130 -423.5t347 -157.5q160 0 330 75l41 -131q-197 -80 -373 -79q-293 0 -471 197t-178 519z" />
<glyph unicode="D" horiz-adv-x="1380" d="M57 0v111l164 6v1183l-164 7v110h482q180 0 287.5 -22.5t191.5 -77.5q252 -174 252 -600t-252 -606q-88 -61 -199.5 -86t-302.5 -25h-459zM385 135h143q252 0 375 90q193 141 193 482q0 182 -56.5 317t-158.5 197q-61 37 -136 49t-241 12h-119v-1147z" />
<glyph unicode="E" horiz-adv-x="1148" d="M57 0v111l164 6v1183l-164 7v110h932v-360h-145l-17 225h-442v-496h403v-135h-403v-516h473l16 225h146v-360h-963z" />
<glyph unicode="F" horiz-adv-x="1112" d="M57 0v111l164 6v1183l-164 7v110h936v-360h-145l-17 225h-446v-496h436v-135h-436v-534l164 -6v-111h-492z" />
<glyph unicode="G" horiz-adv-x="1386" d="M111 690q0 338 185 543t490 205q211 0 420 -70v-311h-145l-14 207q-141 39 -250 39q-264 0 -396 -191q-117 -172 -116 -420q0 -264 138 -420.5t370 -156.5q125 0 249 45v436l-188 6v111h506v-111l-154 -6v-535q-209 -82 -430 -81q-301 0 -483 194t-182 516z" />
<glyph unicode="H" horiz-adv-x="1452" d="M57 0v111l164 6v1183l-164 7v110h492v-110l-164 -7v-507h682v507l-164 7v110h492v-110l-164 -7v-1183l164 -6v-111h-492v111l164 6v540h-682v-540l164 -6v-111h-492z" />
<glyph unicode="I" horiz-adv-x="606" d="M57 0v111l164 6v1183l-164 7v110h492v-110l-164 -7v-1183l164 -6v-111h-492z" />
<glyph unicode="J" horiz-adv-x="815" d="M25 20l14 136q94 -41 192 -41q147 0 185 100q27 70 26 320v765l-184 7v110h500v-110l-152 -7v-837q0 -152 -14 -229.5t-53 -129.5q-88 -125 -291 -124q-119 -1 -223 40z" />
<glyph unicode="K" horiz-adv-x="1261" d="M57 0v111l164 6v1183l-164 7v110h492v-110l-164 -7v-559l514 559l-149 7v110h471v-110l-121 -7l-514 -559l526 -624l133 -6v-111h-502v111l156 4l-514 616v-614l164 -6v-111h-492z" />
<glyph unicode="L" horiz-adv-x="1064" d="M57 0v111l164 6v1183l-164 7v110h508v-110l-180 -7v-1165h473l16 225h146v-360h-963z" />
<glyph unicode="M" horiz-adv-x="1818" d="M57 0v111l164 6v1183l-164 7v110h392l401 -1073q43 -117 70 -197q16 55 67 199l391 1071h383v-110l-164 -7v-1183l164 -6v-111h-479v111l152 6v1063q-74 -231 -121 -361l-305 -819h-191l-313 809q-49 133 -127 371v-1063l151 -6v-111h-471z" />
<glyph unicode="N" horiz-adv-x="1486" d="M57 0v111l164 6v1183l-164 7v110h353l546 -903q72 -119 158 -281l-2 56q-2 14 -2 39v114v858l-164 7v110h484v-110l-164 -7v-1300h-191l-551 911q-74 121 -151 271q4 -100 4 -267v-798l164 -6v-111h-484z" />
<glyph unicode="O" horiz-adv-x="1474" d="M111 717q0 156 52 302t144 247q160 172 430 172q307 0 475 -230q152 -209 152 -499q0 -344 -199 -555q-156 -174 -428 -174q-307 0 -475 229q-151 207 -151 508zM285 715q0 -279 120.5 -439.5t331.5 -160.5q209 0 331 159.5t122 434t-122 434.5t-331 160 q-207 0 -329.5 -159t-122.5 -429z" />
<glyph unicode="P" horiz-adv-x="1087" d="M57 0v111l164 6v1183l-164 7v110h439q256 0 370 -76q164 -102 164 -337q0 -115 -49 -205t-137 -135q-125 -66 -369 -66h-90v-481l188 -6v-111h-516zM385 733h68q209 0 288 43q115 59 115 228q0 154 -100 223q-78 55 -279 55h-92v-549z" />
<glyph unicode="Q" horiz-adv-x="1474" d="M111 709q0 344 198 555q156 174 428 174q309 0 475 -230q152 -209 152 -499q0 -340 -199 -555q-98 -109 -247 -152q141 -133 311 -254l-86 -98q-205 129 -426 330q-219 12 -357 122q-115 96 -182 259.5t-67 347.5zM285 715q0 -279 120.5 -439.5t331.5 -160.5 q209 0 331 159.5t122 434t-122 434.5t-331 160q-207 0 -329.5 -159t-122.5 -429z" />
<glyph unicode="R" horiz-adv-x="1146" d="M57 0v111l164 6v1183l-164 7v110h465q221 0 334 -63q166 -98 166 -310q0 -139 -78 -231t-223 -125q84 -27 120 -70t95 -188l127 -313l139 -6v-111h-266l-150 354q-78 184 -136 229.5t-216 45.5h-49v-512l164 -6v-111h-492zM385 764h76q170 0 254 41q133 59 133 223 q0 154 -115 215q-78 39 -248 39h-100v-518z" />
<glyph unicode="S" horiz-adv-x="1110" d="M111 1044q0 186 121.5 290t338.5 104q170 0 373 -74v-307h-145l-15 192q-106 53 -217 54q-135 0 -210.5 -62.5t-75.5 -173.5q0 -94 55 -145.5t233 -122.5q158 -61 215.5 -90t104.5 -66q111 -86 110 -258q0 -186 -131 -295.5t-354 -109.5q-201 0 -397 86v294h145l17 -188 q119 -57 247 -57q135 0 219 69.5t84 182.5q0 98 -67 155q-59 47 -248 119q-217 84 -289 139q-114 90 -114 264z" />
<glyph unicode="T" horiz-adv-x="1126" d="M8 1057v360h1110v-360h-145l-17 225h-315v-1165l225 -6v-111h-614v111l225 6v1165h-307l-18 -225h-144z" />
<glyph unicode="U" horiz-adv-x="1435" d="M45 1307v110h492v-110l-164 -7v-743q0 -244 77.5 -343t266.5 -99q186 0 270 98t84 313v774l-164 7v110h484v-110l-164 -7v-675q0 -221 -16.5 -311.5t-69.5 -159.5q-131 -174 -424 -174q-328 0 -447 210q-37 66 -49 152t-12 283v675z" />
<glyph unicode="V" horiz-adv-x="1232" d="M-84 1307v110h492v-110l-172 -7l290 -854q63 -193 95 -303q41 139 104 324l285 833l-172 7v110h477v-110l-141 -7l-453 -1300h-213l-453 1300z" />
<glyph unicode="W" horiz-adv-x="1775" d="M-37 1307v110h473v-110l-162 -7l179 -841q31 -147 57 -305q20 123 61 307l215 956h207l217 -950q41 -178 62 -303q18 115 59 299l182 837l-161 7v110h460v-110l-141 -7l-295 -1300h-209l-219 946q-37 164 -61 309q-16 -98 -64 -309l-217 -946h-211l-291 1300z" />
<glyph unicode="X" horiz-adv-x="1275" d="M-23 0v111l129 6l426 620l-374 563l-142 7v110h484v-110l-152 -7l297 -444l297 444l-151 7v110h473v-110l-142 -7l-385 -579l404 -604l145 -6v-111h-491v111l151 6l-323 485l-328 -485l166 -6v-111h-484z" />
<glyph unicode="Y" horiz-adv-x="1163" d="M-59 1307v110h491v-110l-162 -7l222 -354q59 -96 96 -166l100 172l217 348l-160 7v110h478v-110l-138 -7l-421 -661v-522l180 -6v-111h-525v111l181 6v522l-422 661z" />
<glyph unicode="Z" horiz-adv-x="1196" d="M86 0v135l803 1147h-617l-16 -225h-145v360h964v-135l-799 -1147h660l18 225h144v-360h-1012z" />
<glyph unicode="[" horiz-adv-x="737" d="M229 -317v1859h340v-125h-184v-1610h184v-124h-340z" />
<glyph unicode="\" horiz-adv-x="544" d="M61 1458h136l286 -1499h-135z" />
<glyph unicode="]" horiz-adv-x="737" d="M168 -193h184v1610h-184v125h340v-1859h-340v124z" />
<glyph unicode="^" horiz-adv-x="1179" d="M70 520l471 897h100l471 -897h-131l-391 750l-389 -750h-131z" />
<glyph unicode="_" d="M-33 -315h1090v-125h-1090v125z" />
<glyph unicode="`" d="M256 1497h199l250 -299h-150z" />
<glyph unicode="a" horiz-adv-x="1058" d="M82 287q0 209 180 295q104 47 293 47q63 0 150 -4v28q0 147 -55.5 214t-180.5 67t-268 -90l-68 110q162 104 352 105q240 0 324 -141q31 -49 41 -114t10 -206v-481l150 -6v-111h-287l-6 121q-133 -141 -309 -141q-152 0 -239 82t-87 225zM246 289q0 -84 51 -134.5 t137 -50.5q164 0 271 160v242q-45 4 -117 4q-176 0 -259 -53t-83 -168z" />
<glyph unicode="b" horiz-adv-x="1171" d="M49 0v111l150 6v1263l-150 6v111l305 10v-612q121 164 305 164q180 0 295 -148.5t115 -384.5q0 -246 -114.5 -396t-303.5 -150q-98 0 -163.5 37.5t-145.5 140.5v-158h-293zM354 299q66 -104 129.5 -149.5t143.5 -45.5q129 0 203.5 113t74.5 305q0 190 -74.5 301 t-201.5 111q-176 0 -275 -195v-440z" />
<glyph unicode="c" horiz-adv-x="987" d="M102 510q0 279 148 426q123 123 332 123q162 0 305 -55v-283h-146l-16 188q-82 25 -152 25q-147 0 -227 -105.5t-80 -300.5q0 -199 86 -311.5t238 -112.5q137 0 264 93l59 -121q-150 -96 -325 -96q-227 0 -356.5 141t-129.5 389z" />
<glyph unicode="d" horiz-adv-x="1175" d="M102 526q0 236 115 384.5t295 148.5q184 0 305 -164v485l-149 6v111l305 10v-1390l149 -6v-111h-293v158q-80 -102 -145.5 -140t-165.5 -38q-186 0 -301 150t-115 396zM266 522q0 -193 75 -305.5t204 -112.5q80 0 143.5 45.5t128.5 149.5v440q-98 195 -274 195 q-127 0 -202 -111t-75 -301z" />
<glyph unicode="e" horiz-adv-x="1085" d="M102 518q0 252 121 396.5t332 144.5q276 0 371 -228q55 -125 57 -354h-717q18 -193 99 -283t235 -90q145 0 285 99l59 -121q-162 -102 -346 -102q-231 0 -363.5 143t-132.5 395zM270 602h547q-4 162 -73.5 247t-194.5 85t-199 -88t-80 -244z" />
<glyph unicode="f" horiz-adv-x="710" d="M66 913v125h167v99q0 182 52 266q68 115 235 115q66 0 148 -21l-15 -135q-55 31 -118 31q-82 0 -114 -59.5t-32 -209.5v-86h246v-125h-246v-796l191 -6v-111h-506v111l159 6v796h-167z" />
<glyph unicode="g" horiz-adv-x="1175" d="M100 530q0 240 111 384.5t295 144.5q197 0 321 -180v170l299 -11v-110l-151 -6v-811q0 -170 -17.5 -254t-66.5 -150q-121 -168 -363 -168q-205 0 -391 113l66 121q158 -109 323 -109q188 0 256 156q37 82 37 276v86q-145 -164 -317 -164q-180 0 -291 141.5t-111 370.5z M264 532q0 -176 77 -282.5t204 -106.5q168 0 274 183v407q-106 201 -280 201q-125 0 -200 -110t-75 -292z" />
<glyph unicode="h" horiz-adv-x="1247" d="M57 0v111l150 6v1263l-150 6v111l305 10v-628q98 96 184.5 138t186.5 42q217 0 283 -176q33 -82 33 -260v-506l149 -6v-111h-455v111l150 6v506q0 152 -29 208q-45 102 -174 103q-168 0 -328 -195v-622l150 -6v-111h-455z" />
<glyph unicode="i" horiz-adv-x="569" d="M57 0v111l150 6v805l-150 6v110l305 11v-932l150 -6v-111h-455zM174 1409q0 47 32 78t79 31q49 0 79.5 -31t30.5 -80t-30.5 -80t-79.5 -31t-80 31t-31 82z" />
<glyph unicode="j" horiz-adv-x="569" d="M-41 -446l18 131q51 -14 89 -15q80 0 114.5 46t34.5 151v1055l-174 6v110l330 11v-1069q0 -246 -39 -314q-74 -127 -254 -127q-62 1 -119 15zM182 1409q0 47 32 78t79 31q49 0 79.5 -31t30.5 -80t-30.5 -80t-79.5 -31t-80 31t-31 82z" />
<glyph unicode="k" horiz-adv-x="1048" d="M57 0v111l150 6v1263l-150 6v111l305 10v-917l351 332l-131 6v110h430v-110l-117 -6l-369 -344l385 -461l125 -6v-111h-409v111l94 4l-359 432v-430l150 -6v-111h-455z" />
<glyph unicode="l" horiz-adv-x="569" d="M57 0v111l150 6v1263l-150 6v111l305 10v-1390l150 -6v-111h-455z" />
<glyph unicode="m" horiz-adv-x="1839" d="M57 0v111l150 6v805l-150 6v110l301 11v-175q96 100 176 142.5t175 42.5q219 0 272 -205q94 109 179 157t188 48q201 0 264 -176q29 -80 28 -260v-506l150 -6v-111h-455v111l150 6v506q0 147 -25 208q-41 102 -153 103q-154 0 -306 -195v-622l150 -6v-111h-455v111l150 6 v506q0 147 -25 208q-41 102 -153 103q-154 0 -306 -195v-622l150 -6v-111h-455z" />
<glyph unicode="n" horiz-adv-x="1247" d="M57 0v111l150 6v805l-150 6v110l301 11v-175q102 100 187.5 142.5t187.5 42.5q217 0 283 -176q33 -82 33 -260v-506l149 -6v-111h-455v111l150 6v506q0 152 -29 208q-45 102 -174 103q-168 0 -328 -195v-622l150 -6v-111h-455z" />
<glyph unicode="o" horiz-adv-x="1161" d="M102 526q0 236 133.5 384.5t346.5 148.5t345 -149.5t132 -391.5t-132 -390t-347 -148t-346.5 149t-131.5 397zM266 522q0 -190 85 -304t228.5 -114t229.5 113t86 301.5t-86 302t-229 113.5q-141 0 -227.5 -113t-86.5 -299z" />
<glyph unicode="p" horiz-adv-x="1179" d="M57 -330l150 6v1246l-150 6v110l293 11v-168q131 178 318 178q180 0 294.5 -148.5t114.5 -384.5q0 -246 -114.5 -396t-303.5 -150q-94 0 -159.5 35.5t-137.5 125.5v-465l170 -6v-110h-475v110zM362 299q72 -106 132.5 -150.5t140.5 -44.5q129 0 203.5 113t74.5 305 q0 190 -74.5 301t-201.5 111q-162 0 -275 -191v-444z" />
<glyph unicode="q" horiz-adv-x="1179" d="M102 526q0 236 115 384.5t295 148.5q186 0 317 -178v168l293 -11v-110l-149 -6v-1246l149 -6v-110h-487v110l182 6v465q-72 -90 -137.5 -125.5t-161.5 -35.5q-186 0 -301 150t-115 396zM266 522q0 -193 75 -305.5t204 -112.5q80 0 140 44.5t132 150.5v444 q-113 190 -274 191q-127 0 -202 -111t-75 -301z" />
<glyph unicode="r" horiz-adv-x="753" d="M57 0v111l150 6v805l-150 6v110l295 11v-177q96 186 281 187q39 0 80 -10l-8 -138q-33 8 -62 9q-190 0 -281 -244v-559l170 -6v-111h-475z" />
<glyph unicode="s" horiz-adv-x="944" d="M104 754q0 145 100.5 225t280.5 80q158 0 316 -66v-272h-146l-14 182q-70 31 -154 31q-109 0 -167 -43t-58 -121q0 -80 68 -119q53 -29 188 -65q135 -41 184.5 -62.5t85.5 -60.5q61 -61 62 -172q0 -150 -105.5 -230.5t-298.5 -80.5q-174 0 -333 73v269h145l16 -179 q80 -39 183 -39q111 0 172 44.5t61 125.5q0 72 -49 109q-31 20 -201 72q-178 53 -243 100q-93 64 -93 199z" />
<glyph unicode="t" horiz-adv-x="722" d="M57 913v125h168v228l156 32v-260h246v-125h-246v-567q0 -137 30.5 -189.5t108.5 -52.5q55 0 121 33l14 -125q-90 -33 -168 -32q-143 0 -202.5 75.5t-59.5 259.5v598h-168z" />
<glyph unicode="u" horiz-adv-x="1226" d="M49 928v110l305 11v-633q0 -150 27 -209q47 -102 170 -103q164 0 321 181v637l-149 6v110l305 11v-932l150 -6v-111h-291v162q-100 -98 -187.5 -140t-189.5 -42q-215 0 -281 176q-31 82 -30 268v498z" />
<glyph unicode="v" horiz-adv-x="1038" d="M-29 928v110h449v-110l-166 -6l213 -586q35 -92 65 -197q33 104 64 191l209 592l-166 6v110h428v-110l-119 -6l-327 -922h-199l-332 922z" />
<glyph unicode="w" horiz-adv-x="1628" d="M-20 928v110h440v-110l-164 -6l141 -533l17 -64q8 -32 12 -49.5t6 -23.5l29 -119q4 18 10 40t9 36t7 31q10 29 17 59q10 31 26 96l183 643h202l187 -628l41 -138l10 -39l27 -100l26 109l11 34l32 123l142 523l-164 6v110h422v-110l-119 -6l-258 -922h-197l-198 664 l-72 245l-14.5 -56.5l-9.5 -36.5t-5 -21q-10 -31 -41 -144l-186 -651h-199l-252 922z" />
<glyph unicode="x" horiz-adv-x="1069" d="M16 0v111l107 6l313 430l-270 375l-111 6v110h414v-110l-119 -6l193 -269l192 269l-119 6v110h398v-110l-113 -6l-278 -381l307 -424l106 -6v-111h-432v111l144 4l-230 319l-223 -317l141 -6v-111h-420z" />
<glyph unicode="y" horiz-adv-x="1017" d="M-41 928v110h451v-110l-166 -6l192 -504l84 -238q49 143 88 244l187 498l-166 6v110h430v-110l-119 -6l-379 -1010q-78 -211 -161 -292t-218 -81q-72 0 -153 21l28 127q61 -23 115 -23q94 0 156.5 75t113.5 247l-364 936z" />
<glyph unicode="z" horiz-adv-x="1011" d="M78 0v117l624 796h-436l-16 -192h-146v317h789v-125l-623 -788h486l16 197h146v-322h-840z" />
<glyph unicode="{" horiz-adv-x="737" d="M117 553v119q111 8 144.5 53t33.5 188v285q0 205 58.5 274.5t228.5 69.5h71v-119h-71q-82 0 -109 -43q-14 -25 -18 -52.5t-4 -110.5v-336q0 -141 -34 -194.5t-136 -74.5q102 -20 136 -73.5t34 -194.5v-336q0 -127 22 -164q27 -43 109 -43h71v-118h-71q-170 0 -228.5 69.5 t-58.5 274.5v284q0 143 -33.5 188.5t-144.5 53.5z" />
<glyph unicode="|" horiz-adv-x="589" d="M213 -440v1857h164v-1857h-164z" />
<glyph unicode="}" horiz-adv-x="737" d="M84 -199h72q82 0 108 43q23 33 23 164v336q0 141 33.5 194.5t136.5 73.5q-102 20 -136 73.5t-34 195.5v336q0 121 -19 157q-23 49 -112 49h-72v119h72q170 0 228 -69.5t58 -274.5v-285q0 -143 34 -188t145 -53v-119q-111 -8 -145 -53t-34 -189v-284q0 -205 -58 -274.5 t-228 -69.5h-72v118z" />
<glyph unicode="~" horiz-adv-x="1179" d="M72 463q82 113 149.5 160t147.5 47q84 0 241 -92q84 -51 117 -64.5t70 -13.5q53 0 97 27.5t105 103.5l17 20l92 -78q-152 -207 -299 -206q-88 0 -238 92q-80 47 -117.5 62.5t-80.5 15.5q-53 0 -95 -30t-114 -118z" />
<glyph unicode="&#xa1;" horiz-adv-x="634" d="M238 938q0 53 34.5 87t85.5 34q53 0 87 -35t34 -88q0 -51 -34.5 -85t-86 -34t-86 34t-34.5 87zM274 -287l19 951h131l18 -951h-168z" />
<glyph unicode="&#xa2;" horiz-adv-x="1179" d="M184 887q0 242 112 384t318 161v153h103v-153q154 -12 301 -72v-277h-146l-14 185q-66 27 -141 37v-824q129 14 248 90l59 -120q-131 -82 -307 -95v-149h-103v149q-205 18 -317.5 156.5t-112.5 374.5zM348 903q0 -371 266 -420v824q-266 -42 -266 -404z" />
<glyph unicode="&#xa3;" horiz-adv-x="1179" d="M106 0v131h148q35 51 46 124t11 261v158h-184v119h184v141q0 158 19.5 235.5t75.5 139.5q117 129 348 129q154 0 323 -60v-321h-145l-17 221q-84 25 -159 25q-178 0 -242 -125q-39 -76 -39 -263v-122h350v-119h-350v-158q0 -205 -9 -269.5t-44 -115.5h493l17 229h145 v-360h-971z" />
<glyph unicode="&#xa4;" horiz-adv-x="1179" d="M68 276l122 123q-100 135 -100 318q0 178 100 317l-122 123l82 80l120 -121q131 106 320 107q186 0 317 -107l121 121l82 -80l-123 -123q100 -139 100 -317q0 -182 -100 -318l123 -123l-82 -81l-121 120q-131 -106 -317 -106q-188 0 -320 106l-120 -120zM213 721 q0 -182 106 -295q106 -109 271 -109q168 0 271.5 110t103.5 290q0 178 -103.5 287.5t-271.5 109.5t-272.5 -109.5t-104.5 -283.5z" />
<glyph unicode="&#xa5;" horiz-adv-x="1179" d="M-63 1307v110h491v-110l-152 -7l322 -507l320 507l-166 7v110h491v-110l-149 -7l-355 -557h254v-104h-307l-14 -27v-114h321v-105h-321v-276l162 -6v-111h-492v111l166 6v276h-320v105h320v114l-14 27h-306v104h252l-354 557z" />
<glyph unicode="&#xa6;" horiz-adv-x="589" d="M213 0v557h164v-557h-164zM213 860v557h164v-557h-164z" />
<glyph unicode="&#xa7;" horiz-adv-x="1179" d="M207 561q0 154 178 289q-80 53 -111.5 110.5t-31.5 147.5q0 156 103.5 243t287.5 87q147 0 307 -70v-291h-145l-17 193q-80 33 -147 33q-98 0 -156.5 -49.5t-58.5 -131.5q0 -86 65 -133q33 -25 65 -40t148 -62q160 -68 221.5 -133.5t61.5 -167.5q0 -160 -172 -293 q80 -45 114.5 -107.5t34.5 -158.5q0 -164 -107.5 -255t-303.5 -91q-180 0 -328 79v301h145l17 -202q51 -43 162 -43q115 0 178 51t63 143q0 86 -57 133q-51 43 -213 113q-174 74 -238.5 138.5t-64.5 166.5zM371 602q0 -74 66.5 -124t269.5 -130q106 113 106 195t-84 141 q-37 27 -197 90l-49 21q-112 -91 -112 -193z" />
<glyph unicode="&#xa8;" d="M211 1352q0 45 29.5 73.5t77 28.5t77 -29.5t29.5 -77t-29.5 -77t-77 -29.5t-77 31t-29.5 80zM600 1352q0 45 29.5 73.5t77 28.5t77 -29.5t29.5 -77t-29.5 -77t-77 -29.5t-77 31t-29.5 80z" />
<glyph unicode="&#xa9;" horiz-adv-x="1638" d="M90 719q0 307 209 513t520 206q315 0 522 -207t207 -522.5t-205.5 -522t-521.5 -206.5q-322 0 -526.5 207.5t-204.5 531.5zM168 717q0 -297 183.5 -486.5t469.5 -189.5q281 0 465 189.5t184 478t-184 478t-467 189.5q-279 0 -465 -188t-186 -471zM479 707 q0 174 102.5 278.5t274.5 104.5q104 0 217 -48v-200h-100l-15 131q-39 23 -102 22q-113 0 -181.5 -78.5t-68.5 -205.5q0 -129 72 -206t192 -77q88 0 183 47l24 -94q-86 -49 -219 -49q-172 0 -275.5 102.5t-103.5 272.5z" />
<glyph unicode="&#xaa;" horiz-adv-x="737" d="M115 1006q0 193 270 192q12 0 57 -2l21 -2v25q0 121 -113 120q-72 0 -166 -53l-34 86q109 57 212 58q150 0 197 -91q23 -47 23 -178v-233l77 -4v-80h-188l-4 57q-72 -70 -168 -70q-86 0 -135 46.5t-49 128.5zM236 1010q0 -37 25.5 -60.5t64.5 -23.5q80 0 137 75v111 q-20 2 -49 2q-178 0 -178 -104z" />
<glyph unicode="&#xab;" horiz-adv-x="983" d="M68 510l319 426l107 -74l-242 -352l242 -352l-107 -72zM473 510l318 426l106 -74l-240 -352l240 -352l-106 -72z" />
<glyph unicode="&#xac;" horiz-adv-x="1179" d="M72 655v123h993v-577h-139v454h-854z" />
<glyph unicode="&#xad;" horiz-adv-x="636" d="M82 510v125h473v-125h-473z" />
<glyph unicode="&#xae;" horiz-adv-x="1228" d="M84 1022q0 223 151.5 372.5t378.5 149.5q229 0 380 -149.5t151 -380.5q0 -229 -150.5 -380t-378.5 -151q-233 0 -382.5 151.5t-149.5 387.5zM162 1020q0 -209 127 -342t327 -133q195 0 323 133t128 336t-128 336t-325 133q-195 0 -323.5 -132t-128.5 -331zM360 735v62 l82 6v422l-82 6v61h252q102 0 148 -26q70 -39 69 -123q0 -98 -110 -133q35 -18 63 -82l58 -125l61 -6v-62h-143l-68 148q-29 63 -52.5 81.5t-72.5 18.5h-16v-180l78 -6v-62h-267zM549 1051h20q150 0 150 86q0 88 -135 88h-35v-174z" />
<glyph unicode="&#xaf;" d="M215 1282v119h596v-119h-596z" />
<glyph unicode="&#xb0;" horiz-adv-x="679" d="M41 1149q0 127 84 208t215 81t215 -82t84 -211q0 -131 -83 -213t-216 -82t-216 83t-83 216zM129 1147q0 -102 57.5 -161.5t153.5 -59.5t153.5 59t57.5 158q0 100 -57.5 159.5t-153.5 59.5q-94 0 -152.5 -59.5t-58.5 -155.5z" />
<glyph unicode="&#xb1;" horiz-adv-x="1179" d="M72 0v123h1036v-123h-1036zM72 616v123h456v299h123v-299h457v-123h-457v-297h-123v297h-456z" />
<glyph unicode="&#xb2;" horiz-adv-x="737" d="M96 639v94q223 195 310.5 300.5t87.5 187.5q0 51 -40 82.5t-104 31.5q-88 0 -200 -69l-39 96q135 68 249 68q119 0 190 -54.5t71 -144.5q0 -70 -35 -136.5t-119 -158.5q-106 -113 -213 -203h373v-94h-531z" />
<glyph unicode="&#xb3;" horiz-adv-x="737" d="M92 666l27 98q117 -39 198 -39q76 0 125.5 40t49.5 101q0 63 -60.5 101.5t-163.5 38.5q-27 0 -69 -7v99q31 -4 67 -4q94 0 154.5 37.5t60.5 97.5q0 47 -40 76.5t-105 29.5q-78 0 -191 -43l-26 97q111 41 231.5 41t189 -51.5t68.5 -141.5q0 -133 -151 -184 q162 -41 161 -193q0 -104 -79.5 -168.5t-210.5 -64.5q-101 0 -236 39z" />
<glyph unicode="&#xb4;" d="M340 1198l250 299h198l-299 -299h-149z" />
<glyph unicode="&#xb5;" horiz-adv-x="1179" d="M20 928v110l306 11v-590q0 -186 43 -256q61 -96 190 -97q78 0 145.5 42t143.5 143v631l-150 6v110l306 11v-932l145 -6v-111h-289v162q-162 -182 -350 -182q-123 0 -184 98v-518h-156v1362z" />
<glyph unicode="&#xb6;" horiz-adv-x="1351" d="M102 1020q0 111 50.5 203t138.5 141q57 31 120.5 42t188.5 11h649v-110l-164 -7v-1542h-155v1524h-254v-1524h-156v867q-186 0 -302 109.5t-116 285.5z" />
<glyph unicode="&#xb7;" horiz-adv-x="589" d="M174 573q0 51 35 85t86 34q53 0 87 -34.5t34 -86t-34 -86t-87 -34.5t-87 34.5t-34 87.5z" />
<glyph unicode="&#xb8;" d="M287 -371l241 301h187l-277 -301h-151z" />
<glyph unicode="&#xb9;" horiz-adv-x="737" d="M139 1284l221 133h107v-692l119 -6v-80h-359v80l123 6v571l-164 -96z" />
<glyph unicode="&#xba;" horiz-adv-x="737" d="M98 1135q0 135 74 215t197 80q125 0 197.5 -81t72.5 -218.5t-72.5 -218.5t-197.5 -81t-198 82.5t-73 221.5zM219 1133q0 -90 42 -148.5t108 -58.5q63 0 106 58t43 149q0 88 -42 145t-107.5 57t-107.5 -57t-42 -145z" />
<glyph unicode="&#xbb;" horiz-adv-x="983" d="M86 158l240 352l-240 352l107 74l319 -426l-319 -424zM492 158l239 352l-239 352l106 74l317 -426l-317 -424z" />
<glyph unicode="&#xbc;" horiz-adv-x="1638" d="M104 1284l222 133h106v-692l119 -6v-80h-358v80l122 6v571l-163 -96zM479 -41l559 1499h121l-559 -1499h-121zM928 201v110l346 467h135v-483h123v-94h-123v-201h-123v201h-358zM1042 295h248v340z" />
<glyph unicode="&#xbd;" horiz-adv-x="1638" d="M104 1284l222 133h106v-692l119 -6v-80h-358v80l122 6v571l-163 -96zM444 -41l560 1499h120l-559 -1499h-121zM963 0v94q223 195 310 300.5t87 187.5q0 51 -40 82.5t-103 31.5q-88 0 -201 -69l-39 96q135 68 250 68q119 0 189.5 -54.5t70.5 -144.5q0 -70 -35 -136.5 t-119 -158.5q-106 -113 -213 -203h373v-94h-530z" />
<glyph unicode="&#xbe;" horiz-adv-x="1638" d="M106 666l27 98q117 -39 199 -39q76 0 125 40t49 101q0 63 -60.5 101.5t-162.5 38.5q-27 0 -70 -7v99q31 -4 68 -4q94 0 154.5 37.5t60.5 97.5q0 47 -40 76.5t-106 29.5q-76 0 -190 -43l-27 97q111 41 231.5 41t189.5 -51.5t69 -141.5q0 -133 -152 -184q162 -41 162 -193 q0 -104 -80 -168.5t-211 -64.5q-101 0 -236 39zM500 -41l559 1499h121l-559 -1499h-121zM938 201v110l346 467h135v-483h123v-94h-123v-201h-123v201h-358zM1053 295h247v340z" />
<glyph unicode="&#xbf;" horiz-adv-x="839" d="M41 -18q0 80 38 145.5t140 161.5q121 111 147.5 152.5t26.5 121.5v107h139v-60q0 -119 -10 -171t-41.5 -97t-118.5 -125q-88 -82 -117.5 -128t-29.5 -103q0 -78 55.5 -125t143.5 -47q115 0 280 96l43 -131q-168 -90 -340 -90q-162 0 -259 80t-97 213zM340 938q0 53 35 87 t86 34q53 0 87 -35t34 -88q0 -51 -35 -85t-86 -34t-86 34t-35 87z" />
<glyph unicode="&#xc0;" horiz-adv-x="1292" d="M-66 0v111l144 6l463 1300h207l466 -1300l144 -6v-111h-496v111l176 6l-133 379h-528l-133 -379l176 -6v-111h-486zM336 1845h199l249 -299h-149zM426 631h430l-127 373q-53 160 -86 274q-25 -86 -39 -127q0 -4 -49 -147z" />
<glyph unicode="&#xc1;" horiz-adv-x="1292" d="M-66 0v111l144 6l463 1300h207l466 -1300l144 -6v-111h-496v111l176 6l-133 379h-528l-133 -379l176 -6v-111h-486zM426 631h430l-127 373q-53 160 -86 274q-25 -86 -39 -127q0 -4 -49 -147zM516 1546l250 299h199l-299 -299h-150z" />
<glyph unicode="&#xc2;" horiz-adv-x="1292" d="M-66 0v111l144 6l463 1300h207l466 -1300l144 -6v-111h-496v111l176 6l-133 379h-528l-133 -379l176 -6v-111h-486zM348 1546l205 299h188l205 -299h-149l-150 201l-149 -201h-150zM426 631h430l-127 373q-53 160 -86 274q-25 -86 -39 -127q0 -4 -49 -147z" />
<glyph unicode="&#xc3;" horiz-adv-x="1292" d="M-66 0v111l144 6l463 1300h207l466 -1300l144 -6v-111h-496v111l176 6l-133 379h-528l-133 -379l176 -6v-111h-486zM303 1585q12 98 63.5 153.5t129.5 55.5q70 0 182 -43q80 -31 117 -31q82 0 92 86h104q-25 -211 -192 -211q-63 0 -174 41q-86 33 -127 33q-61 0 -88 -84 h-107zM426 631h430l-127 373q-53 160 -86 274q-25 -86 -39 -127q0 -4 -49 -147z" />
<glyph unicode="&#xc4;" horiz-adv-x="1292" d="M-66 0v111l144 6l463 1300h207l466 -1300l144 -6v-111h-496v111l176 6l-133 379h-528l-133 -379l176 -6v-111h-486zM346 1700q0 45 30 73.5t77 28.5t76.5 -29.5t29.5 -76.5t-29.5 -77t-76.5 -30t-77 31t-30 80zM426 631h430l-127 373q-53 160 -86 274q-25 -86 -39 -127 q0 -4 -49 -147zM735 1700q0 45 30 73.5t77 28.5t76.5 -29.5t29.5 -76.5t-29.5 -77t-76.5 -30t-77 31t-30 80z" />
<glyph unicode="&#xc5;" horiz-adv-x="1292" d="M-66 0v111l144 6l465 1304q-100 57 -101 176q0 86 59.5 145.5t145.5 59.5q84 0 143.5 -59.5t59.5 -145.5q0 -117 -102 -178l466 -1302l144 -6v-111h-496v111l176 6l-133 379h-528l-133 -379l176 -6v-111h-486zM426 631h430l-127 373q-53 160 -86 274l-39 -127l-49 -147z M528 1599q0 -55 33 -89.5t86 -34.5q51 0 84 34.5t33 88t-33 88t-84 34.5t-85 -35t-34 -86z" />
<glyph unicode="&#xc6;" horiz-adv-x="1847" d="M-172 0v111l143 6l840 1300h877v-360h-146l-16 225h-443v-496h555v-135h-555v-516h473l17 225h145v-360h-798v401h-576l-180 -284l155 -6v-111h-491zM430 537h490v745h-17z" />
<glyph unicode="&#xc7;" horiz-adv-x="1189" d="M111 696q0 336 176 539t469 203q158 0 344 -62v-319h-146l-16 215q-94 31 -184 31q-209 0 -339 -168t-130 -439q0 -266 130 -423.5t347 -157.5q160 0 330 75l41 -131q-197 -80 -373 -79q-293 0 -471 197t-178 519zM389 -371l242 301h186l-276 -301h-152z" />
<glyph unicode="&#xc8;" horiz-adv-x="1148" d="M57 0v111l164 6v1183l-164 7v110h932v-360h-145l-17 225h-442v-496h403v-135h-403v-516h473l16 225h146v-360h-963zM332 1845h198l250 -299h-149z" />
<glyph unicode="&#xc9;" horiz-adv-x="1148" d="M57 0v111l164 6v1183l-164 7v110h932v-360h-145l-17 225h-442v-496h403v-135h-403v-516h473l16 225h146v-360h-963zM438 1546l250 299h199l-299 -299h-150z" />
<glyph unicode="&#xca;" horiz-adv-x="1148" d="M57 0v111l164 6v1183l-164 7v110h932v-360h-145l-17 225h-442v-496h403v-135h-403v-516h473l16 225h146v-360h-963zM291 1546l205 299h188l205 -299h-150l-149 201l-150 -201h-149z" />
<glyph unicode="&#xcb;" horiz-adv-x="1148" d="M57 0v111l164 6v1183l-164 7v110h932v-360h-145l-17 225h-442v-496h403v-135h-403v-516h473l16 225h146v-360h-963zM289 1700q0 45 29.5 73.5t76.5 28.5t77 -29.5t30 -76.5t-30 -77t-77 -30t-76.5 31t-29.5 80zM678 1700q0 45 29.5 73.5t76.5 28.5t77 -29.5t30 -76.5 t-30 -77t-77 -30t-76.5 31t-29.5 80z" />
<glyph unicode="&#xcc;" horiz-adv-x="606" d="M47 1845h199l250 -299h-150zM57 0v111l164 6v1183l-164 7v110h492v-110l-164 -7v-1183l164 -6v-111h-492z" />
<glyph unicode="&#xcd;" horiz-adv-x="606" d="M57 0v111l164 6v1183l-164 7v110h492v-110l-164 -7v-1183l164 -6v-111h-492zM131 1546l250 299h199l-299 -299h-150z" />
<glyph unicode="&#xce;" horiz-adv-x="606" d="M4 1546l205 299h188l205 -299h-149l-150 201l-149 -201h-150zM57 0v111l164 6v1183l-164 7v110h492v-110l-164 -7v-1183l164 -6v-111h-492z" />
<glyph unicode="&#xcf;" horiz-adv-x="606" d="M2 1700q0 45 29.5 73.5t77 28.5t77 -29.5t29.5 -76.5t-29.5 -77t-77 -30t-77 31t-29.5 80zM57 0v111l164 6v1183l-164 7v110h492v-110l-164 -7v-1183l164 -6v-111h-492zM391 1700q0 45 30 73.5t77 28.5t76.5 -29.5t29.5 -76.5t-29.5 -77t-76.5 -30t-77 31t-30 80z" />
<glyph unicode="&#xd0;" horiz-adv-x="1380" d="M51 668v106h170v526l-164 7v110h482q180 0 287.5 -22.5t191.5 -77.5q252 -174 252 -600t-252 -606q-88 -61 -199.5 -86t-302.5 -25h-459v111l164 6v551h-170zM385 135h143q252 0 375 90q193 141 193 482q0 182 -56.5 317t-158.5 197q-61 37 -137 49t-240 12h-119v-508 h305v-106h-305v-533z" />
<glyph unicode="&#xd1;" horiz-adv-x="1486" d="M57 0v111l164 6v1183l-164 7v110h353l546 -903q72 -119 158 -281l-2 56q-2 14 -2 39v114v858l-164 7v110h484v-110l-164 -7v-1300h-191l-551 911q-74 121 -151 271q4 -100 4 -267v-798l164 -6v-111h-484zM426 1585q12 98 63.5 153.5t128.5 55.5q70 0 183 -43 q80 -31 117 -31q82 0 92 86h104q-25 -211 -192 -211q-63 0 -174 41q-86 33 -127 33q-61 0 -89 -84h-106z" />
<glyph unicode="&#xd2;" horiz-adv-x="1474" d="M111 717q0 156 52 302t144 247q160 172 430 172q307 0 475 -230q152 -209 152 -499q0 -344 -199 -555q-156 -174 -428 -174q-307 0 -475 229q-151 207 -151 508zM285 715q0 -279 120.5 -439.5t331.5 -160.5q209 0 331 159.5t122 434t-122 434.5t-331 160 q-207 0 -329.5 -159t-122.5 -429zM481 1845h199l250 -299h-150z" />
<glyph unicode="&#xd3;" horiz-adv-x="1474" d="M111 717q0 156 52 302t144 247q160 172 430 172q307 0 475 -230q152 -209 152 -499q0 -344 -199 -555q-156 -174 -428 -174q-307 0 -475 229q-151 207 -151 508zM285 715q0 -279 120.5 -439.5t331.5 -160.5q209 0 331 159.5t122 434t-122 434.5t-331 160 q-207 0 -329.5 -159t-122.5 -429zM565 1546l250 299h199l-299 -299h-150z" />
<glyph unicode="&#xd4;" horiz-adv-x="1474" d="M111 717q0 156 52 302t144 247q160 172 430 172q307 0 475 -230q152 -209 152 -499q0 -344 -199 -555q-156 -174 -428 -174q-307 0 -475 229q-151 207 -151 508zM285 715q0 -279 120.5 -439.5t331.5 -160.5q209 0 331 159.5t122 434t-122 434.5t-331 160 q-207 0 -329.5 -159t-122.5 -429zM438 1546l205 299h188l205 -299h-149l-150 201l-149 -201h-150z" />
<glyph unicode="&#xd5;" horiz-adv-x="1474" d="M111 717q0 156 52 302t144 247q160 172 430 172q307 0 475 -230q152 -209 152 -499q0 -344 -199 -555q-156 -174 -428 -174q-307 0 -475 229q-151 207 -151 508zM285 715q0 -279 120.5 -439.5t331.5 -160.5q209 0 331 159.5t122 434t-122 434.5t-331 160 q-207 0 -329.5 -159t-122.5 -429zM393 1585q12 98 63.5 153.5t129.5 55.5q70 0 182 -43q80 -31 117 -31q82 0 92 86h104q-25 -211 -192 -211q-63 0 -174 41q-86 33 -127 33q-61 0 -88 -84h-107z" />
<glyph unicode="&#xd6;" horiz-adv-x="1474" d="M111 717q0 156 52 302t144 247q160 172 430 172q307 0 475 -230q152 -209 152 -499q0 -344 -199 -555q-156 -174 -428 -174q-307 0 -475 229q-151 207 -151 508zM285 715q0 -279 120.5 -439.5t331.5 -160.5q209 0 331 159.5t122 434t-122 434.5t-331 160 q-207 0 -329.5 -159t-122.5 -429zM436 1700q0 45 30 73.5t77 28.5t76.5 -29.5t29.5 -76.5t-29.5 -77t-76.5 -30t-77 31t-30 80zM825 1700q0 45 30 73.5t77 28.5t76.5 -29.5t29.5 -76.5t-29.5 -77t-76.5 -30t-77 31t-30 80z" />
<glyph unicode="&#xd7;" horiz-adv-x="1179" d="M150 166l352 352l-352 352l90 88l350 -352l354 352l88 -88l-354 -352l352 -352l-88 -88l-352 352l-352 -352z" />
<glyph unicode="&#xd8;" horiz-adv-x="1474" d="M111 707q0 344 196 559q162 172 428 172q248 0 412 -152l123 152l69 -58l-133 -163q158 -231 158 -508q0 -344 -199 -555q-160 -174 -428 -174q-256 0 -409 153l-121 -149l-72 55l133 164q-157 209 -157 504zM285 709q0 -223 86 -379l678 835q-70 74 -141.5 106 t-170.5 32q-209 0 -330.5 -160t-121.5 -434zM424 252q125 -137 313 -137q209 0 331 159.5t122 434.5q0 221 -86 381z" />
<glyph unicode="&#xd9;" horiz-adv-x="1435" d="M45 1307v110h492v-110l-164 -7v-743q0 -244 77.5 -343t266.5 -99q186 0 270 98t84 313v774l-164 7v110h484v-110l-164 -7v-675q0 -221 -16.5 -311.5t-69.5 -159.5q-131 -174 -424 -174q-328 0 -447 210q-37 66 -49 152t-12 283v675zM461 1845h198l250 -299h-149z" />
<glyph unicode="&#xda;" horiz-adv-x="1435" d="M45 1307v110h492v-110l-164 -7v-743q0 -244 77.5 -343t266.5 -99q186 0 270 98t84 313v774l-164 7v110h484v-110l-164 -7v-675q0 -221 -16.5 -311.5t-69.5 -159.5q-131 -174 -424 -174q-328 0 -447 210q-37 66 -49 152t-12 283v675zM621 1546l249 299h199l-299 -299h-149 z" />
<glyph unicode="&#xdb;" horiz-adv-x="1435" d="M45 1307v110h492v-110l-164 -7v-743q0 -244 77.5 -343t266.5 -99q186 0 270 98t84 313v774l-164 7v110h484v-110l-164 -7v-675q0 -221 -16.5 -311.5t-69.5 -159.5q-131 -174 -424 -174q-328 0 -447 210q-37 66 -49 152t-12 283v675zM420 1546l205 299h188l205 -299h-150 l-149 201l-150 -201h-149z" />
<glyph unicode="&#xdc;" horiz-adv-x="1435" d="M45 1307v110h492v-110l-164 -7v-743q0 -244 77.5 -343t266.5 -99q186 0 270 98t84 313v774l-164 7v110h484v-110l-164 -7v-675q0 -221 -16.5 -311.5t-69.5 -159.5q-131 -174 -424 -174q-328 0 -447 210q-37 66 -49 152t-12 283v675zM422 1700q0 45 29.5 73.5t76.5 28.5 t77 -29.5t30 -76.5t-30 -77t-77 -30t-76.5 31t-29.5 80zM811 1700q0 45 29.5 73.5t77 28.5t77 -29.5t29.5 -76.5t-29.5 -77t-77 -30t-77 31t-29.5 80z" />
<glyph unicode="&#xdd;" horiz-adv-x="1163" d="M-59 1307v110h491v-110l-162 -7l222 -354q59 -96 96 -166l100 172l217 348l-160 7v110h478v-110l-138 -7l-421 -661v-522l180 -6v-111h-525v111l181 6v522l-422 661zM465 1546l250 299h198l-299 -299h-149z" />
<glyph unicode="&#xde;" horiz-adv-x="1087" d="M57 0v111l164 6v1183l-164 7v110h492v-110l-164 -7v-167h111q250 0 368 -76q78 -47 122 -136.5t44 -199.5q0 -236 -186 -338q-127 -70 -348 -70h-111v-196l193 -6v-111h-521zM385 451h68q199 0 286 45q117 61 117 225q0 154 -100 223q-78 55 -279 55h-92v-548z" />
<glyph unicode="&#xdf;" horiz-adv-x="1181" d="M49 0v111l150 6v903q0 156 14 224.5t57 127.5q109 145 320 146q178 0 291.5 -105.5t113.5 -271.5q0 -141 -77.5 -232.5t-215.5 -105.5q162 -2 254 -90q117 -106 117 -295q0 -199 -118.5 -318.5t-317.5 -119.5q-76 0 -164 20l25 131q68 -23 131 -22q133 0 206.5 81.5 t73.5 227.5q0 150 -86 233.5t-241 83.5h-37v125q137 4 211.5 77t74.5 200q0 113 -66.5 184.5t-172.5 71.5q-154 0 -209 -131q-29 -66 -29 -240v-1022h-305z" />
<glyph unicode="&#xe0;" horiz-adv-x="1058" d="M82 287q0 209 180 295q104 47 293 47q63 0 150 -4v28q0 147 -55.5 214t-180.5 67t-268 -90l-68 110q162 104 352 105q240 0 324 -141q31 -49 41 -114t10 -206v-481l150 -6v-111h-287l-6 121q-133 -141 -309 -141q-152 0 -239 82t-87 225zM246 289q0 -84 51 -134.5 t137 -50.5q164 0 271 160v242q-45 4 -117 4q-176 0 -259 -53t-83 -168zM272 1497h199l250 -299h-150z" />
<glyph unicode="&#xe1;" horiz-adv-x="1058" d="M82 287q0 209 180 295q104 47 293 47q63 0 150 -4v28q0 147 -55.5 214t-180.5 67t-268 -90l-68 110q162 104 352 105q240 0 324 -141q31 -49 41 -114t10 -206v-481l150 -6v-111h-287l-6 121q-133 -141 -309 -141q-152 0 -239 82t-87 225zM246 289q0 -84 51 -134.5 t137 -50.5q164 0 271 160v242q-45 4 -117 4q-176 0 -259 -53t-83 -168zM356 1198l250 299h199l-299 -299h-150z" />
<glyph unicode="&#xe2;" horiz-adv-x="1058" d="M82 287q0 209 180 295q104 47 293 47q63 0 150 -4v28q0 147 -55.5 214t-180.5 67t-268 -90l-68 110q162 104 352 105q240 0 324 -141q31 -49 41 -114t10 -206v-481l150 -6v-111h-287l-6 121q-133 -141 -309 -141q-152 0 -239 82t-87 225zM203 1198l205 299h188l205 -299 h-150l-149 201l-150 -201h-149zM246 289q0 -84 51 -134.5t137 -50.5q164 0 271 160v242q-45 4 -117 4q-176 0 -259 -53t-83 -168z" />
<glyph unicode="&#xe3;" horiz-adv-x="1058" d="M82 287q0 209 180 295q104 47 293 47q63 0 150 -4v28q0 147 -55.5 214t-180.5 67t-268 -90l-68 110q162 104 352 105q240 0 324 -141q31 -49 41 -114t10 -206v-481l150 -6v-111h-287l-6 121q-133 -141 -309 -141q-152 0 -239 82t-87 225zM158 1237q12 98 63 153.5 t129 55.5q70 0 182 -43q80 -31 117 -31q82 0 92 86h105q-25 -211 -193 -211q-63 0 -174 41q-86 33 -127 33q-61 0 -88 -84h-106zM246 289q0 -84 51 -134.5t137 -50.5q164 0 271 160v242q-45 4 -117 4q-176 0 -259 -53t-83 -168z" />
<glyph unicode="&#xe4;" horiz-adv-x="1058" d="M82 287q0 209 180 295q104 47 293 47q63 0 150 -4v28q0 147 -55.5 214t-180.5 67t-268 -90l-68 110q162 104 352 105q240 0 324 -141q31 -49 41 -114t10 -206v-481l150 -6v-111h-287l-6 121q-133 -141 -309 -141q-152 0 -239 82t-87 225zM229 1352q0 45 30 73.5t77 28.5 t76.5 -29.5t29.5 -77t-29.5 -77t-76.5 -29.5t-77 31t-30 80zM246 289q0 -84 51 -134.5t137 -50.5q164 0 271 160v242q-45 4 -117 4q-176 0 -259 -53t-83 -168zM618 1352q0 45 30 73.5t77 28.5t76.5 -29.5t29.5 -77t-29.5 -77t-76.5 -29.5t-77 31t-30 80z" />
<glyph unicode="&#xe5;" horiz-adv-x="1058" d="M82 287q0 209 180 295q104 47 293 47q63 0 150 -4v28q0 147 -55.5 214t-180.5 67t-268 -90l-68 110q162 104 352 105q240 0 324 -141q31 -49 41 -114t10 -206v-481l150 -6v-111h-287l-6 121q-133 -141 -309 -141q-152 0 -239 82t-87 225zM246 289q0 -84 51 -134.5 t137 -50.5q164 0 271 160v242q-45 4 -117 4q-176 0 -259 -53t-83 -168zM311 1364q0 84 59.5 143.5t145.5 59.5t144.5 -59.5t58.5 -145.5t-59.5 -145.5t-143.5 -59.5q-88 0 -146.5 59.5t-58.5 147.5zM397 1364q0 -55 33 -90t86 -35q51 0 84 35t33 88t-33 88t-84 35t-85 -35 t-34 -86z" />
<glyph unicode="&#xe6;" horiz-adv-x="1644" d="M82 274q0 334 471 334q41 0 152 -6v55q0 143 -56.5 210t-179.5 67q-125 0 -268 -90l-68 110q162 104 354 105q236 0 328 -150q119 150 320 150q260 0 352 -228q51 -131 53 -354h-672q16 -193 92 -283t220 -90q133 0 262 99l59 -121q-150 -102 -327 -102q-244 0 -377 186 q-86 -100 -174 -143t-211 -43q-156 0 -243 77.5t-87 216.5zM246 281q0 -82 52 -129.5t140 -47.5q109 0 188 69t79 163v143q-45 4 -119 4q-176 0 -258 -49t-82 -153zM872 602h502q-4 162 -66.5 247t-177 85t-183.5 -88t-75 -244z" />
<glyph unicode="&#xe7;" horiz-adv-x="987" d="M102 510q0 279 148 426q123 123 332 123q162 0 305 -55v-283h-146l-16 188q-82 25 -152 25q-147 0 -227 -105.5t-80 -300.5q0 -199 86 -311.5t238 -112.5q137 0 264 93l59 -121q-150 -96 -325 -96q-227 0 -356.5 141t-129.5 389zM268 -371l242 301h186l-276 -301h-152z " />
<glyph unicode="&#xe8;" horiz-adv-x="1085" d="M102 518q0 252 121 396.5t332 144.5q276 0 371 -228q55 -125 57 -354h-717q18 -193 99 -283t235 -90q145 0 285 99l59 -121q-162 -102 -346 -102q-231 0 -363.5 143t-132.5 395zM270 602h547q-4 162 -73.5 247t-194.5 85t-199 -88t-80 -244zM287 1497h198l250 -299h-149z " />
<glyph unicode="&#xe9;" horiz-adv-x="1085" d="M102 518q0 252 121 396.5t332 144.5q276 0 371 -228q55 -125 57 -354h-717q18 -193 99 -283t235 -90q145 0 285 99l59 -121q-162 -102 -346 -102q-231 0 -363.5 143t-132.5 395zM270 602h547q-4 162 -73.5 247t-194.5 85t-199 -88t-80 -244zM406 1198l249 299h199 l-299 -299h-149z" />
<glyph unicode="&#xea;" horiz-adv-x="1085" d="M102 518q0 252 121 396.5t332 144.5q276 0 371 -228q55 -125 57 -354h-717q18 -193 99 -283t235 -90q145 0 285 99l59 -121q-162 -102 -346 -102q-231 0 -363.5 143t-132.5 395zM244 1198l205 299h188l205 -299h-150l-149 201l-150 -201h-149zM270 602h547 q-4 162 -73.5 247t-194.5 85t-199 -88t-80 -244z" />
<glyph unicode="&#xeb;" horiz-adv-x="1085" d="M102 518q0 252 121 396.5t332 144.5q276 0 371 -228q55 -125 57 -354h-717q18 -193 99 -283t235 -90q145 0 285 99l59 -121q-162 -102 -346 -102q-231 0 -363.5 143t-132.5 395zM262 1352q0 45 30 73.5t77 28.5t76.5 -29.5t29.5 -77t-29.5 -77t-76.5 -29.5t-77 31t-30 80 zM270 602h547q-4 162 -73.5 247t-194.5 85t-199 -88t-80 -244zM651 1352q0 45 30 73.5t77 28.5t76.5 -29.5t29.5 -77t-29.5 -77t-76.5 -29.5t-77 31t-30 80z" />
<glyph unicode="&#xec;" horiz-adv-x="569" d="M-41 1497h199l250 -299h-150zM57 0v111l150 6v805l-150 6v110l305 11v-932l150 -6v-111h-455z" />
<glyph unicode="&#xed;" horiz-adv-x="569" d="M57 0v111l150 6v805l-150 6v110l305 11v-932l150 -6v-111h-455zM113 1198l249 299h199l-299 -299h-149z" />
<glyph unicode="&#xee;" horiz-adv-x="569" d="M-49 1198l205 299h188l205 -299h-150l-149 201l-150 -201h-149zM57 0v111l150 6v805l-150 6v110l305 11v-932l150 -6v-111h-455z" />
<glyph unicode="&#xef;" horiz-adv-x="569" d="M-37 1352q0 45 30 73.5t77 28.5t76.5 -29.5t29.5 -77t-29.5 -77t-76.5 -29.5t-77 31t-30 80zM57 0v111l150 6v805l-150 6v110l305 11v-932l150 -6v-111h-455zM352 1352q0 45 30 73.5t77 28.5t76.5 -29.5t29.5 -77t-29.5 -77t-76.5 -29.5t-77 31t-30 80z" />
<glyph unicode="&#xf0;" horiz-adv-x="1118" d="M109 487q0 229 115.5 367.5t307.5 138.5q111 0 207 -55q-84 154 -209 260l-270 -127l-41 90l223 105q-115 78 -211 114l64 131q154 -55 299 -174l274 131l41 -90l-235 -110q336 -340 336 -764q0 -246 -122 -385t-335 -139q-207 0 -325.5 134.5t-118.5 372.5zM272 494 q0 -180 77 -284t210 -104q156 0 225 132q61 113 62 260q0 172 -77 271t-210 99t-210 -100t-77 -274z" />
<glyph unicode="&#xf1;" horiz-adv-x="1247" d="M57 0v111l150 6v805l-150 6v110l301 11v-175q102 100 187.5 142.5t187.5 42.5q217 0 283 -176q33 -82 33 -260v-506l149 -6v-111h-455v111l150 6v506q0 152 -29 208q-45 102 -174 103q-168 0 -328 -195v-622l150 -6v-111h-455zM279 1237q12 98 63 153.5t129 55.5 q70 0 182 -43q80 -31 117 -31q82 0 92 86h105q-25 -211 -193 -211q-63 0 -174 41q-86 33 -127 33q-61 0 -88 -84h-106z" />
<glyph unicode="&#xf2;" horiz-adv-x="1161" d="M102 526q0 236 133.5 384.5t346.5 148.5t345 -149.5t132 -391.5t-132 -390t-347 -148t-346.5 149t-131.5 397zM266 522q0 -190 85 -304t228.5 -114t229.5 113t86 301.5t-86 302t-229 113.5q-141 0 -227.5 -113t-86.5 -299zM324 1497h198l250 -299h-149z" />
<glyph unicode="&#xf3;" horiz-adv-x="1161" d="M102 526q0 236 133.5 384.5t346.5 148.5t345 -149.5t132 -391.5t-132 -390t-347 -148t-346.5 149t-131.5 397zM266 522q0 -190 85 -304t228.5 -114t229.5 113t86 301.5t-86 302t-229 113.5q-141 0 -227.5 -113t-86.5 -299zM451 1198l249 299h199l-299 -299h-149z" />
<glyph unicode="&#xf4;" horiz-adv-x="1161" d="M102 526q0 236 133.5 384.5t346.5 148.5t345 -149.5t132 -391.5t-132 -390t-347 -148t-346.5 149t-131.5 397zM266 522q0 -190 85 -304t228.5 -114t229.5 113t86 301.5t-86 302t-229 113.5q-141 0 -227.5 -113t-86.5 -299zM283 1198l204 299h189l205 -299h-150l-149 201 l-150 -201h-149z" />
<glyph unicode="&#xf5;" horiz-adv-x="1161" d="M102 526q0 236 133.5 384.5t346.5 148.5t345 -149.5t132 -391.5t-132 -390t-347 -148t-346.5 149t-131.5 397zM238 1237q12 98 63 153.5t129 55.5q70 0 182 -43q80 -31 117 -31q82 0 92 86h105q-25 -211 -193 -211q-63 0 -174 41q-86 33 -127 33q-61 0 -88 -84h-106z M266 522q0 -190 85 -304t228.5 -114t229.5 113t86 301.5t-86 302t-229 113.5q-141 0 -227.5 -113t-86.5 -299z" />
<glyph unicode="&#xf6;" horiz-adv-x="1161" d="M102 526q0 236 133.5 384.5t346.5 148.5t345 -149.5t132 -391.5t-132 -390t-347 -148t-346.5 149t-131.5 397zM266 522q0 -190 85 -304t228.5 -114t229.5 113t86 301.5t-86 302t-229 113.5q-141 0 -227.5 -113t-86.5 -299zM281 1352q0 45 29.5 73.5t76.5 28.5t77 -29.5 t30 -77t-30 -77t-77 -29.5t-76.5 31t-29.5 80zM670 1352q0 45 29.5 73.5t76.5 28.5t77 -29.5t30 -77t-30 -77t-77 -29.5t-76.5 31t-29.5 80z" />
<glyph unicode="&#xf7;" horiz-adv-x="1179" d="M72 457v123h1036v-123h-1036zM477 190q0 47 33 79t80 32t79.5 -32.5t32.5 -80t-32.5 -80t-79.5 -32.5q-49 0 -81 31.5t-32 82.5zM477 852q0 47 33 79t80 32t79.5 -33t32.5 -80t-32.5 -80t-79.5 -33q-49 0 -81 32t-32 83z" />
<glyph unicode="&#xf8;" horiz-adv-x="1173" d="M82 27l129 141q-100 145 -100 352q0 242 132 390.5t347 148.5q186 0 317 -123l123 135l64 -57l-129 -144q102 -147 102 -352q0 -242 -132 -390t-347 -148q-193 0 -320 124l-123 -135zM274 520q0 -129 43 -233l494 542q-90 104 -223 105q-143 0 -228.5 -113t-85.5 -301z M365 211q88 -106 223 -107q143 0 229 114t86 300q0 133 -47 236z" />
<glyph unicode="&#xf9;" horiz-adv-x="1226" d="M49 928v110l305 11v-633q0 -150 27 -209q47 -102 170 -103q164 0 321 181v637l-149 6v110l305 11v-932l150 -6v-111h-291v162q-100 -98 -187.5 -140t-189.5 -42q-215 0 -281 176q-31 82 -30 268v498zM330 1497h198l250 -299h-149z" />
<glyph unicode="&#xfa;" horiz-adv-x="1226" d="M49 928v110l305 11v-633q0 -150 27 -209q47 -102 170 -103q164 0 321 181v637l-149 6v110l305 11v-932l150 -6v-111h-291v162q-100 -98 -187.5 -140t-189.5 -42q-215 0 -281 176q-31 82 -30 268v498zM463 1198l250 299h198l-299 -299h-149z" />
<glyph unicode="&#xfb;" horiz-adv-x="1226" d="M49 928v110l305 11v-633q0 -150 27 -209q47 -102 170 -103q164 0 321 181v637l-149 6v110l305 11v-932l150 -6v-111h-291v162q-100 -98 -187.5 -140t-189.5 -42q-215 0 -281 176q-31 82 -30 268v498zM293 1198l205 299h188l205 -299h-150l-149 201l-150 -201h-149z" />
<glyph unicode="&#xfc;" horiz-adv-x="1226" d="M49 928v110l305 11v-633q0 -150 27 -209q47 -102 170 -103q164 0 321 181v637l-149 6v110l305 11v-932l150 -6v-111h-291v162q-100 -98 -187.5 -140t-189.5 -42q-215 0 -281 176q-31 82 -30 268v498zM313 1352q0 45 30 73.5t77 28.5t76.5 -29.5t29.5 -77t-29.5 -77 t-76.5 -29.5t-77 31t-30 80zM702 1352q0 45 30 73.5t77 28.5t76.5 -29.5t29.5 -77t-29.5 -77t-76.5 -29.5t-77 31t-30 80z" />
<glyph unicode="&#xfd;" horiz-adv-x="1017" d="M-41 928v110h451v-110l-166 -6l192 -504l84 -238q49 143 88 244l187 498l-166 6v110h430v-110l-119 -6l-379 -1010q-78 -211 -161 -292t-218 -81q-72 0 -153 21l28 127q61 -23 115 -23q94 0 156.5 75t113.5 247l-364 936zM418 1198l250 299h198l-299 -299h-149z" />
<glyph unicode="&#xfe;" horiz-adv-x="1165" d="M37 -330l149 6v1704l-149 6v111l305 10v-624q84 96 153.5 136t157.5 40q176 0 290 -153.5t114 -395.5q0 -233 -115 -381.5t-295 -148.5q-186 0 -305 163v-467l170 -6v-110h-475v110zM342 299q98 -195 274 -195q127 0 202 111t75 299q0 193 -74 306.5t-201 113.5 q-154 0 -276 -197v-438z" />
<glyph unicode="&#xff;" horiz-adv-x="1017" d="M-41 928v110h451v-110l-166 -6l192 -504l84 -238q49 143 88 244l187 498l-166 6v110h430v-110l-119 -6l-379 -1010q-78 -211 -161 -292t-218 -81q-72 0 -153 21l28 127q61 -23 115 -23q94 0 156.5 75t113.5 247l-364 936zM227 1352q0 45 30 73.5t77 28.5t76.5 -29.5 t29.5 -77t-29.5 -77t-76.5 -29.5t-77 31t-30 80zM616 1352q0 45 30 73.5t77 28.5t76.5 -29.5t29.5 -77t-29.5 -77t-76.5 -29.5t-77 31t-30 80z" />
<glyph unicode="&#x100;" horiz-adv-x="1292" d="M-66 0v111l144 6l463 1300h207l466 -1300l144 -6v-111h-496v111l176 6l-133 379h-528l-133 -379l176 -6v-111h-486zM348 1602v118h596v-118h-596zM426 631h430l-127 373q-53 160 -86 274q-25 -86 -39 -127q0 -4 -49 -147z" />
<glyph unicode="&#x101;" horiz-adv-x="1058" d="M82 287q0 209 180 295q104 47 293 47q63 0 150 -4v28q0 147 -55.5 214t-180.5 67t-268 -90l-68 110q162 104 352 105q240 0 324 -141q31 -49 41 -114t10 -206v-481l150 -6v-111h-287l-6 121q-133 -141 -309 -141q-152 0 -239 82t-87 225zM211 1282v119h596v-119h-596z M246 289q0 -84 51 -134.5t137 -50.5q164 0 271 160v242q-45 4 -117 4q-176 0 -259 -53t-83 -168z" />
<glyph unicode="&#x102;" horiz-adv-x="1292" d="M-66 0v111l144 6l463 1300h207l466 -1300l144 -6v-111h-496v111l176 6l-133 379h-528l-133 -379l176 -6v-111h-486zM346 1845h135q16 -193 166 -192.5t166 192.5h133q-6 -147 -83 -225t-216 -78t-216 78t-85 225zM426 631h430l-127 373q-53 160 -86 274q-25 -86 -39 -127 q0 -4 -49 -147z" />
<glyph unicode="&#x103;" horiz-adv-x="1058" d="M82 287q0 209 180 295q104 47 293 47q63 0 150 -4v28q0 147 -55.5 214t-180.5 67t-268 -90l-68 110q162 104 352 105q240 0 324 -141q31 -49 41 -114t10 -206v-481l150 -6v-111h-287l-6 121q-133 -141 -309 -141q-152 0 -239 82t-87 225zM221 1497h135 q16 -193 166 -192.5t166 192.5h133q-6 -145 -84 -224t-215 -79t-215 79t-86 224zM246 289q0 -84 51 -134.5t137 -50.5q164 0 271 160v242q-45 4 -117 4q-176 0 -259 -53t-83 -168z" />
<glyph unicode="&#x104;" horiz-adv-x="1292" d="M-66 0v111l144 6l463 1300h207l466 -1300l144 -6v-111q-115 -74 -156 -111q-70 -70 -69 -135q0 -41 30.5 -66.5t77.5 -25.5q33 0 100 16l17 -98q-96 -27 -152 -26q-94 0 -152.5 48t-58.5 124q0 88 63.5 153.5t201.5 120.5h-398v111l176 6l-133 379h-528l-133 -379l176 -6 v-111h-486zM426 631h430l-127 373q-53 160 -86 274l-39 -127l-49 -147z" />
<glyph unicode="&#x105;" horiz-adv-x="1058" d="M82 287q0 209 180 295q104 47 293 47q63 0 150 -4v28q0 147 -55.5 214t-180.5 67t-268 -90l-68 110q162 104 352 105q240 0 324 -141q31 -49 41 -114t10 -206v-481l150 -6v-111q-115 -74 -156 -111q-70 -70 -70 -135q0 -41 31 -66.5t78 -25.5q33 0 100 16l17 -98 q-96 -27 -152 -26q-94 0 -152.5 48t-58.5 124q0 170 264 274h-188l-6 121q-133 -141 -309 -141q-152 0 -239 82t-87 225zM246 289q0 -84 51 -134.5t137 -50.5q164 0 271 160v242q-45 4 -117 4q-176 0 -259 -53t-83 -168z" />
<glyph unicode="&#x106;" horiz-adv-x="1189" d="M111 696q0 336 176 539t469 203q158 0 344 -62v-319h-146l-16 215q-94 31 -184 31q-209 0 -339 -168t-130 -439q0 -266 130 -423.5t347 -157.5q160 0 330 75l41 -131q-197 -80 -373 -79q-293 0 -471 197t-178 519zM592 1546l250 299h198l-299 -299h-149z" />
<glyph unicode="&#x107;" horiz-adv-x="987" d="M102 510q0 279 148 426q123 123 332 123q162 0 305 -55v-283h-146l-16 188q-82 25 -152 25q-147 0 -227 -105.5t-80 -300.5q0 -199 86 -311.5t238 -112.5q137 0 264 93l59 -121q-150 -96 -325 -96q-227 0 -356.5 141t-129.5 389zM424 1198l250 299h198l-299 -299h-149z " />
<glyph unicode="&#x108;" horiz-adv-x="1189" d="M111 696q0 336 176 539t469 203q158 0 344 -62v-319h-146l-16 215q-94 31 -184 31q-209 0 -339 -168t-130 -439q0 -266 130 -423.5t347 -157.5q160 0 330 75l41 -131q-197 -80 -373 -79q-293 0 -471 197t-178 519zM451 1546l204 299h189l205 -299h-150l-149 201 l-150 -201h-149z" />
<glyph unicode="&#x109;" horiz-adv-x="987" d="M102 510q0 279 148 426q123 123 332 123q162 0 305 -55v-283h-146l-16 188q-82 25 -152 25q-147 0 -227 -105.5t-80 -300.5q0 -199 86 -311.5t238 -112.5q137 0 264 93l59 -121q-150 -96 -325 -96q-227 0 -356.5 141t-129.5 389zM256 1198l205 299h188l205 -299h-149 l-150 201l-149 -201h-150z" />
<glyph unicode="&#x10a;" horiz-adv-x="1189" d="M111 696q0 336 176 539t469 203q158 0 344 -62v-319h-146l-16 215q-94 31 -184 31q-209 0 -339 -168t-130 -439q0 -266 130 -423.5t347 -157.5q160 0 330 75l41 -131q-197 -80 -373 -79q-293 0 -471 197t-178 519zM635 1700q0 45 29.5 73.5t76.5 28.5t77 -29.5t30 -76.5 t-30 -77t-77 -30t-76.5 31t-29.5 80z" />
<glyph unicode="&#x10b;" horiz-adv-x="987" d="M102 510q0 279 148 426q123 123 332 123q162 0 305 -55v-283h-146l-16 188q-82 25 -152 25q-147 0 -227 -105.5t-80 -300.5q0 -199 86 -311.5t238 -112.5q137 0 264 93l59 -121q-150 -96 -325 -96q-227 0 -356.5 141t-129.5 389zM469 1352q0 45 29.5 73.5t77 28.5 t77 -29.5t29.5 -77t-29.5 -77t-77 -29.5t-77 31t-29.5 80z" />
<glyph unicode="&#x10c;" horiz-adv-x="1189" d="M111 696q0 336 176 539t469 203q158 0 344 -62v-319h-146l-16 215q-94 31 -184 31q-209 0 -339 -168t-130 -439q0 -266 130 -423.5t347 -157.5q160 0 330 75l41 -131q-197 -80 -373 -79q-293 0 -471 197t-178 519zM436 1858h150l149 -201l150 201h149l-205 -299h-188z " />
<glyph unicode="&#x10d;" horiz-adv-x="987" d="M102 510q0 279 148 426q123 123 332 123q162 0 305 -55v-283h-146l-16 188q-82 25 -152 25q-147 0 -227 -105.5t-80 -300.5q0 -199 86 -311.5t238 -112.5q137 0 264 93l59 -121q-150 -96 -325 -96q-227 0 -356.5 141t-129.5 389zM256 1497h150l149 -201l150 201h149 l-205 -299h-188z" />
<glyph unicode="&#x10e;" horiz-adv-x="1380" d="M57 0v111l164 6v1183l-164 7v110h482q180 0 287.5 -22.5t191.5 -77.5q252 -174 252 -600t-252 -606q-88 -61 -199.5 -86t-302.5 -25h-459zM328 1858h149l150 -201l149 201h150l-205 -299h-189zM385 135h143q252 0 375 90q193 141 193 482q0 182 -56.5 317t-158.5 197 q-61 37 -136 49t-241 12h-119v-1147z" />
<glyph unicode="&#x10f;" horiz-adv-x="1300" d="M102 526q0 236 115 384.5t295 148.5q184 0 305 -164v485l-149 6v111l305 10v-1390l149 -6v-111h-293v158q-80 -102 -145.5 -140t-165.5 -38q-186 0 -301 150t-115 396zM266 522q0 -193 75 -305.5t204 -112.5q80 0 143.5 45.5t128.5 149.5v440q-98 195 -274 195 q-127 0 -202 -111t-75 -301zM1100 1049l141 458h182l-182 -458h-141z" />
<glyph unicode="&#x110;" horiz-adv-x="1380" d="M51 668v106h170v526l-164 7v110h482q180 0 287.5 -22.5t191.5 -77.5q252 -174 252 -600t-252 -606q-88 -61 -199.5 -86t-302.5 -25h-459v111l164 6v551h-170zM385 135h143q252 0 375 90q193 141 193 482q0 182 -56.5 317t-158.5 197q-61 37 -137 49t-240 12h-119v-508 h305v-106h-305v-533z" />
<glyph unicode="&#x111;" horiz-adv-x="1175" d="M102 526q0 236 114 384.5t294 148.5q186 0 307 -164v274h-291v119h291v92l-149 6v111l305 10v-219h149v-119h-149v-1052l149 -6v-111h-293v158q-80 -102 -145.5 -140t-165.5 -38q-186 0 -301 150t-115 396zM266 522q0 -193 75 -305.5t202 -112.5q82 0 145.5 45.5 t128.5 149.5v440q-98 195 -274 195q-127 0 -202 -111t-75 -301z" />
<glyph unicode="&#x112;" horiz-adv-x="1148" d="M57 0v111l164 6v1183l-164 7v110h932v-360h-145l-17 225h-442v-496h403v-135h-403v-516h473l16 225h146v-360h-963zM264 1602v118h596v-118h-596z" />
<glyph unicode="&#x113;" horiz-adv-x="1085" d="M102 518q0 252 121 396.5t332 144.5q276 0 371 -228q55 -125 57 -354h-717q18 -193 99 -283t235 -90q145 0 285 99l59 -121q-162 -102 -346 -102q-231 0 -363.5 143t-132.5 395zM246 1282v119h596v-119h-596zM270 602h547q-4 162 -73.5 247t-194.5 85t-199 -88t-80 -244z " />
<glyph unicode="&#x114;" horiz-adv-x="1148" d="M57 0v111l164 6v1183l-164 7v110h932v-360h-145l-17 225h-442v-496h403v-135h-403v-516h473l16 225h146v-360h-963zM289 1845h135q16 -193 165.5 -192.5t166.5 192.5h133q-6 -147 -83 -225t-216 -78t-216 78t-85 225z" />
<glyph unicode="&#x116;" horiz-adv-x="1148" d="M57 0v111l164 6v1183l-164 7v110h932v-360h-145l-17 225h-442v-496h403v-135h-403v-516h473l16 225h146v-360h-963zM483 1700q0 45 30 73.5t77 28.5t76.5 -29.5t29.5 -76.5t-29.5 -77t-76.5 -30t-77 31t-30 80z" />
<glyph unicode="&#x117;" horiz-adv-x="1085" d="M102 518q0 252 121 396.5t332 144.5q276 0 371 -228q55 -125 57 -354h-717q18 -193 99 -283t235 -90q145 0 285 99l59 -121q-162 -102 -346 -102q-231 0 -363.5 143t-132.5 395zM270 602h547q-4 162 -73.5 247t-194.5 85t-199 -88t-80 -244zM457 1352q0 45 29.5 73.5 t76.5 28.5t77 -29.5t30 -77t-30 -77t-77 -29.5t-76.5 31t-29.5 80z" />
<glyph unicode="&#x118;" horiz-adv-x="1148" d="M57 0v111l164 6v1183l-164 7v110h932v-360h-145l-17 225h-442v-496h403v-135h-403v-516h473l16 225h146v-360q-115 -74 -156 -111q-70 -70 -69 -135q0 -41 30.5 -66.5t77.5 -25.5q33 0 101 16l16 -98q-96 -27 -152 -26q-94 0 -152.5 48t-58.5 124q0 88 63.5 153.5 t201.5 120.5h-865z" />
<glyph unicode="&#x119;" horiz-adv-x="1085" d="M102 518q0 252 121 396.5t332 144.5q276 0 371 -228q55 -125 57 -354h-717q18 -193 99 -283t235 -90q145 0 285 99l59 -121q-129 -88 -291 -100q-113 -72 -153.5 -120t-40.5 -108q0 -41 29.5 -66.5t78.5 -25.5q31 0 99 16l16 -98q-96 -27 -150 -26q-94 0 -152 47t-58 125 q0 158 219 256q-207 18 -323 159t-116 377zM270 602h547q-4 162 -73.5 247t-194.5 85t-199 -88t-80 -244z" />
<glyph unicode="&#x11a;" horiz-adv-x="1148" d="M57 0v111l164 6v1183l-164 7v110h932v-360h-145l-17 225h-442v-496h403v-135h-403v-516h473l16 225h146v-360h-963zM291 1858h149l150 -201l149 201h150l-205 -299h-188z" />
<glyph unicode="&#x11b;" horiz-adv-x="1085" d="M102 518q0 252 121 396.5t332 144.5q276 0 371 -228q55 -125 57 -354h-717q18 -193 99 -283t235 -90q145 0 285 99l59 -121q-162 -102 -346 -102q-231 0 -363.5 143t-132.5 395zM244 1497h149l150 -201l149 201h150l-205 -299h-188zM270 602h547q-4 162 -73.5 247 t-194.5 85t-199 -88t-80 -244z" />
<glyph unicode="&#x11c;" horiz-adv-x="1386" d="M111 690q0 338 185 543t490 205q211 0 420 -70v-311h-145l-14 207q-141 39 -250 39q-264 0 -396 -191q-117 -172 -116 -420q0 -264 138 -420.5t370 -156.5q125 0 249 45v436l-188 6v111h506v-111l-154 -6v-535q-209 -82 -430 -81q-301 0 -483 194t-182 516zM487 1546 l205 299h189l204 -299h-149l-150 201l-149 -201h-150z" />
<glyph unicode="&#x11d;" horiz-adv-x="1175" d="M100 530q0 240 111 384.5t295 144.5q197 0 321 -180v170l299 -11v-110l-151 -6v-811q0 -170 -17.5 -254t-66.5 -150q-121 -168 -363 -168q-205 0 -391 113l66 121q158 -109 323 -109q188 0 256 156q37 82 37 276v86q-145 -164 -317 -164q-180 0 -291 141.5t-111 370.5z M264 532q0 -176 77 -282.5t204 -106.5q168 0 274 183v407q-106 201 -280 201q-125 0 -200 -110t-75 -292zM289 1198l205 299h188l205 -299h-150l-149 201l-150 -201h-149z" />
<glyph unicode="&#x11e;" horiz-adv-x="1386" d="M111 690q0 338 185 543t490 205q211 0 420 -70v-311h-145l-14 207q-141 39 -250 39q-264 0 -396 -191q-117 -172 -116 -420q0 -264 138 -420.5t370 -156.5q125 0 249 45v436l-188 6v111h506v-111l-154 -6v-535q-209 -82 -430 -81q-301 0 -483 194t-182 516zM485 1845h136 q16 -193 165.5 -192.5t165.5 192.5h133q-6 -147 -82.5 -225t-216 -78t-216.5 78t-85 225z" />
<glyph unicode="&#x11f;" horiz-adv-x="1175" d="M100 530q0 240 111 384.5t295 144.5q197 0 321 -180v170l299 -11v-110l-151 -6v-811q0 -170 -17.5 -254t-66.5 -150q-121 -168 -363 -168q-205 0 -391 113l66 121q158 -109 323 -109q188 0 256 156q37 82 37 276v86q-145 -164 -317 -164q-180 0 -291 141.5t-111 370.5z M264 532q0 -176 77 -282.5t204 -106.5q168 0 274 183v407q-106 201 -280 201q-125 0 -200 -110t-75 -292zM287 1497h135q16 -193 165.5 -192.5t166.5 192.5h133q-6 -145 -84 -224t-215 -79t-215 79t-86 224z" />
<glyph unicode="&#x120;" horiz-adv-x="1386" d="M111 690q0 338 185 543t490 205q211 0 420 -70v-311h-145l-14 207q-141 39 -250 39q-264 0 -396 -191q-117 -172 -116 -420q0 -264 138 -420.5t370 -156.5q125 0 249 45v436l-188 6v111h506v-111l-154 -6v-535q-209 -82 -430 -81q-301 0 -483 194t-182 516zM686 1700 q0 45 29.5 73.5t77 28.5t77 -29.5t29.5 -76.5t-29.5 -77t-77 -30t-77 31t-29.5 80z" />
<glyph unicode="&#x121;" horiz-adv-x="1175" d="M100 530q0 240 111 384.5t295 144.5q197 0 321 -180v170l299 -11v-110l-151 -6v-811q0 -170 -17.5 -254t-66.5 -150q-121 -168 -363 -168q-205 0 -391 113l66 121q158 -109 323 -109q188 0 256 156q37 82 37 276v86q-145 -164 -317 -164q-180 0 -291 141.5t-111 370.5z M264 532q0 -176 77 -282.5t204 -106.5q168 0 274 183v407q-106 201 -280 201q-125 0 -200 -110t-75 -292zM467 1352q0 45 29.5 73.5t77 28.5t77 -29.5t29.5 -77t-29.5 -77t-77 -29.5t-77 31t-29.5 80z" />
<glyph unicode="&#x122;" horiz-adv-x="1386" d="M119 690q0 338 185 543t491 205q211 0 419 -70v-311h-145l-14 207q-141 39 -250 39q-264 0 -395 -191q-117 -172 -117 -420q0 -264 138 -420.5t370 -156.5q125 0 250 45v436l-189 6v111h506v-111l-154 -6v-535q-209 -82 -430 -81q-301 0 -483 194t-182 516zM475 -371 l242 301h186l-276 -301h-152z" />
<glyph unicode="&#x123;" horiz-adv-x="1175" d="M100 530q0 240 111 384.5t295 144.5q197 0 321 -180v170l299 -11v-110l-151 -6v-811q0 -170 -17.5 -254t-66.5 -150q-121 -168 -363 -168q-205 0 -391 113l66 121q158 -109 323 -109q188 0 256 156q37 82 37 276v86q-145 -164 -317 -164q-180 0 -291 141.5t-111 370.5z M264 532q0 -176 77 -282.5t204 -106.5q168 0 274 183v407q-106 201 -280 201q-125 0 -200 -110t-75 -292zM449 1196l276 301h152l-242 -301h-186z" />
<glyph unicode="&#x124;" horiz-adv-x="1423" d="M57 0v111l164 6v1183l-164 7v110h492v-110l-164 -7v-507h682v507l-164 7v110h492v-110l-164 -7v-1183l164 -6v-111h-492v111l164 6v540h-682v-540l164 -6v-111h-492zM428 1546l205 299h188l205 -299h-149l-150 201l-149 -201h-150z" />
<glyph unicode="&#x125;" horiz-adv-x="1247" d="M-12 1587l205 299h188l205 -299h-150l-149 201l-150 -201h-149zM57 0v111l150 6v1263l-150 6v111l305 10v-628q98 96 184.5 138t186.5 42q217 0 283 -176q33 -82 33 -260v-506l149 -6v-111h-455v111l150 6v506q0 152 -29 208q-45 102 -174 103q-168 0 -328 -195v-622 l150 -6v-111h-455z" />
<glyph unicode="&#x126;" horiz-adv-x="1452" d="M57 0v111l164 6v858h-164v119h164v206l-164 7v110h492v-110l-164 -7v-206h682v206l-164 7v110h492v-110l-164 -7v-206h164v-119h-164v-858l164 -6v-111h-492v111l164 6v540h-682v-540l164 -6v-111h-492zM385 793h682v182h-682v-182z" />
<glyph unicode="&#x127;" horiz-adv-x="1247" d="M57 0v111l150 6v1040h-150v119h150v104l-150 6v111l305 10v-231h291v-119h-291v-278q98 98 183.5 139t187.5 41q217 0 283 -176q33 -82 33 -260v-506l149 -6v-111h-455v111l150 6v506q0 152 -29 208q-45 102 -174 103q-168 0 -328 -195v-622l150 -6v-111h-455z" />
<glyph unicode="&#x12a;" horiz-adv-x="577" d="M6 1602v118h596v-118h-596zM57 0v111l164 6v1183l-164 7v110h492v-110l-164 -7v-1183l164 -6v-111h-492z" />
<glyph unicode="&#x12b;" horiz-adv-x="569" d="M-33 1282v119h596v-119h-596zM57 0v111l150 6v805l-150 6v110l305 11v-932l150 -6v-111h-455z" />
<glyph unicode="&#x12d;" horiz-adv-x="569" d="M-51 1497h135q16 -193 165.5 -192.5t166.5 192.5h133q-6 -145 -84 -224t-215 -79t-215 79t-86 224zM57 0v111l150 6v805l-150 6v110l305 11v-932l150 -6v-111h-455z" />
<glyph unicode="&#x12e;" horiz-adv-x="577" d="M57 0v111l164 6v1183l-164 7v110h492v-110l-164 -7v-1183l164 -6v-111q-115 -74 -156 -111q-70 -70 -69 -135q0 -41 30.5 -66.5t77.5 -25.5q33 0 100 16l17 -98q-96 -27 -152 -26q-94 0 -152.5 48t-58.5 124q0 88 63.5 153.5t201.5 120.5h-394z" />
<glyph unicode="&#x12f;" horiz-adv-x="569" d="M57 0v111l150 6v805l-150 6v110l305 11v-932l150 -6v-111q-115 -72 -156 -111q-70 -68 -69 -135q0 -41 29.5 -66.5t78.5 -25.5q33 0 101 16l16 -98q-96 -27 -152 -26q-94 0 -152 48t-58 124q0 88 63 153.5t201 120.5h-357zM174 1409q0 47 32 78t79 31q49 0 79.5 -31 t30.5 -80t-30.5 -80t-79.5 -31t-80 31t-31 82z" />
<glyph unicode="&#x130;" horiz-adv-x="606" d="M57 0v111l164 6v1183l-164 7v110h492v-110l-164 -7v-1183l164 -6v-111h-492zM197 1700q0 45 29.5 73.5t76.5 28.5t77 -29.5t30 -76.5t-30 -77t-77 -30t-76.5 31t-29.5 80z" />
<glyph unicode="&#x131;" horiz-adv-x="569" d="M57 0v111l150 6v805l-150 6v110l305 11v-932l150 -6v-111h-455z" />
<glyph unicode="&#x134;" horiz-adv-x="786" d="M25 20l14 136q94 -41 192 -41q147 0 185 100q27 70 26 320v765l-184 7v110h500v-110l-152 -7v-837q0 -152 -14 -229.5t-53 -129.5q-88 -125 -291 -124q-119 -1 -223 40zM199 1546l204 299h189l205 -299h-150l-149 201l-150 -201h-149z" />
<glyph unicode="&#x135;" horiz-adv-x="569" d="M-49 -446l18 129q45 -12 86 -13q82 0 117 46t35 151v1055l-174 6v110l329 11v-1069q0 -246 -38 -314q-74 -127 -252 -127q-58 1 -121 15zM-49 1198l205 299h188l205 -299h-150l-149 201l-150 -201h-149z" />
<glyph unicode="&#x136;" horiz-adv-x="1232" d="M57 0v111l164 6v1183l-164 7v110h492v-110l-164 -7v-559l514 559l-149 7v110h471v-110l-121 -7l-514 -559l526 -624l133 -6v-111h-502v111l156 4l-514 616v-614l164 -6v-111h-492zM352 -371l242 301h186l-276 -301h-152z" />
<glyph unicode="&#x137;" horiz-adv-x="1048" d="M57 0v111l150 6v1263l-150 6v111l305 10v-917l351 332l-131 6v110h430v-110l-117 -6l-369 -344l385 -461l125 -6v-111h-409v111l94 4l-359 432v-430l150 -6v-111h-455zM287 -371l241 301h187l-277 -301h-151z" />
<glyph unicode="&#x139;" horiz-adv-x="1064" d="M57 0v111l164 6v1183l-164 7v110h508v-110l-180 -7v-1165h473l16 225h146v-360h-963zM236 1546l249 299h199l-299 -299h-149z" />
<glyph unicode="&#x13a;" horiz-adv-x="569" d="M57 0v111l150 6v1263l-150 6v111l305 10v-1390l150 -6v-111h-455zM133 1616l250 299h199l-299 -299h-150z" />
<glyph unicode="&#x13b;" horiz-adv-x="1036" d="M57 0v111l164 6v1183l-164 7v110h508v-110l-180 -7v-1165h473l16 225h146v-360h-963zM309 -371l242 301h186l-276 -301h-152z" />
<glyph unicode="&#x13c;" horiz-adv-x="569" d="M18 -371l242 301h186l-276 -301h-152zM57 0v111l150 6v1263l-150 6v111l305 10v-1390l150 -6v-111h-455z" />
<glyph unicode="&#x13d;" horiz-adv-x="1064" d="M57 0v111l164 6v1183l-164 7v110h508v-110l-180 -7v-1165h473l16 225h146v-360h-963zM639 1038l141 459h183l-183 -459h-141z" />
<glyph unicode="&#x13e;" horiz-adv-x="690" d="M57 0v111l150 6v1263l-150 6v111l305 10v-1390l150 -6v-111h-455zM489 1049l142 458h182l-182 -458h-142z" />
<glyph unicode="&#x141;" horiz-adv-x="1091" d="M78 520v125l170 129v526l-164 7v110h491v-110l-163 -7v-403l211 160v-125l-211 -160v-637h473l16 225h146v-360h-963v111l164 6v532z" />
<glyph unicode="&#x142;" horiz-adv-x="573" d="M39 551v125l170 131v573l-150 6v111l306 10v-579l170 133v-125l-170 -133v-686l149 -6v-111h-455v111l150 6v565z" />
<glyph unicode="&#x143;" horiz-adv-x="1486" d="M57 0v111l164 6v1183l-164 7v110h353l546 -903q72 -119 158 -281l-2 56q-2 14 -2 39v114v858l-164 7v110h484v-110l-164 -7v-1300h-191l-551 911q-74 121 -151 271q4 -100 4 -267v-798l164 -6v-111h-484zM606 1546l250 299h199l-299 -299h-150z" />
<glyph unicode="&#x144;" horiz-adv-x="1247" d="M57 0v111l150 6v805l-150 6v110l301 11v-175q102 100 187.5 142.5t187.5 42.5q217 0 283 -176q33 -82 33 -260v-506l149 -6v-111h-455v111l150 6v506q0 152 -29 208q-45 102 -174 103q-168 0 -328 -195v-622l150 -6v-111h-455zM494 1198l249 299h199l-299 -299h-149z" />
<glyph unicode="&#x145;" horiz-adv-x="1458" d="M57 0v111l164 6v1183l-164 7v110h353l546 -903q72 -119 158 -281l-2 56q-2 14 -2 39v114v858l-164 7v110h484v-110l-164 -7v-1300h-191l-551 911q-74 121 -151 271q4 -100 4 -267v-798l164 -6v-111h-484zM500 -371l241 301h187l-277 -301h-151z" />
<glyph unicode="&#x146;" horiz-adv-x="1247" d="M57 0v111l150 6v805l-150 6v110l301 11v-175q102 100 187.5 142.5t187.5 42.5q217 0 283 -176q33 -82 33 -260v-506l149 -6v-111h-455v111l150 6v506q0 152 -29 208q-45 102 -174 103q-168 0 -328 -195v-622l150 -6v-111h-455zM330 -371l241 301h187l-277 -301h-151z" />
<glyph unicode="&#x147;" horiz-adv-x="1486" d="M57 0v111l164 6v1183l-164 7v110h353l546 -903q72 -119 158 -281l-2 56q-2 14 -2 39v114v858l-164 7v110h484v-110l-164 -7v-1300h-191l-551 911q-74 121 -151 271q4 -100 4 -267v-798l164 -6v-111h-484zM444 1858h150l149 -201l150 201h149l-204 -299h-189z" />
<glyph unicode="&#x148;" horiz-adv-x="1247" d="M57 0v111l150 6v805l-150 6v110l301 11v-175q102 100 187.5 142.5t187.5 42.5q217 0 283 -176q33 -82 33 -260v-506l149 -6v-111h-455v111l150 6v506q0 152 -29 208q-45 102 -174 103q-168 0 -328 -195v-622l150 -6v-111h-455zM338 1497h149l150 -201l149 201h150 l-205 -299h-188z" />
<glyph unicode="&#x14c;" horiz-adv-x="1474" d="M111 717q0 156 52 302t144 247q160 172 430 172q307 0 475 -230q152 -209 152 -499q0 -344 -199 -555q-156 -174 -428 -174q-307 0 -475 229q-151 207 -151 508zM285 715q0 -279 120.5 -439.5t331.5 -160.5q209 0 331 159.5t122 434t-122 434.5t-331 160 q-207 0 -329.5 -159t-122.5 -429zM440 1602v118h596v-118h-596z" />
<glyph unicode="&#x14d;" horiz-adv-x="1161" d="M102 526q0 236 133.5 384.5t346.5 148.5t345 -149.5t132 -391.5t-132 -390t-347 -148t-346.5 149t-131.5 397zM266 522q0 -190 85 -304t228.5 -114t229.5 113t86 301.5t-86 302t-229 113.5q-141 0 -227.5 -113t-86.5 -299zM283 1282v119h596v-119h-596z" />
<glyph unicode="&#x150;" horiz-adv-x="1474" d="M111 717q0 156 52 302t144 247q160 172 430 172q307 0 475 -230q152 -209 152 -499q0 -344 -199 -555q-156 -174 -428 -174q-307 0 -475 229q-151 207 -151 508zM285 715q0 -279 120.5 -439.5t331.5 -160.5q209 0 331 159.5t122 434t-122 434.5t-331 160 q-207 0 -329.5 -159t-122.5 -429zM483 1546l209 299h191l-258 -299h-142zM803 1546l209 299h190l-258 -299h-141z" />
<glyph unicode="&#x151;" horiz-adv-x="1161" d="M102 526q0 236 133.5 384.5t346.5 148.5t345 -149.5t132 -391.5t-132 -390t-347 -148t-346.5 149t-131.5 397zM266 522q0 -190 85 -304t228.5 -114t229.5 113t86 301.5t-86 302t-229 113.5q-141 0 -227.5 -113t-86.5 -299zM326 1198l209 299h190l-258 -299h-141z M645 1198l209 299h190l-258 -299h-141z" />
<glyph unicode="&#x152;" horiz-adv-x="1933" d="M111 715q0 401 251 588q141 106 328 112q39 2 178 2h906v-360h-146l-16 225h-443v-496h555v-135h-555v-516h473l17 225h145v-360h-923q-233 0 -338 35q-205 63 -318.5 242.5t-113.5 437.5zM285 707q0 -330 182 -474q70 -53 162 -75.5t250 -22.5h127v1147h-127 q-199 0 -285 -27q-147 -47 -228 -191t-81 -357z" />
<glyph unicode="&#x153;" horiz-adv-x="1861" d="M109 520.5q0 241.5 132 390t347 148.5q244 0 385 -203q121 203 358 203q274 0 371 -228q53 -127 55 -354h-706q18 -193 97 -283t228 -90q143 0 283 99l59 -121q-160 -102 -344 -102q-264 0 -397 208q-147 -209 -389 -208q-215 0 -347 149.5t-132 391zM272 522 q0 -190 85 -304t228.5 -114t229.5 113t86 301.5t-86 302t-229 113.5q-141 0 -227.5 -113t-86.5 -299zM1055 602h536q-4 162 -72.5 247t-193.5 85q-121 0 -192.5 -88t-77.5 -244z" />
<glyph unicode="&#x154;" horiz-adv-x="1146" d="M57 0v111l164 6v1183l-164 7v110h465q221 0 334 -63q166 -98 166 -310q0 -139 -78 -231t-223 -125q84 -27 120 -70t95 -188l127 -313l139 -6v-111h-266l-150 354q-78 184 -136 229.5t-216 45.5h-49v-512l164 -6v-111h-492zM385 764h76q170 0 254 41q133 59 133 223 q0 154 -115 215q-78 39 -248 39h-100v-518zM416 1546l250 299h198l-299 -299h-149z" />
<glyph unicode="&#x155;" horiz-adv-x="753" d="M57 0v111l150 6v805l-150 6v110l295 11v-177q96 186 281 187q39 0 80 -10l-8 -138q-33 8 -62 9q-190 0 -281 -244v-559l170 -6v-111h-475zM252 1198l250 299h198l-299 -299h-149z" />
<glyph unicode="&#x156;" horiz-adv-x="1146" d="M57 0v111l164 6v1183l-164 7v110h465q221 0 334 -63q166 -98 166 -310q0 -139 -78 -231t-223 -125q84 -27 120 -70t95 -188l127 -313l139 -6v-111h-266l-150 354q-78 184 -136 229.5t-216 45.5h-49v-512l164 -6v-111h-492zM385 -371l242 301h186l-276 -301h-152zM385 764 h76q170 0 254 41q133 59 133 223q0 154 -115 215q-78 39 -248 39h-100v-518z" />
<glyph unicode="&#x157;" horiz-adv-x="753" d="M8 -371l242 301h186l-276 -301h-152zM57 0v111l150 6v805l-150 6v110l295 11v-177q96 186 281 187q39 0 80 -10l-8 -138q-33 8 -62 9q-190 0 -281 -244v-559l170 -6v-111h-475z" />
<glyph unicode="&#x158;" horiz-adv-x="1146" d="M57 0v111l164 6v1183l-164 7v110h465q221 0 334 -63q166 -98 166 -310q0 -139 -78 -231t-223 -125q84 -27 120 -70t95 -188l127 -313l139 -6v-111h-266l-150 354q-78 184 -136 229.5t-216 45.5h-49v-512l164 -6v-111h-492zM254 1858h149l150 -201l149 201h150l-205 -299 h-188zM385 764h76q170 0 254 41q133 59 133 223q0 154 -115 215q-78 39 -248 39h-100v-518z" />
<glyph unicode="&#x159;" horiz-adv-x="753" d="M57 0v111l150 6v805l-150 6v110l295 11v-177q96 186 281 187q39 0 80 -10l-8 -138q-33 8 -62 9q-190 0 -281 -244v-559l170 -6v-111h-475zM98 1497h150l149 -201l150 201h149l-204 -299h-189z" />
<glyph unicode="&#x15a;" horiz-adv-x="1110" d="M111 1044q0 186 121.5 290t338.5 104q170 0 373 -74v-307h-145l-15 192q-106 53 -217 54q-135 0 -210.5 -62.5t-75.5 -173.5q0 -94 55 -145.5t233 -122.5q158 -61 215.5 -90t104.5 -66q111 -86 110 -258q0 -186 -131 -295.5t-354 -109.5q-201 0 -397 86v294h145l17 -188 q119 -57 247 -57q135 0 219 69.5t84 182.5q0 98 -67 155q-59 47 -248 119q-217 84 -289 139q-114 90 -114 264zM459 1546l250 299h198l-299 -299h-149z" />
<glyph unicode="&#x15b;" horiz-adv-x="944" d="M104 754q0 145 100.5 225t280.5 80q158 0 316 -66v-272h-146l-14 182q-70 31 -154 31q-109 0 -167 -43t-58 -121q0 -80 68 -119q53 -29 188 -65q135 -41 184.5 -62.5t85.5 -60.5q61 -61 62 -172q0 -150 -105.5 -230.5t-298.5 -80.5q-174 0 -333 73v269h145l16 -179 q80 -39 183 -39q111 0 172 44.5t61 125.5q0 72 -49 109q-31 20 -201 72q-178 53 -243 100q-93 64 -93 199zM354 1198l250 299h199l-299 -299h-150z" />
<glyph unicode="&#x15c;" horiz-adv-x="1110" d="M111 1044q0 186 121.5 290t338.5 104q170 0 373 -74v-307h-145l-15 192q-106 53 -217 54q-135 0 -210.5 -62.5t-75.5 -173.5q0 -94 55 -145.5t233 -122.5q158 -61 215.5 -90t104.5 -66q111 -86 110 -258q0 -186 -131 -295.5t-354 -109.5q-201 0 -397 86v294h145l17 -188 q119 -57 247 -57q135 0 219 69.5t84 182.5q0 98 -67 155q-59 47 -248 119q-217 84 -289 139q-114 90 -114 264zM283 1546l204 299h189l205 -299h-150l-149 201l-150 -201h-149z" />
<glyph unicode="&#x15d;" horiz-adv-x="944" d="M104 754q0 145 100.5 225t280.5 80q158 0 316 -66v-272h-146l-14 182q-70 31 -154 31q-109 0 -167 -43t-58 -121q0 -80 68 -119q53 -29 188 -65q135 -41 184.5 -62.5t85.5 -60.5q61 -61 62 -172q0 -150 -105.5 -230.5t-298.5 -80.5q-174 0 -333 73v269h145l16 -179 q80 -39 183 -39q111 0 172 44.5t61 125.5q0 72 -49 109q-31 20 -201 72q-178 53 -243 100q-93 64 -93 199zM195 1198l204 299h189l205 -299h-150l-149 201l-150 -201h-149z" />
<glyph unicode="&#x15e;" horiz-adv-x="1110" d="M111 1044q0 186 121.5 290t338.5 104q170 0 373 -74v-307h-145l-15 192q-106 53 -217 54q-135 0 -210.5 -62.5t-75.5 -173.5q0 -94 55 -145.5t233 -122.5q158 -61 215.5 -90t104.5 -66q111 -86 110 -258q0 -186 -131 -295.5t-354 -109.5q-201 0 -397 86v294h145l17 -188 q119 -57 247 -57q135 0 219 69.5t84 182.5q0 98 -67 155q-59 47 -248 119q-217 84 -289 139q-114 90 -114 264zM244 -371l241 301h187l-277 -301h-151z" />
<glyph unicode="&#x15f;" horiz-adv-x="944" d="M104 754q0 145 100.5 225t280.5 80q158 0 316 -66v-272h-146l-14 182q-70 31 -154 31q-109 0 -167 -43t-58 -121q0 -80 68 -119q53 -29 188 -65q135 -41 184.5 -62.5t85.5 -60.5q61 -61 62 -172q0 -150 -105.5 -230.5t-298.5 -80.5q-174 0 -333 73v269h145l16 -179 q80 -39 183 -39q111 0 172 44.5t61 125.5q0 72 -49 109q-31 20 -201 72q-178 53 -243 100q-93 64 -93 199zM172 -371l242 301h186l-276 -301h-152z" />
<glyph unicode="&#x160;" horiz-adv-x="1110" d="M111 1044q0 186 121.5 290t338.5 104q170 0 373 -74v-307h-145l-15 192q-106 53 -217 54q-135 0 -210.5 -62.5t-75.5 -173.5q0 -94 55 -145.5t233 -122.5q158 -61 215.5 -90t104.5 -66q111 -86 110 -258q0 -186 -131 -295.5t-354 -109.5q-201 0 -397 86v294h145l17 -188 q119 -57 247 -57q135 0 219 69.5t84 182.5q0 98 -67 155q-59 47 -248 119q-217 84 -289 139q-114 90 -114 264zM291 1858h149l150 -201l149 201h150l-205 -299h-188z" />
<glyph unicode="&#x161;" horiz-adv-x="944" d="M104 754q0 145 100.5 225t280.5 80q158 0 316 -66v-272h-146l-14 182q-70 31 -154 31q-109 0 -167 -43t-58 -121q0 -80 68 -119q53 -29 188 -65q135 -41 184.5 -62.5t85.5 -60.5q61 -61 62 -172q0 -150 -105.5 -230.5t-298.5 -80.5q-174 0 -333 73v269h145l16 -179 q80 -39 183 -39q111 0 172 44.5t61 125.5q0 72 -49 109q-31 20 -201 72q-178 53 -243 100q-93 64 -93 199zM195 1497h149l150 -201l149 201h150l-205 -299h-189z" />
<glyph unicode="&#x163;" horiz-adv-x="722" d="M57 913v125h168v228l156 32v-260h246v-125h-246v-567q0 -137 30.5 -189.5t108.5 -52.5q55 0 121 33l14 -125q-90 -33 -168 -32q-143 0 -202.5 75.5t-59.5 259.5v598h-168zM129 -371l242 301h186l-276 -301h-152z" />
<glyph unicode="&#x164;" horiz-adv-x="1126" d="M8 1057v360h1110v-360h-145l-17 225h-315v-1165l225 -6v-111h-614v111l225 6v1165h-307l-18 -225h-144zM264 1858h150l149 -201l150 201h149l-205 -299h-188z" />
<glyph unicode="&#x165;" horiz-adv-x="780" d="M57 913v125h168v228l156 32v-260h246v-125h-246v-567q0 -137 30.5 -189.5t108.5 -52.5q55 0 121 33l14 -125q-90 -33 -168 -32q-143 0 -202.5 75.5t-59.5 259.5v598h-168zM592 1174l141 458h182l-182 -458h-141z" />
<glyph unicode="&#x16a;" horiz-adv-x="1406" d="M45 1307v110h492v-110l-164 -7v-743q0 -244 77.5 -343t266.5 -99q186 0 270 98t84 313v774l-164 7v110h484v-110l-164 -7v-675q0 -221 -16.5 -311.5t-69.5 -159.5q-131 -174 -424 -174q-328 0 -447 210q-37 66 -49 152t-12 283v675zM424 1602v118h596v-118h-596z" />
<glyph unicode="&#x16b;" horiz-adv-x="1226" d="M49 928v110l305 11v-633q0 -150 27 -209q47 -102 170 -103q164 0 321 181v637l-149 6v110l305 11v-932l150 -6v-111h-291v162q-100 -98 -187.5 -140t-189.5 -42q-215 0 -281 176q-31 82 -30 268v498zM301 1282v119h596v-119h-596z" />
<glyph unicode="&#x16d;" horiz-adv-x="1226" d="M49 928v110l305 11v-633q0 -150 27 -209q47 -102 170 -103q164 0 321 181v637l-149 6v110l305 11v-932l150 -6v-111h-291v162q-100 -98 -187.5 -140t-189.5 -42q-215 0 -281 176q-31 82 -30 268v498zM299 1497h135q16 -193 166 -192.5t166 192.5h133q-6 -145 -84 -224 t-215 -79t-215 79t-86 224z" />
<glyph unicode="&#x16e;" horiz-adv-x="1435" d="M45 1307v110h492v-110l-164 -7v-743q0 -244 77.5 -343t266.5 -99q186 0 270 98t84 313v774l-164 7v110h484v-110l-164 -7v-675q0 -221 -16.5 -311.5t-69.5 -159.5q-131 -174 -424 -174q-328 0 -447 210q-37 66 -49 152t-12 283v675zM518 1640q0 84 59.5 143.5t145.5 59.5 t144.5 -59.5t58.5 -145.5t-59.5 -145t-143.5 -59q-88 0 -146.5 59t-58.5 147zM604 1640q0 -55 33 -89.5t86 -34.5q51 0 84 34.5t33 88t-33 88t-84 34.5t-85 -35t-34 -86z" />
<glyph unicode="&#x16f;" horiz-adv-x="1226" d="M49 928v110l305 11v-633q0 -150 27 -209q47 -102 170 -103q164 0 321 181v637l-149 6v110l305 11v-932l150 -6v-111h-291v162q-100 -98 -187.5 -140t-189.5 -42q-215 0 -281 176q-31 82 -30 268v498zM389 1364q0 84 59.5 143.5t145.5 59.5t144.5 -59.5t58.5 -145.5 t-59.5 -145.5t-143.5 -59.5q-88 0 -146.5 59.5t-58.5 147.5zM475 1364q0 -55 33 -90t86 -35q51 0 84 35t33 88t-33 88t-84 35t-85 -35t-34 -86z" />
<glyph unicode="&#x170;" horiz-adv-x="1435" d="M45 1307v110h492v-110l-164 -7v-743q0 -244 77.5 -343t266.5 -99q186 0 270 98t84 313v774l-164 7v110h484v-110l-164 -7v-675q0 -221 -16.5 -311.5t-69.5 -159.5q-131 -174 -424 -174q-328 0 -447 210q-37 66 -49 152t-12 283v675zM463 1546l209 299h190l-258 -299h-141 zM782 1546l209 299h191l-258 -299h-142z" />
<glyph unicode="&#x171;" horiz-adv-x="1226" d="M49 928v110l305 11v-633q0 -150 27 -209q47 -102 170 -103q164 0 321 181v637l-149 6v110l305 11v-932l150 -6v-111h-291v162q-100 -98 -187.5 -140t-189.5 -42q-215 0 -281 176q-31 82 -30 268v498zM338 1198l209 299h190l-258 -299h-141zM657 1198l209 299h191 l-258 -299h-142z" />
<glyph unicode="&#x172;" horiz-adv-x="1406" d="M45 1307v110h492v-110l-164 -7v-743q0 -244 77.5 -343t266.5 -99q186 0 270 98t84 313v774l-164 7v110h484v-110l-164 -7v-675q0 -221 -16.5 -311.5t-69.5 -159.5q-96 -127 -279 -162q-121 -78 -166 -128t-45 -110q0 -41 30 -66.5t79 -25.5q31 0 98 16l16 -98 q-96 -27 -149 -26q-94 0 -152.5 48t-58.5 124q0 158 215 254q-242 0 -375 110q-121 100 -137 277q-8 82 -8 258v675z" />
<glyph unicode="&#x173;" horiz-adv-x="1226" d="M49 928v110l305 11v-633q0 -150 27 -209q47 -102 170 -103q164 0 321 181v637l-149 6v110l305 11v-932l150 -6v-111q-115 -74 -156 -111q-70 -70 -70 -135q0 -41 31 -66.5t78 -25.5q33 0 100 16l17 -98q-96 -27 -152 -26q-94 0 -152.5 48t-58.5 124q0 88 63.5 153.5 t200.5 120.5h-192v162q-100 -98 -187.5 -140t-189.5 -42q-215 0 -281 176q-31 82 -30 268v498z" />
<glyph unicode="&#x174;" horiz-adv-x="1775" d="M-37 1307v110h473v-110l-162 -7l179 -841q31 -147 57 -305q20 123 61 307l215 956h207l217 -950q41 -178 62 -303q18 115 59 299l182 837l-161 7v110h460v-110l-141 -7l-295 -1300h-209l-219 946q-37 164 -61 309q-16 -98 -64 -309l-217 -946h-211l-291 1300zM590 1546 l205 299h188l205 -299h-150l-149 201l-150 -201h-149z" />
<glyph unicode="&#x176;" horiz-adv-x="1163" d="M-59 1307v110h491v-110l-162 -7l222 -354q59 -96 96 -166l100 172l217 348l-160 7v110h478v-110l-138 -7l-421 -661v-522l180 -6v-111h-525v111l181 6v522l-422 661zM301 1546l205 299h188l205 -299h-149l-150 201l-149 -201h-150z" />
<glyph unicode="&#x177;" horiz-adv-x="1017" d="M-41 928v110h451v-110l-166 -6l192 -504l84 -238q49 143 88 244l187 498l-166 6v110h430v-110l-119 -6l-379 -1010q-78 -211 -161 -292t-218 -81q-72 0 -153 21l28 127q61 -23 115 -23q94 0 156.5 75t113.5 247l-364 936zM229 1198l205 299h189l204 -299h-149l-150 201 l-149 -201h-150z" />
<glyph unicode="&#x178;" horiz-adv-x="1163" d="M-59 1307v110h491v-110l-162 -7l222 -354q59 -96 96 -166l100 172l217 348l-160 7v110h478v-110l-138 -7l-421 -661v-522l180 -6v-111h-525v111l181 6v522l-422 661zM289 1700q0 45 29.5 73.5t76.5 28.5t77 -29.5t30 -76.5t-30 -77t-77 -30t-76.5 31t-29.5 80zM678 1700 q0 45 29.5 73.5t76.5 28.5t77 -29.5t30 -76.5t-30 -77t-77 -30t-76.5 31t-29.5 80z" />
<glyph unicode="&#x179;" horiz-adv-x="1196" d="M86 0v135l803 1147h-617l-16 -225h-145v360h964v-135l-799 -1147h660l18 225h144v-360h-1012zM461 1546l250 299h198l-299 -299h-149z" />
<glyph unicode="&#x17a;" horiz-adv-x="1011" d="M78 0v117l624 796h-436l-16 -192h-146v317h789v-125l-623 -788h486l16 197h146v-322h-840zM369 1198l249 299h199l-299 -299h-149z" />
<glyph unicode="&#x17b;" horiz-adv-x="1196" d="M86 0v135l803 1147h-617l-16 -225h-145v360h964v-135l-799 -1147h660l18 225h144v-360h-1012zM512 1700q0 45 29.5 73.5t77 28.5t77 -29.5t29.5 -76.5t-29.5 -77t-77 -30t-77 31t-29.5 80z" />
<glyph unicode="&#x17c;" horiz-adv-x="1011" d="M78 0v117l624 796h-436l-16 -192h-146v317h789v-125l-623 -788h486l16 197h146v-322h-840zM420 1352q0 45 29.5 73.5t76.5 28.5t77 -29.5t30 -77t-30 -77t-77 -29.5t-76.5 31t-29.5 80z" />
<glyph unicode="&#x17d;" horiz-adv-x="1196" d="M86 0v135l803 1147h-617l-16 -225h-145v360h964v-135l-799 -1147h660l18 225h144v-360h-1012zM313 1858h150l149 -201l150 201h149l-204 -299h-189z" />
<glyph unicode="&#x17e;" horiz-adv-x="1011" d="M78 0v117l624 796h-436l-16 -192h-146v317h789v-125l-623 -788h486l16 197h146v-322h-840zM221 1497h150l149 -201l150 201h149l-205 -299h-188z" />
<glyph unicode="&#x192;" horiz-adv-x="1179" d="M-27 16h146l14 -147q12 -4 29 -4q129 0 176 151q16 49 51 248l74 410h-197v119h217l33 188q43 248 122 342t243 94q86 0 190 -26v-273h-145l-19 168q-14 4 -35 4q-82 0 -127 -70.5t-77 -250.5l-31 -176h276v-119h-297l-88 -496q-29 -166 -46 -222t-52 -106 q-86 -115 -268 -114q-84 0 -189 24v256z" />
<glyph unicode="&#x1cd;" horiz-adv-x="1292" d="M-66 0v111l144 6l463 1300h207l466 -1300l144 -6v-111h-496v111l176 6l-133 379h-528l-133 -379l176 -6v-111h-486zM348 1858h150l149 -201l150 201h149l-205 -299h-188zM426 631h430l-127 373q-53 160 -86 274q-25 -86 -39 -127q0 -4 -49 -147z" />
<glyph unicode="&#x1ce;" horiz-adv-x="1058" d="M82 287q0 209 180 295q104 47 293 47q63 0 150 -4v28q0 147 -55.5 214t-180.5 67t-268 -90l-68 110q162 104 352 105q240 0 324 -141q31 -49 41 -114t10 -206v-481l150 -6v-111h-287l-6 121q-133 -141 -309 -141q-152 0 -239 82t-87 225zM203 1497h149l150 -201l149 201 h150l-205 -299h-188zM246 289q0 -84 51 -134.5t137 -50.5q164 0 271 160v242q-45 4 -117 4q-176 0 -259 -53t-83 -168z" />
<glyph unicode="&#x1d3;" horiz-adv-x="1406" d="M45 1307v110h492v-110l-164 -7v-743q0 -244 77.5 -343t266.5 -99q186 0 270 98t84 313v774l-164 7v110h484v-110l-164 -7v-675q0 -221 -16.5 -311.5t-69.5 -159.5q-131 -174 -424 -174q-328 0 -447 210q-37 66 -49 152t-12 283v675zM424 1858h149l150 -201l149 201h150 l-205 -299h-188z" />
<glyph unicode="&#x1e6;" horiz-adv-x="1386" d="M111 690q0 338 185 543t490 205q211 0 420 -70v-311h-145l-14 207q-141 39 -250 39q-264 0 -396 -191q-117 -172 -116 -420q0 -264 138 -420.5t370 -156.5q125 0 249 45v436l-188 6v111h506v-111l-154 -6v-535q-209 -82 -430 -81q-301 0 -483 194t-182 516zM487 1858h150 l149 -201l150 201h149l-204 -299h-189z" />
<glyph unicode="&#x1e7;" horiz-adv-x="1175" d="M100 530q0 240 111 384.5t295 144.5q197 0 321 -180v170l299 -11v-110l-151 -6v-811q0 -170 -17.5 -254t-66.5 -150q-121 -168 -363 -168q-205 0 -391 113l66 121q158 -109 323 -109q188 0 256 156q37 82 37 276v86q-145 -164 -317 -164q-180 0 -291 141.5t-111 370.5z M264 532q0 -176 77 -282.5t204 -106.5q168 0 274 183v407q-106 201 -280 201q-125 0 -200 -110t-75 -292zM289 1497h149l150 -201l149 201h150l-205 -299h-188z" />
<glyph unicode="&#x219;" horiz-adv-x="944" d="M104 754q0 145 100.5 225t280.5 80q158 0 316 -66v-272h-146l-14 182q-70 31 -154 31q-109 0 -167 -43t-58 -121q0 -80 68 -119q53 -29 188 -65q135 -41 184.5 -62.5t85.5 -60.5q61 -61 62 -172q0 -150 -105.5 -230.5t-298.5 -80.5q-174 0 -333 73v269h145l16 -179 q80 -39 183 -39q111 0 172 44.5t61 125.5q0 72 -49 109q-31 20 -201 72q-178 53 -243 100q-93 64 -93 199zM186 -371l242 301h186l-276 -301h-152z" />
<glyph unicode="&#x21a;" horiz-adv-x="1126" d="M8 1057v360h1110v-360h-145l-17 225h-315v-1165l225 -6v-111h-614v111l225 6v1165h-307l-18 -225h-144zM285 -371l241 301h187l-277 -301h-151z" />
<glyph unicode="&#x2bc;" horiz-adv-x="344" d="M14 1038l142 459h182l-182 -459h-142z" />
<glyph unicode="&#x2c6;" d="M213 1198l205 299h188l205 -299h-149l-150 201l-150 -201h-149z" />
<glyph unicode="&#x2c7;" d="M213 1497h149l150 -201l150 201h149l-205 -299h-188z" />
<glyph unicode="&#x2c9;" d="M215 1282v119h596v-119h-596z" />
<glyph unicode="&#x2d8;" d="M211 1497h135q16 -193 166 -192.5t166 192.5h133q-6 -145 -84 -224t-215 -79t-215 79t-86 224z" />
<glyph unicode="&#x2d9;" d="M406 1352q0 45 29.5 73.5t76.5 28.5t76.5 -29.5t29.5 -77t-29.5 -77t-76.5 -29.5t-76.5 31t-29.5 80z" />
<glyph unicode="&#x2da;" d="M307 1364q0 84 59.5 143.5t145.5 59.5t144.5 -59.5t58.5 -145.5t-59.5 -145.5t-143.5 -59.5q-88 0 -146.5 59.5t-58.5 147.5zM393 1364q0 -55 33 -90t86 -35q51 0 84 35t33 88t-33 88t-84 35t-85 -35t-34 -86z" />
<glyph unicode="&#x2db;" d="M229 -274q0 88 62.5 152.5t200.5 121.5h98q-104 -68 -154 -111q-70 -68 -69 -135q0 -41 29.5 -66.5t78.5 -25.5q31 0 98 16l17 -98q-96 -27 -150 -26q-94 0 -152.5 47t-58.5 125z" />
<glyph unicode="&#x2dc;" d="M168 1237q12 98 63.5 153.5t128.5 55.5q70 0 183 -43q80 -31 116 -31q82 0 93 86h104q-25 -211 -192 -211q-63 0 -175 41q-86 33 -127 33q-61 0 -88 -84h-106z" />
<glyph unicode="&#x2dd;" d="M258 1198l209 299h190l-258 -299h-141zM578 1198l208 299h191l-258 -299h-141z" />
<glyph unicode="&#x384;" d="M440 1182l107 336h186l-186 -336h-107z" />
<glyph unicode="&#x385;" d="M195 1352q0 39 26.5 64.5t67.5 25.5t67.5 -26.5t26.5 -67.5t-26.5 -68t-67.5 -27t-67.5 27t-26.5 72zM428 1522h168l-29 -338h-110zM641 1352q0 39 26.5 64.5t67.5 25.5t67.5 -26.5t26.5 -67.5t-26.5 -68t-67.5 -27t-67.5 27t-26.5 72z" />
<glyph unicode="&#x386;" horiz-adv-x="1341" d="M-23 0v111l144 6l463 1300h207l466 -1300l144 -6v-111h-496v111l176 6l-133 379h-528l-133 -379l176 -6v-111h-486zM59 999l107 418h186l-186 -418h-107zM469 631h430l-127 373q-49 141 -86 274l-39 -127q-4 -16 -49 -147z" />
<glyph unicode="&#x387;" horiz-adv-x="589" d="M174 573q0 51 35 85t86 34q53 0 87 -34.5t34 -86t-34 -86t-87 -34.5t-87 34.5t-34 87.5z" />
<glyph unicode="&#x388;" horiz-adv-x="1482" d="M-23 999l107 418h186l-186 -418h-107zM354 0v111l164 6v1183l-164 7v110h961v-360h-146l-16 225h-471v-496h432v-135h-432v-516h502l16 225h146v-360h-992z" />
<glyph unicode="&#x389;" horiz-adv-x="1757" d="M-23 999l107 418h186l-186 -418h-107zM354 0v111l164 6v1183l-164 7v110h492v-110l-164 -7v-507h682v507l-164 7v110h492v-110l-164 -7v-1183l164 -6v-111h-492v111l164 6v540h-682v-540l164 -6v-111h-492z" />
<glyph unicode="&#x38a;" horiz-adv-x="927" d="M-23 999l107 418h186l-186 -418h-107zM354 0v111l164 6v1183l-164 7v110h492v-110l-164 -7v-1183l164 -6v-111h-492z" />
<glyph unicode="&#x38c;" horiz-adv-x="1656" d="M-23 999l107 418h186l-186 -418h-107zM285 717q0 156 52 302t144 247q160 172 430 172q307 0 475 -230q152 -209 152 -499q0 -344 -199 -555q-156 -174 -428 -174q-307 0 -475 229q-151 207 -151 508zM459 715q0 -279 120.5 -439.5t331.5 -160.5q209 0 331 159.5t122 434 t-122 434.5t-331 160q-207 0 -329.5 -159t-122.5 -429z" />
<glyph unicode="&#x38e;" horiz-adv-x="1554" d="M-23 999l107 418h186l-186 -418h-107zM326 1307v110h491v-110l-162 -7l222 -354q59 -96 96 -166l100 172l217 348l-160 7v110h478v-110l-138 -7l-421 -661v-522l180 -6v-111h-524v111l180 6v522l-422 661z" />
<glyph unicode="&#x38f;" horiz-adv-x="1738" d="M-23 999l107 418h186l-186 -418h-107zM285 801q0 297 211 485q174 152 456 152q326 0 506 -201q162 -180 162 -436q0 -307 -209 -477q-72 -57 -223 -113v-76h78q190 0 346 29v-164h-565v311q205 51 302 168t97 314q0 238 -131 374t-362.5 136t-362.5 -136.5t-131 -373.5 q0 -197 97 -314t302 -168v-311h-565v164q156 -29 346 -29h78v76q-109 41 -167 74.5t-108 85.5q-157 168 -157 430z" />
<glyph unicode="&#x390;" horiz-adv-x="591" d="M-35 1352q0 39 26.5 64.5t67.5 25.5t68 -26.5t27 -67.5t-27 -68t-68 -27t-67.5 27t-26.5 72zM55 928v110l316 11q-10 -242 -11 -441v-301q0 -111 28 -153.5t97 -42.5q35 0 93 12l18 -129q-70 -14 -129 -14q-188 0 -240 143q-23 59 -22 276v523zM199 1522h168l-29 -338 h-111zM412 1352q0 39 26.5 64.5t67.5 25.5t67.5 -26.5t26.5 -67.5t-26.5 -68t-67.5 -27t-67.5 27t-26.5 72z" />
<glyph unicode="&#x391;" horiz-adv-x="1304" d="M-59 0v111l143 6l463 1300h207l467 -1300l143 -6v-111h-496v111l176 6l-133 379h-528l-133 -379l176 -6v-111h-485zM432 631h430l-127 373q-49 141 -86 274l-39 -127q-4 -16 -49 -147z" />
<glyph unicode="&#x392;" horiz-adv-x="1196" d="M63 0v111l164 6v1183l-164 7v110h414q268 0 383 -47q90 -35 139.5 -119t49.5 -200q0 -145 -68 -223t-219 -105q326 -37 325 -346q0 -236 -180 -324q-68 -35 -134 -44t-236 -9h-474zM391 133h103q238 0 311 41q109 55 108 221q0 172 -143 228q-80 33 -276 32h-103v-522z M391 782h103q207 0 282 45q98 61 98 205q0 156 -98 209q-78 43 -282 43h-103v-502z" />
<glyph unicode="&#x393;" horiz-adv-x="1046" d="M63 0v111l164 6v1183l-164 7v110h936v-360h-145l-16 225h-447v-1165l164 -6v-111h-492z" />
<glyph unicode="&#x394;" horiz-adv-x="1314" d="M47 0v127l508 1290h207l506 -1290v-127h-1221zM223 135h864l-325 850q-31 72 -105 293q-6 -16 -18 -53l-31 -92q-2 -6 -24.5 -67.5t-28.5 -74.5z" />
<glyph unicode="&#x395;" horiz-adv-x="1189" d="M63 0v111l164 6v1183l-164 7v110h961v-360h-145l-17 225h-471v-496h432v-135h-432v-516h502l16 225h146v-360h-992z" />
<glyph unicode="&#x396;" horiz-adv-x="1191" d="M92 0v135l787 1147h-600l-17 -225h-145v360h948v-135l-782 -1147h643l18 225h143v-360h-995z" />
<glyph unicode="&#x397;" horiz-adv-x="1464" d="M63 0v111l164 6v1183l-164 7v110h492v-110l-164 -7v-507h682v507l-164 7v110h492v-110l-164 -7v-1183l164 -6v-111h-492v111l164 6v540h-682v-540l164 -6v-111h-492z" />
<glyph unicode="&#x398;" horiz-adv-x="1486" d="M117 717q0 156 52 302t144 247q160 172 430 172q307 0 476 -230q152 -209 151 -499q0 -344 -199 -555q-156 -174 -428 -174q-307 0 -475 229q-151 207 -151 508zM291 715q0 -279 120.5 -439.5t331.5 -160.5q209 0 331 159.5t122 434t-122 434.5t-331 160 q-207 0 -329.5 -159t-122.5 -429zM465 651v135h557v-135h-557z" />
<glyph unicode="&#x399;" horiz-adv-x="651" d="M80 0v111l164 6v1183l-164 7v110h491v-110l-163 -7v-1183l163 -6v-111h-491z" />
<glyph unicode="&#x39a;" horiz-adv-x="1298" d="M63 0v111l164 6v1183l-164 7v110h492v-110l-164 -7v-559l549 559l-149 7v110h460v-110l-121 -7l-548 -559l561 -624l133 -6v-111h-492v111l156 6l-549 614v-614l164 -6v-111h-492z" />
<glyph unicode="&#x39b;" horiz-adv-x="1308" d="M-35 0v111l144 6l440 1300h207l444 -1300l143 -6v-111h-495v111l176 6l-291 887q-45 143 -82 274q-14 -45 -23 -79l-14 -48q-18 -66 -47 -147l-293 -887l177 -6v-111h-486z" />
<glyph unicode="&#x39c;" horiz-adv-x="1830" d="M63 0v111l164 6v1183l-164 7v110h390l401 -1073q47 -125 70 -197q49 147 67 197l391 1073h385v-110l-163 -7v-1183l163 -6v-111h-479v111l152 6v1079q-74 -231 -121 -360l-311 -836h-179l-319 825q-55 150 -127 371v-1079l152 -6v-111h-472z" />
<glyph unicode="&#x39d;" horiz-adv-x="1486" d="M63 0v111l164 6v1183l-164 7v110h340l547 -903q57 -94 158 -281q-4 86 -4 209v858l-164 7v110h483v-110l-163 -7v-1300h-179l-551 911q-74 121 -151 271q4 -100 4 -267v-798l164 -6v-111h-484z" />
<glyph unicode="&#x39e;" horiz-adv-x="1280" d="M135 0v360h146l16 -225h686l16 225h146v-360h-1010zM166 1057v360h948v-360h-145l-17 225h-624l-17 -225h-145zM260 651v135h760v-135h-760z" />
<glyph unicode="&#x39f;" horiz-adv-x="1486" d="M117 717q0 156 52 302t144 247q160 172 430 172q307 0 476 -230q152 -209 151 -499q0 -344 -199 -555q-156 -174 -428 -174q-307 0 -475 229q-151 207 -151 508zM291 715q0 -279 120.5 -439.5t331.5 -160.5q209 0 331 159.5t122 434t-122 434.5t-331 160 q-207 0 -329.5 -159t-122.5 -429z" />
<glyph unicode="&#x3a0;" horiz-adv-x="1411" d="M63 0v111l164 6v1183l-164 7v110h1285v-110l-164 -7v-1183l164 -6v-111h-492v111l164 6v1165h-629v-1165l164 -6v-111h-492z" />
<glyph unicode="&#x3a1;" horiz-adv-x="1124" d="M63 0v111l164 6v1183l-164 7v110h463q256 0 371 -76q164 -102 164 -337q0 -115 -49 -205t-138 -135q-125 -66 -368 -66h-115v-481l189 -6v-111h-517zM391 733h92q209 0 289 43q115 59 115 228q0 154 -101 223q-78 55 -278 55h-117v-549z" />
<glyph unicode="&#x3a3;" horiz-adv-x="1196" d="M100 0v135l486 600l-461 547v135h901v-360h-145l-17 225h-553l437 -508v-76l-469 -563h626l17 225h145v-360h-967z" />
<glyph unicode="&#x3a4;" horiz-adv-x="1204" d="M47 1057v360h1110v-360h-145l-17 225h-315v-1165l225 -6v-111h-614v111l225 6v1165h-307l-19 -225h-143z" />
<glyph unicode="&#x3a5;" horiz-adv-x="1175" d="M-53 1307v110h491v-110l-162 -7l222 -354q59 -96 96 -166l100 172l217 348l-159 7v110h477v-110l-137 -7l-422 -661v-522l180 -6v-111h-524v111l180 6v522l-422 661z" />
<glyph unicode="&#x3a6;" horiz-adv-x="1673" d="M117 708.5q0 249.5 174 407.5t473 178v125l-162 6v111h471v-111l-164 -6v-125q299 -20 474.5 -178t175.5 -407.5t-175.5 -407.5t-474.5 -178v-125l164 -6v-111h-471v111l162 6v125q-299 20 -473 178t-174 407.5zM285 708.5q0 -198.5 129 -323.5t350 -145v938 q-221 -20 -350 -145.5t-129 -324zM909 240q223 18 352.5 144t129.5 324.5t-129 324.5t-353 145v-938z" />
<glyph unicode="&#x3a7;" horiz-adv-x="1288" d="M-16 0v111l129 6l428 622l-377 561l-141 7v110h483v-110l-158 -7l307 -452l301 452l-151 7v110h465v-110l-142 -7l-387 -581l406 -602l145 -6v-111h-491v111l157 6l-331 493l-334 -493l166 -6v-111h-475z" />
<glyph unicode="&#x3a8;" horiz-adv-x="1808" d="M47 1307v110h328v-448q0 -156 25.5 -240t88.5 -137q76 -66 263 -66h69v774l-137 7v110h442v-110l-141 -7v-774h72q186 0 262 66q63 53 89 137t26 240v448h327v-110l-164 -7v-264q0 -240 -21.5 -334t-90.5 -170q-72 -76 -170 -108.5t-256 -32.5h-74v-274l207 -6v-111h-574 v111l203 6v274h-71q-156 0 -255.5 33t-170.5 108q-70 76 -91.5 170.5t-21.5 333.5v264z" />
<glyph unicode="&#x3a9;" horiz-adv-x="1568" d="M117 801q0 297 211 485q174 152 456 152q326 0 506 -201q162 -180 162 -436q0 -307 -209 -477q-72 -57 -223 -113v-76h78q190 0 346 29v-164h-565v311q205 51 302 168t97 314q0 238 -131 374t-362.5 136t-362.5 -136.5t-131 -373.5q0 -197 97 -314t302 -168v-311h-565 v164q156 -29 346 -29h78v76q-109 41 -167 74.5t-108 85.5q-157 168 -157 430z" />
<glyph unicode="&#x3aa;" horiz-adv-x="651" d="M25 1700q0 45 29.5 73.5t76.5 28.5t77 -29.5t30 -76.5t-30 -77t-77 -30t-76.5 31t-29.5 80zM80 0v111l164 6v1183l-164 7v110h491v-110l-163 -7v-1183l163 -6v-111h-491zM414 1700q0 45 29.5 73.5t76.5 28.5t77 -29.5t30 -76.5t-30 -77t-77 -30t-76.5 31t-29.5 80z" />
<glyph unicode="&#x3ab;" horiz-adv-x="1175" d="M-53 1307v110h491v-110l-162 -7l222 -354q59 -96 96 -166l100 172l217 348l-159 7v110h477v-110l-137 -7l-422 -661v-522l180 -6v-111h-524v111l180 6v522l-422 661zM293 1700q0 45 29.5 73.5t76.5 28.5t77 -29.5t30 -76.5t-30 -77t-77 -30t-76.5 31t-29.5 80zM682 1700 q0 45 29.5 73.5t77 28.5t77 -29.5t29.5 -76.5t-29.5 -77t-77 -30t-77 31t-29.5 80z" />
<glyph unicode="&#x3ac;" horiz-adv-x="1193" d="M106 508q0 258 111 404.5t305 146.5q123 0 206 -57.5t142 -184.5q14 113 33 230l150 -21q-43 -236 -43 -498q0 -297 84 -516l-158 -32q-33 106 -51 247q-70 -137 -155 -192t-220 -55q-195 0 -299.5 136t-104.5 392zM270 510q0 -406 265 -406q111 0 187.5 69t131.5 216 v186q-94 358 -317 359q-131 0 -199 -108.5t-68 -315.5zM502 1182l106 336h187l-187 -336h-106z" />
<glyph unicode="&#x3ad;" horiz-adv-x="1009" d="M106 510q0 281 140 430q117 119 317 119q166 0 338 -86v-232h-145l-17 162q-82 31 -161 31q-276 0 -306 -332h463v-125h-463q10 -176 95.5 -274.5t228.5 -98.5q147 0 287 95l59 -121q-160 -98 -348 -98q-231 0 -359.5 139t-128.5 391zM487 1182l107 336h186l-186 -336 h-107z" />
<glyph unicode="&#x3ae;" horiz-adv-x="1239" d="M63 928v110l302 11v-177q94 100 179 143.5t191 43.5q195 0 264 -144q43 -88 43 -315v-625q0 -276 11 -415h-166v1042q0 158 -21 221q-39 111 -174 111q-164 0 -323 -195v-739h-156v922zM549 1182l106 336h187l-187 -336h-106z" />
<glyph unicode="&#x3af;" horiz-adv-x="591" d="M55 928v110l316 11q-10 -242 -11 -441v-301q0 -111 28 -153.5t97 -42.5q35 0 93 12l18 -129q-70 -14 -129 -14q-188 0 -240 143q-23 59 -22 276v523zM225 1182l107 336h186l-186 -336h-107z" />
<glyph unicode="&#x3b0;" horiz-adv-x="1220" d="M55 928v110l316 11q-10 -262 -11 -367v-174q0 -244 50.5 -324t204 -80t203.5 80t50 324v414l-157 6v110l313 11v-541q0 -262 -47 -363q-74 -166 -363 -165q-150 0 -236.5 39.5t-127.5 125.5q-45 100 -45 363v414zM285 1352q0 39 26.5 64.5t67.5 25.5t67.5 -26.5 t26.5 -67.5t-26.5 -68t-67.5 -27t-67.5 27t-26.5 72zM518 1522h168l-29 -338h-110zM731 1352q0 39 26.5 64.5t67.5 25.5t68 -26.5t27 -67.5t-27 -68t-68 -27t-67.5 27t-26.5 72z" />
<glyph unicode="&#x3b1;" horiz-adv-x="1193" d="M106 508q0 258 111 404.5t305 146.5q123 0 206 -57.5t142 -184.5q14 113 33 230l150 -21q-43 -236 -43 -498q0 -297 84 -516l-158 -32q-33 106 -51 247q-70 -137 -155 -192t-220 -55q-195 0 -299.5 136t-104.5 392zM270 510q0 -406 265 -406q111 0 187.5 69t131.5 216 v186q-94 358 -317 359q-131 0 -199 -108.5t-68 -315.5z" />
<glyph unicode="&#x3b2;" horiz-adv-x="1183" d="M168 -440q10 190 10 456v1022q0 141 15.5 209t62.5 127q115 143 340 144q188 0 308 -102.5t120 -264.5q0 -137 -82 -224t-223 -104q168 -2 262 -92q121 -111 121 -303q0 -199 -125 -323.5t-324 -124.5q-94 0 -163.5 30.5t-155.5 108.5v-559h-166zM334 252 q152 -143 307 -143q137 0 217 86t80 235q0 152 -90 239t-250 87h-37v125q131 2 203 57q96 74 96 209q0 109 -73.5 177.5t-190.5 68.5q-170 0 -231 -129q-31 -68 -31 -242v-770z" />
<glyph unicode="&#x3b3;" horiz-adv-x="1019" d="M-68 1038l232 13q301 -518 348 -748q55 203 281 625h-123l-4 110l321 13v-66q-74 -125 -167 -313.5t-134 -290.5q-100 -248 -100 -545v-276h-166q10 96 10 225v59q0 154 -18.5 260.5t-65.5 235.5q-78 217 -283 588h-126z" />
<glyph unicode="&#x3b4;" horiz-adv-x="1144" d="M106 483q0 406 345 521q-127 68 -174.5 124t-47.5 144q0 246 340 246q174 0 365 -62l-37 -129q-158 66 -332 66q-186 0 -186 -119q0 -59 44 -99t208 -120q137 -68 207.5 -121t115.5 -121q84 -125 84 -324q0 -229 -127 -369t-336 -140q-219 0 -344 133.5t-125 369.5z M270 475q0 -172 81 -271.5t224 -99.5q137 0 218 101.5t81 275.5q0 164 -65 273q-31 51 -71 83.5t-132 82.5l-49 26q-287 -80 -287 -471z" />
<glyph unicode="&#x3b5;" horiz-adv-x="1009" d="M106 510q0 281 140 430q117 119 317 119q166 0 338 -86v-232h-145l-17 162q-82 31 -161 31q-276 0 -306 -332h463v-125h-463q10 -176 95.5 -274.5t228.5 -98.5q147 0 287 95l59 -121q-160 -98 -348 -98q-231 0 -359.5 139t-128.5 391z" />
<glyph unicode="&#x3b6;" horiz-adv-x="800" d="M106 344q0 469 578 1028h-195q-215 0 -360 14l10 125q129 -14 316 -14h344v-156q-123 -137 -172 -197.5t-117 -160.5q-129 -184 -185.5 -331.5t-56.5 -293.5q0 -111 36 -157.5t136 -71.5q199 -47 248 -78q98 -59 98 -207q0 -139 -92 -313l-129 57q72 145 72 234 q0 82 -47 119q-29 23 -131 47q-143 31 -184.5 46t-79.5 52q-89 82 -89 258z" />
<glyph unicode="&#x3b7;" horiz-adv-x="1239" d="M63 928v110l302 11v-177q94 100 179 143.5t191 43.5q195 0 264 -144q43 -88 43 -315v-625q0 -276 11 -415h-166v1042q0 158 -21 221q-39 111 -174 111q-164 0 -323 -195v-739h-156v922z" />
<glyph unicode="&#x3b8;" horiz-adv-x="1173" d="M125 756q0 348 126 555t337 207q213 0 337 -208t124 -565q0 -352 -125 -561q-117 -205 -338 -204q-217 0 -339 205.5t-122 570.5zM289 723q4 -301 80.5 -460t218.5 -159q139 0 216 160t81 459h-596zM291 848h592q-35 545 -295 545q-262 0 -297 -545z" />
<glyph unicode="&#x3b9;" horiz-adv-x="591" d="M55 928v110l316 11q-10 -242 -11 -441v-301q0 -111 28 -153.5t97 -42.5q35 0 93 12l18 -129q-70 -14 -129 -14q-188 0 -240 143q-23 59 -22 276v523z" />
<glyph unicode="&#x3ba;" horiz-adv-x="1126" d="M63 0v111l150 6v805l-150 6v110l306 11v-459l411 332l-127 6v110h430v-110l-116 -6l-435 -351l451 -454l125 -6v-111h-410v111l95 4l-424 432v-430l149 -6v-111h-455z" />
<glyph unicode="&#x3bb;" horiz-adv-x="1017" d="M29 0v53l411 998q-86 238 -159 331l-134 4v111l232 10q141 -201 293 -663l108 -322q98 -299 187 -405l125 -6v-111h-234q-121 147 -227 483l-125 400l-96 -260l-203 -512h139v-111h-317z" />
<glyph unicode="&#x3bc;" horiz-adv-x="1230" d="M55 928v110l305 11v-555q0 -184 27 -258q45 -131 196.5 -131.5t286.5 194.5v623l-149 6v110l305 11v-932l150 -6v-111h-295l-7 166q-78 -100 -149.5 -143t-157.5 -43q-125 0 -207 100v-520h-165q10 170 10 415v947z" />
<glyph unicode="&#x3bd;" horiz-adv-x="1134" d="M-2 928v110l262 13l250 -715l65 -201l78 205l234 582l-156 6v110l330 13v-72l-399 -979h-201l-316 922z" />
<glyph unicode="&#x3be;" horiz-adv-x="915" d="M125 412q0 229 147 340q61 45 164 63q-229 66 -229 277q0 102 56 168.5t179 111.5h-71q-135 0 -228 6l9 129q242 -10 335 -10h394v-125h-43q-471 0 -471 -260q0 -115 82.5 -178.5t232.5 -63.5h119v-125h-103q-205 0 -295 -67q-115 -84 -114 -264q0 -160 94 -230 q51 -37 182 -63q102 -23 144.5 -39t78.5 -51q72 -70 72 -187q0 -139 -92 -313l-129 57q72 150 72 238q0 78 -54 119q-31 27 -153 51q-170 35 -246 94q-133 103 -133 322z" />
<glyph unicode="&#x3bf;" horiz-adv-x="1169" d="M106 526q0 236 133.5 384.5t346.5 148.5t345 -149.5t132 -391.5t-132 -390t-347 -148t-346.5 149t-131.5 397zM270 522q0 -190 85 -304t228.5 -114t229.5 113t86 301.5t-86 302t-229 113.5q-141 0 -227.5 -113t-86.5 -299z" />
<glyph unicode="&#x3c0;" horiz-adv-x="1220" d="M18 913v125h1190v-125h-219v-571q0 -143 25.5 -188t105.5 -45q35 0 84 12l19 -121q-63 -20 -142 -20q-135 0 -191 70.5t-56 244.5v618h-453v-913h-156v913h-207z" />
<glyph unicode="&#x3c1;" horiz-adv-x="1202" d="M184 -440v901q0 266 88 405q121 193 369 193q207 0 331 -148.5t124 -396.5q0 -244 -120 -389t-323 -145q-197 0 -313 145v-211q0 -168 10 -354h-166zM340 299q100 -195 297 -195q137 0 216 110t79 304q0 193 -79 304.5t-214 111.5q-139 0 -219 -110.5t-80 -301.5v-223z " />
<glyph unicode="&#x3c2;" horiz-adv-x="980" d="M106 485q0 268 132.5 421t361.5 153q160 0 313 -80l-59 -123q-121 78 -254 78q-156 0 -243 -117t-87 -328q0 -143 53.5 -213.5t211.5 -136.5q162 -68 210 -114q74 -70 74 -170q0 -139 -92 -324l-129 57q72 164 72 248q0 66 -44 98.5t-249 116.5q-139 59 -205 162.5 t-66 271.5z" />
<glyph unicode="&#x3c3;" horiz-adv-x="1193" d="M106 520q0 244 125 391.5t334 147.5q49 0 166 -12q98 -8 117 -9h248v-127l-226 9q168 -150 168 -416q0 -248 -118.5 -386t-331.5 -138q-227 0 -354.5 142t-127.5 398zM270 520q0 -199 83 -307.5t233 -108.5q141 0 214.5 103.5t73.5 298.5q0 199 -81.5 313.5t-223 114.5 t-220.5 -109.5t-79 -304.5z" />
<glyph unicode="&#x3c4;" horiz-adv-x="884" d="M2 913v125h852v-125h-379v-571q0 -137 21 -176q27 -57 108 -57q55 0 125 26l21 -125q-102 -31 -181 -30q-137 0 -193.5 70.5t-56.5 244.5v618h-317z" />
<glyph unicode="&#x3c5;" horiz-adv-x="1220" d="M55 928v110l316 11q-10 -262 -11 -367v-174q0 -244 50.5 -324t204 -80t203.5 80t50 324v414l-157 6v110l313 11v-541q0 -262 -47 -363q-74 -166 -363 -165q-150 0 -236.5 39.5t-127.5 125.5q-45 100 -45 363v414z" />
<glyph unicode="&#x3c6;" horiz-adv-x="1449" d="M106 510q0 420 375 520l33 -106q-117 -49 -164 -109q-84 -100 -84 -301q0 -383 383 -412v953q57 4 92 4q289 0 439 -137q164 -154 163 -396q0 -152 -69.5 -274.5t-194.5 -188.5q-111 -57 -284 -75v-428h-146v428q-233 27 -354 108q-189 129 -189 414zM795 102 q188 16 288.5 127t100.5 297.5t-104.5 300t-284.5 121.5v-846z" />
<glyph unicode="&#x3c7;" horiz-adv-x="999" d="M-43 -375l455 746l-54 116q-180 379 -225 441h-125v110l228 13q61 -98 210 -416l80 -166l256 459h-127l-4 110l314 13v-66l-377 -647l176 -373q113 -238 180 -289l105 -6v-110h-185q-51 27 -107.5 110.5t-135.5 257.5l-148 314l-326 -572l123 -4v-106h-313v65z" />
<glyph unicode="&#x3c8;" horiz-adv-x="1503" d="M39 928v110l303 13q-53 -276 -53 -514q0 -244 83 -337.5t306 -95.5v824h-131v110l278 13v-947q221 4 305 96.5t84 336.5q0 180 -32 391h-131v110l262 13q57 -326 57 -533q0 -301 -116.5 -415.5t-428.5 -122.5v-420h-157q10 180 10 381v39q-311 8 -428 122.5t-117 415.5 q0 174 37 410h-131z" />
<glyph unicode="&#x3c9;" horiz-adv-x="1505" d="M98 928v110l308 13v-66q-135 -240 -136 -520q0 -360 211 -361q123 0 166 111q23 55 23 201v356h155v-356q0 -166 33 -223q49 -88 164 -89q113 0 161 86t48 287q0 238 -82 451h-127v110l264 13q102 -301 103 -570q0 -258 -87.5 -379.5t-269.5 -121.5q-190 0 -284 184 q-96 -184 -279 -184q-168 0 -262 123.5t-94 349.5q0 219 112 475h-127z" />
<glyph unicode="&#x3ca;" horiz-adv-x="591" d="M-31 1352q0 45 30 73.5t77 28.5t76.5 -29.5t29.5 -77t-29.5 -77t-76.5 -29.5t-77 31t-30 80zM55 928v110l316 11q-10 -242 -11 -441v-301q0 -111 28 -153.5t97 -42.5q35 0 93 12l18 -129q-70 -14 -129 -14q-188 0 -240 143q-23 59 -22 276v523zM358 1352q0 45 30 73.5 t77 28.5t76.5 -29.5t29.5 -77t-29.5 -77t-76.5 -29.5t-77 31t-30 80z" />
<glyph unicode="&#x3cb;" horiz-adv-x="1220" d="M55 928v110l316 11q-10 -262 -11 -367v-174q0 -244 50.5 -324t204 -80t203.5 80t50 324v414l-157 6v110l313 11v-541q0 -262 -47 -363q-74 -166 -363 -165q-150 0 -236.5 39.5t-127.5 125.5q-45 100 -45 363v414zM309 1352q0 45 30 73.5t77 28.5t76.5 -29.5t29.5 -77 t-29.5 -77t-76.5 -29.5t-77 31t-30 80zM698 1352q0 45 30 73.5t77 28.5t76.5 -29.5t29.5 -77t-29.5 -77t-76.5 -29.5t-77 31t-30 80z" />
<glyph unicode="&#x3cc;" horiz-adv-x="1169" d="M106 526q0 236 133.5 384.5t346.5 148.5t345 -149.5t132 -391.5t-132 -390t-347 -148t-346.5 149t-131.5 397zM270 522q0 -190 85 -304t228.5 -114t229.5 113t86 301.5t-86 302t-229 113.5q-141 0 -227.5 -113t-86.5 -299zM514 1182l107 336h186l-186 -336h-107z" />
<glyph unicode="&#x3cd;" horiz-adv-x="1220" d="M55 928v110l316 11q-10 -262 -11 -367v-174q0 -244 50.5 -324t204 -80t203.5 80t50 324v414l-157 6v110l313 11v-541q0 -262 -47 -363q-74 -166 -363 -165q-150 0 -236.5 39.5t-127.5 125.5q-45 100 -45 363v414zM524 1182l107 336h186l-186 -336h-107z" />
<glyph unicode="&#x3ce;" horiz-adv-x="1505" d="M98 928v110l308 13v-66q-135 -240 -136 -520q0 -360 211 -361q123 0 166 111q23 55 23 201v356h155v-356q0 -166 33 -223q49 -88 164 -89q113 0 161 86t48 287q0 238 -82 451h-127v110l264 13q102 -301 103 -570q0 -258 -87.5 -379.5t-269.5 -121.5q-190 0 -284 184 q-96 -184 -279 -184q-168 0 -262 123.5t-94 349.5q0 219 112 475h-127zM670 1182l106 336h187l-187 -336h-106z" />
<glyph unicode="&#x401;" horiz-adv-x="1169" d="M68 0v111l163 6v1183l-163 7v110h931v-360h-145l-16 225h-443v-496h404v-135h-404v-516h473l17 225h145v-360h-962zM285 1700q0 45 29.5 73.5t76.5 28.5t77 -29.5t30 -76.5t-30 -77t-77 -30t-76.5 31t-29.5 80zM674 1700q0 45 29.5 73.5t76.5 28.5t77 -29.5t30 -76.5 t-30 -77t-77 -30t-76.5 31t-29.5 80z" />
<glyph unicode="&#x402;" horiz-adv-x="1572" d="M18 1057v360h1076v-360h-144l-18 225h-316v-553q121 109 225.5 155t225.5 46q209 0 276 -152q43 -92 43 -327v-168q0 -242 -20 -362t-76 -195q-104 -147 -375 -166v131q188 14 254 137q53 100 54 432v184q0 207 -39 279t-154 72q-102 0 -196.5 -51.5t-217.5 -172.5v-454 l226 -6v-111h-615v111l226 6v1165h-273l-16 -225h-146z" />
<glyph unicode="&#x403;" horiz-adv-x="1054" d="M68 0v111l163 6v1183l-163 7v110h936v-360h-146l-16 225h-447v-1165l164 -6v-111h-491zM401 1546l250 299h199l-299 -299h-150z" />
<glyph unicode="&#x404;" horiz-adv-x="1173" d="M121 708.5q0 358.5 141 544t416 185.5q199 0 385 -92v-289h-145l-17 209q-113 37 -213 37q-188 0 -280.5 -120t-108.5 -390h647v-136h-651q16 -281 114.5 -411.5t290.5 -130.5q164 0 344 96l58 -123q-203 -109 -408 -108q-281 0 -427 185t-146 543.5z" />
<glyph unicode="&#x405;" horiz-adv-x="1130" d="M121 1044q0 186 122 290t339 104q170 0 372 -74v-307h-145l-14 192q-106 53 -217 54q-135 0 -211 -62.5t-76 -173.5q0 -94 55 -145.5t234 -122.5q158 -61 215 -90t104 -66q111 -86 111 -258q0 -186 -131 -295.5t-355 -109.5q-201 0 -397 86v294h145l17 -188 q119 -57 248 -57q135 0 219 69.5t84 182.5q0 98 -68 155q-59 47 -248 119q-217 84 -288 139q-115 90 -115 264z" />
<glyph unicode="&#x406;" horiz-adv-x="651" d="M80 0v111l164 6v1183l-164 7v110h491v-110l-163 -7v-1183l163 -6v-111h-491z" />
<glyph unicode="&#x407;" horiz-adv-x="606" d="M2 1700q0 45 29.5 73.5t77 28.5t77 -29.5t29.5 -76.5t-29.5 -77t-77 -30t-77 31t-29.5 80zM57 0v111l164 6v1183l-164 7v110h492v-110l-164 -7v-1183l164 -6v-111h-492zM391 1700q0 45 30 73.5t77 28.5t76.5 -29.5t29.5 -76.5t-29.5 -77t-76.5 -30t-77 31t-30 80z" />
<glyph unicode="&#x408;" horiz-adv-x="835" d="M35 20l14 136q94 -41 193 -41q147 0 184 100q27 70 27 320v765l-185 7v110h500v-110l-152 -7v-837q0 -152 -14 -229.5t-53 -129.5q-88 -125 -291 -124q-119 -1 -223 40z" />
<glyph unicode="&#x409;" horiz-adv-x="1798" d="M35 0v111q129 14 163.5 74.5t34.5 275.5v839l-161 7v110h1175v-110l-205 -7v-415h117q170 0 237.5 -11.5t133.5 -48.5q180 -106 180 -382.5t-180 -383.5q-66 -37 -133.5 -48t-237.5 -11h-444v111l164 6v1165h-486v-864q0 -158 -20.5 -232.5t-73.5 -119.5 q-74 -60 -264 -66zM1042 133h74q137 0 201.5 10.5t109.5 38.5q109 70 109 260.5t-109 259.5q-45 29 -109.5 39.5t-201.5 10.5h-74v-619z" />
<glyph unicode="&#x40a;" horiz-adv-x="1968" d="M68 0v111l163 6v1183l-163 7v110h491v-110l-164 -7v-456h600v456l-164 7v110h492v-110l-164 -7v-456h170q172 0 239.5 -10.5t131.5 -47.5q180 -100 180 -364t-180 -365q-63 -37 -132 -47t-239 -10h-498v111l164 6v594h-600v-594l164 -6v-111h-491zM1159 133h127 q233 0 311 45q109 68 109 244t-109 244q-78 45 -311 45h-127v-578z" />
<glyph unicode="&#x40b;" horiz-adv-x="1626" d="M18 1057v360h1076v-360h-144l-18 225h-316v-553q123 109 227.5 155t229.5 46q215 0 293 -146q45 -84 45 -313v-354l164 -6v-111h-508v111l180 6v346q0 195 -43 263.5t-168 68.5q-106 0 -202.5 -51.5t-217.5 -172.5v-454l181 -6v-111h-529v111l185 6v1165h-273l-16 -225 h-146z" />
<glyph unicode="&#x40c;" horiz-adv-x="1290" d="M68 0v111l163 6v1183l-163 7v110h491v-110l-164 -7v-526h140q98 0 157 64q39 39 101 178l127 284l-115 7v110h414v-110l-121 -7l-172 -354q-53 -111 -96.5 -153.5t-141.5 -75.5q156 -39 285 -264l186 -336l154 -6v-111h-283l-215 389q-109 193 -186 242q-43 31 -137 31 h-97v-545l164 -6v-111h-491zM518 1546l250 299h199l-299 -299h-150z" />
<glyph unicode="&#x40e;" horiz-adv-x="1208" d="M-29 1307v110h492v-110l-178 -7l235 -552l121 -295l111 288l225 559l-178 7v110h475v-110l-135 -7l-400 -962q-57 -139 -81.5 -184t-59.5 -84q-84 -90 -238 -90q-66 0 -122 14l22 131q49 -18 102 -19q76 0 118 37t81 138l-452 1019zM332 1817h135q16 -193 165.5 -193 t166.5 193h133q-6 -147 -83 -225.5t-216 -78.5t-216 78.5t-85 225.5z" />
<glyph unicode="&#x40f;" horiz-adv-x="1413" d="M68 0v111l163 6v1183l-163 7v110h491v-110l-164 -7v-1165h623v1165l-164 7v110h492v-110l-164 -7v-1183l164 -6v-111h-545l-29 -344h-131l-29 344h-544z" />
<glyph unicode="&#x410;" horiz-adv-x="1312" d="M-55 0v111l143 6l463 1300h207l467 -1300l143 -6v-111h-496v111l177 6l-134 379h-528l-133 -379l176 -6v-111h-485zM436 631h430l-127 373q-49 141 -86 274l-39 -127q-4 -16 -49 -147z" />
<glyph unicode="&#x411;" horiz-adv-x="1183" d="M68 0v111l163 6v1183l-163 7v110h911v-360h-145l-17 225h-422v-397h90q174 0 248 -11.5t141 -48.5q188 -104 189 -383q0 -276 -189 -383q-63 -35 -133.5 -47t-212.5 -12h-460zM395 133h90q207 0 289 49q115 70 115 260.5t-115 259.5q-82 49 -289 50h-90v-619z" />
<glyph unicode="&#x412;" horiz-adv-x="1175" d="M68 0v111l163 6v1183l-163 7v110h385q268 0 383 -47q90 -35 139 -119t49 -200q0 -145 -67.5 -223t-219.5 -105q326 -37 326 -346q0 -236 -180 -324q-68 -35 -134.5 -44t-236.5 -9h-444zM395 133h74q238 0 311 41q109 55 109 221q0 172 -144 228q-80 33 -276 32h-74v-522z M395 782h74q207 0 283 45q98 61 98 205q0 156 -98 209q-78 43 -283 43h-74v-502z" />
<glyph unicode="&#x413;" horiz-adv-x="1054" d="M68 0v111l163 6v1183l-163 7v110h936v-360h-146l-16 225h-447v-1165l164 -6v-111h-491z" />
<glyph unicode="&#x414;" horiz-adv-x="1316" d="M-35 135h150q78 129 114 379q49 328 50 709v75l-152 9v110h1110v-110l-150 -7v-1165h162v-479h-135l-27 344h-960l-27 -344h-135v479zM281 135h643v1147h-488v-92q0 -324 -47 -653q-38 -248 -108 -402z" />
<glyph unicode="&#x415;" horiz-adv-x="1169" d="M68 0v111l163 6v1183l-163 7v110h931v-360h-145l-16 225h-443v-496h404v-135h-404v-516h473l17 225h145v-360h-962z" />
<glyph unicode="&#x416;" horiz-adv-x="1826" d="M-23 0v111l154 6l186 336q129 231 285 264q-88 25 -135 66.5t-88 131.5l-186 385l-121 7v110h413v-110l-118 -7l145 -315q59 -131 109.5 -171t154.5 -40h58v526l-140 7v110h439v-110l-140 -7v-526h58q104 0 154 40t110 171l145 315l-119 7v110h414v-110l-121 -7 l-186 -385q-41 -90 -88 -132t-135 -66q156 -33 284 -264l187 -336l153 -6v-111h-282l-215 389q-104 190 -185 242q-45 31 -139 31h-35v-545l140 -6v-111h-439v111l140 6v545h-35q-94 0 -140 -31q-80 -51 -184 -242l-215 -389h-283z" />
<glyph unicode="&#x417;" horiz-adv-x="1134" d="M88 57l37 131q203 -78 369 -77q170 0 260 74.5t90 215.5q0 145 -107.5 214t-337.5 69q-63 0 -110 -4v135q49 -4 121 -4q195 0 305 72.5t110 201.5q0 106 -77.5 164t-223.5 58q-115 0 -245 -41l-15 -209h-145v293q215 88 413 88q219 0 339 -89t120 -253 q0 -131 -74.5 -221.5t-207.5 -120.5q141 -37 204 -99q96 -92 97 -252q0 -201 -134.5 -312t-373.5 -111q-209 -1 -414 77z" />
<glyph unicode="&#x418;" horiz-adv-x="1472" d="M68 0v111l163 6v1183l-163 7v110h491v-110l-164 -7v-925l682 891v34l-164 7v110h492v-110l-164 -7v-1183l164 -6v-111h-492v111l164 6v936l-682 -893v-43l164 -6v-111h-491z" />
<glyph unicode="&#x419;" horiz-adv-x="1472" d="M68 0v111l163 6v1183l-163 7v110h491v-110l-164 -7v-925l682 891v34l-164 7v110h492v-110l-164 -7v-1183l164 -6v-111h-492v111l164 6v936l-682 -893v-43l164 -6v-111h-491zM436 1817h135q16 -193 166 -193t166 193h133q-6 -147 -82.5 -225.5t-216 -78.5t-216.5 78.5 t-85 225.5z" />
<glyph unicode="&#x41a;" horiz-adv-x="1290" d="M68 0v111l163 6v1183l-163 7v110h491v-110l-164 -7v-526h140q98 0 157 64q39 39 101 178l127 284l-115 7v110h414v-110l-121 -7l-172 -354q-53 -111 -96.5 -153.5t-141.5 -75.5q156 -39 285 -264l186 -336l154 -6v-111h-283l-215 389q-109 193 -186 242q-43 31 -137 31 h-97v-545l164 -6v-111h-491z" />
<glyph unicode="&#x41b;" horiz-adv-x="1314" d="M35 0v111q129 14 163.5 74.5t34.5 275.5v839l-161 7v110h1175v-110l-164 -7v-1183l164 -6v-111h-491v111l164 6v1165h-527v-864q0 -158 -20.5 -232.5t-73.5 -119.5q-74 -60 -264 -66z" />
<glyph unicode="&#x41c;" horiz-adv-x="1839" d="M68 0v111l163 6v1183l-163 7v110h389l401 -1073q47 -125 70 -197q49 147 67 197l391 1073h386v-110l-164 -7v-1183l164 -6v-111h-480v111l152 6v1079q-74 -231 -121 -360l-311 -836h-178l-320 825q-55 150 -127 371v-1079l152 -6v-111h-471z" />
<glyph unicode="&#x41d;" horiz-adv-x="1472" d="M68 0v111l163 6v1183l-163 7v110h491v-110l-164 -7v-507h682v507l-164 7v110h492v-110l-164 -7v-1183l164 -6v-111h-492v111l164 6v540h-682v-540l164 -6v-111h-491z" />
<glyph unicode="&#x41e;" horiz-adv-x="1495" d="M121 717q0 156 52 302t144 247q160 172 431 172q307 0 475 -230q152 -209 151 -499q0 -344 -198 -555q-156 -174 -428 -174q-307 0 -476 229q-151 207 -151 508zM295 715q0 -279 121 -439.5t332 -160.5q209 0 330.5 159.5t121.5 434t-122 434.5t-330 160 q-207 0 -330 -159t-123 -429z" />
<glyph unicode="&#x41f;" horiz-adv-x="1460" d="M68 0v111l163 6v1183l-163 7v110h1325v-110l-164 -7v-1183l164 -6v-111h-492v111l164 6v1165h-670v-1165l164 -6v-111h-491z" />
<glyph unicode="&#x420;" horiz-adv-x="1107" d="M68 0v111l163 6v1183l-163 7v110h438q256 0 371 -76q164 -102 163 -337q0 -115 -49 -205t-137 -135q-125 -66 -369 -66h-90v-481l189 -6v-111h-516zM395 733h68q209 0 289 43q115 59 114 228q0 154 -100 223q-78 55 -279 55h-92v-549z" />
<glyph unicode="&#x421;" horiz-adv-x="1210" d="M121 696q0 336 176 539t469 203q158 0 344 -62v-319h-145l-17 215q-96 31 -184 31q-209 0 -339 -168t-130 -439q0 -266 130 -423.5t347 -157.5q160 0 330 75l41 -131q-197 -80 -373 -79q-293 0 -471 197t-178 519z" />
<glyph unicode="&#x422;" horiz-adv-x="1146" d="M18 1057v360h1110v-360h-145l-16 225h-316v-1165l226 -6v-111h-615v111l225 6v1165h-307l-18 -225h-144z" />
<glyph unicode="&#x423;" horiz-adv-x="1208" d="M-29 1307v110h492v-110l-178 -7l235 -552l121 -295l111 288l225 559l-178 7v110h475v-110l-135 -7l-400 -962q-57 -139 -81.5 -184t-59.5 -84q-84 -90 -238 -90q-66 0 -122 14l22 131q49 -18 102 -19q76 0 118 37t81 138l-452 1019z" />
<glyph unicode="&#x424;" horiz-adv-x="1681" d="M121 708.5q0 249.5 174 407.5t473 178v125l-162 6v111h471v-111l-164 -6v-125q299 -20 474.5 -178t175.5 -407.5t-175.5 -407.5t-474.5 -178v-125l164 -6v-111h-471v111l162 6v125q-299 20 -473 178t-174 407.5zM289 708.5q0 -198.5 129 -323.5t350 -145v938 q-221 -20 -350 -145.5t-129 -324zM913 240q223 18 352.5 144t129.5 324.5t-129 324.5t-353 145v-938z" />
<glyph unicode="&#x425;" horiz-adv-x="1296" d="M-12 0v111l129 6l428 622l-377 561l-141 7v110h483v-110l-158 -7l307 -452l302 452l-152 7v110h465v-110l-141 -7l-388 -581l406 -602l145 -6v-111h-491v111l158 6l-332 493l-334 -493l166 -6v-111h-475z" />
<glyph unicode="&#x426;" horiz-adv-x="1425" d="M68 0v111l163 6v1183l-163 7v110h491v-110l-164 -7v-1165h623v1165l-164 7v110h492v-110l-164 -7v-1165h176v-479h-135l-27 344h-1128z" />
<glyph unicode="&#x427;" horiz-adv-x="1361" d="M51 1307v110h471v-110l-164 -7v-485q0 -160 27 -221q47 -111 213 -111q188 0 369 195v622l-164 7v110h491v-110l-164 -7v-1183l164 -6v-111h-532v111l205 6v409q-193 -178 -418 -178q-223 0 -305 144q-49 86 -49 315v493z" />
<glyph unicode="&#x428;" horiz-adv-x="2035" d="M68 0v111l163 6v1183l-163 7v110h491v-110l-164 -7v-1165h541v1165l-148 7v110h459v-110l-147 -7v-1165h540v1165l-163 7v110h491v-110l-164 -7v-1183l164 -6v-111h-1900z" />
<glyph unicode="&#x429;" horiz-adv-x="2048" d="M68 0v111l163 6v1183l-163 7v110h491v-110l-164 -7v-1165h541v1165l-148 7v110h459v-110l-147 -7v-1165h540v1165l-163 7v110h491v-110l-164 -7v-1165h176v-479h-135l-26 344h-1751z" />
<glyph unicode="&#x42a;" horiz-adv-x="1421" d="M33 1057v360h796v-110l-163 -7v-415h116q170 0 237.5 -11.5t133.5 -48.5q180 -106 180 -382.5t-180 -383.5q-66 -37 -133.5 -48t-237.5 -11h-444v111l164 6v1165h-320l-16 -225h-133zM666 133h73q137 0 202 10.5t110 38.5q109 70 108.5 260.5t-108.5 259.5 q-45 29 -109.5 39.5t-202.5 10.5h-73v-619z" />
<glyph unicode="&#x42b;" horiz-adv-x="1691" d="M68 0v111l163 6v1183l-163 7v110h532v-110l-205 -7v-415h117q170 0 237.5 -11.5t133.5 -48.5q180 -106 180 -382.5t-180 -383.5q-66 -37 -133.5 -48t-237.5 -11h-444zM395 133h74q137 0 201.5 10.5t109.5 38.5q109 70 109 260.5t-109 259.5q-45 29 -109.5 39.5 t-201.5 10.5h-74v-619zM1133 0v111l163 6v1183l-163 7v110h491v-110l-164 -7v-1183l164 -6v-111h-491z" />
<glyph unicode="&#x42c;" horiz-adv-x="1150" d="M68 0v111l163 6v1183l-163 7v110h532v-110l-205 -7v-415h117q170 0 237.5 -11.5t133.5 -48.5q180 -106 180 -382.5t-180 -383.5q-66 -37 -133.5 -48t-237.5 -11h-444zM395 133h74q137 0 201.5 10.5t109.5 38.5q109 70 109 260.5t-109 259.5q-45 29 -109.5 39.5 t-201.5 10.5h-74v-619z" />
<glyph unicode="&#x42d;" horiz-adv-x="1173" d="M70 88l57 123q180 -96 344 -96q193 0 291 131t115 411h-652v136h647q-16 270 -108 390t-281 120q-100 0 -213 -37l-16 -209h-145v289q186 92 385 92q274 0 415.5 -185.5t141.5 -544t-146.5 -543.5t-427.5 -185q-208 -1 -407 108z" />
<glyph unicode="&#x42e;" horiz-adv-x="2027" d="M68 0v111l163 6v1183l-163 7v110h491v-110l-164 -7v-507h342q14 190 103 356q156 289 481 289q289 0 444 -230q141 -207 142 -499q0 -342 -185 -555q-147 -174 -401 -174q-322 0 -479 288q-98 184 -105 389h-342v-540l164 -6v-111h-491zM909 715q0 -281 109.5 -440.5 t302.5 -159.5q190 0 301 159.5t111 434t-111 434.5t-301 160q-188 0 -300 -159t-112 -429z" />
<glyph unicode="&#x42f;" horiz-adv-x="1220" d="M-53 0v111l139 6l127 313q59 145 95 188.5t120 69.5q-145 33 -223 125t-78 231q0 211 166 310q113 63 334 63h526v-110l-164 -7v-1183l164 -6v-111h-491v111l163 6v512h-110q-158 0 -216.5 -45t-136.5 -230l-149 -354h-266zM301 1028q0 -164 133 -223q84 -41 254 -41h137 v518h-161q-170 0 -248 -39q-115 -61 -115 -215z" />
<glyph unicode="&#x430;" horiz-adv-x="1079" d="M92 287q0 209 180 295q104 47 293 47q63 0 150 -4v28q0 147 -55.5 214t-180.5 67t-268 -90l-68 110q164 104 353 105q240 0 323 -141q31 -49 41 -114t10 -206v-481l150 -6v-111h-287l-6 121q-133 -141 -309 -141q-152 0 -239 82t-87 225zM256 289q0 -84 51 -134.5 t137 -50.5q162 0 271 160v242q-45 4 -117 4q-176 0 -259 -53t-83 -168z" />
<glyph unicode="&#x431;" horiz-adv-x="1136" d="M121 621q0 537 106 696q66 100 205 135q70 18 252 33q121 8 250 26l14 -120q-61 -10 -239 -27q-201 -16 -265.5 -41t-109.5 -106q-53 -102 -53 -345q84 104 155.5 145.5t173.5 41.5q188 0 302 -146.5t114 -390t-124 -393t-329 -149.5q-227 0 -350 174q-102 152 -102 467z M283 633q0 -248 55 -365q76 -164 237 -164q131 0 209 115t78 305.5t-73.5 300t-200.5 109.5q-178 0 -305 -234v-67z" />
<glyph unicode="&#x432;" horiz-adv-x="1132" d="M68 0v111l149 6v805l-149 6v110h565q358 0 358 -262q0 -86 -45 -138t-149 -89q125 -35 178 -93.5t53 -160.5q0 -141 -98.5 -218t-278.5 -77h-583zM373 121h266q106 0 165.5 47t59.5 131t-61.5 130t-175.5 46h-254v-354zM373 596h266q90 0 139 43t49 123q0 156 -215 156 h-239v-322z" />
<glyph unicode="&#x433;" horiz-adv-x="899" d="M68 0v111l149 6v805l-149 6v110h784v-317h-145l-17 192h-317v-796l149 -6v-111h-454z" />
<glyph unicode="&#x434;" horiz-adv-x="1167" d="M-31 125h135q164 250 172 797l-149 6v110h960v-110l-149 -6v-797h162v-428h-127l-21 303h-837l-21 -303h-125v428zM260 125h522v788h-366v-43q0 -100 -16.5 -245.5t-39.5 -233.5q-34 -137 -100 -266z" />
<glyph unicode="&#x435;" horiz-adv-x="1105" d="M113 518q0 252 120.5 396.5t331.5 144.5q276 0 371 -228q55 -125 57 -354h-717q18 -193 99.5 -283t234.5 -90q145 0 285 99l59 -121q-162 -102 -346 -102q-231 0 -363 143t-132 395zM281 602h546q-4 162 -73.5 247t-194.5 85t-198.5 -88t-79.5 -244z" />
<glyph unicode="&#x436;" horiz-adv-x="1576" d="M18 0v111l142 6l92 178q59 113 107.5 167t107.5 75q-70 31 -106.5 72.5t-92.5 152.5l-84 160l-131 6v110h404v-110l-117 -6l51 -105q70 -147 122 -185t183 -38h17v328l-109 6v110h369v-110l-109 -6v-328h17q131 0 183 38t122 185l51 105l-117 6v110h404v-110l-131 -6 l-84 -160q-55 -111 -92 -153t-107 -72q59 -20 107.5 -74.5t107.5 -167.5l92 -178l142 -6v-111h-252l-166 324q-47 94 -88 128.5t-103 34.5h-86v-370l109 -6v-111h-369v111l109 6v370h-86q-61 0 -102.5 -34.5t-88.5 -128.5l-166 -324h-252z" />
<glyph unicode="&#x437;" horiz-adv-x="958" d="M68 66l43 129q156 -90 325 -91q119 0 183.5 50.5t64.5 142.5q0 100 -83 145t-265 45q-43 0 -86 -4v127h12l23 -2q10 -2 51 -2q338 0 338 182q0 70 -54.5 109t-154.5 39q-102 0 -207 -37l-16 -158h-146v234q186 84 379 84q172 0 264 -68.5t92 -195.5q0 -174 -161 -244 q176 -53 176 -250q0 -158 -102.5 -239.5t-299.5 -81.5q-188 0 -376 86z" />
<glyph unicode="&#x438;" horiz-adv-x="1245" d="M68 0v111l149 6v805l-149 6v110h454v-110l-153 -6v-582l508 539v43l-154 6v110h455v-110l-150 -6v-805l150 -6v-111h-455v111l154 6v588l-508 -539v-49l153 -6v-111h-454z" />
<glyph unicode="&#x439;" horiz-adv-x="1245" d="M68 0v111l149 6v805l-149 6v110h454v-110l-153 -6v-582l508 539v43l-154 6v110h455v-110l-150 -6v-805l150 -6v-111h-455v111l154 6v588l-508 -539v-49l153 -6v-111h-454zM322 1464h135q16 -193 165.5 -192.5t165.5 192.5h134q-6 -145 -84 -224t-215.5 -79t-215 79 t-85.5 224z" />
<glyph unicode="&#x43a;" horiz-adv-x="1163" d="M68 0v111l149 6v805l-149 6v110h462v-110l-149 -6v-328h135q113 0 154 47q49 53 100 176l43 105l-127 6v110h420v-110l-131 -6l-72 -158q-47 -115 -87 -159t-124 -70q66 -23 111 -72t104 -168l92 -178l142 -6v-111h-260l-166 324q-47 94 -88 128.5t-103 34.5h-143v-370 l149 -6v-111h-462z" />
<glyph unicode="&#x43b;" horiz-adv-x="1120" d="M35 0v113q113 4 144.5 61t31.5 256v492l-150 6v110h992v-110l-150 -6v-805l150 -6v-111h-455v111l150 6v796h-388v-516q0 -156 -18 -228.5t-66 -111.5q-67 -55 -241 -57z" />
<glyph unicode="&#x43c;" horiz-adv-x="1546" d="M68 0v111l149 6v805l-149 6v110h348l321 -770q14 -33 43 -108l43 108l314 770h342v-110l-150 -6v-805l150 -6v-111h-439v111l148 6v747q-47 -154 -107 -297l-237 -567h-135l-246 569q-47 111 -111 301v-753l150 -6v-111h-434z" />
<glyph unicode="&#x43d;" horiz-adv-x="1251" d="M68 0v111l149 6v805l-149 6v110h454v-110l-149 -6v-328h506v328l-150 6v110h455v-110l-150 -6v-805l150 -6v-111h-455v111l150 6v352h-506v-352l149 -6v-111h-454z" />
<glyph unicode="&#x43e;" horiz-adv-x="1181" d="M113 526q0 236 133 384.5t346 148.5t345 -149.5t132 -391.5t-132 -390t-347 -148t-346 149t-131 397zM276 522q0 -190 85 -304t228.5 -114t229.5 113t86 301.5t-86 302t-229 113.5q-141 0 -227.5 -113t-86.5 -299z" />
<glyph unicode="&#x43f;" horiz-adv-x="1230" d="M68 0v111l149 6v805l-149 6v110h1095v-110l-149 -6v-805l149 -6v-111h-454v111l149 6v796h-485v-796l149 -6v-111h-454z" />
<glyph unicode="&#x440;" horiz-adv-x="1200" d="M68 -330l149 6v1246l-149 6v110l292 11v-168q131 178 318 178q180 0 294.5 -148.5t114.5 -384.5q0 -246 -114.5 -396t-302.5 -150q-94 0 -160 35.5t-137 125.5v-465l170 -6v-110h-475v110zM373 299q70 -106 131 -150.5t141 -44.5q129 0 204 113t75 305q0 190 -75 301 t-202 111q-162 0 -274 -191v-444z" />
<glyph unicode="&#x441;" horiz-adv-x="1007" d="M113 510q0 279 147 426q123 123 332 123q162 0 305 -55v-283h-145l-17 188q-84 25 -151 25q-147 0 -227.5 -105.5t-80.5 -300.5q0 -199 86.5 -311.5t237.5 -112.5q137 0 264 93l60 -121q-150 -96 -326 -96q-227 0 -356 141t-129 389z" />
<glyph unicode="&#x442;" horiz-adv-x="1050" d="M51 725v313h948v-313h-145l-12 188h-240v-796l178 -6v-111h-512v111l178 6v796h-237l-14 -188h-144z" />
<glyph unicode="&#x443;" horiz-adv-x="1038" d="M-31 928v110h451v-110l-166 -6l192 -504l84 -238q49 143 88 244l187 498l-166 6v110h430v-110l-119 -6l-379 -1010q-78 -211 -160.5 -292t-217.5 -81q-72 0 -154 21l29 127q61 -23 114 -23q94 0 156.5 75t114.5 247l-365 936z" />
<glyph unicode="&#x444;" horiz-adv-x="1658" d="M111 526q0 236 105.5 384.5t270.5 148.5q160 0 273 -152v473l-150 6v111l289 10v-600q109 152 272 152q166 0 271.5 -148.5t105.5 -384.5q0 -246 -105.5 -396t-275.5 -150q-86 0 -144 34.5t-124 126.5v-465l191 -6v-110h-521v110l191 6v465q-66 -92 -124 -126.5 t-144 -34.5q-170 0 -275.5 151t-105.5 395zM274 522q0 -193 67 -305.5t179 -112.5q72 0 125 44.5t115 150.5v444q-98 190 -242 191q-113 0 -178.5 -111t-65.5 -301zM899 299q61 -106 114.5 -150.5t125.5 -44.5q113 0 179 113t66 305q0 190 -65.5 301t-177.5 111 q-143 0 -242 -191v-444z" />
<glyph unicode="&#x445;" horiz-adv-x="1089" d="M27 0v111l106 6l313 430l-270 375l-110 6v110h413v-110l-119 -6l193 -269l192 269l-118 6v110h397v-110l-113 -6l-278 -381l307 -424l107 -6v-111h-433v111l144 6l-230 317l-223 -317l141 -6v-111h-419z" />
<glyph unicode="&#x446;" horiz-adv-x="1230" d="M68 0v111l149 6v805l-149 6v110h454v-110l-149 -6v-797h473v797l-150 6v110h455v-110l-150 -6v-797h162v-428h-127l-20 303h-948z" />
<glyph unicode="&#x447;" horiz-adv-x="1214" d="M51 928v110h455v-110l-150 -6v-289q0 -129 36 -175t136 -46q152 0 314 143v367l-150 6v110h455v-110l-150 -6v-805l150 -6v-111h-512v111l207 6v309q-92 -78 -168 -108.5t-178 -30.5q-186 0 -256 106q-39 61 -39 234v295z" />
<glyph unicode="&#x448;" horiz-adv-x="1753" d="M68 0v111l149 6v805l-149 6v110h442v-110l-137 -6v-797h426v797l-137 6v110h430v-110l-138 -6v-797h426v797l-137 6v110h443v-110l-150 -6v-805l150 -6v-111h-1618z" />
<glyph unicode="&#x449;" horiz-adv-x="1765" d="M68 0v111l149 6v805l-149 6v110h442v-110l-137 -6v-797h426v797l-137 6v110h430v-110l-138 -6v-797h426v797l-137 6v110h443v-110l-150 -6v-797h162v-428h-127l-21 303h-1482z" />
<glyph unicode="&#x44a;" horiz-adv-x="1259" d="M29 725v313h706v-110l-137 -6v-238h158q141 0 197.5 -8t107.5 -37q147 -78 147 -299q0 -217 -147 -295q-51 -29 -107.5 -37t-197.5 -8h-463v111l149 6v801h-256l-12 -193h-145zM598 123h129q178 0 240 37q82 49 82 182t-82 182q-61 37 -240 37h-129v-438z" />
<glyph unicode="&#x44b;" horiz-adv-x="1556" d="M68 0v111l149 6v805l-149 6v110h442v-110l-137 -6v-238h157q141 0 197.5 -8t108.5 -37q147 -78 147 -299q0 -217 -147 -295q-51 -29 -107.5 -37t-198.5 -8h-462zM373 123h129q178 0 239 37q82 49 82 182t-82 182q-61 37 -239 37h-129v-438zM1034 0v111l150 6v805l-150 6 v110h455v-110l-150 -6v-805l150 -6v-111h-455z" />
<glyph unicode="&#x44c;" horiz-adv-x="1036" d="M68 0v111l149 6v805l-149 6v110h442v-110l-137 -6v-238h157q141 0 197.5 -8t108.5 -37q147 -78 147 -299q0 -217 -147 -295q-51 -29 -107.5 -37t-198.5 -8h-462zM373 123h129q178 0 239 37q82 49 82 182t-82 182q-61 37 -239 37h-129v-438z" />
<glyph unicode="&#x44d;" horiz-adv-x="1017" d="M72 78l59 121q141 -94 289 -95q143 0 227 96.5t94 276.5h-483v125h483q-14 168 -90 250t-215 82q-80 0 -162 -31l-16 -162h-145v232q172 86 338 86q233 0 348 -158q109 -143 108 -391q0 -252 -128 -391t-359 -139q-192 0 -348 98z" />
<glyph unicode="&#x44e;" horiz-adv-x="1689" d="M68 0v111l149 6v805l-149 6v110h454v-110l-149 -6v-328h293q23 213 145.5 339t308.5 126q205 0 332 -148.5t127 -390t-126 -391t-331 -149.5q-250 0 -379 219q-63 106 -77 270h-293v-352l149 -6v-111h-454zM827 522q0 -190 80 -304t213 -114t214 113t81 301.5t-81 302 t-214 113.5t-213 -113t-80 -299z" />
<glyph unicode="&#x44f;" horiz-adv-x="1134" d="M0 0v111l123 6l76 168q45 100 67.5 134t59.5 52q-201 68 -201 274q0 168 135 244q90 49 275 49h532v-110l-149 -6v-805l149 -6v-111h-455v111l150 6v303h-166q-113 0 -153 -30t-91 -148l-104 -242h-248zM289 733q0 -102 68.5 -147t226.5 -45h178v372h-199 q-150 0 -212 -41t-62 -139z" />
<glyph unicode="&#x451;" horiz-adv-x="1105" d="M113 518q0 252 120.5 396.5t331.5 144.5q276 0 371 -228q55 -125 57 -354h-717q18 -193 99.5 -283t234.5 -90q145 0 285 99l59 -121q-162 -102 -346 -102q-231 0 -363 143t-132 395zM270 1352q0 45 30 73.5t77 28.5t76.5 -29.5t29.5 -77t-29.5 -77t-76.5 -29.5t-77 31 t-30 80zM281 602h546q-4 162 -73.5 247t-194.5 85t-198.5 -88t-79.5 -244zM659 1352q0 45 30 73.5t77 28.5t76.5 -29.5t29.5 -77t-29.5 -77t-76.5 -29.5t-77 31t-30 80z" />
<glyph unicode="&#x452;" horiz-adv-x="1210" d="M39 0v111l149 6v1040h-149v119h149v104l-149 6v111l305 10v-231h291v-119h-291v-280q92 96 179 139t192 43q221 0 286 -180q29 -74 29 -279v-317q0 -240 -20.5 -361t-73.5 -196q-104 -147 -369 -166v131q188 14 254 139q53 98 53 430v342q0 168 -24 227q-43 104 -174 105 q-174 0 -332 -195v-622l150 -6v-111h-455z" />
<glyph unicode="&#x453;" horiz-adv-x="899" d="M68 0v111l149 6v805l-149 6v110h784v-317h-145l-17 192h-317v-796l149 -6v-111h-454zM324 1198l249 299h199l-299 -299h-149z" />
<glyph unicode="&#x454;" horiz-adv-x="1017" d="M111 510q0 281 139 430q117 119 317 119q166 0 338 -86v-232h-145l-17 162q-82 31 -161 31q-276 0 -306 -332h463v-125h-463q10 -176 95.5 -274.5t228.5 -98.5q147 0 287 95l59 -121q-160 -98 -348 -98q-231 0 -359 139t-128 391z" />
<glyph unicode="&#x455;" horiz-adv-x="964" d="M115 754q0 145 100 225t281 80q158 0 315 -66v-272h-145l-15 182q-70 31 -153 31q-109 0 -167.5 -43t-58.5 -121q0 -80 68 -119q53 -29 188 -65q135 -41 184.5 -62.5t86.5 -60.5q61 -61 61 -172q0 -150 -105.5 -230.5t-297.5 -80.5q-174 0 -334 73v269h145l17 -179 q80 -39 182 -39q111 0 172 44.5t61 125.5q0 72 -49 109q-31 20 -200 72q-178 53 -244 100q-92 64 -92 199z" />
<glyph unicode="&#x456;" horiz-adv-x="589" d="M68 0v111l149 6v805l-149 6v110l305 11v-932l149 -6v-111h-454zM184 1409q0 47 32 78t79 31q49 0 80 -31t31 -80t-31 -80t-80 -31t-80 31t-31 82z" />
<glyph unicode="&#x457;" horiz-adv-x="569" d="M-35 1352q0 45 30 73.5t77 28.5t76.5 -29.5t29.5 -77t-29.5 -77t-76.5 -29.5t-77 31t-30 80zM57 0v111l150 6v805l-150 6v110l305 11v-932l150 -6v-111h-455zM354 1352q0 45 30 73.5t77 28.5t76.5 -29.5t29.5 -77t-29.5 -77t-76.5 -29.5t-77 31t-30 80z" />
<glyph unicode="&#x458;" horiz-adv-x="589" d="M-31 -446l19 131q51 -14 88 -15q80 0 114.5 46t34.5 151v1055l-174 6v110l330 11v-1069q0 -246 -39 -314q-74 -127 -254 -127q-62 1 -119 15zM193 1409q0 47 31.5 78t78.5 31q49 0 80 -31t31 -80t-31 -80t-80 -31t-79.5 31t-30.5 82z" />
<glyph unicode="&#x459;" horiz-adv-x="1566" d="M35 0v113q113 4 144.5 61t31.5 256v492l-150 6v110h979v-110l-137 -6v-238h158q141 0 197.5 -8t107.5 -37q147 -78 147 -299q0 -217 -147 -295q-51 -29 -107.5 -37t-197.5 -8h-463v111l150 6v796h-388v-516q0 -156 -18 -228.5t-66 -111.5q-71 -57 -241 -57zM903 123h129 q178 0 240 37q82 49 82 182t-82 182q-61 37 -240 37h-129v-438z" />
<glyph unicode="&#x45a;" horiz-adv-x="1675" d="M68 0v111l149 6v805l-149 6v110h454v-110l-149 -6v-287h477v287l-150 6v110h443v-110l-137 -6v-254h163q141 0 196.5 -8.5t109.5 -34.5q147 -78 147 -293q0 -209 -147 -289q-51 -27 -107.5 -35t-198.5 -8h-469v111l150 6v393h-477v-393l149 -6v-111h-454zM1006 123h135 q178 0 239 35q82 49 82 176t-82 176q-61 35 -239 35h-135v-422z" />
<glyph unicode="&#x45b;" horiz-adv-x="1267" d="M68 0v111l149 6v1040h-149v119h149v104l-149 6v111l305 10v-231h291v-119h-291v-278q98 98 183 139t187 41q217 0 283 -176q33 -82 33 -260v-506l149 -6v-111h-454v111l149 6v506q0 152 -29 208q-45 102 -174 103q-168 0 -327 -195v-622l149 -6v-111h-454z" />
<glyph unicode="&#x45c;" horiz-adv-x="1163" d="M68 0v111l149 6v805l-149 6v110h462v-110l-149 -6v-328h135q113 0 154 47q49 53 100 176l43 105l-127 6v110h420v-110l-131 -6l-72 -158q-47 -115 -87 -159t-124 -70q66 -23 111 -72t104 -168l92 -178l142 -6v-111h-260l-166 324q-47 94 -88 128.5t-103 34.5h-143v-370 l149 -6v-111h-462zM475 1198l250 299h199l-299 -299h-150z" />
<glyph unicode="&#x45e;" horiz-adv-x="1038" d="M-31 928v110h451v-110l-166 -6l192 -504l84 -238q49 143 88 244l187 498l-166 6v110h430v-110l-119 -6l-379 -1010q-78 -211 -160.5 -292t-217.5 -81q-72 0 -154 21l29 127q61 -23 114 -23q94 0 156.5 75t114.5 247l-365 936zM240 1464h135q16 -193 165.5 -192.5 t166.5 192.5h133q-6 -145 -84 -224t-215.5 -79t-215 79t-85.5 224z" />
<glyph unicode="&#x45f;" horiz-adv-x="1218" d="M68 0v111l149 6v805l-149 6v110h454v-110l-149 -6v-797h473v797l-150 6v110h455v-110l-150 -6v-805l150 -6v-111h-459l-20 -303h-125l-21 303h-458z" />
<glyph unicode="&#x490;" horiz-adv-x="1054" d="M68 0v111l163 6v1183l-163 7v110h774l39 256h143l-20 -391h-609v-1165l164 -6v-111h-491z" />
<glyph unicode="&#x491;" horiz-adv-x="899" d="M68 0v111l149 6v805l-149 6v110h622l41 232h146l-25 -357h-479v-796l149 -6v-111h-454z" />
<glyph unicode="&#x4c0;" horiz-adv-x="651" d="M80 0v111l164 6v1183l-164 7v110h491v-110l-163 -7v-1183l163 -6v-111h-491z" />
<glyph unicode="&#x1e84;" horiz-adv-x="1775" d="M-37 1307v110h473v-110l-162 -7l179 -841q31 -147 57 -305q20 123 61 307l215 956h207l217 -950q41 -178 62 -303q18 115 59 299l182 837l-161 7v110h460v-110l-141 -7l-295 -1300h-209l-219 946q-37 164 -61 309q-16 -98 -64 -309l-217 -946h-211l-291 1300zM588 1700 q0 45 29.5 73.5t76.5 28.5t77 -29.5t30 -76.5t-30 -77t-77 -30t-76.5 31t-29.5 80zM977 1700q0 45 29.5 73.5t76.5 28.5t77 -29.5t30 -76.5t-30 -77t-77 -30t-76.5 31t-29.5 80z" />
<glyph unicode="&#x2007;" horiz-adv-x="589" />
<glyph unicode="&#x2011;" horiz-adv-x="636" d="M82 510v125h473v-125h-473z" />
<glyph unicode="&#x2012;" horiz-adv-x="1179" d="M82 510v125h1016v-125h-1016z" />
<glyph unicode="&#x2013;" horiz-adv-x="1179" d="M82 510v125h1016v-125h-1016z" />
<glyph unicode="&#x2014;" horiz-adv-x="2048" d="M-41 510v125h2130v-125h-2130z" />
<glyph unicode="&#x2015;" horiz-adv-x="2048" d="M-41 510v125h2130v-125h-2130z" />
<glyph unicode="&#x2017;" d="M-33 -135h1090v-109h-1090v109zM-33 -342h1090v-109h-1090v109z" />
<glyph unicode="&#x2018;" horiz-adv-x="344" d="M6 1038l182 459h142l-142 -459h-182z" />
<glyph unicode="&#x2019;" horiz-adv-x="344" d="M14 1038l142 459h182l-182 -459h-142z" />
<glyph unicode="&#x201a;" horiz-adv-x="344" d="M-6 -254l141 459h182l-182 -459h-141z" />
<glyph unicode="&#x201c;" horiz-adv-x="663" d="M6 1038l182 459h142l-142 -459h-182zM326 1038l182 459h141l-141 -459h-182z" />
<glyph unicode="&#x201d;" horiz-adv-x="663" d="M14 1038l142 459h182l-182 -459h-142zM334 1038l141 459h182l-182 -459h-141z" />
<glyph unicode="&#x201e;" horiz-adv-x="663" d="M-6 -254l141 459h182l-182 -459h-141zM313 -254l142 459h182l-182 -459h-142z" />
<glyph unicode="&#x2020;" horiz-adv-x="1179" d="M131 903v135h375v379h164v-379h379v-135h-379v-1153h-164v1153h-375z" />
<glyph unicode="&#x2021;" horiz-adv-x="1179" d="M131 293v135h375v475h-375v135h375v379h164v-379h379v-135h-379v-475h379v-135h-379v-543h-164v543h-375z" />
<glyph unicode="&#x2022;" d="M219 725q0 119 87 205t208 86q123 0 209 -87t86 -208t-86 -208t-209 -87t-209 87t-86 212z" />
<glyph unicode="&#x2026;" horiz-adv-x="1769" d="M174 102q0 51 35 85t86 34q53 0 87 -34.5t34 -86t-34 -86t-87 -34.5t-87 34.5t-34 87.5zM764 102q0 51 35 85t86 34q53 0 87 -34.5t34 -86t-34 -86t-87.5 -34.5t-87 34.5t-33.5 87.5zM1354 102q0 51 34.5 85t86.5 34q53 0 86.5 -34.5t33.5 -86t-33.5 -86t-87 -34.5 t-87 34.5t-33.5 87.5z" />
<glyph unicode="&#x2030;" horiz-adv-x="2226" d="M76 1032q0 203 70.5 300.5t218 97.5t217 -97.5t69.5 -304.5t-69.5 -304t-219.5 -97q-147 0 -216.5 98t-69.5 307zM203 1032q0 -311 162 -311q160 0 159.5 307t-159.5 307q-162 0 -162 -303zM434 -41l559 1499h121l-559 -1499h-121zM893 393q0 203 70.5 300.5t218 97.5 t217 -97.5t69.5 -304.5t-69.5 -304t-218.5 -97q-147 0 -217 98t-70 307zM1020 393q0 -311 162 -311q160 0 159.5 307t-159.5 307q-162 0 -162 -303zM1575 393q0 203 70.5 300.5t218 97.5t217 -97.5t69.5 -304.5t-69.5 -304t-218.5 -97q-147 0 -217 98t-70 307zM1702 393 q0 -311 162 -311q160 0 159.5 307t-159.5 307q-162 0 -162 -303z" />
<glyph unicode="&#x2039;" horiz-adv-x="577" d="M68 510l317 426l107 -74l-240 -352l240 -352l-107 -72z" />
<glyph unicode="&#x203a;" horiz-adv-x="577" d="M86 160l240 352l-240 352l107 72l317 -424l-317 -426z" />
<glyph unicode="&#x203e;" d="M-33 1595v125h1090v-125h-1090z" />
<glyph unicode="&#x2044;" horiz-adv-x="163" d="M-258 -41l559 1499h121l-559 -1499h-121z" />
<glyph unicode="&#x2070;" horiz-adv-x="737" d="M82 1032q0 203 70.5 300.5t218 97.5t217 -97.5t69.5 -304.5t-69.5 -304t-218.5 -97q-147 0 -217 98t-70 307zM209 1032q0 -311 162 -311q160 0 159.5 307t-159.5 307q-162 0 -162 -303z" />
<glyph unicode="&#x2074;" horiz-adv-x="737" d="M63 840v110l347 467h135v-483h123v-94h-123v-201h-123v201h-359zM178 934h248v340z" />
<glyph unicode="&#x2075;" horiz-adv-x="737" d="M100 682l43 98q102 -59 183 -59q78 0 129 50t51 126q0 70 -45 110t-123 40q-84 0 -211 -48l16 418h455v-94h-338l-8 -197q59 14 113 15q125 0 196.5 -65.5t71.5 -180.5q0 -123 -82 -195.5t-221 -72.5q-117 0 -230 55z" />
<glyph unicode="&#x2076;" horiz-adv-x="737" d="M96 950q0 258 144 389q102 90 280 91q41 0 68 -5v-94q-27 4 -60 4q-238 0 -290 -252q72 55 161 56q115 0 184.5 -69t69.5 -183q0 -119 -74.5 -189.5t-199.5 -70.5q-283 -1 -283 323zM227 889q0 -72 42 -120t106 -48q66 0 108.5 48t42.5 117.5t-41 113.5t-106.5 44 t-108.5 -43.5t-43 -111.5z" />
<glyph unicode="&#x2077;" horiz-adv-x="737" d="M92 1200v217h545v-94l-346 -684h-144l353 684h-291l-10 -123h-107z" />
<glyph unicode="&#x2078;" horiz-adv-x="737" d="M86 850q0 72 40 117t128 71q-82 37 -116 82t-34 113q0 94 69 145.5t194 51.5q119 0 189.5 -51.5t70.5 -139.5q0 -66 -34 -107.5t-122 -84.5q98 -39 138 -84t40 -117q0 -96 -77.5 -157.5t-202.5 -61.5t-204 62.5t-79 160.5zM213 852q0 -55 45 -93t111 -38q63 0 108 36 t45 87q0 45 -41 79.5t-137 69.5q-131 -41 -131 -141zM231 1229q0 -41 35 -74t115 -68l12 7q106 57 107 137q0 47 -38 75.5t-97 28.5q-61 0 -97.5 -28.5t-36.5 -77.5z" />
<glyph unicode="&#x2079;" horiz-adv-x="737" d="M82 1169q0 119 74.5 190t199.5 71q283 0 283 -324q0 -258 -143 -389q-102 -90 -281 -90q-41 0 -68 4v94q27 -4 60 -4q238 0 291 252q-70 -55 -166 -55q-113 0 -181.5 69t-68.5 182zM209 1169q0 -70 41 -113.5t106.5 -43.5t108.5 44t43 111q0 74 -42 121t-107.5 47 t-107.5 -47t-42 -119z" />
<glyph unicode="&#x2080;" horiz-adv-x="737" d="M82 393q0 203 70.5 300.5t218 97.5t217 -97.5t69.5 -304.5t-69.5 -304t-218.5 -97q-147 0 -217 98t-70 307zM209 393q0 -311 162 -311q160 0 159.5 307t-159.5 307q-162 0 -162 -303z" />
<glyph unicode="&#x2081;" horiz-adv-x="737" d="M139 645l221 133h107v-692l119 -6v-80h-359v80l123 6v571l-164 -96z" />
<glyph unicode="&#x2082;" horiz-adv-x="737" d="M96 0v94q223 195 310.5 300.5t87.5 187.5q0 51 -40 82.5t-104 31.5q-88 0 -200 -69l-39 96q135 68 249 68q119 0 190 -54.5t71 -144.5q0 -70 -35 -136.5t-119 -158.5q-106 -113 -213 -203h373v-94h-531z" />
<glyph unicode="&#x2083;" horiz-adv-x="737" d="M92 27l27 98q117 -39 198 -39q76 0 125.5 40t49.5 101q0 63 -60.5 101.5t-163.5 38.5q-27 0 -69 -7v99q31 -4 67 -4q94 0 154.5 37.5t60.5 97.5q0 47 -40 76.5t-105 29.5q-78 0 -191 -43l-26 97q111 41 231.5 41t189 -51.5t68.5 -141.5q0 -133 -151 -184 q162 -41 161 -193q0 -104 -79.5 -168.5t-210.5 -64.5q-101 0 -236 39z" />
<glyph unicode="&#x2084;" horiz-adv-x="737" d="M63 201v110l347 467h135v-483h123v-94h-123v-201h-123v201h-359zM178 295h248v340z" />
<glyph unicode="&#x2085;" horiz-adv-x="737" d="M100 43l43 98q102 -59 183 -59q78 0 129 50t51 126q0 70 -45 110t-123 40q-84 0 -211 -48l16 418h455v-94h-338l-8 -197q59 14 113 15q125 0 196.5 -65.5t71.5 -180.5q0 -123 -82 -195.5t-221 -72.5q-117 0 -230 55z" />
<glyph unicode="&#x2086;" horiz-adv-x="737" d="M96 311q0 258 144 389q102 90 280 91q41 0 68 -5v-94q-27 4 -60 4q-238 0 -290 -252q72 55 161 56q115 0 184.5 -69t69.5 -183q0 -119 -74.5 -189.5t-199.5 -70.5q-283 -1 -283 323zM227 250q0 -72 42 -120t106 -48q66 0 108.5 48t42.5 117.5t-41 114t-106.5 44.5 t-108.5 -44t-43 -112z" />
<glyph unicode="&#x2087;" horiz-adv-x="737" d="M92 561v217h545v-94l-346 -684h-144l353 684h-291l-10 -123h-107z" />
<glyph unicode="&#x2088;" horiz-adv-x="737" d="M86 211q0 72 40 117t128 71q-82 37 -116 82t-34 113q0 94 69 145.5t194 51.5q119 0 189.5 -51.5t70.5 -139.5q0 -66 -34 -107.5t-122 -84.5q98 -39 138 -84t40 -117q0 -96 -77.5 -157.5t-202.5 -61.5t-204 62.5t-79 160.5zM213 213q0 -55 45 -93t111 -38q63 0 108 36 t45 87q0 45 -41 79.5t-137 69.5q-131 -41 -131 -141zM231 590q0 -41 35 -74t115 -67l12 6q106 57 107 137q0 47 -38 75.5t-97 28.5q-61 0 -97.5 -28.5t-36.5 -77.5z" />
<glyph unicode="&#x2089;" horiz-adv-x="737" d="M82 530q0 119 74.5 190t199.5 71q283 0 283 -324q0 -258 -143 -389q-102 -90 -281 -90q-41 0 -68 4v94q27 -4 60 -4q238 0 291 252q-70 -55 -166 -55q-113 0 -181.5 69t-68.5 182zM209 530q0 -70 41 -113.5t106.5 -43.5t108.5 44t43 111q0 74 -42 121t-107.5 47 t-107.5 -47t-42 -119z" />
<glyph unicode="&#x20ac;" horiz-adv-x="1179" d="M8 528l39 111h178q-2 27 -2 61q0 39 4 76h-219l39 111h195q51 260 207.5 405.5t384.5 145.5q160 0 331 -86l-49 -129q-152 84 -285 84q-326 0 -421 -420h591l-38 -111h-570q-4 -61 -4 -98q0 -23 2 -39h524l-38 -109h-476q66 -420 420 -419q158 0 318 75l41 -127 q-197 -80 -365 -79q-252 0 -401.5 141t-177.5 407h-228z" />
<glyph unicode="&#x2116;" horiz-adv-x="2301" d="M57 0v111l164 6v1183l-164 7v110h353l546 -903q72 -119 158 -281l-2 56q-2 14 -2 39v114v858l-164 7v110h484v-110l-164 -7v-1300h-191l-551 911q-74 121 -151 271q4 -100 4 -267v-798l164 -6v-111h-484zM1507 725q0 168 93.5 260t261.5 92q170 0 262 -92t92 -264 t-92 -264t-262 -92q-172 0 -263.5 93t-91.5 267zM1534 113v118h655v-118h-655zM1663 723q0 -117 52 -182.5t146.5 -65.5t146.5 64.5t52 181.5t-52 181.5t-146 64.5q-92 0 -145.5 -65.5t-53.5 -178.5z" />
<glyph unicode="&#x2122;" horiz-adv-x="1781" d="M20 1200v217h662v-217h-107l-10 123h-153v-598l102 -6v-80h-328v80l103 6v598h-152l-8 -123h-109zM713 639v80l90 6v606l-90 6v80h245l250 -653l246 653h242v-80l-92 -6v-606l92 -6v-80h-287v80l74 6v254q0 119 6 260q-37 -133 -82 -256l-135 -344h-133l-125 309 q-55 131 -101 291q6 -127 7 -260v-254l79 -6v-80h-286z" />
<glyph unicode="&#x2126;" horiz-adv-x="1415" d="M63 770q0 295 189 485q184 182 457 183q270 0 452 -183q188 -190 189 -485q0 -410 -351 -641h349v-129h-553v125q383 231 383 629q0 238 -133.5 393.5t-335.5 155.5q-205 0 -338 -156t-133 -393q0 -397 383 -629v-125h-555v129h348q-351 231 -351 641z" />
<glyph unicode="&#x2153;" horiz-adv-x="1638" d="M102 1284l222 133h106v-692l119 -6v-80h-359v80l123 6v571l-163 -96zM432 -41l559 1499h121l-559 -1499h-121zM952 27l27 98q117 -39 199 -39q76 0 125 40t49 101q0 63 -60.5 101.5t-163.5 38.5q-27 0 -69 -7v99q31 -4 67 -4q94 0 154.5 37.5t60.5 97.5q0 47 -39.5 76.5 t-105.5 29.5q-78 0 -190 -43l-27 97q111 41 231.5 41t189 -51.5t68.5 -141.5q0 -133 -151 -184q162 -41 162 -193q0 -104 -80 -168.5t-211 -64.5q-101 0 -236 39z" />
<glyph unicode="&#x2154;" horiz-adv-x="1638" d="M96 639v94q223 195 310.5 300.5t87.5 187.5q0 51 -40 82.5t-104 31.5q-88 0 -200 -69l-39 96q135 68 249 68q119 0 190 -54.5t71 -144.5q0 -70 -35 -136.5t-119 -158.5q-106 -113 -213 -203h373v-94h-531zM479 -41l559 1499h121l-559 -1499h-121zM991 27l27 98 q117 -39 199 -39q76 0 125 40t49 101q0 63 -60.5 101.5t-163.5 38.5q-27 0 -69 -7v99q31 -4 67 -4q94 0 154.5 37.5t60.5 97.5q0 47 -40 76.5t-105 29.5q-76 0 -191 -43l-26 97q111 41 231.5 41t189 -51.5t68.5 -141.5q0 -133 -151 -184q162 -41 162 -193q0 -104 -80 -168.5 t-211 -64.5q-101 0 -236 39z" />
<glyph unicode="&#x215b;" horiz-adv-x="1638" d="M98 1284l221 133h107v-692l119 -6v-80h-359v80l123 6v571l-164 -96zM424 -41l559 1499h121l-559 -1499h-121zM946 211q0 72 40 117t128 71q-80 39 -113.5 83t-33.5 112q0 94 68.5 145.5t191.5 51.5q119 0 189.5 -51.5t70.5 -139.5q0 -66 -34 -107.5t-122 -84.5 q98 -41 139 -86.5t41 -114.5q0 -96 -78.5 -157.5t-203.5 -61.5t-204 62.5t-79 160.5zM1073 213q0 -55 45 -93t113 -38q63 0 108 36t45 87q0 47 -40.5 80.5t-139.5 68.5q-131 -41 -131 -141zM1094 590q0 -41 33.5 -74t113.5 -67l12 6q49 25 78 62.5t29 74.5q0 47 -38 75.5 t-97.5 28.5t-95 -28.5t-35.5 -77.5z" />
<glyph unicode="&#x215c;" horiz-adv-x="1638" d="M92 666l27 98q117 -39 198 -39q76 0 125.5 40t49.5 101q0 63 -60.5 101.5t-163.5 38.5q-27 0 -69 -7v99q31 -4 67 -4q94 0 154.5 37.5t60.5 97.5q0 47 -40 76.5t-105 29.5q-78 0 -191 -43l-26 97q111 41 231.5 41t189 -51.5t68.5 -141.5q0 -133 -151 -184 q162 -41 161 -193q0 -104 -79.5 -168.5t-210.5 -64.5q-101 0 -236 39zM479 -41l559 1499h121l-559 -1499h-121zM987 211q0 72 40 116t130 72q-82 37 -115.5 82t-33.5 113q0 94 68.5 145.5t191.5 51.5q119 0 189.5 -51.5t70.5 -139.5q0 -66 -34 -107.5t-122 -84.5 q98 -41 139 -86.5t41 -114.5q0 -96 -78.5 -157.5t-203.5 -61.5t-204 62.5t-79 160.5zM1114 213q0 -55 45 -93t113 -38q63 0 108 36t45 87q0 47 -41 80.5t-139 68.5q-131 -45 -131 -141zM1135 590q0 -41 33.5 -74t115.5 -67l10 6q49 25 78 62.5t29 74.5q0 47 -38 75.5 t-97.5 28.5t-95 -28.5t-35.5 -77.5z" />
<glyph unicode="&#x215d;" horiz-adv-x="1638" d="M100 682l43 98q102 -59 183 -59q78 0 129 50t51 126q0 70 -45 110t-123 40q-84 0 -211 -48l16 418h455v-94h-338l-8 -197q59 14 113 15q125 0 196.5 -65.5t71.5 -180.5q0 -123 -82 -195.5t-221 -72.5q-117 0 -230 55zM479 -41l559 1499h121l-559 -1499h-121zM987 211 q0 72 40 117t128 71q-82 37 -115.5 82t-33.5 113q0 94 68.5 145.5t193.5 51.5q119 0 189.5 -51.5t70.5 -139.5q0 -66 -34 -107.5t-122 -84.5q98 -39 138 -84t40 -117q0 -96 -77.5 -157.5t-202.5 -61.5t-204 62.5t-79 160.5zM1114 213q0 -55 45 -93t111 -38q63 0 108 36 t45 87q0 45 -41 79.5t-137 69.5q-131 -41 -131 -141zM1133 590q0 -41 34.5 -74t114.5 -67l12 6q106 57 107 137q0 47 -38 75.5t-97 28.5q-61 0 -97 -28.5t-36 -77.5z" />
<glyph unicode="&#x215e;" horiz-adv-x="1638" d="M115 1200v217h544v-94l-346 -684h-143l352 684h-291l-10 -123h-106zM403 -41l560 1499h120l-559 -1499h-121zM946 211q0 72 40 117t128 71q-82 37 -115.5 82t-33.5 113q0 94 68.5 145.5t193.5 51.5q119 0 189.5 -51.5t70.5 -139.5q0 -66 -34 -107.5t-122 -84.5 q98 -39 138 -84t40 -117q0 -96 -77.5 -157.5t-202.5 -61.5t-204 62.5t-79 160.5zM1073 213q0 -55 45 -93t111 -38q63 0 108 36t45 87q0 45 -41 79.5t-137 69.5q-131 -41 -131 -141zM1092 590q0 -41 34.5 -74t114.5 -67l12 6q106 57 107 137q0 47 -38 75.5t-97 28.5 q-61 0 -97 -28.5t-36 -77.5z" />
<glyph unicode="&#x2202;" horiz-adv-x="1179" d="M139 483q0 231 116 370.5t308 139.5q106 0 207 -55q-76 143 -208 259t-300 183l64 131q315 -123 514.5 -404.5t199.5 -602.5q0 -246 -121.5 -385t-334.5 -139q-207 0 -326 133.5t-119 369.5zM303 494q0 -180 77 -284t210 -104q156 0 225 132q61 113 62 260q0 174 -77 272 t-212 98q-133 0 -209 -100t-76 -274z" />
<glyph unicode="&#x2206;" horiz-adv-x="1179" d="M6 0v129l488 1288h196l484 -1288v-129h-1168zM182 135h815l-407 1106z" />
<glyph unicode="&#x220f;" horiz-adv-x="1351" d="M18 -207l164 6v1704l-164 6v111h1315v-111l-164 -6v-1704l164 -6v-110h-491v110l164 6v1686h-660v-1686l164 -6v-110h-492v110z" />
<glyph unicode="&#x2211;" horiz-adv-x="1179" d="M86 -166l461 871l-461 768v147h1067v-360h-145l-17 225h-733l469 -778l-467 -889h748l16 225h145v-360h-1083v151z" />
<glyph unicode="&#x2212;" horiz-adv-x="1179" d="M72 457v123h1036v-123h-1036z" />
<glyph unicode="&#x221a;" horiz-adv-x="1179" d="M109 643v119h280l168 -555l473 1513h539v-125h-432l-498 -1595h-156l-200 643h-174z" />
<glyph unicode="&#x221e;" horiz-adv-x="1558" d="M98 522q0 143 87 232.5t229 89.5q207 0 364 -234q160 233 367 234q141 0 228 -89t87 -233q0 -145 -87 -234t-230 -89q-207 0 -365 233q-154 -233 -364 -233q-141 0 -228.5 89t-87.5 234zM221 522q0 -98 53.5 -155.5t143.5 -57.5q96 0 184 76q61 55 98 119l11 16l-11 17 q-123 197 -282 196q-90 0 -143.5 -57.5t-53.5 -153.5zM848 520l8 -16q25 -47 100 -119q82 -76 185 -76q90 0 143 57.5t53 155.5q0 96 -53 153.5t-143 57.5q-162 0 -283 -196z" />
<glyph unicode="&#x222b;" horiz-adv-x="737" d="M55 -311l37 137q59 -23 94 -23q76 0 95 68q10 27 10 137v1237q0 150 7 204t32 93q61 98 211 98q72 0 143 -26l-37 -137q-57 23 -96 22q-74 0 -92 -67q-10 -27 -10 -138v-1237q0 -150 -7.5 -204t-31.5 -93q-61 -98 -213 -98q-68 0 -142 27z" />
<glyph unicode="&#x2248;" horiz-adv-x="1179" d="M72 319q82 113 149.5 160t147.5 47q84 0 241 -92q84 -51 117 -64.5t70 -13.5q53 0 97 28t105 103l17 21l92 -78q-152 -207 -299 -207q-88 0 -238 92q-80 47 -117.5 62.5t-80.5 15.5q-53 0 -95 -29.5t-114 -117.5zM72 606q82 113 149.5 160t147.5 47q84 0 241 -92 q84 -51 117 -64.5t70 -13.5q53 0 97 27.5t105 103.5l17 21l92 -78q-152 -207 -299 -207q-88 0 -238 92q-80 47 -117.5 62.5t-80.5 15.5q-53 0 -95 -29.5t-114 -118.5z" />
<glyph unicode="&#x2260;" horiz-adv-x="1179" d="M72 309v123h405l82 172h-487v123h546l134 283l118 -49l-110 -234h348v-123h-408l-82 -172h490v-123h-547l-135 -280l-117 49l111 231h-348z" />
<glyph unicode="&#x2261;" horiz-adv-x="1179" d="M72 162v123h1036v-123h-1036zM72 457v123h1036v-123h-1036zM72 752v122h1036v-122h-1036z" />
<glyph unicode="&#x2264;" horiz-adv-x="1179" d="M72 0v123h1036v-123h-1036zM72 590v106l1036 363v-133l-856 -283l856 -285v-133z" />
<glyph unicode="&#x2265;" horiz-adv-x="1179" d="M72 0v123h1036v-123h-1036zM72 225v133l856 285l-856 283v133l1036 -363v-106z" />
<glyph unicode="&#x22c5;" horiz-adv-x="589" d="M174 573q0 51 35 85t86 34q53 0 87 -34.5t34 -86t-34 -86t-87 -34.5t-87 34.5t-34 87.5z" />
<glyph unicode="&#x25ca;" horiz-adv-x="1179" d="M20 709l570 774l569 -774l-569 -777zM193 709l397 -539l397 539l-397 538z" />
<glyph unicode="&#xe000;" horiz-adv-x="1040" d="M0 1040h1040v-1040h-1040v1040z" />
<glyph unicode="&#xea3f;" d="M354 1038l142 459h182l-182 -459h-142z" />
<glyph unicode="&#xea4e;" horiz-adv-x="0" d="M172 1595v125h1034v-125h-1034z" />
<glyph unicode="&#xea4f;" d="M287 1196l276 301h152l-242 -301h-186z" />
<glyph unicode="&#xea67;" d="M354 1038l142 459h182l-182 -459h-142z" />
<glyph unicode="&#xf6be;" horiz-adv-x="569" d="M-49 -446l18 129q45 -12 86 -13q82 0 117 46t35 151v1055l-174 6v110l329 11v-1069q0 -246 -38 -314q-74 -127 -252 -127q-58 1 -121 15z" />
<glyph unicode="&#xf6c3;" d="M287 -371l241 301h187l-277 -301h-151z" />
<glyph unicode="&#xf6c9;" d="M340 1546l250 299h198l-299 -299h-149z" />
<glyph unicode="&#xf6ca;" d="M213 1858h149l150 -201l150 201h149l-205 -299h-188z" />
<glyph unicode="&#xf6cb;" d="M211 1700q0 45 29.5 73.5t77 28.5t77 -29.5t29.5 -76.5t-29.5 -77t-77 -30t-77 31t-29.5 80zM600 1700q0 45 29.5 73.5t77 28.5t77 -29.5t29.5 -76.5t-29.5 -77t-77 -30t-77 31t-29.5 80z" />
<glyph unicode="&#xf6ce;" d="M256 1845h199l250 -299h-150z" />
<glyph unicode="&#xf6cf;" d="M258 1546l209 299h190l-258 -299h-141zM578 1546l208 299h191l-258 -299h-141z" />
<glyph unicode="&#xf6d0;" d="M215 1602v118h596v-118h-596z" />
<glyph unicode="&#xf6f4;" d="M211 1538h135q16 -193 166 -192.5t166 192.5h133q-6 -145 -84 -224t-215 -79t-215 79t-86 224z" />
<glyph unicode="&#xf6f5;" d="M213 1538h149l150 -201l150 201h149l-205 -299h-188z" />
<glyph unicode="&#xf6f6;" d="M213 1239l205 299h188l205 -299h-149l-150 201l-150 -201h-149z" />
<glyph unicode="&#xf6f7;" d="M406 1372q0 45 29.5 74t76.5 29t76.5 -30t29.5 -77t-29.5 -76.5t-76.5 -29.5t-76.5 30.5t-29.5 79.5z" />
<glyph unicode="&#xf6f8;" d="M258 1239l209 299h190l-258 -299h-141zM578 1239l208 299h191l-258 -299h-141z" />
<glyph unicode="&#xf6f9;" horiz-adv-x="948" d="M70 350v121l166 102v408l-150 6v111h467v-111l-162 -6v-313l242 149v-121l-242 -149v-428h354l13 182h141v-301h-813v111l150 6v336z" />
<glyph unicode="&#xf6fa;" horiz-adv-x="1601" d="M102 553q0 332 230 471q74 45 147.5 59.5t241.5 14.5h737v-301h-141l-14 182h-328v-363h321v-118h-321v-379h352l14 182h142v-301h-754q-172 0 -261 21.5t-169 82.5q-197 150 -197 449zM266 546.5q0 -237.5 133 -345.5q98 -82 330 -82h90v860h-90q-139 0 -205.5 -16.5 t-124.5 -63.5q-133 -115 -133 -352.5z" />
<glyph unicode="&#xf6fb;" d="M229 -274q0 88 62.5 152.5t200.5 121.5h98q-104 -68 -154 -111q-70 -68 -69 -135q0 -41 29.5 -66.5t78.5 -25.5q31 0 98 16l17 -98q-96 -27 -150 -26q-94 0 -152.5 47t-58.5 125z" />
<glyph unicode="&#xf6fc;" d="M307 1397q0 84 59.5 143t145.5 59t144.5 -59t58.5 -145t-59.5 -145.5t-143.5 -59.5q-88 0 -146.5 59.5t-58.5 147.5zM393 1397q0 -55 33 -90t86 -35q51 0 84 34.5t33 88t-33 88.5t-84 35t-85 -35t-34 -86z" />
<glyph unicode="&#xf6fd;" horiz-adv-x="942" d="M102 811q0 145 100.5 226t278.5 81q145 0 314 -63v-258h-140l-12 159q-80 43 -164 43q-98 0 -155.5 -47t-57.5 -129q0 -70 43 -106.5t183 -89.5q201 -78 258 -119q90 -68 90 -205q0 -150 -107.5 -236.5t-292.5 -86.5q-174 0 -334 73v248h140l14 -156q88 -47 189 -47 q96 0 161.5 54.5t65.5 134.5q0 72 -51 112q-41 33 -195 90q-178 68 -244 121q-84 72 -84 201zM193 1538h149l150 -201l149 201h150l-205 -299h-189z" />
<glyph unicode="&#xf6fe;" d="M168 1257q12 98 63.5 153.5t128.5 55.5q70 0 183 -43q80 -31 116 -30q82 0 93 86h104q-25 -211 -192 -211q-63 0 -175 41q-86 33 -127 32q-61 0 -88 -84h-106z" />
<glyph unicode="&#xf6ff;" horiz-adv-x="1005" d="M80 0v119l631 860h-459l-14 -182h-140v301h797v-119l-631 -860h496l14 182h139v-301h-833zM217 1538h150l149 -201l150 201h149l-205 -299h-188z" />
<glyph unicode="&#xf730;" horiz-adv-x="1212" d="M102 553q0 256 137.5 410.5t366.5 154.5q231 0 367.5 -154.5t136.5 -414.5t-136 -414.5t-367.5 -154.5t-368 154.5t-136.5 418.5zM268 553q0 -209 88 -323.5t250 -114.5q160 0 249 114.5t89 319.5t-89 319.5t-249 114.5t-249 -113.5t-89 -316.5z" />
<glyph unicode="&#xf731;" horiz-adv-x="839" d="M82 879l346 219h141v-981l181 -6v-111h-547v111l209 6v803l-262 -166z" />
<glyph unicode="&#xf732;" horiz-adv-x="1064" d="M80 0v135q227 143 440 311q137 106 189.5 178t52.5 150q0 98 -69.5 155.5t-190.5 57.5q-150 0 -324 -104l-63 118q209 117 407 117q182 0 294 -89t112 -234q0 -106 -60.5 -195.5t-208.5 -204.5q-125 -96 -366 -260h633v-135h-846z" />
<glyph unicode="&#xf733;" horiz-adv-x="1064" d="M82 -283l37 131q160 -57 299 -57q156 0 249 81t93 214q0 137 -114 208t-331 71q-43 0 -71 -5v136q29 -4 78 -4q195 0 307 73.5t112 198.5q0 102 -76.5 162.5t-209.5 60.5q-141 0 -295 -76l-54 127q186 80 365 80q201 0 318.5 -91t117.5 -247q0 -139 -82 -229t-235 -121 q162 -16 249 -106.5t87 -241.5q0 -190 -137.5 -306t-362.5 -116q-170 0 -344 57z" />
<glyph unicode="&#xf734;" horiz-adv-x="1159" d="M68 88v156l610 854h184v-875h219v-135h-219v-407h-155v407h-639zM217 223h490v692z" />
<glyph unicode="&#xf735;" horiz-adv-x="1126" d="M115 -248l61 133q162 -94 307 -94q158 0 255.5 99.5t97.5 259.5q0 137 -80 219t-213 82q-166 0 -365 -76l23 723h753v-135h-594l-16 -414q115 33 221 33q201 0 318.5 -119t117.5 -322q0 -213 -142 -347t-372 -134q-186 0 -372 92z" />
<glyph unicode="&#xf736;" horiz-adv-x="1179" d="M127 565q0 221 65.5 407.5t184.5 299.5q172 166 479 166q29 0 92 -2l-8 -133q-39 4 -86 4q-481 0 -549 -576q129 164 342 164q186 0 301 -123t115 -323q0 -211 -129 -340t-338 -129q-229 0 -349 149t-120 436zM301 438q0 -152 80 -239.5t219 -87.5q137 0 217 88t80 239 q0 150 -79 238t-212 88q-137 0 -221 -89.5t-84 -236.5z" />
<glyph unicode="&#xf737;" d="M100 737v361h865v-135l-615 -1282h-180l627 1282h-535l-16 -226h-146z" />
<glyph unicode="&#xf738;" horiz-adv-x="1179" d="M113 365q0 279 321 370q-150 66 -213 147t-63 201q0 162 117.5 258.5t316.5 96.5q201 0 317.5 -95.5t116.5 -257.5q0 -115 -55.5 -185.5t-204.5 -145.5q160 -66 230.5 -153t70.5 -218q0 -188 -128 -295.5t-351 -107.5q-217 0 -346 104.5t-129 280.5zM279 371 q0 -119 85 -189.5t228 -70.5q137 0 223 70.5t86 183.5q0 102 -69.5 170.5t-251.5 142.5q-301 -88 -301 -307zM322 1083q0 -90 68.5 -150.5t248.5 -125.5l16 8q207 102 207 264q0 106 -72.5 167t-199.5 61q-125 0 -196.5 -60t-71.5 -164z" />
<glyph unicode="&#xf739;" horiz-adv-x="1179" d="M117 649q0 211 129 340t338 129q229 0 349 -149.5t120 -436.5q0 -221 -65.5 -407t-184.5 -299q-172 -166 -479 -166q-29 0 -93 2l9 133q39 -4 86 -4q481 0 548 576q-129 -164 -342 -164q-186 0 -300.5 122.5t-114.5 323.5zM283 659q0 -150 78.5 -237.5t211.5 -87.5 q137 0 221.5 89t84.5 236q0 152 -80 240t-219 88q-137 0 -217 -88t-80 -240z" />
<glyph unicode="&#xf760;" d="M256 1538h199l250 -299h-150z" />
<glyph unicode="&#xf761;" horiz-adv-x="1114" d="M-23 0v111l121 4l369 983h184l369 -983l121 -4v-111h-420v111l131 4l-82 225h-426l-82 -225l125 -4v-111h-410zM387 459h340l-98 274l-72 209l-33 -98l-39 -111z" />
<glyph unicode="&#xf762;" horiz-adv-x="1011" d="M66 0v111l149 6v864l-149 6v111h364q219 0 305 -33q150 -57 150 -256q0 -102 -45 -161.5t-146 -88.5q117 -23 169 -84t52 -176q0 -195 -149 -262q-53 -23 -109.5 -30t-193.5 -7h-397zM371 117h57q182 0 242 30q82 45 82 164q0 102 -63.5 145.5t-219.5 43.5h-98v-383z M371 612h57q162 0 217 35q76 45 76 154q0 111 -64 149q-51 31 -208 31h-78v-369z" />
<glyph unicode="&#xf763;" horiz-adv-x="1044" d="M102 541q0 264 143.5 420.5t385.5 156.5q139 0 289 -55v-266h-140l-14 176q-74 27 -135 26q-160 0 -262.5 -129t-102.5 -329q0 -199 101.5 -321t267.5 -122q129 0 274 70l39 -119q-154 -70 -315 -69q-240 0 -385.5 153.5t-145.5 407.5z" />
<glyph unicode="&#xf764;" horiz-adv-x="1181" d="M66 0v111l149 6v864l-149 6v111h415q270 0 393 -78q205 -133 205 -465q0 -330 -205 -469q-127 -86 -411 -86h-397zM371 119h102q197 0 291 69q152 106 151 359q0 135 -45 237.5t-125 149.5q-47 27 -104 36t-188 9h-82v-860z" />
<glyph unicode="&#xf765;" horiz-adv-x="997" d="M66 0v111l149 6v864l-149 6v111h788v-301h-139l-15 182h-329v-363h323v-118h-323v-379h354l14 182h140v-301h-813z" />
<glyph unicode="&#xf766;" horiz-adv-x="970" d="M66 0v111l149 6v864l-149 6v111h792v-301h-139l-17 182h-331v-363h348v-118h-348v-381l161 -6v-111h-466z" />
<glyph unicode="&#xf767;" horiz-adv-x="1193" d="M102 535q0 266 150.5 424.5t402.5 158.5q172 0 349 -61v-260h-142l-14 170q-113 33 -189 32q-199 0 -301 -145q-92 -131 -92 -317q0 -197 107.5 -318t283.5 -121q96 0 191 37v307l-152 7v110h430v-110l-122 -7v-393q-176 -70 -359 -69q-248 0 -395.5 151.5t-147.5 403.5z " />
<glyph unicode="&#xf768;" horiz-adv-x="1261" d="M66 0v111l149 6v864l-149 6v111h454v-111l-149 -6v-360h520v360l-150 6v111h455v-111l-149 -6v-864l149 -6v-111h-455v111l150 6v385h-520v-385l149 -6v-111h-454z" />
<glyph unicode="&#xf769;" horiz-adv-x="585" d="M66 0v111l149 6v864l-149 6v111h454v-111l-149 -6v-864l149 -6v-111h-454z" />
<glyph unicode="&#xf76a;" horiz-adv-x="698" d="M4 12l14 125q90 -39 166 -39q106 0 135 74q20 49 21 240v569l-158 6v111h453v-111l-139 -6v-625q0 -119 -11.5 -179t-44.5 -101q-74 -96 -243 -96q-95 -1 -193 32z" />
<glyph unicode="&#xf76b;" horiz-adv-x="1101" d="M66 0v111l149 6v864l-149 6v111h436v-111l-131 -6v-381l356 385l-94 2v111h405v-111l-125 -4l-366 -397l414 -471l110 -4v-111h-412v111l101 2l-389 446v-442l131 -6v-111h-436z" />
<glyph unicode="&#xf76c;" horiz-adv-x="927" d="M66 0v111l149 6v864l-149 6v111h466v-111l-161 -6v-862h354l14 182h140v-301h-813z" />
<glyph unicode="&#xf76d;" horiz-adv-x="1585" d="M66 0v111l149 6v864l-149 6v111h391l274 -768q49 -141 64 -189q37 121 71 217l264 740h390v-111l-150 -6v-864l150 -6v-111h-447v111l141 6v825q-41 -150 -100 -313l-231 -629h-181l-239 653q-49 135 -57 160l-31 84q-2 8 -7 24l-8 21l5 -825l139 -6v-111h-438z" />
<glyph unicode="&#xf76e;" horiz-adv-x="1290" d="M66 0v111l149 6v864l-149 6v111h354l414 -719q70 -123 100 -193v795l-150 6v111h449v-111l-150 -6v-981h-204l-400 692q-76 133 -114 213v-788l149 -6v-111h-448z" />
<glyph unicode="&#xf76f;" horiz-adv-x="1232" d="M102 555q0 270 152 426q135 137 362 137q240 0 377 -151.5t137 -417.5q0 -276 -151 -432q-131 -137 -363 -137q-242 0 -378 152.5t-136 422.5zM266 553q0 -211 94.5 -333t256 -122t256 122t94.5 329t-94.5 328.5t-256.5 121.5q-160 0 -255 -120.5t-95 -325.5z" />
<glyph unicode="&#xf770;" horiz-adv-x="964" d="M66 0v111l149 6v864l-149 6v111h391q221 0 311 -54q129 -72 129 -268q0 -193 -154 -270q-100 -49 -301 -49h-71v-340l170 -6v-111h-475zM371 575h51q162 0 223 31q88 45 88 172q0 121 -74 168q-57 33 -210 33h-78v-404z" />
<glyph unicode="&#xf771;" horiz-adv-x="1232" d="M102 549q0 276 152 432q131 137 362 137q264 0 402 -182q113 -154 112 -387q0 -209 -91 -354.5t-253 -192.5q104 -94 238 -182l-78 -101q-184 111 -350 261q-186 8 -299 98q-195 154 -195 471zM266 553q0 -211 94.5 -333t256 -122t256 122t94.5 329t-94.5 328.5 t-256.5 121.5q-160 0 -255 -120.5t-95 -325.5z" />
<glyph unicode="&#xf772;" horiz-adv-x="1026" d="M66 0v111l149 6v864l-149 6v111h430q184 0 274 -49q137 -76 137 -242q0 -211 -219 -275q53 -20 78 -51.5t72 -138.5l94 -225l129 -6v-111h-246l-121 274q-61 139 -106 173t-164 34h-53v-364l149 -6v-111h-454zM371 600h75q127 0 195 31q102 45 102 164q0 111 -88 153 q-61 31 -190 31h-94v-379z" />
<glyph unicode="&#xf773;" horiz-adv-x="942" d="M102 811q0 145 100.5 226t278.5 81q145 0 314 -63v-258h-140l-12 159q-80 43 -164 43q-98 0 -155.5 -47t-57.5 -129q0 -70 43 -106.5t183 -89.5q201 -78 258 -119q90 -68 90 -205q0 -150 -107.5 -236.5t-292.5 -86.5q-174 0 -334 73v248h140l14 -156q88 -47 189 -47 q96 0 161.5 54.5t65.5 134.5q0 72 -51 112q-41 33 -195 90q-178 68 -244 121q-84 72 -84 201z" />
<glyph unicode="&#xf774;" horiz-adv-x="956" d="M23 797v301h911v-301h-139l-15 182h-227v-862l180 -6v-111h-516v111l180 6v862h-221l-14 -182h-139z" />
<glyph unicode="&#xf775;" horiz-adv-x="1228" d="M45 987v111h442v-111l-137 -6v-553q0 -188 62 -256q66 -74 202 -74q162 0 226 103q39 66 39 227v553l-131 6v111h436v-111l-150 -6v-502q0 -170 -13 -239.5t-56 -124.5q-104 -135 -351 -135q-272 0 -370 163q-29 49 -39 116t-10 220v502z" />
<glyph unicode="&#xf776;" horiz-adv-x="1034" d="M-35 987v111h426v-111l-149 -4l207 -614l69 -211q33 109 68 211l209 614l-152 4v111h426v-111l-117 -4l-344 -983h-186l-342 983z" />
<glyph unicode="&#xf777;" horiz-adv-x="1581" d="M2 987v111h424v-111l-152 -4l136 -588q23 -98 26 -127l8 -37l15 -77l57 249l170 695h205l176 -715q18 -70 53 -229q12 70 54 243l139 586l-150 4v111h416v-111l-117 -4l-248 -983h-206l-170 700l-56 252q-31 -158 -53 -250l-168 -702h-207l-237 983z" />
<glyph unicode="&#xf778;" horiz-adv-x="1118" d="M18 0v111l113 4l330 456l-289 412l-123 4v111h430v-111l-125 -4l211 -307l213 311h-131v111h424v-111h-119l-299 -430l312 -442l125 -4v-111h-437v111l125 2l-231 331l-236 -329l138 -4v-111h-431z" />
<glyph unicode="&#xf779;" horiz-adv-x="997" d="M-27 987v111h435v-111l-134 -4l166 -246l66 -108q6 10 72 108l155 246l-133 4v111h424v-111l-119 -4l-327 -494v-372l159 -6v-111h-479v111l164 6v372l-330 494z" />
<glyph unicode="&#xf77a;" horiz-adv-x="1005" d="M80 0v119l631 860h-459l-14 -182h-140v301h797v-119l-631 -860h496l14 182h139v-301h-833z" />
<glyph unicode="&#xf7a8;" d="M211 1372q0 45 29.5 74t77 29t77 -30t29.5 -77t-29.5 -76.5t-77 -29.5t-77 30.5t-29.5 79.5zM600 1372q0 45 29.5 74t77 29t77 -30t29.5 -77t-29.5 -76.5t-77 -29.5t-77 30.5t-29.5 79.5z" />
<glyph unicode="&#xf7af;" d="M215 1303v118h596v-118h-596z" />
<glyph unicode="&#xf7b4;" d="M340 1239l250 299h198l-299 -299h-149z" />
<glyph unicode="&#xf7b8;" d="M287 -371l241 301h187l-277 -301h-151z" />
<glyph unicode="&#xf7e0;" horiz-adv-x="1114" d="M-23 0v111l121 4l369 983h184l369 -983l121 -4v-111h-420v111l131 4l-82 225h-426l-82 -225l125 -4v-111h-410zM225 1538h199l250 -299h-150zM387 459h340l-98 274l-72 209l-33 -98l-39 -111z" />
<glyph unicode="&#xf7e1;" horiz-adv-x="1114" d="M-23 0v111l121 4l369 983h184l369 -983l121 -4v-111h-420v111l131 4l-82 225h-426l-82 -225l125 -4v-111h-410zM387 459h340l-98 274l-72 209l-33 -98l-39 -111zM446 1239l250 299h199l-299 -299h-150z" />
<glyph unicode="&#xf7e2;" horiz-adv-x="1114" d="M-23 0v111l121 4l369 983h184l369 -983l121 -4v-111h-420v111l131 4l-82 225h-426l-82 -225l125 -4v-111h-410zM258 1239l205 299h188l205 -299h-149l-150 201l-149 -201h-150zM387 459h340l-98 274l-72 209l-33 -98l-39 -111z" />
<glyph unicode="&#xf7e3;" horiz-adv-x="1114" d="M-23 0v111l121 4l369 983h184l369 -983l121 -4v-111h-420v111l131 4l-82 225h-426l-82 -225l125 -4v-111h-410zM213 1257q12 98 63.5 153.5t129.5 55.5q70 0 182 -43q80 -31 117 -30q82 0 92 86h104q-25 -211 -192 -211q-63 0 -174 41q-86 33 -127 32q-61 0 -89 -84h-106 zM387 459h340l-98 274l-72 209l-33 -98l-39 -111z" />
<glyph unicode="&#xf7e4;" horiz-adv-x="1114" d="M-23 0v111l121 4l369 983h184l369 -983l121 -4v-111h-420v111l131 4l-82 225h-426l-82 -225l125 -4v-111h-410zM256 1372q0 45 29.5 74t77 29t77 -30t29.5 -77t-29.5 -76.5t-77 -29.5t-77 30.5t-29.5 79.5zM387 459h340l-98 274l-72 209l-33 -98l-39 -111zM645 1372 q0 45 30 74t77 29t76.5 -30t29.5 -77t-29.5 -76.5t-76.5 -29.5t-77 30.5t-30 79.5z" />
<glyph unicode="&#xf7e5;" horiz-adv-x="1114" d="M-23 0v111l121 4l369 983h184l369 -983l121 -4v-111h-420v111l131 4l-82 225h-426l-82 -225l125 -4v-111h-410zM352 1397q0 84 59.5 143t145.5 59t144.5 -59t58.5 -145t-59.5 -145.5t-143.5 -59.5q-88 0 -146.5 59.5t-58.5 147.5zM387 459h340l-98 274l-72 209l-33 -98 l-39 -111zM438 1397q0 -55 33 -90t86 -35q51 0 84 34.5t33 88t-33 88.5t-84 35t-85 -35t-34 -86z" />
<glyph unicode="&#xf7e6;" horiz-adv-x="1525" d="M-139 0v111l123 4l665 983h733v-301h-139l-14 182h-330v-363h324v-118h-324v-379h354l15 182h139v-301h-664v307h-450l-127 -192l113 -4v-111h-418zM371 426h372v559h-4z" />
<glyph unicode="&#xf7e7;" horiz-adv-x="1044" d="M102 541q0 264 143.5 420.5t385.5 156.5q139 0 289 -55v-266h-140l-14 176q-74 27 -135 26q-160 0 -262.5 -129t-102.5 -329q0 -199 101.5 -321t267.5 -122q129 0 274 70l39 -119q-154 -70 -315 -69q-240 0 -385.5 153.5t-145.5 407.5zM297 -371l242 301h186l-276 -301 h-152z" />
<glyph unicode="&#xf7e8;" horiz-adv-x="997" d="M66 0v111l149 6v864l-149 6v111h788v-301h-139l-15 182h-329v-363h323v-118h-323v-379h354l14 182h140v-301h-813zM229 1538h199l250 -299h-150z" />
<glyph unicode="&#xf7e9;" horiz-adv-x="997" d="M66 0v111l149 6v864l-149 6v111h788v-301h-139l-15 182h-329v-363h323v-118h-323v-379h354l14 182h140v-301h-813zM375 1239l250 299h198l-299 -299h-149z" />
<glyph unicode="&#xf7ea;" horiz-adv-x="997" d="M66 0v111l149 6v864l-149 6v111h788v-301h-139l-15 182h-329v-363h323v-118h-323v-379h354l14 182h140v-301h-813zM201 1239l205 299h188l205 -299h-150l-149 201l-150 -201h-149z" />
<glyph unicode="&#xf7eb;" horiz-adv-x="997" d="M66 0v111l149 6v864l-149 6v111h788v-301h-139l-15 182h-329v-363h323v-118h-323v-379h354l14 182h140v-301h-813zM199 1372q0 45 29.5 74t76.5 29t77 -30t30 -77t-30 -76.5t-77 -29.5t-76.5 30.5t-29.5 79.5zM588 1372q0 45 29.5 74t76.5 29t77 -30t30 -77t-30 -76.5 t-77 -29.5t-76.5 30.5t-29.5 79.5z" />
<glyph unicode="&#xf7ec;" horiz-adv-x="585" d="M16 1538h199l250 -299h-150zM66 0v111l149 6v864l-149 6v111h454v-111l-149 -6v-864l149 -6v-111h-454z" />
<glyph unicode="&#xf7ed;" horiz-adv-x="585" d="M66 0v111l149 6v864l-149 6v111h454v-111l-149 -6v-864l149 -6v-111h-454zM147 1239l250 299h199l-299 -299h-150z" />
<glyph unicode="&#xf7ee;" horiz-adv-x="585" d="M-6 1239l205 299h188l205 -299h-150l-149 201l-150 -201h-149zM66 0v111l149 6v864l-149 6v111h454v-111l-149 -6v-864l149 -6v-111h-454z" />
<glyph unicode="&#xf7ef;" horiz-adv-x="585" d="M-8 1372q0 45 29.5 74t76.5 29t77 -30t30 -77t-30 -76.5t-77 -29.5t-76.5 30.5t-29.5 79.5zM66 0v111l149 6v864l-149 6v111h454v-111l-149 -6v-864l149 -6v-111h-454zM381 1372q0 45 29.5 74t77 29t77 -30t29.5 -77t-29.5 -76.5t-77 -29.5t-77 30.5t-29.5 79.5z" />
<glyph unicode="&#xf7f0;" horiz-adv-x="1181" d="M37 498v118h178v365l-149 6v111h415q270 0 393 -78q207 -131 207 -465q0 -330 -204 -469q-127 -86 -414 -86h-397v111l149 6v381h-178zM371 119h102q197 0 293 69q152 106 152 359q0 135 -45.5 237.5t-124.5 149.5q-47 27 -104.5 36t-188.5 9h-84v-363h262v-118h-262 v-379z" />
<glyph unicode="&#xf7f1;" horiz-adv-x="1290" d="M66 0v111l149 6v864l-149 6v111h354l414 -719q70 -123 100 -193v795l-150 6v111h449v-111l-150 -6v-981h-204l-400 692q-76 133 -114 213v-788l149 -6v-111h-448zM322 1257q12 98 63 153.5t129 55.5q70 0 182 -43q80 -31 117 -30q82 0 92 86h105q-10 -102 -60.5 -156.5 t-132.5 -54.5q-63 0 -174 41q-86 33 -127 32q-61 0 -88 -84h-106z" />
<glyph unicode="&#xf7f2;" horiz-adv-x="1232" d="M102 555q0 270 152 426q135 137 362 137q240 0 377 -151.5t137 -417.5q0 -276 -151 -432q-131 -137 -363 -137q-242 0 -378 152.5t-136 422.5zM266 553q0 -211 94.5 -333t256 -122t256 122t94.5 329t-94.5 328.5t-256.5 121.5q-160 0 -255 -120.5t-95 -325.5zM360 1538 h199l250 -299h-150z" />
<glyph unicode="&#xf7f3;" horiz-adv-x="1232" d="M102 555q0 270 152 426q135 137 362 137q240 0 377 -151.5t137 -417.5q0 -276 -151 -432q-131 -137 -363 -137q-242 0 -378 152.5t-136 422.5zM266 553q0 -211 94.5 -333t256 -122t256 122t94.5 329t-94.5 328.5t-256.5 121.5q-160 0 -255 -120.5t-95 -325.5zM471 1239 l250 299h199l-299 -299h-150z" />
<glyph unicode="&#xf7f4;" horiz-adv-x="1232" d="M102 555q0 270 152 426q135 137 362 137q240 0 377 -151.5t137 -417.5q0 -276 -151 -432q-131 -137 -363 -137q-242 0 -378 152.5t-136 422.5zM266 553q0 -211 94.5 -333t256 -122t256 122t94.5 329t-94.5 328.5t-256.5 121.5q-160 0 -255 -120.5t-95 -325.5zM317 1239 l205 299h189l204 -299h-149l-150 201l-149 -201h-150z" />
<glyph unicode="&#xf7f5;" horiz-adv-x="1232" d="M102 555q0 270 152 426q135 137 362 137q240 0 377 -151.5t137 -417.5q0 -276 -151 -432q-131 -137 -363 -137q-242 0 -378 152.5t-136 422.5zM266 553q0 -211 94.5 -333t256 -122t256 122t94.5 329t-94.5 328.5t-256.5 121.5q-160 0 -255 -120.5t-95 -325.5zM272 1257 q12 98 63.5 153.5t129.5 55.5q70 0 182 -43q80 -31 117 -30q82 0 92 86h105q-25 -211 -193 -211q-63 0 -174 41q-86 33 -127 32q-61 0 -88 -84h-107z" />
<glyph unicode="&#xf7f6;" horiz-adv-x="1232" d="M102 555q0 270 152 426q135 137 362 137q240 0 377 -151.5t137 -417.5q0 -276 -151 -432q-131 -137 -363 -137q-242 0 -378 152.5t-136 422.5zM266 553q0 -211 94.5 -333t256 -122t256 122t94.5 329t-94.5 328.5t-256.5 121.5q-160 0 -255 -120.5t-95 -325.5zM315 1372 q0 45 30 74t77 29t76.5 -30t29.5 -77t-29.5 -76.5t-76.5 -29.5t-77 30.5t-30 79.5zM705 1372q0 45 29.5 74t76.5 29t77 -30t30 -77t-30 -76.5t-77 -29.5t-76.5 30.5t-29.5 79.5z" />
<glyph unicode="&#xf7f8;" horiz-adv-x="1232" d="M102 549q0 274 152 432q135 137 362 137q203 0 330 -106l94 110l76 -59l-104 -121q119 -158 118 -393q0 -274 -151 -432q-131 -137 -365 -137q-201 0 -327 106l-92 -106l-78 57l102 119q-117 155 -117 393zM266 549q0 -154 58 -270l528 622q-92 98 -236 98 q-162 0 -256 -121.5t-94 -328.5zM379 197q98 -98 237 -99q162 0 256.5 122t94.5 329q0 150 -58 270z" />
<glyph unicode="&#xf7f9;" horiz-adv-x="1228" d="M45 987v111h442v-111l-137 -6v-553q0 -188 62 -256q66 -74 202 -74q162 0 226 103q39 66 39 227v553l-131 6v111h436v-111l-150 -6v-502q0 -170 -13 -239.5t-56 -124.5q-104 -135 -351 -135q-272 0 -370 163q-29 49 -39 116t-10 220v502zM338 1538h199l249 -299h-149z " />
<glyph unicode="&#xf7fa;" horiz-adv-x="1228" d="M45 987v111h442v-111l-137 -6v-553q0 -188 62 -256q66 -74 202 -74q162 0 226 103q39 66 39 227v553l-131 6v111h436v-111l-150 -6v-502q0 -170 -13 -239.5t-56 -124.5q-104 -135 -351 -135q-272 0 -370 163q-29 49 -39 116t-10 220v502zM518 1239l250 299h199l-299 -299 h-150z" />
<glyph unicode="&#xf7fb;" horiz-adv-x="1228" d="M45 987v111h442v-111l-137 -6v-553q0 -188 62 -256q66 -74 202 -74q162 0 226 103q39 66 39 227v553l-131 6v111h436v-111l-150 -6v-502q0 -170 -13 -239.5t-56 -124.5q-104 -135 -351 -135q-272 0 -370 163q-29 49 -39 116t-10 220v502zM328 1239l204 299h189l205 -299 h-150l-149 201l-150 -201h-149z" />
<glyph unicode="&#xf7fc;" horiz-adv-x="1228" d="M45 987v111h442v-111l-137 -6v-553q0 -188 62 -256q66 -74 202 -74q162 0 226 103q39 66 39 227v553l-131 6v111h436v-111l-150 -6v-502q0 -170 -13 -239.5t-56 -124.5q-104 -135 -351 -135q-272 0 -370 163q-29 49 -39 116t-10 220v502zM326 1372q0 45 29.5 74t76.5 29 t77 -30t30 -77t-30 -76.5t-77 -29.5t-76.5 30.5t-29.5 79.5zM715 1372q0 45 29.5 74t76.5 29t77 -30t30 -77t-30 -76.5t-77 -29.5t-76.5 30.5t-29.5 79.5z" />
<glyph unicode="&#xf7fd;" horiz-adv-x="997" d="M-27 987v111h435v-111l-134 -4l166 -246l66 -108q6 10 72 108l155 246l-133 4v111h424v-111l-119 -4l-327 -494v-372l159 -6v-111h-479v111l164 6v372l-330 494zM395 1239l250 299h199l-299 -299h-150z" />
<glyph unicode="&#xf7fe;" horiz-adv-x="970" d="M66 0v111l149 6v864l-149 6v111h462v-111l-157 -6v-80h106q215 0 309 -57q131 -80 132 -277q0 -199 -154 -276q-100 -51 -301 -51h-92v-123l170 -6v-111h-475zM371 358h71q160 0 224 33q88 45 88 180q0 127 -74 174q-57 37 -211 37h-98v-424z" />
<glyph unicode="&#xf7ff;" horiz-adv-x="997" d="M-27 987v111h435v-111l-134 -4l166 -246l66 -108q6 10 72 108l155 246l-133 4v111h424v-111l-119 -4l-327 -494v-372l159 -6v-111h-479v111l164 6v372l-330 494zM219 1372q0 45 30 74t77 29t76.5 -30t29.5 -77t-29.5 -76.5t-76.5 -29.5t-77 30.5t-30 79.5zM608 1372 q0 45 30 74t77 29t76.5 -30t29.5 -77t-29.5 -76.5t-76.5 -29.5t-77 30.5t-30 79.5z" />
<glyph horiz-adv-x="1386" d="M119 690q0 338 185 543t491 205q211 0 419 -70v-311h-145l-14 207q-141 39 -250 39q-264 0 -395 -191q-117 -172 -117 -420q0 -264 138 -420.5t370 -156.5q125 0 250 45v436l-189 6v111h506v-111l-154 -6v-535q-209 -82 -430 -81q-301 0 -483 194t-182 516zM635 1546 l250 299h198l-299 -299h-149z" />
<glyph horiz-adv-x="860" d="M57 1180l375 237h141v-1300l181 -6v-111h-518v111l180 6v1122l-289 -184z" />
<glyph horiz-adv-x="1064" d="M25 0v143q406 365 561 564.5t155 355.5q0 109 -84 176.5t-221 67.5q-162 0 -330 -107l-40 141q199 96 389 97q211 0 331.5 -97.5t120.5 -267.5q0 -137 -76.5 -273t-269.5 -337q-160 -172 -340 -328h699v-135h-895z" />
<glyph horiz-adv-x="1064" d="M68 45l36 131q184 -66 332 -65q158 0 251 79.5t93 215.5q0 279 -446 278q-47 0 -80 -4v135q33 -4 86 -4q195 0 308.5 73.5t113.5 198.5q0 104 -78 164t-213 60q-147 0 -326 -70l-30 133q184 68 370 68q205 0 324 -91.5t119 -246.5q0 -139 -82 -229.5t-236 -120.5 q162 -16 249 -106.5t87 -242.5q0 -190 -137 -305.5t-365 -115.5q-179 -1 -376 65z" />
<glyph horiz-adv-x="1146" d="M53 408v155l611 854h184v-874h219v-135h-219v-291l182 -6v-111h-518v111l180 6v291h-639zM203 543h489v692z" />
<glyph horiz-adv-x="1105" d="M111 70l61 133q160 -92 305 -92q158 0 256 99t98 257q0 139 -86 221t-233 82q-168 0 -362 -76l22 723h764v-135h-604l-17 -414q115 33 224 33q211 0 334.5 -119.5t123.5 -322.5q0 -213 -143 -346t-373 -133q-188 0 -370 90z" />
<glyph horiz-adv-x="1126" d="M113 565q0 221 65.5 407.5t183.5 299.5q172 166 480 166q29 0 92 -2l-8 -133q-39 4 -86 4q-481 0 -549 -576q129 164 342 164q186 0 301 -123t115 -323q0 -211 -129 -340t-338 -129q-229 0 -349 149t-120 436zM287 438q0 -152 79.5 -239.5t219.5 -87.5q137 0 217 88 t80 239q0 150 -79 238t-212 88q-137 0 -221 -89.5t-84 -236.5z" />
<glyph horiz-adv-x="937" d="M18 1057v360h873v-135l-586 -1282h-180l598 1282h-543l-16 -225h-146z" />
<glyph horiz-adv-x="1163" d="M104 377q0 137 79 224t243 134q-150 66 -213 147t-63 201q0 162 117.5 258.5t316.5 96.5q201 0 317.5 -95.5t116.5 -257.5q0 -115 -55.5 -185.5t-204.5 -145.5q160 -66 230.5 -153t70.5 -218q0 -186 -128 -294.5t-349 -108.5q-217 0 -347.5 108.5t-130.5 288.5zM270 379 q0 -119 87 -193.5t227 -74.5q137 0 223 70.5t86 183.5q0 102 -69.5 170.5t-252.5 142.5q-156 -43 -228.5 -114.5t-72.5 -184.5zM313 1083q0 -90 69 -150.5t249 -125.5l16 8q207 102 207 264q0 106 -72.5 167t-199.5 61q-125 0 -197 -60t-72 -164z" />
<glyph horiz-adv-x="1126" d="M78 969q0 211 129 340t338 129q229 0 349 -149.5t120 -436.5q0 -221 -65.5 -407.5t-184.5 -299.5q-172 -166 -479 -165q-29 0 -92 2l8 133q39 -4 86 -4q481 0 549 575q-129 -164 -342 -164q-186 0 -301 123t-115 324zM244 979q0 -150 78.5 -238t212.5 -88q137 0 221 89 t84 237q0 152 -80 240t-219 88q-137 0 -217 -88t-80 -240z" />
<glyph horiz-adv-x="1196" d="M111 715q0 723 487 723t487 -729t-487 -729q-248 0 -367.5 181t-119.5 554zM276 715q0 -315 74 -449q80 -152 248 -151q193 0 270 198q51 129 52 396q0 307 -74 442q-82 152 -248 152q-193 0 -270 -199q-52 -135 -52 -389z" />
<glyph horiz-adv-x="1105" d="M70 0v131h147q35 51 46 124t11 261v158h-184v119h184v141q0 158 19.5 235.5t75.5 139.5q117 129 348 129q154 0 323 -60v-321h-145l-16 221q-84 25 -160 25q-178 0 -242 -125q-39 -76 -39 -263v-122h350v-119h-350v-158q0 -205 -9 -269.5t-44 -115.5h494l16 229h145v-360 h-970z" />
<glyph horiz-adv-x="1105" d="M104 1044q0 170 103.5 272.5t288.5 117.5v151h102v-147q156 -6 354 -82v-299h-145l-16 176q-76 61 -193 72v-523q174 -68 236 -106q156 -96 155 -289q0 -172 -104.5 -276.5t-298.5 -128.5v-156h-103v154q-80 0 -190.5 24.5t-186.5 56.5v299h146l16 -186q100 -59 215 -63 v534q-180 74 -252 129q-127 100 -127 270zM270 1073q0 -86 50.5 -142.5t175.5 -111.5v486q-109 -14 -167.5 -74t-58.5 -158zM586 113q104 12 170.5 81.5t66.5 170.5q0 82 -43 129t-164 100l-30 12v-493z" />
<glyph horiz-adv-x="995" d="M92 887q0 242 111.5 384t318.5 161v153h103v-153q154 -12 301 -72v-277h-146l-14 185q-66 27 -141 37v-824q129 14 247 90l60 -120q-131 -82 -307 -95v-149h-103v149q-205 18 -317.5 156.5t-112.5 374.5zM256 903q0 -371 266 -420v824q-266 -42 -266 -404z" />
<glyph horiz-adv-x="901" d="M-166 16h146l14 -147q12 -4 29 -4q129 0 176 151q16 49 51 248l74 410h-197v119h217l33 188q43 248 122 342t242 94q86 0 191 -26v-273h-146l-18 168q-14 4 -35 4q-82 0 -127 -70.5t-78 -250.5l-30 -176h276v-119h-297l-88 -496q-29 -166 -46 -222t-52 -106 q-86 -115 -268 -114q-84 0 -189 24v256z" />
<glyph horiz-adv-x="1228" d="M33 528l39 111h178q-2 27 -2 61q0 39 4 76h-219l39 111h194q51 260 208 405.5t384 145.5q160 0 332 -86l-49 -129q-152 84 -285 84q-326 0 -422 -420h592l-39 -111h-569q-4 -61 -4 -98q0 -23 2 -39h524l-39 -109h-475q66 -420 420 -419q158 0 317 75l41 -127 q-197 -80 -364 -79q-252 0 -401.5 141t-178.5 407h-227z" />
<glyph horiz-adv-x="1146" d="M-80 1307v110h492v-110l-152 -7l322 -507l319 507l-166 7v110h492v-110l-150 -7l-354 -557h254v-104h-307l-15 -27v-114h322v-105h-322v-276l162 -6v-111h-491v111l166 6v276h-320v105h320v114l-15 27h-305v104h252l-354 557z" />
<glyph horiz-adv-x="1638" d="M139 1284l221 133h107v-692l119 -6v-80h-359v80l123 6v571l-164 -96zM479 -41l559 1499h121l-559 -1499h-121zM1040 645l222 133h106v-692l119 -6v-80h-359v80l123 6v571l-164 -96z" />
<glyph horiz-adv-x="1638" d="M119 1284l221 133h106v-692l119 -6v-80h-358v80l123 6v571l-164 -96zM444 -41l560 1499h120l-559 -1499h-121zM981 43l43 98q102 -59 182 -59q78 0 129 50t51 126q0 70 -45 110t-122 40q-84 0 -211 -48l16 418h455v-94h-338l-8 -197q59 14 112 15q125 0 196.5 -65.5 t71.5 -180.5q0 -123 -81.5 -195.5t-221.5 -72.5q-116 0 -229 55z" />
<glyph horiz-adv-x="1638" d="M96 639v94q223 195 310.5 300.5t87.5 187.5q0 51 -40 82.5t-104 31.5q-88 0 -200 -69l-39 96q135 68 249 68q119 0 190 -54.5t71 -144.5q0 -70 -35 -136.5t-119 -158.5q-106 -113 -213 -203h373v-94h-531zM479 -41l559 1499h121l-559 -1499h-121zM1001 43l43 98 q102 -59 183 -59q78 0 129 50t51 126q0 70 -45 110t-123 40q-84 0 -211 -48l16 418h455v-94h-338l-8 -197q59 14 113 15q125 0 196.5 -65.5t71.5 -180.5q0 -123 -82 -195.5t-221 -72.5q-117 0 -230 55z" />
<glyph horiz-adv-x="1638" d="M92 666l27 98q117 -39 198 -39q76 0 125.5 40t49.5 101q0 63 -60.5 101.5t-163.5 38.5q-27 0 -69 -7v99q31 -4 67 -4q94 0 154.5 37.5t60.5 97.5q0 47 -40 76.5t-105 29.5q-78 0 -191 -43l-26 97q111 41 231.5 41t189 -51.5t68.5 -141.5q0 -133 -151 -184 q162 -41 161 -193q0 -104 -79.5 -168.5t-210.5 -64.5q-101 0 -236 39zM479 -41l559 1499h121l-559 -1499h-121zM1001 43l43 98q102 -59 183 -59q78 0 129 50t51 126q0 70 -45 110t-123 40q-84 0 -211 -48l16 418h455v-94h-338l-8 -197q59 14 113 15q125 0 196.5 -65.5 t71.5 -180.5q0 -123 -82 -195.5t-221 -72.5q-117 0 -230 55z" />
<glyph horiz-adv-x="1638" d="M63 840v110l347 467h135v-483h123v-94h-123v-201h-123v201h-359zM178 934h248v340zM479 -41l559 1499h121l-559 -1499h-121zM1001 43l43 98q102 -59 183 -59q78 0 129 50t51 126q0 70 -45 110t-123 40q-84 0 -211 -48l16 418h455v-94h-338l-8 -197q59 14 113 15 q125 0 196.5 -65.5t71.5 -180.5q0 -123 -82 -195.5t-221 -72.5q-117 0 -230 55z" />
<glyph horiz-adv-x="1638" d="M104 1284l222 133h106v-692l119 -6v-80h-358v80l122 6v571l-163 -96zM465 -41l559 1499h121l-559 -1499h-121zM963 311q0 258 143 389q102 90 280 91q41 0 68 -5v-94q-27 4 -59 4q-238 0 -291 -252q72 55 162 56q115 0 184.5 -69t69.5 -183q0 -119 -75 -189.5t-200 -70.5 q-282 -1 -282 323zM1094 250q0 -72 42 -120t105 -48q66 0 109 48t43 117.5t-41 114t-106.5 44.5t-108.5 -44t-43 -112z" />
<glyph horiz-adv-x="1638" d="M115 682l43 98q102 -59 182 -59q78 0 129 50t51 126q0 70 -45 110t-123 40q-84 0 -211 -48l17 418h454v-94h-338l-8 -197q59 14 113 15q125 0 196.5 -65.5t71.5 -180.5q0 -123 -82 -195.5t-221 -72.5q-116 0 -229 55zM494 -41l559 1499h121l-560 -1499h-120zM971 311 q0 258 143 389q102 90 281 91q41 0 67 -5v-94q-27 4 -59 4q-238 0 -291 -252q72 55 162 56q115 0 184.5 -69t69.5 -183q0 -119 -75 -189.5t-200 -70.5q-282 -1 -282 323zM1102 250q0 -72 42 -120t105 -48q66 0 109 48t43 117.5t-41 114t-106.5 44.5t-108.5 -44t-43 -112z " />
<glyph d="M406 1700q0 45 29.5 73.5t76.5 28.5t76.5 -29.5t29.5 -76.5t-29.5 -77t-76.5 -30t-76.5 31t-29.5 80z" />
<glyph d="M307 1599q0 84 59.5 143.5t145.5 59.5t144.5 -59.5t58.5 -145.5t-59.5 -145t-143.5 -59q-88 0 -146.5 59t-58.5 147zM393 1599q0 -55 33 -89.5t86 -34.5q51 0 84 34.5t33 88t-33 88t-84 34.5t-85 -35t-34 -86z" />
<glyph d="M213 1546l205 299h188l205 -299h-149l-150 201l-150 -201h-149z" />
<glyph d="M211 1845h135q16 -193 166 -192.5t166 192.5h133q-6 -147 -83 -225t-216 -78t-216 78t-85 225z" />
<glyph d="M168 1585q12 98 63.5 153.5t128.5 55.5q70 0 183 -43q80 -31 116 -31q82 0 93 86h104q-25 -211 -192 -211q-63 0 -175 41q-86 33 -127 33q-61 0 -88 -84h-106z" />
<glyph d="M309 -371l242 301h186l-276 -301h-152z" />
<glyph d="M233 -274q0 88 62.5 152.5t200.5 121.5h98q-104 -68 -154 -111q-70 -68 -69 -135q0 -41 29.5 -66.5t78.5 -25.5q31 0 99 16l16 -98q-96 -27 -150 -26q-94 0 -152.5 47t-58.5 125z" />
<glyph d="M309 -371l242 301h186l-276 -301h-152z" />
<glyph horiz-adv-x="1847" d="M104 811q0 145 100.5 226t278.5 81q145 0 314 -63v-258h-140l-12 159q-80 43 -164 43q-98 0 -155.5 -47t-57.5 -129q0 -70 43 -106.5t183 -89.5q201 -78 258 -119q90 -68 90 -205q0 -150 -107.5 -236.5t-292.5 -86.5q-174 0 -333 73v248h139l14 -156q88 -47 189 -47 q96 0 161.5 54.5t65.5 134.5q0 72 -51 112q-41 33 -195 90q-178 68 -244 121q-84 72 -84 201zM1006 811q0 145 100 226t278 81q145 0 314 -63v-258h-139l-13 159q-80 43 -164 43q-98 0 -155.5 -47t-57.5 -129q0 -70 43 -106.5t183 -89.5q201 -78 258 -119q90 -68 90 -205 q0 -150 -107.5 -236.5t-292.5 -86.5q-174 0 -333 73v248h139l14 -156q88 -47 189 -47q96 0 161.5 54.5t65.5 134.5q0 72 -51 112q-41 33 -195 90q-178 68 -243 121q-84 72 -84 201z" />
<glyph horiz-adv-x="585" d="M66 0v111l149 6v864l-149 6v111h454v-111l-149 -6v-864l149 -6v-111h-454z" />
<glyph horiz-adv-x="698" d="M4 12l14 125q90 -39 166 -39q106 0 135 74q20 49 21 240v569l-158 6v111h453v-111l-139 -6v-625q0 -119 -11.5 -179t-44.5 -101q-74 -96 -243 -96q-95 -1 -193 32z" />
<glyph horiz-adv-x="1445" d="M43 0v111l150 6v864l-150 6v111h793v-301h-140l-16 182h-332v-363h348v-118h-348v-381l162 -6v-111h-467zM948 0v111l150 6v864l-150 6v111h455v-111l-150 -6v-864l150 -6v-111h-455z" />
<glyph horiz-adv-x="1810" d="M43 0v111l150 6v864l-150 6v111h793v-301h-140l-16 182h-332v-363h348v-118h-348v-381l162 -6v-111h-467zM948 0v111l150 6v864l-150 6v111h467v-111l-162 -6v-862h355l14 182h139v-301h-813z" />
<glyph horiz-adv-x="1114" d="M-23 0v111l121 4l369 983h184l369 -983l121 -4v-111h-420v111l131 4l-82 225h-426l-82 -225l125 -4v-111h-410zM258 1538h150l149 -201l150 201h149l-205 -299h-188zM387 459h340l-98 274l-72 209l-33 -98l-39 -111z" />
<glyph horiz-adv-x="1114" d="M-23 0v111l121 4l369 983h184l369 -983l121 -4v-111h-420v111l131 4l-82 225h-426l-82 -225l125 -4v-111h-410zM256 1538h135q16 -193 166 -192.5t166 192.5h135q-8 -145 -86 -224t-215 -79t-215 79t-86 224zM387 459h340l-98 274l-72 209l-33 -98l-39 -111z" />
<glyph horiz-adv-x="1114" d="M-23 0v111l121 4l369 983h184l369 -983l121 -4v-111h-92q-106 -68 -156 -111q-70 -70 -70 -135q0 -41 30 -66.5t79 -25.5q33 0 100 16l17 -98q-98 -27 -152 -26q-94 0 -152.5 48t-58.5 124q0 88 62.5 152.5t199.5 121.5h-227v111l131 4l-82 225h-426l-82 -225l125 -4 v-111h-410zM387 459h340l-98 274q-41 113 -72 209l-33 -98q-37 -106 -39 -111z" />
<glyph horiz-adv-x="1044" d="M102 541q0 264 143.5 420.5t385.5 156.5q139 0 289 -55v-266h-140l-14 176q-74 27 -135 26q-160 0 -262.5 -129t-102.5 -329q0 -199 101.5 -321t267.5 -122q129 0 274 70l39 -119q-154 -70 -315 -69q-240 0 -385.5 153.5t-145.5 407.5zM487 1239l250 299h199l-299 -299 h-150z" />
<glyph horiz-adv-x="1044" d="M102 541q0 264 143.5 420.5t385.5 156.5q139 0 289 -55v-266h-140l-14 176q-74 27 -135 26q-160 0 -262.5 -129t-102.5 -329q0 -199 101.5 -321t267.5 -122q129 0 274 70l39 -119q-154 -70 -315 -69q-240 0 -385.5 153.5t-145.5 407.5zM334 1538h149l150 -201l149 201 h150l-205 -299h-188z" />
<glyph horiz-adv-x="1044" d="M102 541q0 264 143.5 420.5t385.5 156.5q139 0 289 -55v-266h-140l-14 176q-74 27 -135 26q-160 0 -262.5 -129t-102.5 -329q0 -199 101.5 -321t267.5 -122q129 0 274 70l39 -119q-154 -70 -315 -69q-240 0 -385.5 153.5t-145.5 407.5zM532 1372q0 45 30 74t77 29 t76.5 -30t29.5 -77t-29.5 -76.5t-76.5 -29.5t-77 30.5t-30 79.5z" />
<glyph horiz-adv-x="1181" d="M66 0v111l149 6v864l-149 6v111h415q270 0 393 -78q205 -133 205 -465q0 -330 -205 -469q-127 -86 -411 -86h-397zM371 119h102q197 0 291 69q152 106 151 359q0 135 -45 237.5t-125 149.5q-47 27 -104 36t-188 9h-82v-860zM1012 1038l141 459h182l-182 -459h-141z" />
<glyph horiz-adv-x="1181" d="M37 498v118h178v365l-149 6v111h415q270 0 393 -78q207 -131 207 -465q0 -330 -204 -469q-127 -86 -414 -86h-397v111l149 6v381h-178zM371 119h102q197 0 293 69q152 106 152 359q0 135 -45.5 237.5t-124.5 149.5q-47 27 -104.5 36t-188.5 9h-84v-363h262v-118h-262 v-379z" />
<glyph horiz-adv-x="997" d="M66 0v111l149 6v864l-149 6v111h788v-301h-139l-15 182h-329v-363h323v-118h-323v-379h354l14 182h140v-301h-813zM201 1538h149l150 -201l149 201h150l-205 -299h-188z" />
<glyph horiz-adv-x="997" d="M66 0v111l149 6v864l-149 6v111h788v-301h-139l-15 182h-329v-363h323v-118h-323v-379h354l14 182h140v-301h-813zM414 1372q0 45 29.5 74t76.5 29t77 -30t30 -77t-30 -76.5t-77 -29.5t-76.5 30.5t-29.5 79.5z" />
<glyph horiz-adv-x="997" d="M66 0v111l149 6v864l-149 6v111h788v-301h-139l-15 182h-329v-363h323v-118h-323v-379h354l14 182h140v-301q-109 -70 -156 -111q-70 -68 -70 -135q0 -41 30 -66.5t79 -25.5q33 0 100 16l17 -98q-96 -27 -152 -26q-94 0 -152.5 48t-58.5 124q0 88 63.5 153.5t200.5 120.5 h-714z" />
<glyph horiz-adv-x="1193" d="M102 535q0 266 150.5 424.5t402.5 158.5q172 0 349 -61v-260h-142l-14 170q-113 33 -189 32q-199 0 -301 -145q-92 -131 -92 -317q0 -197 107.5 -318t283.5 -121q96 0 191 37v307l-152 7v110h430v-110l-122 -7v-393q-176 -70 -359 -69q-248 0 -395.5 151.5t-147.5 403.5z M367 1538h149l150 -201l149 201h150l-205 -299h-189z" />
<glyph horiz-adv-x="1193" d="M102 535q0 266 150.5 424.5t402.5 158.5q172 0 349 -61v-260h-142l-14 170q-113 33 -189 32q-199 0 -301 -145q-92 -131 -92 -317q0 -197 107.5 -318t283.5 -121q96 0 191 37v307l-152 7v110h430v-110l-122 -7v-393q-176 -70 -359 -69q-248 0 -395.5 151.5t-147.5 403.5z M344 1538h135q16 -193 166 -192.5t166 192.5h135q-8 -145 -86 -224t-215 -79t-215 79t-86 224z" />
<glyph horiz-adv-x="1193" d="M102 535q0 266 150.5 424.5t402.5 158.5q172 0 349 -61v-260h-142l-14 170q-113 33 -189 32q-199 0 -301 -145q-92 -131 -92 -317q0 -197 107.5 -318t283.5 -121q96 0 191 37v307l-152 7v110h430v-110l-122 -7v-393q-176 -70 -359 -69q-248 0 -395.5 151.5t-147.5 403.5z M532 1372q0 45 30 74t77 29t76.5 -30t29.5 -77t-29.5 -76.5t-76.5 -29.5t-77 30.5t-30 79.5z" />
<glyph horiz-adv-x="927" d="M66 0v111l149 6v864l-149 6v111h466v-111l-161 -6v-862h354l14 182h140v-301h-813zM238 1239l249 299h199l-299 -299h-149z" />
<glyph horiz-adv-x="927" d="M66 0v111l149 6v864l-149 6v111h466v-111l-161 -6v-862h354l14 182h140v-301h-813zM618 1038l144 459h180l-180 -459h-144z" />
<glyph horiz-adv-x="1290" d="M66 0v111l149 6v864l-149 6v111h354l414 -719q70 -123 100 -193v795l-150 6v111h449v-111l-150 -6v-981h-204l-400 692q-76 133 -114 213v-788l149 -6v-111h-448zM543 1239l250 299h198l-299 -299h-149z" />
<glyph horiz-adv-x="1290" d="M66 0v111l149 6v864l-149 6v111h354l414 -719q70 -123 100 -193v795l-150 6v111h449v-111l-150 -6v-981h-204l-400 692q-76 133 -114 213v-788l149 -6v-111h-448zM346 1538h150l149 -201l150 201h149l-205 -299h-188z" />
<glyph horiz-adv-x="1232" d="M102 555q0 270 152 426q135 137 362 137q240 0 377 -151.5t137 -417.5q0 -276 -151 -432q-131 -137 -363 -137q-242 0 -378 152.5t-136 422.5zM266 553q0 -211 94.5 -333t256 -122t256 122t94.5 329t-94.5 328.5t-256.5 121.5q-160 0 -255 -120.5t-95 -325.5zM362 1239 l209 299h191l-258 -299h-142zM682 1239l209 299h190l-258 -299h-141z" />
<glyph horiz-adv-x="1026" d="M66 0v111l149 6v864l-149 6v111h430q184 0 274 -49q137 -76 137 -242q0 -211 -219 -275q53 -20 78 -51.5t72 -138.5l94 -225l129 -6v-111h-246l-121 274q-61 139 -106 173t-164 34h-53v-364l149 -6v-111h-454zM369 1239l249 299h199l-299 -299h-149zM371 600h75 q127 0 195 31q102 45 102 164q0 111 -88 153q-61 31 -190 31h-94v-379z" />
<glyph horiz-adv-x="942" d="M102 811q0 145 100.5 226t278.5 81q145 0 314 -63v-258h-140l-12 159q-80 43 -164 43q-98 0 -155.5 -47t-57.5 -129q0 -70 43 -106.5t183 -89.5q201 -78 258 -119q90 -68 90 -205q0 -150 -107.5 -236.5t-292.5 -86.5q-174 0 -334 73v248h140l14 -156q88 -47 189 -47 q96 0 161.5 54.5t65.5 134.5q0 72 -51 112q-41 33 -195 90q-178 68 -244 121q-84 72 -84 201zM375 1239l250 299h198l-299 -299h-149z" />
<glyph horiz-adv-x="942" d="M102 811q0 145 100.5 226t278.5 81q145 0 314 -63v-258h-140l-12 159q-80 43 -164 43q-98 0 -155.5 -47t-57.5 -129q0 -70 43 -106.5t183 -89.5q201 -78 258 -119q90 -68 90 -205q0 -150 -107.5 -236.5t-292.5 -86.5q-174 0 -334 73v248h140l14 -156q88 -47 189 -47 q96 0 161.5 54.5t65.5 134.5q0 72 -51 112q-41 33 -195 90q-178 68 -244 121q-84 72 -84 201zM199 1239l204 299h189l205 -299h-150l-149 201l-150 -201h-149z" />
<glyph horiz-adv-x="942" d="M102 811q0 145 100.5 226t278.5 81q145 0 314 -63v-258h-140l-12 159q-80 43 -164 43q-98 0 -155.5 -47t-57.5 -129q0 -70 43 -106.5t183 -89.5q201 -78 258 -119q90 -68 90 -205q0 -150 -107.5 -236.5t-292.5 -86.5q-174 0 -334 73v248h140l14 -156q88 -47 189 -47 q96 0 161.5 54.5t65.5 134.5q0 72 -51 112q-41 33 -195 90q-178 68 -244 121q-84 72 -84 201zM143 -371l242 301h186l-276 -301h-152z" />
<glyph horiz-adv-x="1173" d="M23 797v301h911v-301h-139l-15 182h-227v-862l180 -6v-111h-516v111l180 6v862h-221l-14 -182h-139zM1001 1038l142 459h182l-182 -459h-142z" />
<glyph horiz-adv-x="1228" d="M45 987v111h442v-111l-137 -6v-553q0 -188 62 -256q66 -74 202 -74q162 0 226 103q39 66 39 227v553l-131 6v111h436v-111l-150 -6v-502q0 -170 -13 -239.5t-56 -124.5q-104 -135 -351 -135q-272 0 -370 163q-29 49 -39 116t-10 220v502zM422 1397q0 84 59.5 143 t145.5 59t144 -59t58 -145t-59 -145.5t-143 -59.5q-88 0 -146.5 59.5t-58.5 147.5zM508 1397q0 -55 32.5 -90t86.5 -35q51 0 83.5 34.5t32.5 88t-32.5 88.5t-84 35t-85 -35t-33.5 -86z" />
<glyph horiz-adv-x="1228" d="M45 987v111h442v-111l-137 -6v-553q0 -188 62 -256q66 -74 202 -74q162 0 226 103q39 66 39 227v553l-131 6v111h436v-111l-150 -6v-502q0 -170 -13 -239.5t-56 -124.5q-104 -135 -351 -135q-272 0 -370 163q-29 49 -39 116t-10 220v502zM360 1239l209 299h191l-258 -299 h-142zM680 1239l209 299h190l-258 -299h-141z" />
<glyph horiz-adv-x="1005" d="M80 0v119l631 860h-459l-14 -182h-140v301h797v-119l-631 -860h496l14 182h139v-301h-833zM406 1239l249 299h199l-299 -299h-149z" />
<glyph horiz-adv-x="1005" d="M80 0v119l631 860h-459l-14 -182h-140v301h797v-119l-631 -860h496l14 182h139v-301h-833zM424 1372q0 45 29.5 74t77 29t77 -30t29.5 -77t-29.5 -76.5t-77 -29.5t-77 30.5t-29.5 79.5z" />
<glyph horiz-adv-x="1261" d="M66 0v111l149 6v628h-149v111h149v125l-149 6v111h454v-111l-149 -6v-125h520v125l-150 6v111h455v-111l-149 -6v-125h149v-111h-149v-628l149 -6v-111h-455v111l150 6v385h-520v-385l149 -6v-111h-454zM371 621h520v124h-520v-124z" />
<glyph horiz-adv-x="956" d="M23 797v301h911v-301h-139l-15 182h-227v-862l180 -6v-111h-516v111l180 6v862h-221l-14 -182h-139zM152 -371l241 301h187l-277 -301h-151z" />
<glyph horiz-adv-x="1114" d="M-23 0v111l121 4l369 983h184l369 -983l121 -4v-111h-420v111l131 4l-82 225h-426l-82 -225l125 -4v-111h-410zM260 1303v118h594v-118h-594zM387 459h340l-98 274l-72 209l-33 -98l-39 -111z" />
<glyph horiz-adv-x="997" d="M-27 987v111h435v-111l-134 -4l166 -246l66 -108q6 10 72 108l155 246l-133 4v111h424v-111l-119 -4l-327 -494v-372l159 -6v-111h-479v111l164 6v372l-330 494zM213 1239l205 299h188l205 -299h-149l-150 201l-150 -201h-149z" />
<glyph horiz-adv-x="1044" d="M102 541q0 264 143.5 420.5t385.5 156.5q139 0 289 -55v-266h-140l-14 176q-74 27 -135 26q-160 0 -262.5 -129t-102.5 -329q0 -199 101.5 -321t267.5 -122q129 0 274 70l39 -119q-154 -70 -315 -69q-240 0 -385.5 153.5t-145.5 407.5zM334 1239l205 299h188l205 -299 h-150l-149 201l-150 -201h-149z" />
<glyph horiz-adv-x="997" d="M66 0v111l149 6v864l-149 6v111h788v-301h-139l-15 182h-329v-363h323v-118h-323v-379h354l14 182h140v-301h-813zM186 1303v118h596v-118h-596z" />
<glyph horiz-adv-x="1193" d="M102 535q0 266 150.5 424.5t402.5 158.5q172 0 349 -61v-260h-142l-14 170q-113 33 -189 32q-199 0 -301 -145q-92 -131 -92 -317q0 -197 107.5 -318t283.5 -121q96 0 191 37v307l-152 7v110h430v-110l-122 -7v-393q-176 -70 -359 -69q-248 0 -395.5 151.5t-147.5 403.5z M360 1239l205 299h189l204 -299h-149l-150 201l-149 -201h-150z" />
<glyph horiz-adv-x="585" d="M-8 1538h135q16 -193 165.5 -192.5t166.5 192.5h133q-6 -145 -84 -224t-215 -79t-215 79t-86 224zM66 0v111l149 6v864l-149 6v111h454v-111l-149 -6v-864l149 -6v-111h-454z" />
<glyph horiz-adv-x="585" d="M-4 1303v118h596v-118h-596zM66 0v111l149 6v864l-149 6v111h454v-111l-149 -6v-864l149 -6v-111h-454z" />
<glyph horiz-adv-x="698" d="M4 12l14 125q90 -39 166 -39q106 0 135 74q20 49 21 240v569l-158 6v111h453v-111l-139 -6v-625q0 -119 -11.5 -179t-44.5 -101q-74 -96 -243 -96q-95 -1 -193 32zM102 1239l205 299h189l204 -299h-149l-150 201l-149 -201h-150z" />
<glyph horiz-adv-x="1101" d="M66 0v111l149 6v864l-149 6v111h436v-111l-131 -6v-381l356 385l-94 2v111h405v-111l-125 -4l-366 -397l414 -471l110 -4v-111h-412v111l101 2l-389 446v-442l131 -6v-111h-436zM279 -371l241 301h187l-277 -301h-151z" />
<glyph horiz-adv-x="927" d="M66 0v111l149 6v864l-149 6v111h466v-111l-161 -6v-862h354l14 182h140v-301h-813zM199 -371l241 301h187l-277 -301h-151z" />
<glyph horiz-adv-x="1290" d="M66 0v111l149 6v864l-149 6v111h354l414 -719q70 -123 100 -193v795l-150 6v111h449v-111l-150 -6v-981h-204l-400 692q-76 133 -114 213v-788l149 -6v-111h-448zM373 -371l241 301h187l-277 -301h-151z" />
<glyph horiz-adv-x="1232" d="M102 555q0 270 152 426q135 137 362 137q240 0 377 -151.5t137 -417.5q0 -276 -151 -432q-131 -137 -363 -137q-242 0 -378 152.5t-136 422.5zM266 553q0 -211 94.5 -333t256 -122t256 122t94.5 329t-94.5 328.5t-256.5 121.5q-160 0 -255 -120.5t-95 -325.5zM319 1303 v118h594v-118h-594z" />
<glyph horiz-adv-x="1026" d="M66 0v111l149 6v864l-149 6v111h430q184 0 274 -49q137 -76 137 -242q0 -211 -219 -275q53 -20 78 -51.5t72 -138.5l94 -225l129 -6v-111h-246l-121 274q-61 139 -106 173t-164 34h-53v-364l149 -6v-111h-454zM283 -371l241 301h187l-277 -301h-151zM371 600h75 q127 0 195 31q102 45 102 164q0 111 -88 153q-61 31 -190 31h-94v-379z" />
<glyph horiz-adv-x="1228" d="M45 987v111h442v-111l-137 -6v-553q0 -188 62 -256q66 -74 202 -74q162 0 226 103q39 66 39 227v553l-131 6v111h436v-111l-150 -6v-502q0 -170 -13 -239.5t-56 -124.5q-104 -135 -351 -135q-272 0 -370 163q-29 49 -39 116t-10 220v502zM313 1538h136 q16 -193 165.5 -192.5t165.5 192.5h135q-8 -145 -85.5 -224t-215 -79t-215.5 79t-86 224z" />
<glyph horiz-adv-x="1228" d="M45 987v111h442v-111l-137 -6v-553q0 -188 62 -256q66 -74 202 -74q162 0 226 103q39 66 39 227v553l-131 6v111h436v-111l-150 -6v-502q0 -170 -13 -239.5t-56 -124.5q-104 -135 -351 -135q-272 0 -370 163q-29 49 -39 116t-10 220v502zM317 1303v118h594v-118h-594z " />
<glyph horiz-adv-x="1228" d="M45 987v111h442v-111l-137 -6v-553q0 -188 62 -256q66 -74 202 -74q162 0 226 103q39 66 39 227v553l-131 6v111h436v-111l-150 -6v-502q0 -229 -33 -305q-47 -104 -176 -162q-127 -80 -163 -114q-76 -72 -76 -144q0 -41 29.5 -66.5t78.5 -25.5q31 0 99 16l16 -98 q-96 -27 -150 -26q-94 0 -152 47t-58 125q0 156 198 254h-37q-268 0 -366 163q-29 49 -39 116t-10 220v502z" />
<glyph horiz-adv-x="1026" d="M66 0v111l149 6v864l-149 6v111h430q184 0 274 -49q137 -76 137 -242q0 -211 -219 -275q53 -20 78 -51.5t72 -138.5l94 -225l129 -6v-111h-246l-121 274q-61 139 -106 173t-164 34h-53v-364l149 -6v-111h-454zM195 1538h149l150 -201l149 201h150l-205 -299h-189z M371 600h75q127 0 195 31q102 45 102 164q0 111 -88 153q-61 31 -190 31h-94v-379z" />
<glyph horiz-adv-x="942" d="M102 811q0 145 100.5 226t278.5 81q145 0 314 -63v-258h-140l-12 159q-80 43 -164 43q-98 0 -155.5 -47t-57.5 -129q0 -70 43 -106.5t183 -89.5q201 -78 258 -119q90 -68 90 -205q0 -150 -107.5 -236.5t-292.5 -86.5q-174 0 -334 73v248h140l14 -156q88 -47 189 -47 q96 0 161.5 54.5t65.5 134.5q0 72 -51 112q-41 33 -195 90q-178 68 -244 121q-84 72 -84 201zM170 -371l242 301h186l-276 -301h-152z" />
<glyph horiz-adv-x="1193" d="M102 535q0 266 150.5 424.5t402.5 158.5q172 0 349 -61v-260h-142l-14 170q-113 33 -189 32q-199 0 -301 -145q-92 -131 -92 -317q0 -197 107.5 -318t283.5 -121q96 0 191 37v307l-152 7v110h430v-110l-122 -7v-393q-176 -70 -359 -69q-248 0 -395.5 151.5t-147.5 403.5z M510 1217l276 301h152l-242 -301h-186z" />
<glyph horiz-adv-x="774" d="M68 926l319 184h137v-993l152 -6v-111h-479v111l172 6v829l-236 -137z" />
<glyph horiz-adv-x="864" d="M29 0v119q307 274 431 431t124 273q0 84 -54.5 130t-152.5 46q-121 0 -277 -77l-39 118q178 78 338 78q164 0 256.5 -74.5t92.5 -209.5q0 -106 -57.5 -210t-201.5 -257q-129 -137 -253 -248h522v-119h-729z" />
<glyph horiz-adv-x="901" d="M33 37l37 119q137 -57 288 -58q131 0 202 56.5t71 158.5q0 203 -350 203q-16 0 -91 -4v127q61 -4 86 -4q160 0 250 53t90 150q0 78 -59 119.5t-168 41.5q-131 0 -287 -59l-32 119q170 59 333 59q184 0 280.5 -68.5t96.5 -201.5q0 -102 -52 -163.5t-173 -102.5 q240 -45 240 -271q0 -162 -107.5 -246.5t-312.5 -84.5q-197 0 -342 57z" />
<glyph horiz-adv-x="919" d="M16 311v131l514 656h177v-668h184v-119h-184v-311h-156v311h-535zM168 430h383v494z" />
<glyph horiz-adv-x="970" d="M96 57l56 121q141 -80 274 -80q129 0 202.5 71t73.5 193q0 223 -260 224q-127 0 -311 -62l21 574h663v-119h-506l-14 -299q98 25 184 25q188 0 287.5 -87.5t99.5 -252.5q0 -182 -115.5 -283.5t-320.5 -101.5q-184 -1 -334 77z" />
<glyph horiz-adv-x="976" d="M94 438q0 174 55.5 318.5t157.5 234.5q145 127 402 127q41 0 98 -6l-8 -117q-45 4 -74 4q-205 0 -317 -114q-94 -94 -134 -281q109 94 265 94q168 0 266 -94t98 -252q0 -170 -109.5 -271t-291.5 -101q-408 -1 -408 458zM262 342q0 -111 64.5 -177.5t173 -66.5t174 66.5 t65.5 175.5t-64.5 174.5t-170.5 65.5q-109 0 -175.5 -66t-66.5 -172z" />
<glyph horiz-adv-x="860" d="M59 797v301h752v-119l-500 -979h-184l520 979h-434l-14 -182h-140z" />
<glyph horiz-adv-x="972" d="M74 289q0 205 252 282q-117 49 -166 109.5t-49 153.5q0 133 101 208.5t275 75.5q176 0 276.5 -74.5t100.5 -207.5q0 -88 -44 -142.5t-161 -109.5q131 -51 185.5 -116t54.5 -167q0 -150 -109.5 -235.5t-304.5 -85.5q-193 0 -302 83t-109 226zM238 299q0 -90 68.5 -145.5 t180.5 -55.5q106 0 177 54.5t71 136.5q0 72 -58.5 123t-201.5 104q-131 -35 -184 -84t-53 -133zM274 836q0 -63 59.5 -110.5t194.5 -90.5l25 10q147 66 147 184q0 80 -57 125t-158 45q-96 0 -153.5 -43.5t-57.5 -119.5z" />
<glyph horiz-adv-x="976" d="M74 745q0 170 109.5 271.5t291.5 101.5q408 0 408 -459q0 -174 -55.5 -318t-157.5 -235q-145 -127 -402 -126q-39 0 -98 6l8 116q45 -4 74 -4q205 0 317 115q94 94 133 281q-109 -94 -264 -95q-168 0 -266 94t-98 252zM238 757.5q0 -108.5 64.5 -174t170.5 -65.5 q109 0 175.5 65.5t66.5 172.5q0 111 -64.5 177t-173 66t-174 -66.5t-65.5 -175z" />
<glyph horiz-adv-x="1028" d="M94 555q0 563 420 563q215 0 317.5 -139t102.5 -430q0 -293 -102.5 -431t-319.5 -138q-213 0 -315.5 140t-102.5 435zM258 553q0 -240 61 -340q68 -115 195 -115q150 0 213 150q43 100 43 301q0 231 -61 336q-63 115 -195 114q-150 0 -213 -149q-43 -98 -43 -297z" />
<glyph horiz-adv-x="942" d="M59 0v119h127q29 35 37 89t8 193v111h-155v109h155v98q0 127 17.5 189.5t64.5 111.5q98 98 289 98q129 0 291 -43v-268h-145l-15 174q-57 18 -121 18q-141 0 -192 -94q-31 -57 -31 -198v-86h293v-109h-293v-111q0 -145 -6 -196t-29 -86h379l15 172h145v-291h-834z" />
</font>
</defs>
</svg>
