<?xml version="1.0" standalone="no"?>
<!DOCTYPE svg PUBLIC "-//W3C//DTD SVG 1.1//EN" "http://www.w3.org/Graphics/SVG/1.1/DTD/svg11.dtd" >
<svg xmlns="http://www.w3.org/2000/svg">
<metadata>
This is a custom SVG webfont generated by Font Squirrel.
Copyright   : Design 200107 by Hans Jurg Hunziker
Foundry URL : wwwurwppde
</metadata>
<defs>
<font id="SiemensSerifRegular" horiz-adv-x="1024" >
<font-face units-per-em="2048" ascent="1638" descent="-410" />
<missing-glyph horiz-adv-x="512" />
<glyph unicode="&#xfb01;" horiz-adv-x="1363" d="M76 967v71h168v78q0 209 55 289q80 113 240 113q104 0 243 -56l-6 -221h-131l-12 176q-47 35 -86 35q-76 0 -109 -78q-20 -51 -20 -213v-123h233v-71h-233v-527q0 -229 10 -368l150 -6v-66h-494v66l149 6q10 137 11 368v527h-168zM801 0v66l149 6q10 158 11 368v158 q0 205 -11 369l-149 6v65l344 11q-10 -250 -10 -433v-176q0 -225 10 -368l149 -6v-66h-493zM936 1366q0 47 31.5 79t81 32t81 -32t31.5 -81t-31.5 -81t-81 -32t-81 32t-31.5 83z" />
<glyph unicode="&#xfb02;" horiz-adv-x="1323" d="M76 967v71h168v37q0 133 17.5 204t62.5 124q111 119 366 119q162 0 414 -45q-10 -403 -10 -441v-602q0 -225 10 -362l149 -6v-66h-493v66l149 6q10 143 11 368v586q0 217 -11 365q-117 55 -223 55q-184 0 -240 -135q-29 -68 -28 -211v-62h233v-71h-233v-527 q0 -229 10 -368l150 -6v-66h-494v66l149 6q10 137 11 368v527h-168z" />
<glyph unicode=" "  horiz-adv-x="512" />
<glyph unicode="&#x09;" horiz-adv-x="512" />
<glyph unicode="&#xa0;" horiz-adv-x="512" />
<glyph unicode="!" horiz-adv-x="649" d="M205 1331q0 47 33.5 77t87.5 30q51 0 84.5 -30t33.5 -77q0 -10 -12 -151l-72 -764h-71l-72 764q-12 141 -12 151zM209 96q0 47 32.5 80t82 33t82 -33t32.5 -82t-32.5 -81.5t-82 -32.5t-82 32.5t-32.5 83.5z" />
<glyph unicode="&#x22;" horiz-adv-x="589" d="M45 1339q0 45 24.5 72t65.5 27t65.5 -27t24.5 -72q0 -33 -8 -94l-43 -323h-78l-43 323q-8 61 -8 94zM365 1339q0 45 24.5 72t65.5 27t65.5 -27t24.5 -72q0 -33 -8 -94l-43 -323h-78l-43 323q-8 61 -8 94z" />
<glyph unicode="#" horiz-adv-x="1179" d="M111 424v119h200l47 334h-182v118h199l59 422h123l-59 -422h262l59 422h123l-59 -422h184v-118h-201l-47 -334h182v-119h-198l-60 -424h-122l59 424h-262l-60 -424h-122l59 424h-184zM434 543h262l47 334h-262z" />
<glyph unicode="$" horiz-adv-x="1179" d="M158 66v282h143l25 -233q109 -66 227 -68v590q-207 88 -270 133q-125 90 -125 264t103.5 279.5t291.5 122.5v151h88v-149q188 -4 344 -99v-270h-139l-23 231q-78 63 -182 70v-557q164 -70 244 -117q158 -100 157 -293q0 -180 -105.5 -289.5t-295.5 -129.5v-154h-88v150 q-200 4 -395 86zM332 1106q0 -119 94 -188q37 -25 127 -66v516q-221 -47 -221 -262zM641 53q102 18 164.5 94t62.5 187q0 98 -47 152.5t-180 113.5v-547z" />
<glyph unicode="%" horiz-adv-x="1720" d="M86 1032q0 397 305 397.5t305 -401t-305 -402t-305 405.5zM231 1030q0 -346 158 -346q162 0 162 344t-162 344q-158 0 -158 -342zM571 -41l478 1499h106l-477 -1499h-107zM1026 393q0 397 305 397.5t305 -401t-305 -402t-305 405.5zM1171 391q0 -346 158 -346 q162 0 162 344t-162 344q-158 0 -158 -342z" />
<glyph unicode="&#x26;" horiz-adv-x="1503" d="M115 369q0 188 151 303q63 47 191 92q-94 119 -131 201t-37 165q0 143 100 225.5t277 82.5q178 0 280.5 -78t102.5 -211q0 -123 -89.5 -211t-287.5 -160l389 -454q113 154 117 407h-121v66h395v-66h-123q-2 -250 -196 -489l30 -39q78 -90 116 -113.5t105 -23.5h68v-66 h-219q-80 0 -114 15.5t-85 72.5l-28 33q-104 -82 -189.5 -111.5t-216.5 -29.5q-229 0 -357 102.5t-128 286.5zM309 383q0 -147 94.5 -237.5t245.5 -90.5q168 0 303 129l-450 523q-193 -103 -193 -324zM440 1165q0 -133 181 -331l16 6q119 47 183.5 124.5t64.5 176.5 q0 104 -61.5 167.5t-160 63.5t-161 -57.5t-62.5 -149.5z" />
<glyph unicode="'" horiz-adv-x="294" d="M57 1339q0 45 24.5 72t65.5 27t66 -27t25 -72q0 -33 -9 -94l-43 -323h-77l-43 323q-9 61 -9 94z" />
<glyph unicode="(" horiz-adv-x="778" d="M174 608.5q0 622.5 506 933.5l25 -35q-182 -170 -264.5 -382t-82.5 -517t82 -517t265 -382l-25 -35q-506 312 -506 934.5z" />
<glyph unicode=")" horiz-adv-x="778" d="M74 -291q182 170 264 382t82 517t-82 517t-264 382l24 35q506 -311 506 -933.5t-506 -934.5z" />
<glyph unicode="*" d="M131 1214.5q0 34.5 21.5 59t52.5 24.5q25 0 61 -18l205 -106l-33 217q-6 31 -6 55q0 33 21.5 52.5t56.5 19.5q37 0 58.5 -19.5t21.5 -52.5q0 -18 -6 -55l-35 -217l207 106q39 18 61 18q31 0 52.5 -24.5t21.5 -59t-21.5 -52t-76.5 -25.5l-224 -35l164 -166q41 -41 41 -72 q0 -33 -23.5 -56.5t-56.5 -23.5q-47 0 -78 60l-106 211l-107 -211q-29 -59 -77 -60q-33 0 -56.5 23.5t-23.5 56.5q0 31 41 72l164 166l-222 35q-55 8 -76.5 25.5t-21.5 52z" />
<glyph unicode="+" horiz-adv-x="1179" d="M72 457v123h456v458h123v-458h457v-123h-457v-457h-123v457h-456z" />
<glyph unicode="," horiz-adv-x="589" d="M135 -332q117 160 146 326q-98 23 -99 110q0 51 33 83t84 32q57 0 91 -36t34 -97q0 -174 -238 -461z" />
<glyph unicode="-" horiz-adv-x="704" d="M102 502v133h500v-133h-500z" />
<glyph unicode="." horiz-adv-x="589" d="M174 100.5q0 51.5 35 85t86 33.5t85 -33.5t34 -85t-34 -86t-85 -34.5q-53 0 -87 34.5t-34 86z" />
<glyph unicode="/" horiz-adv-x="448" d="M20 -41l287 1499h121l-289 -1499h-119z" />
<glyph unicode="0" horiz-adv-x="1179" d="M119 715q0 352 120.5 537.5t350 185.5t350.5 -186.5t121 -543t-121 -542.5t-350 -186q-231 0 -351 186.5t-120 548.5zM307 715q0 -346 68.5 -508t214 -162t214 162t68.5 502t-68.5 501.5t-213.5 161.5q-143 0 -213 -160.5t-70 -496.5z" />
<glyph unicode="1" horiz-adv-x="1179" d="M184 1174q254 98 404 243h117q-10 -180 -11 -440v-537q0 -240 11 -368l198 -6v-66h-594v66l199 6q10 129 10 368v537q0 152 -6 287q-106 -82 -297 -158z" />
<glyph unicode="2" horiz-adv-x="1179" d="M145 1087v246q260 104 457 105q193 0 296 -89t103 -257q0 -145 -75.5 -271.5t-288.5 -333.5l-358 -327h712l-10 -160h-834l9 156q225 207 393 387q143 156 203.5 275.5t60.5 250.5q0 137 -68.5 215t-189.5 78t-248 -74l-18 -201h-144z" />
<glyph unicode="3" horiz-adv-x="1179" d="M131 57l8 248h144l14 -199q113 -61 215 -61q139 0 225 95.5t86 250.5q0 162 -97 240t-302 78q-45 0 -82 -4v73q33 -4 76 -4q184 0 286.5 85t102.5 239q0 127 -72.5 200.5t-199.5 73.5q-98 0 -199 -55l-12 -211h-144l-8 252q231 80 408 80q195 0 304 -91.5t109 -252.5 q0 -143 -94 -233.5t-270 -115.5q186 -18 272 -88q111 -88 111 -262q0 -186 -130 -300.5t-343 -114.5q-189 -1 -408 77z" />
<glyph unicode="4" horiz-adv-x="1179" d="M49 432v123l641 862h129q-6 -221 -6 -387v-475h252l-8 -123h-244v-100q0 -166 8 -260l172 -6v-66h-534v66l172 6q8 74 8 260v100h-590zM143 555h496l6 678z" />
<glyph unicode="5" horiz-adv-x="1179" d="M166 66l10 241h143l13 -201q115 -61 213 -61q135 0 219 113.5t84 296.5q0 166 -81 264t-216 98q-147 0 -289 -141h-53l31 741h721l-7 -160h-643l-18 -473q86 68 157.5 94.5t165.5 26.5q195 0 307.5 -116.5t112.5 -319.5q0 -225 -131 -357t-354 -132q-180 0 -385 86z" />
<glyph unicode="6" horiz-adv-x="1179" d="M127 518q0 266 91 482.5t255 340.5q166 127 451 158l10 -59q-272 -35 -415.5 -198t-184.5 -480q119 145 311.5 145t308 -124t115.5 -328q0 -219 -125 -347t-342 -128q-231 0 -353 138t-122 400zM311 444q0 -182 77 -290.5t208 -108.5q129 0 207 109.5t78 289.5 q0 182 -71 288t-192 106q-135 0 -221 -111t-86 -283z" />
<glyph unicode="7" horiz-adv-x="1179" d="M180 1257l17 160h872v-67q-270 -401 -441 -771t-184 -579h-188q39 252 188.5 533.5t477.5 723.5h-742z" />
<glyph unicode="8" horiz-adv-x="1179" d="M123 348q0 123 73.5 208t252.5 167q-150 90 -204.5 165t-54.5 187q0 166 110 264.5t294 98.5q180 0 287.5 -83t107.5 -222q0 -104 -64.5 -182.5t-228.5 -172.5q137 -68 205 -119q156 -111 156 -292q0 -178 -129 -282.5t-348 -104.5q-203 0 -330 102t-127 266zM274 350 q0 -137 84 -221t222 -84q139 0 224 74t85 198q0 147 -141 242q-78 53 -234 127l-14 -8q-106 -51 -166 -137.5t-60 -190.5zM342 1120q0 -94 63.5 -162.5t221.5 -146.5l20 14q190 117 191 301q0 113 -66.5 179.5t-181.5 66.5q-113 0 -180.5 -68.5t-67.5 -183.5z" />
<glyph unicode="9" horiz-adv-x="1179" d="M111 961q0 221 124.5 349t342.5 128q231 0 353 -138.5t122 -400.5q0 -266 -91.5 -482t-254.5 -341q-166 -127 -451 -158l-10 59q272 35 415.5 198t184.5 480q-121 -145 -313.5 -145t-307 123t-114.5 328zM299 973q0 -182 69.5 -287.5t192.5 -105.5q135 0 221 110.5 t86 282.5q0 182 -77.5 290.5t-206.5 108.5t-207 -109.5t-78 -289.5z" />
<glyph unicode=":" horiz-adv-x="589" d="M174 100.5q0 51.5 35 85t86 33.5t85 -33.5t34 -85t-34 -86t-85 -34.5q-53 0 -87 34.5t-34 86zM174 850q0 51 35 85t86 34t85 -34t34 -85t-34 -86t-85 -35q-53 0 -87 35t-34 86z" />
<glyph unicode=";" horiz-adv-x="589" d="M135 -332q117 160 146 326q-98 23 -99 110q0 51 33 83t84 32q57 0 91 -36t34 -97q0 -174 -238 -461zM190 850q0 51 35 85t86 34t85 -34t34 -85t-34 -86t-85 -35q-53 0 -87 35t-34 86z" />
<glyph unicode="&#x3c;" horiz-adv-x="1179" d="M66 467v106l1036 486v-133l-873 -406l873 -407v-133z" />
<glyph unicode="=" horiz-adv-x="1179" d="M72 309v123h1036v-123h-1036zM72 604v123h1036v-123h-1036z" />
<glyph unicode="&#x3e;" horiz-adv-x="1179" d="M78 -20v133l872 407l-872 406v133l1036 -486v-106z" />
<glyph unicode="?" horiz-adv-x="872" d="M102 1346q205 92 365 92q170 0 272.5 -85t102.5 -227q0 -147 -113 -262q-47 -51 -174 -147q-84 -63 -103.5 -99t-19.5 -124v-93h-70v95q0 127 15.5 162.5t107.5 125.5q98 98 140.5 179t42.5 176q0 104 -63.5 168.5t-166.5 64.5q-86 0 -164 -49l-18 -193h-141zM274 96 q0 47 33 80t82 33t82 -33t33 -82t-33 -81.5t-82 -32.5t-82 32.5t-33 83.5z" />
<glyph unicode="@" horiz-adv-x="1703" d="M102 715q0 309 203 512q213 211 580 211q332 0 524.5 -164t192.5 -447q0 -217 -116 -366.5t-284 -149.5q-150 0 -162 154q-102 -156 -264 -156q-123 0 -191.5 76t-68.5 213q0 205 120 351.5t286 146.5q109 0 192 -72l8 53h140l-82 -475q-14 -82 -15 -121q0 -82 78 -82 q109 0 193 128t84 294q0 246 -166 394.5t-443 148.5q-291 0 -463 -176t-172 -473q0 -303 189 -484q199 -186 491 -186q154 0 304 68l24 -60q-160 -74 -348 -73q-375 0 -604.5 202.5t-229.5 532.5zM668 606q0 -205 163 -205q119 0 195 148l72 407q-63 61 -146 62 q-125 0 -213 -146q-71 -123 -71 -266z" />
<glyph unicode="A" horiz-adv-x="1337" d="M-10 0v66l114 6q37 70 115 270l275 719q100 256 131 356h84q20 -68 86 -235q16 -47 30 -78l328 -846q61 -156 76 -186l119 -6v-66h-500v66l160 6q-14 57 -56 172l-96 252h-489l-62 -158q-61 -162 -88 -266l150 -6v-66h-377zM393 571h436l-215 578z" />
<glyph unicode="B" horiz-adv-x="1228" d="M61 0v70l170 6q10 106 11 364v510q0 266 -11 396l-170 6v65h459q289 0 402 -67q143 -90 143 -291q0 -139 -78 -218t-244 -106q184 -27 258 -92q98 -86 99 -262q0 -207 -144 -301q-125 -80 -387 -80h-508zM422 440q0 -180 6 -364h92q385 0 385 311q0 158 -94 231.5 t-299 73.5h-90v-252zM422 768h78q377 0 377 291q0 147 -93 221q-82 66 -264 66h-94q-4 -250 -4 -369v-209z" />
<glyph unicode="C" horiz-adv-x="1337" d="M129 700q0 346 170 542t471 196q213 0 447 -99v-290h-140l-22 229q-141 84 -275 84q-213 0 -331.5 -176t-118.5 -490q0 -324 137 -491q121 -145 328 -146q133 0 278 70l19 240h143v-303q-260 -86 -447 -86q-317 0 -497 208q-162 186 -162 512z" />
<glyph unicode="D" horiz-adv-x="1409" d="M61 0v66l170 6q10 129 11 368v537q0 240 -11 369l-170 6v65h420q238 0 370 -33.5t228 -119.5q201 -176 201 -547q0 -393 -236 -578q-96 -78 -214.5 -108.5t-313.5 -30.5h-455zM426 440q0 -176 10 -364h96q283 0 416 152.5t133 476.5q0 328 -127 482t-397 154h-121 q-10 -188 -10 -364v-537z" />
<glyph unicode="E" horiz-adv-x="1175" d="M61 0v66l170 6q10 129 11 368v537q0 240 -11 369l-170 6v65h986v-368h-140l-26 292h-445q-10 -123 -10 -364v-219h487v-76h-487v-242q0 -242 10 -364h477l29 293h143v-369h-1024z" />
<glyph unicode="F" horiz-adv-x="1136" d="M61 0v66l170 6q10 129 11 368v537q0 240 -11 369l-170 6v65h990v-368h-140l-26 292h-449q-10 -199 -10 -364v-215h494v-76h-494v-246q0 -266 10 -368l170 -6v-66h-545z" />
<glyph unicode="G" horiz-adv-x="1447" d="M129 700q0 346 170 542t471 196q217 0 457 -99v-290h-140l-22 229q-147 84 -283 84q-211 0 -332.5 -177t-121.5 -487q0 -303 122.5 -471t344.5 -168q133 0 256 58v461l-164 6v65h504v-65l-156 -6v-283q0 -156 6 -227q-270 -88 -453 -88q-317 0 -497 208 q-162 186 -162 512z" />
<glyph unicode="H" horiz-adv-x="1544" d="M61 0v66l170 6q10 129 11 368v537q0 240 -11 369l-170 6v65h545v-65l-170 -6q-10 -129 -10 -369v-217h692v217q0 240 -10 369l-170 6v65h545v-65l-170 -6q-10 -129 -10 -369v-537q0 -240 10 -368l170 -6v-66h-545v66l170 6q10 129 10 368v244h-692v-244q0 -240 10 -368 l170 -6v-66h-545z" />
<glyph unicode="I" horiz-adv-x="692" d="M74 0v66l170 6q10 129 10 368v537q0 240 -10 369l-170 6v65h544v-65l-169 -6q-10 -129 -11 -369v-537q0 -240 11 -368l169 -6v-66h-544z" />
<glyph unicode="J" horiz-adv-x="700" d="M-106 -190l6 73q23 -2 49 -2q86 0 159.5 34t108.5 91q57 92 57 373v598q0 240 -10 369l-170 6v65h545v-65l-170 -6q-10 -129 -10 -369v-578q0 -252 -37 -342q-51 -119 -168 -185.5t-274 -66.5q-8 1 -86 5z" />
<glyph unicode="K" horiz-adv-x="1329" d="M61 0v66l170 6q10 129 11 368v537q0 240 -11 369l-170 6v65h525v-65l-150 -6q-10 -129 -10 -369v-232l616 601l-178 6v65h412v-65l-96 -6q-43 -37 -234 -213l-346 -334l461 -543q106 -125 168 -184l100 -6v-66h-491v66h143l-555 665v-291q0 -240 10 -368l150 -6v-66h-525 z" />
<glyph unicode="L" horiz-adv-x="1153" d="M61 0v66l170 6q10 129 11 368v537q0 240 -11 369l-170 6v65h545v-65l-170 -6q-10 -184 -10 -369v-537q0 -166 10 -364h465l27 293h143v-369h-1010z" />
<glyph unicode="M" horiz-adv-x="1796" d="M61 0v66l162 6q10 137 10 460v814l-172 6v65h385q35 -104 138 -342l315 -735l322 741q96 219 137 336h377v-65l-181 -6v-906q0 -219 11 -368l170 -6v-66h-545v66l170 6q10 123 10 368v777l-493 -1137h-58l-497 1137v-676q0 -336 10 -469l162 -6v-66h-433z" />
<glyph unicode="N" horiz-adv-x="1501" d="M61 0v66l162 6q10 129 10 522v752l-172 6v65h388q29 -59 165 -266l566 -842v668q0 240 -11 369l-161 6v65h432v-65l-162 -6q-10 -123 -10 -369v-977h-119q-35 70 -105 172l-61 88l-661 985v-659q0 -324 10 -514l162 -6v-66h-433z" />
<glyph unicode="O" horiz-adv-x="1538" d="M129 717q0 168 53.5 313.5t149.5 241.5q166 166 436 166q315 0 487 -224q154 -197 154 -505q0 -356 -203 -564q-166 -166 -438 -165q-313 0 -485 223q-154 197 -154 514zM328 715q0 -322 113.5 -496t326.5 -174q211 0 326.5 173t115.5 490.5t-115.5 490.5t-326.5 173 q-209 0 -324.5 -172t-115.5 -485z" />
<glyph unicode="P" horiz-adv-x="1185" d="M61 0v66l170 6q10 129 11 366v539q0 240 -11 369l-170 6v65h519q147 0 222 -15.5t134 -55.5q147 -100 147 -324q0 -219 -157 -322q-63 -41 -147.5 -57t-231.5 -16h-121v-189q0 -176 10 -366l203 -6v-66h-578zM426 702h78q188 0 270 66q109 84 109 258q0 319 -338 320 h-119v-644z" />
<glyph unicode="Q" horiz-adv-x="1538" d="M129 709q0 356 203 563q166 166 436 166q315 0 487 -224q154 -197 154 -505q0 -408 -258 -613q-117 -90 -291 -112q59 -131 135 -189.5t187 -58.5h26l9 -70q-43 -6 -84 -6q-174 0 -291 80t-187 248q-244 35 -385 229.5t-141 491.5zM324 715q0 -322 115.5 -496t328.5 -174 t329.5 173t116.5 490.5t-116.5 490.5t-329.5 173q-211 0 -327.5 -172t-116.5 -485z" />
<glyph unicode="R" horiz-adv-x="1249" d="M61 0v66l170 6q10 143 11 368v537q0 240 -11 369l-170 6v65h537q238 0 342 -78q131 -96 131 -286q0 -297 -348 -332q152 -23 214 -103.5t112 -320.5l51 -225l129 -6v-66h-301l-60 270q-55 252 -126.5 330t-247.5 78h-68v-238q0 -180 10 -368l170 -6v-66h-545zM426 750h57 q393 0 394 305q0 182 -132 252q-78 39 -225 39h-94v-596z" />
<glyph unicode="S" horiz-adv-x="1150" d="M143 66v303h144l24 -254q117 -70 236 -70q139 0 223 79t84 210q0 109 -61 168q-37 35 -82 58.5t-197 88.5q-209 86 -285 154q-86 76 -86 223q0 190 123 301t336 111q201 0 369 -99v-290h-140l-22 251q-94 72 -211 72q-127 0 -204 -73.5t-77 -196.5q0 -100 59.5 -155.5 t248.5 -133.5q242 -98 322.5 -180t80.5 -230q0 -197 -127 -310t-346 -113q-201 0 -412 86z" />
<glyph unicode="T" horiz-adv-x="1212" d="M41 1049v368h1130v-368h-139l-26 292h-297q-10 -219 -11 -405v-455q0 -270 11 -409l186 -6v-66h-578v66l187 6q10 188 10 409v455q0 186 -10 405h-297l-27 -292h-139z" />
<glyph unicode="U" horiz-adv-x="1488" d="M61 1352v65h545v-65l-170 -6q-10 -129 -10 -369v-414q0 -244 33 -327q72 -180 323 -181q244 0 338 181q47 88 47 337v404q0 174 -10 369l-162 6v65h432v-65l-161 -6q-10 -129 -11 -369v-453q0 -143 -16 -220t-63 -142q-131 -182 -414 -182q-313 0 -443 184 q-47 70 -62 153.5t-15 278.5v381q0 240 -11 369z" />
<glyph unicode="V" horiz-adv-x="1327" d="M-18 1352v65h499v-65l-155 -6q20 -86 131 -388l258 -698l252 684q111 311 135 402l-154 6v65h398v-65l-121 -6q-84 -199 -152 -379l-213 -559l-145 -408h-99l-147 408l-213 559l-154 379z" />
<glyph unicode="W" horiz-adv-x="1851" d="M0 1352v65h487v-65l-157 -6q27 -135 98 -424l147 -566l244 758q27 88 66 199q23 68 28 104h99q6 -37 98 -301l258 -774l162 639q61 254 82 365l-158 6v65h397v-65l-120 -6q-70 -225 -111 -379l-150 -559q-80 -303 -100 -408h-98q-27 117 -125 426l-232 702l-260 -806 q-78 -252 -88 -322h-98l-33 154l-28 108l-41 164l-117 451q-12 53 -82 305l-47 164z" />
<glyph unicode="X" horiz-adv-x="1347" d="M8 0v66l123 6q37 43 62 75l108 146l281 393l-267 412q-111 168 -170 248l-120 6v65h497v-65l-135 -6q47 -90 186 -308l132 -202l217 299q82 115 90 127q18 25 55 84l-139 6v65h375v-65l-117 -6q-63 -76 -209 -273l-221 -303l282 -438l179 -260l122 -6v-66h-495v66l123 6 q-20 49 -111 192l-221 348l-244 -348q-72 -104 -125 -192l144 -6v-66h-402z" />
<glyph unicode="Y" horiz-adv-x="1228" d="M-31 1352v65h488v-65l-142 -6q41 -78 168 -277l215 -334l199 369q98 186 121 242l-150 6v65h375v-65l-115 -6q-51 -74 -145 -250l-240 -449q-6 -86 -6 -194v-95q0 -96 6 -286l175 -6v-66h-545v66l174 6q6 111 6 286v95q0 106 -6 198l-324 488q-96 145 -147 207z" />
<glyph unicode="Z" horiz-adv-x="1288" d="M119 0v76l157 237l64 101l31 49l284 440q201 313 271 438h-619l-26 -292h-144v368h1018v-82l-299 -452l-225 -351l-189 -294q-49 -78 -71 -119l-27 -43h651l27 293h147v-369h-1050z" />
<glyph unicode="[" horiz-adv-x="778" d="M246 -319v1855h358v-66h-184v-1724h184v-65h-358z" />
<glyph unicode="\" horiz-adv-x="503" d="M41 1458h135l287 -1499h-135z" />
<glyph unicode="]" horiz-adv-x="778" d="M174 -254h184v1724h-184v66h358v-1855h-358v65z" />
<glyph unicode="^" horiz-adv-x="1179" d="M70 520l471 897h100l471 -897h-131l-391 750l-389 -750h-131z" />
<glyph unicode="_" d="M-33 -326h1090v-114h-1090v114z" />
<glyph unicode="`" d="M264 1501q0 16 31 17h149q33 -63 108 -137t148 -121l-26 -48q-207 84 -309 170q-101 82 -101 119z" />
<glyph unicode="a" horiz-adv-x="1077" d="M109 260q0 233 260 303q133 37 333 37v82q0 111 -5 148.5t-21 74.5q-45 88 -154 88q-111 0 -186 -92l-17 -168h-137l-6 234q172 92 344 92q207 0 297 -109q35 -43 47.5 -109.5t12.5 -224.5v-378q0 -94 10 -119q16 -41 63 -41q45 0 109 45l35 -51q-119 -92 -226 -92 q-70 0 -104.5 32.5t-50.5 112.5q-147 -145 -318 -145q-127 0 -206.5 77.5t-79.5 202.5zM283 297q0 -86 57 -144.5t141 -58.5q104 0 221 99v339q-156 -2 -251 -30q-168 -53 -168 -205z" />
<glyph unicode="b" horiz-adv-x="1232" d="M57 0v66l150 6q10 129 10 368v617q0 240 -10 368l-150 7v65l344 10q-10 -184 -10 -440v-170q82 88 153.5 125t166.5 37q186 0 296.5 -145.5t110.5 -393.5t-110.5 -394t-296.5 -146q-102 0 -176 37.5t-148 127.5l-6 -145h-324zM391 244q123 -164 264 -164q125 0 202 121 t77 321q0 203 -75 319.5t-204 116.5q-143 0 -264 -165v-549z" />
<glyph unicode="c" horiz-adv-x="962" d="M115 528q0 254 126 392.5t355 138.5q156 0 297 -55l-6 -254h-137l-19 206q-63 35 -129 35q-139 0 -219 -121.5t-80 -334.5q0 -221 88 -346.5t244 -125.5q115 0 219 91l49 -56q-119 -119 -307 -118q-229 0 -355 143t-126 405z" />
<glyph unicode="d" horiz-adv-x="1245" d="M115 510q0 252 110.5 400.5t298.5 148.5q98 0 171 -37t147 -125v160q0 240 -11 368l-149 7v65l344 10q-10 -354 -10 -440v-555q0 -268 10 -440l150 -6v-66h-324l-6 150q-135 -170 -330 -170q-184 0 -292.5 143t-108.5 387zM299 504q0 -190 77 -307t202 -117 q141 0 264 162v544q-113 172 -269 172q-125 0 -199.5 -123.5t-74.5 -330.5z" />
<glyph unicode="e" horiz-adv-x="1077" d="M115 528q0 252 115.5 391.5t322.5 139.5q287 0 375 -242q37 -100 43 -287h-668q4 -164 37 -251q78 -215 291 -216q141 0 264 105l49 -57q-145 -131 -352 -131q-229 0 -353 142t-124 406zM303 596h479q-2 207 -57 302t-170 95q-117 0 -182.5 -102t-69.5 -295z" />
<glyph unicode="f" horiz-adv-x="724" d="M76 0v66l157 6q10 133 11 368v527h-168v71h168v78q0 209 55 289q80 113 240 113q104 0 243 -56l-6 -221h-131l-12 176q-47 35 -88 35q-76 0 -107 -74q-20 -53 -20 -217v-123h233v-71h-233v-527q0 -229 10 -368l186 -6v-66h-538z" />
<glyph unicode="g" horiz-adv-x="1222" d="M115 530.5q0 239.5 110.5 384t292.5 144.5q96 0 166 -37t152 -129l6 156l323 -11v-65l-149 -6q-10 -168 -10 -414v-438q0 -203 -16.5 -286t-69.5 -142q-129 -147 -381 -148q-174 0 -367 88l10 228h142l10 -172q88 -68 209 -68q96 0 164.5 42t93.5 114q31 90 30 327v88 q-76 -88 -147.5 -124.5t-165.5 -36.5q-180 0 -293 135q-110 131 -110 370.5zM299 524q0 -188 69.5 -289.5t200.5 -101.5q133 0 262 150v493q-66 98 -128 140t-140 42q-123 0 -193.5 -115.5t-70.5 -318.5z" />
<glyph unicode="h" horiz-adv-x="1298" d="M76 0v66l149 6q10 109 11 368v617q0 174 -11 368l-149 7v65l344 10q-10 -313 -10 -440v-209q96 106 182 153.5t186 47.5q96 0 167 -46t102 -128q31 -84 30 -328v-117q0 -231 10 -368l150 -6v-66h-494v66l150 6q10 117 10 368v142q0 190 -31 260q-45 102 -161 102 q-154 0 -301 -188v-316q0 -262 10 -368l149 -6v-66h-493z" />
<glyph unicode="i" horiz-adv-x="638" d="M76 0v66l149 6q10 113 11 368v158q0 252 -11 369l-149 6v65l344 11q-10 -160 -10 -433v-176q0 -225 10 -368l149 -6v-66h-493zM211 1395q0 47 31.5 78.5t81 31.5t81 -31.5t31.5 -81t-31.5 -81t-78.5 -31.5q-51 0 -83 32t-32 83z" />
<glyph unicode="j" horiz-adv-x="645" d="M-66 -440l5 65q180 0 249 99q37 51 48.5 137t11.5 307v430q0 174 -10 369l-166 6v65l360 11q-10 -203 -10 -490v-364q0 -217 -12.5 -309.5t-49.5 -157.5q-102 -172 -360 -172q-41 0 -66 4zM223 1395q0 47 32 78.5t81 31.5t81 -31.5t32 -81t-32 -81t-79 -31.5 q-51 0 -83 32t-32 83z" />
<glyph unicode="k" horiz-adv-x="1157" d="M70 0v66l149 6q10 160 10 368v617q0 209 -10 368l-149 7v65l344 10q-10 -322 -11 -440v-489l453 389l-156 6v65h383v-65l-92 -6q-35 -23 -80 -60l-37 -29q-25 -19 -28 -24l-68 -55l-207 -183l265 -327q137 -172 180 -213l117 -10v-66h-302q-23 41 -131 184l-297 377v-127 q0 -174 11 -362l149 -6v-66h-493z" />
<glyph unicode="l" horiz-adv-x="638" d="M76 0v66l149 6q10 98 11 368v617q0 219 -11 368l-149 7v65l344 10q-10 -362 -10 -440v-633q0 -225 10 -362l149 -6v-66h-493z" />
<glyph unicode="m" horiz-adv-x="1921" d="M76 0v66l149 6q10 113 11 368v158q0 172 -15 369l-145 6v65l323 11l7 -185q96 106 177 150.5t177 44.5q215 0 276 -219q178 219 371 219q94 0 162.5 -46t99.5 -130q31 -80 31 -326v-117q0 -295 10 -368l150 -6v-66h-494v66l150 6q10 170 10 368v117q0 137 -5 189.5 t-24 95.5q-43 102 -156 102q-147 0 -286 -186v-318q0 -242 10 -368l149 -6v-66h-493v66l149 6q10 129 11 368v142q0 188 -29 260q-45 102 -156 102q-147 0 -286 -182v-322q0 -270 10 -368l149 -6v-66h-493z" />
<glyph unicode="n" horiz-adv-x="1298" d="M76 0v66l149 6q10 102 11 368v158q0 197 -15 369l-145 6v65l323 11l7 -195q96 109 184 157t190 48q94 0 165 -46t102 -128q31 -84 30 -328v-117q0 -231 10 -368l150 -6v-66h-494v66l150 6q10 113 10 368v142q0 190 -31 260q-45 102 -161 102q-154 0 -301 -188v-316 q0 -219 10 -368l149 -6v-66h-493z" />
<glyph unicode="o" horiz-adv-x="1185" d="M115 526q0 254 125 393.5t352 139.5q229 0 354 -140.5t125 -400.5q0 -258 -125 -398t-354 -140q-231 0 -354 141t-123 405zM303 524q0 -236 74 -357.5t215 -121.5q143 0 217 121t74 352.5t-75 353t-216 121.5q-139 0 -214 -121t-75 -348z" />
<glyph unicode="p" horiz-adv-x="1245" d="M70 -375l149 6q10 119 10 392v575q0 174 -10 369l-149 6v65l323 11l6 -154q90 94 159 129t167 35q186 0 295.5 -145.5t109.5 -393.5q0 -246 -110.5 -393t-296.5 -147q-98 0 -170 35.5t-150 125.5v-147q0 -229 11 -363l170 -6v-65h-514v65zM403 244q123 -164 265 -164 q125 0 201.5 121t76.5 321.5t-74.5 318t-203.5 117.5q-143 0 -265 -165v-549z" />
<glyph unicode="q" horiz-adv-x="1241" d="M115 512q0 248 111.5 397.5t295.5 149.5q94 0 170 -38t154 -124l6 152l324 -11v-65l-150 -6q-10 -195 -10 -369v-598q0 -174 10 -369l150 -6v-65h-514v65l169 6q10 195 11 369v145q-133 -166 -322 -165q-186 0 -295.5 143t-109.5 389zM299 504q0 -190 77 -307t202 -117 q141 0 264 162v544q-113 172 -267 172q-127 0 -201.5 -123.5t-74.5 -330.5z" />
<glyph unicode="r" horiz-adv-x="888" d="M76 0v66l149 6q10 158 11 368v158q0 197 -15 369l-145 6v65l315 11l6 -185q53 98 124 142.5t177 44.5q70 0 146 -23l-10 -272h-144l-18 196q-14 4 -35 4q-55 0 -106.5 -38.5t-81.5 -106.5q-39 -78 -39 -246v-125q0 -225 10 -368l162 -6v-66h-506z" />
<glyph unicode="s" horiz-adv-x="954" d="M119 754q0 143 96 224t264 81q170 0 328 -66l-6 -243h-139l-19 190q-78 51 -170 51q-94 0 -153.5 -50t-59.5 -130q0 -76 48 -114t196 -79q125 -37 171 -56t85 -52q88 -76 88 -217q0 -152 -98.5 -232.5t-280.5 -80.5q-174 0 -348 69l6 246h143l19 -201q82 -47 178 -47 q98 0 157.5 54.5t59.5 144.5q0 86 -49 129q-41 37 -201 84q-178 51 -246.5 115.5t-68.5 179.5z" />
<glyph unicode="t" horiz-adv-x="727" d="M63 967v71h27q123 0 179.5 61.5t82.5 227.5h68v-289h274v-71h-274v-662q0 -135 28.5 -186t104.5 -51q61 0 125 53l41 -53q-102 -88 -227 -88q-137 0 -192.5 72.5t-55.5 252.5v662h-181z" />
<glyph unicode="u" horiz-adv-x="1298" d="M61 973v65l345 11q-10 -311 -11 -433v-159q0 -199 31 -271q43 -106 162 -106q156 0 301 203v684l-160 6v65l344 11q-10 -356 -10 -433v-176q0 -211 10 -368l150 -6v-66h-316l-6 188q-102 -115 -187 -161.5t-190 -46.5q-205 0 -272 176q-31 82 -31 325v117q0 262 -6 369z " />
<glyph unicode="v" horiz-adv-x="1093" d="M12 973v65h420v-65l-110 -6q27 -84 86 -246l188 -494l190 488q35 92 91 252l-166 6v65h370v-65l-102 -6q-59 -121 -123 -287l-166 -426q-72 -190 -92 -254h-102q-29 90 -101 274l-151 396q-59 150 -129 297z" />
<glyph unicode="w" horiz-adv-x="1564" d="M14 973v65h418v-65l-115 -8q10 -53 74 -273l131 -432l275 778h77l263 -772l125 406q66 227 79 293l-159 8v65h368v-65l-102 -8q-37 -84 -111 -314l-123 -393l-75 -258h-88l-80 233l-189 555l-198 -567q-43 -123 -74 -221h-88l-62 209l-139 457q-45 158 -102 299z" />
<glyph unicode="x" horiz-adv-x="1079" d="M4 0v66l125 6q84 98 162 207l164 225l-140 219q-123 186 -168 244l-112 6v65h446v-65l-112 -6q27 -49 114 -191l90 -143l132 178q88 123 106 156l-135 6v65h352v-65l-108 -6q-43 -47 -144 -179l-160 -221l201 -315q98 -147 129 -180l105 -6v-66h-453v66l121 6 q-29 66 -90 157l-131 205l-138 -188l-77 -111q-35 -53 -41 -63l116 -6v-66h-354z" />
<glyph unicode="y" horiz-adv-x="1095" d="M12 973v65h420v-65l-110 -6q49 -147 100 -279l180 -450l184 477q59 164 88 252l-163 6v65h370v-65l-102 -6q-51 -106 -123 -287l-301 -772q-78 -197 -163 -278t-218 -81q-43 0 -102 11l26 141q55 -18 109 -18q100 0 162.5 60t122.5 214l18 47l-260 651q-84 207 -135 312z " />
<glyph unicode="z" horiz-adv-x="1054" d="M90 0v66l645 907h-469l-22 -211h-140v276h844v-65l-643 -907h494l24 206h144v-272h-877z" />
<glyph unicode="{" horiz-adv-x="778" d="M121 575v66q57 4 83.5 14.5t49.5 36.5q27 33 36 70t9 121v309q0 190 49 260q35 47 86 65.5t152 18.5h90v-66h-72q-82 0 -106.5 -37.5t-24.5 -168.5v-349q0 -166 -41 -225q-43 -59 -131 -82q109 -27 148 -108q25 -55 24 -199v-348q0 -131 24.5 -169t106.5 -38h72v-65h-90 q-100 0 -151.5 18t-86.5 65q-49 70 -49 261v309q0 92 -13.5 136t-52.5 73q-32 26 -112 32z" />
<glyph unicode="|" horiz-adv-x="589" d="M209 -440v1937h174v-1937h-174z" />
<glyph unicode="}" horiz-adv-x="778" d="M102 -254h72q82 0 106.5 38t24.5 169v348q0 166 41 225q43 59 131 82q-109 27 -147 109q-25 55 -25 198v349q0 131 -24.5 168.5t-106.5 37.5h-72v66h91q100 0 151 -18.5t86 -65.5q49 -70 49 -260v-309q0 -92 13.5 -136.5t52.5 -72.5q33 -27 112 -33v-66q-57 -4 -83.5 -14 t-49.5 -37q-27 -33 -36 -69.5t-9 -120.5v-309q0 -190 -49 -261q-35 -47 -86 -65t-151 -18h-91v65z" />
<glyph unicode="~" horiz-adv-x="1179" d="M72 463q82 113 149.5 160t147.5 47q90 0 241 -92q84 -49 118 -63.5t71 -14.5q51 0 95 28.5t105 102.5l17 20l92 -78q-152 -207 -299 -206q-88 0 -238 92q-80 47 -117.5 62.5t-80.5 15.5q-53 0 -95 -30t-114 -118z" />
<glyph unicode="&#xa1;" horiz-adv-x="649" d="M205 -211q0 10 12 152l72 723h71l72 -723q12 -141 12 -152q0 -47 -33.5 -76.5t-86.5 -29.5q-51 0 -85 29.5t-34 76.5zM211 944q0 49 32.5 82t82.5 33q51 0 82.5 -33t31.5 -84q0 -47 -32.5 -80t-82 -33t-82 33t-32.5 82z" />
<glyph unicode="&#xa2;" horiz-adv-x="1179" d="M164 895q0 238 111.5 376t322.5 163v155h88v-151q172 4 311 -56l-6 -254h-137l-18 207q-61 27 -150 27v-913q23 -4 51 -5q115 0 230 64l34 -72q-133 -80 -315 -80v-145h-88v151q-213 29 -323.5 165.5t-110.5 367.5zM348 915q0 -178 64.5 -294.5t185.5 -155.5v885 q-250 -73 -250 -435z" />
<glyph unicode="&#xa3;" horiz-adv-x="1179" d="M104 0v74q100 31 156 141q27 57 34 119.5t7 236.5v121h-182v76h182v162q0 156 22.5 236.5t86.5 146.5q125 129 350 129q178 0 315 -78v-295h-139l-16 256q-68 51 -164 51q-82 0 -145.5 -41t-94.5 -112q-31 -76 -31 -244v-211h346v-76h-346v-67q0 -252 -34 -346 q-39 -100 -138 -177h762v-102h-971z" />
<glyph unicode="&#xa4;" horiz-adv-x="1179" d="M68 276l122 123q-100 135 -100 318q0 178 100 317l-122 123l82 80l120 -121q131 106 320 107q186 0 317 -107l121 121l82 -80l-123 -123q100 -139 100 -317q0 -182 -100 -318l123 -123l-82 -81l-121 120q-131 -106 -317 -106q-188 0 -320 106l-120 -120zM213 721 q0 -182 106 -295q106 -109 271 -109q168 0 271.5 110t103.5 290q0 178 -103.5 287.5t-271.5 109.5t-272.5 -109.5t-104.5 -283.5z" />
<glyph unicode="&#xa5;" horiz-adv-x="1179" d="M12 1352v65h486v-65l-148 -6q61 -127 113 -220l207 -391l180 387q70 156 96 224l-147 6v65h368v-65l-106 -6q-6 -12 -16.5 -30t-14.5 -28q-2 -4 -51 -96l-39 -76l-195 -403h232v-76h-262q-6 -104 -6 -135v-27h268v-76h-268v-41q0 -119 10 -286l170 -6v-66h-545v66l170 6 q10 166 10 284v43h-293v76h293v23q0 39 -6 139h-287v76h254l-202 358q-92 168 -164 275z" />
<glyph unicode="&#xa6;" horiz-adv-x="589" d="M209 0v557h174v-557h-174zM209 860v557h174v-557h-174z" />
<glyph unicode="&#xa7;" horiz-adv-x="1179" d="M225 545q0 82 39 145.5t139 151.5q-88 47 -126.5 108.5t-38.5 155.5q0 158 102 245t291 87q152 0 319 -64l-4 -246h-139l-19 197q-82 37 -155 37q-231 0 -232 -209q0 -86 48.5 -134t195.5 -112q205 -86 272.5 -147.5t67.5 -161.5q0 -78 -35 -145.5t-119 -155.5 q147 -90 148 -272q0 -158 -109.5 -250t-300.5 -92q-158 0 -342 77l4 240h150l16 -205q88 -37 174 -37q113 0 178.5 58.5t65.5 158.5q0 92 -58.5 148.5t-224.5 126.5q-180 76 -243.5 136.5t-63.5 158.5zM367 621q0 -72 55 -116t242 -124q63 -29 108 -53q82 104 82 190 q0 66 -46 109t-183 102l-166 78q-92 -94 -92 -186z" />
<glyph unicode="&#xa8;" d="M205 1388.5q0 47.5 31.5 78t78.5 30.5t78 -31.5t31 -79t-32 -78t-77 -30.5q-47 0 -78.5 31.5t-31.5 79zM598 1388.5q0 47.5 32 78t79 30.5t77.5 -31.5t30.5 -79t-31.5 -78t-76.5 -30.5q-47 0 -79 31.5t-32 79z" />
<glyph unicode="&#xa9;" horiz-adv-x="1638" d="M90 719q0 307 209 513t520 206q315 0 522 -207t207 -522.5t-205.5 -522t-521.5 -206.5q-322 0 -526.5 207.5t-204.5 531.5zM168 717q0 -295 183.5 -483.5t469.5 -188.5q281 0 465 188.5t184 475t-184 475t-467 188.5q-279 0 -465 -187t-186 -468zM467 702 q0 180 98.5 279.5t274.5 99.5q131 0 268 -57v-158h-111l-12 123q-80 43 -139 43q-102 0 -165 -92t-63 -244q0 -150 62.5 -236.5t169.5 -86.5q68 0 145 45l11 117h114v-150q-150 -61 -274 -61q-174 0 -276.5 102t-102.5 276z" />
<glyph unicode="&#xaa;" horiz-adv-x="778" d="M104 991q0 182 361 189v39q0 84 -16 110q-31 43 -87 43q-57 0 -104 -35l-10 -98h-101l-4 137q109 53 219 54q131 0 191 -60q37 -43 37 -186v-211q0 -45 6 -60.5t22 -15.5q18 0 72 31l27 -43q-82 -53 -146 -54q-74 0 -94 68q-98 -68 -186 -68q-86 0 -136.5 43t-50.5 117z M240 1006q0 -47 25.5 -73t72.5 -26q57 0 127 58v157q-127 -6 -176 -31.5t-49 -84.5z" />
<glyph unicode="&#xab;" horiz-adv-x="991" d="M90 522l359 389h75l-215 -389l215 -391h-69zM459 522l358 389h76l-215 -389l215 -391h-70z" />
<glyph unicode="&#xac;" horiz-adv-x="1179" d="M72 655v123h993v-577h-139v454h-854z" />
<glyph unicode="&#xad;" horiz-adv-x="704" d="M102 502v133h500v-133h-500z" />
<glyph unicode="&#xae;" horiz-adv-x="1228" d="M84 1022q0 223 151.5 372.5t378.5 149.5q229 0 380 -149.5t151 -380.5q0 -229 -150.5 -380t-378.5 -151q-233 0 -382.5 151.5t-149.5 387.5zM162 1020q0 -209 127 -342t327 -133q195 0 323 133t128 336t-128 336t-325 133q-195 0 -323.5 -132t-128.5 -331zM369 735v45 l73 2q4 74 4 129v205q0 53 -4 127l-73 4v45h243q227 0 228 -147q0 -104 -125 -129q47 -12 70.5 -48t43.5 -126l13 -58l53 -4v-45h-147l-25 107q-20 88 -51 118.5t-97 30.5h-22v-80q0 -59 4 -129l66 -2v-45h-254zM553 1032h22q154 0 154 111q0 100 -145 100h-31v-211z" />
<glyph unicode="&#xaf;" d="M213 1331v92h598v-92h-598z" />
<glyph unicode="&#xb0;" horiz-adv-x="681" d="M43 1149q0 127 84 208t215 81t215 -82t84 -211q0 -131 -83 -213t-216 -82t-216 83t-83 216zM131 1147q0 -102 57.5 -161.5t153.5 -59.5t153.5 59t57.5 158q0 100 -57.5 159.5t-153.5 59.5q-94 0 -152.5 -59.5t-58.5 -155.5z" />
<glyph unicode="&#xb1;" horiz-adv-x="1179" d="M72 0v123h1036v-123h-1036zM72 616v123h456v299h123v-299h457v-123h-457v-297h-123v297h-456z" />
<glyph unicode="&#xb2;" horiz-adv-x="778" d="M96 639l4 92q211 166 306.5 285t95.5 215q0 59 -38 98t-95 39q-61 0 -133 -31l-11 -131h-114v164q164 59 288 60q121 0 184.5 -49.5t63.5 -141.5q0 -100 -95 -213t-327 -285h418l-10 -102h-537z" />
<glyph unicode="&#xb3;" horiz-adv-x="778" d="M102 674l7 164h114l8 -131q59 -23 109 -23q76 0 124 48t48 124q0 78 -51 121t-142 43q-25 0 -92 -6v59q61 -4 68 -4q92 0 149.5 46t57.5 122q0 61 -40 98t-108 37q-43 0 -100 -18l-8 -129h-115l-4 157q147 47 256 48q125 0 193.5 -50.5t68.5 -142.5q0 -145 -178 -188 q190 -31 190 -191q0 -106 -81.5 -168.5t-219.5 -62.5q-119 0 -254 47z" />
<glyph unicode="&#xb4;" d="M354 1260q74 47 149 120.5t107 137.5h150q31 0 31 -17q0 -37 -101 -119q-102 -86 -309 -170z" />
<glyph unicode="&#xb5;" horiz-adv-x="1179" d="M4 963v65l340 10q-6 -166 -6 -301v-157q0 -182 9 -253t38 -122q66 -111 178 -111q76 0 150.5 47t126.5 129v686l-160 7v65l344 10q-10 -371 -10 -432v-166q0 -205 10 -368l150 -6v-66h-326v184q-139 -205 -324 -204q-115 0 -186 100v-86q0 -193 10 -434h-194 q10 260 10 463v565q0 174 -10 368z" />
<glyph unicode="&#xb6;" horiz-adv-x="1179" d="M102 1010q0 242 177 352q53 33 113.5 44t180.5 11h527v-69l-191 -7v-1583h-123v1583h-172v-1583h-122v865q-182 0 -286 102.5t-104 284.5z" />
<glyph unicode="&#xb7;" horiz-adv-x="589" d="M174 567q0 51 35 85t86 34t85 -34t34 -85t-34 -86t-85 -35q-53 0 -87 35t-34 86z" />
<glyph unicode="&#xb8;" d="M338 -393q207 168 201 317h106q25 0 33 -6t8 -24q0 -82 -90 -183q-63 -66 -221 -162z" />
<glyph unicode="&#xb9;" horiz-adv-x="778" d="M131 1282q160 59 246 135h100q-6 -98 -6 -243v-291q0 -113 6 -193l117 -4v-47h-387v47l119 4q6 88 6 193v291l-2 131q-55 -33 -178 -78z" />
<glyph unicode="&#xba;" horiz-adv-x="778" d="M86 1135q0 141 79 218t224.5 77t224 -78t78.5 -221.5t-78.5 -221.5t-224.5 -78q-147 0 -225 78.5t-78 225.5zM225 1133q0 -115 43 -179.5t121 -64.5t121 64.5t43 177t-43 177t-121 64.5q-76 0 -120 -63t-44 -176z" />
<glyph unicode="&#xbb;" horiz-adv-x="991" d="M98 131l215 391l-215 389h76l358 -389l-364 -391h-70zM467 131l215 391l-215 389h76l358 -389l-364 -391h-70z" />
<glyph unicode="&#xbc;" horiz-adv-x="1720" d="M119 1282q160 59 246 135h100q-6 -98 -6 -243v-291q0 -113 6 -193l117 -4v-47h-387v47l118 4q6 88 6 193v291l-2 131q-55 -33 -178 -78zM555 -41l479 1499h107l-479 -1499h-107zM985 229v72l361 477h133q-4 -139 -4 -215v-258h143v-76h-143v-41q0 -72 4 -137l102 -2v-49 h-350v49l100 2q6 55 6 137v41h-352zM1079 305h262v352z" />
<glyph unicode="&#xbd;" horiz-adv-x="1720" d="M117 1282q160 59 245 135h101q-6 -98 -6 -243v-291q0 -113 6 -193l117 -4v-47h-387v47l118 4q6 88 6 193v291l-2 131q-55 -33 -178 -78zM512 -41l477 1499h107l-478 -1499h-106zM1004 0l4 92q211 166 306 285t95 215q0 59 -38 98t-95 39q-61 0 -133 -31l-10 -131h-115 v164q164 59 289 60q121 0 184 -49.5t63 -141.5q0 -100 -95 -213t-326 -285h417l-10 -102h-536z" />
<glyph unicode="&#xbe;" horiz-adv-x="1720" d="M131 674l6 164h115l8 -131q59 -23 109 -23q76 0 124 48t48 124q0 78 -51.5 121t-141.5 43q-25 0 -92 -6v59q61 -4 68 -4q92 0 149 46t57 122q0 61 -39.5 98t-107.5 37q-43 0 -100 -18l-9 -129h-114l-4 157q147 47 256 48q125 0 193.5 -50.5t68.5 -142.5q0 -145 -178 -188 q190 -31 190 -191q0 -106 -82 -168.5t-219 -62.5q-119 0 -254 47zM596 -41l477 1499h107l-478 -1499h-106zM969 229v72l360 477h133q-4 -139 -4 -215v-258h144v-76h-144v-41q0 -72 4 -137l103 -2v-49h-351v49l101 2q6 55 6 137v41h-352zM1063 305h262v352z" />
<glyph unicode="&#xbf;" horiz-adv-x="872" d="M31 -6q0 147 112 262q39 41 174 147q84 63 103.5 99.5t19.5 124.5v51h70v-53q0 -125 -15.5 -162t-107.5 -127q-98 -98 -140 -179t-42 -175q0 -104 63.5 -169t165.5 -65q86 0 164 49l18 193h142l12 -215q-205 -92 -364 -92q-170 0 -272.5 85t-102.5 226zM369 944 q0 49 32.5 82t81.5 33q51 0 83 -33t32 -84q0 -47 -33 -80t-82 -33t-81.5 33t-32.5 82z" />
<glyph unicode="&#xc0;" horiz-adv-x="1337" d="M-10 0v66l114 6q37 70 115 270l275 719q100 256 131 356h84q20 -68 86 -235q16 -47 30 -78l328 -846q61 -156 76 -186l119 -6v-66h-500v66l160 6q-14 57 -56 172l-96 252h-489l-62 -158q-61 -162 -88 -266l150 -6v-66h-377zM389 1794q0 16 31 16h149q33 -63 108 -137 t148 -121l-26 -47q-207 84 -310 170q-100 82 -100 119zM393 571h436l-215 578z" />
<glyph unicode="&#xc1;" horiz-adv-x="1337" d="M-10 0v66l114 6q37 70 115 270l275 719q100 256 131 356h84q20 -68 86 -235q16 -47 30 -78l328 -846q61 -156 76 -186l119 -6v-66h-500v66l160 6q-14 57 -56 172l-96 252h-489l-62 -158q-61 -162 -88 -266l150 -6v-66h-377zM393 571h436l-215 578zM535 1552 q74 47 148.5 121t107.5 137h149q31 0 31 -16q0 -37 -101 -119q-102 -86 -309 -170z" />
<glyph unicode="&#xc2;" horiz-adv-x="1337" d="M-10 0v66l114 6q37 70 115 270l275 719q100 256 131 356h84q20 -68 86 -235q16 -47 30 -78l328 -846q61 -156 76 -186l119 -6v-66h-500v66l160 6q-14 57 -56 172l-96 252h-489l-62 -158q-61 -162 -88 -266l150 -6v-66h-377zM360 1559q94 61 222 251h176 q127 -190 221 -251l-31 -48q-184 86 -278 189q-86 -98 -279 -189zM393 571h436l-215 578z" />
<glyph unicode="&#xc3;" horiz-adv-x="1337" d="M-10 0v66l114 6q37 70 115 270l275 719q100 256 131 356h84q20 -68 86 -235q16 -47 30 -78l328 -846q61 -156 76 -186l119 -6v-66h-500v66l160 6q-14 57 -56 172l-96 252h-489l-62 -158q-61 -162 -88 -266l150 -6v-66h-377zM328 1540q59 207 200 207q51 0 160 -35 q94 -31 148 -31q100 0 112 78h62q-14 -113 -60.5 -162t-136.5 -49q-51 0 -160 33q-104 33 -166 33q-72 0 -98 -74h-61zM393 571h436l-215 578z" />
<glyph unicode="&#xc4;" horiz-adv-x="1337" d="M-10 0v66l114 6q37 70 115 270l275 719q100 256 131 356h84q20 -68 86 -235q16 -47 30 -78l328 -846q61 -156 76 -186l119 -6v-66h-500v66l160 6q-14 57 -56 172l-96 252h-489l-62 -158q-61 -162 -88 -266l150 -6v-66h-377zM362 1651q0 47 32 77.5t79 30.5t78 -31.5 t31 -78.5t-31 -78t-78 -31t-79 32t-32 79zM393 571h436l-215 578zM756 1651q0 47 31.5 77.5t78.5 30.5t78 -31.5t31 -78.5t-31 -78t-78 -31t-78.5 32t-31.5 79z" />
<glyph unicode="&#xc5;" horiz-adv-x="1337" d="M-10 0v66l114 6q37 70 115 270l275 719q98 250 131 354q-74 16 -117 70.5t-43 130.5q0 88 58.5 146.5t146.5 58.5t146 -58.5t58 -146.5q0 -76 -45 -130t-118 -71q16 -59 84 -233l30 -78l328 -846q49 -127 76 -186l119 -6v-66h-500v66l160 6q-14 57 -56 172l-96 252h-489 l-62 -158q-61 -162 -88 -266l150 -6v-66h-377zM393 571h436l-215 578zM553 1618q0 -59 32.5 -95t84 -36t84 36t32.5 93t-32.5 93t-84 36t-84 -36t-32.5 -91z" />
<glyph unicode="&#xc6;" horiz-adv-x="1835" d="M-123 0v66l150 6q41 55 151 229l694 1116h834v-368h-139l-27 292h-434v-583h469v-76h-469v-242q0 -240 6 -364h463l27 293h143v-369h-1004v66l174 6q6 121 7 286v88h-557l-113 -182q-74 -123 -111 -192l146 -6v-66h-410zM412 522h510v824z" />
<glyph unicode="&#xc7;" horiz-adv-x="1337" d="M129 700q0 346 170 542t471 196q213 0 447 -99v-290h-140l-22 229q-141 84 -275 84q-213 0 -331.5 -176t-118.5 -490q0 -324 137 -491q121 -145 328 -146q133 0 278 70l19 240h143v-303q-260 -86 -447 -86q-317 0 -497 208q-162 186 -162 512zM496 -393q207 168 200 317 h107q25 0 33 -6t8 -24q0 -82 -90 -183q-63 -66 -222 -162z" />
<glyph unicode="&#xc8;" horiz-adv-x="1175" d="M61 0v66l170 6q10 129 11 368v537q0 240 -11 369l-170 6v65h986v-368h-140l-26 292h-445q-10 -123 -10 -364v-219h487v-76h-487v-242q0 -242 10 -364h477l29 293h143v-369h-1024zM356 1794q0 16 31 16h150q33 -63 107.5 -137t148.5 -121l-27 -47q-207 84 -309 170 q-101 82 -101 119z" />
<glyph unicode="&#xc9;" horiz-adv-x="1175" d="M61 0v66l170 6q10 129 11 368v537q0 240 -11 369l-170 6v65h986v-368h-140l-26 292h-445q-10 -123 -10 -364v-219h487v-76h-487v-242q0 -242 10 -364h477l29 293h143v-369h-1024zM459 1552q74 47 148.5 121t107.5 137h149q31 0 31 -16q0 -37 -100 -119 q-102 -86 -310 -170z" />
<glyph unicode="&#xca;" horiz-adv-x="1175" d="M61 0v66l170 6q10 129 11 368v537q0 240 -11 369l-170 6v65h986v-368h-140l-26 292h-445q-10 -123 -10 -364v-219h487v-76h-487v-242q0 -242 10 -364h477l29 293h143v-369h-1024zM279 1559q94 61 221 251h176q127 -190 221 -251l-31 -48q-184 86 -278 189 q-86 -98 -279 -189z" />
<glyph unicode="&#xcb;" horiz-adv-x="1175" d="M61 0v66l170 6q10 129 11 368v537q0 240 -11 369l-170 6v65h986v-368h-140l-26 292h-445q-10 -123 -10 -364v-219h487v-76h-487v-242q0 -242 10 -364h477l29 293h143v-369h-1024zM281 1651q0 47 31.5 77.5t78.5 30.5t78 -31.5t31 -78.5t-31 -78t-78 -31t-78.5 32 t-31.5 79zM674 1651q0 47 31.5 77.5t78.5 30.5t78 -31.5t31 -78.5t-31 -78t-78 -31t-78.5 32t-31.5 79z" />
<glyph unicode="&#xcc;" horiz-adv-x="692" d="M74 0v66l170 6q10 129 10 368v537q0 240 -10 369l-170 6v65h544v-65l-169 -6q-10 -129 -11 -369v-537q0 -240 11 -368l169 -6v-66h-544zM115 1794q0 16 30 16h150q33 -63 107.5 -137t148.5 -121l-27 -47q-207 84 -309 170q-100 82 -100 119z" />
<glyph unicode="&#xcd;" horiz-adv-x="692" d="M74 0v66l170 6q10 129 10 368v537q0 240 -10 369l-170 6v65h544v-65l-169 -6q-10 -129 -11 -369v-537q0 -240 11 -368l169 -6v-66h-544zM199 1552q74 47 148.5 121t107.5 137h149q31 0 31 -16q0 -37 -100 -119q-102 -86 -310 -170z" />
<glyph unicode="&#xce;" horiz-adv-x="692" d="M37 1559q94 61 221 251h176q127 -190 221 -251l-30 -48q-184 86 -279 189q-86 -98 -278 -189zM74 0v66l170 6q10 129 10 368v537q0 240 -10 369l-170 6v65h544v-65l-169 -6q-10 -129 -11 -369v-537q0 -240 11 -368l169 -6v-66h-544z" />
<glyph unicode="&#xcf;" horiz-adv-x="692" d="M39 1651q0 47 31.5 77.5t79 30.5t78 -31.5t30.5 -78.5t-30.5 -78t-78 -31t-79 32t-31.5 79zM74 0v66l170 6q10 129 10 368v537q0 240 -10 369l-170 6v65h544v-65l-169 -6q-10 -129 -11 -369v-537q0 -240 11 -368l169 -6v-66h-544zM432 1651q0 47 32 77.5t79 30.5 t77.5 -31.5t30.5 -78.5t-30.5 -78t-77.5 -31t-79 32t-32 79z" />
<glyph unicode="&#xd0;" horiz-adv-x="1433" d="M25 678v76h217v223q0 240 -11 369l-170 6v65h420q238 0 370 -33.5t228 -119.5q201 -176 201 -547q0 -393 -236 -578q-96 -78 -214.5 -108.5t-313.5 -30.5h-455v66l170 6q10 129 11 368v238h-217zM426 440q0 -176 10 -364h96q283 0 416 152.5t133 476.5q0 328 -127 482 t-397 154h-121q-10 -188 -10 -364v-223h297v-76h-297v-238z" />
<glyph unicode="&#xd1;" horiz-adv-x="1501" d="M61 0v66l162 6q10 129 10 522v752l-172 6v65h388q29 -59 165 -266l566 -842v668q0 240 -11 369l-161 6v65h432v-65l-162 -6q-10 -123 -10 -369v-977h-119q-35 70 -105 172l-61 88l-661 985v-659q0 -324 10 -514l162 -6v-66h-433zM455 1540q59 207 200 207q51 0 160 -35 q94 -31 148 -31q100 0 112 78h62q-14 -113 -60.5 -162t-136.5 -49q-51 0 -160 33q-104 33 -166 33q-72 0 -98 -74h-61z" />
<glyph unicode="&#xd2;" horiz-adv-x="1538" d="M129 717q0 168 53.5 313.5t149.5 241.5q166 166 436 166q315 0 487 -224q154 -197 154 -505q0 -356 -203 -564q-166 -166 -438 -165q-313 0 -485 223q-154 197 -154 514zM328 715q0 -322 113.5 -496t326.5 -174q211 0 326.5 173t115.5 490.5t-115.5 490.5t-326.5 173 q-209 0 -324.5 -172t-115.5 -485zM539 1794q0 16 30 16h150q33 -63 107.5 -137t148.5 -121l-27 -47q-207 84 -309 170q-100 82 -100 119z" />
<glyph unicode="&#xd3;" horiz-adv-x="1538" d="M129 717q0 168 53.5 313.5t149.5 241.5q166 166 436 166q315 0 487 -224q154 -197 154 -505q0 -356 -203 -564q-166 -166 -438 -165q-313 0 -485 223q-154 197 -154 514zM328 715q0 -322 113.5 -496t326.5 -174q211 0 326.5 173t115.5 490.5t-115.5 490.5t-326.5 173 q-209 0 -324.5 -172t-115.5 -485zM592 1552q74 47 148.5 121t107.5 137h149q31 0 31 -16q0 -37 -100 -119q-102 -86 -310 -170z" />
<glyph unicode="&#xd4;" horiz-adv-x="1538" d="M129 717q0 168 53.5 313.5t149.5 241.5q166 166 436 166q315 0 487 -224q154 -197 154 -505q0 -356 -203 -564q-166 -166 -438 -165q-313 0 -485 223q-154 197 -154 514zM328 715q0 -322 113.5 -496t326.5 -174q211 0 326.5 173t115.5 490.5t-115.5 490.5t-326.5 173 q-209 0 -324.5 -172t-115.5 -485zM461 1559q94 61 221 251h176q127 -190 221 -251l-30 -48q-184 86 -279 189q-86 -98 -278 -189z" />
<glyph unicode="&#xd5;" horiz-adv-x="1538" d="M129 717q0 168 53.5 313.5t149.5 241.5q166 166 436 166q315 0 487 -224q154 -197 154 -505q0 -356 -203 -564q-166 -166 -438 -165q-313 0 -485 223q-154 197 -154 514zM328 715q0 -322 113.5 -496t326.5 -174q211 0 326.5 173t115.5 490.5t-115.5 490.5t-326.5 173 q-209 0 -324.5 -172t-115.5 -485zM449 1540q59 207 200 207q51 0 160 -35q94 -31 147 -31q100 0 113 78h61q-14 -113 -60 -162t-136 -49q-51 0 -160 33q-104 33 -166 33q-72 0 -98 -74h-61z" />
<glyph unicode="&#xd6;" horiz-adv-x="1538" d="M129 717q0 168 53.5 313.5t149.5 241.5q166 166 436 166q315 0 487 -224q154 -197 154 -505q0 -356 -203 -564q-166 -166 -438 -165q-313 0 -485 223q-154 197 -154 514zM328 715q0 -322 113.5 -496t326.5 -174q211 0 326.5 173t115.5 490.5t-115.5 490.5t-326.5 173 q-209 0 -324.5 -172t-115.5 -485zM463 1651q0 47 31.5 77.5t79 30.5t78 -31.5t30.5 -78.5t-32 -78t-77 -31q-47 0 -78.5 32t-31.5 79zM856 1651q0 47 32 77.5t79 30.5t77.5 -31.5t30.5 -78.5t-31.5 -78t-76.5 -31q-47 0 -79 32t-32 79z" />
<glyph unicode="&#xd7;" horiz-adv-x="1179" d="M150 166l352 352l-352 352l90 88l350 -352l354 352l88 -88l-354 -352l352 -352l-88 -88l-352 352l-352 -352z" />
<glyph unicode="&#xd8;" horiz-adv-x="1538" d="M129 709q0 330 175 529.5t464 199.5q242 0 414 -148l118 148l70 -58l-125 -155q164 -211 164 -516q0 -330 -175 -529.5t-466 -199.5q-240 0 -412 147l-118 -147l-70 57l125 156q-164 209 -164 516zM324 709q0 -231 67 -396l711 879q-125 180 -334 180q-211 0 -327.5 -174 t-116.5 -489zM436 225q123 -180 334 -180t327.5 174t116.5 490q0 231 -67 395z" />
<glyph unicode="&#xd9;" horiz-adv-x="1488" d="M61 1352v65h545v-65l-170 -6q-10 -129 -10 -369v-414q0 -244 33 -327q72 -180 323 -181q244 0 338 181q47 88 47 337v404q0 174 -10 369l-162 6v65h432v-65l-161 -6q-10 -129 -11 -369v-453q0 -143 -16 -220t-63 -142q-131 -182 -414 -182q-313 0 -443 184 q-47 70 -62 153.5t-15 278.5v381q0 240 -11 369zM514 1794q0 16 31 16h149q33 -63 108 -137t148 -121l-26 -47q-207 84 -310 170q-100 82 -100 119z" />
<glyph unicode="&#xda;" horiz-adv-x="1488" d="M61 1352v65h545v-65l-170 -6q-10 -129 -10 -369v-414q0 -244 33 -327q72 -180 323 -181q244 0 338 181q47 88 47 337v404q0 174 -10 369l-162 6v65h432v-65l-161 -6q-10 -129 -11 -369v-453q0 -143 -16 -220t-63 -142q-131 -182 -414 -182q-313 0 -443 184 q-47 70 -62 153.5t-15 278.5v381q0 240 -11 369zM680 1552q74 47 148.5 121t107.5 137h149q31 0 31 -16q0 -37 -100 -119q-102 -86 -309 -170z" />
<glyph unicode="&#xdb;" horiz-adv-x="1488" d="M61 1352v65h545v-65l-170 -6q-10 -129 -10 -369v-414q0 -244 33 -327q72 -180 323 -181q244 0 338 181q47 88 47 337v404q0 174 -10 369l-162 6v65h432v-65l-161 -6q-10 -129 -11 -369v-453q0 -143 -16 -220t-63 -142q-131 -182 -414 -182q-313 0 -443 184 q-47 70 -62 153.5t-15 278.5v381q0 240 -11 369zM498 1559q94 61 221 251h176q127 -190 221 -251l-31 -48q-184 86 -278 189q-86 -98 -279 -189z" />
<glyph unicode="&#xdc;" horiz-adv-x="1488" d="M61 1352v65h545v-65l-170 -6q-10 -129 -10 -369v-414q0 -244 33 -327q72 -180 323 -181q244 0 338 181q47 88 47 337v404q0 174 -10 369l-162 6v65h432v-65l-161 -6q-10 -129 -11 -369v-453q0 -143 -16 -220t-63 -142q-131 -182 -414 -182q-313 0 -443 184 q-47 70 -62 153.5t-15 278.5v381q0 240 -11 369zM494 1651q0 47 31.5 77.5t78.5 30.5t78 -31.5t31 -78.5t-31 -78t-78 -31t-78.5 32t-31.5 79zM887 1651q0 47 31.5 77.5t78.5 30.5t78 -31.5t31 -78.5t-31 -78t-78 -31t-78.5 32t-31.5 79z" />
<glyph unicode="&#xdd;" horiz-adv-x="1228" d="M-31 1352v65h488v-65l-142 -6q41 -78 168 -277l215 -334l199 369q98 186 121 242l-150 6v65h375v-65l-115 -6q-51 -74 -145 -250l-240 -449q-6 -86 -6 -194v-95q0 -96 6 -286l175 -6v-66h-545v66l174 6q6 111 6 286v95q0 106 -6 198l-324 488q-96 145 -147 207zM578 1552 q74 47 148.5 121t107.5 137h149q31 0 31 -16q0 -37 -101 -119q-102 -86 -309 -170z" />
<glyph unicode="&#xde;" horiz-adv-x="1185" d="M61 0v66l170 6q10 195 11 372v529q0 178 -11 373l-170 6v65h545v-65l-172 -6q-2 -74 -6 -109q0 -47 -2 -102h154q147 0 222 -15.5t134 -56.5q147 -100 147 -324q0 -207 -139 -309q-66 -47 -154 -66.5t-243 -19.5h-121q2 -147 8 -272l172 -6v-66h-545zM426 420h78 q182 0 264 59q115 86 115 264q0 319 -338 320h-119v-643z" />
<glyph unicode="&#xdf;" horiz-adv-x="1234" d="M47 0v66l150 6q10 174 10 417v519q0 162 17.5 237.5t70.5 138.5q111 133 315 134q188 0 304 -103.5t116 -273.5q0 -279 -303 -336q162 -14 250 -82q135 -109 135 -311q0 -195 -111.5 -311.5t-298.5 -116.5q-104 0 -204 45l28 69q86 -39 146 -39q121 0 188.5 93.5 t67.5 259.5q0 197 -97 282q-78 66 -264 66h-24v69h24q283 0 283 318q0 137 -66.5 221t-175.5 84q-150 0 -200 -141q-27 -80 -27 -269v-700q0 -223 4 -342h-338z" />
<glyph unicode="&#xe0;" horiz-adv-x="1077" d="M109 260q0 233 260 303q133 37 333 37v82q0 111 -5 148.5t-21 74.5q-45 88 -154 88q-111 0 -186 -92l-17 -168h-137l-6 234q172 92 344 92q207 0 297 -109q35 -43 47.5 -109.5t12.5 -224.5v-378q0 -94 10 -119q16 -41 63 -41q45 0 109 45l35 -51q-119 -92 -226 -92 q-70 0 -104.5 32.5t-50.5 112.5q-147 -145 -318 -145q-127 0 -206.5 77.5t-79.5 202.5zM283 297q0 -86 57 -144.5t141 -58.5q104 0 221 99v339q-156 -2 -251 -30q-168 -53 -168 -205zM291 1501q0 16 31 17h149q33 -63 107.5 -137t148.5 -121l-27 -48q-207 84 -309 170 q-100 82 -100 119z" />
<glyph unicode="&#xe1;" horiz-adv-x="1077" d="M109 260q0 233 260 303q133 37 333 37v82q0 111 -5 148.5t-21 74.5q-45 88 -154 88q-111 0 -186 -92l-17 -168h-137l-6 234q172 92 344 92q207 0 297 -109q35 -43 47.5 -109.5t12.5 -224.5v-378q0 -94 10 -119q16 -41 63 -41q45 0 109 45l35 -51q-119 -92 -226 -92 q-70 0 -104.5 32.5t-50.5 112.5q-147 -145 -318 -145q-127 0 -206.5 77.5t-79.5 202.5zM283 297q0 -86 57 -144.5t141 -58.5q104 0 221 99v339q-156 -2 -251 -30q-168 -53 -168 -205zM381 1260q74 47 148.5 120.5t107.5 137.5h149q31 0 31 -17q0 -37 -100 -119 q-102 -86 -309 -170z" />
<glyph unicode="&#xe2;" horiz-adv-x="1077" d="M109 260q0 233 260 303q133 37 333 37v82q0 111 -5 148.5t-21 74.5q-45 88 -154 88q-111 0 -186 -92l-17 -168h-137l-6 234q172 92 344 92q207 0 297 -109q35 -43 47.5 -109.5t12.5 -224.5v-378q0 -94 10 -119q16 -41 63 -41q45 0 109 45l35 -51q-119 -92 -226 -92 q-70 0 -104.5 32.5t-50.5 112.5q-147 -145 -318 -145q-127 0 -206.5 77.5t-79.5 202.5zM229 1266q94 61 222 252h176q127 -190 221 -252l-31 -47q-184 86 -278 188q-86 -98 -279 -188zM283 297q0 -86 57 -144.5t141 -58.5q104 0 221 99v339q-156 -2 -251 -30 q-168 -53 -168 -205z" />
<glyph unicode="&#xe3;" horiz-adv-x="1077" d="M109 260q0 233 260 303q133 37 333 37v82q0 111 -5 148.5t-21 74.5q-45 88 -154 88q-111 0 -186 -92l-17 -168h-137l-6 234q172 92 344 92q207 0 297 -109q35 -43 47.5 -109.5t12.5 -224.5v-378q0 -94 10 -119q16 -41 63 -41q45 0 109 45l35 -51q-119 -92 -226 -92 q-70 0 -104.5 32.5t-50.5 112.5q-147 -145 -318 -145q-127 0 -206.5 77.5t-79.5 202.5zM197 1278q59 207 200 207q51 0 160 -35q94 -31 148 -31q100 0 112 78h62q-14 -113 -60.5 -162t-136.5 -49q-51 0 -160 33q-104 33 -166 33q-72 0 -98 -74h-61zM283 297q0 -86 57 -144.5 t141 -58.5q104 0 221 99v339q-156 -2 -251 -30q-168 -53 -168 -205z" />
<glyph unicode="&#xe4;" horiz-adv-x="1077" d="M109 260q0 233 260 303q133 37 333 37v82q0 111 -5 148.5t-21 74.5q-45 88 -154 88q-111 0 -186 -92l-17 -168h-137l-6 234q172 92 344 92q207 0 297 -109q35 -43 47.5 -109.5t12.5 -224.5v-378q0 -94 10 -119q16 -41 63 -41q45 0 109 45l35 -51q-119 -92 -226 -92 q-70 0 -104.5 32.5t-50.5 112.5q-147 -145 -318 -145q-127 0 -206.5 77.5t-79.5 202.5zM231 1388.5q0 47.5 32 78t79 30.5t78 -31.5t31 -79t-31 -78t-78 -30.5t-79 31.5t-32 79zM283 297q0 -86 57 -144.5t141 -58.5q104 0 221 99v339q-156 -2 -251 -30q-168 -53 -168 -205z M625 1388.5q0 47.5 31.5 78t78.5 30.5t78 -31.5t31 -79t-31 -78t-78 -30.5t-78.5 31.5t-31.5 79z" />
<glyph unicode="&#xe5;" horiz-adv-x="1077" d="M109 260q0 233 260 303q133 37 333 37v82q0 111 -5 148.5t-21 74.5q-45 88 -154 88q-111 0 -186 -92l-17 -168h-137l-6 234q172 92 344 92q207 0 297 -109q35 -43 47.5 -109.5t12.5 -224.5v-378q0 -94 10 -119q16 -41 63 -41q45 0 109 45l35 -51q-119 -92 -226 -92 q-70 0 -104.5 32.5t-50.5 112.5q-147 -145 -318 -145q-127 0 -206.5 77.5t-79.5 202.5zM283 297q0 -86 57 -144.5t141 -58.5q104 0 221 99v339q-156 -2 -251 -30q-168 -53 -168 -205zM334 1364q0 86 59.5 144.5t145.5 58.5q88 0 146 -58.5t58 -146.5t-58 -146.5t-146 -58.5 t-146.5 58.5t-58.5 148.5zM422 1364q0 -59 32.5 -95t84 -36t84 36t32.5 93t-32.5 93t-84 36t-84 -36t-32.5 -91z" />
<glyph unicode="&#xe6;" horiz-adv-x="1640" d="M109 260q0 227 268 303q119 35 346 37v82q0 111 -5 148.5t-24 74.5q-49 88 -162 88q-117 0 -196 -92l-17 -168h-137l-6 234q178 92 354 92q205 0 297 -119q121 119 306 119q256 0 348 -203q55 -123 57 -326h-639q6 -166 35 -251q72 -215 270 -216q139 0 258 105l49 -57 q-145 -131 -352 -131q-268 0 -393 206q-74 -109 -158 -157.5t-196 -48.5q-137 0 -220 76.5t-83 203.5zM283 295q0 -88 56 -144.5t142 -56.5q61 0 116.5 29t88.5 78q37 53 37 145v184q-231 -4 -335.5 -60t-104.5 -175zM899 598h451q-2 395 -215 395q-109 0 -170.5 -102.5 t-65.5 -292.5z" />
<glyph unicode="&#xe7;" horiz-adv-x="962" d="M115 528q0 254 126 392.5t355 138.5q156 0 297 -55l-6 -254h-137l-19 206q-63 35 -129 35q-139 0 -219 -121.5t-80 -334.5q0 -221 88 -346.5t244 -125.5q115 0 219 91l49 -56q-119 -119 -307 -118q-229 0 -355 143t-126 405zM309 -393q207 168 201 317h106q25 0 33 -6 t8 -24q0 -82 -90 -183q-63 -66 -221 -162z" />
<glyph unicode="&#xe8;" horiz-adv-x="1077" d="M115 528q0 252 115.5 391.5t322.5 139.5q287 0 375 -242q37 -100 43 -287h-668q4 -164 37 -251q78 -215 291 -216q141 0 264 105l49 -57q-145 -131 -352 -131q-229 0 -353 142t-124 406zM303 596h479q-2 207 -57 302t-170 95q-117 0 -182.5 -102t-69.5 -295zM305 1501 q0 16 31 17h149q33 -63 108 -137t148 -121l-26 -48q-207 84 -309 170q-101 82 -101 119z" />
<glyph unicode="&#xe9;" horiz-adv-x="1077" d="M115 528q0 252 115.5 391.5t322.5 139.5q287 0 375 -242q37 -100 43 -287h-668q4 -164 37 -251q78 -215 291 -216q141 0 264 105l49 -57q-145 -131 -352 -131q-229 0 -353 142t-124 406zM303 596h479q-2 207 -57 302t-170 95q-117 0 -182.5 -102t-69.5 -295zM416 1260 q74 47 148.5 120.5t107.5 137.5h149q31 0 31 -17q0 -37 -100 -119q-102 -86 -310 -170z" />
<glyph unicode="&#xea;" horiz-adv-x="1077" d="M115 528q0 252 115.5 391.5t322.5 139.5q287 0 375 -242q37 -100 43 -287h-668q4 -164 37 -251q78 -215 291 -216q141 0 264 105l49 -57q-145 -131 -352 -131q-229 0 -353 142t-124 406zM250 1266q94 61 221 252h176q127 -190 221 -252l-30 -47q-184 86 -279 188 q-86 -98 -278 -188zM303 596h479q-2 207 -57 302t-170 95q-117 0 -182.5 -102t-69.5 -295z" />
<glyph unicode="&#xeb;" horiz-adv-x="1077" d="M115 528q0 252 115.5 391.5t322.5 139.5q287 0 375 -242q37 -100 43 -287h-668q4 -164 37 -251q78 -215 291 -216q141 0 264 105l49 -57q-145 -131 -352 -131q-229 0 -353 142t-124 406zM246 1388.5q0 47.5 31.5 78t78.5 30.5t78 -31.5t31 -79t-32 -78t-77 -30.5 q-47 0 -78.5 31.5t-31.5 79zM303 596h479q-2 207 -57 302t-170 95q-117 0 -182.5 -102t-69.5 -295zM639 1388.5q0 47.5 31.5 78t79 30.5t78 -31.5t30.5 -79t-31.5 -78t-76.5 -30.5q-47 0 -79 31.5t-32 79z" />
<glyph unicode="&#xec;" horiz-adv-x="638" d="M72 1501q0 16 30 17h150q33 -63 107.5 -137t148.5 -121l-27 -48q-207 84 -309 170q-100 82 -100 119zM76 0v66l149 6q10 158 11 368v158q0 205 -11 369l-149 6v65l344 11q-10 -250 -10 -433v-176q0 -225 10 -368l149 -6v-66h-493z" />
<glyph unicode="&#xed;" horiz-adv-x="638" d="M76 0v66l149 6q10 158 11 368v158q0 205 -11 369l-149 6v65l344 11q-10 -250 -10 -433v-176q0 -225 10 -368l149 -6v-66h-493zM162 1260q74 47 148.5 120.5t107.5 137.5h149q31 0 31 -17q0 -37 -100 -119q-102 -86 -310 -170z" />
<glyph unicode="&#xee;" horiz-adv-x="638" d="M10 1266q94 61 221 252h177q127 -190 221 -252l-31 -47q-184 86 -279 188q-86 -98 -278 -188zM76 0v66l149 6q10 158 11 368v158q0 205 -11 369l-149 6v65l344 11q-10 -250 -10 -433v-176q0 -225 10 -368l149 -6v-66h-493z" />
<glyph unicode="&#xef;" horiz-adv-x="638" d="M6 1388.5q0 47.5 32 78t79 30.5t77.5 -31.5t30.5 -79t-30.5 -78t-77.5 -30.5t-79 31.5t-32 79zM76 0v66l149 6q10 158 11 368v158q0 205 -11 369l-149 6v65l344 11q-10 -250 -10 -433v-176q0 -225 10 -368l149 -6v-66h-493zM399 1388.5q0 47.5 32 78t79 30.5t77.5 -31.5 t30.5 -79t-30.5 -78t-77.5 -30.5t-79 31.5t-32 79z" />
<glyph unicode="&#xf0;" horiz-adv-x="1144" d="M115 487q0 233 119.5 371.5t322.5 138.5q113 0 209 -55q-57 164 -170 291l-299 -137l-35 75l273 125q-117 98 -277 148l21 69q178 -45 344 -176l292 136l35 -78l-260 -119q158 -156 249 -362.5t91 -409.5q0 -244 -124 -384t-337 -140q-207 0 -330.5 138t-123.5 369z M299 500q0 -213 66 -324q76 -131 204 -131q131 0 204 114.5t73 317.5q0 221 -70 334q-74 121 -205 121q-133 0 -202.5 -110.5t-69.5 -321.5z" />
<glyph unicode="&#xf1;" horiz-adv-x="1298" d="M76 0v66l149 6q10 102 11 368v158q0 197 -15 369l-145 6v65l323 11l7 -195q96 109 184 157t190 48q94 0 165 -46t102 -128q31 -84 30 -328v-117q0 -231 10 -368l150 -6v-66h-494v66l150 6q10 113 10 368v142q0 190 -31 260q-45 102 -161 102q-154 0 -301 -188v-316 q0 -219 10 -368l149 -6v-66h-493zM307 1278q59 207 201 207q51 0 160 -35q94 -31 147 -31q100 0 113 78h61q-14 -113 -60 -162t-136 -49q-51 0 -160 33q-104 33 -166 33q-72 0 -98 -74h-62z" />
<glyph unicode="&#xf2;" horiz-adv-x="1185" d="M115 526q0 254 125 393.5t352 139.5q229 0 354 -140.5t125 -400.5q0 -258 -125 -398t-354 -140q-231 0 -354 141t-123 405zM303 524q0 -236 74 -357.5t215 -121.5q143 0 217 121t74 352.5t-75 353t-216 121.5q-139 0 -214 -121t-75 -348zM346 1501q0 16 31 17h149 q33 -63 108 -137t148 -121l-26 -48q-207 84 -310 170q-100 82 -100 119z" />
<glyph unicode="&#xf3;" horiz-adv-x="1185" d="M115 526q0 254 125 393.5t352 139.5q229 0 354 -140.5t125 -400.5q0 -258 -125 -398t-354 -140q-231 0 -354 141t-123 405zM303 524q0 -236 74 -357.5t215 -121.5q143 0 217 121t74 352.5t-75 353t-216 121.5q-139 0 -214 -121t-75 -348zM436 1260q74 47 148.5 120.5 t107.5 137.5h150q31 0 30 -17q0 -37 -100 -119q-102 -86 -309 -170z" />
<glyph unicode="&#xf4;" horiz-adv-x="1185" d="M115 526q0 254 125 393.5t352 139.5q229 0 354 -140.5t125 -400.5q0 -258 -125 -398t-354 -140q-231 0 -354 141t-123 405zM285 1266q94 61 221 252h176q127 -190 221 -252l-31 -47q-184 86 -278 188q-86 -98 -279 -188zM303 524q0 -236 74 -357.5t215 -121.5 q143 0 217 121t74 352.5t-75 353t-216 121.5q-139 0 -214 -121t-75 -348z" />
<glyph unicode="&#xf5;" horiz-adv-x="1185" d="M115 526q0 254 125 393.5t352 139.5q229 0 354 -140.5t125 -400.5q0 -258 -125 -398t-354 -140q-231 0 -354 141t-123 405zM252 1278q59 207 201 207q51 0 159 -35q94 -31 148 -31q100 0 112 78h62q-14 -113 -60.5 -162t-136.5 -49q-51 0 -159 33q-104 33 -166 33 q-72 0 -99 -74h-61zM303 524q0 -236 74 -357.5t215 -121.5q143 0 217 121t74 352.5t-75 353t-216 121.5q-139 0 -214 -121t-75 -348z" />
<glyph unicode="&#xf6;" horiz-adv-x="1185" d="M115 526q0 254 125 393.5t352 139.5q229 0 354 -140.5t125 -400.5q0 -258 -125 -398t-354 -140q-231 0 -354 141t-123 405zM287 1388.5q0 47.5 31.5 78t78.5 30.5t78 -31.5t31 -79t-32 -78t-77 -30.5q-47 0 -78.5 31.5t-31.5 79zM303 524q0 -236 74 -357.5t215 -121.5 q143 0 217 121t74 352.5t-75 353t-216 121.5q-139 0 -214 -121t-75 -348zM680 1388.5q0 47.5 31.5 78t79 30.5t78 -31.5t30.5 -79t-31.5 -78t-76.5 -30.5q-47 0 -79 31.5t-32 79z" />
<glyph unicode="&#xf7;" horiz-adv-x="1179" d="M72 457v123h1036v-123h-1036zM477 190q0 47 33 79t80 32t79.5 -32.5t32.5 -80t-32.5 -80t-79.5 -32.5q-49 0 -81 31.5t-32 82.5zM477 852q0 47 33 79t80 32t79.5 -33t32.5 -80t-32.5 -80t-79.5 -33q-49 0 -81 32t-32 83z" />
<glyph unicode="&#xf8;" horiz-adv-x="1185" d="M90 35l119 129q-92 133 -92 356q0 258 124 398.5t353 140.5q201 0 332 -119l108 119l64 -55l-119 -130q94 -137 94 -358q0 -256 -125 -396t-354 -140q-207 0 -332 118l-108 -118zM301 520q0 -129 25 -229l505 547q-78 156 -237 155q-143 0 -218 -121t-75 -352zM356 201 q80 -156 238 -156q143 0 219 122t76 353q0 121 -27 228z" />
<glyph unicode="&#xf9;" horiz-adv-x="1298" d="M61 973v65l345 11q-10 -311 -11 -433v-159q0 -199 31 -271q43 -106 162 -106q156 0 301 203v684l-160 6v65l344 11q-10 -356 -10 -433v-176q0 -211 10 -368l150 -6v-66h-316l-6 188q-102 -115 -187 -161.5t-190 -46.5q-205 0 -272 176q-31 82 -31 325v117q0 262 -6 369z M401 1501q0 16 31 17h150q33 -63 107.5 -137t148.5 -121l-27 -48q-207 84 -309 170q-101 82 -101 119z" />
<glyph unicode="&#xfa;" horiz-adv-x="1298" d="M61 973v65l345 11q-10 -311 -11 -433v-159q0 -199 31 -271q43 -106 162 -106q156 0 301 203v684l-160 6v65l344 11q-10 -356 -10 -433v-176q0 -211 10 -368l150 -6v-66h-316l-6 188q-102 -115 -187 -161.5t-190 -46.5q-205 0 -272 176q-31 82 -31 325v117q0 262 -6 369z M492 1260q74 47 148.5 120.5t107.5 137.5h149q31 0 31 -17q0 -37 -101 -119q-102 -86 -309 -170z" />
<glyph unicode="&#xfb;" horiz-adv-x="1298" d="M61 973v65l345 11q-10 -311 -11 -433v-159q0 -199 31 -271q43 -106 162 -106q156 0 301 203v684l-160 6v65l344 11q-10 -356 -10 -433v-176q0 -211 10 -368l150 -6v-66h-316l-6 188q-102 -115 -187 -161.5t-190 -46.5q-205 0 -272 176q-31 82 -31 325v117q0 262 -6 369z M340 1266q94 61 221 252h176q127 -190 221 -252l-30 -47q-184 86 -279 188q-86 -98 -278 -188z" />
<glyph unicode="&#xfc;" horiz-adv-x="1298" d="M61 973v65l345 11q-10 -311 -11 -433v-159q0 -199 31 -271q43 -106 162 -106q156 0 301 203v684l-160 6v65l344 11q-10 -356 -10 -433v-176q0 -211 10 -368l150 -6v-66h-316l-6 188q-102 -115 -187 -161.5t-190 -46.5q-205 0 -272 176q-31 82 -31 325v117q0 262 -6 369z M342 1388.5q0 47.5 32 78t79 30.5t77.5 -31.5t30.5 -79t-30.5 -78t-77.5 -30.5t-79 31.5t-32 79zM735 1388.5q0 47.5 32 78t79 30.5t77.5 -31.5t30.5 -79t-30.5 -78t-77.5 -30.5t-79 31.5t-32 79z" />
<glyph unicode="&#xfd;" horiz-adv-x="1095" d="M12 973v65h420v-65l-110 -6q49 -147 100 -279l180 -450l184 477q59 164 88 252l-163 6v65h370v-65l-102 -6q-51 -106 -123 -287l-301 -772q-78 -197 -163 -278t-218 -81q-43 0 -102 11l26 141q55 -18 109 -18q100 0 162.5 60t122.5 214l18 47l-260 651q-84 207 -135 312z M469 1260q74 47 148.5 120.5t107.5 137.5h149q31 0 31 -17q0 -37 -100 -119q-102 -86 -309 -170z" />
<glyph unicode="&#xfe;" horiz-adv-x="1236" d="M61 -375l150 6q10 209 10 392v1026q0 219 -10 368l-150 4v66l345 10l-11 -440v-160q86 90 157 126t165 36q186 0 295.5 -145.5t109.5 -393.5q0 -246 -110.5 -393t-296.5 -147q-98 0 -170 35.5t-150 125.5v-147q0 -174 11 -363l169 -6v-65h-514v65zM395 244 q123 -164 264 -164q125 0 202 121t77 321.5t-75 318t-201 117.5q-78 0 -139.5 -37.5t-127.5 -127.5v-549z" />
<glyph unicode="&#xff;" horiz-adv-x="1095" d="M12 973v65h420v-65l-110 -6q49 -147 100 -279l180 -450l184 477q59 164 88 252l-163 6v65h370v-65l-102 -6q-51 -106 -123 -287l-301 -772q-78 -197 -163 -278t-218 -81q-43 0 -102 11l26 141q55 -18 109 -18q100 0 162.5 60t122.5 214l18 47l-260 651q-84 207 -135 312z M272 1388.5q0 47.5 32 78t79 30.5t78 -31.5t31 -79t-31 -78t-78 -30.5t-79 31.5t-32 79zM666 1388.5q0 47.5 31.5 78t78.5 30.5t78 -31.5t31 -79t-31 -78t-78 -30.5t-78.5 31.5t-31.5 79z" />
<glyph unicode="&#x100;" horiz-adv-x="1337" d="M-10 0v66l114 6q37 70 115 270l275 719q100 256 131 356h84q20 -68 86 -235q16 -47 30 -78l328 -846q61 -156 76 -186l119 -6v-66h-500v66l160 6q-14 57 -56 172l-96 252h-489l-62 -158q-61 -162 -88 -266l150 -6v-66h-377zM371 1593v93h598v-93h-598zM393 571h436 l-215 578z" />
<glyph unicode="&#x101;" horiz-adv-x="1077" d="M109 260q0 233 260 303q133 37 333 37v82q0 111 -5 148.5t-21 74.5q-45 88 -154 88q-111 0 -186 -92l-17 -168h-137l-6 234q172 92 344 92q207 0 297 -109q35 -43 47.5 -109.5t12.5 -224.5v-378q0 -94 10 -119q16 -41 63 -41q45 0 109 45l35 -51q-119 -92 -226 -92 q-70 0 -104.5 32.5t-50.5 112.5q-147 -145 -318 -145q-127 0 -206.5 77.5t-79.5 202.5zM240 1331v92h598v-92h-598zM283 297q0 -86 57 -144.5t141 -58.5q104 0 221 99v339q-156 -2 -251 -30q-168 -53 -168 -205z" />
<glyph unicode="&#x102;" horiz-adv-x="1337" d="M-10 0v66l114 6q37 70 115 270l275 719q100 256 131 356h84q20 -68 86 -235q16 -47 30 -78l328 -846q61 -156 76 -186l119 -6v-66h-500v66l160 6q-14 57 -56 172l-96 252h-489l-62 -158q-61 -162 -88 -266l150 -6v-66h-377zM371 1829h69q8 -98 63.5 -143.5t164 -45.5 t165 45.5t64.5 143.5h70q-12 -297 -299 -297t-297 297zM393 571h436l-215 578z" />
<glyph unicode="&#x103;" horiz-adv-x="1077" d="M109 260q0 233 260 303q133 37 333 37v82q0 111 -5 148.5t-21 74.5q-45 88 -154 88q-111 0 -186 -92l-17 -168h-137l-6 234q172 92 344 92q207 0 297 -109q35 -43 47.5 -109.5t12.5 -224.5v-378q0 -94 10 -119q16 -41 63 -41q45 0 109 45l35 -51q-119 -92 -226 -92 q-70 0 -104.5 32.5t-50.5 112.5q-147 -145 -318 -145q-127 0 -206.5 77.5t-79.5 202.5zM242 1518h69q8 -98 63.5 -143.5t164 -45.5t165 45t64.5 144h70q-12 -297 -299 -297t-297 297zM283 297q0 -86 57 -144.5t141 -58.5q104 0 221 99v339q-156 -2 -251 -30 q-168 -53 -168 -205z" />
<glyph unicode="&#x104;" horiz-adv-x="1337" d="M-10 0v66l114 6q37 70 115 270l275 719q98 252 131 356h84q20 -68 86 -235q16 -47 30 -78l328 -846q49 -127 76 -186l119 -6v-66q-121 -74 -166 -125t-45 -115q0 -125 145 -125q25 0 74 7l8 -58q-82 -25 -145 -24q-102 0 -163 48t-61 130q0 139 252 262h-399v66l160 6 q-14 57 -56 172l-96 252h-489l-62 -158q-61 -162 -88 -266l150 -6v-66h-377zM393 571h436l-215 578z" />
<glyph unicode="&#x105;" horiz-adv-x="1077" d="M109 260q0 233 260 303q133 37 333 37v82q0 115 -4 150.5t-22 72.5q-45 88 -154 88q-111 0 -186 -92l-17 -168h-137l-6 234q172 92 344 92q207 0 297 -109q35 -43 47.5 -109.5t12.5 -224.5v-378q0 -94 10 -119q16 -41 65 -41q43 0 109 47l33 -53q-39 -27 -72 -45 q-154 -88 -206 -141.5t-52 -125.5q0 -125 145 -125q25 0 74 7l8 -58q-82 -25 -145 -24q-102 0 -162.5 48t-60.5 130q0 125 215 244q-100 12 -125 143q-147 -145 -318 -145q-127 0 -206.5 77.5t-79.5 202.5zM283 297q0 -86 57 -144.5t141 -58.5q104 0 221 99v339 q-156 -2 -251 -30q-168 -53 -168 -205z" />
<glyph unicode="&#x106;" horiz-adv-x="1337" d="M129 700q0 346 170 542t471 196q213 0 447 -99v-290h-140l-22 229q-141 84 -275 84q-213 0 -331.5 -176t-118.5 -490q0 -324 137 -491q121 -145 328 -146q133 0 278 70l19 240h143v-303q-260 -86 -447 -86q-317 0 -497 208q-162 186 -162 512zM621 1552q74 47 148.5 121 t107.5 137h149q31 0 31 -16q0 -37 -101 -119q-102 -86 -309 -170z" />
<glyph unicode="&#x107;" horiz-adv-x="962" d="M115 528q0 254 126 392.5t355 138.5q156 0 297 -55l-6 -254h-137l-19 206q-63 35 -129 35q-139 0 -219 -121.5t-80 -334.5q0 -221 88 -346.5t244 -125.5q115 0 219 91l49 -56q-119 -119 -307 -118q-229 0 -355 143t-126 405zM420 1260q74 47 148.5 120.5t107.5 137.5h149 q31 0 31 -17q0 -37 -100 -119q-102 -86 -310 -170z" />
<glyph unicode="&#x108;" horiz-adv-x="1337" d="M129 700q0 346 170 542t471 196q213 0 447 -99v-290h-140l-22 229q-141 84 -275 84q-213 0 -331.5 -176t-118.5 -490q0 -324 137 -491q121 -145 328 -146q133 0 278 70l19 240h143v-303q-260 -86 -447 -86q-317 0 -497 208q-162 186 -162 512zM477 1559q94 61 221 251 h176q127 -190 222 -251l-31 -48q-184 86 -279 189q-86 -98 -278 -189z" />
<glyph unicode="&#x109;" horiz-adv-x="962" d="M115 528q0 254 126 392.5t355 138.5q156 0 297 -55l-6 -254h-137l-19 206q-63 35 -129 35q-139 0 -219 -121.5t-80 -334.5q0 -221 88 -346.5t244 -125.5q115 0 219 91l49 -56q-119 -119 -307 -118q-229 0 -355 143t-126 405zM276 1266q94 61 222 252h176 q127 -190 221 -252l-31 -47q-184 86 -278 188q-86 -98 -279 -188z" />
<glyph unicode="&#x10a;" horiz-adv-x="1337" d="M129 700q0 346 170 542t471 196q213 0 447 -99v-290h-140l-22 229q-141 84 -275 84q-213 0 -331.5 -176t-118.5 -490q0 -324 137 -491q121 -145 328 -146q133 0 278 70l19 240h143v-303q-260 -86 -447 -86q-317 0 -497 208q-162 186 -162 512zM696 1651q0 47 32 77.5 t79 30.5t77.5 -31.5t30.5 -78.5t-31.5 -78t-76.5 -31q-47 0 -79 32t-32 79z" />
<glyph unicode="&#x10b;" horiz-adv-x="962" d="M115 528q0 254 126 392.5t355 138.5q156 0 297 -55l-6 -254h-137l-19 206q-63 35 -129 35q-139 0 -219 -121.5t-80 -334.5q0 -221 88 -346.5t244 -125.5q115 0 219 91l49 -56q-119 -119 -307 -118q-229 0 -355 143t-126 405zM469 1388.5q0 47.5 31.5 78t79 30.5t78 -31.5 t30.5 -79t-30.5 -78t-78 -30.5t-79 31.5t-31.5 79z" />
<glyph unicode="&#x10c;" horiz-adv-x="1337" d="M129 700q0 346 170 542t471 196q213 0 447 -99v-290h-140l-22 229q-141 84 -275 84q-213 0 -331.5 -176t-118.5 -490q0 -324 137 -491q121 -145 328 -146q133 0 278 70l19 240h143v-303q-260 -86 -447 -86q-317 0 -497 208q-162 186 -162 512zM489 1780l31 47 q184 -86 279 -189q86 98 278 189l31 -47q-94 -61 -221 -252h-176q-128 191 -222 252z" />
<glyph unicode="&#x10d;" horiz-adv-x="962" d="M115 528q0 254 126 392.5t355 138.5q156 0 297 -55l-6 -254h-137l-19 206q-63 35 -129 35q-139 0 -219 -121.5t-80 -334.5q0 -221 88 -346.5t244 -125.5q115 0 219 91l49 -56q-119 -119 -307 -118q-229 0 -355 143t-126 405zM279 1483l30 47q184 -86 279 -189 q86 98 278 189l31 -47q-94 -61 -221 -252h-176q-127 191 -221 252z" />
<glyph unicode="&#x10e;" horiz-adv-x="1409" d="M61 0v66l170 6q10 129 11 368v537q0 240 -11 369l-170 6v65h420q238 0 370 -33.5t228 -119.5q201 -176 201 -547q0 -393 -236 -578q-96 -78 -214.5 -108.5t-313.5 -30.5h-455zM319 1780l31 47q184 -86 279 -189q86 98 278 189l31 -47q-94 -61 -221 -252h-176 q-128 191 -222 252zM426 440q0 -176 10 -364h96q283 0 416 152.5t133 476.5q0 328 -127 482t-397 154h-121q-10 -188 -10 -364v-537z" />
<glyph unicode="&#x10f;" horiz-adv-x="1400" d="M115 510q0 252 110.5 400.5t298.5 148.5q98 0 171 -37t147 -125v160q0 240 -11 368l-149 7v65l344 10q-10 -354 -10 -440v-555q0 -268 10 -440l150 -6v-66h-324l-6 150q-135 -170 -330 -170q-184 0 -292.5 143t-108.5 387zM299 504q0 -190 77 -307t202 -117 q141 0 264 162v544q-113 172 -269 172q-125 0 -199.5 -123.5t-74.5 -330.5zM1163 1026q119 129 144 258q-111 20 -111 113q0 51 34 86t85 35q57 0 92 -38t35 -98q0 -152 -234 -401z" />
<glyph unicode="&#x110;" horiz-adv-x="1433" d="M25 678v76h217v223q0 240 -11 369l-170 6v65h420q238 0 370 -33.5t228 -119.5q201 -176 201 -547q0 -393 -236 -578q-96 -78 -214.5 -108.5t-313.5 -30.5h-455v66l170 6q10 129 11 368v238h-217zM426 440q0 -176 10 -364h96q283 0 416 152.5t133 476.5q0 328 -127 482 t-397 154h-121q-10 -188 -10 -364v-223h297v-76h-297v-238z" />
<glyph unicode="&#x111;" horiz-adv-x="1245" d="M115 510q0 252 110.5 400.5t298.5 148.5q98 0 171 -37t147 -125v287h-264v92h260q0 80 -7 149l-149 7v65l344 10q-6 -193 -6 -231h156v-92h-160v-672q0 -268 10 -440l150 -6v-66h-324l-6 150q-135 -170 -330 -170q-184 0 -292.5 143t-108.5 387zM299 504q0 -190 77 -307 t202 -117q141 0 264 162v544q-113 172 -269 172q-125 0 -199.5 -123.5t-74.5 -330.5z" />
<glyph unicode="&#x112;" horiz-adv-x="1175" d="M61 0v66l170 6q10 129 11 368v537q0 240 -11 369l-170 6v65h986v-368h-140l-26 292h-445q-10 -123 -10 -364v-219h487v-76h-487v-242q0 -242 10 -364h477l29 293h143v-369h-1024zM289 1593v93h598v-93h-598z" />
<glyph unicode="&#x113;" horiz-adv-x="1077" d="M115 528q0 252 115.5 391.5t322.5 139.5q287 0 375 -242q37 -100 43 -287h-668q4 -164 37 -251q78 -215 291 -216q141 0 264 105l49 -57q-145 -131 -352 -131q-229 0 -353 142t-124 406zM240 1331v92h598v-92h-598zM303 596h479q-2 207 -57 302t-170 95 q-117 0 -182.5 -102t-69.5 -295z" />
<glyph unicode="&#x114;" horiz-adv-x="1175" d="M61 0v66l170 6q10 129 11 368v537q0 240 -11 369l-170 6v65h986v-368h-140l-26 292h-445q-10 -123 -10 -364v-219h487v-76h-487v-242q0 -242 10 -364h477l29 293h143v-369h-1024zM326 1829h69q8 -98 63.5 -143.5t164 -45.5t165 45.5t64.5 143.5h70q-12 -297 -299 -297 t-297 297z" />
<glyph unicode="&#x116;" horiz-adv-x="1175" d="M61 0v66l170 6q10 129 11 368v537q0 240 -11 369l-170 6v65h986v-368h-140l-26 292h-445q-10 -123 -10 -364v-219h487v-76h-487v-242q0 -242 10 -364h477l29 293h143v-369h-1024zM532 1651q0 47 32 77.5t79 30.5t78 -31.5t31 -78.5t-32 -78t-77 -31q-47 0 -79 32t-32 79z " />
<glyph unicode="&#x117;" horiz-adv-x="1077" d="M115 528q0 252 115.5 391.5t322.5 139.5q287 0 375 -242q37 -100 43 -287h-668q4 -164 37 -251q78 -215 291 -216q141 0 264 105l49 -57q-145 -131 -352 -131q-229 0 -353 142t-124 406zM303 596h479q-2 207 -57 302t-170 95q-117 0 -182.5 -102t-69.5 -295zM457 1388.5 q0 47.5 31.5 78t78.5 30.5t78 -31.5t31 -79t-31 -78t-78 -30.5t-78.5 31.5t-31.5 79z" />
<glyph unicode="&#x118;" horiz-adv-x="1175" d="M61 0v66l170 6q10 129 11 368v537q0 240 -11 369l-170 6v65h986v-368h-140l-26 292h-445q-10 -123 -10 -364v-219h487v-76h-487v-242q0 -242 10 -364h477l29 293h143v-369q-119 -70 -165 -122t-46 -118q0 -125 146 -125q25 0 74 7l8 -58q-82 -25 -146 -24 q-102 0 -162.5 48t-60.5 130q0 137 252 262h-924z" />
<glyph unicode="&#x119;" horiz-adv-x="1077" d="M115 528q0 252 115.5 391.5t322.5 139.5q287 0 375 -242q37 -100 43 -287h-668q4 -164 37 -251q78 -215 291 -216q141 0 264 105l49 -57q-115 -109 -262 -125q-102 -61 -144 -112.5t-42 -113.5q0 -125 145 -125q25 0 74 7l8 -58q-82 -25 -145 -24q-102 0 -163 48t-61 130 q0 68 47.5 121t165.5 121q-221 10 -336.5 150t-115.5 398zM303 596h479q-2 207 -57 302t-170 95q-117 0 -182.5 -102t-69.5 -295z" />
<glyph unicode="&#x11a;" horiz-adv-x="1175" d="M61 0v66l170 6q10 129 11 368v537q0 240 -11 369l-170 6v65h986v-368h-140l-26 292h-445q-10 -123 -10 -364v-219h487v-76h-487v-242q0 -242 10 -364h477l29 293h143v-369h-1024zM305 1780l31 47q184 -86 278 -189q86 98 279 189l31 -47q-94 -61 -222 -252h-176 q-127 191 -221 252z" />
<glyph unicode="&#x11b;" horiz-adv-x="1077" d="M115 528q0 252 115.5 391.5t322.5 139.5q287 0 375 -242q37 -100 43 -287h-668q4 -164 37 -251q78 -215 291 -216q141 0 264 105l49 -57q-145 -131 -352 -131q-229 0 -353 142t-124 406zM244 1483l30 47q184 -86 279 -189q86 98 278 189l31 -47q-94 -61 -221 -252h-176 q-127 191 -221 252zM303 596h479q-2 207 -57 302t-170 95q-117 0 -182.5 -102t-69.5 -295z" />
<glyph unicode="&#x11c;" horiz-adv-x="1447" d="M129 700q0 346 170 542t471 196q217 0 457 -99v-290h-140l-22 229q-147 84 -283 84q-211 0 -332.5 -177t-121.5 -487q0 -303 122.5 -471t344.5 -168q133 0 256 58v461l-164 6v65h504v-65l-156 -6v-283q0 -156 6 -227q-270 -88 -453 -88q-317 0 -497 208 q-162 186 -162 512zM477 1559q94 61 221 251h176q127 -190 222 -251l-31 -48q-184 86 -279 189q-86 -98 -278 -189z" />
<glyph unicode="&#x11d;" horiz-adv-x="1222" d="M115 530.5q0 239.5 110.5 384t292.5 144.5q96 0 166 -37t152 -129l6 156l323 -11v-65l-149 -6q-10 -168 -10 -414v-438q0 -203 -16.5 -286t-69.5 -142q-129 -147 -381 -148q-174 0 -367 88l10 228h142l10 -172q88 -68 209 -68q96 0 164.5 42t93.5 114q31 90 30 327v88 q-76 -88 -147.5 -124.5t-165.5 -36.5q-180 0 -293 135q-110 131 -110 370.5zM299 524q0 -188 69.5 -289.5t200.5 -101.5q133 0 262 150v493q-66 98 -128 140t-140 42q-123 0 -193.5 -115.5t-70.5 -318.5zM313 1266q94 61 222 252h176q127 -190 221 -252l-31 -47 q-184 86 -278 188q-86 -98 -279 -188z" />
<glyph unicode="&#x11e;" horiz-adv-x="1447" d="M129 700q0 346 170 542t471 196q217 0 457 -99v-290h-140l-22 229q-147 84 -283 84q-211 0 -332.5 -177t-121.5 -487q0 -303 122.5 -471t344.5 -168q133 0 256 58v461l-164 6v65h504v-65l-156 -6v-283q0 -156 6 -227q-270 -88 -453 -88q-317 0 -497 208 q-162 186 -162 512zM481 1829h70q8 -98 63.5 -143.5t164 -45.5t164.5 45.5t65 143.5h69q-12 -297 -299 -297t-297 297z" />
<glyph unicode="&#x11f;" horiz-adv-x="1222" d="M115 530.5q0 239.5 110.5 384t292.5 144.5q96 0 166 -37t152 -129l6 156l323 -11v-65l-149 -6q-10 -168 -10 -414v-438q0 -203 -16.5 -286t-69.5 -142q-129 -147 -381 -148q-174 0 -367 88l10 228h142l10 -172q88 -68 209 -68q96 0 164.5 42t93.5 114q31 90 30 327v88 q-76 -88 -147.5 -124.5t-165.5 -36.5q-180 0 -293 135q-110 131 -110 370.5zM299 524q0 -188 69.5 -289.5t200.5 -101.5q133 0 262 150v493q-66 98 -128 140t-140 42q-123 0 -193.5 -115.5t-70.5 -318.5zM328 1518h69q8 -98 63.5 -143.5t164 -45.5t165 45t64.5 144h70 q-12 -297 -299 -297t-297 297z" />
<glyph unicode="&#x120;" horiz-adv-x="1447" d="M129 700q0 346 170 542t471 196q217 0 457 -99v-290h-140l-22 229q-147 84 -283 84q-211 0 -332.5 -177t-121.5 -487q0 -303 122.5 -471t344.5 -168q133 0 256 58v461l-164 6v65h504v-65l-156 -6v-283q0 -156 6 -227q-270 -88 -453 -88q-317 0 -497 208 q-162 186 -162 512zM670 1651q0 47 31.5 77.5t78.5 30.5t78 -31.5t31 -78.5t-31 -78t-78 -31t-78.5 32t-31.5 79z" />
<glyph unicode="&#x121;" horiz-adv-x="1222" d="M115 530.5q0 239.5 110.5 384t292.5 144.5q96 0 166 -37t152 -129l6 156l323 -11v-65l-149 -6q-10 -168 -10 -414v-438q0 -203 -16.5 -286t-69.5 -142q-129 -147 -381 -148q-174 0 -367 88l10 228h142l10 -172q88 -68 209 -68q96 0 164.5 42t93.5 114q31 90 30 327v88 q-76 -88 -147.5 -124.5t-165.5 -36.5q-180 0 -293 135q-110 131 -110 370.5zM299 524q0 -188 69.5 -289.5t200.5 -101.5q133 0 262 150v493q-66 98 -128 140t-140 42q-123 0 -193.5 -115.5t-70.5 -318.5zM512 1388.5q0 47.5 31.5 78t79 30.5t78 -31.5t30.5 -79t-31.5 -78 t-76.5 -30.5q-47 0 -79 31.5t-32 79z" />
<glyph unicode="&#x122;" horiz-adv-x="1447" d="M129 700q0 346 170 542t471 196q217 0 457 -99v-290h-140l-22 229q-147 84 -283 84q-211 0 -332.5 -177t-121.5 -487q0 -303 122.5 -471t344.5 -168q133 0 256 58v461l-164 6v65h504v-65l-156 -6v-283q0 -156 6 -227q-270 -88 -453 -88q-317 0 -497 208 q-162 186 -162 512zM520 -393q207 168 201 317h106q25 0 33 -6t8 -24q0 -82 -90 -183q-63 -66 -221 -162z" />
<glyph unicode="&#x123;" horiz-adv-x="1222" d="M115 530.5q0 239.5 110.5 384t292.5 144.5q96 0 166 -37t152 -129l6 156l323 -11v-65l-149 -6q-10 -168 -10 -414v-438q0 -203 -16.5 -286t-69.5 -142q-129 -147 -381 -148q-174 0 -367 88l10 228h142l10 -172q88 -68 209 -68q96 0 164.5 42t93.5 114q31 90 30 327v88 q-76 -88 -147.5 -124.5t-165.5 -36.5q-180 0 -293 135q-110 131 -110 370.5zM299 524q0 -188 69.5 -289.5t200.5 -101.5q133 0 262 150v493q-66 98 -128 140t-140 42q-123 0 -193.5 -115.5t-70.5 -318.5zM487 1239q0 82 91 182q63 66 221 162l37 -57q-207 -168 -201 -318 h-107q-25 0 -33 6.5t-8 24.5z" />
<glyph unicode="&#x124;" horiz-adv-x="1544" d="M61 0v66l170 6q10 129 11 368v537q0 240 -11 369l-170 6v65h545v-65l-170 -6q-10 -129 -10 -369v-217h692v217q0 240 -10 369l-170 6v65h545v-65l-170 -6q-10 -129 -10 -369v-537q0 -240 10 -368l170 -6v-66h-545v66l170 6q10 129 10 368v244h-692v-244q0 -240 10 -368 l170 -6v-66h-545zM463 1559q94 61 221 251h176q127 -190 221 -251l-30 -48q-184 86 -279 189q-86 -98 -278 -189z" />
<glyph unicode="&#x125;" horiz-adv-x="1298" d="M-10 1599q94 61 221 252h176q127 -190 221 -252l-30 -47q-184 86 -279 189q-86 -98 -279 -189zM76 0v66l149 6q10 109 11 368v617q0 174 -11 368l-149 7v65l344 10q-10 -313 -10 -440v-209q96 106 182 153.5t186 47.5q96 0 167 -46t102 -128q31 -84 30 -328v-117 q0 -231 10 -368l150 -6v-66h-494v66l150 6q10 117 10 368v142q0 190 -31 260q-45 102 -161 102q-154 0 -301 -188v-316q0 -262 10 -368l149 -6v-66h-493z" />
<glyph unicode="&#x126;" horiz-adv-x="1544" d="M61 0v66l170 6q10 129 11 368v584h-181v76h179q-2 172 -9 246l-170 6v65h545v-65l-170 -6q-6 -74 -8 -246h688q-2 172 -8 246l-170 6v65h545v-65l-170 -6q-6 -74 -8 -246h178v-76h-180v-584q0 -240 10 -368l170 -6v-66h-545v66l170 6q10 129 10 368v244h-692v-244 q0 -240 10 -368l170 -6v-66h-545zM426 760h692v264h-692v-264z" />
<glyph unicode="&#x127;" horiz-adv-x="1298" d="M76 0v66l149 6q10 109 11 368v756h-160v76h155q-2 111 -6 153l-149 7v65l344 10q-2 -100 -4 -141q-2 -59 -2 -94h301v-76h-305v-338q96 109 182 155t186 46q96 0 167 -46t102 -128q31 -84 30 -328v-117q0 -231 10 -368l150 -6v-66h-494v66l150 6q10 117 10 368v142 q0 190 -31 260q-45 102 -163 102q-152 0 -299 -188v-316q0 -260 10 -368l149 -6v-66h-493z" />
<glyph unicode="&#x12a;" horiz-adv-x="692" d="M47 1593v93h598v-93h-598zM74 0v66l170 6q10 129 10 368v537q0 240 -10 369l-170 6v65h544v-65l-169 -6q-10 -129 -11 -369v-537q0 -240 11 -368l169 -6v-66h-544z" />
<glyph unicode="&#x12b;" horiz-adv-x="638" d="M20 1331v92h598v-92h-598zM76 0v66l149 6q10 158 11 368v158q0 205 -11 369l-149 6v65l344 11q-10 -250 -10 -433v-176q0 -225 10 -368l149 -6v-66h-493z" />
<glyph unicode="&#x12d;" horiz-adv-x="638" d="M12 1518h70q8 -98 63.5 -143.5t164 -45.5t164.5 45t65 144h69q-12 -297 -299 -297t-297 297zM76 0v66l149 6q10 158 11 368v158q0 205 -11 369l-149 6v65l344 11q-10 -250 -10 -433v-176q0 -225 10 -368l149 -6v-66h-493z" />
<glyph unicode="&#x12e;" horiz-adv-x="692" d="M74 0v66l170 6q10 129 10 368v537q0 240 -10 369l-170 6v65h544v-65l-169 -6q-10 -129 -11 -369v-537q0 -240 11 -368l169 -6v-66q-119 -70 -164.5 -122t-45.5 -118q0 -125 145 -125q25 0 74 7l8 -58q-82 -25 -146 -24q-102 0 -162.5 48t-60.5 130q0 137 252 262h-444z " />
<glyph unicode="&#x12f;" horiz-adv-x="638" d="M76 0v66l149 6q10 117 11 368v158q0 250 -11 369l-149 6v65l344 11q-10 -170 -10 -433v-176q0 -225 10 -368l149 -6v-66q-119 -72 -165 -124t-46 -116q0 -125 146 -125q25 0 74 7l8 -58q-82 -25 -146 -24q-102 0 -162.5 48t-60.5 130q0 137 252 262h-393zM211 1395 q0 47 31.5 78.5t81 31.5t81 -31.5t31.5 -81t-31.5 -81t-78.5 -31.5q-51 0 -83 32t-32 83z" />
<glyph unicode="&#x130;" horiz-adv-x="692" d="M74 0v66l170 6q10 129 10 368v537q0 240 -10 369l-170 6v65h544v-65l-169 -6q-10 -129 -11 -369v-537q0 -240 11 -368l169 -6v-66h-544zM236 1651q0 47 31.5 77.5t78.5 30.5t78 -31.5t31 -78.5t-31 -78t-78 -31t-78.5 32t-31.5 79z" />
<glyph unicode="&#x131;" horiz-adv-x="638" d="M76 0v66l149 6q10 158 11 368v158q0 205 -11 369l-149 6v65l344 11q-10 -250 -10 -433v-176q0 -225 10 -368l149 -6v-66h-493z" />
<glyph unicode="&#x134;" horiz-adv-x="700" d="M-106 -190l6 73q23 -2 49 -2q86 0 159.5 34t108.5 91q57 92 57 373v598q0 240 -10 369l-170 6v65h545v-65l-170 -6q-10 -129 -10 -369v-578q0 -252 -37 -342q-51 -119 -168 -185.5t-274 -66.5q-8 1 -86 5zM51 1559q94 61 221 251h177q127 -190 221 -251l-31 -48 q-184 86 -279 189q-86 -98 -278 -189z" />
<glyph unicode="&#x135;" horiz-adv-x="645" d="M-66 -440l5 65q180 0 249 99q37 51 48.5 137t11.5 307v430q0 174 -10 369l-166 6v65l360 11q-10 -203 -10 -490v-364q0 -217 -12.5 -309.5t-49.5 -157.5q-102 -172 -360 -172q-41 0 -66 4zM-14 1266q94 61 221 252h176q127 -190 221 -252l-31 -47q-184 86 -278 188 q-86 -98 -279 -188z" />
<glyph unicode="&#x136;" horiz-adv-x="1329" d="M61 0v66l170 6q10 129 11 368v537q0 240 -11 369l-170 6v65h525v-65l-150 -6q-10 -129 -10 -369v-232l616 601l-178 6v65h412v-65l-96 -6q-43 -37 -234 -213l-346 -334l461 -543q106 -125 168 -184l100 -6v-66h-491v66h143l-555 665v-291q0 -240 10 -368l150 -6v-66h-525 zM442 -393q207 168 201 317h107q25 0 33 -6t8 -24q0 -82 -91 -183q-63 -66 -221 -162z" />
<glyph unicode="&#x137;" horiz-adv-x="1157" d="M70 0v66l149 6q10 160 10 368v617q0 209 -10 368l-149 7v65l344 10q-10 -322 -11 -440v-489l453 389l-156 6v65h383v-65l-92 -6q-35 -23 -80 -60l-37 -29q-25 -19 -28 -24l-68 -55l-207 -183l265 -327q137 -172 180 -213l117 -10v-66h-302q-23 41 -131 184l-297 377v-127 q0 -174 11 -362l149 -6v-66h-493zM365 -393q207 168 200 317h107q25 0 33 -6t8 -24q0 -82 -90 -183q-63 -66 -222 -162z" />
<glyph unicode="&#x139;" horiz-adv-x="1153" d="M61 0v66l170 6q10 129 11 368v537q0 240 -11 369l-170 6v65h545v-65l-170 -6q-10 -184 -10 -369v-537q0 -166 10 -364h465l27 293h143v-369h-1010zM229 1552q74 47 149 121t107 137h150q31 0 31 -16q0 -37 -101 -119q-102 -86 -309 -170z" />
<glyph unicode="&#x13a;" horiz-adv-x="638" d="M76 0v66l149 6q10 98 11 368v617q0 219 -11 368l-149 7v65l344 10q-10 -362 -10 -440v-633q0 -225 10 -362l149 -6v-66h-493zM147 1642q74 47 149 121t107 138h150q31 0 31 -17q0 -37 -101 -119q-102 -86 -309 -170z" />
<glyph unicode="&#x13b;" horiz-adv-x="1153" d="M61 0v66l170 6q10 129 11 368v537q0 240 -11 369l-170 6v65h545v-65l-170 -6q-10 -184 -10 -369v-537q0 -166 10 -364h465l27 293h143v-369h-1010zM328 -393q207 168 200 317h107q25 0 33 -6t8 -24q0 -82 -90 -183q-63 -66 -221 -162z" />
<glyph unicode="&#x13c;" horiz-adv-x="638" d="M70 -393q207 168 200 317h107q25 0 33 -6t8 -24q0 -82 -90 -183q-63 -66 -222 -162zM76 0v66l149 6q10 98 11 368v617q0 219 -11 368l-149 7v65l344 10q-10 -362 -10 -440v-633q0 -225 10 -362l149 -6v-66h-493z" />
<glyph unicode="&#x13d;" horiz-adv-x="1153" d="M61 0v66l170 6q10 129 11 368v537q0 240 -11 369l-170 6v65h545v-65l-170 -6q-10 -184 -10 -369v-537q0 -166 10 -364h465l27 293h143v-369h-1010zM694 1026q119 129 144 258q-111 20 -111 113q0 51 34 86t85 35q57 0 92 -38t35 -98q0 -152 -234 -401z" />
<glyph unicode="&#x13e;" horiz-adv-x="768" d="M76 0v66l149 6q10 98 11 368v617q0 219 -11 368l-149 7v65l344 10q-10 -362 -10 -440v-633q0 -225 10 -362l149 -6v-66h-493zM530 1026q119 129 144 258q-111 20 -111 113q0 51 34 86t85 35q57 0 92 -38t35 -98q0 -152 -234 -401z" />
<glyph unicode="&#x141;" horiz-adv-x="1159" d="M53 500v96l195 152v229q0 174 -10 369l-170 6v65h544v-65l-170 -6q-10 -184 -10 -369v-86l240 184v-96l-240 -184v-355q0 -166 10 -364h465l27 293h143v-369h-1009v66l170 6q10 195 10 368v211z" />
<glyph unicode="&#x142;" horiz-adv-x="641" d="M53 506v96l183 141v306q0 219 -11 368l-149 4v66l344 10q-10 -399 -10 -440v-178l184 143v-96l-184 -144v-348q0 -225 10 -362l149 -6v-66h-493v66l149 6q10 143 11 368v207z" />
<glyph unicode="&#x143;" horiz-adv-x="1501" d="M61 0v66l162 6q10 129 10 522v752l-172 6v65h388q29 -59 165 -266l566 -842v668q0 240 -11 369l-161 6v65h432v-65l-162 -6q-10 -123 -10 -369v-977h-119q-35 70 -105 172l-61 88l-661 985v-659q0 -324 10 -514l162 -6v-66h-433zM641 1552q74 47 148.5 121t107.5 137h150 q31 0 30 -16q0 -37 -100 -119q-102 -86 -309 -170z" />
<glyph unicode="&#x144;" horiz-adv-x="1298" d="M76 0v66l149 6q10 102 11 368v158q0 197 -15 369l-145 6v65l323 11l7 -195q96 109 184 157t190 48q94 0 165 -46t102 -128q31 -84 30 -328v-117q0 -231 10 -368l150 -6v-66h-494v66l150 6q10 113 10 368v142q0 190 -31 260q-45 102 -161 102q-154 0 -301 -188v-316 q0 -219 10 -368l149 -6v-66h-493zM541 1260q74 47 148.5 120.5t107.5 137.5h149q31 0 31 -17q0 -37 -100 -119q-102 -86 -310 -170z" />
<glyph unicode="&#x145;" horiz-adv-x="1501" d="M61 0v66l162 6q10 129 10 522v752l-172 6v65h388q29 -59 165 -266l566 -842v668q0 240 -11 369l-161 6v65h432v-65l-162 -6q-10 -123 -10 -369v-977h-119q-35 70 -105 172l-61 88l-661 985v-659q0 -324 10 -514l162 -6v-66h-433zM502 -393q207 168 200 317h107 q25 0 33 -6t8 -24q0 -82 -90 -183q-63 -66 -221 -162z" />
<glyph unicode="&#x146;" horiz-adv-x="1298" d="M76 0v66l149 6q10 102 11 368v158q0 197 -15 369l-145 6v65l323 11l7 -195q96 109 184 157t190 48q94 0 165 -46t102 -128q31 -84 30 -328v-117q0 -231 10 -368l150 -6v-66h-494v66l150 6q10 113 10 368v142q0 190 -31 260q-45 102 -161 102q-154 0 -301 -188v-316 q0 -219 10 -368l149 -6v-66h-493zM399 -393q207 168 201 317h107q25 0 33 -6t8 -24q0 -82 -91 -183q-63 -66 -221 -162z" />
<glyph unicode="&#x147;" horiz-adv-x="1501" d="M61 0v66l162 6q10 129 10 522v752l-172 6v65h388q29 -59 165 -266l566 -842v668q0 240 -11 369l-161 6v65h432v-65l-162 -6q-10 -123 -10 -369v-977h-119q-35 70 -105 172l-61 88l-661 985v-659q0 -324 10 -514l162 -6v-66h-433zM489 1780l31 47q184 -86 279 -189 q86 98 278 189l31 -47q-94 -61 -221 -252h-176q-128 191 -222 252z" />
<glyph unicode="&#x148;" horiz-adv-x="1298" d="M76 0v66l149 6q10 102 11 368v158q0 197 -15 369l-145 6v65l323 11l7 -195q96 109 184 157t190 48q94 0 165 -46t102 -128q31 -84 30 -328v-117q0 -231 10 -368l150 -6v-66h-494v66l150 6q10 113 10 368v142q0 190 -31 260q-45 102 -161 102q-154 0 -301 -188v-316 q0 -219 10 -368l149 -6v-66h-493zM367 1483l30 47q184 -86 279 -189q86 98 278 189l31 -47q-94 -61 -221 -252h-176q-127 191 -221 252z" />
<glyph unicode="&#x14c;" horiz-adv-x="1538" d="M129 717q0 168 53.5 313.5t149.5 241.5q166 166 436 166q315 0 487 -224q154 -197 154 -505q0 -356 -203 -564q-166 -166 -438 -165q-313 0 -485 223q-154 197 -154 514zM328 715q0 -322 113.5 -496t326.5 -174q211 0 326.5 173t115.5 490.5t-115.5 490.5t-326.5 173 q-209 0 -324.5 -172t-115.5 -485zM471 1593v93h598v-93h-598z" />
<glyph unicode="&#x14d;" horiz-adv-x="1185" d="M115 526q0 254 125 393.5t352 139.5q229 0 354 -140.5t125 -400.5q0 -258 -125 -398t-354 -140q-231 0 -354 141t-123 405zM295 1331v92h598v-92h-598zM303 524q0 -236 74 -357.5t215 -121.5q143 0 217 121t74 352.5t-75 353t-216 121.5q-139 0 -214 -121t-75 -348z" />
<glyph unicode="&#x150;" horiz-adv-x="1538" d="M129 717q0 168 53.5 313.5t149.5 241.5q166 166 436 166q315 0 487 -224q154 -197 154 -505q0 -356 -203 -564q-166 -166 -438 -165q-313 0 -485 223q-154 197 -154 514zM328 715q0 -322 113.5 -496t326.5 -174q211 0 326.5 173t115.5 490.5t-115.5 490.5t-326.5 173 q-209 0 -324.5 -172t-115.5 -485zM514 1552q178 137 215 258h135q37 0 37 -22q-4 -41 -76 -113q-90 -90 -274 -170zM817 1552q178 137 215 258h135q37 0 37 -22q-4 -41 -76 -113q-90 -90 -274 -170z" />
<glyph unicode="&#x151;" horiz-adv-x="1185" d="M115 526q0 254 125 393.5t352 139.5q229 0 354 -140.5t125 -400.5q0 -258 -125 -398t-354 -140q-231 0 -354 141t-123 405zM303 524q0 -236 74 -357.5t215 -121.5q143 0 217 121t74 352.5t-75 353t-216 121.5q-139 0 -214 -121t-75 -348zM356 1260q178 137 215 258h136 q37 0 36 -23q-4 -41 -75 -113q-90 -90 -275 -170zM659 1260q178 137 215 258h136q37 0 37 -23q-4 -41 -76 -113q-90 -90 -275 -170z" />
<glyph unicode="&#x152;" horiz-adv-x="1918" d="M129 692q0 455 295 629q162 96 506 96h860v-368h-139l-27 292h-444q-10 -188 -11 -364v-219h490v-76h-490v-242q0 -176 11 -364h479l27 293h143v-369h-785q-272 0 -394 17.5t-218 68.5q-303 162 -303 606zM328 709q0 -391 190 -539q66 -51 149 -72.5t220 -21.5h88 q10 190 10 364v537q0 174 -10 364h-74q-258 0 -383 -96q-190 -151 -190 -536z" />
<glyph unicode="&#x153;" horiz-adv-x="1845" d="M115 520q0 258 125 398.5t354 140.5q131 0 222 -41t163 -133q121 174 342 174q262 0 356 -201q59 -121 62 -328h-668q6 -166 37 -251q74 -215 299 -216q137 0 256 105l49 -57q-145 -131 -356 -131q-131 0 -218 40.5t-159 137.5q-133 -178 -385 -178q-229 0 -354 140 t-125 400zM299 524q0 -479 293 -479q143 0 219 121t76 352.5t-76 353t-219 121.5q-141 0 -217 -121t-76 -348zM1071 596h479q-2 207 -57 302t-170 95q-117 0 -182.5 -103.5t-69.5 -293.5z" />
<glyph unicode="&#x154;" horiz-adv-x="1249" d="M61 0v66l170 6q10 143 11 368v537q0 240 -11 369l-170 6v65h537q238 0 342 -78q131 -96 131 -286q0 -297 -348 -332q152 -23 214 -103.5t112 -320.5l51 -225l129 -6v-66h-301l-60 270q-55 252 -126.5 330t-247.5 78h-68v-238q0 -180 10 -368l170 -6v-66h-545zM426 750h57 q393 0 394 305q0 182 -132 252q-78 39 -225 39h-94v-596zM446 1552q74 47 149 121t107 137h150q31 0 31 -16q0 -37 -101 -119q-102 -86 -309 -170z" />
<glyph unicode="&#x155;" horiz-adv-x="888" d="M76 0v66l149 6q10 158 11 368v158q0 197 -15 369l-145 6v65l315 11l6 -185q53 98 124 142.5t177 44.5q70 0 146 -23l-10 -272h-144l-18 196q-14 4 -35 4q-55 0 -106.5 -38.5t-81.5 -106.5q-39 -78 -39 -246v-125q0 -225 10 -368l162 -6v-66h-506zM358 1260 q74 47 149 120.5t107 137.5h150q31 0 31 -17q0 -37 -101 -119q-102 -86 -309 -170z" />
<glyph unicode="&#x156;" horiz-adv-x="1249" d="M61 0v66l170 6q10 143 11 368v537q0 240 -11 369l-170 6v65h537q238 0 342 -78q131 -96 131 -286q0 -297 -348 -332q152 -23 214 -103.5t112 -320.5l51 -225l129 -6v-66h-301l-60 270q-55 252 -126.5 330t-247.5 78h-68v-238q0 -180 10 -368l170 -6v-66h-545zM426 750h57 q393 0 394 305q0 182 -132 252q-78 39 -225 39h-94v-596zM451 -393q207 168 200 317h107q25 0 33 -6t8 -24q0 -82 -90 -183q-63 -66 -222 -162z" />
<glyph unicode="&#x157;" horiz-adv-x="888" d="M76 0v66l149 6q10 158 11 368v158q0 197 -15 369l-145 6v65l315 11l6 -185q53 98 124 142.5t177 44.5q70 0 146 -23l-10 -272h-144l-18 196q-14 4 -35 4q-55 0 -106.5 -38.5t-81.5 -106.5q-39 -78 -39 -246v-125q0 -225 10 -368l162 -6v-66h-506zM82 -393 q207 168 201 317h106q25 0 33 -6t8 -24q0 -82 -90 -183q-63 -66 -221 -162z" />
<glyph unicode="&#x158;" horiz-adv-x="1249" d="M61 0v66l170 6q10 143 11 368v537q0 240 -11 369l-170 6v65h537q238 0 342 -78q131 -96 131 -286q0 -297 -348 -332q152 -23 214 -103.5t112 -320.5l51 -225l129 -6v-66h-301l-60 270q-55 252 -126.5 330t-247.5 78h-68v-238q0 -180 10 -368l170 -6v-66h-545zM281 1780 l30 47q184 -86 279 -189q86 98 278 189l31 -47q-94 -61 -221 -252h-176q-127 191 -221 252zM426 750h57q393 0 394 305q0 182 -132 252q-78 39 -225 39h-94v-596z" />
<glyph unicode="&#x159;" horiz-adv-x="888" d="M76 0v66l149 6q10 158 11 368v158q0 197 -15 369l-145 6v65l315 11l6 -185q53 98 124 142.5t177 44.5q70 0 146 -23l-10 -272h-144l-18 196q-14 4 -35 4q-55 0 -106.5 -38.5t-81.5 -106.5q-39 -78 -39 -246v-125q0 -225 10 -368l162 -6v-66h-506zM160 1483l30 47 q184 -86 279 -189q86 98 279 189l30 -47q-94 -61 -221 -252h-176q-127 191 -221 252z" />
<glyph unicode="&#x15a;" horiz-adv-x="1150" d="M143 66v303h144l24 -254q117 -70 236 -70q139 0 223 79t84 210q0 109 -61 168q-37 35 -82 58.5t-197 88.5q-209 86 -285 154q-86 76 -86 223q0 190 123 301t336 111q201 0 369 -99v-290h-140l-22 251q-94 72 -211 72q-127 0 -204 -73.5t-77 -196.5q0 -100 59.5 -155.5 t248.5 -133.5q242 -98 322.5 -180t80.5 -230q0 -197 -127 -310t-346 -113q-201 0 -412 86zM459 1552q74 47 148.5 121t107.5 137h149q31 0 31 -16q0 -37 -100 -119q-102 -86 -310 -170z" />
<glyph unicode="&#x15b;" horiz-adv-x="954" d="M119 754q0 143 96 224t264 81q170 0 328 -66l-6 -243h-139l-19 190q-78 51 -170 51q-94 0 -153.5 -50t-59.5 -130q0 -76 48 -114t196 -79q125 -37 171 -56t85 -52q88 -76 88 -217q0 -152 -98.5 -232.5t-280.5 -80.5q-174 0 -348 69l6 246h143l19 -201q82 -47 178 -47 q98 0 157.5 54.5t59.5 144.5q0 86 -49 129q-41 37 -201 84q-178 51 -246.5 115.5t-68.5 179.5zM356 1260q74 47 149 120.5t107 137.5h150q31 0 31 -17q0 -37 -101 -119q-102 -86 -309 -170z" />
<glyph unicode="&#x15c;" horiz-adv-x="1150" d="M143 66v303h144l24 -254q117 -70 236 -70q139 0 223 79t84 210q0 109 -61 168q-37 35 -82 58.5t-197 88.5q-209 86 -285 154q-86 76 -86 223q0 190 123 301t336 111q201 0 369 -99v-290h-140l-22 251q-94 72 -211 72q-127 0 -204 -73.5t-77 -196.5q0 -100 59.5 -155.5 t248.5 -133.5q242 -98 322.5 -180t80.5 -230q0 -197 -127 -310t-346 -113q-201 0 -412 86zM301 1559q94 61 221 251h176q127 -190 222 -251l-31 -48q-184 86 -279 189q-86 -98 -278 -189z" />
<glyph unicode="&#x15d;" horiz-adv-x="954" d="M119 754q0 143 96 224t264 81q170 0 328 -66l-6 -243h-139l-19 190q-78 51 -170 51q-94 0 -153.5 -50t-59.5 -130q0 -76 48 -114t196 -79q125 -37 171 -56t85 -52q88 -76 88 -217q0 -152 -98.5 -232.5t-280.5 -80.5q-174 0 -348 69l6 246h143l19 -201q82 -47 178 -47 q98 0 157.5 54.5t59.5 144.5q0 86 -49 129q-41 37 -201 84q-178 51 -246.5 115.5t-68.5 179.5zM195 1266q94 61 221 252h176q127 -190 221 -252l-31 -47q-184 86 -278 188q-86 -98 -279 -188z" />
<glyph unicode="&#x15e;" horiz-adv-x="1150" d="M143 66v303h144l24 -254q117 -70 236 -70q139 0 223 79t84 210q0 109 -61 168q-37 35 -82 58.5t-197 88.5q-209 86 -285 154q-86 76 -86 223q0 190 123 301t336 111q201 0 369 -99v-290h-140l-22 251q-94 72 -211 72q-127 0 -204 -73.5t-77 -196.5q0 -100 59.5 -155.5 t248.5 -133.5q242 -98 322.5 -180t80.5 -230q0 -197 -127 -310t-346 -113q-201 0 -412 86zM319 -393q207 168 201 317h107q25 0 33 -6t8 -24q0 -82 -90 -183q-63 -66 -222 -162z" />
<glyph unicode="&#x15f;" horiz-adv-x="954" d="M119 754q0 143 96 224t264 81q170 0 328 -66l-6 -243h-139l-19 190q-78 51 -170 51q-94 0 -153.5 -50t-59.5 -130q0 -76 48 -114t196 -79q125 -37 171 -56t85 -52q88 -76 88 -217q0 -152 -98.5 -232.5t-280.5 -80.5q-174 0 -348 69l6 246h143l19 -201q82 -47 178 -47 q98 0 157.5 54.5t59.5 144.5q0 86 -49 129q-41 37 -201 84q-178 51 -246.5 115.5t-68.5 179.5zM227 -393q207 168 201 317h107q25 0 32.5 -6t7.5 -24q0 -82 -90 -183q-63 -66 -221 -162z" />
<glyph unicode="&#x160;" horiz-adv-x="1150" d="M143 66v303h144l24 -254q117 -70 236 -70q139 0 223 79t84 210q0 109 -61 168q-37 35 -82 58.5t-197 88.5q-209 86 -285 154q-86 76 -86 223q0 190 123 301t336 111q201 0 369 -99v-290h-140l-22 251q-94 72 -211 72q-127 0 -204 -73.5t-77 -196.5q0 -100 59.5 -155.5 t248.5 -133.5q242 -98 322.5 -180t80.5 -230q0 -197 -127 -310t-346 -113q-201 0 -412 86zM311 1780l31 47q184 -86 279 -189q86 98 278 189l31 -47q-94 -61 -221 -252h-177q-127 191 -221 252z" />
<glyph unicode="&#x161;" horiz-adv-x="954" d="M119 754q0 143 96 224t264 81q170 0 328 -66l-6 -243h-139l-19 190q-78 51 -170 51q-94 0 -153.5 -50t-59.5 -130q0 -76 48 -114t196 -79q125 -37 171 -56t85 -52q88 -76 88 -217q0 -152 -98.5 -232.5t-280.5 -80.5q-174 0 -348 69l6 246h143l19 -201q82 -47 178 -47 q98 0 157.5 54.5t59.5 144.5q0 86 -49 129q-41 37 -201 84q-178 51 -246.5 115.5t-68.5 179.5zM195 1483l30 47q184 -86 279 -189q86 98 278 189l31 -47q-94 -61 -221 -252h-176q-127 191 -221 252z" />
<glyph unicode="&#x163;" horiz-adv-x="727" d="M63 967v71h27q123 0 179.5 61.5t82.5 227.5h68v-289h274v-71h-274v-662q0 -135 28.5 -186t104.5 -51q61 0 125 53l41 -53q-102 -88 -227 -88q-137 0 -192.5 72.5t-55.5 252.5v662h-181zM180 -393q207 168 201 317h106q25 0 33 -6t8 -24q0 -82 -90 -183q-63 -66 -221 -162 z" />
<glyph unicode="&#x164;" horiz-adv-x="1212" d="M41 1049v368h1130v-368h-139l-26 292h-297q-10 -219 -11 -405v-455q0 -270 11 -409l186 -6v-66h-578v66l187 6q10 188 10 409v455q0 186 -10 405h-297l-27 -292h-139zM297 1780l31 47q184 -86 278 -189q86 98 279 189l30 -47q-94 -61 -221 -252h-176q-127 191 -221 252z " />
<glyph unicode="&#x165;" horiz-adv-x="858" d="M63 967v71h27q123 0 179.5 61.5t82.5 227.5h68v-289h274v-71h-274v-662q0 -135 28.5 -186t104.5 -51q61 0 125 53l41 -53q-102 -88 -227 -88q-137 0 -192.5 72.5t-55.5 252.5v662h-181zM612 1133q119 129 144 258q-111 20 -111 112q0 51 34 86t85 35q57 0 92 -38t35 -97 q0 -152 -234 -402z" />
<glyph unicode="&#x16a;" horiz-adv-x="1488" d="M61 1352v65h545v-65l-170 -6q-10 -129 -10 -369v-414q0 -244 33 -327q72 -180 323 -181q244 0 338 181q47 88 47 337v404q0 174 -10 369l-162 6v65h432v-65l-161 -6q-10 -129 -11 -369v-453q0 -143 -16 -220t-63 -142q-131 -182 -414 -182q-313 0 -443 184 q-47 70 -62 153.5t-15 278.5v381q0 240 -11 369zM494 1593v93h598v-93h-598z" />
<glyph unicode="&#x16b;" horiz-adv-x="1298" d="M61 973v65l345 11q-10 -311 -11 -433v-159q0 -199 31 -271q43 -106 162 -106q156 0 301 203v684l-160 6v65l344 11q-10 -356 -10 -433v-176q0 -211 10 -368l150 -6v-66h-316l-6 188q-102 -115 -187 -161.5t-190 -46.5q-205 0 -272 176q-31 82 -31 325v117q0 262 -6 369z M350 1331v92h598v-92h-598z" />
<glyph unicode="&#x16d;" horiz-adv-x="1298" d="M61 973v65l345 11q-10 -311 -11 -433v-159q0 -199 31 -271q43 -106 162 -106q156 0 301 203v684l-160 6v65l344 11q-10 -356 -10 -433v-176q0 -211 10 -368l150 -6v-66h-316l-6 188q-102 -115 -187 -161.5t-190 -46.5q-205 0 -272 176q-31 82 -31 325v117q0 262 -6 369z M352 1518h70q8 -98 63.5 -143.5t164 -45.5t164.5 45t65 144h69q-12 -297 -299 -297t-297 297z" />
<glyph unicode="&#x16e;" horiz-adv-x="1488" d="M61 1352v65h545v-65l-170 -6q-10 -129 -10 -369v-414q0 -244 33 -327q72 -180 323 -181q244 0 338 181q47 88 47 337v404q0 174 -10 369l-162 6v65h432v-65l-161 -6q-10 -129 -11 -369v-453q0 -143 -16 -220t-63 -142q-131 -182 -414 -182q-313 0 -443 184 q-47 70 -62 153.5t-15 278.5v381q0 240 -11 369zM594 1659q0 86 59.5 144.5t145.5 58.5q88 0 146.5 -58.5t58.5 -146.5t-58.5 -146.5t-146.5 -58.5t-146.5 58.5t-58.5 148.5zM682 1659q0 -59 33 -95t84 -36t83.5 35.5t32.5 93t-32.5 93.5t-83.5 36t-84 -36t-33 -91z" />
<glyph unicode="&#x16f;" horiz-adv-x="1298" d="M61 973v65l345 11q-10 -311 -11 -433v-159q0 -199 31 -271q43 -106 162 -106q156 0 301 203v684l-160 6v65l344 11q-10 -356 -10 -433v-176q0 -211 10 -368l150 -6v-66h-316l-6 188q-102 -115 -187 -161.5t-190 -46.5q-205 0 -272 176q-31 82 -31 325v117q0 262 -6 369z M430 1364q0 86 59.5 144.5t145.5 58.5q88 0 146.5 -58.5t58.5 -146.5t-58.5 -146.5t-146.5 -58.5t-146.5 58.5t-58.5 148.5zM518 1364q0 -59 33 -95t84 -36t84 36t33 93t-33 93t-84 36t-84 -36t-33 -91z" />
<glyph unicode="&#x170;" horiz-adv-x="1488" d="M61 1352v65h545v-65l-170 -6q-10 -129 -10 -369v-414q0 -244 33 -327q72 -180 323 -181q244 0 338 181q47 88 47 337v404q0 174 -10 369l-162 6v65h432v-65l-161 -6q-10 -129 -11 -369v-453q0 -143 -16 -220t-63 -142q-131 -182 -414 -182q-313 0 -443 184 q-47 70 -62 153.5t-15 278.5v381q0 240 -11 369zM537 1552q178 137 215 258h135q37 0 37 -22q-4 -41 -76 -113q-90 -90 -275 -170zM840 1552q178 137 215 258h135q37 0 37 -22q-4 -41 -76 -113q-90 -90 -274 -170z" />
<glyph unicode="&#x171;" horiz-adv-x="1298" d="M61 973v65l345 11q-10 -311 -11 -433v-159q0 -199 31 -271q43 -106 162 -106q156 0 301 203v684l-160 6v65l344 11q-10 -356 -10 -433v-176q0 -211 10 -368l150 -6v-66h-316l-6 188q-102 -115 -187 -161.5t-190 -46.5q-205 0 -272 176q-31 82 -31 325v117q0 262 -6 369z M381 1260q178 137 215 258h135q37 0 37 -23q-4 -41 -76 -113q-90 -90 -274 -170zM684 1260q178 137 215 258h135q37 0 37 -23q-4 -41 -76 -113q-90 -90 -274 -170z" />
<glyph unicode="&#x172;" horiz-adv-x="1488" d="M61 1352v65h545v-65l-170 -6q-10 -129 -10 -369v-414q0 -244 33 -327q72 -180 323 -181q244 0 338 181q47 88 47 337v404q0 174 -10 369l-162 6v65h432v-65l-161 -6q-10 -129 -11 -369v-453q0 -145 -17 -222t-64 -142q-84 -119 -234 -160q-121 -72 -166 -123t-45 -117 q0 -125 145 -125q25 0 74 7l8 -58q-82 -25 -145 -24q-102 0 -162.5 48t-60.5 130q0 68 47 121t168 121h-47q-309 0 -437 184q-47 70 -62 153.5t-15 278.5v381q0 240 -11 369z" />
<glyph unicode="&#x173;" horiz-adv-x="1298" d="M61 973v65l345 11q-10 -326 -11 -433v-159q0 -199 31 -271q43 -106 160 -106q160 0 303 203v684l-160 6v65l344 11q-10 -389 -10 -433v-176q0 -211 10 -368l150 -6v-66q-121 -74 -166 -125t-45 -115q0 -125 145 -125q25 0 74 7l8 -58q-82 -25 -145 -24q-102 0 -163 48 t-61 130q0 137 252 262h-215l-6 188q-102 -115 -187 -161.5t-190 -46.5q-205 0 -272 176q-31 82 -31 325v117q0 254 -6 369z" />
<glyph unicode="&#x174;" horiz-adv-x="1851" d="M0 1352v65h487v-65l-157 -6q27 -135 98 -424l147 -566l244 758q27 88 66 199q23 68 28 104h99q6 -37 98 -301l258 -774l162 639q61 254 82 365l-158 6v65h397v-65l-120 -6q-70 -225 -111 -379l-150 -559q-80 -303 -100 -408h-98q-27 117 -125 426l-232 702l-260 -806 q-78 -252 -88 -322h-98l-33 154l-28 108l-41 164l-117 451q-12 53 -82 305l-47 164zM651 1559q94 61 221 251h177q127 -190 221 -251l-31 -48q-184 86 -278 189q-86 -98 -279 -189z" />
<glyph unicode="&#x176;" horiz-adv-x="1228" d="M-31 1352v65h488v-65l-142 -6q41 -78 168 -277l215 -334l199 369q98 186 121 242l-150 6v65h375v-65l-115 -6q-51 -74 -145 -250l-240 -449q-6 -86 -6 -194v-95q0 -96 6 -286l175 -6v-66h-545v66l174 6q6 111 6 286v95q0 106 -6 198l-324 488q-96 145 -147 207zM354 1559 q94 61 221 251h177q127 -190 221 -251l-31 -48q-184 86 -278 189q-86 -98 -279 -189z" />
<glyph unicode="&#x177;" horiz-adv-x="1095" d="M12 973v65h420v-65l-110 -6q49 -147 100 -279l180 -450l184 477q59 164 88 252l-163 6v65h370v-65l-102 -6q-51 -106 -123 -287l-301 -772q-78 -197 -163 -278t-218 -81q-43 0 -102 11l26 141q55 -18 109 -18q100 0 162.5 60t122.5 214l18 47l-260 651q-84 207 -135 312z M272 1266q94 61 222 252h176q127 -190 221 -252l-31 -47q-184 86 -278 188q-86 -98 -279 -188z" />
<glyph unicode="&#x178;" horiz-adv-x="1228" d="M-31 1352v65h488v-65l-142 -6q41 -78 168 -277l215 -334l199 369q98 186 121 242l-150 6v65h375v-65l-115 -6q-51 -74 -145 -250l-240 -449q-6 -86 -6 -194v-95q0 -96 6 -286l175 -6v-66h-545v66l174 6q6 111 6 286v95q0 106 -6 198l-324 488q-96 145 -147 207zM362 1651 q0 47 32 77.5t79 30.5t78 -31.5t31 -78.5t-31 -78t-78 -31t-79 32t-32 79zM756 1651q0 47 31.5 77.5t78.5 30.5t78 -31.5t31 -78.5t-31 -78t-78 -31t-78.5 32t-31.5 79z" />
<glyph unicode="&#x179;" horiz-adv-x="1288" d="M119 0v76l157 237l64 101l31 49l284 440q201 313 271 438h-619l-26 -292h-144v368h1018v-82l-299 -452l-225 -351l-189 -294q-49 -78 -71 -119l-27 -43h651l27 293h147v-369h-1050zM569 1552q74 47 149 121t107 137h150q31 0 31 -16q0 -37 -101 -119q-102 -86 -309 -170z " />
<glyph unicode="&#x17a;" horiz-adv-x="1054" d="M90 0v66l645 907h-469l-22 -211h-140v276h844v-65l-643 -907h494l24 206h144v-272h-877zM412 1260q74 47 148.5 120.5t107.5 137.5h149q31 0 31 -17q0 -37 -100 -119q-102 -86 -310 -170z" />
<glyph unicode="&#x17b;" horiz-adv-x="1288" d="M119 0v76l157 237l64 101l31 49l284 440q201 313 271 438h-619l-26 -292h-144v368h1018v-82l-299 -452l-225 -351l-189 -294q-49 -78 -71 -119l-27 -43h651l27 293h147v-369h-1050zM569 1651q0 47 32 77.5t79 30.5t77.5 -31.5t30.5 -78.5t-31.5 -78t-76.5 -31 q-47 0 -79 32t-32 79z" />
<glyph unicode="&#x17c;" horiz-adv-x="1054" d="M90 0v66l645 907h-469l-22 -211h-140v276h844v-65l-643 -907h494l24 206h144v-272h-877zM418 1388.5q0 47.5 31.5 78t78.5 30.5t78 -31.5t31 -79t-32 -78t-77 -30.5q-47 0 -78.5 31.5t-31.5 79z" />
<glyph unicode="&#x17d;" horiz-adv-x="1288" d="M119 0v76l157 237l64 101l31 49l284 440q201 313 271 438h-619l-26 -292h-144v368h1018v-82l-299 -452l-225 -351l-189 -294q-49 -78 -71 -119l-27 -43h651l27 293h147v-369h-1050zM377 1780l31 47q184 -86 278 -189q86 98 279 189l30 -47q-94 -61 -221 -252h-176 q-127 191 -221 252z" />
<glyph unicode="&#x17e;" horiz-adv-x="1054" d="M90 0v66l645 907h-469l-22 -211h-140v276h844v-65l-643 -907h494l24 206h144v-272h-877zM219 1483l31 47q184 -86 278 -189q86 98 279 189l31 -47q-94 -61 -222 -252h-176q-127 191 -221 252z" />
<glyph unicode="&#x192;" horiz-adv-x="1179" d="M-80 -231l37 262h123l-8 -226q31 -10 61 -10q117 0 170 119q29 59 59 252l99 575h-197v76h209l35 201q41 252 162 344q94 76 241 76q76 0 209 -39l-33 -256h-120l8 215q-45 14 -78 14q-82 0 -130 -70.5t-75 -232.5l-43 -252h271v-76h-283l-84 -512q-29 -178 -52.5 -251.5 t-68.5 -124.5q-111 -123 -297 -123q-100 0 -215 39z" />
<glyph unicode="&#x1cd;" horiz-adv-x="1337" d="M-10 0v66l114 6q37 70 115 270l275 719q100 256 131 356h84q20 -68 86 -235q16 -47 30 -78l328 -846q61 -156 76 -186l119 -6v-66h-500v66l160 6q-14 57 -56 172l-96 252h-489l-62 -158q-61 -162 -88 -266l150 -6v-66h-377zM360 1780l31 47q184 -86 279 -189 q86 98 278 189l31 -47q-94 -61 -221 -252h-176q-128 191 -222 252zM393 571h436l-215 578z" />
<glyph unicode="&#x1ce;" horiz-adv-x="1077" d="M109 260q0 233 260 303q133 37 333 37v82q0 111 -5 148.5t-21 74.5q-45 88 -154 88q-111 0 -186 -92l-17 -168h-137l-6 234q172 92 344 92q207 0 297 -109q35 -43 47.5 -109.5t12.5 -224.5v-378q0 -94 10 -119q16 -41 63 -41q45 0 109 45l35 -51q-119 -92 -226 -92 q-70 0 -104.5 32.5t-50.5 112.5q-147 -145 -318 -145q-127 0 -206.5 77.5t-79.5 202.5zM229 1483l31 47q184 -86 279 -189q86 98 278 189l31 -47q-94 -61 -221 -252h-176q-128 191 -222 252zM283 297q0 -86 57 -144.5t141 -58.5q104 0 221 99v339q-156 -2 -251 -30 q-168 -53 -168 -205z" />
<glyph unicode="&#x1d3;" horiz-adv-x="1488" d="M61 1352v65h545v-65l-170 -6q-10 -129 -10 -369v-414q0 -244 33 -327q72 -180 323 -181q244 0 338 181q47 88 47 337v404q0 174 -10 369l-162 6v65h432v-65l-161 -6q-10 -129 -11 -369v-453q0 -143 -16 -220t-63 -142q-131 -182 -414 -182q-313 0 -443 184 q-47 70 -62 153.5t-15 278.5v381q0 240 -11 369zM498 1780l30 47q184 -86 279 -189q86 98 278 189l31 -47q-94 -61 -221 -252h-176q-127 191 -221 252z" />
<glyph unicode="&#x1e6;" horiz-adv-x="1447" d="M129 700q0 346 170 542t471 196q217 0 457 -99v-290h-140l-22 229q-147 84 -283 84q-211 0 -332.5 -177t-121.5 -487q0 -303 122.5 -471t344.5 -168q133 0 256 58v461l-164 6v65h504v-65l-156 -6v-283q0 -156 6 -227q-270 -88 -453 -88q-317 0 -497 208 q-162 186 -162 512zM469 1780l31 47q184 -86 278 -189q86 98 279 189l30 -47q-94 -61 -221 -252h-176q-127 191 -221 252z" />
<glyph unicode="&#x1e7;" horiz-adv-x="1222" d="M115 530.5q0 239.5 110.5 384t292.5 144.5q96 0 166 -37t152 -129l6 156l323 -11v-65l-149 -6q-10 -168 -10 -414v-438q0 -203 -16.5 -286t-69.5 -142q-129 -147 -381 -148q-174 0 -367 88l10 228h142l10 -172q88 -68 209 -68q96 0 164.5 42t93.5 114q31 90 30 327v88 q-76 -88 -147.5 -124.5t-165.5 -36.5q-180 0 -293 135q-110 131 -110 370.5zM299 524q0 -188 69.5 -289.5t200.5 -101.5q133 0 262 150v493q-66 98 -128 140t-140 42q-123 0 -193.5 -115.5t-70.5 -318.5zM309 1483l31 47q184 -86 278 -189q86 98 279 189l31 -47 q-94 -61 -221 -252h-177q-127 191 -221 252z" />
<glyph unicode="&#x219;" horiz-adv-x="954" d="M119 754q0 143 96 224t264 81q170 0 328 -66l-6 -243h-139l-19 190q-78 51 -170 51q-94 0 -153.5 -50t-59.5 -130q0 -76 48 -114t196 -79q125 -37 171 -56t85 -52q88 -76 88 -217q0 -152 -98.5 -232.5t-280.5 -80.5q-174 0 -348 69l6 246h143l19 -201q82 -47 178 -47 q98 0 157.5 54.5t59.5 144.5q0 86 -49 129q-41 37 -201 84q-178 51 -246.5 115.5t-68.5 179.5zM225 -393q207 168 201 317h106q25 0 33 -6t8 -24q0 -82 -90 -183q-63 -66 -221 -162z" />
<glyph unicode="&#x21a;" horiz-adv-x="1212" d="M41 1049v368h1130v-368h-139l-26 292h-297q-10 -219 -11 -405v-455q0 -270 11 -409l186 -6v-66h-578v66l187 6q10 188 10 409v455q0 186 -10 405h-297l-27 -292h-139zM356 -393q207 168 201 317h107q25 0 33 -6t8 -24q0 -82 -91 -183q-63 -66 -221 -162z" />
<glyph unicode="&#x2bc;" horiz-adv-x="557" d="M125 1026q119 129 143 258q-111 20 -110 113q0 51 33.5 86t84.5 35q57 0 92 -38t35 -98q0 -152 -233 -401z" />
<glyph unicode="&#x2c6;" d="M203 1266q94 61 221 252h176q127 -190 221 -252l-30 -47q-184 86 -279 188q-86 -98 -279 -188z" />
<glyph unicode="&#x2c7;" d="M203 1483l30 47q184 -86 279 -189q86 98 279 189l30 -47q-94 -61 -221 -252h-176q-127 191 -221 252z" />
<glyph unicode="&#x2c9;" d="M213 1331v92h598v-92h-598z" />
<glyph unicode="&#x2d8;" d="M215 1518h70q8 -98 63 -143.5t164 -45.5t165 45t64 144h70q-12 -297 -299 -297t-297 297z" />
<glyph unicode="&#x2d9;" d="M401 1388.5q0 47.5 32 78t79 30.5t78 -31.5t31 -79t-32 -78t-77 -30.5q-47 0 -79 31.5t-32 79z" />
<glyph unicode="&#x2da;" d="M307 1364q0 86 59.5 144.5t145.5 58.5q88 0 146.5 -58.5t58.5 -146.5t-58.5 -146.5t-146.5 -58.5t-146.5 58.5t-58.5 148.5zM395 1364q0 -59 33 -95t84 -36t84 36t33 93t-33 93t-84 36t-84 -36t-33 -91z" />
<glyph unicode="&#x2db;" d="M328 -262q0 137 252 262h100q-119 -70 -165 -122t-46 -118q0 -125 145 -125q25 0 74 7l8 -58q-82 -25 -145 -24q-102 0 -162.5 48t-60.5 130z" />
<glyph unicode="&#x2dc;" d="M170 1278q59 207 201 207q51 0 159 -35q94 -31 148 -31q100 0 113 78h61q-14 -113 -60.5 -162t-136.5 -49q-51 0 -159 33q-104 33 -166 33q-72 0 -99 -74h-61z" />
<glyph unicode="&#x2dd;" d="M274 1260q178 137 215 258h136q37 0 37 -23q-4 -41 -76 -113q-90 -90 -275 -170zM578 1260q178 137 215 258h135q37 0 37 -23q-4 -41 -76 -113q-90 -90 -275 -170z" />
<glyph unicode="&#x384;" d="M412 1214q102 119 143 304h127q41 0 41 -31q0 -78 -105 -187q-61 -66 -172 -133z" />
<glyph unicode="&#x385;" d="M166 1368q0 41 28.5 68.5t69.5 27.5t68.5 -27.5t27.5 -70.5q0 -41 -27.5 -68.5t-68.5 -27.5q-43 0 -70.5 27.5t-27.5 70.5zM373 1210q76 125 82 308h106q31 0 43 -11.5t12 -38.5q0 -150 -204 -299zM666 1368q0 41 28.5 68.5t69.5 27.5t68.5 -27.5t27.5 -70.5 q0 -41 -27.5 -68.5t-68.5 -27.5q-43 0 -70.5 27.5t-27.5 70.5z" />
<glyph unicode="&#x386;" horiz-adv-x="1345" d="M-6 0v66l115 6q37 70 114 270l275 719q100 256 131 356h84q20 -68 86 -235q16 -47 30 -78l328 -846q61 -156 76 -186l119 -6v-66h-500v66l160 6q-14 57 -56 172l-96 252h-489l-62 -158q-61 -162 -88 -266l150 -6v-66h-377zM90 1006q57 80 97 192.5t49 218.5h129 q41 0 41 -43t-30 -114.5t-71 -131.5q-59 -86 -168 -174zM397 571h437l-216 578z" />
<glyph unicode="&#x387;" horiz-adv-x="589" d="M174 567q0 51 35 85t86 34t85 -34t34 -85t-34 -86t-85 -35q-53 0 -87 35t-34 86z" />
<glyph unicode="&#x388;" horiz-adv-x="1478" d="M-37 1006q57 80 97 192.5t49 218.5h129q41 0 41 -43t-30 -114.5t-71 -131.5q-59 -86 -168 -174zM360 0v66l170 6q10 129 11 368v537q0 240 -11 369l-170 6v65h986v-368h-140l-26 292h-445q-10 -123 -10 -364v-219h487v-76h-487v-242q0 -242 10 -364h477l29 293h143v-369 h-1024z" />
<glyph unicode="&#x389;" horiz-adv-x="1847" d="M-37 1006q57 80 97 192.5t49 218.5h129q41 0 41 -43t-30 -114.5t-71 -131.5q-59 -86 -168 -174zM360 0v66l170 6q10 129 11 368v537q0 240 -11 369l-170 6v65h545v-65l-170 -6q-10 -129 -10 -369v-217h692v217q0 240 -10 369l-170 6v65h545v-65l-170 -6 q-10 -129 -10 -369v-537q0 -240 10 -368l170 -6v-66h-545v66l170 6q10 129 10 368v244h-692v-244q0 -240 10 -368l170 -6v-66h-545z" />
<glyph unicode="&#x38a;" horiz-adv-x="995" d="M-37 1006q57 80 97 192.5t49 218.5h129q41 0 41 -43t-30 -114.5t-71 -131.5q-59 -86 -168 -174zM373 0v66l170 6q10 129 10 368v537q0 240 -10 369l-170 6v65h545v-65l-170 -6q-10 -129 -11 -369v-537q0 -240 11 -368l170 -6v-66h-545z" />
<glyph unicode="&#x38c;" horiz-adv-x="1718" d="M-37 1006q57 80 97 192.5t49 218.5h129q41 0 41 -43t-30 -114.5t-71 -131.5q-59 -86 -168 -174zM305 717q0 168 53.5 313.5t149.5 241.5q166 166 436 166q315 0 488 -224q154 -197 153 -505q0 -356 -203 -564q-166 -166 -438 -165q-313 0 -485 223q-154 197 -154 514z M504 715q0 -322 113.5 -496t326.5 -174q211 0 326.5 173t115.5 490.5t-115.5 490.5t-326.5 173q-209 0 -324.5 -172t-115.5 -485z" />
<glyph unicode="&#x38e;" horiz-adv-x="1628" d="M-37 1006q57 80 97 192.5t49 218.5h129q41 0 41 -43t-30 -114.5t-71 -131.5q-59 -86 -168 -174zM365 1352v65h487v-65l-141 -6q41 -78 168 -277l215 -334l198 369q98 186 121 242l-149 6v65h374v-65l-114 -6q-51 -74 -146 -250l-239 -449q-6 -86 -6 -194v-95 q0 -96 6 -286l174 -6v-66h-545v66l174 6q6 111 6 286v95q0 106 -6 198l-324 488q-96 145 -147 207z" />
<glyph unicode="&#x38f;" horiz-adv-x="1796" d="M-37 1006q57 80 97 192.5t49 218.5h129q41 0 41 -43t-30 -114.5t-71 -131.5q-59 -86 -168 -174zM293 0v145q123 -29 364 -28h123v63q-248 82 -356.5 221.5t-108.5 378.5q0 307 178.5 482.5t489.5 175.5q313 0 491.5 -175.5t178.5 -482.5q0 -240 -108.5 -379t-356.5 -221 v-63h123q242 0 364 28v-145h-596v227q143 35 234 125q141 139 141 441q0 281 -121 430t-348 149q-229 0 -350 -149.5t-121 -429.5q0 -305 141 -441q90 -90 234 -125v-227h-596z" />
<glyph unicode="&#x390;" horiz-adv-x="647" d="M-23 1368q0 41 29 68.5t70 27.5t68.5 -27.5t27.5 -70.5q0 -41 -27.5 -68.5t-68.5 -27.5q-43 0 -71 27.5t-28 70.5zM80 0v66l149 6q10 113 11 368v158q0 252 -11 369l-149 6v65l344 11q-10 -160 -10 -433v-176q0 -225 10 -368l149 -6v-66h-493zM184 1210q76 125 82 308 h107q31 0 43 -11.5t12 -38.5q0 -150 -205 -299zM477 1368q0 41 29 68.5t69.5 27.5t68.5 -27.5t28 -70.5q0 -41 -28 -68.5t-69 -27.5q-43 0 -70.5 27.5t-27.5 70.5z" />
<glyph unicode="&#x391;" horiz-adv-x="1345" d="M-6 0v66l115 6q37 70 114 270l275 719q100 256 131 356h84q20 -68 86 -235q16 -47 30 -78l328 -846q61 -156 76 -186l119 -6v-66h-500v66l160 6q-14 57 -56 172l-96 252h-489l-62 -158q-61 -162 -88 -266l150 -6v-66h-377zM397 571h437l-216 578z" />
<glyph unicode="&#x392;" horiz-adv-x="1236" d="M66 0v70l170 6q10 106 10 364v510q0 266 -10 396l-170 6v65h458q289 0 402 -67q143 -90 143 -291q0 -139 -78 -218t-243 -106q184 -27 258 -92q98 -86 98 -262q0 -207 -143 -301q-125 -80 -388 -80h-507zM426 440q0 -180 6 -364h92q385 0 385 311q0 158 -94 231.5 t-299 73.5h-90v-252zM426 768h78q377 0 377 291q0 147 -93 221q-82 66 -264 66h-94q-4 -250 -4 -369v-209z" />
<glyph unicode="&#x393;" horiz-adv-x="1128" d="M66 0v66l170 6q10 129 10 368v537q0 240 -10 369l-170 6v65h1017v-368h-139l-26 292h-478q-10 -199 -10 -364v-537q0 -266 10 -368l170 -6v-66h-544z" />
<glyph unicode="&#x394;" horiz-adv-x="1314" d="M39 0v72q49 98 123 270l313 719q111 262 143 356h91q23 -72 94 -235l35 -78l360 -846q2 -4 23 -51q8 -16 24 -53q18 -45 37 -82v-72h-1243zM164 117h885q-23 63 -50 127l-391 919l-358 -825q-49 -110 -86 -221z" />
<glyph unicode="&#x395;" horiz-adv-x="1183" d="M66 0v66l170 6q10 129 10 368v537q0 240 -10 369l-170 6v65h985v-368h-140l-26 292h-445q-10 -123 -10 -364v-219h488v-76h-488v-242q0 -242 10 -364h478l28 293h144v-369h-1024z" />
<glyph unicode="&#x396;" horiz-adv-x="1296" d="M123 0v76l158 237l63 101l31 49l284 440q201 313 271 438h-619l-26 -292h-144v368h1018v-82l-299 -452l-225 -351l-189 -294q-49 -78 -71 -119l-27 -43h651l27 293h148v-369h-1051z" />
<glyph unicode="&#x397;" horiz-adv-x="1552" d="M66 0v66l170 6q10 129 10 368v537q0 240 -10 369l-170 6v65h544v-65l-170 -6q-10 -129 -10 -369v-217h692v217q0 240 -10 369l-170 6v65h545v-65l-170 -6q-10 -129 -10 -369v-537q0 -240 10 -368l170 -6v-66h-545v66l170 6q10 129 10 368v244h-692v-244q0 -240 10 -368 l170 -6v-66h-544z" />
<glyph unicode="&#x398;" horiz-adv-x="1546" d="M133 717q0 168 53.5 313.5t149.5 241.5q166 166 436 166q315 0 488 -224q154 -197 153 -505q0 -356 -203 -564q-166 -166 -438 -165q-313 0 -485 223q-154 197 -154 514zM332 715q0 -322 113.5 -496t326.5 -174q211 0 326.5 173t115.5 490.5t-115.5 490.5t-326.5 173 q-209 0 -324.5 -172t-115.5 -485zM500 643v156h35q86 -29 237 -29q154 0 240 29h35v-156h-35q-86 29 -238 29q-154 0 -239 -29h-35z" />
<glyph unicode="&#x399;" horiz-adv-x="700" d="M78 0v66l170 6q10 129 10 368v537q0 240 -10 369l-170 6v65h545v-65l-170 -6q-10 -129 -11 -369v-537q0 -240 11 -368l170 -6v-66h-545z" />
<glyph unicode="&#x39a;" horiz-adv-x="1337" d="M66 0v66l170 6q10 129 10 368v537q0 240 -10 369l-170 6v65h524v-65l-150 -6q-10 -129 -10 -369v-232l617 601l-179 6v65h412v-65l-96 -6q-43 -37 -234 -213l-346 -334l461 -543q106 -125 168 -184l100 -6v-66h-491v66h143l-555 665v-291q0 -240 10 -368l150 -6v-66h-524 z" />
<glyph unicode="&#x39b;" horiz-adv-x="1345" d="M-6 0v66l115 6q37 70 114 270l275 719q100 256 131 356h84q20 -68 86 -235q16 -47 30 -78l328 -846q61 -156 76 -186l119 -6v-66h-500v66l160 6q-12 49 -56 172l-338 905l-309 -811q-51 -131 -88 -266l150 -6v-66h-377z" />
<glyph unicode="&#x39c;" horiz-adv-x="1804" d="M66 0v66l161 6q10 137 11 460v814l-172 6v65h385q35 -104 137 -342l315 -735l322 741q96 219 137 336h377v-65l-180 -6v-906q0 -219 10 -368l170 -6v-66h-545v66l170 6q10 123 10 368v777l-493 -1137h-58l-497 1137v-676q0 -336 10 -469l162 -6v-66h-432z" />
<glyph unicode="&#x39d;" horiz-adv-x="1509" d="M66 0v66l161 6q10 129 11 522v752l-172 6v65h387q29 -59 165 -266l566 -842v668q0 240 -10 369l-162 6v65h432v-65l-162 -6q-10 -123 -10 -369v-977h-119q-35 70 -104 172l-62 88l-661 985v-659q0 -324 10 -514l162 -6v-66h-432z" />
<glyph unicode="&#x39e;" horiz-adv-x="1183" d="M66 0v369h143l24 -252h689l24 252h144v-369h-1024zM88 1049v368h979v-368h-139l-23 251h-655l-23 -251h-139zM283 637v168h34q92 -29 261 -29q166 0 260 29h34v-168h-34q-94 29 -260 29t-261 -29h-34z" />
<glyph unicode="&#x39f;" horiz-adv-x="1546" d="M133 717q0 168 53.5 313.5t149.5 241.5q166 166 436 166q315 0 488 -224q154 -197 153 -505q0 -356 -203 -564q-166 -166 -438 -165q-313 0 -485 223q-154 197 -154 514zM332 715q0 -322 113.5 -496t326.5 -174q211 0 326.5 173t115.5 490.5t-115.5 490.5t-326.5 173 q-209 0 -324.5 -172t-115.5 -485z" />
<glyph unicode="&#x3a0;" horiz-adv-x="1499" d="M66 0v66l170 6q10 129 10 368v537q0 240 -10 369l-170 6v65h1368v-65l-170 -6q-10 -129 -11 -369v-537q0 -240 11 -368l170 -6v-66h-545v66l170 6q10 129 10 368v533q0 240 -10 368h-619q-10 -129 -10 -368v-533q0 -240 10 -368l170 -6v-66h-544z" />
<glyph unicode="&#x3a1;" horiz-adv-x="1193" d="M66 0v66l170 6q10 129 10 366v539q0 240 -10 369l-170 6v65h518q147 0 222 -15.5t134 -55.5q147 -100 147 -324q0 -219 -157 -322q-63 -41 -147.5 -57t-231.5 -16h-121v-189q0 -176 10 -366l203 -6v-66h-577zM430 702h78q188 0 270 66q109 84 109 258q0 319 -338 320 h-119v-644z" />
<glyph unicode="&#x3a3;" horiz-adv-x="1146" d="M45 0v66l463 602l-445 684v65h951v-368h-140l-26 292h-559l389 -596l-481 -628h688l24 252h144v-369h-1008z" />
<glyph unicode="&#x3a4;" horiz-adv-x="1220" d="M45 1049v368h1131v-368h-140l-26 292h-297q-10 -219 -11 -405v-455q0 -270 11 -409l186 -6v-66h-577v66l186 6q10 188 10 409v455q0 186 -10 405h-297l-27 -292h-139z" />
<glyph unicode="&#x3a5;" horiz-adv-x="1236" d="M-27 1352v65h488v-65l-142 -6q41 -78 168 -277l215 -334l199 369q98 186 121 242l-150 6v65h375v-65l-114 -6q-51 -74 -146 -250l-239 -449q-6 -86 -7 -194v-95q0 -96 7 -286l174 -6v-66h-545v66l174 6q6 111 6 286v95q0 106 -6 198l-324 488q-96 145 -147 207z" />
<glyph unicode="&#x3a6;" horiz-adv-x="1779" d="M133 711q0 256 182.5 419.5t485.5 180.5q0 84 -6 182l-170 6v66h532v-66l-170 -6q-6 -72 -6 -182q215 -16 356 -94q150 -80 230 -212.5t80 -296t-80 -295.5t-230 -212q-145 -80 -356 -95q0 -109 6 -182l170 -6v-65h-532v65l170 6q6 78 6 182q-215 16 -357 95 q-152 82 -231.5 213t-79.5 297zM332 711q0 -236 121.5 -373t351.5 -164v1069q-231 -27 -352 -163t-121 -369zM977 174q229 27 350 163t121 371.5t-121 372t-350 162.5v-1069z" />
<glyph unicode="&#x3a7;" horiz-adv-x="1355" d="M12 0v66l123 6q37 43 62 75l108 146l281 393l-267 412q-111 168 -169 248l-121 6v65h497v-65l-135 -6q47 -90 187 -308l131 -202l217 299q82 115 90 127q18 25 55 84l-139 6v65h375v-65l-117 -6q-63 -76 -209 -273l-221 -303l282 -438l179 -260l122 -6v-66h-495v66l123 6 q-20 49 -111 192l-221 348l-244 -348q-72 -104 -125 -192l144 -6v-66h-402z" />
<glyph unicode="&#x3a8;" horiz-adv-x="1871" d="M45 1352v65l336 10q6 -137 6 -294v-154q0 -182 20.5 -265t79.5 -145q57 -59 132 -82.5t225 -31.5v522q0 240 -10 369l-170 6v65h544v-65l-170 -6q-10 -129 -10 -369v-522q166 8 249 39.5t136 109.5q43 59 57.5 135t14.5 240v154q0 158 6 294l336 -10v-65l-146 -6 q-14 -158 -14 -463q6 -502 -639 -496q2 -229 10 -315l170 -6v-66h-544v66l170 6q8 86 10 315q-352 0 -505 139.5t-134 444.5q-4 268 -15 375z" />
<glyph unicode="&#x3a9;" horiz-adv-x="1624" d="M121 0v145q123 -29 364 -28h123v63q-248 82 -356.5 221.5t-108.5 378.5q0 307 178.5 482.5t489.5 175.5q313 0 491.5 -175.5t178.5 -482.5q0 -240 -108.5 -379t-356.5 -221v-63h123q242 0 364 28v-145h-596v227q143 35 234 125q141 139 141 441q0 281 -121 430t-348 149 q-229 0 -350 -149.5t-121 -429.5q0 -305 141 -441q90 -90 234 -125v-227h-596z" />
<glyph unicode="&#x3aa;" horiz-adv-x="700" d="M43 1651q0 47 31.5 77.5t79 30.5t78 -31.5t30.5 -78.5t-30.5 -78t-78 -31t-79 32t-31.5 79zM78 0v66l170 6q10 129 10 368v537q0 240 -10 369l-170 6v65h545v-65l-170 -6q-10 -129 -11 -369v-537q0 -240 11 -368l170 -6v-66h-545zM436 1651q0 47 32 77.5t79 30.5 t77.5 -31.5t30.5 -78.5t-30.5 -78t-77.5 -31t-79 32t-32 79z" />
<glyph unicode="&#x3ab;" horiz-adv-x="1236" d="M-27 1352v65h488v-65l-142 -6q41 -78 168 -277l215 -334l199 369q98 186 121 242l-150 6v65h375v-65l-114 -6q-51 -74 -146 -250l-239 -449q-6 -86 -7 -194v-95q0 -96 7 -286l174 -6v-66h-545v66l174 6q6 111 6 286v95q0 106 -6 198l-324 488q-96 145 -147 207zM346 1651 q0 47 32 77.5t79 30.5t77.5 -31.5t30.5 -78.5t-30.5 -78t-77.5 -31t-79 32t-32 79zM739 1651q0 47 32 77.5t79 30.5t77.5 -31.5t30.5 -78.5t-30.5 -78t-77.5 -31t-79 32t-32 79z" />
<glyph unicode="&#x3ac;" horiz-adv-x="1284" d="M119 518q0 258 121.5 399.5t341.5 141.5q172 0 265 -82t140 -275q35 100 80 347l135 -31q-57 -297 -186 -627l20 -67q35 -100 72 -148.5t98 -73.5l-55 -122q-70 10 -114 57t-97 168q-121 -225 -354 -225q-219 0 -343 142t-124 396zM307 520q0 -221 74 -348t205 -127 q137 0 223 145q53 96 88 269q-18 272 -94 403t-213 131q-135 0 -209 -123t-74 -350zM528 1214q102 119 144 304h127q41 0 41 -31q0 -78 -105 -187q-61 -66 -172 -133z" />
<glyph unicode="&#x3ad;" horiz-adv-x="962" d="M98 283q0 182 158 241q-141 70 -141 232q0 147 103.5 225t297.5 78q174 0 344 -60l-6 -249h-137l-19 206q-61 37 -168 37q-236 0 -235 -223q0 -139 98 -182q57 -25 168 -25h90v-65h-114q-143 0 -193 -49q-57 -51 -57 -164q0 -238 241 -238q172 0 285 119l57 -88 q-127 -98 -370 -98q-195 0 -298.5 78t-103.5 225zM422 1214q102 119 143 304h127q41 0 41 -31q0 -78 -104 -187q-61 -66 -172 -133z" />
<glyph unicode="&#x3ae;" horiz-adv-x="1247" d="M70 973v65l323 11l6 -195q96 109 182.5 157t186.5 48q92 0 160.5 -46t99.5 -128q29 -78 29 -328v-997h-193q18 379 19 768v254q0 195 -29 260q-43 102 -156 102q-154 0 -295 -188v-387q0 -221 11 -369h-195q10 102 10 369v229q0 197 -14 369zM522 1214q102 119 144 304 h127q41 0 41 -31q0 -78 -105 -187q-61 -66 -172 -133z" />
<glyph unicode="&#x3af;" horiz-adv-x="647" d="M80 0v66l149 6q10 113 11 368v158q0 252 -11 369l-149 6v65l344 11q-10 -160 -10 -433v-176q0 -225 10 -368l149 -6v-66h-493zM207 1214q102 119 143 304h127q41 0 41 -31q0 -78 -104 -187q-61 -66 -172 -133z" />
<glyph unicode="&#x3b0;" horiz-adv-x="1148" d="M37 973v65l344 11q-10 -303 -10 -433v-157q0 -205 45 -281q61 -98 207 -98q281 0 280 452q0 221 -84 429h-123v65l262 21q68 -199 68 -435q0 -303 -119 -467.5t-336 -164.5q-236 0 -323 174q-51 104 -51 327v117q0 264 -7 369zM258 1368q0 41 28.5 68.5t69.5 27.5 t69 -27.5t28 -70.5q0 -41 -28 -68.5t-69 -27.5q-43 0 -70.5 27.5t-27.5 70.5zM465 1210q76 125 82 308h106q31 0 43.5 -11.5t12.5 -38.5q0 -150 -205 -299zM758 1368q0 41 28.5 68.5t69.5 27.5t68.5 -27.5t27.5 -70.5q0 -41 -27.5 -68.5t-68.5 -27.5q-43 0 -70.5 27.5 t-27.5 70.5z" />
<glyph unicode="&#x3b1;" horiz-adv-x="1284" d="M119 518q0 258 121.5 399.5t341.5 141.5q172 0 265 -82t140 -275q35 100 80 347l135 -31q-57 -297 -186 -627l20 -67q35 -100 72 -148.5t98 -73.5l-55 -122q-70 10 -114 57t-97 168q-121 -225 -354 -225q-219 0 -343 142t-124 396zM307 520q0 -221 74 -348t205 -127 q137 0 223 145q53 96 88 269q-18 272 -94 403t-213 131q-135 0 -209 -123t-74 -350z" />
<glyph unicode="&#x3b2;" horiz-adv-x="1275" d="M201 -440q10 164 10 395v1057q0 164 18.5 238.5t73.5 138.5q115 133 328 133q197 0 316.5 -105.5t119.5 -277.5q0 -276 -303 -334q162 -14 250 -82q135 -106 135 -311q0 -190 -114.5 -307t-303.5 -117q-172 0 -346 121v-154q0 -227 10 -395h-194zM385 199 q178 -135 311 -136q125 0 197 92.5t72 256.5q0 197 -97 282q-78 66 -264 66h-24v69h24q283 0 283 318q0 139 -71 224t-189 85q-158 0 -213 -141q-29 -76 -29 -268v-848z" />
<glyph unicode="&#x3b3;" horiz-adv-x="1007" d="M-25 1026l240 23q127 -231 211 -450.5t102 -367.5q84 150 159 368t91 362h-149v65l301 23q-6 -287 -342 -889v-600h-185q10 129 11 293v67q0 301 -131 619q-113 272 -199 422h-104z" />
<glyph unicode="&#x3b4;" horiz-adv-x="1193" d="M119 483q0 182 87 294t269 165q-135 51 -191.5 112.5t-56.5 162.5q0 139 100.5 220t274.5 81q207 0 404 -99l-78 -162q-217 168 -408 168q-92 0 -142 -42t-50 -119q0 -68 52 -109t224 -106q246 -90 338 -181q133 -127 133 -364q0 -248 -127 -386t-352 -138 q-223 0 -350 133.5t-127 369.5zM307 510q0 -223 76 -344t215 -121t214 121t75 346q0 199 -121 293q-61 49 -217 108q-127 -47 -184.5 -143t-57.5 -260z" />
<glyph unicode="&#x3b5;" horiz-adv-x="962" d="M98 283q0 182 158 241q-141 70 -141 232q0 147 103.5 225t297.5 78q174 0 344 -60l-6 -249h-137l-19 206q-61 37 -168 37q-236 0 -235 -223q0 -139 98 -182q57 -25 168 -25h90v-65h-114q-143 0 -193 -49q-57 -51 -57 -164q0 -238 241 -238q172 0 285 119l57 -88 q-127 -98 -370 -98q-195 0 -298.5 78t-103.5 225z" />
<glyph unicode="&#x3b6;" horiz-adv-x="837" d="M115 453q0 158 67.5 301t229.5 325q135 150 272 271q-115 -8 -209 -9q-147 0 -291 21l15 135q145 -25 305 -24q156 0 321 24l-16 -119q-154 -125 -291 -315q-123 -168 -175 -300t-52 -276q0 -162 80 -229q39 -31 215 -98q139 -53 182 -94q66 -55 66 -170 q0 -164 -125 -269q-109 -88 -306 -88q-96 0 -208 25l32 157q137 -70 267 -69q119 0 184 45t65 129t-63 125q-33 20 -203 74q-125 41 -189.5 78.5t-103.5 95.5q-69 100 -69 254z" />
<glyph unicode="&#x3b7;" horiz-adv-x="1247" d="M70 973v65l323 11l6 -195q96 109 182.5 157t186.5 48q92 0 160.5 -46t99.5 -128q29 -78 29 -328v-997h-193q18 379 19 768v254q0 195 -29 260q-43 102 -156 102q-154 0 -295 -188v-387q0 -221 11 -369h-195q10 102 10 369v229q0 197 -14 369z" />
<glyph unicode="&#x3b8;" horiz-adv-x="1148" d="M119 756q0 354 123 558t333.5 204t332.5 -205t122 -563.5t-121 -564t-334 -205.5q-215 0 -335.5 205.5t-120.5 570.5zM307 758q0 -379 62.5 -546t205.5 -167q141 0 204 167t63 546h-535zM309 829h533q-8 330 -70.5 476.5t-196.5 146.5q-135 0 -196.5 -145.5t-69.5 -477.5 z" />
<glyph unicode="&#x3b9;" horiz-adv-x="647" d="M80 0v66l149 6q10 113 11 368v158q0 252 -11 369l-149 6v65l344 11q-10 -160 -10 -433v-176q0 -225 10 -368l149 -6v-66h-493z" />
<glyph unicode="&#x3ba;" horiz-adv-x="1222" d="M80 0v66l149 6q10 113 11 368v158q0 252 -11 369l-149 6v65l344 11q-10 -160 -10 -433v-81l504 432l-156 6v65h383v-65l-92 -6q-35 -23 -80 -60l-66 -53l-67 -55l-191 -168l258 -342q129 -172 170 -213l117 -10v-66h-293q-23 45 -123 184l-250 340l-114 -102v-14 q0 -207 10 -336l149 -6v-66h-493z" />
<glyph unicode="&#x3bb;" horiz-adv-x="1085" d="M16 0v29q68 207 445 1013q-84 260 -207 383l-109 7v65l240 10q135 -152 268 -528l199 -576q86 -244 184 -331l84 -6v-66h-237q-121 133 -230 465l-155 455q-74 -174 -164 -435.5t-127 -412.5l98 -6v-66h-289z" />
<glyph unicode="&#x3bc;" horiz-adv-x="1306" d="M66 973v65l344 11q-10 -311 -11 -433v-34q0 -258 39 -355q55 -139 194.5 -139t260.5 195v684l-160 6v65l344 11q-10 -356 -10 -433v-176q0 -211 10 -368l150 -6v-66h-316l-6 180q-78 -111 -142.5 -155.5t-146.5 -44.5q-70 0 -117.5 28.5t-99.5 97.5v-546h-192 q18 354 18 774v264q0 262 -6 369z" />
<glyph unicode="&#x3bd;" horiz-adv-x="1114" d="M-29 1026l283 21q61 -129 166 -420l170 -494q264 377 264 733q0 51 -8 95h-148l4 65l297 21q10 -53 11 -113q0 -307 -226 -645q-70 -106 -213 -289h-120q-25 88 -93 274l-92 265q-106 301 -170 422h-121z" />
<glyph unicode="&#x3be;" horiz-adv-x="960" d="M135 408q0 227 156 335q78 55 227 78q-305 55 -305 256q0 190 254 285q-74 -2 -107 -2q-90 0 -159 6l14 131q133 -14 360 -14q150 0 310 14l-17 -129h-49q-233 0 -325 -61q-121 -78 -121 -228q0 -106 85 -155.5t267 -49.5q57 0 100 5v-125q-80 14 -166 14 q-180 0 -264 -75t-84 -236q0 -135 68 -203q49 -53 192 -78q119 -23 169.5 -40t84.5 -46q78 -66 78 -199q0 -166 -114.5 -258t-321.5 -92q-111 0 -219 31l31 149q160 -74 288 -73q248 0 248 180q0 98 -72 135q-39 18 -213 49q-203 33 -299 129.5t-96 266.5z" />
<glyph unicode="&#x3bf;" horiz-adv-x="1193" d="M119 526q0 254 125 393.5t352 139.5q229 0 354 -140.5t125 -400.5q0 -258 -125 -398t-354 -140q-231 0 -354 141t-123 405zM307 524q0 -236 74 -357.5t215 -121.5q143 0 217 121t74 352.5t-75 353t-216 121.5q-139 0 -214 -121t-75 -348z" />
<glyph unicode="&#x3c0;" horiz-adv-x="1419" d="M-63 827l83 211h1080q121 0 330 17l-70 -121h-268v-637q0 -137 24.5 -183t97.5 -46q66 0 138 51l37 -60q-106 -80 -232 -79q-166 0 -209 106q-31 72 -30 293v555h-449v-565q0 -221 10 -369h-194q10 102 10 369v565h-221l-80 -131z" />
<glyph unicode="&#x3c1;" horiz-adv-x="1175" d="M129 158q0 358 17.5 490t74.5 220q119 182 371 183q219 0 342 -139.5t123 -389.5q0 -256 -109.5 -403.5t-298.5 -147.5q-215 0 -346 193l2 -70l4 -170q2 -170 15 -364h-185q-10 322 -10 598zM303 270q61 -86 96 -116q94 -82 197 -82q125 0 200.5 117.5t75.5 312.5 q0 233 -72.5 358t-209.5 125q-287 0 -287 -498v-217z" />
<glyph unicode="&#x3c2;" horiz-adv-x="962" d="M121 553q0 244 118.5 375t340.5 131q154 0 299 -55l-7 -254h-137l-18 211q-61 31 -131 30q-154 0 -219 -131q-57 -125 -58 -289q0 -162 56.5 -237.5t224.5 -134.5q188 -66 244 -119q63 -63 63 -191q0 -162 -105.5 -257t-285.5 -95q-106 0 -221 27l30 157q150 -74 269 -73 q217 0 217 188q0 72 -36 106.5t-142 69.5q-236 78 -322 140q-180 129 -180 401z" />
<glyph unicode="&#x3c3;" horiz-adv-x="1183" d="M119 520q0 256 120.5 397.5t340.5 141.5q43 0 190 -15q43 -6 127 -6h180v-106l-237 16q215 -164 215 -469q0 -233 -124 -366t-343 -133q-225 0 -347 140t-122 400zM307 520.5q0 -231.5 72 -353.5t209 -122q135 0 206.5 117t71.5 336q0 496 -278 495q-137 0 -209 -120.5 t-72 -352z" />
<glyph unicode="&#x3c4;" horiz-adv-x="884" d="M-63 827l83 211h545q123 0 332 17l-70 -121h-319v-637q0 -137 24.5 -183t98.5 -46q66 0 137 51l37 -60q-106 -80 -232 -79q-166 0 -208 106q-31 72 -31 293v555h-258l-82 -131z" />
<glyph unicode="&#x3c5;" horiz-adv-x="1148" d="M37 973v65l344 11q-10 -303 -10 -433v-157q0 -205 45 -281q61 -98 207 -98q281 0 280 452q0 221 -84 429h-123v65l262 21q68 -199 68 -435q0 -303 -119 -467.5t-336 -164.5q-236 0 -323 174q-51 104 -51 327v117q0 264 -7 369z" />
<glyph unicode="&#x3c6;" horiz-adv-x="1509" d="M119 516q0 459 502 533l12 -84q-135 -31 -211 -95q-129 -117 -129 -346q0 -209 98 -329.5t285 -143.5v539q0 256 51 344q70 123 268 123q193 0 294.5 -131t101.5 -379q0 -350 -258 -486q-127 -70 -293 -77v-29q0 -231 10 -395h-184q10 164 10 395v27 q-270 23 -413.5 159.5t-143.5 374.5zM834 49q195 27 289 147.5t94 340.5q0 215 -58.5 332.5t-165.5 117.5q-123 0 -147 -141q-12 -63 -12 -258v-539z" />
<glyph unicode="&#x3c7;" horiz-adv-x="1026" d="M-12 -397q160 262 448 698l-84 184q-203 424 -256 482l-94 6v65l234 11q86 -125 223 -414l94 -203q197 332 231 535l-114 6v65l307 11v-41q-106 -223 -383 -660l182 -383q139 -293 254 -334l57 -6v-65h-229q-94 47 -244 368l-137 291q-66 -111 -152.5 -298t-123.5 -290 l108 -6v-65h-321v43z" />
<glyph unicode="&#x3c8;" horiz-adv-x="1617" d="M61 973v65l316 11q-10 -303 -10 -433v-100q0 -279 72.5 -368t301.5 -89h17v611q0 252 -10 368h190q-10 -164 -10 -432v-547h59q188 0 260 93q106 133 107 432q0 188 -62 377h-125v65l258 21q74 -217 74 -416q0 -172 -48 -313.5t-132 -223.5q-119 -113 -336 -112h-55v-117 q0 -215 10 -305h-190q10 92 10 299v123h-17q-352 0 -462 165q-82 125 -82 433v18q0 264 -7 369z" />
<glyph unicode="&#x3c9;" horiz-adv-x="1579" d="M90 973v65l311 11q-80 -317 -79.5 -538.5t57.5 -326t180 -104.5q84 0 129 69.5t45 200.5v424h162v-424q0 -274 197 -274q123 0 175 93t52 312q0 276 -90 480h-119v65l272 21q80 -244 80 -527q0 -541 -356 -540q-119 0 -187.5 57t-103.5 186q-39 -127 -111.5 -185 t-193.5 -58q-176 0 -268 136t-92 396q0 217 65 455z" />
<glyph unicode="&#x3ca;" horiz-adv-x="647" d="M8 1388.5q0 47.5 32 78t79 30.5t77.5 -31.5t30.5 -79t-31.5 -78t-76.5 -30.5q-47 0 -79 31.5t-32 79zM80 0v66l149 6q10 113 11 368v158q0 252 -11 369l-149 6v65l344 11q-10 -160 -10 -433v-176q0 -225 10 -368l149 -6v-66h-493zM401 1388.5q0 47.5 32 78t79 30.5 t78 -31.5t31 -79t-32 -78t-77 -30.5q-47 0 -79 31.5t-32 79z" />
<glyph unicode="&#x3cb;" horiz-adv-x="1148" d="M37 973v65l344 11q-10 -303 -10 -433v-157q0 -205 45 -281q61 -98 207 -98q281 0 280 452q0 221 -84 429h-123v65l262 21q68 -199 68 -435q0 -303 -119 -467.5t-336 -164.5q-236 0 -323 174q-51 104 -51 327v117q0 264 -7 369zM268 1388.5q0 47.5 32 78t79 30.5 t77.5 -31.5t30.5 -79t-30.5 -78t-77.5 -30.5t-79 31.5t-32 79zM662 1388.5q0 47.5 31.5 78t78.5 30.5t78 -31.5t31 -79t-31 -78t-78 -30.5t-78.5 31.5t-31.5 79z" />
<glyph unicode="&#x3cc;" horiz-adv-x="1193" d="M119 526q0 254 125 393.5t352 139.5q229 0 354 -140.5t125 -400.5q0 -258 -125 -398t-354 -140q-231 0 -354 141t-123 405zM307 524q0 -236 74 -357.5t215 -121.5q143 0 217 121t74 352.5t-75 353t-216 121.5q-139 0 -214 -121t-75 -348zM487 1214q102 119 144 304h127 q41 0 41 -31q0 -78 -105 -187q-61 -66 -172 -133z" />
<glyph unicode="&#x3cd;" horiz-adv-x="1148" d="M37 973v65l344 11q-10 -303 -10 -433v-157q0 -205 45 -281q61 -98 207 -98q281 0 280 452q0 221 -84 429h-123v65l262 21q68 -199 68 -435q0 -303 -119 -467.5t-336 -164.5q-236 0 -323 174q-51 104 -51 327v117q0 264 -7 369zM473 1214q102 119 143 304h127q41 0 41 -31 q0 -78 -104 -187q-61 -66 -172 -133z" />
<glyph unicode="&#x3ce;" horiz-adv-x="1579" d="M90 973v65l311 11q-80 -317 -79.5 -538.5t57.5 -326t180 -104.5q84 0 129 69.5t45 200.5v424h162v-424q0 -274 197 -274q123 0 175 93t52 312q0 276 -90 480h-119v65l272 21q80 -244 80 -527q0 -541 -356 -540q-119 0 -187.5 57t-103.5 186q-39 -127 -111.5 -185 t-193.5 -58q-176 0 -268 136t-92 396q0 217 65 455zM670 1214q102 119 143 304h127q41 0 41 -31q0 -78 -104 -187q-61 -66 -172 -133z" />
<glyph unicode="&#x401;" horiz-adv-x="1183" d="M66 0v66l170 6q10 129 10 368v537q0 240 -10 369l-170 6v65h985v-368h-140l-26 292h-445q-10 -123 -10 -364v-219h488v-76h-488v-242q0 -242 10 -364h478l28 293h144v-369h-1024zM295 1651q0 47 31.5 77.5t79 30.5t78 -31.5t30.5 -78.5t-31.5 -78t-76.5 -31q-47 0 -79 32 t-32 79zM688 1651q0 47 32 77.5t79 30.5t77.5 -31.5t30.5 -78.5t-31.5 -78t-76.5 -31q-47 0 -79 32t-32 79z" />
<glyph unicode="&#x402;" horiz-adv-x="1624" d="M45 1049v368h1172v-368h-140l-26 292h-338q-10 -219 -11 -405v-158q207 51 369 51q258 0 356 -131q41 -53 55.5 -123.5t14.5 -212.5v-133q0 -221 -36 -353t-118 -208q-61 -57 -126.5 -77.5t-206.5 -30.5h-17l-4 67q199 23 261.5 137.5t62.5 454.5v107q0 141 -6.5 193 t-26.5 99q-57 129 -258 130q-154 0 -320 -48v-219q0 -270 11 -409l170 -6v-66h-561v66l186 6q10 188 10 409v455q0 186 -10 405h-297l-27 -292h-139z" />
<glyph unicode="&#x403;" horiz-adv-x="1128" d="M66 0v66l170 6q10 129 10 368v537q0 240 -10 369l-170 6v65h1017v-368h-139l-26 292h-478q-10 -199 -10 -364v-537q0 -266 10 -368l170 -6v-66h-544zM414 1552q74 47 148.5 121t107.5 137h149q31 0 31 -16q0 -37 -100 -119q-102 -86 -310 -170z" />
<glyph unicode="&#x404;" horiz-adv-x="1265" d="M133 698q0 348 155.5 544t434.5 196q199 0 412 -99v-290h-140l-22 229q-121 84 -240 84q-233 0 -338 -268q-51 -129 -59 -336h541v-76h-543q2 -242 72 -387q113 -233 354 -234q205 0 334 136l65 -109q-152 -109 -403 -108q-305 0 -464 183t-159 535z" />
<glyph unicode="&#x405;" horiz-adv-x="1159" d="M147 66v303h144l24 -254q117 -70 236 -70q139 0 223 79t84 210q0 109 -61 168q-37 35 -82 58.5t-197 88.5q-209 86 -285 154q-86 76 -86 223q0 190 123 301t336 111q201 0 369 -99v-290h-139l-23 251q-94 72 -211 72q-127 0 -203.5 -73.5t-76.5 -196.5q0 -100 59 -155.5 t248 -133.5q242 -98 322.5 -180t80.5 -230q0 -197 -127 -310t-346 -113q-201 0 -412 86z" />
<glyph unicode="&#x406;" horiz-adv-x="700" d="M78 0v66l170 6q10 129 10 368v537q0 240 -10 369l-170 6v65h545v-65l-170 -6q-10 -129 -11 -369v-537q0 -240 11 -368l170 -6v-66h-545z" />
<glyph unicode="&#x407;" horiz-adv-x="692" d="M39 1651q0 47 31.5 77.5t79 30.5t78 -31.5t30.5 -78.5t-30.5 -78t-78 -31t-79 32t-31.5 79zM74 0v66l170 6q10 129 10 368v537q0 240 -10 369l-170 6v65h544v-65l-169 -6q-10 -129 -11 -369v-537q0 -240 11 -368l169 -6v-66h-544zM432 1651q0 47 32 77.5t79 30.5 t77.5 -31.5t30.5 -78.5t-30.5 -78t-77.5 -31t-79 32t-32 79z" />
<glyph unicode="&#x408;" horiz-adv-x="708" d="M-102 -190l6 73q23 -2 49 -2q86 0 159.5 34t108.5 91q57 92 58 373v598q0 240 -11 369l-170 6v65h545v-65l-170 -6q-10 -129 -10 -369v-578q0 -252 -37 -342q-51 -119 -168 -185.5t-274 -66.5q-8 1 -86 5z" />
<glyph unicode="&#x409;" horiz-adv-x="1867" d="M20 0v39q166 76 250 328q74 227 74 757v43q0 88 -8 174l-148 11v65h1121v-65l-170 -6q-10 -129 -11 -369v-148h113q305 0 433 -94t128 -321q0 -225 -143 -328q-121 -86 -387 -86h-508v70l170 6q10 106 10 364v533q0 240 -10 368h-477v-235q0 -483 -47.5 -711.5 t-180.5 -402.5zM1128 440q0 -180 7 -364h88q385 0 385 342q0 174 -94.5 255t-299.5 81h-86v-314z" />
<glyph unicode="&#x40a;" horiz-adv-x="1984" d="M66 0v66l170 6q10 129 10 368v537q0 240 -10 369l-170 6v65h544v-65l-170 -6q-10 -129 -10 -369v-176h631v176q0 240 -10 369l-170 6v65h544v-65l-170 -6q-10 -129 -10 -369v-148h113q305 0 433 -94t128 -321q0 -225 -143 -328q-121 -86 -387 -86h-508v70l170 6 q10 106 10 364v285h-631v-285q0 -240 10 -368l170 -6v-66h-544zM1245 440q0 -180 6 -364h88q385 0 385 342q0 174 -94 255t-299 81h-86v-314z" />
<glyph unicode="&#x40b;" horiz-adv-x="1734" d="M45 1049v368h1172v-368h-140l-26 292h-338q-10 -219 -11 -405v-158q203 51 363 51q322 0 416 -176q35 -66 41 -215q0 -35 4 -178q2 -141 6 -188l170 -6v-66h-545v66l170 6q10 129 10 315q0 193 -72.5 277t-242.5 84q-154 0 -320 -48v-219q0 -270 11 -409l170 -6v-66h-561 v66l186 6q10 188 10 409v455q0 186 -10 405h-297l-27 -292h-139z" />
<glyph unicode="&#x40c;" horiz-adv-x="1339" d="M66 0v66l149 6q10 129 10 368v537q0 240 -10 369l-149 6v65h503v-65l-149 -6q-10 -129 -10 -369v-211h143q96 0 156.5 42t128.5 155l227 383l-158 6v65h391v-65l-96 -6q-27 -37 -155 -240l-125 -203q-49 -74 -86 -105.5t-101 -52.5q160 -33 241 -124t154 -326l78 -223 l107 -6v-66h-279l-88 268q-74 229 -141 314q-94 113 -330 112h-67v-254q0 -240 10 -368l149 -6v-66h-503zM559 1552q74 47 148.5 121t107.5 137h150q31 0 30 -16q0 -37 -100 -119q-102 -86 -309 -170z" />
<glyph unicode="&#x40e;" horiz-adv-x="1282" d="M20 1352v65h488v-65l-141 -6q29 -76 137 -306l231 -481l256 545q84 186 103 242l-150 6v65h375v-65l-115 -6q-35 -55 -127 -250l-407 -869q-66 -143 -123.5 -188t-171.5 -45q-23 0 -125 6l12 164q59 -8 113 -8q96 0 140 31.5t106 146.5l22 41l-387 747q-82 150 -129 224z M422 1808h70q8 -98 63 -143t163.5 -45t165 45t64.5 143h70q-12 -297 -299 -297t-297 297z" />
<glyph unicode="&#x40f;" horiz-adv-x="1499" d="M66 0v66l170 6q10 129 10 368v537q0 240 -10 369l-170 6v65h544v-65l-170 -6q-10 -129 -10 -369v-533q0 -240 10 -368h619q10 129 10 368v533q0 240 -10 369l-170 6v65h545v-65l-170 -6q-10 -129 -11 -369v-537q0 -240 11 -368l170 -6v-66h-598l-25 -340h-123l-24 340 h-598z" />
<glyph unicode="&#x410;" horiz-adv-x="1345" d="M-6 0v66l115 6q37 70 114 270l275 719q100 256 131 356h84q20 -68 86 -235q16 -47 30 -78l328 -846q61 -156 76 -186l119 -6v-66h-500v66l160 6q-14 57 -56 172l-96 252h-489l-62 -158q-61 -162 -88 -266l150 -6v-66h-377zM397 571h437l-216 578z" />
<glyph unicode="&#x411;" horiz-adv-x="1236" d="M66 0v70l170 6q10 106 10 364v537q0 240 -10 369l-170 6v65h956v-368h-139l-27 292h-416q-10 -127 -10 -364v-148h113q305 0 433 -94t128 -321q0 -225 -143 -328q-121 -86 -388 -86h-507zM430 440q0 -180 6 -364h88q385 0 385 342q0 174 -94 255t-299 81h-86v-314z" />
<glyph unicode="&#x412;" horiz-adv-x="1236" d="M66 0v70l170 6q10 106 10 364v510q0 266 -10 396l-170 6v65h458q289 0 402 -67q143 -90 143 -291q0 -139 -78 -218t-243 -106q184 -27 258 -92q98 -86 98 -262q0 -207 -143 -301q-125 -80 -388 -80h-507zM426 440q0 -180 6 -364h92q385 0 385 311q0 158 -94 231.5 t-299 73.5h-90v-252zM426 768h78q377 0 377 291q0 147 -93 221q-82 66 -264 66h-94q-4 -250 -4 -369v-209z" />
<glyph unicode="&#x413;" horiz-adv-x="1128" d="M66 0v66l170 6q10 129 10 368v537q0 240 -10 369l-170 6v65h1017v-368h-139l-26 292h-478q-10 -199 -10 -364v-537q0 -266 10 -368l170 -6v-66h-544z" />
<glyph unicode="&#x414;" horiz-adv-x="1376" d="M-12 66l71 8q84 29 133.5 143.5t96.5 394.5l67 432q20 127 39 297l-162 11v65h1078v-65l-170 -6q-10 -129 -11 -369v-537q0 -240 11 -368l170 -6v-406h-131l-31 340h-997l-31 -340h-133v406zM215 76h721q10 129 10 368v533q0 238 -10 364h-424q-14 -61 -61 -333l-62 -394 q-41 -266 -76 -373.5t-98 -164.5z" />
<glyph unicode="&#x415;" horiz-adv-x="1183" d="M66 0v66l170 6q10 129 10 368v537q0 240 -10 369l-170 6v65h985v-368h-140l-26 292h-445q-10 -123 -10 -364v-219h488v-76h-488v-242q0 -242 10 -364h478l28 293h144v-369h-1024z" />
<glyph unicode="&#x416;" horiz-adv-x="1955" d="M25 0v66l108 6l78 223q74 231 149.5 320.5t233.5 127.5q-63 23 -105.5 61t-80.5 111l-109 191q-106 190 -139 240l-117 6v65h391v-65l-137 -6l190 -361q66 -123 131.5 -171t167.5 -48h99v211q0 240 -11 369l-149 6v65h504v-65l-150 -6q-10 -129 -10 -369v-211h98 q102 0 169 48t132 171l191 361l-137 6v65h391v-65l-117 -6q-33 -49 -139 -240l-109 -191q-70 -131 -186 -172q156 -37 232.5 -127t150.5 -321l78 -223l108 -6v-66h-280l-88 268q-74 229 -142 314q-94 113 -329 112h-23v-254q0 -240 10 -368l150 -6v-66h-504v66l149 6 q10 129 11 368v254h-23q-238 0 -327 -112q-72 -90 -142 -314l-88 -268h-280z" />
<glyph unicode="&#x417;" horiz-adv-x="1126" d="M106 88l66 109q131 -147 340 -148q143 0 223 87t80 241q0 328 -428 328h-94v73h74q205 0 318.5 84t113.5 236q0 127 -79 200.5t-214 73.5q-109 0 -219 -55l-13 -268h-143l-8 309q246 80 428 80q203 0 318.5 -91.5t115.5 -252.5q0 -145 -103.5 -234.5t-301.5 -114.5 q117 -10 183 -30.5t118 -61.5q123 -92 123 -270q0 -190 -131.5 -296.5t-366.5 -106.5q-248 -1 -400 108z" />
<glyph unicode="&#x418;" horiz-adv-x="1523" d="M66 0v66l170 6q10 129 10 368v537q0 240 -10 369l-170 6v65h540v-65l-170 -6q-10 -129 -10 -369v-662l668 906l-2 69l-5 56l-169 6v65h540v-65l-170 -6q-10 -129 -10 -369v-537q0 -240 10 -368l170 -6v-66h-540v66l169 6q10 129 11 368v647l-668 -903q2 -74 6 -112 l170 -6v-66h-540z" />
<glyph unicode="&#x419;" horiz-adv-x="1523" d="M66 0v66l170 6q10 129 10 368v537q0 240 -10 369l-170 6v65h540v-65l-170 -6q-10 -129 -10 -369v-662l668 906l-2 69l-5 56l-169 6v65h540v-65l-170 -6q-10 -129 -10 -369v-537q0 -240 10 -368l170 -6v-66h-540v66l169 6q10 129 11 368v647l-668 -903q2 -74 6 -112 l170 -6v-66h-540zM465 1808h70q8 -98 63 -143t163.5 -45t165 45t64.5 143h70q-12 -297 -299 -297t-297 297z" />
<glyph unicode="&#x41a;" horiz-adv-x="1339" d="M66 0v66l149 6q10 129 10 368v537q0 240 -10 369l-149 6v65h503v-65l-149 -6q-10 -129 -10 -369v-211h143q96 0 156.5 42t128.5 155l227 383l-158 6v65h391v-65l-96 -6q-27 -37 -155 -240l-125 -203q-49 -74 -86 -105.5t-101 -52.5q160 -33 241 -124t154 -326l78 -223 l107 -6v-66h-279l-88 268q-74 229 -141 314q-94 113 -330 112h-67v-254q0 -240 10 -368l149 -6v-66h-503z" />
<glyph unicode="&#x41b;" horiz-adv-x="1374" d="M20 0v39q166 76 250 328q74 227 74 757v43q0 88 -8 174l-148 11v65h1121v-65l-170 -6q-10 -129 -11 -369v-537q0 -240 11 -368l170 -6v-66h-545v66l170 6q10 129 10 368v537q0 238 -10 364h-477v-235q0 -483 -47.5 -711.5t-180.5 -402.5z" />
<glyph unicode="&#x41c;" horiz-adv-x="1804" d="M66 0v66l161 6q10 137 11 460v814l-172 6v65h385q35 -104 137 -342l315 -735l322 741q96 219 137 336h377v-65l-180 -6v-906q0 -219 10 -368l170 -6v-66h-545v66l170 6q10 123 10 368v777l-493 -1137h-58l-497 1137v-676q0 -336 10 -469l162 -6v-66h-432z" />
<glyph unicode="&#x41d;" horiz-adv-x="1552" d="M66 0v66l170 6q10 129 10 368v537q0 240 -10 369l-170 6v65h544v-65l-170 -6q-10 -129 -10 -369v-217h692v217q0 240 -10 369l-170 6v65h545v-65l-170 -6q-10 -129 -10 -369v-537q0 -240 10 -368l170 -6v-66h-545v66l170 6q10 129 10 368v244h-692v-244q0 -240 10 -368 l170 -6v-66h-544z" />
<glyph unicode="&#x41e;" horiz-adv-x="1546" d="M133 717q0 168 53.5 313.5t149.5 241.5q166 166 436 166q315 0 488 -224q154 -197 153 -505q0 -356 -203 -564q-166 -166 -438 -165q-313 0 -485 223q-154 197 -154 514zM332 715q0 -322 113.5 -496t326.5 -174q211 0 326.5 173t115.5 490.5t-115.5 490.5t-326.5 173 q-209 0 -324.5 -172t-115.5 -485z" />
<glyph unicode="&#x41f;" horiz-adv-x="1499" d="M66 0v66l170 6q10 129 10 368v537q0 240 -10 369l-170 6v65h1368v-65l-170 -6q-10 -129 -11 -369v-537q0 -240 11 -368l170 -6v-66h-545v66l170 6q10 129 10 368v533q0 240 -10 368h-619q-10 -129 -10 -368v-533q0 -240 10 -368l170 -6v-66h-544z" />
<glyph unicode="&#x420;" horiz-adv-x="1193" d="M66 0v66l170 6q10 129 10 366v539q0 240 -10 369l-170 6v65h518q147 0 222 -15.5t134 -55.5q147 -100 147 -324q0 -219 -157 -322q-63 -41 -147.5 -57t-231.5 -16h-121v-189q0 -176 10 -366l203 -6v-66h-577zM430 702h78q188 0 270 66q109 84 109 258q0 319 -338 320 h-119v-644z" />
<glyph unicode="&#x421;" horiz-adv-x="1345" d="M133 700q0 346 170 542t471 196q213 0 447 -99v-290h-140l-22 229q-141 84 -275 84q-213 0 -331.5 -176t-118.5 -490q0 -324 137 -491q121 -145 328 -146q133 0 278 70l19 240h143v-303q-260 -86 -446 -86q-317 0 -498 208q-162 186 -162 512z" />
<glyph unicode="&#x422;" horiz-adv-x="1220" d="M45 1049v368h1131v-368h-140l-26 292h-297q-10 -219 -11 -405v-455q0 -270 11 -409l186 -6v-66h-577v66l186 6q10 188 10 409v455q0 186 -10 405h-297l-27 -292h-139z" />
<glyph unicode="&#x423;" horiz-adv-x="1282" d="M20 1352v65h488v-65l-141 -6q29 -76 137 -306l231 -481l256 545q84 186 103 242l-150 6v65h375v-65l-115 -6q-35 -55 -127 -250l-407 -869q-66 -143 -123.5 -188t-171.5 -45q-23 0 -125 6l12 164q59 -8 113 -8q96 0 140 31.5t106 146.5l22 41l-387 747q-82 150 -129 224z " />
<glyph unicode="&#x424;" horiz-adv-x="1779" d="M133 711q0 256 182.5 419.5t485.5 180.5q0 84 -6 182l-170 6v66h532v-66l-170 -6q-6 -72 -6 -182q215 -16 356 -94q150 -80 230 -212.5t80 -296t-80 -295.5t-230 -212q-145 -80 -356 -95q0 -109 6 -182l170 -6v-65h-532v65l170 6q6 78 6 182q-215 16 -357 95 q-152 82 -231.5 213t-79.5 297zM332 711q0 -236 121.5 -373t351.5 -164v1069q-231 -27 -352 -163t-121 -369zM977 174q229 27 350 163t121 371.5t-121 372t-350 162.5v-1069z" />
<glyph unicode="&#x425;" horiz-adv-x="1355" d="M12 0v66l123 6q37 43 62 75l108 146l281 393l-267 412q-111 168 -169 248l-121 6v65h497v-65l-135 -6q47 -90 187 -308l131 -202l217 299q82 115 90 127q18 25 55 84l-139 6v65h375v-65l-117 -6q-63 -76 -209 -273l-221 -303l282 -438l179 -260l122 -6v-66h-495v66l123 6 q-20 49 -111 192l-221 348l-244 -348q-72 -104 -125 -192l144 -6v-66h-402z" />
<glyph unicode="&#x426;" horiz-adv-x="1499" d="M66 0v66l170 6q10 129 10 368v537q0 240 -10 369l-170 6v65h544v-65l-170 -6q-10 -129 -10 -369v-533q0 -240 10 -368h619q10 129 10 368v533q0 240 -10 369l-170 6v65h545v-65l-170 -6q-10 -129 -11 -369v-537q0 -240 11 -368l170 -6v-406h-131l-31 340h-1206z" />
<glyph unicode="&#x427;" horiz-adv-x="1445" d="M20 1352v65h545v-65l-170 -6q-10 -158 -10 -285v-72q0 -213 37 -307q72 -180 334 -180q143 0 260 55v420q0 240 -10 369l-170 6v65h544v-65l-170 -6q-10 -129 -10 -369v-537q0 -240 10 -368l170 -6v-66h-544v66l170 6q10 129 10 368v33q-139 -59 -303 -59 q-322 0 -445 194q-39 61 -53 150.5t-14 255.5v47q0 178 -11 285z" />
<glyph unicode="&#x428;" horiz-adv-x="2166" d="M66 0v66l170 6q10 129 10 368v537q0 240 -10 369l-170 6v65h544v-65l-170 -6q-10 -129 -10 -369v-533q0 -240 10 -368h541q10 129 10 368v533q0 240 -10 369l-170 6v65h545v-65l-170 -6q-10 -129 -10 -369v-537q0 -238 10 -364h540q10 129 11 368v533q0 240 -11 369 l-170 6v65h545v-65l-170 -6q-10 -129 -10 -369v-537q0 -240 10 -368l170 -6v-66h-2035z" />
<glyph unicode="&#x429;" horiz-adv-x="2166" d="M66 0v66l170 6q10 129 10 368v537q0 240 -10 369l-170 6v65h544v-65l-170 -6q-10 -129 -10 -369v-533q0 -240 10 -368h541q10 129 10 368v533q0 240 -10 369l-170 6v65h545v-65l-170 -6q-10 -129 -10 -369v-537q0 -238 10 -364h540q10 129 11 368v533q0 240 -11 369 l-170 6v65h545v-65l-170 -6q-10 -129 -10 -369v-537q0 -240 10 -368l170 -6v-406h-131l-31 340h-1873z" />
<glyph unicode="&#x42a;" horiz-adv-x="1417" d="M4 1049v368h854v-65l-170 -6q-10 -129 -10 -367v-150h113q305 0 433 -94t128 -321q0 -225 -144 -328q-121 -86 -387 -86h-508v70l170 6q10 106 11 364v539q0 236 -11 362h-313l-27 -292h-139zM678 440q0 -180 6 -364h88q385 0 385 342q0 174 -94 255t-299 81h-86v-314z " />
<glyph unicode="&#x42b;" horiz-adv-x="1808" d="M66 0v70l170 6q10 106 10 364v537q0 240 -10 369l-170 6v65h544v-65l-170 -6q-10 -129 -10 -369v-148h113q305 0 433 -94t128 -321q0 -225 -143 -328q-121 -86 -388 -86h-507zM430 440q0 -180 6 -364h88q385 0 385 342q0 174 -94 255t-299 81h-86v-314zM1198 0v66l170 6 q10 129 10 368v537q0 240 -10 369l-170 6v65h545v-65l-170 -6q-10 -129 -10 -369v-537q0 -240 10 -368l170 -6v-66h-545z" />
<glyph unicode="&#x42c;" horiz-adv-x="1169" d="M66 0v70l170 6q10 106 10 364v537q0 240 -10 369l-170 6v65h544v-65l-170 -6q-10 -129 -10 -369v-148h113q305 0 433 -94t128 -321q0 -225 -143 -328q-121 -86 -388 -86h-507zM430 440q0 -180 6 -364h88q385 0 385 342q0 174 -94 255t-299 81h-86v-314z" />
<glyph unicode="&#x42d;" horiz-adv-x="1224" d="M106 88l66 109q129 -135 330 -136q227 0 323 234q59 141 66 387h-502v76h500q-10 285 -109.5 444.5t-267.5 159.5q-113 0 -219 -84l-23 -229h-139v290q205 98 391 99q268 0 419 -199t151 -553q0 -358 -183 -547q-147 -160 -407 -159q-244 -1 -396 108z" />
<glyph unicode="&#x42e;" horiz-adv-x="2191" d="M66 0v66l170 6q10 129 10 368v537q0 240 -10 369l-170 6v65h544v-65l-170 -6q-10 -129 -10 -369v-217h399q20 322 181 500t434 178q303 0 467 -224q147 -199 147 -505q0 -356 -194 -562q-162 -168 -420 -167q-350 0 -508 284q-102 180 -109 420h-397v-244q0 -240 10 -368 l170 -6v-66h-544zM1026 715q0 -322 107.5 -496t308 -174t309.5 173t109 490.5t-109 490.5t-309 173q-199 0 -307.5 -172t-108.5 -485z" />
<glyph unicode="&#x42f;" horiz-adv-x="1310" d="M25 0v66l129 6l51 219q51 233 113.5 313t211.5 101q-348 35 -348 339q0 197 131 293q106 80 342 80h590v-65l-170 -6q-10 -129 -10 -369v-537q0 -225 10 -368l170 -6v-66h-545v66l170 6q10 188 11 368v222h-121q-176 0 -248 -76t-127 -322l-59 -264h-301zM377 1047 q0 -313 393 -314h111v613h-148q-150 0 -225 -41q-131 -70 -131 -258z" />
<glyph unicode="&#x430;" horiz-adv-x="1126" d="M113 258q0 236 276 305q147 37 359 37v82q0 113 -5.5 150.5t-25.5 72.5q-51 88 -170 88q-121 0 -207 -92l-16 -168h-138l-6 234q184 92 365 92q219 0 315 -109q37 -43 49.5 -109.5t12.5 -224.5v-378q0 -94 10 -119q16 -41 63 -41q45 0 109 45l35 -51q-119 -92 -226 -92 q-70 0 -104.5 32.5t-50.5 112.5q-160 -145 -338 -145q-141 0 -224 75.5t-83 202.5zM287 285q0 -92 53 -141.5t154 -49.5q131 0 254 99v339q-250 -4 -355.5 -61t-105.5 -186z" />
<glyph unicode="&#x431;" horiz-adv-x="1175" d="M139 580q0 387 43 551.5t164 250.5q88 61 228.5 93t377.5 47l4 -133q-229 2 -334.5 -9.5t-160.5 -42.5q-141 -66 -148 -458q90 102 165 141t186 39q184 0 288.5 -146.5t104.5 -402.5q0 -252 -123 -391t-342 -139q-252 0 -371 194q-47 76 -64.5 164t-17.5 242zM313 543 q0 -498 279 -498q135 0 207.5 125t72.5 358q0 197 -70.5 313.5t-191.5 116.5q-123 0 -223 -100q-18 -16 -74 -86v-229z" />
<glyph unicode="&#x432;" horiz-adv-x="1144" d="M88 0v66l141 6q10 106 11 368v158q0 262 -11 369l-131 6v65h480q225 0 321 -49q117 -59 117 -215q0 -190 -225 -235q133 -20 192 -81t59 -175q0 -150 -100 -216.5t-326 -66.5h-528zM414 434q0 -240 10 -368h127q162 0 235.5 52t73.5 167q0 113 -69.5 165t-219.5 52h-157 v-68zM414 567h147q279 0 279 205t-262 205h-154q-10 -150 -10 -379v-31z" />
<glyph unicode="&#x433;" horiz-adv-x="970" d="M80 0v66l149 6q10 113 11 368v158q0 256 -11 369l-149 6v65h862l-8 -288h-137l-17 223h-356q-10 -143 -10 -369v-164q0 -225 10 -368l178 -6v-66h-522z" />
<glyph unicode="&#x434;" horiz-adv-x="1171" d="M12 66l33 2q76 8 118 88t83 295l47 276q29 190 35 246l-125 8v57h889v-65l-150 -6q-10 -143 -10 -369v-158q0 -225 10 -368l150 -6v-406h-131l-25 340h-768l-25 -340h-131v406zM213 66h535q10 113 10 368v170q0 256 -10 369h-314q-2 -6 -47 -240l-47 -284 q-31 -186 -56.5 -265t-70.5 -118z" />
<glyph unicode="&#x435;" horiz-adv-x="1085" d="M119 528q0 252 115.5 391.5t322.5 139.5q287 0 375 -242q37 -100 43 -287h-668q4 -164 37 -251q78 -215 291 -216q141 0 264 105l49 -57q-145 -131 -352 -131q-229 0 -353 142t-124 406zM307 596h479q-2 207 -57 302t-170 95q-117 0 -182.5 -102t-69.5 -295z" />
<glyph unicode="&#x436;" horiz-adv-x="1546" d="M20 0v66l103 4l57 157q53 164 109.5 228.5t169.5 91.5q-47 14 -79 42.5t-71 92.5l-69 117q-78 127 -109 170l-96 4v65h315v-65l-98 -4l131 -238q55 -102 104.5 -134t153.5 -32h49v33q0 256 -10 369l-129 6v65h444v-65l-129 -6q-10 -113 -10 -369v-33h49q104 0 153.5 32 t104.5 134l131 238l-98 4v65h315v-65l-96 -4q-31 -43 -108 -170l-70 -117q-39 -63 -70.5 -92t-79.5 -43q113 -27 169.5 -91.5t109.5 -228.5l57 -157l103 -4v-66h-254l-70 197q-57 168 -108 225q-70 82 -213 82h-25v-64q0 -256 10 -368l129 -6v-66h-444v66l129 6 q10 113 10 368v64h-24q-143 0 -213 -82q-51 -57 -109 -225l-70 -197h-254z" />
<glyph unicode="&#x437;" horiz-adv-x="962" d="M90 78l57 88q113 -119 285 -119q242 0 242 238q0 133 -80 182q-47 31 -170 31h-115v65h90q135 0 191 37q76 51 76 170q0 223 -238 223q-104 0 -166 -37l-18 -206h-138l-6 249q170 59 344 60q195 0 298.5 -78t103.5 -225q0 -162 -141 -232q158 -59 157 -241 q0 -147 -103.5 -225t-297.5 -78q-248 0 -371 98z" />
<glyph unicode="&#x438;" horiz-adv-x="1306" d="M80 0v66l149 6q10 113 11 368v158q0 256 -11 369l-149 6v65h477v-65l-143 -6q-10 -143 -11 -369v-375l490 719v25l-143 6v65h477v-65l-150 -6q-10 -143 -10 -369v-158q0 -225 10 -368l150 -6v-66h-477v66l143 6q10 174 10 368v387l-491 -718l2 -37l143 -6v-66h-477z" />
<glyph unicode="&#x439;" horiz-adv-x="1306" d="M80 0v66l149 6q10 113 11 368v158q0 256 -11 369l-149 6v65h477v-65l-143 -6q-10 -143 -11 -369v-375l490 719v25l-143 6v65h477v-65l-150 -6q-10 -143 -10 -369v-158q0 -225 10 -368l150 -6v-66h-477v66l143 6q10 174 10 368v387l-491 -718l2 -37l143 -6v-66h-477z M356 1497h70q8 -98 63.5 -143t164 -45t164.5 45t65 143h69q-12 -297 -299 -297t-297 297z" />
<glyph unicode="&#x43a;" horiz-adv-x="1153" d="M100 0v66l129 6q10 113 11 368v158q0 256 -11 369l-129 6v65h453v-65l-129 -6q-10 -113 -10 -369v-33h98q78 0 121 28t96 109l172 267l-119 4v65h316v-65l-76 -4l-123 -170l-102 -152q-53 -76 -119 -98q119 -29 176 -92.5t111 -229.5l57 -157l102 -4v-66h-254l-69 197 q-57 168 -109 225q-72 82 -213 82h-65v-64q0 -256 10 -368l129 -6v-66h-453z" />
<glyph unicode="&#x43b;" horiz-adv-x="1153" d="M4 0v27q125 90 197 231q94 176 94 522q0 109 -6 187l-125 6v65h909v-65l-149 -6q-10 -143 -11 -369v-158q0 -225 11 -368l149 -6v-66h-493v66l149 6q10 113 10 368v164q0 256 -10 369h-344q6 -172 6 -232q0 -279 -50 -452.5t-163 -292.5z" />
<glyph unicode="&#x43c;" horiz-adv-x="1587" d="M80 0v66l149 6q10 113 11 368v158q0 256 -11 369l-149 6v65h350q25 -72 113 -250l252 -507l256 512q78 150 114 245h342v-65l-149 -6q-10 -143 -10 -369v-158q0 -229 10 -368l149 -6v-66h-485v66l149 6q10 113 11 368v394l-387 -777h-74l-383 777v-394q0 -229 10 -368 l150 -6v-66h-418z" />
<glyph unicode="&#x43d;" horiz-adv-x="1335" d="M80 0v66l149 6q10 113 11 368v158q0 256 -11 369l-149 6v65h493v-65l-149 -6q-10 -143 -10 -369v-33h508v33q0 256 -11 369l-149 6v65h493v-65l-149 -6q-10 -143 -10 -369v-158q0 -225 10 -368l149 -6v-66h-493v66l149 6q10 113 11 368v60h-508v-60q0 -225 10 -368 l149 -6v-66h-493z" />
<glyph unicode="&#x43e;" horiz-adv-x="1193" d="M119 526q0 254 125 393.5t352 139.5q229 0 354 -140.5t125 -400.5q0 -258 -125 -398t-354 -140q-231 0 -354 141t-123 405zM307 524q0 -236 74 -357.5t215 -121.5q143 0 217 121t74 352.5t-75 353t-216 121.5q-139 0 -214 -121t-75 -348z" />
<glyph unicode="&#x43f;" horiz-adv-x="1292" d="M80 0v66l149 6q10 102 11 368v158q0 266 -11 369l-149 6v65h1132v-65l-149 -6q-10 -147 -10 -369v-158q0 -219 10 -368l149 -6v-66h-493v66l149 6q10 102 11 368v164q0 266 -11 369h-444q-10 -150 -10 -369v-164q0 -219 10 -368l149 -6v-66h-493z" />
<glyph unicode="&#x440;" horiz-adv-x="1253" d="M74 -375l149 6q10 119 10 392v575q0 174 -10 369l-149 6v65l323 11l6 -154q90 94 159 129t167 35q186 0 296 -145.5t110 -393.5q0 -246 -111 -393t-297 -147q-98 0 -170 35.5t-149 125.5v-147q0 -229 10 -363l170 -6v-65h-514v65zM408 244q123 -164 264 -164 q125 0 201.5 121t76.5 321.5t-74.5 318t-203.5 117.5q-143 0 -264 -165v-549z" />
<glyph unicode="&#x441;" horiz-adv-x="970" d="M119 528q0 254 126 392.5t355 138.5q156 0 297 -55l-6 -254h-137l-19 206q-63 35 -129 35q-139 0 -219 -121.5t-80 -334.5q0 -221 88 -346.5t244 -125.5q115 0 219 91l49 -56q-119 -119 -307 -118q-229 0 -355 143t-126 405z" />
<glyph unicode="&#x442;" horiz-adv-x="1050" d="M20 750v288h1010v-288h-137l-27 213h-243q-10 -219 -11 -406v-76q0 -270 11 -409l186 -6v-66h-567v66l186 6q10 139 10 409v76q0 186 -10 406h-244l-26 -213h-138z" />
<glyph unicode="&#x443;" horiz-adv-x="1103" d="M16 973v65h420v-65l-110 -6q49 -147 100 -279l180 -450l185 477q59 164 88 252l-164 6v65h370v-65l-102 -6q-51 -106 -123 -287l-301 -772q-78 -197 -163 -278t-218 -81q-43 0 -102 11l26 141q55 -18 109 -18q100 0 162.5 60t122.5 214l18 47l-260 651q-84 207 -135 312z " />
<glyph unicode="&#x444;" horiz-adv-x="1691" d="M119 520q0 246 106.5 392.5t284.5 146.5q80 0 135 -27.5t125 -99.5v125q0 219 -10 368l-150 7v65l322 10q-10 -362 -10 -440v-135q70 72 125 99.5t135 27.5q178 0 284.5 -146.5t106.5 -392.5t-107.5 -393t-285.5 -147q-80 0 -137.5 28.5t-120.5 100.5v-86q0 -272 10 -392 l149 -6v-65h-491v65l170 6q10 133 10 363v115q-63 -72 -119.5 -100.5t-138.5 -28.5q-178 0 -285.5 147t-107.5 393zM289 520q0 -199 74.5 -319.5t195.5 -120.5q115 0 211 129v618q-96 131 -211 131q-125 0 -197.5 -117.5t-72.5 -320.5zM922 209q96 -129 211 -129 q121 0 195.5 121t74.5 319q0 201 -73 319.5t-197 118.5q-115 0 -211 -131v-618z" />
<glyph unicode="&#x445;" horiz-adv-x="1087" d="M8 0v66l125 6q84 98 162 207l164 225l-140 219q-123 186 -167 244l-113 6v65h446v-65l-112 -6q27 -49 114 -191l91 -143l131 178q88 123 106 156l-135 6v65h352v-65l-108 -6q-43 -47 -144 -179l-159 -221l200 -315q98 -147 129 -180l105 -6v-66h-453v66l121 6 q-29 66 -90 157l-131 205l-137 -188l-78 -111q-35 -53 -41 -63l116 -6v-66h-354z" />
<glyph unicode="&#x446;" horiz-adv-x="1302" d="M80 0v66l149 6q10 113 11 368v158q0 256 -11 369l-149 6v65h481v-65l-137 -6q-10 -143 -10 -369v-164q0 -225 10 -368h455q10 113 10 368v164q0 256 -10 369l-138 6v65h482v-65l-150 -6q-10 -143 -10 -369v-158q0 -225 10 -368l150 -6v-406h-131l-25 340h-987z" />
<glyph unicode="&#x447;" horiz-adv-x="1218" d="M33 973v65h465v-65l-146 -6q-6 -80 -6 -260q0 -184 60.5 -258t211.5 -74q98 0 187 37v186q0 256 -10 369l-142 6v65h486v-65l-150 -6q-10 -143 -10 -369v-158q0 -225 10 -368l150 -6v-66h-494v66l150 6q4 45 4 82q2 31 4 180q-102 -33 -215 -33q-293 0 -377 168 q-27 49 -32 98t-9 293q-2 80 -4 107z" />
<glyph unicode="&#x448;" horiz-adv-x="1886" d="M80 0v66l149 6q10 113 11 368v158q0 256 -11 369l-149 6v65h481v-65l-137 -6q-10 -143 -10 -369v-164q0 -225 10 -368h422q10 113 10 368v164q0 256 -10 369l-137 6v65h481v-65l-150 -6q-10 -143 -10 -369v-164q0 -225 10 -368h422q10 113 11 368v164q0 256 -11 369 l-137 6v65h481v-65l-149 -6q-10 -143 -10 -369v-158q0 -225 10 -368l149 -6v-66h-1726z" />
<glyph unicode="&#x449;" horiz-adv-x="1886" d="M80 0v66l149 6q10 113 11 368v158q0 256 -11 369l-149 6v65h481v-65l-137 -6q-10 -143 -10 -369v-164q0 -225 10 -368h422q10 113 10 368v164q0 256 -10 369l-137 6v65h481v-65l-150 -6q-10 -143 -10 -369v-164q0 -225 10 -368h422q10 113 11 368v164q0 256 -11 369 l-137 6v65h481v-65l-149 -6q-10 -143 -10 -369v-158q0 -225 10 -368l149 -6v-406h-131l-24 340h-1571z" />
<glyph unicode="&#x44a;" horiz-adv-x="1179" d="M25 1038h716v-65l-149 -6q-6 -80 -10 -314h100q248 0 350.5 -73.5t102.5 -251.5q0 -172 -101.5 -250t-326.5 -78h-459v66l149 6q10 113 11 368v164q0 256 -11 369h-217l-16 -223h-133zM582 434q0 -225 10 -368h76q285 0 284 264q0 133 -70.5 195.5t-219.5 62.5h-80v-154z " />
<glyph unicode="&#x44b;" horiz-adv-x="1615" d="M80 0v66l149 6q10 113 11 368v158q0 256 -11 369l-149 6v65h493v-65l-149 -6q-4 -78 -10 -314h100q248 0 350.5 -73.5t102.5 -251.5q0 -172 -101.5 -250t-326.5 -78h-459zM414 434q0 -225 10 -368h76q285 0 284 264q0 133 -70.5 195.5t-219.5 62.5h-80v-154zM1042 0v66 l150 6q10 113 10 368v158q0 256 -10 369l-150 6v65h494v-65l-150 -6q-10 -143 -10 -369v-158q0 -225 10 -368l150 -6v-66h-494z" />
<glyph unicode="&#x44c;" horiz-adv-x="1011" d="M80 0v66l149 6q10 113 11 368v158q0 256 -11 369l-149 6v65h493v-65l-149 -6q-4 -78 -10 -314h100q248 0 350.5 -73.5t102.5 -251.5q0 -172 -101.5 -250t-326.5 -78h-459zM414 434q0 -225 10 -368h76q285 0 284 264q0 133 -70.5 195.5t-219.5 62.5h-80v-154z" />
<glyph unicode="&#x44d;" horiz-adv-x="1028" d="M90 78l60 88q111 -111 274 -111q113 0 178.5 60.5t97.5 193.5q18 82 21 191h-420v65h420q-14 426 -293 426q-82 0 -164 -35l-18 -206h-137l-7 254q156 55 338 55q469 0 469 -539q0 -541 -460 -540q-232 0 -359 98z" />
<glyph unicode="&#x44e;" horiz-adv-x="1761" d="M80 0v66l149 6q10 113 11 368v158q0 256 -11 369l-149 6v65h493v-65l-149 -6q-10 -143 -10 -369v-33h321q8 236 127 365t326 129q219 0 336.5 -140.5t117.5 -400.5q0 -258 -118.5 -398t-335.5 -140q-213 0 -331 134t-122 386h-321v-60q0 -225 10 -368l149 -6v-66h-493z M924 524q0 -236 67.5 -357.5t196.5 -121.5q131 0 198.5 121t67.5 352.5t-67.5 353t-198.5 121.5q-127 0 -195.5 -121t-68.5 -348z" />
<glyph unicode="&#x44f;" horiz-adv-x="1220" d="M41 0v66l104 4l39 151q37 152 81 208t143 75q-244 37 -244 254q0 150 106 221q86 59 279 59h592v-65l-150 -6q-10 -139 -10 -369v-158q0 -225 10 -368l150 -6v-66h-494v66l150 6q10 113 10 368v25h-178q-125 0 -179.5 -54.5t-97.5 -222.5l-47 -188h-264zM346 758 q0 -227 291 -228h170v74q0 256 -10 369h-189q-109 0 -164 -29q-98 -53 -98 -186z" />
<glyph unicode="&#x451;" horiz-adv-x="1085" d="M119 528q0 252 115.5 391.5t322.5 139.5q287 0 375 -242q37 -100 43 -287h-668q4 -164 37 -251q78 -215 291 -216q141 0 264 105l49 -57q-145 -131 -352 -131q-229 0 -353 142t-124 406zM254 1388.5q0 47.5 31.5 78t79 30.5t78 -31.5t30.5 -79t-31.5 -78t-76.5 -30.5 q-47 0 -79 31.5t-32 79zM307 596h479q-2 207 -57 302t-170 95q-117 0 -182.5 -102t-69.5 -295zM647 1388.5q0 47.5 32 78t79 30.5t77.5 -31.5t30.5 -79t-31.5 -78t-76.5 -30.5q-47 0 -79 31.5t-32 79z" />
<glyph unicode="&#x452;" horiz-adv-x="1265" d="M80 0v66l149 6q10 109 11 368v756h-160v76h156q-2 111 -7 153l-149 7v65l344 10q-2 -100 -4 -141q-2 -59 -2 -94h301v-76h-305v-338q96 109 182 155t186 46q96 0 167 -46t102 -128q31 -84 30 -328v-213q0 -387 -37 -504q-86 -270 -450 -280l4 65q94 10 145.5 39t90.5 90 q74 125 73 553v275q0 190 -30 260q-45 102 -164 102q-152 0 -299 -188v-316q0 -260 10 -368l149 -6v-66h-493z" />
<glyph unicode="&#x453;" horiz-adv-x="970" d="M80 0v66l149 6q10 113 11 368v158q0 256 -11 369l-149 6v65h862l-8 -288h-137l-17 223h-356q-10 -143 -10 -369v-164q0 -225 10 -368l178 -6v-66h-522zM360 1260q74 47 149 120.5t107 137.5h150q31 0 31 -17q0 -37 -101 -119q-102 -86 -309 -170z" />
<glyph unicode="&#x454;" horiz-adv-x="1028" d="M119 522q0 537 469 537q182 0 338 -55l-6 -254h-138l-18 206q-82 35 -164 35q-279 0 -293 -426h420v-65h-420q4 -147 37 -244q35 -106 96.5 -153.5t163.5 -47.5q164 0 275 111l59 -88q-129 -98 -358 -98q-461 -1 -461 542z" />
<glyph unicode="&#x455;" horiz-adv-x="962" d="M123 754q0 143 96 224t264 81q170 0 328 -66l-6 -243h-139l-19 190q-78 51 -170 51q-94 0 -153.5 -50t-59.5 -130q0 -76 48 -114t196 -79q125 -37 171 -56t85 -52q88 -76 88 -217q0 -152 -98.5 -232.5t-280.5 -80.5q-174 0 -348 69l6 246h143l19 -201q82 -47 178 -47 q98 0 157.5 54.5t59.5 144.5q0 86 -49 129q-41 37 -201 84q-178 51 -246.5 115.5t-68.5 179.5z" />
<glyph unicode="&#x456;" horiz-adv-x="647" d="M80 0v66l149 6q10 113 11 368v158q0 252 -11 369l-149 6v65l344 11q-10 -160 -10 -433v-176q0 -225 10 -368l149 -6v-66h-493zM215 1395q0 47 32 78.5t81 31.5t80.5 -31.5t31.5 -81t-31.5 -81t-78.5 -31.5q-51 0 -83 32t-32 83z" />
<glyph unicode="&#x457;" horiz-adv-x="638" d="M4 1388.5q0 47.5 32 78t79 30.5t77.5 -31.5t30.5 -79t-31.5 -78t-76.5 -30.5q-47 0 -79 31.5t-32 79zM76 0v66l149 6q10 158 11 368v158q0 205 -11 369l-149 6v65l344 11q-10 -250 -10 -433v-176q0 -225 10 -368l149 -6v-66h-493zM397 1388.5q0 47.5 32 78t79 30.5 t77.5 -31.5t30.5 -79t-31.5 -78t-76.5 -30.5q-47 0 -79 31.5t-32 79z" />
<glyph unicode="&#x458;" horiz-adv-x="653" d="M-61 -440l4 65q180 0 250 99q37 51 48 137t11 307v430q0 174 -10 369l-166 6v65l360 11q-10 -203 -10 -490v-364q0 -217 -12.5 -309.5t-48.5 -157.5q-102 -172 -361 -172q-40 0 -65 4zM227 1395q0 47 32 78.5t81 31.5t81 -31.5t32 -81t-32 -81t-79 -31.5q-51 0 -83 32 t-32 83z" />
<glyph unicode="&#x459;" horiz-adv-x="1538" d="M4 0v27q127 94 197 231q94 176 94 522q0 109 -6 187l-125 6v65h936v-65l-150 -6q-4 -78 -10 -314h100q248 0 350.5 -73.5t102.5 -251.5q0 -172 -101.5 -250t-326.5 -78h-459v66l150 6q10 113 10 368v164q0 256 -10 369h-371q6 -197 6 -232q0 -279 -50 -452.5t-163 -292.5 zM940 434q0 -225 10 -368h76q285 0 285 264q0 133 -71 195.5t-220 62.5h-80v-154z" />
<glyph unicode="&#x45a;" horiz-adv-x="1710" d="M80 0v66l149 6q10 113 11 368v158q0 256 -11 369l-149 6v65h493v-65l-149 -6q-10 -127 -10 -328v-37h508v37q0 229 -11 328l-149 6v65h493v-65l-149 -6q-4 -88 -10 -355h100q254 0 361.5 -69.5t107.5 -235.5q0 -162 -104.5 -234.5t-339.5 -72.5h-459v66l149 6 q10 113 11 368v97h-508v-97q0 -229 10 -368l149 -6v-66h-493zM1096 434q0 -225 10 -368h76q301 0 301 241q0 123 -75 181.5t-232 58.5h-80v-113z" />
<glyph unicode="&#x45b;" horiz-adv-x="1306" d="M80 0v66l149 6q10 109 11 368v756h-160v76h156q-2 111 -7 153l-149 7v65l344 10q-2 -100 -4 -141q-2 -59 -2 -94h301v-76h-305v-338q96 109 182 155t186 46q96 0 167 -46t102 -128q31 -84 30 -328v-117q0 -231 11 -368l149 -6v-66h-493v66l149 6q10 117 10 368v142 q0 190 -30 260q-45 102 -164 102q-152 0 -299 -188v-316q0 -260 10 -368l149 -6v-66h-493z" />
<glyph unicode="&#x45c;" horiz-adv-x="1153" d="M100 0v66l129 6q10 113 11 368v158q0 256 -11 369l-129 6v65h453v-65l-129 -6q-10 -113 -10 -369v-33h98q78 0 121 28t96 109l172 267l-119 4v65h316v-65l-76 -4l-123 -170l-102 -152q-53 -76 -119 -98q119 -29 176 -92.5t111 -229.5l57 -157l102 -4v-66h-254l-69 197 q-57 168 -109 225q-72 82 -213 82h-65v-64q0 -256 10 -368l129 -6v-66h-453zM492 1260q74 47 148.5 120.5t107.5 137.5h149q31 0 31 -17q0 -37 -101 -119q-102 -86 -309 -170z" />
<glyph unicode="&#x45e;" horiz-adv-x="1103" d="M16 973v65h420v-65l-110 -6q49 -147 100 -279l180 -450l185 477q59 164 88 252l-164 6v65h370v-65l-102 -6q-51 -106 -123 -287l-301 -772q-78 -197 -163 -278t-218 -81q-43 0 -102 11l26 141q55 -18 109 -18q100 0 162.5 60t122.5 214l18 47l-260 651q-84 207 -135 312z M283 1497h69q8 -98 63.5 -143t164 -45t165 45t64.5 143h70q-12 -297 -299 -297t-297 297z" />
<glyph unicode="&#x45f;" horiz-adv-x="1302" d="M80 0v66l149 6q10 113 11 368v158q0 256 -11 369l-149 6v65h481v-65l-137 -6q-10 -143 -10 -369v-164q0 -225 10 -368h455q10 113 10 368v164q0 256 -10 369l-138 6v65h482v-65l-150 -6q-10 -143 -10 -369v-158q0 -225 10 -368l150 -6v-66h-490l-16 -340h-131l-17 340 h-489z" />
<glyph unicode="&#x490;" horiz-adv-x="1128" d="M66 0v66l170 6q10 129 10 368v537q0 240 -10 369l-170 6v65h852l47 322h139l-21 -398h-643q-10 -199 -10 -364v-537q0 -266 10 -368l170 -6v-66h-544z" />
<glyph unicode="&#x491;" horiz-adv-x="970" d="M80 0v66l149 6q10 113 11 368v158q0 256 -11 369l-149 6v65h700l37 252h137l-12 -317h-518q-10 -143 -10 -369v-164q0 -225 10 -368l178 -6v-66h-522z" />
<glyph unicode="&#x4c0;" horiz-adv-x="700" d="M78 0v66l170 6q10 129 10 368v537q0 240 -10 369l-170 6v65h545v-65l-170 -6q-10 -129 -11 -369v-537q0 -240 11 -368l170 -6v-66h-545z" />
<glyph unicode="&#x1e84;" horiz-adv-x="1851" d="M0 1352v65h487v-65l-157 -6q27 -135 98 -424l147 -566l244 758q27 88 66 199q23 68 28 104h99q6 -37 98 -301l258 -774l162 639q61 254 82 365l-158 6v65h397v-65l-120 -6q-70 -225 -111 -379l-150 -559q-80 -303 -100 -408h-98q-27 117 -125 426l-232 702l-260 -806 q-78 -252 -88 -322h-98l-33 154l-28 108l-41 164l-117 451q-12 53 -82 305l-47 164zM662 1651q0 47 31.5 77.5t78.5 30.5t78 -31.5t31 -78.5t-31 -78t-78 -31t-78.5 32t-31.5 79zM1055 1651q0 47 31.5 77.5t78.5 30.5t78 -31.5t31 -78.5t-31 -78t-78 -31t-78.5 32t-31.5 79z " />
<glyph unicode="&#x2007;" horiz-adv-x="589" />
<glyph unicode="&#x2011;" horiz-adv-x="704" d="M102 502v133h500v-133h-500z" />
<glyph unicode="&#x2012;" horiz-adv-x="1179" d="M113 512v123h954v-123h-954z" />
<glyph unicode="&#x2013;" horiz-adv-x="1179" d="M113 512v123h954v-123h-954z" />
<glyph unicode="&#x2014;" horiz-adv-x="2048" d="M-76 514v123h2200v-123h-2200z" />
<glyph unicode="&#x2015;" horiz-adv-x="2048" d="M-76 514v123h2200v-123h-2200z" />
<glyph unicode="&#x2017;" d="M-33 -154h1090v-98h-1090v98zM-33 -360h1090v-99h-1090v99z" />
<glyph unicode="&#x2018;" horiz-adv-x="557" d="M154 1137q0 152 233 401l45 -45q-119 -129 -143 -258q111 -20 110 -113q0 -51 -33.5 -86t-84.5 -35q-57 0 -92 38.5t-35 97.5z" />
<glyph unicode="&#x2019;" horiz-adv-x="557" d="M125 1026q119 129 143 258q-111 20 -110 113q0 51 33.5 86t84.5 35q57 0 92 -38t35 -98q0 -152 -233 -401z" />
<glyph unicode="&#x201a;" horiz-adv-x="557" d="M125 -283q119 129 143 258q-111 20 -110 113q0 51 33.5 86t84.5 35q57 0 92 -38t35 -97q0 -152 -233 -402z" />
<glyph unicode="&#x201c;" horiz-adv-x="901" d="M154 1137q0 152 233 401l45 -45q-119 -129 -143 -258q111 -20 110 -113q0 -51 -33.5 -86t-84.5 -35q-57 0 -92 38.5t-35 97.5zM498 1137q0 152 233 401l45 -45q-119 -129 -143 -258q111 -20 110 -113q0 -51 -33.5 -86t-84.5 -35q-57 0 -92 38.5t-35 97.5z" />
<glyph unicode="&#x201d;" horiz-adv-x="901" d="M125 1026q119 129 143 258q-111 20 -110 113q0 51 33.5 86t84.5 35q57 0 92 -38t35 -98q0 -152 -233 -401zM469 1026q119 129 143 258q-111 20 -110 113q0 51 33.5 86t85.5 35q57 0 92 -38t35 -98q0 -152 -234 -401z" />
<glyph unicode="&#x201e;" horiz-adv-x="901" d="M125 -283q119 129 143 258q-111 20 -110 113q0 51 33.5 86t84.5 35q57 0 92 -38t35 -97q0 -152 -233 -402zM469 -283q119 129 143 258q-111 20 -110 113q0 51 33.5 86t85.5 35q57 0 92 -38t35 -97q0 -152 -234 -402z" />
<glyph unicode="&#x2020;" horiz-adv-x="1179" d="M131 903v135l395 -24l-24 403h172l-25 -403l400 24v-135l-400 25l25 -1178h-172l24 1178z" />
<glyph unicode="&#x2021;" horiz-adv-x="1179" d="M131 350v135l399 -24l-16 233l16 234l-399 -25v135l399 -24l-24 403h168l-25 -403l400 24v-135l-400 25l17 -234l-17 -233l400 24v-135l-400 25l25 -625h-168l24 625z" />
<glyph unicode="&#x2022;" d="M219 725q0 119 87 205t208 86q123 0 209 -87t86 -208t-86 -208t-209 -87t-209 87t-86 212z" />
<glyph unicode="&#x2026;" horiz-adv-x="1769" d="M174 100.5q0 51.5 35 85t86 33.5t85 -33.5t34 -85t-34 -86t-85 -34.5q-53 0 -87 34.5t-34 86zM764 100.5q0 51.5 35 85t86 33.5t85 -33.5t34 -85t-34 -86t-85 -34.5q-53 0 -87 34.5t-34 86zM1354 100.5q0 51.5 34.5 85t86 33.5t85 -33.5t33.5 -85t-33.5 -86t-84.5 -34.5 q-53 0 -87 34.5t-34 86z" />
<glyph unicode="&#x2030;" horiz-adv-x="2398" d="M82 1032q0 397 305 397.5t305 -401t-305 -402t-305 405.5zM227 1030q0 -346 158 -346q162 0 162 344t-162 344q-158 0 -158 -342zM547 -41l477 1499h106l-477 -1499h-106zM981 393q0 397 305 397.5t305 -401t-305 -402t-305 405.5zM1126 391q0 -346 158 -346 q162 0 162 344t-162 344q-158 0 -158 -342zM1706 393q0 397 305 397.5t305 -401t-305 -402t-305 405.5zM1851 391q0 -346 158 -346q162 0 162 344t-162 344q-158 0 -158 -342z" />
<glyph unicode="&#x2039;" horiz-adv-x="622" d="M90 522l359 389h75l-215 -389l215 -391h-69z" />
<glyph unicode="&#x203a;" horiz-adv-x="622" d="M98 131l215 391l-215 389h76l358 -389l-364 -391h-70z" />
<glyph unicode="&#x203e;" d="M-33 1606v114h1090v-114h-1090z" />
<glyph unicode="&#x2044;" horiz-adv-x="163" d="M-211 -41l477 1499h107l-477 -1499h-107z" />
<glyph unicode="&#x2070;" horiz-adv-x="778" d="M84 1032q0 397 305 397.5t305 -401t-305 -402t-305 405.5zM229 1030q0 -346 158 -346q162 0 162 344t-162 344q-158 0 -158 -342z" />
<glyph unicode="&#x2074;" horiz-adv-x="778" d="M55 868v72l361 477h133q-4 -139 -4 -215v-258h143v-76h-143v-41q0 -72 4 -137l102 -2v-49h-350v49l100 2q6 55 7 137v41h-353zM150 944h262v352z" />
<glyph unicode="&#x2075;" horiz-adv-x="778" d="M123 676l6 162h115l8 -131q59 -23 106 -23q70 0 117 58.5t47 148.5q0 82 -43 131t-114 49q-78 0 -160 -67h-58l19 413h457l-5 -98h-374l-11 -229q86 47 179 47q119 0 187.5 -63.5t68.5 -176.5q0 -127 -80 -198.5t-221 -71.5q-117 0 -244 49z" />
<glyph unicode="&#x2076;" horiz-adv-x="778" d="M100 934q0 250 154 399q113 111 346 133l8 -51q-154 -18 -235.5 -94t-114.5 -231q70 55 166 55q121 0 191.5 -68.5t70.5 -185.5q0 -123 -78 -193.5t-213 -70.5q-145 0 -220 78.5t-75 228.5zM240 889q0 -92 42 -148.5t109.5 -56.5t108.5 54.5t41 144.5q0 94 -40 149 t-108 55q-66 0 -109.5 -56t-43.5 -142z" />
<glyph unicode="&#x2077;" horiz-adv-x="778" d="M131 1315l10 102h545v-45q-156 -207 -260 -413.5t-109 -319.5h-143q25 141 110 291.5t273 384.5h-426z" />
<glyph unicode="&#x2078;" horiz-adv-x="778" d="M100 831q0 66 41 108t148 87q-145 84 -146 201q0 92 70 147.5t184 55.5q113 0 180.5 -46.5t67.5 -123.5q0 -59 -39 -106.5t-133 -100.5q121 -59 161 -101.5t40 -109.5q0 -94 -81 -154.5t-208 -60.5t-206 57t-79 147zM219 831q0 -63 47 -105t119 -42t116 35t44 92 q0 51 -42 89t-159 95l-12 -6q-113 -62 -113 -158zM266 1253q0 -49 35 -88t121 -86l10 8q94 72 94 162q0 55 -35.5 89t-95.5 34q-57 0 -93 -33t-36 -86z" />
<glyph unicode="&#x2079;" horiz-adv-x="778" d="M92 1165q0 123 78 194t213 71q145 0 220 -79t75 -229q0 -250 -154 -399q-113 -111 -346 -133l-8 51q154 18 235.5 94t114.5 232q-70 -55 -166 -56q-121 0 -191.5 68.5t-70.5 185.5zM238 1174q0 -94 39.5 -149.5t107.5 -55.5q66 0 110 56t44 142q0 92 -42 148.5t-110 56.5 t-108.5 -54t-40.5 -144z" />
<glyph unicode="&#x2080;" horiz-adv-x="778" d="M84 393q0 397 305 397.5t305 -401t-305 -402t-305 405.5zM229 391q0 -346 158 -346q162 0 162 344t-162 344q-158 0 -158 -342z" />
<glyph unicode="&#x2081;" horiz-adv-x="778" d="M131 643q160 59 246 135h100q-6 -98 -6 -243v-291q0 -113 6 -193l117 -4v-47h-387v47l119 4q6 88 6 193v291l-2 131q-55 -33 -178 -78z" />
<glyph unicode="&#x2082;" horiz-adv-x="778" d="M96 0l4 92q211 166 306.5 285t95.5 215q0 59 -38 98t-95 39q-61 0 -133 -31l-11 -131h-114v164q164 59 288 60q121 0 184.5 -49.5t63.5 -141.5q0 -100 -95 -213t-327 -285h418l-10 -102h-537z" />
<glyph unicode="&#x2083;" horiz-adv-x="778" d="M102 35l7 164h114l8 -131q59 -23 109 -23q76 0 124 48t48 124q0 78 -51 121t-142 43q-25 0 -92 -6v59q61 -4 68 -4q92 0 149.5 46t57.5 122q0 61 -40 98t-108 37q-43 0 -100 -18l-8 -129h-115l-4 157q147 47 256 48q125 0 193.5 -50.5t68.5 -142.5q0 -145 -178 -188 q190 -31 190 -191q0 -106 -81.5 -168.5t-219.5 -62.5q-119 0 -254 47z" />
<glyph unicode="&#x2084;" horiz-adv-x="778" d="M55 229v72l361 477h133q-4 -139 -4 -215v-258h143v-76h-143v-41q0 -72 4 -137l102 -2v-49h-350v49l100 2q6 55 7 137v41h-353zM150 305h262v352z" />
<glyph unicode="&#x2085;" horiz-adv-x="778" d="M123 37l6 162h115l8 -131q59 -23 106 -23q70 0 117 58.5t47 148.5q0 82 -43 131t-114 49q-78 0 -160 -67h-58l19 413h457l-5 -98h-374l-11 -229q86 47 179 47q119 0 187.5 -63.5t68.5 -176.5q0 -127 -80 -198.5t-221 -71.5q-117 0 -244 49z" />
<glyph unicode="&#x2086;" horiz-adv-x="778" d="M100 295q0 250 154 399q113 111 346 133l8 -51q-154 -18 -235.5 -94t-114.5 -231q70 55 166 55q121 0 191.5 -68.5t70.5 -185.5q0 -123 -78 -193.5t-213 -70.5q-145 0 -220 78.5t-75 228.5zM240 250q0 -92 42 -148.5t109.5 -56.5t108.5 54.5t41 144.5q0 94 -40 149.5 t-108 55.5q-66 0 -109.5 -56.5t-43.5 -142.5z" />
<glyph unicode="&#x2087;" horiz-adv-x="778" d="M131 676l10 102h545v-45q-156 -207 -260 -413.5t-109 -319.5h-143q25 141 110 291.5t273 384.5h-426z" />
<glyph unicode="&#x2088;" horiz-adv-x="778" d="M100 193q0 66 41 107.5t148 86.5q-145 84 -146 201q0 92 70 147.5t184 55.5q113 0 180.5 -46.5t67.5 -123.5q0 -59 -39 -106.5t-133 -100.5q121 -59 161 -101.5t40 -109.5q0 -94 -81 -154.5t-208 -60.5t-206 57.5t-79 147.5zM219 193q0 -63 47 -105.5t119 -42.5t116 35 t44 92q0 51 -42 89t-159 95l-12 -6q-113 -61 -113 -157zM266 614q0 -49 35 -88t121 -86l10 9q94 72 94 161q0 55 -35.5 89t-95.5 34q-57 0 -93 -33t-36 -86z" />
<glyph unicode="&#x2089;" horiz-adv-x="778" d="M92 526q0 123 78 194t213 71q145 0 220 -79t75 -229q0 -250 -154 -399q-113 -111 -346 -133l-8 51q154 18 235.5 94t114.5 232q-70 -55 -166 -56q-121 0 -191.5 68.5t-70.5 185.5zM238 535q0 -94 39.5 -149.5t107.5 -55.5q66 0 110 56t44 142q0 92 -42 148.5t-110 56.5 t-108.5 -54t-40.5 -144z" />
<glyph unicode="&#x20ac;" horiz-adv-x="1179" d="M-12 557l32 88h195v41q0 53 4 96h-231l32 88h207q45 272 204 420t403 148q170 0 352 -92l-43 -117q-143 133 -312 133q-164 0 -270 -128t-139 -364h594l-33 -88h-569q-4 -39 -4 -82q0 -16 2 -55h524l-33 -88h-487q49 -489 413 -489q152 0 297 90l35 -78 q-166 -100 -340 -100q-250 0 -409.5 153.5t-188.5 423.5h-235z" />
<glyph unicode="&#x2116;" horiz-adv-x="2316" d="M66 0v66l161 6q10 129 11 522v752l-172 6v65h387q29 -59 165 -266l566 -842v668q0 240 -10 369l-162 6v65h432v-65l-162 -6q-10 -123 -10 -369v-977h-119q-35 70 -104 172l-62 88l-661 985v-659q0 -324 10 -514l162 -6v-66h-432zM1505 725q0 168 94.5 260t268.5 92 t268 -92t94 -264t-94 -264t-268 -92q-176 0 -269.5 92t-93.5 268zM1540 129v102h655v-102h-655zM1683 723q0 -137 48.5 -213t136.5 -76t136 76t48 211t-48 211t-136 76q-86 0 -135.5 -76t-49.5 -209z" />
<glyph unicode="&#x2122;" horiz-adv-x="1830" d="M12 1204v213h695v-213h-109l-12 156h-156q-4 -117 -4 -209v-246q0 -147 6 -215l111 -4v-47h-367v47l109 4q6 88 6 215v246q0 49 -4 209h-154l-12 -156h-109zM764 639v47l96 4q6 37 6 193v483l-102 4v47h250l268 -553l274 553h228v-47l-103 -4v-483q0 -133 7 -193l96 -4 v-47h-332v47l94 4q4 41 4 78l2 72v43v364l-280 -565h-49l-281 578v-377q0 -129 6 -193l94 -4v-47h-278z" />
<glyph unicode="&#x2126;" horiz-adv-x="1474" d="M74 766q0 295 192 485q188 186 471 187q293 0 478.5 -188.5t185.5 -485.5q0 -416 -395 -647h372v-117h-514v88q342 248 342 680q0 266 -131 435t-338 169t-338 -169t-131 -435q0 -432 342 -680v-88h-514v117h373q-395 235 -395 649z" />
<glyph unicode="&#x2153;" horiz-adv-x="1720" d="M117 1282q160 59 245 135h101q-6 -98 -6 -243v-291q0 -113 6 -193l117 -4v-47h-387v47l118 4q6 88 6 193v291l-2 131q-55 -33 -178 -78zM500 -41l477 1499h106l-477 -1499h-106zM989 35l6 164h115l8 -131q59 -23 109 -23q76 0 124 48t48 124q0 78 -51.5 121t-141.5 43 q-25 0 -92 -6v59q61 -4 68 -4q92 0 149.5 46t57.5 122q0 61 -40 98t-108 37q-41 0 -100 -18l-8 -129h-115l-4 157q147 47 256 48q125 0 193.5 -50.5t68.5 -142.5q0 -145 -178 -188q190 -31 190 -191q0 -106 -82 -168.5t-219 -62.5q-119 0 -254 47z" />
<glyph unicode="&#x2154;" horiz-adv-x="1720" d="M123 639l4 92q211 166 306 285t95 215q0 59 -37.5 98t-95.5 39q-61 0 -133 -31l-10 -131h-115v164q164 59 289 60q121 0 184.5 -49.5t63.5 -141.5q0 -100 -95.5 -213t-326.5 -285h418l-11 -102h-536zM561 -41l477 1499h107l-477 -1499h-107zM1036 35l6 164h115l8 -131 q59 -23 109 -23q76 0 124 48t48 124q0 78 -51.5 121t-141.5 43q-25 0 -92 -6v59q61 -4 68 -4q92 0 149.5 46t57.5 122q0 61 -40 98t-108 37q-43 0 -100 -18l-8 -129h-115l-4 157q147 47 256 48q125 0 193.5 -50.5t68.5 -142.5q0 -145 -178 -188q190 -31 190 -191 q0 -106 -82 -168.5t-219 -62.5q-119 0 -254 47z" />
<glyph unicode="&#x215b;" horiz-adv-x="1720" d="M131 1282q160 59 246 135h100q-6 -98 -6 -243v-291q0 -113 6 -193l117 -4v-47h-387v47l119 4q6 88 6 193v291l-2 131q-55 -33 -178 -78zM555 -41l477 1499h107l-477 -1499h-107zM1028 193q0 66 41 107.5t148 86.5q-145 84 -146 201q0 92 69.5 147.5t184.5 55.5 q113 0 180.5 -46.5t67.5 -123.5q0 -59 -39 -106.5t-133 -100.5q121 -59 161 -101.5t40 -109.5q0 -94 -81 -154.5t-208 -60.5t-206 57.5t-79 147.5zM1147 193q0 -63 47 -105.5t118.5 -42.5t116 35t44.5 92q0 51 -42 89t-159 95l-12 -6q-113 -61 -113 -157zM1194 614 q0 -49 36 -88t120 -86l10 9q94 68 94 161q0 55 -36 89t-95 34q-57 0 -93 -33t-36 -86z" />
<glyph unicode="&#x215c;" horiz-adv-x="1720" d="M106 674l7 164h114l9 -131q59 -23 108 -23q76 0 124 48t48 124q0 78 -51 121t-141 43q-25 0 -93 -6v59q61 -4 68 -4q92 0 149.5 46t57.5 122q0 61 -40 98t-108 37q-43 0 -100 -18l-8 -129h-115l-4 157q147 47 256 48q125 0 193.5 -50.5t68.5 -142.5q0 -145 -178 -188 q190 -31 191 -191q0 -106 -82 -168.5t-220 -62.5q-119 0 -254 47zM571 -41l478 1499h106l-477 -1499h-107zM1042 193q0 63 42 106t147 88q-145 84 -146 201q0 92 70 147.5t184 55.5q113 0 180.5 -46.5t67.5 -123.5q0 -61 -38 -107.5t-134 -99.5q121 -59 161 -101.5 t40 -109.5q0 -94 -81 -154.5t-208 -60.5t-206 57.5t-79 147.5zM1161 193q0 -63 47 -105.5t119 -42.5t116 35t44 92q0 51 -42 89t-159 95l-12 -6q-113 -61 -113 -157zM1208 614q0 -49 36 -88t120 -86l10 9q94 72 94 161q0 55 -35.5 89t-95.5 34q-57 0 -93 -33t-36 -86z" />
<glyph unicode="&#x215d;" horiz-adv-x="1720" d="M143 676l7 162h114l8 -131q59 -23 107 -23q70 0 117 58.5t47 148.5q0 82 -43 131t-115 49q-78 0 -160 -67h-57l18 413h457l-4 -98h-375l-10 -229q86 47 178 47q119 0 187.5 -63.5t68.5 -176.5q0 -127 -80 -198.5t-221 -71.5q-117 0 -244 49zM588 -41l479 1499h107 l-480 -1499h-106zM1042 193q0 66 41 107.5t148 86.5q-145 84 -146 201q0 92 70 147.5t184 55.5q113 0 180.5 -46.5t67.5 -123.5q0 -59 -39 -106.5t-133 -100.5q121 -59 161 -101.5t40 -109.5q0 -94 -81 -154.5t-208 -60.5t-206 57.5t-79 147.5zM1161 193q0 -63 47 -105.5 t119 -42.5t116 35t44 92q0 51 -43 90t-160 94l-12 -6q-111 -61 -111 -157zM1208 614q0 -49 35 -88t119 -86l12 9q94 72 94 161q0 55 -35.5 89t-95.5 34q-57 0 -93 -33t-36 -86z" />
<glyph unicode="&#x215e;" horiz-adv-x="1720" d="M152 1315l10 102h545v-45q-156 -207 -260.5 -413.5t-108.5 -319.5h-143q25 141 109.5 291.5t273.5 384.5h-426zM471 -41l477 1499h107l-477 -1499h-107zM973 193q0 66 41 107.5t147 86.5q-145 86 -145 201q0 92 69.5 147.5t184.5 55.5q113 0 180.5 -46.5t67.5 -123.5 q0 -59 -39 -106.5t-133 -100.5q119 -57 159.5 -100.5t40.5 -110.5q0 -94 -81 -154.5t-208 -60.5t-205.5 57.5t-78.5 147.5zM1092 193q0 -63 47 -105.5t118.5 -42.5t115.5 35t44 92q0 51 -43 90t-157 94l-13 -6q-112 -61 -112 -157zM1139 614q0 -49 34.5 -88t120.5 -86l11 9 q94 68 94 161q0 55 -36 89t-95 34q-57 0 -93 -33t-36 -86z" />
<glyph unicode="&#x2202;" horiz-adv-x="1179" d="M131 487q0 233 120 371.5t322 138.5q115 0 209 -55q-70 195 -200.5 324t-307.5 178l21 69q264 -68 461 -288q291 -332 291 -723q0 -242 -124 -382t-337 -140q-207 0 -331 138t-124 369zM315 500q0 -213 66 -324q76 -131 205 -131q131 0 203.5 114.5t72.5 317.5 q0 221 -69 334q-74 121 -205 121q-133 0 -203 -110.5t-70 -321.5z" />
<glyph unicode="&#x2206;" horiz-adv-x="1179" d="M4 0q68 158 119 299l321 842q76 195 103 276h84q37 -109 141 -375l309 -806q8 -23 74 -183q4 -6 11.5 -25.5t11.5 -27.5h-1174zM139 76h793l-397 1073l-308 -805q-72 -207 -88 -268z" />
<glyph unicode="&#x220f;" horiz-adv-x="1310" d="M-29 -252l170 6q10 195 11 369v1057q0 174 -11 368l-170 6v66h1368v-66l-170 -6q-10 -195 -10 -368v-1057q0 -174 10 -369l170 -6v-65h-544v65l170 6q10 195 10 369v1053q0 174 -10 364h-619q-10 -221 -10 -364v-1053q0 -174 10 -369l170 -6v-65h-545v65z" />
<glyph unicode="&#x2211;" horiz-adv-x="1200" d="M94 -227l512 878l-512 871v98h985v-369h-151l-27 293h-616l485 -821l-528 -899h700l25 272h151v-413h-1024v90z" />
<glyph unicode="&#x2212;" horiz-adv-x="1179" d="M72 457v123h1036v-123h-1036z" />
<glyph unicode="&#x221a;" horiz-adv-x="1179" d="M96 643v66h322l139 -502l299 909l178 578h535v-76h-463l-526 -1618h-129l-187 637z" />
<glyph unicode="&#x221e;" horiz-adv-x="1558" d="M98 518q0 143 89 232.5t235 89.5q199 0 356 -234q160 233 359 234q145 0 234 -89t89 -233q0 -145 -89 -234t-234 -89q-199 0 -359 233q-158 -233 -356 -233q-145 0 -234.5 89t-89.5 234zM221 518q0 -90 59.5 -151.5t145.5 -61.5q72 0 145.5 52.5t128.5 142.5l11 16 l-11 16q-55 90 -128.5 143.5t-145.5 53.5q-86 0 -145.5 -61.5t-59.5 -149.5zM848 516l10 -16q53 -90 128 -142.5t147 -52.5q86 0 145 61.5t59 151.5q0 88 -59 149.5t-145 61.5q-72 0 -146 -53t-129 -144z" />
<glyph unicode="&#x222b;" horiz-adv-x="778" d="M80 -305l31 61q55 -29 96 -28q72 0 94 67q8 27 8 137v1315q0 147 7.5 201.5t31.5 93.5q63 98 207 98q74 0 141 -32l-30 -62q-55 29 -97 29q-72 0 -94 -68q-8 -27 -8 -137v-1315q0 -147 -7 -201.5t-32 -93.5q-63 -98 -207 -98q-73 0 -141 33z" />
<glyph unicode="&#x2248;" horiz-adv-x="1179" d="M72 319q82 113 149.5 160t147.5 47q90 0 241 -92q84 -49 118 -63.5t71 -14.5q51 0 95 29t105 102l17 21l92 -78q-152 -207 -299 -207q-88 0 -238 92q-80 47 -117.5 62.5t-80.5 15.5q-53 0 -95 -29.5t-114 -117.5zM72 606q82 113 149.5 160t147.5 47q90 0 241 -92 q84 -49 118 -63.5t71 -14.5q51 0 95 28.5t105 102.5l17 21l92 -78q-152 -207 -299 -207q-88 0 -238 92q-80 47 -117.5 62.5t-80.5 15.5q-53 0 -95 -29.5t-114 -118.5z" />
<glyph unicode="&#x2260;" horiz-adv-x="1179" d="M72 309v123h405l82 172h-487v123h546l134 283l118 -49l-110 -234h348v-123h-408l-82 -172h490v-123h-547l-135 -280l-117 49l111 231h-348z" />
<glyph unicode="&#x2261;" horiz-adv-x="1179" d="M72 162v123h1036v-123h-1036zM72 457v123h1036v-123h-1036zM72 752v122h1036v-122h-1036z" />
<glyph unicode="&#x2264;" horiz-adv-x="1179" d="M72 0v123h1036v-123h-1036zM72 590v106l1036 363v-133l-856 -283l856 -285v-133z" />
<glyph unicode="&#x2265;" horiz-adv-x="1179" d="M72 0v123h1036v-123h-1036zM72 225v133l856 285l-856 283v133l1036 -363v-106z" />
<glyph unicode="&#x22c5;" horiz-adv-x="589" d="M174 567q0 51 35 85t86 34t85 -34t34 -85t-34 -86t-85 -35q-53 0 -87 35t-34 86z" />
<glyph unicode="&#x25ca;" horiz-adv-x="1179" d="M20 709l570 774l569 -774l-569 -777zM193 709l397 -559l397 559l-397 559z" />
<glyph unicode="&#xe000;" horiz-adv-x="1040" d="M0 1040h1040v-1040h-1040v1040z" />
<glyph unicode="&#xea3f;" horiz-adv-x="557" d="M125 1026q119 129 143 258q-111 20 -110 113q0 51 33.5 86t84.5 35q57 0 92 -38t35 -98q0 -152 -233 -401z" />
<glyph unicode="&#xea4e;" horiz-adv-x="0" d="M172 1618v76h1034v-76h-1034z" />
<glyph unicode="&#xea4f;" d="M377 1239q0 82 90 182q63 66 221 162l37 -57q-207 -168 -201 -318h-106q-25 0 -33 6.5t-8 24.5z" />
<glyph unicode="&#xea67;" horiz-adv-x="557" d="M125 1026q119 129 143 258q-111 20 -110 113q0 51 33.5 86t84.5 35q57 0 92 -38t35 -98q0 -152 -233 -401z" />
<glyph unicode="&#xf6be;" horiz-adv-x="645" d="M-66 -440l5 65q180 0 249 99q37 51 48.5 137t11.5 307v430q0 174 -10 369l-166 6v65l360 11q-10 -203 -10 -490v-364q0 -217 -12.5 -309.5t-49.5 -157.5q-102 -172 -360 -172q-41 0 -66 4z" />
<glyph unicode="&#xf6c3;" d="M262 -393q207 168 201 317h106q25 0 33 -6t8 -24q0 -82 -90 -183q-63 -66 -221 -162z" />
<glyph unicode="&#xf6c9;" d="M334 1552q74 47 148.5 121t107.5 137h149q31 0 31 -16q0 -37 -100 -119q-102 -86 -310 -170z" />
<glyph unicode="&#xf6ca;" d="M203 1780l30 47q184 -86 279 -189q86 98 279 189l30 -47q-94 -61 -221 -252h-176q-127 191 -221 252z" />
<glyph unicode="&#xf6cb;" d="M205 1651q0 47 31.5 77.5t78.5 30.5t78 -31.5t31 -78.5t-32 -78t-77 -31q-47 0 -78.5 32t-31.5 79zM598 1651q0 47 32 77.5t79 30.5t77.5 -31.5t30.5 -78.5t-31.5 -78t-76.5 -31q-47 0 -79 32t-32 79z" />
<glyph unicode="&#xf6ce;" d="M281 1794q0 16 30 16h150q33 -63 107.5 -137t148.5 -121l-27 -47q-207 84 -309 170q-100 82 -100 119z" />
<glyph unicode="&#xf6cf;" d="M225 1552q178 137 215 258h135q37 0 37 -22q-4 -41 -75 -113q-90 -90 -275 -170zM528 1552q178 137 215 258h136q37 0 36 -22q-4 -41 -75 -113q-90 -90 -275 -170z" />
<glyph unicode="&#xf6d0;" d="M213 1593v93h598v-93h-598z" />
<glyph unicode="&#xf6f4;" d="M215 1559h70q8 -98 63 -143.5t164 -45.5t165 45t64 144h70q-12 -297 -299 -297t-297 297z" />
<glyph unicode="&#xf6f5;" d="M203 1524l30 47q184 -86 279 -189q86 98 279 189l30 -47q-94 -61 -221 -252h-176q-127 191 -221 252z" />
<glyph unicode="&#xf6f6;" d="M203 1307q94 61 221 252h176q127 -190 221 -252l-30 -47q-184 86 -279 188q-86 -98 -279 -188z" />
<glyph unicode="&#xf6f7;" d="M401 1409q0 47 32 78t79 31t78 -32t31 -79t-32 -78t-77 -31q-47 0 -79 32t-32 79z" />
<glyph unicode="&#xf6f8;" d="M274 1300q178 137 215 259h136q37 0 37 -23q-4 -41 -76 -113q-90 -90 -275 -170zM578 1300q178 137 215 259h135q37 0 37 -23q-4 -41 -76 -113q-90 -90 -275 -170z" />
<glyph unicode="&#xf6f9;" horiz-adv-x="970" d="M76 0v66l151 6q8 115 9 270v47l-160 -108v92l160 108v273q0 158 -9 272l-151 6v66h491v-66l-149 -6q-8 -152 -8 -272v-156l237 160v-92l-237 -160v-162q0 -150 8 -270h338l20 223h142v-297h-842z" />
<glyph unicode="&#xf6fa;" horiz-adv-x="1593" d="M121 543q0 338 205 467q78 49 179 68.5t279 19.5h676v-297h-137l-20 223h-324q-8 -102 -8 -270v-160h385v-74h-385v-176q0 -168 8 -270h348l23 223h141v-297h-768q-174 0 -279.5 27.5t-177.5 93.5q-145 135 -145 422zM307 547q0 -244 102.5 -359.5t317.5 -115.5h61 q8 109 9 272v410q0 164 -9 272h-71q-213 0 -311.5 -115.5t-98.5 -363.5z" />
<glyph unicode="&#xf6fb;" d="M328 -262q0 137 252 262h100q-119 -70 -165 -122t-46 -118q0 -125 145 -125q25 0 74 7l8 -58q-82 -25 -145 -24q-102 0 -162.5 48t-60.5 130z" />
<glyph unicode="&#xf6fc;" d="M307 1397q0 86 59.5 144t145.5 58q88 0 146.5 -58t58.5 -146t-58.5 -146.5t-146.5 -58.5t-146.5 58.5t-58.5 148.5zM395 1397q0 -59 33 -95t84 -36t84 35.5t33 93t-33 93.5t-84 36t-84 -36t-33 -91z" />
<glyph unicode="&#xf6fd;" horiz-adv-x="952" d="M135 53v244h141l19 -197q84 -51 160 -51q94 0 153.5 60.5t59.5 156.5q0 84 -41 121q-20 20 -46 33.5t-163 75.5q-158 70 -220.5 138t-62.5 173q0 143 97.5 227t261.5 84q162 0 299 -86v-231h-138l-18 194q-59 53 -139 54q-84 0 -138.5 -55.5t-54.5 -143.5q0 -74 43 -115 t182 -102q182 -80 240 -137q68 -72 68 -197q0 -152 -98.5 -235.5t-274.5 -83.5q-164 -1 -330 73zM188 1524l31 47q186 -88 279 -189q88 100 278 189l31 -47q-94 -61 -221 -252h-176q-130 191 -222 252z" />
<glyph unicode="&#xf6fe;" d="M170 1298q59 207 201 207q51 0 159 -35q94 -31 148 -30q100 0 113 78h61q-14 -113 -60.5 -162t-136.5 -49q-51 0 -159 32q-104 33 -166 33q-72 0 -99 -74h-61z" />
<glyph unicode="&#xf6ff;" horiz-adv-x="1079" d="M111 0v74q45 61 65 92q41 57 60 88l75 113l224 338q145 217 206 319h-454l-21 -223h-141v297h833v-74l-73 -104l-80 -117l-84 -127l-178 -268l-170 -256q-10 -14 -26.5 -42t-20.5 -36h479l20 223h144v-297h-858zM272 1524l31 47q186 -88 279 -189q88 100 278 189l31 -47 q-94 -61 -221 -252h-176q-130 191 -222 252z" />
<glyph unicode="&#xf730;" horiz-adv-x="1212" d="M119 555q0 272 125 417.5t362.5 145.5t362.5 -145.5t125 -424t-125 -423.5t-363 -145q-240 0 -363.5 146t-123.5 429zM307 555q0 -262 73 -386t226.5 -124t226 123t72.5 381t-72.5 381t-226.5 123q-152 0 -225.5 -122t-73.5 -376z" />
<glyph unicode="&#xf731;" horiz-adv-x="856" d="M92 877q229 92 365 229h116q-10 -180 -10 -440v-226q0 -240 10 -368l199 -6v-66h-610v66l215 6q10 129 10 368v226q0 152 -6 286q-86 -70 -258 -143z" />
<glyph unicode="&#xf732;" horiz-adv-x="1060" d="M113 0v158q242 170 438 350q117 106 162 176t45 145q0 98 -65.5 155.5t-178.5 57.5q-129 0 -240 -73l-24 -197h-137v250q229 96 436 96q182 0 289.5 -75.5t107.5 -202.5q0 -92 -61.5 -177t-206.5 -198q-209 -162 -447 -307h705l-6 -158h-817z" />
<glyph unicode="&#xf733;" horiz-adv-x="1011" d="M88 -289l27 103q117 -70 262 -70t235 93t90 245q0 303 -397 303q-23 0 -43 -2v82q35 -2 51 -2q180 0 282.5 84t102.5 233q0 125 -66.5 196t-182.5 71q-90 0 -189 -50l-20 -211h-146v263q203 70 377 69q193 0 302.5 -91t109.5 -253q0 -133 -83 -223t-233 -117 q154 -23 239 -114t85 -234q0 -203 -129 -314.5t-363 -111.5q-166 0 -311 51z" />
<glyph unicode="&#xf734;" horiz-adv-x="1064" d="M20 113v123l642 862h129q-6 -221 -7 -387v-475h252l-8 -123h-244v-172q0 -166 9 -260h-191q8 74 8 260v172h-590zM115 236h495l6 677z" />
<glyph unicode="&#xf735;" horiz-adv-x="1064" d="M129 -289l29 109q113 -80 237 -80q164 0 265.5 114.5t101.5 301.5q0 162 -76 258t-203 96q-160 0 -278 -143h-66l39 735h703l-7 -164h-620l-25 -457q127 115 306 115q195 0 305 -114.5t110 -319.5q0 -238 -141 -370t-395 -132q-166 0 -285 51z" />
<glyph unicode="&#xf736;" horiz-adv-x="1163" d="M119 518q0 266 91 482.5t255 340.5q166 127 450 158l11 -59q-272 -35 -415.5 -198t-184.5 -480q119 145 311 145t308 -124t116 -328q0 -219 -125 -347t-342 -128q-231 0 -353 138t-122 400zM303 444q0 -182 77 -290.5t208 -108.5q129 0 206.5 109.5t77.5 289.5 q0 182 -70.5 288t-191.5 106q-135 0 -221 -111t-86 -283z" />
<glyph unicode="&#xf737;" horiz-adv-x="942" d="M59 938l17 160h831v-68q-270 -401 -441 -771t-183 -578h-189q39 252 188.5 533.5t477.5 723.5h-701z" />
<glyph unicode="&#xf738;" horiz-adv-x="1163" d="M115 348q0 123 73.5 208t251.5 167q-150 90 -204 165t-54 187q0 166 109.5 264.5t294.5 98.5q180 0 287.5 -83t107.5 -222q0 -104 -64.5 -182.5t-228.5 -172.5q137 -68 205 -119q156 -111 156 -292q0 -178 -129 -282.5t-349 -104.5q-203 0 -329.5 102t-126.5 266z M266 350q0 -137 84 -221t221 -84q139 0 224.5 74t85.5 198q0 147 -142 242q-78 53 -233 127l-14 -8q-106 -51 -166 -137.5t-60 -190.5zM334 1120q0 -94 63.5 -162.5t220.5 -146.5l21 14q190 117 190 301q0 113 -66.5 179.5t-180.5 66.5q-113 0 -180.5 -68.5t-67.5 -183.5z " />
<glyph unicode="&#xf739;" horiz-adv-x="1163" d="M102 641q0 221 125 349t342 128q231 0 353 -138t122 -400q0 -266 -91 -482.5t-255 -341.5q-166 -127 -450 -157l-10 59q272 35 415.5 197.5t184.5 480.5q-121 -145 -313.5 -145.5t-307.5 122.5t-115 328zM291 653q0 -182 69.5 -287.5t192.5 -105.5q135 0 221 110.5 t86 282.5q0 182 -77.5 291t-207 109t-207 -110t-77.5 -290z" />
<glyph unicode="&#xf760;" d="M264 1542q0 16 31 17h149q33 -63 108 -137t148 -122l-26 -47q-207 84 -309 170q-101 82 -101 119z" />
<glyph unicode="&#xf761;" horiz-adv-x="1056" d="M-29 0v66l103 6q27 49 90 202l217 549q78 195 104 275h84q16 -59 93 -242l258 -645q47 -117 59 -139l106 -6v-66h-444v66l133 6q-16 63 -53 161l-49 125h-385l-25 -67q-55 -150 -74 -219l121 -6v-66h-338zM315 432h328l-166 430z" />
<glyph unicode="&#xf762;" horiz-adv-x="1077" d="M76 0v66l151 6q8 90 9 272v389q0 186 -9 293l-151 6v66h407q233 0 326 -54q119 -66 119 -229q0 -100 -51.5 -158.5t-161.5 -87.5q131 -25 186 -86t55 -182q0 -178 -116 -248q-90 -53 -318 -53h-446zM410 209q0 -39 6 -137h67q291 0 291 229q0 119 -70.5 173t-226.5 54 h-67v-190v-129zM410 602h57q281 0 281 219q0 113 -59.5 159t-205.5 46h-67q-6 -154 -6 -270v-154z" />
<glyph unicode="&#xf763;" horiz-adv-x="1107" d="M121 543q0 272 135 423.5t377 151.5q178 0 364 -86v-231h-139l-16 178q-90 66 -197 65q-156 0 -245 -136t-89 -373q0 -225 91.5 -353.5t252.5 -128.5q100 0 203 58l12 186h144v-246q-203 -72 -361 -71q-252 0 -392 148.5t-140 414.5z" />
<glyph unicode="&#xf764;" horiz-adv-x="1206" d="M76 0v66l151 6q8 111 9 272v410q0 162 -9 272l-151 6v66h362q195 0 302.5 -25.5t185.5 -91.5q160 -135 159 -432q0 -328 -182 -457q-129 -92 -420 -92h-407zM410 344q0 -164 8 -272h61q215 0 317.5 115.5t102.5 359.5q0 248 -98.5 363.5t-311.5 115.5h-71 q-8 -109 -8 -272v-410z" />
<glyph unicode="&#xf765;" horiz-adv-x="1032" d="M76 0v66l151 6q8 111 9 270v414q0 160 -9 270l-151 6v66h823v-297h-137l-21 223h-323q-8 -98 -8 -270v-160h385v-74h-385v-176q0 -168 8 -270h348l22 223h142v-297h-854z" />
<glyph unicode="&#xf766;" horiz-adv-x="999" d="M76 0v66l151 6q8 111 9 272v412q0 160 -9 270l-151 6v66h825v-297h-137l-21 223h-325q-8 -123 -8 -270v-156h389v-74h-389v-180q0 -190 8 -272l174 -6v-66h-516z" />
<glyph unicode="&#xf767;" horiz-adv-x="1202" d="M121 543q0 272 136 423.5t380 151.5q178 0 373 -86v-231h-138l-18 178q-109 66 -207 65q-156 0 -248 -137t-92 -368q0 -225 93.5 -355.5t254.5 -130.5q94 0 187 49v340l-129 4v66h428v-66l-125 -4v-209q0 -117 6 -178q-213 -76 -369 -75q-252 0 -392 148.5t-140 414.5z " />
<glyph unicode="&#xf768;" horiz-adv-x="1335" d="M76 0v66l151 6q8 111 9 272v410q0 162 -9 272l-151 6v66h483v-66l-141 -6q-8 -111 -8 -272v-158h518v158q0 162 -8 272l-144 6v66h484v-66l-150 -6q-8 -111 -8 -272v-410q0 -162 8 -272l150 -6v-66h-484v66l144 6q8 111 8 272v178h-518v-178q0 -162 8 -272l141 -6v-66 h-483z" />
<glyph unicode="&#xf769;" horiz-adv-x="643" d="M76 0v66l151 6q8 111 9 272v410q0 162 -9 272l-151 6v66h491v-66l-149 -6q-8 -111 -8 -272v-410q0 -162 8 -272l149 -6v-66h-491z" />
<glyph unicode="&#xf76a;" horiz-adv-x="669" d="M-41 -141l6 69q18 -2 45 -2q145 0 205 92q45 66 45 279v457q0 162 -8 272l-150 6v66h492v-66l-152 -6q-8 -111 -8 -272v-441q0 -197 -31 -266q-39 -94 -134 -144t-228 -50q-33 0 -82 6z" />
<glyph unicode="&#xf76b;" horiz-adv-x="1114" d="M76 0v66l151 6q8 115 9 272v410q0 158 -9 272l-151 6v66h467v-66l-125 -6q-8 -115 -8 -272v-152l452 424l-127 6v66h344v-66l-80 -6q-29 -23 -174 -154l-258 -237l471 -563l90 -6v-66h-423v66h106l-401 509v-231q0 -158 8 -272l125 -6v-66h-467z" />
<glyph unicode="&#xf76c;" horiz-adv-x="970" d="M76 0v66l151 6q8 111 9 270v412q0 162 -9 272l-151 6v66h491v-66l-149 -6q-8 -152 -8 -272v-410q0 -147 8 -270h338l20 223h142v-297h-842z" />
<glyph unicode="&#xf76d;" horiz-adv-x="1523" d="M72 0v66l151 6q8 102 8 342v612l-159 6v66h362q23 -72 105 -262l223 -527l219 533q72 168 102 256h365v-66l-160 -6v-682q0 -137 8 -272l152 -6v-66h-485v66l143 6q8 102 8 272v594l-360 -877h-66l-369 877v-516q0 -227 9 -350l143 -6v-66h-399z" />
<glyph unicode="&#xf76e;" horiz-adv-x="1300" d="M76 0v66l151 6q8 111 9 389v565l-160 6v66h358q37 -72 131 -209l408 -610v475q0 170 -8 272l-152 6v66h412v-66l-152 -6q-8 -98 -8 -272v-754h-121q-49 86 -135 215l-481 727v-487q0 -264 8 -383l151 -6v-66h-411z" />
<glyph unicode="&#xf76f;" horiz-adv-x="1286" d="M121 555q0 276 164 434q135 129 358 129q258 0 397 -172q125 -156 125 -397q0 -281 -164 -440q-135 -129 -358 -129q-244 0 -383 153.5t-139 421.5zM307 553q0 -240 88 -372t248 -132q158 0 247 132t89 367.5t-89 368t-247 132.5t-247 -132.5t-89 -363.5z" />
<glyph unicode="&#xf770;" horiz-adv-x="1032" d="M76 0v66l151 6q8 111 9 270v414q0 160 -9 270l-151 6v66h450q207 0 295 -56q117 -76 117 -251q0 -184 -127 -259q-94 -55 -309 -55h-92v-135q0 -164 8 -270l168 -6v-66h-510zM410 551h57q141 0 203 47q84 61 84 193q0 150 -86 198q-59 35 -199 35h-59v-473z" />
<glyph unicode="&#xf771;" horiz-adv-x="1286" d="M121 549q0 281 164 440q135 129 358 129q258 0 397 -172q125 -156 125 -397q0 -236 -113.5 -385.5t-316.5 -177.5q84 -172 232 -172q20 0 37 2l8 -70q-45 -6 -82 -6q-279 0 -389 246q-193 27 -306.5 179.5t-113.5 383.5zM307 553q0 -240 88 -372t248 -132q158 0 247 132 t89 367.5t-89 368t-247 132.5t-247 -132.5t-89 -363.5z" />
<glyph unicode="&#xf772;" horiz-adv-x="1087" d="M76 0v66l151 6q8 111 9 272v410q0 166 -9 272l-151 6v66h487q201 0 294 -68.5t93 -216.5q0 -211 -229 -256q90 -23 133 -87t78 -230l41 -168l112 -6v-66h-274l-49 211q-41 186 -96.5 245.5t-184.5 59.5h-71v-172q0 -121 8 -272l145 -6v-66h-487zM410 588h63 q293 0 293 225q0 129 -98 182q-55 29 -166 29h-92v-436z" />
<glyph unicode="&#xf773;" horiz-adv-x="952" d="M135 53v244h141l19 -197q84 -51 160 -51q94 0 153.5 60.5t59.5 156.5q0 84 -41 121q-20 20 -46 33.5t-163 75.5q-158 70 -220.5 138t-62.5 173q0 143 97.5 227t261.5 84q162 0 299 -86v-231h-138l-18 194q-59 53 -139 54q-84 0 -138.5 -55.5t-54.5 -143.5q0 -74 43 -115 t182 -102q182 -80 240 -137q68 -72 68 -197q0 -152 -98.5 -235.5t-274.5 -83.5q-164 -1 -330 73z" />
<glyph unicode="&#xf774;" horiz-adv-x="1007" d="M33 801v297h942v-297h-137l-23 223h-217q-8 -135 -8 -301v-348q0 -193 8 -303l160 -6v-66h-508v66l158 6q8 129 8 303v348q0 195 -8 301h-215l-21 -223h-139z" />
<glyph unicode="&#xf775;" horiz-adv-x="1228" d="M55 1032v66h486v-66l-152 -6q-8 -111 -8 -272v-320q0 -178 25 -246q55 -135 241 -135q180 0 252 135q35 68 35 252v314q0 113 -8 272l-152 6v66h404v-66l-144 -6q-8 -106 -8 -272v-351q0 -113 -13.5 -173t-49.5 -111q-102 -139 -332 -139q-256 0 -361 143 q-39 53 -51 118.5t-12 217.5v295q0 162 -8 272z" />
<glyph unicode="&#xf776;" horiz-adv-x="1044" d="M-27 1032v66h424v-66l-121 -6q12 -49 101 -285l190 -493l187 485l102 293l-119 6v66h334v-66l-96 -6q-53 -113 -119 -285l-168 -428l-67 -176l-50 -137h-94q-53 154 -117 313l-170 428l-118 285z" />
<glyph unicode="&#xf777;" horiz-adv-x="1486" d="M-8 1032v66h414v-66l-123 -6q12 -66 26 -123l49 -188l109 -402l186 551q16 53 27 78q33 96 49 156h98q6 -31 84 -254l189 -543l121 461q55 213 63 264l-123 6v66h334v-66l-96 -6q-41 -115 -86 -285l-119 -424q-68 -246 -80 -317h-102q-10 53 -101 330l-174 506l-196 -588 q-55 -170 -72 -248h-100q-8 31 -21 90q-16 70 -63 240l-92 342q-35 127 -105 354z" />
<glyph unicode="&#xf778;" horiz-adv-x="1079" d="M0 0v66l100 6q31 33 133 166l218 294l-207 308q-76 115 -133 186l-99 6v66h422v-66l-106 -6q35 -61 139 -219l98 -145l168 219q92 127 103 145l-103 6v66h318v-66l-97 -6l-163 -207l-173 -227l222 -326l139 -194l100 -6v-66h-436v66l113 6q-25 51 -80 131l-170 256 l-184 -256q-70 -98 -91 -131l107 -6v-66h-338z" />
<glyph unicode="&#xf779;" horiz-adv-x="972" d="M-39 1032v66h422v-66l-113 -6q61 -104 125 -197l160 -239l150 266q66 119 88 170l-113 6v66h315v-66l-94 -6l-110 -188l-191 -338q-4 -86 -4 -148v-69q0 -31 4 -211l139 -6v-66h-458v66l137 6q4 119 4 211v69q0 53 -4 148l-254 370q-92 129 -115 156z" />
<glyph unicode="&#xf77a;" horiz-adv-x="1079" d="M111 0v74q45 61 65 92q41 57 60 88l75 113l224 338q145 217 206 319h-454l-21 -223h-141v297h833v-74l-73 -104l-80 -117l-84 -127l-178 -268l-170 -256q-10 -14 -26.5 -42t-20.5 -36h479l20 223h144v-297h-858z" />
<glyph unicode="&#xf7a8;" d="M205 1409q0 47 31.5 78t78.5 31t78 -32t31 -79t-32 -78t-77 -31q-47 0 -78.5 32t-31.5 79zM598 1409q0 47 32 78t79 31t77.5 -32t30.5 -79t-31.5 -78t-76.5 -31q-47 0 -79 32t-32 79z" />
<glyph unicode="&#xf7af;" d="M213 1352v92h598v-92h-598z" />
<glyph unicode="&#xf7b4;" d="M354 1300q74 47 149 121t107 138h150q31 0 31 -17q0 -37 -101 -119q-102 -86 -309 -170z" />
<glyph unicode="&#xf7b8;" d="M338 -393q207 168 201 317h106q25 0 33 -6t8 -24q0 -82 -90 -183q-63 -66 -221 -162z" />
<glyph unicode="&#xf7e0;" horiz-adv-x="1056" d="M-29 0v66l103 6q27 49 90 202l217 549q78 195 104 275h84q16 -59 93 -242l258 -645q47 -117 59 -139l106 -6v-66h-444v66l133 6q-16 63 -53 161l-49 125h-385l-25 -67q-55 -150 -74 -219l121 -6v-66h-338zM281 1542q0 16 30 17h150q33 -63 107.5 -137t148.5 -122l-27 -47 q-207 84 -309 170q-100 82 -100 119zM315 432h328l-166 430z" />
<glyph unicode="&#xf7e1;" horiz-adv-x="1056" d="M-29 0v66l103 6q27 49 90 202l217 549q78 195 104 275h84q16 -59 93 -242l258 -645q47 -117 59 -139l106 -6v-66h-444v66l133 6q-16 63 -53 161l-49 125h-385l-25 -67q-55 -150 -74 -219l121 -6v-66h-338zM315 432h328l-166 430zM371 1300q74 47 148.5 121t107.5 138h149 q31 0 31 -17q0 -37 -100 -119q-102 -86 -310 -170z" />
<glyph unicode="&#xf7e2;" horiz-adv-x="1056" d="M-29 0v66l103 6q27 49 90 202l217 549q78 195 104 275h84q16 -59 93 -242l258 -645q47 -117 59 -139l106 -6v-66h-444v66l133 6q-16 63 -53 161l-49 125h-385l-25 -67q-55 -150 -74 -219l121 -6v-66h-338zM219 1307q94 61 221 252h176q127 -190 222 -252l-31 -47 q-184 86 -279 188q-86 -98 -278 -188zM315 432h328l-166 430z" />
<glyph unicode="&#xf7e3;" horiz-adv-x="1056" d="M-29 0v66l103 6q27 49 90 202l217 549q78 195 104 275h84q16 -59 93 -242l258 -645q47 -117 59 -139l106 -6v-66h-444v66l133 6q-16 63 -53 161l-49 125h-385l-25 -67q-55 -150 -74 -219l121 -6v-66h-338zM186 1298q59 207 201 207q53 0 160 -35q94 -31 147 -30 q100 0 113 78h61q-14 -113 -60 -162t-134 -49q-51 0 -162 32q-104 33 -164 33q-72 0 -100 -74h-62zM315 432h328l-166 430z" />
<glyph unicode="&#xf7e4;" horiz-adv-x="1056" d="M-29 0v66l103 6q27 49 90 202l217 549q78 195 104 275h84q16 -59 93 -242l258 -645q47 -117 59 -139l106 -6v-66h-444v66l133 6q-16 63 -53 161l-49 125h-385l-25 -67q-55 -150 -74 -219l121 -6v-66h-338zM221 1409q0 47 32 78t79 31t77.5 -32t30.5 -79t-31.5 -78 t-76.5 -31q-47 0 -79 32t-32 79zM315 432h328l-166 430zM614 1409q0 47 32 78t79 31t78 -32t31 -79t-32 -78t-77 -31q-47 0 -79 32t-32 79z" />
<glyph unicode="&#xf7e5;" horiz-adv-x="1056" d="M-29 0v66l103 6q27 49 90 202l217 549q78 195 104 275h84q16 -59 93 -242l258 -645q47 -117 59 -139l106 -6v-66h-444v66l133 6q-16 63 -53 161l-49 125h-385l-25 -67q-55 -150 -74 -219l121 -6v-66h-338zM315 432h328l-166 430zM324 1397q0 86 59 144t145 58 q88 0 146.5 -58t58.5 -146t-58.5 -146.5t-146.5 -58.5t-146 58.5t-58 148.5zM412 1397q0 -59 32.5 -95t84 -36t84 35.5t32.5 93t-32.5 93.5t-84 36t-84 -36t-32.5 -91z" />
<glyph unicode="&#xf7e6;" horiz-adv-x="1466" d="M-131 0v66l119 6q31 41 114 172l531 854h700v-297h-135l-22 223h-316v-430h371v-74h-371v-178q0 -162 4 -268h338l23 223h139v-297h-821v66l139 6q4 123 4 207v63h-416l-86 -137l-75 -133l116 -6v-66h-356zM315 416h371v604z" />
<glyph unicode="&#xf7e7;" horiz-adv-x="1107" d="M121 543q0 272 135 423.5t377 151.5q178 0 364 -86v-231h-139l-16 178q-90 66 -197 65q-156 0 -245 -136t-89 -373q0 -225 91.5 -353.5t252.5 -128.5q100 0 203 58l12 186h144v-246q-203 -72 -361 -71q-252 0 -392 148.5t-140 414.5zM381 -393q207 168 201 317h106 q25 0 33 -6t8 -24q0 -82 -90 -183q-63 -66 -221 -162z" />
<glyph unicode="&#xf7e8;" horiz-adv-x="1032" d="M76 0v66l151 6q8 111 9 270v414q0 160 -9 270l-151 6v66h823v-297h-137l-21 223h-323q-8 -98 -8 -270v-160h385v-74h-385v-176q0 -168 8 -270h348l22 223h142v-297h-854zM268 1542q0 16 31 17h150q33 -63 107.5 -137t148.5 -122l-27 -47q-207 84 -309 170 q-101 82 -101 119z" />
<glyph unicode="&#xf7e9;" horiz-adv-x="1032" d="M76 0v66l151 6q8 111 9 270v414q0 160 -9 270l-151 6v66h823v-297h-137l-21 223h-323q-8 -98 -8 -270v-160h385v-74h-385v-176q0 -168 8 -270h348l22 223h142v-297h-854zM358 1300q74 47 149 121t107 138h150q31 0 31 -17q0 -37 -101 -119q-102 -86 -309 -170z" />
<glyph unicode="&#xf7ea;" horiz-adv-x="1032" d="M76 0v66l151 6q8 111 9 270v414q0 160 -9 270l-151 6v66h823v-297h-137l-21 223h-323q-8 -98 -8 -270v-160h385v-74h-385v-176q0 -168 8 -270h348l22 223h142v-297h-854zM207 1307q94 61 221 252h176q127 -190 221 -252l-30 -47q-184 86 -279 188q-86 -98 -278 -188z" />
<glyph unicode="&#xf7eb;" horiz-adv-x="1032" d="M76 0v66l151 6q8 111 9 270v414q0 160 -9 270l-151 6v66h823v-297h-137l-21 223h-323q-8 -98 -8 -270v-160h385v-74h-385v-176q0 -168 8 -270h348l22 223h142v-297h-854zM217 1409q0 47 32 78t79 31t77.5 -32t30.5 -79t-31.5 -78t-76.5 -31q-47 0 -79 32t-32 79z M610 1409q0 47 32 78t79 31t77.5 -32t30.5 -79t-31.5 -78t-76.5 -31q-47 0 -79 32t-32 79z" />
<glyph unicode="&#xf7ec;" horiz-adv-x="643" d="M74 1542q0 16 30 17h150q33 -63 107.5 -137t148.5 -122l-27 -47q-207 84 -309 170q-100 82 -100 119zM76 0v66l151 6q8 111 9 272v410q0 162 -9 272l-151 6v66h491v-66l-149 -6q-8 -111 -8 -272v-410q0 -162 8 -272l149 -6v-66h-491z" />
<glyph unicode="&#xf7ed;" horiz-adv-x="643" d="M76 0v66l151 6q8 111 9 272v410q0 162 -9 272l-151 6v66h491v-66l-149 -6q-8 -111 -8 -272v-410q0 -162 8 -272l149 -6v-66h-491zM164 1300q74 47 148.5 121t107.5 138h149q31 0 31 -17q0 -37 -100 -119q-102 -86 -310 -170z" />
<glyph unicode="&#xf7ee;" horiz-adv-x="643" d="M12 1307q94 61 221 252h177q127 -190 221 -252l-31 -47q-184 86 -278 188q-86 -98 -279 -188zM76 0v66l151 6q8 111 9 272v410q0 162 -9 272l-151 6v66h491v-66l-149 -6q-8 -111 -8 -272v-410q0 -162 8 -272l149 -6v-66h-491z" />
<glyph unicode="&#xf7ef;" horiz-adv-x="643" d="M14 1409q0 47 32 78t79 31t77.5 -32t30.5 -79t-30.5 -78t-77.5 -31t-79 32t-32 79zM76 0v66l151 6q8 111 9 272v410q0 162 -9 272l-151 6v66h491v-66l-149 -6q-8 -111 -8 -272v-410q0 -162 8 -272l149 -6v-66h-491zM408 1409q0 47 31.5 78t78.5 31t78 -32t31 -79t-31 -78 t-78 -31t-78.5 32t-31.5 79z" />
</font>
</defs>
</svg>
